<svg width="25" height="24" viewBox="0 0 25 24" fill="none" xmlns="http://www.w3.org/2000/svg">
<g clip-path="url(#clip0_1096_3532)">
<path d="M23.4999 3.00029C22.5423 3.67577 21.482 4.1924 20.3599 4.53029C19.7576 3.8378 18.9572 3.34698 18.0669 3.12422C17.1766 2.90145 16.2394 2.95749 15.382 3.28474C14.5245 3.612 13.7883 4.19469 13.2729 4.95401C12.7574 5.71332 12.4876 6.61263 12.4999 7.53029V8.53029C10.7425 8.57586 9.00115 8.1861 7.43089 7.39574C5.86062 6.60537 4.5102 5.43893 3.49988 4.00029C3.49988 4.00029 -0.500122 13.0003 8.49988 17.0003C6.44041 18.3983 3.98703 19.0992 1.49988 19.0003C10.4999 24.0003 21.4999 19.0003 21.4999 7.50029C21.499 7.22174 21.4722 6.94388 21.4199 6.67029C22.4405 5.66378 23.1607 4.393 23.4999 3.00029Z" stroke="white" stroke-width="2" stroke-linecap="round" stroke-linejoin="round"/>
</g>
<defs>
<clipPath id="clip0_1096_3532">
<rect width="24" height="24" fill="white" transform="translate(0.499878)"/>
</clipPath>
</defs>
</svg>
