<svg width="25" height="24" viewBox="0 0 25 24" fill="none" xmlns="http://www.w3.org/2000/svg">
<path d="M18.118 2.42518C18.3544 2.15499 18.6959 2 19.0549 2C20.1244 2 20.6959 3.25958 19.9917 4.06444L14.571 10.26L20.6476 18.2935C21.6441 19.6109 20.7043 21.5 19.0525 21.5H17.4042C16.7814 21.5 16.194 21.2098 15.8156 20.715L11.202 14.683L5.60819 21.0747C5.37167 21.345 5.03 21.5 4.67086 21.5C3.60072 21.5 3.02876 20.2396 3.73342 19.4342L9.656 12.665L3.95861 5.21494C2.95219 3.89892 3.89056 2 5.54729 2H7.33108C7.95773 2 8.54816 2.29371 8.92619 2.7935L13.039 8.231L18.118 2.42518ZM17.329 19.52H19.162L7.33 3.876H5.363L17.329 19.52Z" fill="white"/>
</svg>
