<svg width="37" height="36" viewBox="0 0 37 36" fill="none" xmlns="http://www.w3.org/2000/svg">
<path opacity="0.7" fill-rule="evenodd" clip-rule="evenodd" d="M23.3674 23.8961L19.7688 22.6965L22.2086 21.8833C22.7758 21.7011 23.3804 21.6677 23.9643 21.7864C24.5482 21.905 25.0918 22.1718 25.5429 22.561L25.9699 22.9202C25.7243 23.3677 25.3283 23.7139 24.852 23.8975C24.3757 24.081 23.8498 24.0901 23.3674 23.9232" fill="white"/>
<path fill-rule="evenodd" clip-rule="evenodd" d="M21.8629 20.8532L12.7138 23.8893C12.2922 24.0288 11.8379 24.0358 11.4122 23.9095C10.9864 23.7833 10.6094 23.5297 10.332 23.1829C10.0546 22.8361 9.88991 22.4127 9.86017 21.9696C9.83043 21.5264 9.93703 21.0848 10.1656 20.7041L16.1837 10.6943C16.3786 10.3716 16.6535 10.1047 16.9818 9.91942C17.31 9.73415 17.6806 9.6368 18.0576 9.6368C18.4345 9.6368 18.8051 9.73415 19.1334 9.91942C19.4617 10.1047 19.7366 10.3716 19.9315 10.6943L25.3531 19.7011L25.9563 20.7041C26.1336 21.0023 26.2338 21.3401 26.2477 21.6868C25.6511 21.1809 24.9343 20.8372 24.1663 20.6888C23.3983 20.5405 22.605 20.5924 21.8629 20.8396" fill="white"/>
<path fill-rule="evenodd" clip-rule="evenodd" d="M18.0406 36C14.4823 35.992 11.0062 34.9295 8.05148 32.9467C5.09675 30.964 2.79598 28.1499 1.43983 24.8602C0.0836884 21.5704 -0.266975 17.9525 0.432144 14.4635C1.13126 10.9745 2.8488 7.77105 5.36775 5.25777C7.88671 2.74449 11.0941 1.03419 14.5846 0.342948C18.0752 -0.348296 21.6923 0.0105303 24.979 1.37409C28.2657 2.73766 31.0745 5.04478 33.0506 8.00397C35.0266 10.9632 36.0813 14.4417 36.0813 18C36.0786 20.3665 35.6099 22.7092 34.7018 24.8945C33.7937 27.0798 32.4641 29.0649 30.7889 30.7363C29.1137 32.4078 27.1256 33.7329 24.9383 34.6361C22.7509 35.5392 20.4071 36.0027 18.0406 36ZM18.0406 33.2892C21.0667 33.2838 24.0231 32.3814 26.5364 30.6961C29.0496 29.0107 31.0068 26.6181 32.1605 23.8206C33.3141 21.0232 33.6125 17.9465 33.0179 14.9795C32.4233 12.0125 30.9624 9.28833 28.8198 7.15146C26.6772 5.01459 23.9493 3.56091 20.9807 2.97417C18.0121 2.38744 14.9362 2.694 12.1418 3.85509C9.34741 5.01619 6.95999 6.9797 5.28134 9.49741C3.60268 12.0151 2.70815 14.974 2.71082 18C2.71621 22.061 4.33413 25.9535 7.20883 28.8219C10.0835 31.6902 13.9797 33.2995 18.0406 33.2959V33.2892Z" fill="white"/>
</svg>
