<svg width="180" height="180" viewBox="0 0 180 180" fill="none" xmlns="http://www.w3.org/2000/svg">
<path fill-rule="evenodd" clip-rule="evenodd" d="M116.432 119.397L98.4386 113.416L110.637 109.361C113.474 108.453 116.497 108.286 119.416 108.878C122.335 109.47 125.053 110.8 127.309 112.74L129.444 114.531C128.216 116.762 126.236 118.488 123.855 119.404C121.473 120.319 118.844 120.364 116.432 119.532" fill="#8E8E8E"/>
<path fill-rule="evenodd" clip-rule="evenodd" d="M108.909 104.225L63.1638 119.363C61.0555 120.058 58.7844 120.093 56.6554 119.464C54.5265 118.834 52.6418 117.57 51.2546 115.841C49.8675 114.112 49.0442 112.001 48.8955 109.791C48.7468 107.582 49.2798 105.38 50.4229 103.482L80.5132 53.5749C81.4875 51.966 82.8619 50.6353 84.5034 49.7116C86.1449 48.7879 87.9977 48.3025 89.8825 48.3025C91.7674 48.3025 93.6202 48.7879 95.2617 49.7116C96.9032 50.6353 98.2776 51.966 99.2519 53.5749L129.376 103.482C130.263 104.969 130.763 106.653 130.833 108.381C127.85 105.859 124.266 104.146 120.426 103.406C116.586 102.666 112.62 102.925 108.909 104.158" fill="white"/>
<path fill-rule="evenodd" clip-rule="evenodd" d="M89.7967 179.745C72.0051 179.705 54.6246 174.407 39.8509 164.521C25.0773 154.636 13.5734 140.606 6.79267 124.203C0.0119481 107.801 -1.74137 89.763 1.75423 72.3676C5.24982 54.9722 13.8375 39.0002 26.4323 26.4694C39.027 13.9387 55.0638 5.41142 72.5165 1.965C89.9693 -1.48142 108.055 0.307622 124.488 7.10611C140.922 13.9046 154.966 25.4075 164.846 40.1615C174.727 54.9155 180 72.2587 180 89.9999C179.987 101.799 177.643 113.479 173.103 124.375C168.562 135.27 161.914 145.167 153.538 153.501C145.162 161.835 135.222 168.441 124.285 172.944C113.348 177.447 101.629 179.758 89.7967 179.745ZM89.7967 166.229C104.927 166.202 119.709 161.703 132.275 153.3C144.842 144.897 154.627 132.968 160.396 119.021C166.164 105.073 167.656 89.733 164.683 74.94C161.71 60.147 154.405 46.5651 143.692 35.911C132.98 25.257 119.34 18.0092 104.497 15.0838C89.6539 12.1585 74.2744 13.6869 60.3025 19.4759C46.3306 25.2649 34.3935 35.0546 26.0002 47.6075C17.6069 60.1603 13.1342 74.9127 13.1476 89.9999C13.1746 110.247 21.2641 129.655 35.6377 143.956C50.0112 158.257 69.4919 166.281 89.7967 166.263V166.229Z" fill="white"/>
</svg>
