<?xml version="1.0" encoding="UTF-8"?>
<svg width="462px" height="462px" viewBox="0 0 462 462" version="1.1" xmlns="http://www.w3.org/2000/svg" xmlns:xlink="http://www.w3.org/1999/xlink">
    <!-- Generator: Sketch Beta 48.2 (47327) - http://www.bohemiancoding.com/sketch -->
    <title>Combined Shape</title>
    <desc>Created with Sketch Beta.</desc>
    <defs></defs>
    <g id="Artboard-3" stroke="none" stroke-width="1" fill="none" fill-rule="evenodd" transform="translate(-110.000000, -76.000000)">
        <path d="M341,538 C213.422223,538 110,434.577777 110,307 C110,179.422223 213.422223,76 341,76 C468.577777,76 572,179.422223 572,307 C572,434.577777 468.577777,538 341,538 Z M341.5,504 C450.023953,504 538,416.023953 538,307.5 C538,198.976047 450.023953,111 341.5,111 C232.976047,111 145,198.976047 145,307.5 C145,416.023953 232.976047,504 341.5,504 Z M408.861824,383.463733 L363,367.879271 L394.098118,357.309599 C398.610412,355.776973 403.292324,355 408.018382,355 C418.464971,355 428.616471,358.801955 436.602441,365.704694 L442,370.3689 C435.891441,381.353115 422.888971,388.232166 408.861824,383.463733 Z M389.905863,343.549092 L272.916844,382.489137 C248.283897,390.689981 226.734147,363.862703 240.092335,341.631528 L317.044076,213.559667 C327.906344,195.480111 354.142646,195.480111 365.004913,213.559667 L434.242837,328.790365 L441.958985,341.631528 C444.468889,345.811072 445.74598,350.153517 446,354.393567 C430.812402,341.533788 409.637855,336.981901 389.905863,343.549092 Z" id="Combined-Shape" fill="#444444"></path>
    </g>
</svg>