<svg version="1.2" xmlns="http://www.w3.org/2000/svg" viewBox="0 0 500 500" width="500" height="500">
	<title>activecapital-symbol-bg-svg</title>
	<style>
		.s0 { fill: #1f1f1f } 
	</style>
	<g id="Artboard-3">
		<path id="Combined-Shape" fill-rule="evenodd" class="s0" d="m250 500c-138.3 0-250-111.8-250-250 0-138.3 111.8-250 250-250 138.3 0 250 111.8 250 250 0 138.3-111.8 250-250 250zm213.2-249.5c0-117.6-95.1-212.6-212.7-212.6-117.6 0-212.6 95-212.6 212.6 0 117.6 95 212.7 212.6 212.7 117.6 0 212.7-95.1 212.7-212.7zm-160.3 39.1l-126.6 42.1c-26.6 8.9-50-20.2-35.5-44.2l83.3-138.6c11.7-19.6 40.1-19.6 51.9 0l74.9 124.7 8.4 13.9c2.7 4.5 4.1 9.2 4.3 13.8-16.4-13.9-39.3-18.9-60.7-11.7zm20.5 43.2l-49.6-16.9 33.7-11.5c4.8-1.6 9.9-2.5 15-2.5 11.3 0 22.3 4.2 31 11.6l5.8 5.1c-6.6 11.9-20.7 19.3-35.9 14.2z"/>
	</g>
</svg>