<svg version="1.2" xmlns="http://www.w3.org/2000/svg" viewBox="0 0 700 700" width="700" height="700">
	<title>activecapital-symbol-bg-svg</title>
	<style>
		.s0 { fill: #1f1f1f } 
	</style>
	<g id="Artboard-3">
		<path id="Combined-Shape" fill-rule="evenodd" class="s0" d="m350 700c-193.6 0-350-156.5-350-350 0-193.6 156.4-350 350-350 193.5 0 350 156.4 350 350 0 193.5-156.5 350-350 350zm298.5-349.2c0-164.7-133.1-297.8-297.7-297.8-164.7 0-297.8 133.1-297.8 297.8 0 164.6 133.1 297.7 297.8 297.7 164.6 0 297.7-133.1 297.7-297.7zm-224.4 54.6l-177.3 59c-37.3 12.4-69.9-28.2-49.7-61.9l116.6-194.1c16.5-27.4 56.2-27.4 72.7 0l104.9 174.6 11.7 19.5c3.8 6.3 5.7 12.9 6.1 19.3-23-19.5-55.1-26.4-85-16.4zm28.7 60.5l-69.5-23.7 47.2-16c6.8-2.3 13.9-3.5 21-3.5 15.9 0 31.3 5.8 43.4 16.2l8.1 7.1c-9.2 16.7-28.9 27.1-50.2 19.9z"/>
	</g>
</svg>