<svg width="154" height="25" viewBox="0 0 154 25" fill="none" xmlns="http://www.w3.org/2000/svg">
<path fill-rule="evenodd" clip-rule="evenodd" d="M10.5835 6.59864H13.8365V19.1973H10.5835V17.7199C10.0861 18.3245 9.45495 18.8052 8.73983 19.124C8.02471 19.4427 7.24525 19.5908 6.46306 19.5565C3.0745 19.5565 0.329773 16.6627 0.329773 12.9081C0.329773 9.15361 3.10839 6.25301 6.46306 6.25301C7.24595 6.21845 8.0261 6.36709 8.74143 6.68711C9.45677 7.00712 10.0875 7.48968 10.5835 8.09638V6.59864ZM7.073 16.4526C7.54217 16.47 8.00985 16.3898 8.44638 16.217C8.88291 16.0441 9.27876 15.7825 9.60883 15.4486C9.9389 15.1147 10.196 14.7159 10.3638 14.2774C10.5316 13.8389 10.6064 13.3703 10.5835 12.9014C10.6043 12.4287 10.5292 11.9568 10.3627 11.514C10.1962 11.0711 9.94167 10.6666 9.61458 10.3248C9.28749 9.98304 8.89457 9.71102 8.45951 9.52518C8.02444 9.33934 7.55625 9.24353 7.08316 9.24353C6.61007 9.24353 6.14188 9.33934 5.70682 9.52518C5.27175 9.71102 4.87883 9.98304 4.55174 10.3248C4.22465 10.6666 3.97018 11.0711 3.80365 11.514C3.63712 11.9568 3.56199 12.4287 3.58279 12.9014C3.56011 13.3685 3.63439 13.8353 3.80096 14.2724C3.96752 14.7095 4.22277 15.1073 4.55062 15.4409C4.87847 15.7745 5.27184 16.0366 5.70594 16.2107C6.14005 16.3848 6.6055 16.4671 7.073 16.4526ZM22.8027 19.5497C23.9606 19.5644 25.1013 19.2686 26.106 18.6929C27.1108 18.1172 27.9429 17.2827 28.5158 16.2764L25.6829 14.6634C25.4069 15.187 24.9876 15.6211 24.4739 15.9152C23.9603 16.2092 23.3736 16.3509 22.7823 16.3238C22.334 16.3359 21.888 16.2566 21.4714 16.0906C21.0548 15.9246 20.6764 15.6754 20.3593 15.3583C20.0421 15.0412 19.793 14.6628 19.627 14.2462C19.461 13.8296 19.3816 13.3835 19.3938 12.9352C19.3742 12.4819 19.4479 12.0293 19.6103 11.6056C19.7728 11.1819 20.0206 10.796 20.3382 10.472C20.6559 10.1479 21.0368 9.89258 21.4572 9.72176C21.8776 9.55094 22.3287 9.46828 22.7823 9.47892C23.3727 9.45986 23.9565 9.6082 24.4661 9.9068C24.9758 10.2054 25.3906 10.6421 25.6626 11.1664L28.4819 9.49925C27.9208 8.49609 27.0983 7.66381 26.1018 7.09098C25.1054 6.51816 23.9722 6.22622 22.823 6.24623C21.9428 6.2259 21.0677 6.38405 20.2503 6.71113C19.4329 7.03821 18.6903 7.52745 18.0671 8.14935C17.4439 8.77124 16.9532 9.51291 16.6244 10.3296C16.2957 11.1463 16.1358 12.0212 16.1543 12.9014C16.1358 13.7795 16.2952 14.6523 16.6228 15.4673C16.9503 16.2822 17.4394 17.0225 18.0604 17.6436C18.6815 18.2647 19.4218 18.7537 20.2368 19.0813C21.0517 19.4088 21.9245 19.5682 22.8027 19.5497ZM37.5564 9.72289V6.59864H34.7033V3.07455L31.4435 4.05723V6.59864H29.2477V9.72289H31.4435V14.9684C31.4435 18.3569 32.9819 19.7123 37.5429 19.1973V16.2492C35.6724 16.3509 34.6897 16.3238 34.6897 14.9684V9.72289H37.5564ZM41.6701 5.08735C42.0756 5.09538 42.4742 4.98197 42.8147 4.76169C43.1552 4.54142 43.4221 4.22434 43.581 3.85122C43.7399 3.4781 43.7836 3.06599 43.7064 2.66785C43.6293 2.26971 43.4348 1.90374 43.148 1.61697C42.8613 1.33021 42.4953 1.13576 42.0972 1.05861C41.699 0.981461 41.2869 1.02514 40.9138 1.18404C40.5407 1.34294 40.2236 1.60979 40.0033 1.9503C39.783 2.29081 39.6696 2.68941 39.6777 3.09488C39.6881 3.62006 39.9013 4.12083 40.2728 4.49226C40.6442 4.86369 41.145 5.07695 41.6701 5.08735ZM40.0572 19.1973H43.3102V6.59864H40.0572V19.1973ZM54.6008 6.59864L51.524 15.4157L48.4676 6.60542H44.8825L49.6807 19.2041H53.3877L58.1927 6.60542L54.6008 6.59864ZM62.5097 14.2364C62.9638 15.8968 64.3531 16.6017 66.0677 16.6017C66.605 16.623 67.1399 16.5204 67.6312 16.3018C68.1224 16.0832 68.5567 15.7545 68.9006 15.3411L71.5233 16.8524C70.9074 17.73 70.0805 18.4384 69.1187 18.9121C68.157 19.3859 67.0914 19.6098 66.0203 19.5633C61.7778 19.5633 59.1008 16.6694 59.1008 12.9149C59.0697 12.0319 59.2204 11.152 59.5437 10.3297C59.8669 9.50743 60.3558 8.76041 60.9799 8.13502C61.604 7.50964 62.3501 7.01925 63.1717 6.69433C63.9933 6.36941 64.8729 6.21688 65.756 6.24623C69.4902 6.24623 72.14 9.19428 72.14 12.9014C72.1394 13.3559 72.0986 13.8095 72.018 14.2568L62.5097 14.2364ZM62.4555 11.7154H68.9006C68.7759 10.9809 68.3879 10.317 67.8091 9.84795C67.2302 9.37891 66.5003 9.13689 65.756 9.16717C64.9899 9.11697 64.2318 9.34818 63.6241 9.81737C63.0163 10.2866 62.6008 10.9615 62.4555 11.7154ZM80.5911 19.5023C81.7444 19.5271 82.8824 19.2343 83.8805 18.6557C84.8785 18.0772 85.6983 17.2353 86.2499 16.2221L84.8606 15.4157C84.4408 16.177 83.8216 16.8095 83.0693 17.2453C82.3171 17.6812 81.4603 17.9038 80.5911 17.8893C79.2991 17.8417 78.0759 17.295 77.1787 16.3641C76.2816 15.4333 75.7803 14.1908 75.7803 12.898C75.7803 11.6051 76.2816 10.3627 77.1787 9.43181C78.0759 8.50095 79.2991 7.95424 80.5911 7.90663C81.4456 7.87932 82.2901 8.09789 83.0241 8.53638C83.7581 8.97487 84.3509 9.61484 84.7319 10.3803L86.0873 9.6009C85.581 8.57632 84.7901 7.71941 83.8093 7.13284C82.8285 6.54627 81.6993 6.25491 80.5572 6.29367C79.6821 6.27248 78.8117 6.42865 77.9986 6.75278C77.1854 7.07691 76.4463 7.56228 75.8258 8.17967C75.2052 8.79706 74.7161 9.53368 74.3878 10.3452C74.0595 11.1566 73.8989 12.0262 73.9156 12.9014C73.8996 13.7789 74.062 14.6506 74.3927 15.4636C74.7235 16.2766 75.2159 17.014 75.84 17.6311C76.4641 18.2483 77.207 18.7323 78.0236 19.0539C78.8403 19.3756 79.7137 19.5281 80.5911 19.5023ZM99.5127 6.62575H101.18V19.1973H99.5127V16.7304C98.9751 17.5949 98.2221 18.305 97.3275 18.7909C96.4329 19.2768 95.4274 19.5219 94.4096 19.5023C92.6946 19.4473 91.0683 18.7274 89.8746 17.4949C88.6809 16.2623 88.0135 14.6138 88.0135 12.898C88.0135 11.1821 88.6809 9.53359 89.8746 8.30105C91.0683 7.0685 92.6946 6.34862 94.4096 6.29367C95.4274 6.27401 96.4329 6.51915 97.3275 7.00506C98.2221 7.49097 98.9751 8.20099 99.5127 9.06551V6.62575ZM94.5316 17.9164C95.5206 17.9204 96.4885 17.6308 97.3127 17.0841C98.1369 16.5374 98.7803 15.7584 99.1612 14.8456C99.5422 13.9329 99.6436 12.9277 99.4526 11.9573C99.2617 10.9869 98.7869 10.095 98.0885 9.39473C97.3901 8.69444 96.4995 8.21725 95.5297 8.02364C94.5598 7.83003 93.5543 7.92871 92.6405 8.30719C91.7268 8.68566 90.946 9.32689 90.3971 10.1496C89.8482 10.9723 89.5558 11.9394 89.5572 12.9285C89.5527 13.5823 89.6783 14.2306 89.9269 14.8354C90.1754 15.4402 90.5419 15.9895 91.0049 16.4512C91.4679 16.913 92.0182 17.2779 92.6236 17.5248C93.2291 17.7717 93.8777 17.8956 94.5316 17.8893V17.9164ZM111.474 6.32078C113.189 6.37573 114.816 7.09561 116.009 8.32816C117.203 9.5607 117.87 11.2092 117.87 12.9251C117.87 14.6409 117.203 16.2894 116.009 17.522C114.816 18.7545 113.189 19.4744 111.474 19.5294C110.456 19.5497 109.451 19.3048 108.556 18.8189C107.661 18.3329 106.908 17.6225 106.371 16.7575V24.2395H104.704V6.61898H106.371V9.08584C106.906 8.21608 107.659 7.50102 108.555 7.01133C109.452 6.52165 110.46 6.27428 111.481 6.29367L111.474 6.32078ZM111.346 17.9164C112.335 17.9204 113.303 17.6308 114.127 17.0841C114.951 16.5374 115.594 15.7584 115.975 14.8456C116.356 13.9329 116.458 12.9277 116.267 11.9573C116.076 10.9869 115.601 10.095 114.903 9.39473C114.204 8.69444 113.314 8.21725 112.344 8.02364C111.374 7.83003 110.368 7.92871 109.455 8.30719C108.541 8.68566 107.76 9.32689 107.211 10.1496C106.662 10.9723 106.37 11.9394 106.371 12.9285C106.367 13.5829 106.493 14.2317 106.742 14.837C106.99 15.4422 107.358 15.9918 107.821 16.4537C108.285 16.9155 108.836 17.2803 109.442 17.5268C110.049 17.7733 110.698 17.8965 111.352 17.8893L111.346 17.9164ZM121.599 3.95557C121.84 3.95691 122.075 3.88691 122.275 3.75443C122.476 3.62195 122.632 3.43296 122.725 3.21142C122.818 2.98987 122.843 2.74575 122.797 2.50999C122.751 2.27422 122.636 2.05744 122.466 1.8871C122.297 1.71677 122.081 1.60056 121.845 1.5532C121.61 1.50584 121.366 1.52946 121.143 1.62107C120.921 1.71269 120.732 1.86817 120.598 2.06781C120.464 2.26744 120.393 2.50225 120.393 2.74247C120.393 3.06303 120.52 3.37057 120.746 3.59787C120.972 3.82518 121.279 3.95378 121.599 3.95557ZM120.773 19.2244H122.433V6.59864H120.766V19.1973L120.773 19.2244ZM132.673 8.23193V6.59864H129.034V3.07455L127.367 3.57605V6.59864H124.717V8.23193H127.367V15.8494C127.367 18.872 129.264 19.7056 132.673 19.1973V17.7199C130.22 17.8215 129.034 17.9977 129.034 15.8358V8.23193H132.673ZM146.309 6.61898H147.976V19.1973H146.309V16.7304C145.773 17.5953 145.022 18.3058 144.128 18.7919C143.234 19.2779 142.229 19.5228 141.212 19.5023C139.497 19.4473 137.871 18.7274 136.677 17.4949C135.484 16.2623 134.816 14.6138 134.816 12.898C134.816 11.1821 135.484 9.53359 136.677 8.30105C137.871 7.0685 139.497 6.34862 141.212 6.29367C142.229 6.27318 143.234 6.51802 144.128 7.00406C145.022 7.49011 145.773 8.20059 146.309 9.06551V6.61898ZM141.334 17.9096C142.323 17.9137 143.291 17.624 144.115 17.0773C144.94 16.5306 145.583 15.7516 145.964 14.8389C146.345 13.9262 146.446 12.9209 146.255 11.9505C146.064 10.9801 145.59 10.0882 144.891 9.38795C144.193 8.68766 143.302 8.21047 142.332 8.01686C141.362 7.82325 140.357 7.92194 139.443 8.30041C138.529 8.67889 137.749 9.32011 137.2 10.1428C136.651 10.9655 136.359 11.9327 136.36 12.9217C136.354 13.5764 136.478 14.2258 136.726 14.8318C136.974 15.4378 137.34 15.9882 137.803 16.4509C138.266 16.9135 138.817 17.2791 139.424 17.5261C140.03 17.7731 140.68 17.8966 141.334 17.8893V17.9096ZM151.5 19.2176H153.181V0.777107H151.514L151.5 19.2176Z" fill="white"/>
</svg>
