<svg width="174" height="32" viewBox="0 0 174 32" fill="none" xmlns="http://www.w3.org/2000/svg">
<g clip-path="url(#clip0_1012_2400)">
<path opacity="0.7" fill-rule="evenodd" clip-rule="evenodd" d="M20.8317 21.241L17.6235 20.1747L19.7985 19.4518C20.3042 19.2898 20.8432 19.2602 21.3637 19.3657C21.8843 19.4712 22.3689 19.7083 22.771 20.0542L23.1517 20.3735C22.9328 20.7713 22.5797 21.079 22.1551 21.2422C21.7305 21.4054 21.2617 21.4135 20.8317 21.2651" fill="black"/>
<path fill-rule="evenodd" clip-rule="evenodd" d="M46.8772 11.1987H49.7772V22.3975H46.8772V21.0843C46.4338 21.6218 45.8711 22.049 45.2336 22.3324C44.5961 22.6157 43.9012 22.7473 43.2039 22.7168C40.1831 22.7168 37.7362 20.1445 37.7362 16.8072C37.7362 13.4698 40.2133 10.8915 43.2039 10.8915C43.9018 10.8608 44.5973 10.9929 45.235 11.2774C45.8727 11.5618 46.435 11.9908 46.8772 12.5301V11.1987ZM43.7477 19.9578C44.1659 19.9733 44.5828 19.902 44.972 19.7484C45.3612 19.5947 45.714 19.3622 46.0083 19.0654C46.3025 18.7686 46.5317 18.414 46.6813 18.0243C46.8309 17.6345 46.8976 17.218 46.8772 16.8012C46.8958 16.381 46.8288 15.9615 46.6803 15.5679C46.5319 15.1743 46.305 14.8147 46.0134 14.5109C45.7218 14.2071 45.3715 13.9653 44.9837 13.8001C44.5958 13.6349 44.1785 13.5498 43.7567 13.5498C43.335 13.5498 42.9176 13.6349 42.5297 13.8001C42.1419 13.9653 41.7916 14.2071 41.5 14.5109C41.2084 14.8147 40.9815 15.1743 40.8331 15.5679C40.6846 15.9615 40.6176 16.381 40.6362 16.8012C40.616 17.2164 40.6822 17.6314 40.8307 18.0199C40.9792 18.4084 41.2067 18.762 41.499 19.0585C41.7913 19.355 42.1419 19.588 42.5289 19.7428C42.9159 19.8975 43.3309 19.9707 43.7477 19.9578ZM57.7704 22.7108C58.8026 22.7239 59.8195 22.4609 60.7152 21.9492C61.611 21.4375 62.3528 20.6957 62.8635 19.8012L60.3381 18.3674C60.092 18.8328 59.7182 19.2187 59.2603 19.4801C58.8024 19.7414 58.2793 19.8674 57.7522 19.8433C57.3526 19.8541 56.9549 19.7836 56.5835 19.636C56.2121 19.4885 55.8748 19.267 55.5921 18.9851C55.3094 18.7033 55.0873 18.3669 54.9393 17.9966C54.7913 17.6263 54.7206 17.2298 54.7314 16.8313C54.7139 16.4283 54.7796 16.026 54.9245 15.6494C55.0693 15.2727 55.2902 14.9297 55.5734 14.6417C55.8566 14.3537 56.1961 14.1267 56.5709 13.9748C56.9457 13.823 57.3478 13.7495 57.7522 13.759C58.2785 13.742 58.7989 13.8739 59.2533 14.1393C59.7076 14.4048 60.0774 14.7929 60.3199 15.259L62.8333 13.7771C62.3331 12.8854 61.5998 12.1456 60.7115 11.6364C59.8232 11.1272 58.813 10.8677 57.7885 10.8855C57.0038 10.8674 56.2237 11.008 55.495 11.2987C54.7663 11.5895 54.1042 12.0244 53.5487 12.5771C52.9932 13.1299 52.5557 13.7892 52.2626 14.5152C51.9695 15.2411 51.827 16.0188 51.8435 16.8012C51.827 17.5817 51.9691 18.3575 52.2611 19.082C52.5531 19.8064 52.9891 20.4644 53.5427 21.0165C54.0964 21.5685 54.7564 22.0032 55.4829 22.2944C56.2094 22.5856 56.9875 22.7272 57.7704 22.7108ZM70.9231 13.9759V11.1987H68.3795V8.06621L65.4735 8.93971V11.1987H63.516V13.9759H65.4735V18.6385C65.4735 21.6506 66.8449 22.8554 70.911 22.3975V19.7771C69.2435 19.8674 68.3674 19.8433 68.3674 18.6385V13.9759H70.9231ZM74.5903 9.85537C74.9518 9.86251 75.3072 9.7617 75.6107 9.5659C75.9143 9.3701 76.1522 9.08825 76.2938 8.75659C76.4355 8.42493 76.4744 8.05861 76.4056 7.7047C76.3369 7.3508 76.1635 7.02549 75.9079 6.77059C75.6522 6.51569 75.326 6.34284 74.971 6.27427C74.6161 6.20569 74.2487 6.24452 73.9161 6.38576C73.5835 6.52701 73.3008 6.76421 73.1044 7.06688C72.908 7.36956 72.8069 7.72387 72.8141 8.08429C72.8234 8.55111 73.0135 8.99624 73.3446 9.3264C73.6757 9.65656 74.1222 9.84612 74.5903 9.85537ZM73.1524 22.3975H76.0524V11.1987H73.1524V22.3975ZM86.1178 11.1987L83.3749 19.0361L80.6501 11.2048H77.4541L81.7316 22.4036H85.0364L89.3199 11.2048L86.1178 11.1987ZM93.1685 17.9879C93.5733 19.4638 94.8118 20.0903 96.3404 20.0903C96.8193 20.1093 97.2962 20.0181 97.7341 19.8238C98.1721 19.6295 98.5593 19.3373 98.8658 18.9698L101.204 20.3132C100.655 21.0933 99.9177 21.7229 99.0603 22.1441C98.2029 22.5652 97.2529 22.7642 96.2981 22.7228C92.516 22.7228 90.1295 20.1506 90.1295 16.8132C90.1017 16.0283 90.2361 15.2462 90.5243 14.5152C90.8125 13.7843 91.2483 13.1203 91.8047 12.5644C92.361 12.0085 93.0261 11.5726 93.7586 11.2838C94.491 10.995 95.2752 10.8594 96.0624 10.8855C99.3914 10.8855 101.754 13.506 101.754 16.8012C101.753 17.2052 101.717 17.6084 101.645 18.006L93.1685 17.9879ZM93.1201 15.7469H98.8658C98.7546 15.0941 98.4087 14.5039 97.8927 14.087C97.3767 13.6701 96.726 13.455 96.0624 13.4819C95.3795 13.4373 94.7036 13.6428 94.1619 14.0598C93.6201 14.4769 93.2497 15.0768 93.1201 15.7469ZM109.288 22.6686C110.316 22.6907 111.33 22.4304 112.22 21.9162C113.11 21.4019 113.841 20.6535 114.332 19.753L113.094 19.0361C112.72 19.7128 112.168 20.2751 111.497 20.6625C110.826 21.0499 110.063 21.2478 109.288 21.2349C108.136 21.1926 107.045 20.7066 106.246 19.8792C105.446 19.0517 104.999 17.9473 104.999 16.7981C104.999 15.649 105.446 14.5445 106.246 13.7171C107.045 12.8897 108.136 12.4037 109.288 12.3614C110.049 12.3371 110.802 12.5314 111.457 12.9212C112.111 13.3109 112.639 13.8798 112.979 14.5602L114.187 13.8674C113.736 12.9567 113.031 12.195 112.157 11.6736C111.282 11.1522 110.276 10.8932 109.257 10.9277C108.477 10.9088 107.701 11.0476 106.977 11.3358C106.252 11.6239 105.593 12.0553 105.039 12.6041C104.486 13.1529 104.05 13.8077 103.758 14.529C103.465 15.2503 103.322 16.0232 103.337 16.8012C103.322 17.5812 103.467 18.356 103.762 19.0787C104.057 19.8014 104.496 20.4568 105.052 21.0054C105.609 21.554 106.271 21.9842 106.999 22.2701C107.727 22.556 108.506 22.6916 109.288 22.6686ZM126.156 11.2228H127.642V22.3975H126.156V20.2048C125.677 20.9732 125.005 21.6044 124.208 22.0363C123.41 22.4682 122.514 22.6861 121.607 22.6686C120.078 22.6198 118.628 21.9799 117.564 20.8843C116.5 19.7887 115.905 18.3233 115.905 16.7981C115.905 15.273 116.5 13.8076 117.564 12.712C118.628 11.6164 120.078 10.9765 121.607 10.9277C122.514 10.9102 123.41 11.1281 124.208 11.56C125.005 11.9919 125.677 12.623 126.156 13.3915V11.2228ZM121.715 21.259C122.597 21.2626 123.46 21.0051 124.195 20.5191C124.929 20.0332 125.503 19.3407 125.843 18.5294C126.182 17.7181 126.273 16.8246 126.102 15.962C125.932 15.0994 125.509 14.3066 124.886 13.6842C124.264 13.0617 123.47 12.6375 122.605 12.4654C121.74 12.2933 120.844 12.381 120.03 12.7175C119.215 13.0539 118.519 13.6238 118.03 14.3551C117.54 15.0864 117.28 15.9461 117.281 16.8253C117.277 17.4065 117.389 17.9827 117.61 18.5203C117.832 19.0579 118.159 19.5462 118.571 19.9566C118.984 20.367 119.475 20.6914 120.014 20.9109C120.554 21.1304 121.132 21.2405 121.715 21.2349V21.259ZM136.82 10.9518C138.348 11.0006 139.798 11.6405 140.862 12.7361C141.926 13.8317 142.522 15.2971 142.522 16.8222C142.522 18.3474 141.926 19.8128 140.862 20.9084C139.798 22.004 138.348 22.6439 136.82 22.6927C135.912 22.7108 135.015 22.4932 134.218 22.0612C133.42 21.6292 132.749 20.9977 132.27 20.2289V26.8795H130.784V11.2168H132.27V13.4096C132.747 12.6365 133.418 12.0009 134.217 11.5656C135.016 11.1303 135.915 10.9104 136.826 10.9277L136.82 10.9518ZM136.705 21.259C137.586 21.2626 138.449 21.0051 139.184 20.5191C139.919 20.0332 140.492 19.3407 140.832 18.5294C141.172 17.7181 141.262 16.8246 141.092 15.962C140.921 15.0994 140.498 14.3066 139.876 13.6842C139.253 13.0617 138.459 12.6375 137.594 12.4654C136.73 12.2933 135.833 12.381 135.019 12.7175C134.204 13.0539 133.508 13.6238 133.019 14.3551C132.53 15.0864 132.269 15.9461 132.27 16.8253C132.266 17.407 132.378 17.9837 132.6 18.5217C132.822 19.0597 133.149 19.5482 133.563 19.9588C133.976 20.3693 134.468 20.6935 135.008 20.9127C135.549 21.1318 136.127 21.2413 136.711 21.2349L136.705 21.259ZM145.846 8.84935C146.06 8.85054 146.27 8.78831 146.448 8.67055C146.627 8.55279 146.766 8.3848 146.849 8.18788C146.932 7.99095 146.954 7.77395 146.913 7.56438C146.872 7.35481 146.77 7.16211 146.619 7.01071C146.468 6.8593 146.275 6.756 146.065 6.7139C145.855 6.6718 145.637 6.6928 145.439 6.77424C145.241 6.85567 145.072 6.99388 144.953 7.17133C144.834 7.34879 144.77 7.55751 144.77 7.77103C144.77 8.05598 144.883 8.32934 145.085 8.53139C145.286 8.73345 145.56 8.84775 145.846 8.84935ZM145.109 22.4216H146.589V11.1987H145.103V22.3975L145.109 22.4216ZM155.718 12.6506V11.1987H152.473V8.06621L150.987 8.512V11.1987H148.625V12.6506H150.987V19.4216C150.987 22.1084 152.679 22.8493 155.718 22.3975V21.0843C153.531 21.1746 152.473 21.3313 152.473 19.4096V12.6506H155.718ZM167.874 11.2168H169.36V22.3975H167.874V20.2048C167.396 20.9736 166.726 21.6051 165.93 22.0372C165.133 22.4692 164.237 22.6868 163.33 22.6686C161.801 22.6198 160.352 21.9799 159.288 20.8843C158.223 19.7887 157.628 18.3233 157.628 16.7981C157.628 15.273 158.223 13.8076 159.288 12.712C160.352 11.6164 161.801 10.9765 163.33 10.9277C164.237 10.9094 165.133 11.1271 165.93 11.5591C166.726 11.9912 167.396 12.6227 167.874 13.3915V11.2168ZM163.439 21.253C164.321 21.2565 165.184 20.999 165.918 20.5131C166.653 20.0272 167.227 19.3347 167.566 18.5234C167.906 17.7121 167.996 16.8185 167.826 15.956C167.656 15.0934 167.233 14.3006 166.61 13.6781C165.987 13.0556 165.193 12.6315 164.329 12.4594C163.464 12.2873 162.568 12.375 161.753 12.7114C160.939 13.0478 160.243 13.6178 159.753 14.3491C159.264 15.0804 159.003 15.9401 159.005 16.8192C158.999 17.4012 159.11 17.9784 159.331 18.5171C159.552 19.0558 159.878 19.5451 160.291 19.9563C160.704 20.3675 161.195 20.6925 161.736 20.912C162.276 21.1316 162.855 21.2413 163.439 21.2349V21.253ZM172.502 22.4156H174V6.02404H172.514L172.502 22.4156Z" fill="black"/>
<path fill-rule="evenodd" clip-rule="evenodd" d="M19.4904 18.5361L11.3341 21.2349C10.9582 21.3589 10.5533 21.3652 10.1737 21.2529C9.79415 21.1407 9.45811 20.9153 9.21078 20.607C8.96345 20.2987 8.81667 19.9224 8.79016 19.5285C8.76365 19.1346 8.85868 18.7421 9.06248 18.4036L14.4275 9.50602C14.6012 9.21918 14.8462 8.98194 15.1389 8.81726C15.4316 8.65257 15.7619 8.56604 16.098 8.56604C16.4341 8.56604 16.7644 8.65257 17.0571 8.81726C17.3498 8.98194 17.5948 9.21918 17.7685 9.50602L23.1396 18.4036C23.2976 18.6687 23.3869 18.9689 23.3994 19.2771C22.8675 18.8274 22.2285 18.522 21.5438 18.3901C20.8591 18.2582 20.152 18.3043 19.4904 18.5241" fill="black"/>
<path fill-rule="evenodd" clip-rule="evenodd" d="M16.0827 32C12.9105 31.9928 9.81163 31.0484 7.17754 29.2859C4.54345 27.5235 2.49235 25.0222 1.28337 22.0979C0.0743959 19.1737 -0.238214 15.9578 0.385038 12.8565C1.00829 9.75514 2.53944 6.9076 4.78504 4.67357C7.03065 2.43955 9.88995 0.919279 13.0017 0.304839C16.1135 -0.3096 19.338 0.00935686 22.2681 1.22141C25.1981 2.43347 27.7021 4.48424 29.4638 7.11464C31.2254 9.74504 32.1656 12.837 32.1656 16C32.1632 18.1035 31.7453 20.186 30.9358 22.1285C30.1263 24.071 28.941 25.8354 27.4475 27.3212C25.9541 28.8069 24.1818 29.9848 22.2318 30.7876C20.2818 31.5904 18.1924 32.0024 16.0827 32ZM16.0827 29.5903C18.7803 29.5856 21.416 28.7835 23.6565 27.2854C25.897 25.7873 27.6418 23.6605 28.6702 21.1739C29.6987 18.6873 29.9647 15.9524 29.4346 13.3151C28.9045 10.6777 27.6022 8.25629 25.6921 6.35685C23.7821 4.45741 21.3501 3.16525 18.7037 2.64371C16.0572 2.12217 13.3151 2.39466 10.824 3.42675C8.33284 4.45883 6.2045 6.20417 4.708 8.44213C3.21151 10.6801 2.41405 13.3102 2.41644 16C2.42124 19.6097 3.86358 23.0698 6.42633 25.6194C8.98908 28.1691 12.4624 29.5996 16.0827 29.5964V29.5903Z" fill="black"/>
</g>
<defs>
<clipPath id="clip0_1012_2400">
<rect width="174" height="32" fill="white"/>
</clipPath>
</defs>
</svg>
