<svg version="1.2" xmlns="http://www.w3.org/2000/svg" viewBox="0 0 358 63" width="358" height="63">
	<style>
		.s0 { fill: #ffffff } 
	</style>
	<g id="Layer_1-2">
		<g>
			<path class="s0" d="m121.12 50.85q-0.78-2.3-1.63-4.54-0.85-2.24-1.64-4.6h-16.41q-0.78 2.35-1.61 4.63-0.81 2.28-1.6 4.52h-7.35q2.19-6.22 4.14-11.5 1.97-5.28 3.84-9.98 1.88-4.71 3.73-8.97 1.85-4.27 3.8-8.41h6.75q1.97 4.15 3.81 8.41 1.85 4.26 3.73 8.97 1.88 4.71 3.87 9.98 1.99 5.28 4.18 11.5h-7.63zm-11.47-31.35q-1.29 2.97-2.94 7.24-1.65 4.27-3.45 9.25h12.79q-1.8-4.99-3.48-9.31-1.68-4.32-2.92-7.18zm44.75 32.2q-4.37 0-7.85-1.35-3.48-1.35-5.89-3.95-2.41-2.61-3.7-6.37-1.29-3.76-1.29-8.64 0-4.88 1.49-8.64 1.49-3.76 4.07-6.37 2.58-2.61 6.06-3.95 3.48-1.35 7.46-1.35 2.42 0 4.37 0.37 1.97 0.36 3.42 0.81 1.46 0.45 2.41 0.95 0.95 0.51 1.35 0.73l-2.08 5.78q-1.35-0.84-3.84-1.6-2.49-0.76-5.41-0.76-2.52 0-4.71 0.87-2.19 0.87-3.79 2.61-1.6 1.74-2.5 4.37-0.9 2.64-0.9 6.11 0 3.09 0.7 5.66 0.71 2.58 2.16 4.46 1.45 1.87 3.7 2.92 2.25 1.04 5.38 1.04 3.76 0 6.11-0.76 2.36-0.75 3.65-1.43l1.91 5.78q-0.68 0.45-1.82 0.9-1.15 0.45-2.72 0.87-1.58 0.42-3.53 0.67-1.96 0.25-4.21 0.25zm39.23 0q-4.37 0-7.85-1.35-3.48-1.35-5.89-3.95-2.41-2.61-3.7-6.37-1.29-3.76-1.29-8.64 0-4.88 1.49-8.64 1.49-3.76 4.07-6.37 2.58-2.61 6.06-3.95 3.48-1.35 7.46-1.35 2.42 0 4.37 0.37 1.97 0.36 3.42 0.81 1.46 0.45 2.41 0.95 0.95 0.51 1.35 0.73l-2.08 5.78q-1.35-0.84-3.84-1.6-2.49-0.76-5.41-0.76-2.52 0-4.71 0.87-2.19 0.87-3.79 2.61-1.6 1.74-2.5 4.37-0.9 2.64-0.9 6.11 0 3.09 0.7 5.66 0.71 2.58 2.16 4.46 1.46 1.87 3.7 2.92 2.25 1.04 5.38 1.04 3.75 0 6.11-0.76 2.36-0.75 3.65-1.43l1.91 5.78q-0.68 0.45-1.82 0.9-1.15 0.45-2.72 0.87-1.58 0.42-3.53 0.67-1.96 0.25-4.21 0.25zm47.53-6.96v6.11h-24.57v-38.86h7.07v32.75zm37.1 6.11q-0.78-2.3-1.63-4.54-0.85-2.24-1.64-4.6h-16.41q-0.77 2.35-1.61 4.63-0.81 2.27-1.6 4.52h-7.35q2.19-6.22 4.14-11.5 1.96-5.28 3.84-9.98 1.88-4.71 3.73-8.97 1.86-4.27 3.81-8.41h6.75q1.97 4.15 3.81 8.41 1.85 4.26 3.73 8.97 1.88 4.71 3.87 9.98 1.99 5.28 4.18 11.5h-7.63zm-11.47-31.35q-1.29 2.97-2.94 7.24-1.65 4.26-3.45 9.25h12.79q-1.8-4.99-3.48-9.31-1.68-4.32-2.92-7.18zm28.44-7.51h7.07v38.87h-7.07zm29.33 0q1.23 2.13 2.75 5.22 1.52 3.09 3.08 6.48 1.57 3.39 3.11 6.9 1.54 3.51 2.83 6.48 1.29-2.97 2.8-6.48 1.52-3.51 3.09-6.9 1.58-3.39 3.08-6.48 1.52-3.09 2.75-5.22h6.37q0.52 4.26 0.97 9.06 0.46 4.8 0.83 9.81 0.37 5.02 0.68 10.1 0.31 5.07 0.54 9.9h-6.95q-0.23-6.79-0.54-13.96-0.31-7.18-0.94-13.91-0.62 1.29-1.46 3.09-0.84 1.8-1.79 3.9-0.96 2.1-1.93 4.35-0.98 2.24-1.91 4.35-0.93 2.1-1.71 3.93-0.78 1.82-1.35 3.11h-5.27q-0.55-1.29-1.35-3.14-0.78-1.84-1.71-3.96-0.92-2.1-1.91-4.35-0.98-2.24-1.93-4.32-0.96-2.07-1.79-3.9-0.84-1.82-1.46-3.06-0.63 6.73-0.95 13.91-0.31 7.18-0.54 13.96h-6.95q0.23-4.82 0.54-9.98 0.32-5.16 0.68-10.23 0.37-5.07 0.83-9.84 0.46-4.77 0.97-8.81h6.53z"/>
			<path class="s0" d="m31.59 33.32q-0.13-0.56-0.25-1.14l-0.09-0.46-0.04-0.23-0.08-0.47v-0.04l-0.04-0.19q-0.18-1.06-0.3-2.14l-0.02-0.13v-0.11h-0.01l-0.02-0.21v-0.04q-0.04-0.35-0.07-0.71l-0.02-0.18v-0.07-0.02l-0.04-0.47-0.02-0.21v-0.04l-0.02-0.21v-0.03l-0.02-0.22v-0.02l-0.01-0.23v-0.02l-0.01-0.24-0.01-0.26v-0.25-0.25-0.02-0.23-0.03-0.22-0.04-0.21-0.05-0.21-0.19-0.06-0.07-0.19-0.52-0.26-0.11-0.15-0.12-0.14-0.13-0.13-0.14-0.13-0.15-0.12-0.16-0.11l0.01-0.17v-0.1l0.02-0.27v-0.19l0.01-0.08v-0.2l0.02-0.07v-0.21l0.02-0.06v-0.22l0.02-0.05 0.02-0.23v-0.04l0.02-0.24v-0.03l0.02-0.25v-0.02l0.02-0.26 0.02-0.28 0.03-0.28v-0.13l0.03-0.15v-0.05l0.03-0.21v-0.02l0.02-0.18v-0.1l0.02-0.11 0.02-0.18v-0.03l0.03-0.21v-0.05l0.02-0.16 0.02-0.13v-0.08l0.04-0.2 0.03-0.22v-0.07l0.03-0.14 0.02-0.15v-0.06l0.04-0.21v-0.02l0.03-0.19v-0.1l0.03-0.11 0.03-0.18v-0.04l0.04-0.21v-0.04l0.03-0.17 0.02-0.12v-0.09l0.05-0.2 0.03-0.23v-0.07l0.04-0.15 0.02-0.15v-0.07l0.05-0.22 0.04-0.22 0.02-0.1 0.02-0.12 0.03-0.18v-0.04l0.05-0.22v-0.04l0.04-0.18 0.02-0.12 0.02-0.1 0.04-0.2v-0.02l0.05-0.22v-0.07l0.04-0.15 0.03-0.15v-0.07l0.06-0.22 0.04-0.22 0.02-0.09 0.06-0.31v-0.05l0.06-0.22v-0.03l0.05-0.19 0.03-0.12 0.02-0.11 0.04-0.2v-0.02l0.06-0.23v-0.06l0.05-0.16 0.03-0.14 0.02-0.08 0.05-0.23 0.05-0.23 0.02-0.09 0.03-0.14 0.04-0.17v-0.05l0.07-0.23v-0.03l0.06-0.2 0.03-0.12 0.03-0.11 0.05-0.2v-0.03l0.06-0.23v-0.06l0.06-0.17 0.04-0.14 0.02-0.09 0.06-0.23 0.06-0.23 0.02-0.08 0.04-0.15 0.05-0.17 0.02-0.06 0.06-0.23v-0.02l0.06-0.21-20.68 35.69h0.02l0.16-0.03 0.36-0.06h0.08l0.1-0.03 0.18-0.03 0.12-0.02h0.05l0.15-0.04h0.03l0.17-0.04 0.18-0.03h0.01l0.16-0.03 0.69-0.13 0.12-0.02h0.06l0.33-0.08h0.02l0.17-0.04 0.16-0.04h0.03l0.14-0.03h0.05l0.12-0.04h0.07l0.1-0.04 0.09-0.02 0.08-0.02 0.11-0.02h0.06l0.13-0.04h0.04l0.15-0.04h0.02l0.17-0.04 0.16-0.04h0.02l0.14-0.04h0.04l0.12-0.04h0.06l0.1-0.04 0.16-0.04 0.1-0.02 0.06-0.02 0.12-0.03h0.04l0.14-0.04h0.02l0.16-0.04 0.16-0.04h0.01l0.15-0.04h0.03l0.12-0.04h0.05l0.11-0.04 0.07-0.02 0.09-0.02 0.09-0.02 0.07-0.02 0.11-0.03h0.05l0.13-0.04h0.03l0.15-0.04 0.16-0.04 0.15-0.04h0.03l0.13-0.04h0.05l0.11-0.04 0.07-0.02 0.09-0.02 0.08-0.02 0.07-0.02 0.1-0.03h0.05l0.12-0.05h0.03l0.14-0.05h0.01l0.15-0.04 0.15-0.04h0.02l0.13-0.04h0.04l0.11-0.04 0.06-0.02 0.09-0.03 0.08-0.02 0.07-0.02 0.09-0.03 0.05-0.02 0.11-0.03h0.04l0.13-0.05h0.02l0.15-0.05 0.15-0.05 0.14-0.05h0.02l0.13-0.04h0.03l0.12-0.05h0.04l0.11-0.05 0.05-0.02 0.1-0.03 0.06-0.02 0.09-0.03 0.07-0.02 0.08-0.03 0.08-0.03 0.07-0.02 0.08-0.03 0.06-0.02 0.09-0.03 0.05-0.02 0.1-0.03h0.04l0.11-0.05h0.03l0.12-0.05h0.02l0.13-0.05h0.01l0.14-0.05 0.14-0.05 0.14-0.05h0.01l0.27-0.1h0.03l0.11-0.05h0.04l0.1-0.05 0.05-0.02 0.09-0.03 0.06-0.02 0.08-0.03 0.07-0.02 0.07-0.03 0.07-0.03 0.06-0.03 0.08-0.03 0.05-0.02 0.09-0.04 0.04-0.02 0.1-0.04h0.04l0.11-0.06h0.03l0.12-0.05h0.02l0.12-0.06 0.13-0.06 0.13-0.05 0.12-0.05h0.02l0.12-0.05h0.02l0.11-0.05h0.03l0.1-0.05 0.04-0.02 0.09-0.04 0.05-0.02 0.08-0.03 0.06-0.02 0.07-0.03 0.06-0.03 0.06-0.03 0.13-0.06 0.08-0.03 0.05-0.02 0.09-0.04 0.04-0.02 0.13-0.06 0.1-0.05h0.02l0.11-0.06h0.01l0.12-0.06 0.12-0.06 0.12-0.06h0.01l0.11-0.06h0.02l0.1-0.06h0.03l0.1-0.06 0.03-0.02 0.09-0.04 0.12-0.06 0.05-0.02 0.07-0.04 0.24-0.12 0.07-0.03 0.05-0.03 0.23-0.12 0.09-0.04h0.02l0.1-0.06h0.02l-0.05-0.23-0.04-0.18v-0.04h-0.01z"/>
			<path class="s0" d="m32.93 33.09l0.22-0.12h0.01l0.23-0.14 0.22-0.14 0.17-0.11 0.05-0.03h0.02l0.2-0.14 0.03-0.02 0.18-0.12 0.04-0.03 0.17-0.11 0.05-0.04 0.16-0.11 0.15-0.11 0.05-0.04 0.07-0.05 0.13-0.09 0.03-0.02 0.13-0.09 0.07-0.05 0.15-0.11 0.05-0.04 0.15-0.11 0.04-0.03 0.17-0.13h0.01l0.16-0.13 0.02-0.02 0.12-0.1 0.03-0.02 0.11-0.09 0.06-0.05 0.05-0.04 0.03-0.03q0.16-0.13 0.33-0.27l0.02-0.02q0.17-0.14 0.34-0.29l0.17-0.15 0.17-0.16 0.17-0.16h0.01l0.15-0.16 0.02-0.02 0.14-0.14 0.14-0.14 0.03-0.03 0.09-0.09 0.09-0.1h0.01l0.11-0.13 0.02-0.02 0.09-0.1 0.08-0.08 0.05-0.06 0.09-0.1 0.09-0.11 0.04-0.04 0.1-0.12 0.02-0.03 0.07-0.09 0.03-0.03 0.07-0.08 0.1-0.12 0.08-0.12 0.02-0.03 0.09-0.11 0.05-0.06 0.08-0.11 0.06-0.08v-0.02l0.11-0.13 0.03-0.04 0.1-0.14 0.08-0.13 0.04-0.06v-0.02l0.12-0.16 0.11-0.18 0.11-0.18 0.11-0.18v-0.02l0.02-0.01 0.1-0.17 0.09-0.16 0.02-0.03 0.08-0.15 0.02-0.04 0.04-0.07 0.05-0.1 0.04-0.08 0.06-0.11 0.04-0.08 0.06-0.11 0.03-0.06 0.06-0.14 0.03-0.07 0.06-0.12 0.03-0.06 0.06-0.13 0.03-0.07 0.06-0.15 0.02-0.04 0.05-0.13 0.04-0.1v-0.02l0.06-0.13v-0.03l0.07-0.16v-0.02l0.07-0.17v-0.04l0.06-0.12 0.02-0.07v-0.03l0.07-0.18v-0.02l0.06-0.19 0.06-0.21 0.06-0.21 0.05-0.21 0.05-0.21 0.05-0.21 0.05-0.21 0.04-0.22 0.04-0.22 0.04-0.22 0.03-0.22 0.03-0.22 0.03-0.22 0.02-0.22 0.02-0.22 0.02-0.23 0.01-0.23 0.01-0.23v-0.23-0.23-0.23-0.23-0.23-0.23-0.14-0.09l-0.01-0.24v-0.24l-0.02-0.01-0.02-0.23-0.02-0.24-0.02-0.24-0.03-0.24-0.03-0.24-0.03-0.25v-0.02l-0.04-0.23v-0.02l-0.04-0.23-0.03-0.19v-0.06l-0.01-0.02-0.04-0.23v-0.02l-0.05-0.23-0.04-0.18v-0.07l-0.02-0.02-0.05-0.24v-0.02l-0.06-0.24q-0.09-0.37-0.18-0.76v-0.02-0.02l-0.06-0.24v-0.02l-0.07-0.24-0.08-0.26v-0.02l-0.08-0.24-0.08-0.26v-0.02l-0.08-0.24v-0.02l-0.09-0.24v-0.03l-0.09-0.24v-0.03l-0.09-0.24v-0.03l-0.1-0.24v-0.03l-0.1-0.24v-0.03l-0.1-0.24-0.1-0.27v-0.03l-0.11-0.25v-0.03l-0.11-0.25v-0.03l-0.11-0.25v-0.03l-0.12-0.25v-0.03l-0.12-0.25q-0.24-0.56-0.51-1.13l-3.86-6.68-0.06 0.19-0.04 0.11-0.07 0.21-0.03 0.09-0.07 0.23-0.02 0.07-0.08 0.25v0.05l-0.1 0.28v0.02l-0.1 0.3-0.09 0.3v0.02l-0.1 0.32-0.07 0.25-0.02 0.07-0.07 0.23-0.03 0.09-0.06 0.21-0.03 0.11-0.05 0.19-0.04 0.13-0.05 0.16-0.04 0.15-0.04 0.14-0.05 0.17-0.03 0.12-0.05 0.19-0.03 0.1-0.06 0.22-0.02 0.08-0.06 0.24v0.06l-0.08 0.26v0.03l-0.08 0.28-0.07 0.3-0.07 0.29v0.03l-0.07 0.26v0.05l-0.16 0.61-0.04 0.19-0.03 0.12-0.04 0.17-0.03 0.14q-0.11 0.46-0.2 0.91l-0.02 0.08-0.05 0.22v0.06l-0.06 0.24v0.04l-0.06 0.26v0.02l-0.06 0.28-0.06 0.28v0.02l-0.05 0.26v0.04l-0.05 0.24v0.06l-0.05 0.22-0.02 0.08-0.04 0.19-0.02 0.1-0.03 0.17-0.02 0.12-0.03 0.15-0.02 0.14-0.02 0.13-0.03 0.16-0.02 0.11-0.03 0.18-0.02 0.09-0.03 0.2v0.07l-0.05 0.22v0.05l-0.05 0.24v0.03l-0.04 0.26-0.04 0.28-0.04 0.27v0.03l-0.04 0.24v0.05l-0.04 0.22v0.07l-0.04 0.2v0.09l-0.03 0.18v0.11l-0.03 0.16-0.02 0.13-0.02 0.14-0.02 0.15v0.12l-0.03 0.16v0.1l-0.03 0.18v0.08l-0.03 0.2v0.06l-0.03 0.22v0.04l-0.03 0.24v0.02l-0.03 0.26-0.02 0.26v0.02l-0.02 0.24v0.03l-0.02 0.23v0.05l-0.02 0.21v0.06l-0.02 0.19v0.08l-0.02 0.17v0.1l-0.02 0.16v0.11l-0.02 0.14v0.13l-0.01 0.13v0.14l-0.01 0.11v0.16l-0.01 0.09v0.17 0.08 0.19l-0.01 0.25v0.02 0.04 0.22l-0.01 0.26v0.26 0.25 0.25 0.03 0.21 0.05 0.2 0.06 0.18 0.08 0.16 0.09 0.15 0.11 0.13 0.12 0.23 0.03 0.1 0.15 0.09l0.01 0.17v0.07l0.01 0.18v0.06l0.01 0.2v0.04l0.01 0.21v0.03l0.02 0.23 0.02 0.25 0.02 0.23v0.02l0.02 0.21v0.03l0.02 0.2v0.05l0.02 0.18v0.06l0.02 0.17v0.08l0.02 0.15v0.09l0.02 0.14v0.11l0.02 0.12v0.12l0.03 0.11 0.02 0.13v0.09l0.03 0.15v0.08l0.03 0.16v0.07l0.03 0.17v0.05l0.03 0.19v0.04l0.03 0.2v0.02l0.04 0.22 0.04 0.23 0.04 0.22v0.02l0.04 0.2v0.03l0.04 0.19v0.05l0.04 0.17v0.06l0.04 0.16v0.08l0.04 0.14 0.02 0.09 0.03 0.13 0.02 0.1 0.02 0.12 0.02 0.12 0.02 0.1 0.03 0.13 0.02 0.09 0.03 0.14 0.02 0.07v0.03l0.05 0.19 0.04 0.17v0.04h0.01z"/>
			<path class="s0" d="m37.81 44.23q9.55-1.78 17.11 0.44 5.41 1.59 9.76 5.22l-21.22-36.77 0.04 0.17 0.04 0.16 0.03 0.17q0.11 0.49 0.18 0.98l0.03 0.17 0.02 0.14v0.04l0.03 0.13 0.02 0.16 0.02 0.16 0.02 0.16v0.12l0.02 0.07v0.13l0.03 0.16 0.02 0.16v0.16h0.01v0.16l0.02 0.03v0.12 0.01 0.16l0.02 0.15v0.16 0.15 0.02 0.12 0.02 0.15 0.15 0.16 0.15 0.13 0.17 0.15 0.03 0.12 0.15 0.04 0.02 0.19 0.03 0.16 0.02 0.1 0.02l-0.01 0.15v0.03l-0.01 0.12v0.04l-0.01 0.11v0.15h-0.01v0.12l-0.02 0.02-0.02 0.15v0.08l-0.02 0.06v0.1l-0.02 0.04-0.03 0.18-0.01 0.11-0.02 0.14v0.02l-0.03 0.2v0.02l-0.01 0.06-0.03 0.14v0.03l-0.02 0.05-0.04 0.18v0.02l-0.05 0.2-0.05 0.22v0.02l-0.03 0.12-0.03 0.1-0.04 0.17v0.05l-0.02 0.02-0.06 0.2q-1.98 7.02-10.14 11.61 0.75 2.66 1.87 5.09l0.04 0.08 0.03 0.08 0.03 0.08v0.02l0.04 0.06v0.03l0.04 0.05 0.02 0.03 0.02 0.04 0.02 0.04 0.02 0.04 0.02 0.04 0.02 0.03 0.02 0.05v0.03l0.04 0.06v0.02l0.04 0.06 0.03 0.08 0.04 0.08 0.04 0.08 0.04 0.08 0.03 0.07v0.02l0.04 0.06v0.02l0.04 0.05 0.02 0.03 0.02 0.04 0.02 0.04 0.02 0.04 0.02 0.04 0.02 0.04 0.04 0.07 0.03 0.05v0.02l0.04 0.06v0.02l0.04 0.06 0.04 0.08 0.04 0.08 0.04 0.07 0.04 0.07 0.03 0.07v0.02l0.04 0.05v0.03l0.04 0.05 0.02 0.03 0.02 0.04 0.02 0.04 0.02 0.04 0.03 0.04 0.02 0.03 0.03 0.05v0.02l0.05 0.05v0.02l0.05 0.06 0.04 0.08 0.04 0.08 0.04 0.07 0.04 0.07 0.04 0.07v0.02l0.04 0.05v0.02l0.04 0.05 0.02 0.03 0.03 0.04 0.02 0.04 0.02 0.04 0.03 0.04 0.02 0.03 0.03 0.05 0.02 0.02 0.03 0.05v0.02l0.05 0.06 0.04 0.08 0.04 0.08 0.05 0.07 0.04 0.07 0.04 0.07v0.02l0.05 0.05v0.02l0.05 0.05 0.02 0.03 0.03 0.04 0.02 0.03 0.02 0.04 0.03 0.04 0.02 0.03 0.03 0.05 0.02 0.03 0.03 0.05v0.02l0.05 0.05z"/>
			<path class="s0" d="m38.7 45.45q4.85 6.4 13.13 10.72 8.39 4.37 20.3 6.61l-4.91-8.51q-5.33-6.15-12.68-8.31-6.99-2.06-15.84-0.52z"/>
			<path class="s0" d="m36.37 44.51l-0.04-0.06v-0.02l-0.04-0.04-0.02-0.04-0.02-0.03-0.03-0.05v-0.02l-0.05-0.06-0.04-0.07-0.04-0.07-0.02-0.03-0.03-0.04-0.02-0.04-0.02-0.03-0.03-0.05v-0.02l-0.05-0.07-0.04-0.07-0.03-0.07-0.02-0.03-0.02-0.04-0.02-0.04-0.02-0.03-0.03-0.05-0.04-0.08-0.04-0.07-0.03-0.07-0.02-0.03-0.02-0.04-0.02-0.04-0.02-0.03-0.03-0.06-0.04-0.08-0.04-0.07v-0.02l-0.04-0.05-0.02-0.03-0.02-0.04-0.02-0.04v-0.02l-0.05-0.06-0.04-0.08-0.04-0.07v-0.02l-0.04-0.05-0.02-0.03-0.02-0.04-0.03-0.05v-0.02l-0.05-0.06-0.04-0.08-0.03-0.07v-0.02l-0.04-0.05-0.02-0.03-0.02-0.04-0.03-0.05v-0.02l-0.04-0.06-0.04-0.08-0.03-0.07v-0.02l-0.04-0.05-0.02-0.04-0.02-0.04-0.03-0.05v-0.02l-0.04-0.07-0.04-0.07-0.03-0.07v-0.02l-0.04-0.05-0.02-0.04-0.02-0.03-0.03-0.05v-0.02l-0.04-0.07-0.04-0.07-0.03-0.07v-0.03l-0.03-0.05-0.02-0.04-0.02-0.03-0.03-0.05v-0.02l-0.04-0.07-0.03-0.07-0.03-0.07v-0.03l-0.03-0.04-0.02-0.04v-0.03l-0.04-0.06v-0.02l-0.04-0.07-0.03-0.07-0.03-0.07v-0.02l-0.03-0.05-0.02-0.04-0.02-0.04-0.02-0.05v-0.03l-0.04-0.06v-0.02l-0.04-0.07-0.03-0.08-0.03-0.08v-0.02l-0.03-0.05v-0.03l-0.03-0.04-0.02-0.04v-0.03l-0.04-0.06v-0.02l-0.04-0.07-0.03-0.08-0.03-0.08v-0.02l-0.03-0.06v-0.03l-0.03-0.05-0.02-0.04v-0.03l-0.04-0.05v-0.02l-0.04-0.06-0.03-0.09-0.03-0.08-0.02-0.08v-0.03l-0.03-0.05v-0.04l-0.03-0.04-0.02-0.05v-0.03l-0.03-0.06v-0.02l-0.03-0.08-0.03-0.08-0.03-0.08v-0.02l-0.03-0.05v-0.04l-0.03-0.04-0.02-0.05v-0.03l-0.03-0.06v-0.02l-0.03-0.07-0.03-0.08-0.03-0.08v-0.02l-0.03-0.06v-0.03l-0.03-0.05-0.02-0.04v-0.04l-0.03-0.06v-0.02l-0.03-0.07-0.03-0.09-0.03-0.08v-0.02l-0.03-0.06v-0.03l-0.03-0.05v-0.04l-0.03-0.04-0.02-0.05v-0.03l-0.03-0.07-0.03-0.09-0.03-0.08-0.02-0.08v-0.03l-0.03-0.05v-0.04l-0.02-0.04-0.02-0.05v-0.03l-0.03-0.06v-0.02l-0.03-0.08-0.02-0.08-0.02-0.08v-0.02l-0.02-0.06v-0.04l-0.02-0.05v-0.05l-0.02-0.03-0.02-0.06v-0.02h-0.01l-0.11 0.04-0.11 0.06h-0.02l-0.1 0.06-0.03 0.02-0.08 0.04-0.05 0.02-0.07 0.04-0.06 0.03-0.06 0.03-0.07 0.03-0.05 0.02-0.08 0.04-0.04 0.02-0.1 0.04h-0.02l-0.11 0.06h-0.01l-0.12 0.06-0.12 0.06h-0.01l-0.11 0.06h-0.03l-0.1 0.06-0.04 0.02-0.08 0.04-0.05 0.02-0.07 0.03-0.07 0.03-0.06 0.03-0.08 0.04-0.05 0.02-0.09 0.04h-0.03l-0.11 0.06h-0.02l-0.12 0.06-0.13 0.06-0.12 0.05h-0.02l-0.11 0.05h-0.03l-0.1 0.05-0.05 0.02-0.08 0.04-0.06 0.02-0.07 0.03-0.07 0.03-0.06 0.02-0.09 0.04-0.04 0.02-0.1 0.04h-0.03l-0.12 0.06h-0.02l-0.13 0.06-0.13 0.05h-0.01l-0.12 0.05h-0.03l-0.11 0.05-0.04 0.02-0.09 0.04-0.05 0.02-0.08 0.03-0.07 0.03-0.07 0.03-0.08 0.03-0.05 0.02-0.1 0.04h-0.04l-0.11 0.05h-0.03l-0.13 0.06h-0.01l-0.14 0.05-0.15 0.05-0.12 0.04h-0.03l-0.11 0.05-0.05 0.02-0.09 0.03-0.06 0.02-0.08 0.03-0.08 0.03-0.06 0.02-0.09 0.03-0.05 0.02-0.11 0.04h-0.04l-0.12 0.05h-0.02l-0.14 0.05-0.15 0.05-0.14 0.05h-0.02l-0.12 0.05h-0.04l-0.11 0.05-0.06 0.02-0.09 0.03-0.07 0.02-0.08 0.02-0.09 0.03-0.06 0.02-0.1 0.03h-0.05l-0.12 0.05h-0.03l-0.13 0.05h-0.02l-0.15 0.05-0.16 0.05-0.16 0.05-0.15 0.05h-0.01l-0.15 0.05h-0.02l-0.15 0.05h-0.02l-0.14 0.05h-0.02l-0.14 0.05h-0.03l-0.14 0.05h-0.03l-0.13 0.04h-0.04l-0.13 0.05h-0.04l-0.13 0.04h-0.05l-0.12 0.05h-0.05l-0.12 0.05h-0.05l-0.12 0.04-0.06 0.02-0.11 0.03-0.06 0.02-0.11 0.03-0.07 0.02-0.1 0.03-0.07 0.02-0.1 0.03-0.08 0.02-0.1 0.02-0.08 0.02-0.09 0.02-0.09 0.02-0.09 0.02-0.09 0.02-0.09 0.02-0.1 0.02-0.08 0.02-0.1 0.02-0.08 0.02-0.1 0.03-0.07 0.02-0.11 0.03-0.07 0.02-0.11 0.03h-0.06l-0.12 0.04h-0.06l-0.12 0.04h-0.06l-0.13 0.04h-0.05l-0.13 0.04h-0.05l-0.14 0.04h-0.04l-0.14 0.04h-0.04l-0.15 0.04h-0.04l-0.15 0.04h-0.03l-0.16 0.04h-0.03l-0.16 0.04h-0.02l-0.17 0.04h-0.02l-0.17 0.04h-0.01l-0.18 0.04-0.19 0.04-0.19 0.04-0.19 0.04-0.18 0.04h-0.01l-0.18 0.04h-0.02l-0.18 0.04h-0.02l-0.17 0.04h-0.03l-0.17 0.04h-0.03l-0.16 0.04h-0.04l-0.16 0.04h-0.04l-0.15 0.04h-0.04l-0.15 0.04h-0.05l-0.15 0.04h-0.06l-0.14 0.04h-0.06l-0.14 0.04h-0.06l-0.13 0.04h-0.07l-0.13 0.03h-0.08l-0.12 0.04h-0.08l-0.12 0.03-0.09 0.02-0.12 0.02-0.09 0.02-0.11 0.02-0.1 0.02-0.11 0.02-0.1 0.02-0.1 0.02-0.11 0.02h-0.1l-12.02 20.47q10.12-6.66 19-10.87 9.38-4.44 17.37-6.16z"/>
		</g>
	</g>
</svg>