<svg width="154" height="26" viewBox="0 0 154 26" fill="none" xmlns="http://www.w3.org/2000/svg">
<path d="M33.6637 20.1082L20.2484 1.67972C19.5135 0.669828 18.347 0.143055 17.1727 0.166783C16.0004 0.144004 14.8368 0.670777 14.1028 1.67876L0.687609 20.1082C-0.49535 21.7331 -0.113907 23.9941 1.53934 25.1568C2.18828 25.6132 2.93668 25.8325 3.67832 25.8325C4.82651 25.8325 5.95733 25.3067 6.6758 24.3196L16.1887 11.2518C16.6726 10.5874 17.6778 10.5874 18.1626 11.2518L27.6754 24.3196C28.394 25.3067 29.5248 25.8325 30.673 25.8325C31.4146 25.8325 32.163 25.6132 32.812 25.1568C34.4652 23.9941 34.8466 21.7331 33.6637 20.1082Z" fill="white"/>
<path d="M17.8458 25.7642C20.1231 25.4009 21.6697 23.2918 21.3 21.0535C20.9303 18.815 18.7845 17.2951 16.5071 17.6584C14.2298 18.0217 12.6832 20.1308 13.0529 22.3693C13.4226 24.6076 15.5684 26.1276 17.8458 25.7642Z" fill="white"/>
<path d="M53.1859 7.25203V20.1091H49.441V18.823C48.4405 19.831 47.0818 20.4109 45.4913 20.4109C41.901 20.4109 39.1816 17.5122 39.1816 13.6805C39.1816 9.84888 41.8999 6.9502 45.4913 6.9502C47.0818 6.9502 48.4405 7.53012 49.441 8.53811V7.25203H53.1859ZM49.441 13.6805C49.441 11.8658 48.0813 10.5038 46.2349 10.5038C44.3886 10.5038 43.0549 11.8648 43.0549 13.6805C43.0549 15.4963 44.4147 16.8573 46.2349 16.8573C48.0552 16.8573 49.441 15.4963 49.441 13.6805Z" fill="white"/>
<path d="M54.3398 13.6805C54.3398 9.84888 57.3663 6.9502 61.3931 6.9502C64.0353 6.9502 66.2409 8.18503 67.4461 10.1517L64.1889 12.0927C63.65 11.135 62.6244 10.5047 61.3931 10.5047C59.5468 10.5047 58.1872 11.8658 58.1872 13.6815C58.1872 15.4972 59.5468 16.8582 61.3931 16.8582C62.6244 16.8582 63.65 16.2281 64.1889 15.2704L67.4461 17.2113C66.2409 19.178 64.0353 20.4128 61.3931 20.4128C57.3663 20.4128 54.3398 17.5141 54.3398 13.6825V13.6805Z" fill="white"/>
<path d="M81.7456 7.25203V24.8985H78.0007V18.823C77.0002 19.831 75.6415 20.4109 74.051 20.4109C70.4606 20.4109 67.7412 17.5122 67.7412 13.6805C67.7412 9.84888 70.4596 6.9502 74.051 6.9502C75.6415 6.9502 77.0002 7.53012 78.0007 8.53811V7.25203H81.7456ZM78.0007 13.6805C78.0007 11.8658 76.641 10.5038 74.7946 10.5038C72.9483 10.5038 71.6146 11.8648 71.6146 13.6805C71.6146 15.4963 72.9743 16.8573 74.7946 16.8573C76.6149 16.8573 78.0007 15.4963 78.0007 13.6805Z" fill="white"/>
<path d="M83.7197 14.9668V7.2522H87.4647V14.4619C87.4647 15.8989 88.439 16.8566 89.9011 16.8566C91.3632 16.8566 92.3375 15.8989 92.3375 14.4619V7.2522H96.0824V14.9659C96.0824 18.2432 93.6459 20.4111 89.9011 20.4111C86.1562 20.4111 83.7197 18.2441 83.7197 14.9668Z" fill="white"/>
<path d="M97.6455 3.34533C97.6455 2.05924 98.6459 1.10156 99.9535 1.10156C101.261 1.10156 102.287 2.05924 102.287 3.34533C102.287 4.63141 101.287 5.61378 99.9535 5.61378C98.6198 5.61378 97.6455 4.65609 97.6455 3.34533ZM98.0819 7.25294H101.827V20.109H98.0819V7.25294Z" fill="white"/>
<path d="M111.88 7.05099V10.8324H111.316C109.033 10.8324 107.778 12.1184 107.778 14.1097V20.1093H104.032V7.25221H107.778V8.7139C108.7 7.6556 109.907 7.05005 111.316 7.05005L111.88 7.05099Z" fill="white"/>
<path d="M126.02 14.8909H116.273C116.735 16.3279 117.992 17.2097 119.633 17.2097C121.121 17.2097 122.3 16.5291 122.916 15.7727L125.43 17.9159C124.045 19.4534 121.942 20.4112 119.53 20.4112C115.375 20.4112 112.246 17.4868 112.246 13.6049C112.246 9.72285 115.246 6.94946 119.222 6.94946C123.198 6.94946 126.096 9.82345 126.096 13.7311C126.096 14.0841 126.071 14.5626 126.02 14.8909ZM116.248 12.446H122.122C121.711 11.009 120.582 10.1272 119.172 10.1272C117.762 10.1272 116.633 11.0345 116.248 12.446Z" fill="white"/>
<path d="M126.545 19.214C126.545 18.6465 126.994 18.2061 127.571 18.2061C128.147 18.2061 128.596 18.6474 128.596 19.214C128.596 19.7807 128.159 20.2097 127.571 20.2097C126.981 20.2097 126.545 19.7817 126.545 19.214Z" fill="white"/>
<path d="M128.996 16.8945C128.996 14.9791 130.496 13.5298 132.496 13.5298C133.803 13.5298 134.907 14.16 135.496 15.1301L134.252 15.8742C133.905 15.2819 133.266 14.8908 132.496 14.8908C131.342 14.8908 130.47 15.7602 130.47 16.8945C130.47 18.0286 131.342 18.8981 132.496 18.8981C133.266 18.8981 133.906 18.5071 134.252 17.9148L135.496 18.6589C134.906 19.6289 133.803 20.2592 132.496 20.2592C130.495 20.2592 128.996 18.8108 128.996 16.8945Z" fill="white"/>
<path d="M135.778 16.8945C135.778 14.9791 137.279 13.5298 139.279 13.5298C141.279 13.5298 142.779 14.9791 142.779 16.8945C142.779 18.8098 141.266 20.2601 139.279 20.2601C137.292 20.2601 135.778 18.8108 135.778 16.8945ZM141.293 16.8945C141.293 15.7602 140.433 14.8908 139.279 14.8908C138.125 14.8908 137.253 15.7602 137.253 16.8945C137.253 18.0286 138.125 18.8981 139.279 18.8981C140.433 18.8981 141.293 18.0286 141.293 16.8945Z" fill="white"/>
<path d="M154 15.9367V20.1081H152.564V16.3524C152.564 15.4696 152 14.8907 151.115 14.8907C150.231 14.8907 149.564 15.4829 149.564 16.3779V20.109H148.128V16.3533C148.128 15.4706 147.564 14.8916 146.678 14.8916C145.793 14.8916 145.127 15.4839 145.127 16.379V20.11H143.69V13.6824H145.127V14.4389C145.614 13.8466 146.306 13.5315 147.152 13.5315C148.114 13.5315 148.858 13.9595 149.256 14.6658C149.768 13.9349 150.564 13.5315 151.551 13.5315C153.038 13.5315 154 14.4892 154 15.9385V15.9367Z" fill="white"/>
</svg>
