<svg width="170" height="64" viewBox="0 0 170 64" fill="none" xmlns="http://www.w3.org/2000/svg">
<path d="M165 29.1993C164.602 29.3627 164.158 29.459 163.823 29.7061C163.27 30.1165 162.852 30.7238 162.269 31.0714C161.47 31.5488 160.879 31.4567 160.665 30.305C160.414 28.9481 160.1 27.5618 159.539 26.318C158.89 24.8773 157.843 24.4502 156.461 24.9904C155.493 25.3673 154.744 25.271 153.902 24.7768C152.285 23.8303 150.845 24.245 149.492 25.405C148.106 26.5944 147.398 28.1188 146.895 29.8443C146.594 30.8787 146.012 31.8671 145.384 32.7549C144.923 33.3999 144.311 33.2826 143.955 32.4785C143.503 31.4608 143.038 30.4473 142.561 29.4422C141.732 27.6958 141.799 27.2142 143.105 25.7359C143.905 24.8271 143.922 23.8178 142.862 23.3445C142.004 22.9634 140.718 22.775 139.939 23.1561C138.896 23.667 138.025 24.7098 137.326 25.694C135.801 27.8466 134.465 30.1291 132.983 32.311C132.208 33.4501 131.747 33.3454 131.128 32.0639C130.705 31.1844 130.282 30.305 129.821 29.4464C129.143 28.1733 128.904 27.0216 130.143 25.8573C130.558 25.4678 130.889 24.4711 130.675 24.0565C130.382 23.4953 129.566 22.9802 128.904 22.8755C126.994 22.574 125.78 23.7591 124.804 25.2166C123.3 27.4655 121.797 29.7145 120.327 31.9885C119.112 33.8689 117.253 34.7693 115.226 35.4059C114.053 35.7745 112.998 35.4729 112.202 34.5306C111.959 34.2417 111.905 33.7935 111.762 33.4166C112.123 33.291 112.474 33.0816 112.839 33.0523C113.459 33.002 114.099 33.1486 114.715 33.0648C117.345 32.7089 119.192 30.2003 118.752 27.6456C118.358 25.3548 116.101 23.9979 113.417 24.5884C112.424 24.8103 111.427 25.271 110.586 25.8448C108.998 26.9294 107.993 28.4916 107.214 30.2756C106.733 31.3813 105.908 32.3906 105.049 33.2533C104.664 33.6428 103.814 33.5716 103.173 33.714C103.123 33.0816 102.901 32.3948 103.064 31.821C103.366 30.7573 104.002 29.7898 104.312 28.7261C105.125 25.9201 103.525 24.3622 100.677 25.1161C99.923 25.3171 99.1818 25.5558 98.0636 25.8908C98.541 24.5632 98.9179 23.7424 99.1273 22.8797C99.4791 21.4432 98.6289 20.681 97.2637 21.1291C94.709 21.9667 92.9417 25.5684 93.7876 28.1565C93.9552 28.6675 94.2316 29.3292 94.0473 29.7354C93.3018 31.3771 92.2548 32.8136 90.2907 33.7517C90.2907 33.1318 90.2656 32.7424 90.2949 32.3571C90.4038 30.9792 90.7723 29.5679 90.6048 28.2277C90.2404 25.2878 88.2302 24.1989 85.4787 25.2249C85.219 25.3213 84.9594 25.4385 84.7207 25.5767C83.9752 26.0039 83.548 25.9746 83.1795 25.0114C82.6476 23.6251 81.898 23.3864 80.5746 23.9476C78.8073 24.6931 77.7477 25.9536 77.8524 27.9764C77.9529 29.9699 76.9645 31.4357 75.5699 32.7047C74.9124 33.3036 74.3806 33.3538 73.9785 32.3989C73.522 31.3101 72.9943 30.2463 72.4918 29.1742C71.9055 27.9178 71.8049 26.7452 73.0697 25.8154C73.8236 25.2626 73.966 24.6093 73.4466 23.8303C72.8268 22.9006 71.8971 22.6661 70.8752 22.8252C69.2252 23.0849 68.2368 24.1696 67.3866 25.5516C65.9669 27.855 64.5556 30.1919 62.8594 32.2859C60.2796 35.4687 56.6947 36.1681 52.8208 35.5316C51.2336 35.2719 50.4253 33.8187 50.7185 32.2063C50.9781 30.7908 51.644 30.5185 53.4825 30.3845C54.8185 30.2882 56.1922 29.8778 57.4067 29.3124C57.8967 29.0863 58.4118 27.8466 58.2024 27.4446C57.8967 26.8624 56.9753 26.4143 56.255 26.2971C55.5514 26.184 54.7557 26.519 54.0186 26.7284C53.0637 27.0048 52.5737 26.6782 52.3644 25.7233C51.9665 23.9015 52.9004 21.5982 54.4877 20.6098C56.6403 19.2696 58.1689 19.7806 58.8934 22.218C59.2075 23.2775 59.8441 23.5079 60.7612 23.4199C63.0311 23.2021 64.254 20.5302 63.0186 18.4404C62.2187 17.0877 60.9371 16.4009 59.4337 16.137C55.3211 15.4167 50.5719 17.5986 48.4863 21.217C47.4435 23.0263 46.7818 24.9485 47.9544 26.963C48.5952 28.0602 48.8171 28.8224 47.1922 29.17C46.7692 29.2622 46.4761 29.9699 46.1326 30.4013C45.4416 31.2766 44.8511 32.2607 44.0303 32.9936C43.5445 33.4334 42.7069 33.4794 42.0242 33.7014C41.9321 33.0606 41.6306 32.3654 41.7771 31.7875C42.3635 29.4925 43.1592 27.2477 43.7455 24.9527C44.0512 23.755 44.2146 22.486 44.1894 21.2547C44.1643 20.0109 43.2639 19.4539 42.041 19.4707C39.8842 19.5 38.4477 20.9574 38.4393 23.1184C38.4268 25.3841 38.2969 25.4888 36.048 25.0239C33.9205 24.5842 31.948 24.8145 30.612 26.72C29.9042 27.7294 29.4561 28.9313 28.9326 30.0621C28.6101 30.7531 28.4594 31.5362 28.0615 32.1728C27.4668 33.1318 26.6167 34.2165 25.398 33.6888C24.1374 33.1486 24.7614 31.8461 25.0169 30.8913C25.6409 28.5293 26.491 26.2259 27.0145 23.8471C27.3663 22.2389 27.4878 20.5344 27.404 18.8885C27.3202 17.3139 26.2356 16.4176 24.6902 16.1412C22.7763 15.7978 20.2174 16.4721 19.7903 17.6573C18.5799 21.0035 15.7824 22.9425 13.3575 25.2124C11.4729 26.9713 9.3622 28.5167 7.64931 30.4222C6.53112 31.6702 5.73541 33.3203 5.17003 34.9201C4.63397 36.4403 5.43806 37.9438 6.69864 38.7144C8.29007 39.6902 9.88569 39.15 10.0783 37.4832C10.1328 37.0057 10.3254 36.5409 10.4762 36.076C11.1672 33.9653 11.2426 33.9234 13.4078 33.9904C14.1742 34.0155 14.9448 34.0281 15.7112 33.982C18.6595 33.8019 18.6595 33.7894 19.6688 36.6204C20.4645 38.8526 22.2319 39.6232 24.3007 38.4883C25.2639 37.9606 26.1476 37.2319 26.935 36.4571C28.4384 34.9829 28.3966 34.9411 29.6153 36.545C31.1397 38.5553 33.3342 38.7521 35.1936 36.989C35.5831 36.6204 35.8009 36.0718 36.115 35.5818C36.6176 36.0592 36.7893 36.1765 36.9023 36.3356C38.3304 38.3836 39.7083 38.7186 41.84 37.4622C42.4975 37.0727 43.1047 36.5953 43.7036 36.1179C44.4239 35.5399 44.9349 35.6488 45.3662 36.4655C46.7106 38.9866 49.0475 39.7447 51.6733 39.8619C55.2289 40.0211 58.395 38.9154 61.2177 36.7544C62.8134 35.5357 62.8134 35.5944 64.2498 36.9094C64.8068 37.4161 65.456 37.8894 66.147 38.1742C68.1656 39.0118 70.113 38.6558 71.9557 37.5753C73.3042 36.7838 74.6486 35.988 75.9971 35.1923L76.3866 35.4771C76.1521 36.6079 75.8296 37.7261 75.7081 38.8652C75.5658 40.2347 75.4066 41.646 75.6034 42.9903C75.7961 44.297 77.0609 44.9336 78.3005 44.7116C79.5485 44.4855 79.9129 43.7191 79.9841 42.4794C80.093 40.5739 80.4699 38.6809 80.7965 36.3189C83.0832 38.8066 85.1688 38.4757 87.3298 37.0979C87.8491 36.767 88.4605 36.5283 89.0594 36.365C91.7355 35.6404 93.5364 33.9234 94.7844 31.5111C95.132 30.8368 95.5005 30.0788 96.0743 29.6474C96.5475 29.2915 97.4856 29.0904 97.9505 29.3333C98.3609 29.5469 98.6248 30.5018 98.5494 31.0755C98.4154 32.0974 97.8793 33.0565 97.6783 34.0783C97.0501 37.2696 98.9933 39.0076 102.059 37.8936C103.278 37.4538 104.383 36.6372 105.443 35.8624C106.285 35.251 106.837 35.0625 107.415 36.1472C108.513 38.216 110.414 38.7144 112.571 38.5804C114.795 38.438 116.771 37.5711 118.564 36.3021C119.581 35.5818 120.306 35.5651 121.257 36.545C123.698 39.0662 126.605 39.2672 129.549 37.3156C130.072 36.968 130.592 36.6204 131.123 36.2896C132.183 35.6321 133.016 35.5357 134.013 36.6623C135.91 38.8066 138.482 39.2212 141.057 37.969C142.431 37.3031 143.733 36.4697 145.023 35.6446C146.791 34.5097 146.77 34.4804 148.022 36.0341C150.099 38.6097 152.679 39.263 155.644 37.7637C156.737 37.2109 157.617 36.2477 158.622 35.5148C159.614 34.7945 160.695 34.1872 161.654 33.4292C162.78 32.5413 163.861 31.5823 164.858 30.5562C165.101 30.305 164.95 29.6726 164.979 29.2119L165 29.1993ZM114.263 27.1891C115.083 27.1305 115.352 27.654 115.352 28.3617C115.356 29.4925 114.074 30.8326 112.604 30.8787C112.462 30.6567 112.043 30.284 112.005 29.8778C111.917 28.9313 113.396 27.2561 114.258 27.1933L114.263 27.1891ZM19.539 30.2296C19.4301 30.5479 18.9443 30.8829 18.5883 30.9499C17.29 31.1886 15.9708 31.3561 14.6558 31.4608C14.2998 31.4902 13.7303 31.2933 13.6004 31.0295C13.4748 30.7782 13.7009 30.2254 13.9397 29.949C14.6181 29.1533 15.3845 28.4371 16.109 27.6833C17.646 26.0835 19.1746 24.4795 20.7116 22.8797C20.9001 22.9383 21.0927 22.9927 21.2812 23.0514C20.9126 25.4888 20.3431 27.8885 19.539 30.2338V30.2296ZM37.3923 30.0076C37.1955 31.1426 36.7976 32.311 36.1778 33.2742C35.8176 33.8354 34.7581 34.4176 34.2178 34.2668C33.686 34.1202 33.4096 33.0523 32.995 32.3403C33.5771 31.0044 33.9037 29.7605 34.6157 28.8015C34.9968 28.2864 36.0606 28.0351 36.7599 28.123C37.0657 28.1607 37.497 29.4004 37.3923 30.0076ZM67.2987 35.3557C65.6737 34.761 65.0916 33.2072 65.9502 31.4608C66.2936 30.7614 66.8799 30.1835 67.3531 29.5511C67.7594 30.1626 68.2368 30.7405 68.5593 31.3938C68.9487 32.1854 69.2126 33.0439 69.3969 33.5297C69.3424 35.2384 68.5174 35.8038 67.2945 35.3557H67.2987ZM85.4996 32.4701C85.018 33.7935 84.1846 34.1202 82.8821 33.6763C81.4624 33.1905 81.8645 32.2398 82.2833 31.331C82.6309 30.5814 82.9701 29.7731 83.5271 29.1951C83.9291 28.7763 84.729 28.4455 85.2651 28.5418C85.6546 28.613 85.9101 29.4422 86.1739 29.861C85.9184 30.8661 85.7802 31.6954 85.4955 32.4701H85.4996ZM125.344 35.5525C123.794 35.6237 122.136 33.4543 122.777 32.0723C123.2 31.1635 123.908 30.3845 124.486 29.5469C124.992 30.3217 125.558 31.0672 125.993 31.8838C126.349 32.5497 126.546 33.2994 126.726 33.7768C126.693 34.9452 126.282 35.5064 125.344 35.5525ZM137.121 35.3096C135.73 34.7149 135.14 33.3454 135.676 31.9048C135.818 31.5195 135.986 31.1258 136.216 30.7866C136.513 30.3468 136.882 29.9574 137.221 29.5469C137.552 29.949 137.975 30.3091 138.201 30.7656C138.683 31.7456 139.068 32.7759 139.336 33.4208C139.336 35.251 138.411 35.854 137.125 35.3054L137.121 35.3096ZM154.647 33.9276C153.621 35.1379 152.281 34.828 151.779 33.3287C151.301 31.909 152.068 28.9983 153.173 28.0811C153.81 27.5493 154.492 27.3441 154.765 28.3701C155.083 29.5763 155.238 30.8243 155.506 32.2942C155.284 32.7298 155.079 33.425 154.647 33.9317V33.9276Z" fill="white"/>
<path d="M42.376 42.1151C40.2946 42.2868 38.2299 42.7265 36.1485 42.7935C29.4687 43.0113 22.7805 43.0699 16.1007 43.2709C12.8843 43.3673 9.7098 43.8782 6.72796 45.1681C5.86523 45.5408 4.77636 45.9722 5.0402 47.1699C5.08627 47.3793 6.53112 47.4631 7.26402 47.304C12.4404 46.1774 17.6753 46.525 22.8894 46.6841C27.1318 46.814 31.3616 47.1825 36.4919 47.4966C37.4175 47.3375 39.2476 47.2118 40.9437 46.6632C42.0661 46.2988 43.1173 45.4529 43.9465 44.5818C44.3528 44.1546 44.4114 43.1076 44.1936 42.492C44.0847 42.1821 43 42.0648 42.376 42.1151Z" fill="white"/>
</svg>
