<svg width="170" height="64" viewBox="0 0 170 64" fill="none" xmlns="http://www.w3.org/2000/svg">
<path d="M50.4256 44.5584C48.0755 48.0914 43.9482 48.4843 40.6123 47.5114C36.1122 46.199 33.8484 42.9336 33.1778 38.4507C32.7245 35.4214 33.1116 32.5129 34.6443 29.7973C37.1195 25.4138 42.4774 23.3861 47.1847 25.1058C48.4382 25.5649 49.4945 26.3363 50.4242 27.5926C50.4242 26.7896 50.453 26.1607 50.4156 25.5361C50.3868 25.0511 50.5724 24.9259 51.0344 24.9331C52.4706 24.959 53.9097 24.9734 55.346 24.9274C55.9288 24.9086 56.0483 25.0972 56.0468 25.6469C56.0267 31.3242 56.0353 37.0016 56.0353 42.6789C56.0353 44.0446 56.0195 45.4103 56.0439 46.7746C56.0511 47.202 55.9504 47.3574 55.4913 47.3474C54.0061 47.3171 52.521 47.3215 51.0358 47.3459C50.5753 47.3531 50.3882 47.2322 50.4156 46.7444C50.453 46.0809 50.4242 45.4132 50.4242 44.5555L50.4256 44.5584ZM44.7656 42.6256C48.3188 42.6256 50.784 40.0309 50.8243 36.2503C50.8631 32.4971 48.2914 29.8045 44.6692 29.8031C41.1836 29.8016 38.6824 32.5072 38.6896 36.2734C38.6968 40.0093 41.198 42.6242 44.767 42.6256H44.7656Z" fill="#FDFEFE"/>
<path d="M101.422 31.8984C101.422 29.7901 101.438 27.6833 101.411 25.575C101.405 25.0813 101.526 24.9187 102.04 24.9317C103.476 24.9677 104.913 24.9677 106.35 24.9317C106.868 24.9187 106.979 25.0885 106.977 25.5778C106.958 29.4347 106.96 33.2901 106.969 37.1469C106.974 39.6898 108.626 41.6585 111.079 42.0816C113.889 42.5652 116.626 40.3677 116.664 37.5052C116.714 33.5534 116.696 29.6016 116.678 25.6498C116.675 25.1159 116.773 24.9072 117.368 24.9288C118.755 24.9792 120.147 24.9648 121.534 24.9346C122.065 24.923 122.285 25.0209 122.281 25.6311C122.251 29.4865 122.281 33.3433 122.262 37.2002C122.238 42.0442 119.559 45.8881 115.173 47.4265C108.639 49.7162 101.605 44.8649 101.445 37.9355C101.399 35.9251 101.438 33.9118 101.438 31.8999H101.419L101.422 31.8984Z" fill="#FDFEFE"/>
<path d="M72.6917 30.6781C72.6917 27.0616 72.7017 23.4465 72.6801 19.83C72.6773 19.3177 72.7694 19.1277 73.3335 19.1464C74.7453 19.1925 76.1599 19.1838 77.5717 19.1493C78.1099 19.1363 78.3172 19.2472 78.2985 19.843C78.251 21.3497 78.3028 22.8608 78.2711 24.369C78.261 24.8554 78.4208 24.9662 78.877 24.9547C80.0743 24.9259 81.2717 24.959 82.469 24.9374C82.8777 24.9302 83.0677 24.9936 83.0533 25.4742C83.0173 26.6946 83.0173 27.9178 83.0533 29.1382C83.0662 29.6146 82.882 29.6865 82.4705 29.6779C81.276 29.6549 80.0801 29.6851 78.8842 29.6606C78.4467 29.652 78.2668 29.7326 78.2711 30.2334C78.2956 33.4426 78.2855 36.6518 78.2826 39.8596C78.2826 40.5375 78.3819 41.1923 78.7316 41.7823C79.2929 42.7307 80.5075 43.1279 81.984 42.8645C82.9598 42.6904 82.9454 42.6918 83.0447 43.705C83.1468 44.7512 83.2692 45.7946 83.4131 46.8365C83.4534 47.1272 83.4937 47.32 83.131 47.4251C80.5708 48.1691 78.0423 48.2497 75.6102 47.0005C73.8962 46.1198 73.1076 44.5814 72.8255 42.7393C72.7248 42.0759 72.6859 41.4096 72.6873 40.7375C72.6945 37.3844 72.6902 34.0327 72.6902 30.6795L72.6917 30.6781Z" fill="#FDFEFE"/>
<path d="M67.1036 31.6768C67.1036 36.6562 67.092 41.6355 67.118 46.6149C67.1208 47.2193 66.9553 47.3733 66.3639 47.3531C65.001 47.3071 63.6338 47.3114 62.271 47.3531C61.7025 47.3704 61.5442 47.2035 61.5457 46.635C61.5673 41.9435 61.5572 37.2505 61.5572 32.559C61.5572 27.2918 61.5673 22.0261 61.5442 16.7589C61.5414 16.1804 61.6551 15.9775 62.2782 16.002C63.6641 16.0538 65.0557 16.0437 66.443 16.0048C66.9726 15.9904 67.1194 16.1214 67.118 16.6683C67.0949 21.6721 67.1036 26.6744 67.1036 31.6783V31.6768Z" fill="#FDFEFE"/>
<path d="M87.2253 36.1064C87.2253 32.6122 87.2354 29.1181 87.2138 25.6239C87.2109 25.0957 87.3419 24.9274 87.8902 24.9317C91.1685 24.9561 94.4482 24.9561 97.7265 24.9317C98.2417 24.9274 98.3684 25.0857 98.354 25.5764C98.3209 26.7478 98.3195 27.9222 98.354 29.0936C98.3684 29.5815 98.2 29.6836 97.7452 29.6736C96.3119 29.6448 94.8771 29.6908 93.4452 29.6491C92.8897 29.6318 92.7875 29.8132 92.7889 30.3312C92.8091 35.7394 92.7918 41.1491 92.8134 46.5587C92.8163 47.1502 92.7314 47.3905 92.055 47.3589C90.6705 47.2941 89.2789 47.3143 87.8916 47.3517C87.3447 47.3661 87.2095 47.1934 87.2123 46.6623C87.2354 43.1437 87.2239 39.6265 87.2239 36.1079L87.2253 36.1064Z" fill="#FDFEFE"/>
<path d="M131.277 42.2975C132.235 42.2975 133.194 42.2774 134.151 42.3018C135.709 42.3421 136.925 43.5409 136.904 45.0836C136.879 46.8005 135.726 47.923 134.169 47.946C132.229 47.9763 130.288 47.9791 128.35 47.946C126.785 47.9187 125.631 46.6767 125.599 45.0721C125.571 43.6388 126.804 42.3738 128.332 42.3177C129.312 42.2817 130.295 42.3105 131.278 42.3105C131.278 42.3061 131.278 42.3018 131.278 42.2975H131.277Z" fill="#FDFEFE"/>
</svg>
