<svg width="170" height="64" viewBox="0 0 170 64" fill="none" xmlns="http://www.w3.org/2000/svg">
<path d="M25.5444 24.5411H24.0576L20.6412 16.6327L22.0964 16L24.7852 22.2318L27.4741 16L28.9609 16.6327L25.5444 24.5411Z" fill="white"/>
<path d="M27.4741 47.6337L24.7852 41.4335L22.0964 47.6337L20.6412 47.001L24.0576 39.0926H25.5444L28.9609 47.001L27.4741 47.6337Z" fill="white"/>
<path d="M19.1228 27.1983L11.1195 24.035L11.7205 22.5482L18.0156 25.0156L15.5165 18.7521L17.0033 18.1511L20.1667 26.1544L19.1228 27.1983Z" fill="white"/>
<path d="M32.5988 45.4826L29.4354 37.4793L30.4793 36.467L38.4826 39.6304L37.8816 41.1172L31.5865 38.6181L34.0855 44.9132L32.5988 45.4826Z" fill="white"/>
<path d="M9.63267 35.9609L9 34.5057L15.2002 31.8169L9 29.128L9.63267 27.6728L17.5095 31.0893V32.5444L9.63267 35.9609Z" fill="white"/>
<path d="M39.9694 35.9609L32.0926 32.5444V31.0893L39.9694 27.6728L40.6021 29.128L34.4019 31.8169L40.6021 34.5057L39.9694 35.9609Z" fill="white"/>
<path d="M17.0033 45.4826L15.5165 44.9132L18.0156 38.6181L11.7205 41.1172L11.1195 39.6304L19.1228 36.467L20.1667 37.4793L17.0033 45.4826Z" fill="white"/>
<path d="M30.4793 27.1983L29.4354 26.1544L32.5988 18.1511L34.0855 18.7521L31.5865 25.0156L37.8816 22.5482L38.4826 24.035L30.4793 27.1983Z" fill="white"/>
<path d="M57.621 29.4443C58.8547 30.7097 59.4558 32.2914 59.4558 34.1261C59.4558 35.9609 58.8547 37.5426 57.621 38.8079C56.3873 40.0733 54.9322 40.7059 53.1923 40.7059C51.2943 40.7059 49.8391 40.01 48.7952 38.5865V40.3896H46.0747V23.9401L48.7952 22.8329V29.6341C49.8391 28.2422 51.2943 27.5147 53.1923 27.5147C54.9322 27.5463 56.3873 28.1473 57.621 29.4443ZM52.7811 38.1436C53.9199 38.1436 54.8689 37.764 55.6281 37.0048C56.3873 36.2139 56.7669 35.2649 56.7669 34.1261C56.7669 32.9873 56.3873 32.0067 55.6281 31.2791C54.8689 30.4882 53.9199 30.1403 52.7811 30.1403C51.6422 30.1403 50.6932 30.5199 49.934 31.2791C49.1748 32.0383 48.7952 32.9873 48.7952 34.1261C48.7952 35.2649 49.1748 36.2456 49.934 37.0048C50.6932 37.764 51.6422 38.1436 52.7811 38.1436Z" fill="white"/>
<path d="M63.41 35.2966C63.8212 37.1946 65.3396 38.2701 67.4275 38.2701C68.851 38.2701 69.9265 37.7324 70.6541 36.7201L72.9001 38.0171C71.6664 39.8518 69.8316 40.7376 67.3958 40.7376C65.3713 40.7376 63.6947 40.1049 62.461 38.8712C61.1956 37.6058 60.5946 36.0241 60.5946 34.1261C60.5946 32.2597 61.2273 30.678 62.461 29.4443C63.6947 28.179 65.308 27.5463 67.2377 27.5463C69.0724 27.5463 70.5592 28.2106 71.7613 29.476C72.9317 30.7413 73.5328 32.323 73.5328 34.1578C73.5328 34.4425 73.5011 34.8221 73.4379 35.2966H63.41ZM70.7806 33.0822C70.401 31.0576 68.9775 29.9821 67.206 29.9821C65.2131 29.9821 63.7896 31.1526 63.41 33.0822H70.7806Z" fill="white"/>
<path d="M81.8524 30.2668H78.7523V36.4986C78.7523 38.112 79.7963 38.0803 81.8524 37.9854V40.4212C77.7084 40.9274 76.0318 39.7886 76.0318 36.4986V30.2668H73.7226V27.6728H76.0318V25.0156L78.7523 23.9084V27.6728H81.8524V30.2668Z" fill="white"/>
<path d="M84.2882 24.984L87.0087 23.8768V27.6412H90.1088V30.2352H87.0087V36.467C87.0087 38.0803 88.0526 38.0487 90.1088 37.9538V40.3896C85.9648 40.8957 84.2882 39.7569 84.2882 36.467V24.984Z" fill="white"/>
<path d="M93.5569 35.2966C93.9682 37.1946 95.4866 38.2701 97.5744 38.2701C98.9979 38.2701 100.073 37.7324 100.801 36.7201L103.047 38.0171C101.813 39.8518 99.9786 40.7376 97.5428 40.7376C95.5182 40.7376 93.8416 40.1049 92.6079 38.8712C91.3426 37.6058 90.7415 36.0241 90.7415 34.1261C90.7415 32.2597 91.3742 30.678 92.6079 29.4443C93.8416 28.179 95.4549 27.5463 97.3846 27.5463C99.2194 27.5463 100.706 28.2106 101.908 29.476C103.079 30.7413 103.68 32.323 103.68 34.1578C103.68 34.4425 103.648 34.8221 103.585 35.2966H93.5569ZM100.928 33.0822C100.548 31.0576 99.1245 29.9821 97.353 29.9821C95.36 29.9821 93.9365 31.1526 93.5569 33.0822H100.928Z" fill="white"/>
<path d="M108.108 29.9821C108.773 28.432 110.101 27.6412 111.968 27.6412V30.5831C110.924 30.5199 110.038 30.7729 109.247 31.3424C108.456 31.8801 108.108 32.8291 108.108 34.0945V40.4212H105.388V27.8626H108.108V29.9821Z" fill="white"/>
<path d="M113.36 40.3896V23.8768L116.08 22.7696V40.3896H113.36Z" fill="white"/>
<path d="M120.699 35.2966C121.11 37.1946 122.628 38.2701 124.716 38.2701C126.14 38.2701 127.215 37.7324 127.943 36.7201L130.189 38.0171C128.955 39.8518 127.12 40.7376 124.684 40.7376C122.66 40.7376 120.983 40.1049 119.75 38.8712C118.484 37.6058 117.883 36.0241 117.883 34.1261C117.883 32.2597 118.516 30.678 119.75 29.4443C120.983 28.179 122.597 27.5463 124.526 27.5463C126.361 27.5463 127.848 28.2106 129.05 29.476C130.22 30.7413 130.821 32.323 130.821 34.1578C130.821 34.4425 130.79 34.8221 130.727 35.2966H120.699ZM128.069 33.0822C127.69 31.0576 126.266 29.9821 124.495 29.9821C122.502 29.9821 121.078 31.1526 120.699 33.0822H128.069Z" fill="white"/>
<path d="M142.399 27.8626H145.12V40.3896H142.399V38.5865C141.355 40.01 139.9 40.7059 138.002 40.7059C136.262 40.7059 134.807 40.0733 133.574 38.8079C132.34 37.5426 131.739 35.9609 131.739 34.1261C131.739 32.2597 132.34 30.7097 133.574 29.4443C134.807 28.179 136.262 27.5463 138.002 27.5463C139.9 27.5463 141.355 28.2422 142.399 29.6658V27.8626ZM138.445 38.1436C139.584 38.1436 140.533 37.764 141.292 37.0048C142.051 36.2139 142.431 35.2649 142.431 34.1261C142.431 32.9873 142.051 32.0067 141.292 31.2791C140.533 30.4882 139.584 30.1403 138.445 30.1403C137.306 30.1403 136.357 30.5199 135.598 31.2791C134.839 32.0383 134.459 32.9873 134.459 34.1261C134.459 35.2649 134.839 36.2456 135.598 37.0048C136.357 37.764 137.306 38.1436 138.445 38.1436Z" fill="white"/>
<path d="M159.165 29.476C160.399 30.7413 161 32.323 161 34.1261C161 35.9925 160.399 37.5426 159.165 38.8079C157.932 40.0733 156.476 40.7059 154.737 40.7059C152.839 40.7059 151.383 40.01 150.339 38.5865V45.3877H147.619V27.8626H150.339V29.6658C151.383 28.2422 152.839 27.5463 154.737 27.5463C156.476 27.5463 157.932 28.179 159.165 29.476ZM154.325 38.1436C155.464 38.1436 156.413 37.764 157.172 37.0048C157.932 36.2139 158.311 35.2649 158.311 34.1261C158.311 32.9873 157.932 32.0067 157.172 31.2791C156.413 30.4882 155.464 30.1403 154.325 30.1403C153.186 30.1403 152.237 30.5199 151.478 31.2791C150.719 32.0383 150.339 32.9873 150.339 34.1261C150.339 35.2649 150.719 36.2456 151.478 37.0048C152.237 37.764 153.186 38.1436 154.325 38.1436Z" fill="white"/>
</svg>
