<svg width="64" height="64" viewBox="0 0 64 64" fill="none" xmlns="http://www.w3.org/2000/svg">
<g clip-path="url(#clip0_633_11870)">
<path d="M33.4727 17.2802H30.4647L23.5525 1.28001L26.4965 0L31.9367 12.6081L37.3766 0L40.3847 1.28001L33.4727 17.2802Z" fill="white"/>
<path d="M37.3757 63.9996L31.9357 51.4555L26.4955 63.9996L23.5515 62.7196L30.4635 46.7195H33.4717L40.3837 62.7196L37.3757 63.9996Z" fill="white"/>
<path d="M20.4796 22.6572L4.2876 16.257L5.5036 13.2491L18.2396 18.241L13.1836 5.56904L16.1916 4.35303L22.5916 20.5452L20.4796 22.6572Z" fill="white"/>
<path d="M47.7442 59.646L41.3442 43.454L43.4562 41.406L59.6482 47.806L58.4322 50.814L45.6962 45.758L50.7522 58.494L47.7442 59.646Z" fill="white"/>
<path d="M1.28001 40.3837L0 37.4397L12.5441 31.9997L0 26.5597L1.28001 23.6157L17.2162 30.5277V33.4717L1.28001 40.3837Z" fill="white"/>
<path d="M62.6562 40.3837L46.7202 33.4717V30.5277L62.6562 23.6157L63.9362 26.5597L51.3922 31.9997L63.9362 37.4397L62.6562 40.3837Z" fill="white"/>
<path d="M16.1916 59.646L13.1836 58.494L18.2396 45.758L5.5036 50.814L4.2876 47.806L20.4796 41.406L22.5916 43.454L16.1916 59.646Z" fill="white"/>
<path d="M43.4562 22.6572L41.3442 20.5452L47.7442 4.35303L50.7522 5.56904L45.6962 18.241L58.4322 13.2491L59.6482 16.257L43.4562 22.6572Z" fill="white"/>
</g>
<defs>
<clipPath id="clip0_633_11870">
<rect width="64" height="64" fill="white"/>
</clipPath>
</defs>
</svg>
