<svg width="164" height="32" viewBox="0 0 164 32" fill="none" xmlns="http://www.w3.org/2000/svg">
<g clip-path="url(#clip0_633_11881)">
<path d="M16.2448 26.4373V31.656H11.0259V26.4373H16.2448Z" fill="white"/>
<path d="M5.80702 5.5625V10.7812H0.588135L0.588135 5.5625H5.80702Z" fill="white"/>
<path d="M5.80702 10.7812V15.9999H0.588135V10.7812H5.80702Z" fill="white"/>
<path d="M5.80702 15.9998V21.2185H0.588135V15.9998H5.80702Z" fill="white"/>
<path d="M16.2448 10.7812V15.9999H11.0259V10.7812H16.2448Z" fill="white"/>
<path d="M21.4638 10.7812V15.9999H16.2449V10.7812H21.4638Z" fill="white"/>
<path d="M26.6824 15.9998V21.2185H21.4636V15.9998H26.6824Z" fill="white"/>
<path d="M5.80702 0.34375V5.56246H0.588135C0.588135 2.68025 2.92471 0.34375 5.80702 0.34375Z" fill="white"/>
<path d="M37.1203 18.5049C34.2379 18.5049 31.9014 20.8414 31.9014 23.7236V18.5049H37.1203Z" fill="white"/>
<path d="M26.6826 18.5049C29.565 18.5049 31.9015 20.8414 31.9015 23.7236V18.5049H26.6826Z" fill="white"/>
<path d="M26.6826 18.5049C29.565 18.5049 31.9015 16.1683 31.9015 13.2861V18.5049H26.6826Z" fill="white"/>
<path d="M37.1203 18.5049C34.2379 18.5049 31.9014 16.1683 31.9014 13.2861V18.5049H37.1203Z" fill="white"/>
<path d="M26.6824 15.9999H21.4636V10.7812C24.3459 10.7812 26.6824 13.1177 26.6824 15.9999Z" fill="white"/>
<path d="M5.80713 10.7812H11.026V15.9999C8.14373 15.9999 5.80713 13.6634 5.80713 10.7812Z" fill="white"/>
<path d="M21.4636 26.4372V21.2185H26.6824C26.6824 24.1007 24.3459 26.4372 21.4636 26.4372Z" fill="white"/>
<path d="M21.4638 26.4373H16.2449V31.656C19.1271 31.656 21.4638 29.3194 21.4638 26.4373Z" fill="white"/>
<path d="M5.80713 26.4373H11.026V31.656C8.14373 31.656 5.80713 29.3194 5.80713 26.4373Z" fill="white"/>
<path d="M0.588135 21.2185H5.80702V26.4372C2.92471 26.4372 0.588135 24.1007 0.588135 21.2185Z" fill="white"/>
<path d="M37.1265 26.4372H46.2669C49.8616 26.4372 51.7248 24.6837 51.7248 21.9877C51.7248 19.9054 50.4973 18.6999 49.1383 18.2177C50.2562 17.8012 51.3302 16.7053 51.3302 15.1053C51.3302 12.5408 49.5329 10.875 46.1134 10.875H37.1265V26.4372ZM45.5216 13.8778C46.8368 13.8778 47.5381 14.3382 47.5381 15.4121C47.5381 16.4642 46.8148 16.9464 45.5216 16.9464H40.787V13.8778H45.5216ZM45.6093 19.9493C47.1655 19.9493 47.9327 20.5191 47.9327 21.6808C47.9327 22.8425 47.1655 23.4343 45.6093 23.4343H40.787V19.9493H45.6093Z" fill="white"/>
<path d="M66.558 23.1494H57.3738V10.875H53.6475V26.4372H66.558V23.1494Z" fill="white"/>
<path d="M74.9469 26.7003C79.5938 26.7003 83.1886 23.3906 83.1886 18.6562C83.1886 13.856 79.5938 10.6121 74.9469 10.6121C70.2781 10.6121 66.6833 13.856 66.6833 18.6562C66.6833 23.3906 70.2781 26.7003 74.9469 26.7003ZM74.9469 23.3687C72.229 23.3687 70.4753 21.3083 70.4753 18.6562C70.4753 16.026 72.229 13.9437 74.9469 13.9437C77.6868 13.9437 79.3965 16.0479 79.3965 18.6562C79.3965 21.2864 77.6868 23.3687 74.9469 23.3687Z" fill="white"/>
<path d="M92.3595 26.7003C97.5979 26.7003 99.4398 22.9961 99.724 21.4398H95.9546C95.6035 22.0316 94.661 23.3467 92.3595 23.3467C89.773 23.3467 88.1949 21.2206 88.1949 18.6562C88.1949 16.0917 89.773 13.9657 92.3595 13.9657C94.5076 13.9657 95.5819 15.2808 95.932 15.8726H99.724C99.3739 14.0971 97.4012 10.6121 92.3595 10.6121C87.6907 10.6121 84.3809 14.0094 84.3809 18.6562C84.3809 23.3029 87.6907 26.7003 92.3595 26.7003Z" fill="white"/>
<path d="M112.478 26.4372H117.564L109.301 18.3711L117.213 10.875H112.369L105.245 17.6039V10.875H101.519V26.4372H105.245V19.4452L112.478 26.4372Z" fill="white"/>
<path d="M128.73 10.875H125.004V20.9137C125.004 22.3383 124.259 23.3905 122.768 23.3905C121.255 23.3905 120.533 22.3383 120.533 20.9137V17.0779H117.003V21.2424C117.003 24.596 118.954 26.744 122.768 26.744C126.56 26.744 128.73 24.596 128.73 21.2424V10.875Z" fill="white"/>
<path d="M138.869 26.7003C143.515 26.7003 147.109 23.3906 147.109 18.6562C147.109 13.856 143.515 10.6121 138.869 10.6121C134.199 10.6121 130.605 13.856 130.605 18.6562C130.605 23.3906 134.199 26.7003 138.869 26.7003ZM138.869 23.3687C136.15 23.3687 134.397 21.3083 134.397 18.6562C134.397 16.026 136.15 13.9437 138.869 13.9437C141.608 13.9437 143.317 16.0479 143.317 18.6562C143.317 21.2864 141.608 23.3687 138.869 23.3687Z" fill="white"/>
<path d="M156.814 19.9054L163.412 10.875H159.225L154.973 16.53L150.742 10.875H146.007L152.912 19.8835V26.4372H156.814V19.9054Z" fill="white"/>
</g>
<defs>
<clipPath id="clip0_633_11881">
<rect width="162.824" height="32" fill="white" transform="translate(0.588135)"/>
</clipPath>
</defs>
</svg>
