<svg version="1.2" xmlns="http://www.w3.org/2000/svg" viewBox="0 0 400 102" width="400" height="102">
	<style>
		.s0 { fill: #ffffff } 
	</style>
	<g>
		<path class="s0" d="m100.53 10.73h-27.22c-4.59 0-8.31 3.68-8.31 8.23v45.16c0 3.56 1.92 6.83 5.03 8.58l48.54 27.43c3.07 1.74 6.99 0.78 8.9-2.17l2.37-3.67c1.23-1.89 3.33-3.05 5.6-3.05h28.87c3.68 0 6.64-2.95 6.64-6.58v-46.78c0-3.56-1.92-6.83-5.02-8.58l-48.54-27.43c-3.08-1.74-7-0.78-8.9 2.17l-2.37 3.66c-1.22 1.89-3.33 3.04-5.59 3.03zm-7.75 38.23v-22.16c0-2.55 2.79-4.14 5.02-2.83l42.2 24.72c2.03 1.18 3.27 3.34 3.27 5.67v22.15c0 2.55-2.8 4.14-5.03 2.84l-42.18-24.72c-2.03-1.19-3.27-3.35-3.28-5.67z"/>
		<path class="s0" d="m236.84 91.28q-12.26 0-20.96-4.26-8.72-4.25-13.23-13.22-4.52-8.97-4.53-22.8 0-20.42 10.14-30.36 10.15-9.92 28.58-9.92 10.09 0 18.1 3.4 8.02 3.4 12.66 10.21 4.64 6.81 4.65 17.14h-17.18q0-5.45-2.24-9.19-2.24-3.74-6.3-5.73-4.06-1.98-9.45-1.98-7.33 0-12.07 2.83-4.75 2.84-7 8.34-2.24 5.5-2.24 13.45v3.52q0 8.16 2.29 13.67 2.3 5.51 6.93 8.29 4.64 2.78 11.97 2.77 5.73 0 9.96-1.93 4.25-1.93 6.53-5.67 2.29-3.75 2.28-9.19h16.5q0 10.33-4.53 17.14-4.52 6.82-12.54 10.15-8.02 3.33-18.33 3.34z"/>
		<path class="s0" d="m282.66 89.92v-12.71h18.78v-45.95h-18.9v-9.54q3.79-0.33 8.76-1.75 4.99-1.41 10.02-3.52 5.04-2.1 9.05-4.49h7.1v65.25h17.53v12.71h-52.36z"/>
	</g>
</svg>