<svg width="142" height="28" viewBox="0 0 142 28" fill="none" xmlns="http://www.w3.org/2000/svg">
<path d="M31.0482 23.5213C29.2379 23.5213 27.6702 23.181 26.3451 22.5004C25.02 21.8198 24.0089 20.8921 23.3117 19.7172C22.6145 18.5424 22.2659 17.2298 22.2659 15.7795C22.2659 14.3292 22.6226 13.0227 23.3361 11.86C24.0496 10.6973 25.0771 9.78173 26.4185 9.11328C27.7599 8.44484 29.3398 8.11062 31.1583 8.11062C32.4303 8.11062 33.5312 8.25849 34.4608 8.55422C35.3904 8.84996 36.2058 9.249 36.9071 9.75134V13.2516C36.2874 12.7573 35.5718 12.3603 34.7605 12.0605C33.9491 11.7607 33.0582 11.6108 32.0879 11.6108C30.9789 11.6108 30.0187 11.7891 29.2073 12.1456C28.3959 12.5021 27.7742 12.9984 27.342 13.6344C26.9098 14.2704 26.6937 14.9895 26.6937 15.7916C26.6937 16.5857 26.9017 17.3027 27.3175 17.9428C27.7334 18.5829 28.3531 19.0873 29.1767 19.4559C30.0003 19.8246 30.9952 20.0089 32.1613 20.0089C33.0664 20.0089 33.9369 19.8611 34.7727 19.5653C35.6085 19.2696 36.3404 18.8948 36.9683 18.4411V21.7712C35.2722 22.9379 33.2988 23.5213 31.0482 23.5213ZM45.9674 8.11062C47.5738 8.11062 48.9519 8.3861 50.1017 8.93706C51.2515 9.48802 52.1301 10.2983 52.7376 11.3678C53.3451 12.4373 53.6489 13.7377 53.6489 15.269V23.0838H49.4901V21.1392C48.9927 21.9413 48.3179 22.547 47.4658 22.9562C46.6136 23.3653 45.6208 23.5699 44.4874 23.5699C43.4273 23.5699 42.4977 23.3633 41.6986 22.9501C40.8994 22.5369 40.2817 21.9717 39.8455 21.2547C39.4092 20.5376 39.1911 19.7334 39.1911 18.8422C39.1911 17.9428 39.4174 17.1387 39.8699 16.4297C40.3225 15.7208 40.9667 15.1657 41.8025 14.7647C42.6384 14.3636 43.6067 14.1631 44.7076 14.1631C46.8359 14.1631 48.426 14.8518 49.4779 16.2292V15.6458C49.4616 14.7545 49.2496 14.0051 48.8418 13.3974C48.4341 12.7897 47.8776 12.334 47.1722 12.0301C46.4669 11.7263 45.6535 11.5744 44.732 11.5744C42.8647 11.5744 41.2664 12.2104 39.9372 13.4825V9.98226C41.6496 8.7345 43.6597 8.11062 45.9674 8.11062ZM46.1753 20.8718C46.8114 20.8718 47.3802 20.7746 47.8817 20.5801C48.3832 20.3857 48.7766 20.1143 49.062 19.7659C49.3474 19.4174 49.4901 19.0285 49.4901 18.5991C49.4901 18.1859 49.3556 17.8152 49.0865 17.4871C48.8174 17.1589 48.4362 16.9017 47.9428 16.7153C47.4495 16.529 46.8807 16.4358 46.2365 16.4358C45.6086 16.4358 45.0663 16.529 44.6097 16.7153C44.1531 16.9017 43.8045 17.1609 43.5639 17.4931C43.3233 17.8253 43.2031 18.2061 43.2031 18.6356C43.2031 19.0731 43.3213 19.462 43.5578 19.8023C43.7943 20.1426 44.1367 20.4059 44.5852 20.5923C45.0337 20.7786 45.5638 20.8718 46.1753 20.8718ZM64.1287 8.76002C64.9687 8.76002 65.6699 8.95853 66.2326 9.35554V13.2447C65.939 13.0421 65.5884 12.8801 65.1807 12.7585C64.7729 12.637 64.3204 12.5762 63.823 12.5762C63.0483 12.5762 62.3735 12.7525 61.7986 13.1049C61.2237 13.4574 60.7732 13.9962 60.447 14.7213C60.1209 15.4465 59.9578 16.3438 59.9578 17.4133V23.4172H55.6767V9.03955H59.8966V12.9894C60.2391 11.5715 60.7691 10.5122 61.4867 9.8113C62.2043 9.11045 63.085 8.76002 64.1287 8.76002ZM85.5992 5.08007V23.0065H81.3426V19.7251C80.8126 20.8837 80.0338 21.7932 79.0064 22.4535C77.9789 23.1139 76.7272 23.444 75.2513 23.444C73.914 23.444 72.7275 23.1139 71.6919 22.4535C70.6563 21.7932 69.8531 20.8837 69.2822 19.7251C68.7114 18.5664 68.4257 17.262 68.4257 15.8116C68.4179 14.3046 68.7237 12.9616 69.3434 11.7827C69.9631 10.6038 70.8214 9.68423 71.9182 9.02389C73.0149 8.36355 74.2483 8.03337 75.6182 8.03337C76.9882 8.03337 78.1502 8.34126 79.1042 8.95704C80.0583 9.57282 80.8044 10.4681 81.3426 11.643V5.08007H85.5992ZM77.0249 20.0168C77.8892 20.0168 78.6537 19.8284 79.3183 19.4516C79.9829 19.0749 80.4946 18.5543 80.8534 17.8899C81.2121 17.2255 81.3915 16.4801 81.3915 15.6536C81.3915 14.8434 81.2162 14.1203 80.8656 13.4842C80.5149 12.8482 80.0135 12.3519 79.3611 11.9954C78.7087 11.6389 77.9463 11.4607 77.0738 11.4607C76.2176 11.4607 75.4694 11.6409 74.8293 12.0015C74.1892 12.3621 73.6958 12.8664 73.3493 13.5146C73.0027 14.1628 72.8294 14.9001 72.8294 15.7266C72.8294 16.553 73.0027 17.2923 73.3493 17.9446C73.6958 18.5968 74.1851 19.1052 74.8171 19.4698C75.449 19.8344 76.185 20.0168 77.0249 20.0168ZM94.7774 23.5213C93.489 23.5213 92.2434 23.3552 91.0406 23.023C89.8379 22.6908 88.7472 22.2047 87.7687 21.5646V18.3196C88.6657 19.0002 89.7033 19.5268 90.8816 19.8995C92.0599 20.2722 93.2444 20.4586 94.4349 20.4586C95.3319 20.4586 96.0087 20.3249 96.4654 20.0575C96.922 19.7902 97.1503 19.4215 97.1503 18.9516C97.1503 18.6113 97.0341 18.3135 96.8017 18.0583C96.5693 17.8031 96.1188 17.5904 95.4501 17.4202L92.2577 16.6667C90.692 16.2859 89.5647 15.7552 88.8756 15.0746C88.1866 14.394 87.8421 13.5432 87.8421 12.5223C87.8421 11.6473 88.1173 10.8776 88.6677 10.2132C89.2181 9.54878 90.0091 9.03226 91.0406 8.6636C92.0722 8.29495 93.2811 8.11062 94.6673 8.11062C95.9231 8.11062 97.0647 8.25443 98.0922 8.54207C99.1196 8.8297 100.004 9.21254 100.746 9.69058V12.8262C99.9962 12.3157 99.1359 11.9086 98.1656 11.6048C97.1952 11.3009 96.1637 11.149 95.071 11.149C94.1006 11.149 93.3748 11.2685 92.8937 11.5075C92.4126 11.7465 92.1721 12.0808 92.1721 12.5102C92.1721 12.8667 92.3372 13.1503 92.6674 13.3609C92.9977 13.5716 93.5461 13.762 94.3126 13.9322L97.1748 14.552C98.61 14.8437 99.6986 15.3258 100.441 15.9983C101.183 16.6708 101.554 17.6147 101.554 18.83C101.554 19.7618 101.287 20.5822 100.753 21.2911C100.218 22.0001 99.4417 22.549 98.4224 22.9379C97.4031 23.3268 96.1881 23.5213 94.7774 23.5213ZM106.285 8.41702C105.813 8.41702 105.388 8.32992 105.013 8.15572C104.638 7.98152 104.345 7.74047 104.133 7.43259C103.921 7.1247 103.815 6.78035 103.815 6.39954C103.815 6.02683 103.923 5.69058 104.139 5.39079C104.355 5.09101 104.65 4.85604 105.026 4.68589C105.401 4.51574 105.821 4.43066 106.285 4.43066C106.742 4.43066 107.154 4.51574 107.521 4.68589C107.888 4.85604 108.175 5.09101 108.383 5.39079C108.591 5.69058 108.695 6.02683 108.695 6.39954C108.695 6.78035 108.591 7.1247 108.383 7.43259C108.175 7.74047 107.888 7.98152 107.521 8.15572C107.154 8.32992 106.742 8.41702 106.285 8.41702ZM104.133 9.5473H108.389V23.4266H104.133V9.5473ZM123.508 12.1974H119.166V23.4151H114.885V12.1974H110.849V9.03753H114.885V6.36375L119.166 5.513V9.03753H123.508V12.1974ZM141.354 16.5573H129.808C130.044 17.6835 130.648 18.5566 131.618 19.1764C132.588 19.7962 133.865 20.1061 135.447 20.1061C136.49 20.1061 137.467 19.9522 138.376 19.6443C139.285 19.3364 140.115 18.9151 140.865 18.3803V21.6618C140.091 22.229 139.139 22.6807 138.009 23.0169C136.88 23.3532 135.703 23.5213 134.48 23.5213C132.694 23.5213 131.129 23.1931 129.783 22.5369C128.438 21.8806 127.4 20.9609 126.67 19.778C125.941 18.5951 125.576 17.2379 125.576 15.7066C125.576 14.2806 125.908 12.9923 126.573 11.8418C127.237 10.6912 128.195 9.78173 129.447 9.11328C130.699 8.44484 132.169 8.11062 133.856 8.11062C135.463 8.11062 136.827 8.38812 137.948 8.94313C139.069 9.49815 139.917 10.2922 140.492 11.3252C141.067 12.3583 141.354 13.5919 141.354 15.026V16.5573ZM133.954 11.3921C132.837 11.3921 131.928 11.6574 131.227 12.1881C130.525 12.7188 130.077 13.4298 129.881 14.3211H137.758C137.669 13.3812 137.296 12.6581 136.639 12.1517C135.983 11.6453 135.088 11.3921 133.954 11.3921Z" fill="white"/>
<path opacity="0.5" d="M16.9493 1.10839C12.4536 0.731852 8.42887 0.774753 5.7028 1.69245C2.50488 2.76899 0.749195 4.95935 0.645508 7.40266L0.700295 21.8238C1.66028 16.71 7.04009 14.8331 16.9493 15.7824" fill="white"/>
<path opacity="0.5" d="M0.646925 7.41397C0.70927 8.43886 0.645542 12.5793 9.85848 12.8101L9.85824 15.6444C4.43741 16.096 1.39884 18.1032 0.700329 21.8242L0.645996 7.4452C0.646219 7.41822 0.646526 7.40742 0.646925 7.41397Z" fill="white"/>
<path fill-rule="evenodd" clip-rule="evenodd" d="M0.652416 7.51303C0.650545 7.47738 0.648809 7.44428 0.646961 7.41391C0.646563 7.40736 0.646255 7.41816 0.646033 7.44514L0.700365 21.8241C1.39888 18.1032 4.43745 16.096 9.85827 15.6443L9.85844 13.7473V27.4684C2.89396 26.9784 0.689281 24.2485 0.689281 21.6558C0.689281 20.4299 0.67658 16.9455 0.66486 13.7302C0.652656 10.3822 0.641515 7.32576 0.646881 7.41397C0.648729 7.44434 0.650465 7.47744 0.652336 7.5131C0.713594 8.68078 0.918472 12.5861 9.85844 12.8101V13.7473L9.85852 12.81C0.918552 12.5861 0.713674 8.68072 0.652416 7.51303Z" fill="white"/>
</svg>
