<svg version="1.2" xmlns="http://www.w3.org/2000/svg" viewBox="0 0 200 100" width="200" height="100">
	<defs>
		<clipPath clipPathUnits="userSpaceOnUse" id="cp1">
			<path d="m140 10v80h-80v-80z"/>
		</clipPath>
	</defs>
	<style>
		.s0 { fill: #ffffff } 
	</style>
	<g id="Clip-Path" clip-path="url(#cp1)">
		<g>
			<path class="s0" d="m94.8 43.55q-2.63-0.01-4.35 1.73-1.7 1.75-1.7 4.46 0 2.72 1.7 4.46 1.71 1.74 4.35 1.73 2.64 0.01 4.38-1.73 1.74-1.74 1.73-4.46 0.01-2.72-1.73-4.46-1.74-1.74-4.38-1.73z"/>
			<path class="s0" d="m115.74 69.57q-0.97 0-1.62 0.65-0.65 0.64-0.65 1.65 0 1 0.65 1.64 0.65 0.66 1.62 0.65 0.98 0 1.63-0.65 0.65-0.66 0.65-1.64c0-0.65-0.22-1.22-0.65-1.65q-0.65-0.65-1.63-0.65z"/>
			<path class="s0" d="m135.03 60.59q-5.39 0.49-7.65-1.16-2.4-1.75-2.4-6.3v-18.75l5.67-3.27v7.47h4.97v5.46h-4.97v9.17q0 1.14 0.56 1.67 0.58 0.52 1.68 0.6c0.62 0.02 2.35 0.02 3.51 0l3.16-11.77c0.81-2.97-0.05-6.11-2.18-8.27l-22.94-22.93c-2.16-2.17-5.29-3-8.24-2.22l-31.32 8.38c-2.95 0.79-5.24 3.08-6.05 6.06l-4 14.96c1.8-1.14 3.86-1.71 6.24-1.71q3.19 0 5.86 1.54 2.63 1.54 4 4.14l-4.89 2.84q-0.65-1.36-2-2.16-1.33-0.8-3.03-0.79-2.55 0-4.21 1.71-1.66 1.7-1.67 4.32c0 1.76 0.56 3.16 1.67 4.3q1.66 1.71 4.21 1.71c1.14 0 2.16-0.24 3.06-0.79q1.34-0.76 2-2.13l4.92 2.81q-1.46 2.59-4.08 4.17-2.63 1.55-5.86 1.56-4.98 0.01-8.3-3.35c-0.84-0.86-1.54-1.78-2.05-2.81l-0.28 1c-0.78 2.95 0.06 6.09 2.22 8.25l22.92 22.93c2.16 2.16 5.29 3 8.24 2.22l31.31-8.41c2.69-0.72 4.84-2.69 5.81-5.29v-4.85q-0.01-0.74-0.38-1.16c-0.27-0.3-0.59-0.44-1.05-0.44q-0.73 0-1.14 0.49-0.41 0.48-0.41 1.41v4.7h-2.16v-5.01q0-0.74-0.37-1.16c-0.27-0.29-0.6-0.43-1.06-0.43-0.48 0-0.84 0.17-1.13 0.49q-0.44 0.48-0.43 1.41v4.7h-2.16v-8.38h2.16v0.89q0.73-1.14 2.32-1.14c1.05 0 1.78 0.41 2.27 1.22q0.82-1.22 2.49-1.22c0.94 0 1.73 0.32 2.29 0.94q0.36 0.4 0.57 0.92l2.3-8.54zm-41.28 0.78q-4.42 0.01-7.54-3.38-3.13-3.39-3.14-8.24 0.01-4.88 3.14-8.25 3.16-3.37 7.54-3.38 4.61 0.01 7.16 3.22v-2.59h5.67v22h-3.08c-1.43 0-2.6-1.16-2.6-2.59q-2.54 3.21-7.15 3.21zm6.64 14.8c-0.79 0-1.43-0.64-1.43-1.43 0-0.79 0.64-1.43 1.43-1.43 0.79 0 1.43 0.64 1.43 1.43 0 0.79-0.64 1.43-1.43 1.43zm8.78-0.43q-1 0.54-2.24 0.54-1.91 0-3.16-1.27c-0.84-0.84-1.27-1.92-1.27-3.16q0-1.87 1.27-3.17 1.25-1.26 3.16-1.27 1.22-0.01 2.24 0.59c0.68 0.41 1.16 0.92 1.52 1.6l-1.87 1.08q-0.26-0.53-0.75-0.81c-0.33-0.22-0.73-0.3-1.14-0.3q-0.98 0-1.62 0.65-0.64 0.64-0.63 1.65 0.01 1 0.63 1.65 0.64 0.64 1.62 0.65 0.64-0.01 1.16-0.3 0.5-0.29 0.76-0.81l1.89 1.08q-0.57 0.98-1.57 1.6zm9.7-0.76q-1.3 1.27-3.16 1.27-1.87-0.01-3.13-1.27-1.27-1.27-1.28-3.14 0.01-1.87 1.28-3.13 1.26-1.27 3.13-1.28 1.86 0.01 3.16 1.28 1.29 1.3 1.29 3.13c0 1.22-0.42 2.3-1.29 3.14zm3.75-30.34q-2.58-0.32-4.65 1.05-2.04 1.38-2.05 4.55v10.52h-5.67v-22.02h5.67v3.79q0.8-2.11 2.62-3.16 1.82-1.06 4.08-1.06v6.33z"/>
		</g>
	</g>
</svg>