<svg width="80" height="80" viewBox="0 0 80 80" fill="none" xmlns="http://www.w3.org/2000/svg">
<g clip-path="url(#clip0_633_11920)">
<path d="M34.802 33.5508C33.0481 33.5508 31.5904 34.1203 30.4523 35.2827C29.3142 36.4451 28.749 37.9312 28.749 39.7411C28.749 41.551 29.3142 43.0411 30.4523 44.1996C31.5826 45.3659 33.0442 45.9315 34.802 45.9315C36.5599 45.9315 38.0176 45.362 39.1791 44.1996C40.3444 43.0372 40.9096 41.551 40.9096 39.7411C40.9096 37.9312 40.3405 36.4412 39.1791 35.2827C38.0176 34.1164 36.5599 33.5508 34.802 33.5508Z" fill="white"/>
<path d="M55.744 59.5684C55.0931 59.5684 54.5513 59.7868 54.1226 60.2198C53.686 60.6488 53.4717 61.1949 53.4717 61.8658C53.4717 62.5368 53.6899 63.0829 54.1226 63.5119C54.5552 63.9488 55.097 64.1633 55.744 64.1633C56.391 64.1633 56.9367 63.9449 57.3654 63.5119C57.798 63.079 58.0163 62.5095 58.0163 61.8658C58.0163 61.2222 57.798 60.6488 57.3654 60.2198C56.9328 59.7829 56.391 59.5684 55.744 59.5684Z" fill="white"/>
<path d="M75.0293 50.5892C71.4357 50.913 68.8945 50.5346 67.3822 49.4268C65.7881 48.2644 64.9774 46.1542 64.9774 43.1273V24.3846L70.6484 21.1119V28.5778H75.6179V34.0387H70.6484V43.2053C70.6484 43.962 70.8355 44.5315 71.2136 44.8826C71.5916 45.2336 72.1568 45.4247 72.8895 45.4755C73.5131 45.5028 75.2437 45.5028 76.4013 45.4755L79.5623 33.715C80.373 30.7387 79.5077 27.5987 77.3757 25.4377L54.4382 2.50575C52.2789 0.344778 49.1452 -0.493866 46.1986 0.286267L14.8812 8.67269C11.9346 9.45673 9.63891 11.7542 8.82821 14.7304L4.82535 29.6856C6.63385 28.5466 8.6879 27.981 11.0693 27.981C13.2013 27.981 15.1463 28.4959 16.9314 29.5217C18.6892 30.5515 20.0144 31.9284 20.9303 33.6603L16.0388 36.5C15.6101 35.5834 14.9319 34.8773 14.0393 34.3391C13.1468 33.7969 12.149 33.5511 11.0148 33.5511C9.31151 33.5511 7.90837 34.1167 6.80145 35.2557C5.69452 36.3947 5.12937 37.8263 5.12937 39.5816C5.12937 41.3368 5.69452 42.745 6.80145 43.884C7.90837 45.0191 9.31151 45.5886 11.0148 45.5886C12.1529 45.5886 13.1741 45.3467 14.0666 44.8006C14.9592 44.2857 15.6335 43.5836 16.07 42.667L20.9888 45.4794C20.0144 47.2112 18.6658 48.5882 16.9119 49.6453C15.1541 50.675 13.2091 51.2133 11.046 51.2133C7.72129 51.2133 4.96567 50.1055 2.75182 47.8627C1.91383 46.9967 1.21225 46.0801 0.697769 45.0503L0.424936 46.0527C-0.358486 49.0017 0.479504 52.1378 2.64268 54.2987L25.5568 77.2307C27.7161 79.3917 30.8498 80.2304 33.7964 79.4502L65.1138 71.0404C67.8031 70.3227 69.9468 68.3489 70.9173 65.7472V60.8987C70.9173 60.4111 70.7809 60.0093 70.5393 59.7363C70.2742 59.4398 69.9468 59.3033 69.4869 59.3033C68.9997 59.3033 68.6216 59.4671 68.3488 59.7909C68.076 60.1146 67.9434 60.571 67.9434 61.1951V65.8993H65.7842V60.8948C65.7842 60.4072 65.6478 60.0054 65.4061 59.7324C65.1411 59.4359 64.8137 59.3033 64.3537 59.3033C63.8665 59.3033 63.5119 59.4671 63.2156 59.7909C62.9194 60.1146 62.7869 60.571 62.7869 61.1951V65.8993H60.6276V57.5168H62.7869V58.41C63.2741 57.6533 64.0575 57.2711 65.1099 57.2711C66.1622 57.2711 66.8911 57.6767 67.3783 58.4881C67.9201 57.6767 68.7581 57.2711 69.865 57.2711C70.8082 57.2711 71.5955 57.5948 72.1607 58.215C72.4023 58.4842 72.5894 58.7806 72.7258 59.1317L75.0254 50.5892H75.0293ZM33.7496 51.3694C30.803 51.3694 28.2929 50.2616 26.2116 47.9914C24.1303 45.7212 23.0779 42.9868 23.0779 39.7454C23.0779 36.5039 24.1303 33.7423 26.2116 31.4994C28.3202 29.2526 30.8342 28.1214 33.7496 28.1214C36.8326 28.1214 39.2063 29.2019 40.9095 31.3433V28.7455H46.5806V50.753H43.5015C42.071 50.753 40.9056 49.5907 40.9056 48.1552C39.2024 50.2889 36.8287 51.3772 33.7457 51.3772M40.3912 66.1724C39.5999 66.1724 38.9607 65.5327 38.9607 64.7408C38.9607 63.949 39.5999 63.3093 40.3912 63.3093C41.1824 63.3093 41.8216 63.949 41.8216 64.7408C41.8216 65.5327 41.1824 66.1724 40.3912 66.1724ZM49.1725 65.7355C48.4982 66.0943 47.7694 66.2816 46.9314 66.2816C45.6607 66.2816 44.6084 65.8525 43.7704 65.01C42.9324 64.1674 42.4998 63.0908 42.4998 61.8465C42.4998 60.6022 42.9285 59.549 43.7704 58.6831C44.6084 57.8445 45.6607 57.4115 46.9314 57.4115C47.7421 57.4115 48.4982 57.5987 49.1764 58.0044C49.8507 58.41 50.3379 58.921 50.6926 59.5998L48.8256 60.6802C48.6619 60.3292 48.393 60.0561 48.0695 59.8689C47.746 59.6544 47.3406 59.5685 46.9314 59.5685C46.2805 59.5685 45.7426 59.7831 45.31 60.22C44.8773 60.649 44.6863 61.1951 44.6863 61.866C44.6863 62.5369 44.9007 63.083 45.31 63.516C45.7387 63.9451 46.2805 64.1674 46.9314 64.1674C47.3601 64.1674 47.7421 64.0582 48.0929 63.8671C48.4164 63.6798 48.6853 63.4068 48.849 63.0557L50.7393 64.1362C50.3613 64.7876 49.8468 65.3259 49.1725 65.7316M58.8737 64.9788C58.0084 65.8213 56.956 66.2504 55.7127 66.2504C54.4694 66.2504 53.417 65.8174 52.579 64.9788C51.7371 64.1401 51.3084 63.0869 51.3084 61.8426C51.3084 60.5983 51.741 59.5451 52.579 58.7065C53.417 57.864 54.4694 57.4349 55.7127 57.4349C56.956 57.4349 58.0084 57.8718 58.8737 58.7065C59.7351 59.5724 60.1677 60.6256 60.1677 61.8426C60.1677 63.0596 59.739 64.1401 58.8737 64.9788ZM62.6232 34.6394C60.8965 34.4249 59.357 34.7759 57.9772 35.6926C56.6248 36.6092 55.9232 38.1266 55.9232 40.2369V50.7569H50.2521V28.7416H55.9232V32.5292C56.465 31.1249 57.3263 30.0678 58.5424 29.3657C59.7584 28.6636 61.1109 28.3125 62.6193 28.3125V34.6394H62.6232Z" fill="white"/>
</g>
<defs>
<clipPath id="clip0_633_11920">
<rect width="80" height="80" fill="white"/>
</clipPath>
</defs>
</svg>
