<svg width="170" height="64" viewBox="0 0 170 64" fill="none" xmlns="http://www.w3.org/2000/svg">
<path fill-rule="evenodd" clip-rule="evenodd" d="M23.4467 36.3884C23.4804 36.022 23.7473 35.7229 24.1131 35.7229H27.4459C27.8124 35.7229 28.1128 36.022 28.1128 36.3884C28.1128 40.8422 24.7796 44 20.181 44C15.5823 44 12.7159 40.6441 12.2495 36.6544C11.9168 33.8617 11.9168 30.1385 12.2495 27.3465C12.7159 23.3577 15.5823 20 20.181 20C24.7796 20 28.1128 23.157 28.1128 27.6125C28.1128 27.9771 27.8124 28.2776 27.4459 28.2776H24.1131C23.7473 28.2776 23.4804 27.9771 23.4467 27.6125C23.3135 25.8835 22.0806 24.6878 20.181 24.6878C18.1485 24.6878 17.1149 25.8835 16.948 27.3465C16.6155 30.1385 16.6155 33.8617 16.948 36.6544C17.1149 38.1168 18.1485 39.3143 20.181 39.3143C22.0806 39.3143 23.3135 38.1168 23.4467 36.3884ZM39.2363 29.3407C39.2363 29.54 39.3698 29.6737 39.5698 29.6737H44.6357C44.8351 29.6737 44.9684 29.54 44.9684 29.3407V21.0303C44.9684 20.6643 45.2686 20.3651 45.6355 20.3651H48.9679C49.3341 20.3651 49.6341 20.6643 49.6341 21.0303V42.9704C49.6341 43.3356 49.3341 43.6349 48.9679 43.6349H45.6355C45.2686 43.6349 44.9684 43.3356 44.9684 42.9704V34.6591C44.9684 34.4607 44.8351 34.3284 44.6357 34.3284H39.5698C39.3698 34.3284 39.2363 34.4607 39.2363 34.6591V42.9704C39.2363 43.3356 38.7706 43.6349 38.4041 43.6349H35.2378C34.8708 43.6349 34.5716 43.3356 34.5716 42.9704V21.0303C34.5716 20.6643 34.8708 20.3651 35.2378 20.3651H38.5701C38.9373 20.3651 39.2363 20.6643 39.2363 21.0303V29.3407ZM60.1255 43.1366C60.0584 43.4364 59.7919 43.6349 59.4921 43.6349H55.993C55.4601 43.6349 55.2596 43.2703 55.3259 42.9704L61.2919 20.8643C61.3587 20.5657 61.6253 20.3651 61.9248 20.3651H66.3906C66.6903 20.3651 66.9565 20.5657 67.0237 20.8643L72.9556 42.9704C73.0228 43.2703 72.8223 43.6349 72.2896 43.6349H68.7902C68.4901 43.6349 68.2571 43.4364 68.1569 43.1366L67.1235 39.712C67.0567 39.4466 66.9233 39.215 66.6238 39.215H61.5582C61.2584 39.215 61.1249 39.4131 61.0578 39.712L60.1255 43.1366ZM62.3246 34.1949C62.2579 34.4607 62.3918 34.5596 62.5917 34.5596H65.6574C65.8574 34.5596 65.9906 34.4607 65.9234 34.1949L64.3239 26.216C64.291 26.1172 64.2574 26.0829 64.1576 26.0829H64.0908C63.9913 26.0829 63.9578 26.1172 63.9237 26.216L62.3246 34.1949ZM83.9797 34.3284C83.78 34.3284 83.6468 34.4607 83.6468 34.6591V42.9704C83.6468 43.3356 83.3472 43.6349 82.9806 43.6349H79.6477C79.2812 43.6349 78.9809 43.3356 78.9809 42.9704V21.0303C78.9809 20.6643 79.2812 20.3651 79.6477 20.3651H86.9787C90.8117 20.3651 93.978 23.5233 93.978 27.3465C93.978 29.9064 92.8791 31.6348 90.5117 33.23C90.0457 33.5618 90.0781 33.8282 90.3115 34.3284L93.8783 42.6381C94.1117 43.1366 93.9103 43.6349 93.2439 43.6349H89.8132C89.2797 43.6349 89.0114 43.3703 88.847 42.9704L85.4474 34.7598C85.3798 34.593 85.2121 34.3284 84.8468 34.3284H83.9797ZM83.9797 25.0191C83.78 25.0191 83.6468 25.1517 83.6468 25.3507V29.3407C83.6468 29.54 83.78 29.6737 83.9797 29.6737H86.9787C88.245 29.6737 89.3121 28.6426 89.3121 27.3465C89.3121 26.0829 88.245 25.0191 86.9787 25.0191H83.9797ZM100.09 25.0191C99.7234 25.0191 99.4234 24.7203 99.4234 24.3541V21.0303C99.4234 20.6643 99.7234 20.3651 100.09 20.3651H114.421C114.787 20.3651 115.086 20.6643 115.086 21.0303V24.3541C115.086 24.7203 114.787 25.0191 114.421 25.0191H109.922C109.721 25.0191 109.588 25.1517 109.588 25.3507V42.9704C109.588 43.3356 109.288 43.6349 108.922 43.6349H105.589C105.222 43.6349 104.923 43.3356 104.923 42.9704V25.3507C104.923 25.1517 104.788 25.0191 104.59 25.0191H100.09ZM126.03 25.1851C126.03 24.9861 125.899 24.8538 125.699 24.8538H122.366C121.999 24.8538 121.699 24.5539 121.699 24.1885V21.0303C121.699 20.6643 121.999 20.3651 122.366 20.3651H134.362C134.73 20.3651 135.029 20.6643 135.029 21.0303V24.1885C135.029 24.5539 134.73 24.8538 134.362 24.8538H131.032C130.831 24.8538 130.697 24.9861 130.697 25.1851V38.8139C130.697 39.0144 130.831 39.1473 131.032 39.1473H134.697C135.063 39.1473 135.362 39.4466 135.362 39.8131V42.9704C135.362 43.3356 135.063 43.6349 134.697 43.6349H122.032C121.664 43.6349 121.366 43.3356 121.366 42.9704V39.8131C121.366 39.4466 121.664 39.1473 122.032 39.1473H125.699C125.899 39.1473 126.03 39.0144 126.03 38.8139V25.1851ZM157.371 27.3465C157.705 30.1385 157.705 33.8617 157.371 36.6544C156.905 40.6441 154.041 44 149.44 44C144.842 44 141.975 40.6441 141.51 36.6544C141.174 33.8617 141.174 30.1385 141.51 27.3465C141.975 23.3577 144.842 20 149.44 20C154.041 20 156.905 23.3577 157.371 27.3465ZM146.207 27.3465C145.875 30.1385 145.875 33.8617 146.207 36.6544C146.374 38.1168 147.407 39.3143 149.44 39.3143C151.473 39.3143 152.505 38.1168 152.673 36.6544C153.006 33.8617 153.006 30.1385 152.673 27.3465C152.505 25.8835 151.473 24.6878 149.44 24.6878C147.407 24.6878 146.374 25.8835 146.207 27.3465Z" fill="white"/>
</svg>
