<svg width="162" height="28" viewBox="0 0 162 28" fill="none" xmlns="http://www.w3.org/2000/svg">
<path fill-rule="evenodd" clip-rule="evenodd" d="M14.976 18.8137L23.259 14.2379L23.731 15.0875L15.4481 19.6633L14.976 18.8137Z" fill="white"/>
<path fill-rule="evenodd" clip-rule="evenodd" d="M14.9926 21.3496L23.2755 25.9254L23.7475 25.0758L15.4646 20.5L14.9926 21.3496Z" fill="white"/>
<path d="M24.9045 15.7863C25.9369 15.7863 26.7739 14.968 26.7739 13.9585C26.7739 12.9489 25.9369 12.1306 24.9045 12.1306C23.872 12.1306 23.035 12.9489 23.035 13.9585C23.035 14.968 23.872 15.7863 24.9045 15.7863Z" fill="white"/>
<path d="M24.9045 28C25.9369 28 26.7739 27.1816 26.7739 26.1721C26.7739 25.1626 25.9369 24.3442 24.9045 24.3442C23.872 24.3442 23.035 25.1626 23.035 26.1721C23.035 27.1816 23.872 28 24.9045 28Z" fill="white"/>
<path d="M13.6878 21.8516C14.7203 21.8516 15.5573 21.0333 15.5573 20.0237C15.5573 19.0142 14.7203 18.1958 13.6878 18.1958C12.6554 18.1958 11.8184 19.0142 11.8184 20.0237C11.8184 21.0333 12.6554 21.8516 13.6878 21.8516Z" fill="white"/>
<path d="M44.3915 13.5115C44.2574 13.3165 44.0685 13.155 43.8248 13.0271C43.5811 12.8991 43.3191 12.8351 43.0388 12.8351C42.3442 12.8351 41.805 13.0423 41.4211 13.4566C41.0373 13.8709 40.8453 14.4132 40.8453 15.0834C40.8453 15.7537 41.0373 16.2959 41.4211 16.7103C41.805 17.1246 42.3442 17.3318 43.0388 17.3318C43.3435 17.3318 43.6055 17.2647 43.8248 17.1307C44.0442 16.9966 44.233 16.8382 44.3915 16.6554L46.2011 18.5564C45.7746 18.9951 45.2719 19.3028 44.6931 19.4795C44.1142 19.6562 43.5628 19.7446 43.0388 19.7446C42.3564 19.7446 41.7136 19.6349 41.1104 19.4155C40.5072 19.1962 39.9832 18.8824 39.5384 18.4742C39.0936 18.066 38.7433 17.5755 38.4874 17.0027C38.2315 16.43 38.1035 15.7902 38.1035 15.0834C38.1035 14.3767 38.2315 13.7369 38.4874 13.1642C38.7433 12.5914 39.0936 12.1009 39.5384 11.6927C39.9832 11.2845 40.5072 10.9707 41.1104 10.7513C41.7136 10.532 42.3564 10.4223 43.0388 10.4223C43.5628 10.4223 44.1142 10.5107 44.6931 10.6874C45.2719 10.8641 45.7746 11.1717 46.2011 11.6104L44.3915 13.5115ZM47.1416 5.70635H49.8835V19.5252H47.1416V5.70635ZM51.4455 15.0834C51.4455 14.3767 51.5734 13.7369 51.8293 13.1642C52.0852 12.5914 52.4356 12.1009 52.8804 11.6927C53.3252 11.2845 53.8491 10.9707 54.4524 10.7513C55.0556 10.532 55.6984 10.4223 56.3808 10.4223C57.0632 10.4223 57.706 10.532 58.3092 10.7513C58.9124 10.9707 59.4364 11.2845 59.8812 11.6927C60.326 12.1009 60.6763 12.5914 60.9322 13.1642C61.1881 13.7369 61.3161 14.3767 61.3161 15.0834C61.3161 15.7902 61.1881 16.43 60.9322 17.0027C60.6763 17.5755 60.326 18.066 59.8812 18.4742C59.4364 18.8824 58.9124 19.1962 58.3092 19.4155C57.706 19.6349 57.0632 19.7446 56.3808 19.7446C55.6984 19.7446 55.0556 19.6349 54.4524 19.4155C53.8491 19.1962 53.3252 18.8824 52.8804 18.4742C52.4356 18.066 52.0852 17.5755 51.8293 17.0027C51.5734 16.43 51.4455 15.7902 51.4455 15.0834ZM54.1873 15.0834C54.1873 15.7537 54.3792 16.2959 54.7631 16.7103C55.147 17.1246 55.6862 17.3318 56.3808 17.3318C57.0754 17.3318 57.6146 17.1246 57.9985 16.7103C58.3823 16.2959 58.5743 15.7537 58.5743 15.0834C58.5743 14.4132 58.3823 13.8709 57.9985 13.4566C57.6146 13.0423 57.0754 12.8351 56.3808 12.8351C55.6862 12.8351 55.147 13.0423 54.7631 13.4566C54.3792 13.8709 54.1873 14.4132 54.1873 15.0834ZM71.3961 19.5252H68.7639V18.3188H68.7274C68.6299 18.4894 68.505 18.66 68.3527 18.8306C68.2003 19.0012 68.0145 19.1536 67.7951 19.2876C67.5758 19.4216 67.326 19.5313 67.0457 19.6166C66.7654 19.7019 66.4608 19.7446 66.1318 19.7446C65.4372 19.7446 64.8736 19.6379 64.441 19.4247C64.0084 19.2114 63.6732 18.9159 63.4356 18.5382C63.198 18.1604 63.0396 17.7156 62.9604 17.2038C62.8812 16.692 62.8416 16.1375 62.8416 15.5404V10.6417H65.5834V14.992C65.5834 15.248 65.5925 15.513 65.6108 15.7872C65.6291 16.0614 65.6839 16.3142 65.7753 16.5458C65.8667 16.7773 66.0069 16.9662 66.1957 17.1124C66.3846 17.2586 66.6558 17.3318 67.0092 17.3318C67.3625 17.3318 67.6489 17.2678 67.8683 17.1398C68.0876 17.0119 68.2552 16.8413 68.3709 16.628C68.4867 16.4148 68.5629 16.1741 68.5994 15.906C68.636 15.6379 68.6543 15.3576 68.6543 15.0652V10.6417H71.3961V19.5252ZM82.5728 19.5252H80.0503V18.3554H80.0138C79.9041 18.5138 79.7609 18.6753 79.5842 18.8398C79.4075 19.0043 79.2004 19.1536 78.9627 19.2876C78.7251 19.4216 78.4631 19.5313 78.1768 19.6166C77.8904 19.7019 77.5949 19.7446 77.2902 19.7446C76.6322 19.7446 76.0351 19.6319 75.4989 19.4064C74.9627 19.181 74.5027 18.8641 74.1188 18.4559C73.735 18.0477 73.4395 17.5633 73.2323 17.0027C73.0251 16.4422 72.9216 15.8268 72.9216 15.1566C72.9216 14.5351 73.016 13.941 73.2049 13.3744C73.3938 12.8077 73.6618 12.305 74.0092 11.8664C74.3565 11.4277 74.7799 11.0773 75.2795 10.8153C75.7792 10.5533 76.3458 10.4223 76.9795 10.4223C77.5522 10.4223 78.0854 10.5107 78.5789 10.6874C79.0724 10.8641 79.4776 11.1657 79.7944 11.5922H79.831V5.70635H82.5728V19.5252ZM80.0503 15.0834C80.0503 14.4132 79.8584 13.8709 79.4746 13.4566C79.0907 13.0423 78.5515 12.8351 77.8569 12.8351C77.1623 12.8351 76.623 13.0423 76.2392 13.4566C75.8553 13.8709 75.6634 14.4132 75.6634 15.0834C75.6634 15.7537 75.8553 16.2959 76.2392 16.7103C76.623 17.1246 77.1623 17.3318 77.8569 17.3318C78.5515 17.3318 79.0907 17.1246 79.4746 16.7103C79.8584 16.2959 80.0503 15.7537 80.0503 15.0834ZM92.2507 18.2823C91.8364 18.7819 91.3672 19.1505 90.8432 19.3881C90.3192 19.6258 89.7526 19.7446 89.1433 19.7446C88.4974 19.7446 87.9003 19.6349 87.3519 19.4155C86.8036 19.1962 86.3344 18.8885 85.9445 18.4925C85.5545 18.0964 85.2499 17.6273 85.0305 17.085C84.8112 16.5427 84.7015 15.9486 84.7015 15.3028C84.7015 14.6569 84.8112 14.0629 85.0305 13.5206C85.2499 12.9783 85.5545 12.5092 85.9445 12.1131C86.3344 11.7171 86.8036 11.4094 87.3519 11.19C87.9003 10.9707 88.4974 10.861 89.1433 10.861C89.7648 10.861 90.3405 10.989 90.8706 11.2449C91.4007 11.5008 91.8729 11.8603 92.2873 12.3233L91.4099 12.9814C91.093 12.628 90.7457 12.3507 90.368 12.1497C89.9902 11.9486 89.582 11.8481 89.1433 11.8481C88.6315 11.8481 88.1684 11.9395 87.7541 12.1223C87.3398 12.305 86.9864 12.5518 86.6939 12.8626C86.4014 13.1733 86.179 13.5389 86.0267 13.9593C85.8744 14.3797 85.7982 14.8275 85.7982 15.3028C85.7982 15.778 85.8744 16.2259 86.0267 16.6463C86.179 17.0667 86.4014 17.4323 86.6939 17.743C86.9864 18.0538 87.3398 18.3005 87.7541 18.4833C88.1684 18.6661 88.6315 18.7575 89.1433 18.7575C89.6063 18.7575 90.0298 18.6509 90.4137 18.4376C90.7975 18.2244 91.1296 17.941 91.4099 17.5877L92.2507 18.2823ZM100.448 15.9791C100.448 16.3934 100.451 16.7651 100.457 17.0941C100.463 17.4231 100.472 17.7278 100.485 18.0081C100.497 18.2884 100.512 18.5503 100.53 18.7941C100.549 19.0378 100.576 19.2815 100.612 19.5252H99.5889C99.5157 19.1109 99.4792 18.6539 99.4792 18.1543H99.4426C99.1258 18.7027 98.7328 19.1048 98.2636 19.3607C97.7945 19.6166 97.2004 19.7446 96.4814 19.7446C96.1159 19.7446 95.7564 19.6989 95.403 19.6075C95.0496 19.5161 94.7328 19.3699 94.4525 19.1688C94.1722 18.9677 93.9437 18.7088 93.767 18.3919C93.5903 18.0751 93.502 17.6912 93.502 17.2404C93.502 16.5945 93.6665 16.0827 93.9955 15.7049C94.3245 15.3272 94.7297 15.0438 95.211 14.855C95.6924 14.6661 96.2042 14.5442 96.7465 14.4894C97.2887 14.4345 97.7671 14.4071 98.1814 14.4071H99.4609V13.8953C99.4609 13.1641 99.2355 12.6402 98.7846 12.3233C98.3337 12.0065 97.7671 11.8481 97.0846 11.8481C96.1098 11.8481 95.2507 12.1649 94.5073 12.7986L93.8676 12.0491C94.2697 11.6592 94.7693 11.3637 95.3664 11.1626C95.9635 10.9615 96.5363 10.861 97.0846 10.861C98.1083 10.861 98.9247 11.1017 99.534 11.583C100.143 12.0644 100.448 12.8412 100.448 13.9136V15.9791ZM98.2545 15.2845C97.7914 15.2845 97.3436 15.315 96.911 15.3759C96.4784 15.4368 96.0884 15.5404 95.7411 15.6866C95.3938 15.8329 95.1166 16.0279 94.9095 16.2716C94.7023 16.5153 94.5987 16.8199 94.5987 17.1855C94.5987 17.4414 94.6566 17.6699 94.7723 17.871C94.8881 18.072 95.0374 18.2366 95.2202 18.3645C95.403 18.4925 95.6071 18.59 95.8325 18.657C96.058 18.724 96.2865 18.7575 96.518 18.7575C97.1029 18.7575 97.5843 18.6722 97.962 18.5016C98.3398 18.331 98.6414 18.1086 98.8668 17.8344C99.0923 17.5602 99.2477 17.2495 99.333 16.9022C99.4183 16.5549 99.4609 16.2046 99.4609 15.8512V15.2845H98.2545ZM103.29 13.4566C103.29 13.2982 103.283 13.1063 103.271 12.8808C103.259 12.6554 103.25 12.4269 103.244 12.1954C103.238 11.9638 103.229 11.7475 103.216 11.5465C103.204 11.3454 103.198 11.19 103.198 11.0804H104.295C104.307 11.3972 104.316 11.7018 104.322 11.9943C104.328 12.2868 104.344 12.4756 104.368 12.5609H104.423C104.642 12.0979 105.008 11.6988 105.52 11.3637C106.031 11.0286 106.628 10.861 107.311 10.861C107.871 10.861 108.383 11.0042 108.846 11.2906C109.309 11.5769 109.644 12.043 109.852 12.6889C110.12 12.0552 110.519 11.5922 111.049 11.2997C111.579 11.0072 112.137 10.861 112.721 10.861C113.379 10.861 113.916 10.9646 114.33 11.1718C114.744 11.3789 115.07 11.65 115.308 11.9852C115.546 12.3203 115.71 12.7072 115.801 13.1459C115.893 13.5846 115.939 14.0354 115.939 14.4985V19.5252H114.842V14.5534C114.842 14.2121 114.811 13.8801 114.75 13.5572C114.689 13.2342 114.583 12.9448 114.431 12.6889C114.278 12.433 114.065 12.2289 113.791 12.0766C113.517 11.9242 113.16 11.8481 112.721 11.8481C112.21 11.8481 111.789 11.9425 111.46 12.1314C111.131 12.3203 110.872 12.5609 110.683 12.8534C110.494 13.1459 110.36 13.4627 110.281 13.8039C110.202 14.1451 110.162 14.4681 110.162 14.7727V19.5252H109.066V14.4437C109.066 13.6638 108.922 13.0362 108.636 12.5609C108.35 12.0857 107.908 11.8481 107.311 11.8481C106.909 11.8481 106.528 11.9181 106.168 12.0583C105.809 12.1984 105.498 12.4117 105.236 12.698C104.974 12.9844 104.767 13.3439 104.615 13.7765C104.462 14.2091 104.386 14.7179 104.386 15.3028V19.5252H103.29V13.4566ZM118.542 11.0804H119.639V12.5609H119.676C119.846 12.2685 120.06 12.0156 120.316 11.8024C120.571 11.5891 120.849 11.4124 121.147 11.2723C121.446 11.1321 121.76 11.0286 122.089 10.9615C122.418 10.8945 122.741 10.861 123.057 10.861C123.703 10.861 124.297 10.9707 124.84 11.19C125.382 11.4094 125.851 11.7171 126.247 12.1131C126.643 12.5092 126.951 12.9783 127.17 13.5206C127.389 14.0629 127.499 14.6569 127.499 15.3028C127.499 15.9486 127.389 16.5427 127.17 17.085C126.951 17.6273 126.643 18.0964 126.247 18.4925C125.851 18.8885 125.382 19.1962 124.84 19.4155C124.297 19.6349 123.703 19.7446 123.057 19.7446C122.741 19.7446 122.418 19.7111 122.089 19.644C121.76 19.577 121.446 19.4734 121.147 19.3333C120.849 19.1932 120.571 19.0165 120.316 18.8032C120.06 18.5899 119.846 18.3371 119.676 18.0446H119.639V23.6928H118.542V11.0804ZM119.53 15.3028C119.53 15.778 119.621 16.2259 119.804 16.6463C119.986 17.0667 120.236 17.4323 120.553 17.743C120.87 18.0538 121.242 18.3005 121.668 18.4833C122.095 18.6661 122.558 18.7575 123.057 18.7575C123.569 18.7575 124.032 18.6661 124.447 18.4833C124.861 18.3005 125.214 18.0538 125.507 17.743C125.799 17.4323 126.022 17.0667 126.174 16.6463C126.326 16.2259 126.402 15.778 126.402 15.3028C126.402 14.8275 126.326 14.3797 126.174 13.9593C126.022 13.5389 125.799 13.1733 125.507 12.8626C125.214 12.5518 124.861 12.305 124.447 12.1223C124.032 11.9395 123.569 11.8481 123.057 11.8481C122.558 11.8481 122.095 11.9395 121.668 12.1223C121.242 12.305 120.87 12.5518 120.553 12.8626C120.236 13.1733 119.986 13.5389 119.804 13.9593C119.621 14.3797 119.53 14.8275 119.53 15.3028ZM136.428 15.9791C136.428 16.3934 136.431 16.7651 136.437 17.0941C136.443 17.4231 136.452 17.7278 136.464 18.0081C136.476 18.2884 136.492 18.5503 136.51 18.7941C136.528 19.0378 136.556 19.2815 136.592 19.5252H135.568C135.495 19.1109 135.459 18.6539 135.459 18.1543H135.422C135.105 18.7027 134.712 19.1048 134.243 19.3607C133.774 19.6166 133.18 19.7446 132.461 19.7446C132.095 19.7446 131.736 19.6989 131.383 19.6075C131.029 19.5161 130.712 19.3699 130.432 19.1688C130.152 18.9677 129.923 18.7088 129.747 18.3919C129.57 18.0751 129.482 17.6912 129.482 17.2404C129.482 16.5945 129.646 16.0827 129.975 15.7049C130.304 15.3272 130.709 15.0438 131.191 14.855C131.672 14.6661 132.184 14.5442 132.726 14.4894C133.268 14.4345 133.747 14.4071 134.161 14.4071H135.44V13.8953C135.44 13.1641 135.215 12.6402 134.764 12.3233C134.313 12.0065 133.747 11.8481 133.064 11.8481C132.089 11.8481 131.23 12.1649 130.487 12.7986L129.847 12.0491C130.249 11.6592 130.749 11.3637 131.346 11.1626C131.943 10.9615 132.516 10.861 133.064 10.861C134.088 10.861 134.904 11.1017 135.514 11.583C136.123 12.0644 136.428 12.8412 136.428 13.9136V15.9791ZM134.234 15.2845C133.771 15.2845 133.323 15.315 132.891 15.3759C132.458 15.4368 132.068 15.5404 131.721 15.6866C131.373 15.8329 131.096 16.0279 130.889 16.2716C130.682 16.5153 130.578 16.8199 130.578 17.1855C130.578 17.4414 130.636 17.6699 130.752 17.871C130.868 18.072 131.017 18.2366 131.2 18.3645C131.383 18.4925 131.587 18.59 131.812 18.657C132.038 18.724 132.266 18.7575 132.498 18.7575C133.083 18.7575 133.564 18.6722 133.942 18.5016C134.319 18.331 134.621 18.1086 134.846 17.8344C135.072 17.5602 135.227 17.2495 135.313 16.9022C135.398 16.5549 135.44 16.2046 135.44 15.8512V15.2845H134.234ZM139.452 11.0804H140.549V19.5252H139.452V11.0804ZM139.178 7.73531C139.178 7.50378 139.257 7.3088 139.415 7.15039C139.574 6.99197 139.769 6.91276 140 6.91276C140.232 6.91276 140.427 6.99197 140.585 7.15039C140.744 7.3088 140.823 7.50378 140.823 7.73531C140.823 7.96685 140.744 8.16182 140.585 8.32024C140.427 8.47865 140.232 8.55786 140 8.55786C139.769 8.55786 139.574 8.47865 139.415 8.32024C139.257 8.16182 139.178 7.96685 139.178 7.73531ZM152.054 18.9769C152.054 20.0249 151.902 20.8718 151.597 21.5176C151.293 22.1635 150.912 22.6631 150.455 23.0165C149.998 23.3699 149.508 23.6075 148.984 23.7294C148.46 23.8512 147.984 23.9122 147.558 23.9122C147.131 23.9122 146.714 23.8726 146.306 23.7934C145.897 23.7141 145.511 23.5984 145.145 23.4461C144.779 23.2937 144.447 23.1079 144.149 22.8885C143.85 22.6692 143.591 22.4194 143.372 22.1391L144.231 21.3348C144.621 21.8832 145.108 22.2853 145.693 22.5412C146.278 22.7972 146.9 22.9251 147.558 22.9251C148.118 22.9251 148.591 22.852 148.974 22.7058C149.358 22.5595 149.675 22.3676 149.925 22.13C150.175 21.8923 150.37 21.6303 150.51 21.344C150.65 21.0576 150.754 20.7712 150.821 20.4849C150.888 20.1985 150.927 19.9274 150.939 19.6715C150.952 19.4155 150.958 19.2084 150.958 19.05V17.8801H150.921C150.604 18.3919 150.175 18.7941 149.632 19.0865C149.09 19.379 148.453 19.5252 147.722 19.5252C147.101 19.5252 146.516 19.4125 145.967 19.1871C145.419 18.9616 144.941 18.6509 144.533 18.2548C144.124 17.8588 143.801 17.3988 143.564 16.8748C143.326 16.3508 143.207 15.7902 143.207 15.1931C143.207 14.596 143.326 14.0355 143.564 13.5115C143.801 12.9875 144.124 12.5305 144.533 12.1405C144.941 11.7506 145.419 11.4398 145.967 11.2083C146.516 10.9768 147.101 10.861 147.722 10.861C148.453 10.861 149.09 11.0072 149.632 11.2997C150.175 11.5922 150.604 11.9943 150.921 12.5061H150.958V11.0804H152.054V18.9769ZM150.994 15.1931C150.994 14.73 150.906 14.2944 150.729 13.8862C150.552 13.4779 150.315 13.1246 150.016 12.826C149.718 12.5274 149.364 12.2898 148.956 12.1131C148.548 11.9364 148.112 11.8481 147.649 11.8481C147.186 11.8481 146.75 11.9364 146.342 12.1131C145.934 12.2898 145.581 12.5274 145.282 12.826C144.983 13.1246 144.746 13.4779 144.569 13.8862C144.392 14.2944 144.304 14.73 144.304 15.1931C144.304 15.6562 144.392 16.0918 144.569 16.5001C144.746 16.9083 144.983 17.2617 145.282 17.5602C145.581 17.8588 145.934 18.0964 146.342 18.2731C146.75 18.4498 147.186 18.5382 147.649 18.5382C148.112 18.5382 148.548 18.4498 148.956 18.2731C149.364 18.0964 149.718 17.8588 150.016 17.5602C150.315 17.2617 150.552 16.9083 150.729 16.5001C150.906 16.0918 150.994 15.6562 150.994 15.1931ZM154.658 13.4566C154.658 13.2982 154.652 13.1063 154.64 12.8808C154.628 12.6554 154.619 12.4269 154.613 12.1954C154.607 11.9638 154.597 11.7475 154.585 11.5465C154.573 11.3454 154.567 11.19 154.567 11.0804H155.664C155.676 11.3972 155.685 11.7018 155.691 11.9943C155.697 12.2868 155.712 12.4756 155.737 12.5609H155.792C156.011 12.0979 156.377 11.6988 156.888 11.3637C157.4 11.0286 157.997 10.861 158.68 10.861C159.338 10.861 159.874 10.9646 160.288 11.1718C160.703 11.3789 161.029 11.65 161.266 11.9852C161.504 12.3203 161.668 12.7072 161.76 13.1459C161.851 13.5846 161.897 14.0354 161.897 14.4985V19.5252H160.8V14.5534C160.8 14.2121 160.77 13.8801 160.709 13.5572C160.648 13.2342 160.541 12.9448 160.389 12.6889C160.236 12.433 160.023 12.2289 159.749 12.0766C159.475 11.9242 159.118 11.8481 158.68 11.8481C158.278 11.8481 157.897 11.9181 157.537 12.0583C157.178 12.1984 156.867 12.4117 156.605 12.698C156.343 12.9844 156.136 13.3439 155.984 13.7765C155.831 14.2091 155.755 14.7179 155.755 15.3028V19.5252H154.658V13.4566Z" fill="white"/>
<path d="M44.3915 13.5115C44.2574 13.3165 44.0685 13.155 43.8248 13.0271C43.5811 12.8991 43.3191 12.8351 43.0388 12.8351C42.3442 12.8351 41.805 13.0423 41.4211 13.4566C41.0373 13.8709 40.8453 14.4132 40.8453 15.0834C40.8453 15.7537 41.0373 16.2959 41.4211 16.7103C41.805 17.1246 42.3442 17.3318 43.0388 17.3318C43.3435 17.3318 43.6055 17.2647 43.8248 17.1307C44.0442 16.9966 44.233 16.8382 44.3915 16.6554L46.2011 18.5564C45.7746 18.9951 45.2719 19.3028 44.6931 19.4795C44.1142 19.6562 43.5628 19.7446 43.0388 19.7446C42.3564 19.7446 41.7136 19.6349 41.1104 19.4155C40.5072 19.1962 39.9832 18.8824 39.5384 18.4742C39.0936 18.066 38.7433 17.5755 38.4874 17.0027C38.2315 16.43 38.1035 15.7902 38.1035 15.0834C38.1035 14.3767 38.2315 13.7369 38.4874 13.1642C38.7433 12.5914 39.0936 12.1009 39.5384 11.6927C39.9832 11.2845 40.5072 10.9707 41.1104 10.7513C41.7136 10.532 42.3564 10.4223 43.0388 10.4223C43.5628 10.4223 44.1142 10.5107 44.6931 10.6874C45.2719 10.8641 45.7746 11.1717 46.2011 11.6104L44.3915 13.5115ZM47.1416 5.70635H49.8835V19.5252H47.1416V5.70635ZM51.4455 15.0834C51.4455 14.3767 51.5734 13.7369 51.8293 13.1642C52.0852 12.5914 52.4356 12.1009 52.8804 11.6927C53.3252 11.2845 53.8491 10.9707 54.4524 10.7513C55.0556 10.532 55.6984 10.4223 56.3808 10.4223C57.0632 10.4223 57.706 10.532 58.3092 10.7513C58.9124 10.9707 59.4364 11.2845 59.8812 11.6927C60.326 12.1009 60.6763 12.5914 60.9322 13.1642C61.1881 13.7369 61.3161 14.3767 61.3161 15.0834C61.3161 15.7902 61.1881 16.43 60.9322 17.0027C60.6763 17.5755 60.326 18.066 59.8812 18.4742C59.4364 18.8824 58.9124 19.1962 58.3092 19.4155C57.706 19.6349 57.0632 19.7446 56.3808 19.7446C55.6984 19.7446 55.0556 19.6349 54.4524 19.4155C53.8491 19.1962 53.3252 18.8824 52.8804 18.4742C52.4356 18.066 52.0852 17.5755 51.8293 17.0027C51.5734 16.43 51.4455 15.7902 51.4455 15.0834ZM54.1873 15.0834C54.1873 15.7537 54.3792 16.2959 54.7631 16.7103C55.147 17.1246 55.6862 17.3318 56.3808 17.3318C57.0754 17.3318 57.6146 17.1246 57.9985 16.7103C58.3823 16.2959 58.5743 15.7537 58.5743 15.0834C58.5743 14.4132 58.3823 13.8709 57.9985 13.4566C57.6146 13.0423 57.0754 12.8351 56.3808 12.8351C55.6862 12.8351 55.147 13.0423 54.7631 13.4566C54.3792 13.8709 54.1873 14.4132 54.1873 15.0834ZM71.3961 19.5252H68.7639V18.3188H68.7274C68.6299 18.4894 68.505 18.66 68.3527 18.8306C68.2003 19.0012 68.0145 19.1536 67.7951 19.2876C67.5758 19.4216 67.326 19.5313 67.0457 19.6166C66.7654 19.7019 66.4608 19.7446 66.1318 19.7446C65.4372 19.7446 64.8736 19.6379 64.441 19.4247C64.0084 19.2114 63.6732 18.9159 63.4356 18.5382C63.198 18.1604 63.0396 17.7156 62.9604 17.2038C62.8812 16.692 62.8416 16.1375 62.8416 15.5404V10.6417H65.5834V14.992C65.5834 15.248 65.5925 15.513 65.6108 15.7872C65.6291 16.0614 65.6839 16.3142 65.7753 16.5458C65.8667 16.7773 66.0069 16.9662 66.1957 17.1124C66.3846 17.2586 66.6558 17.3318 67.0092 17.3318C67.3625 17.3318 67.6489 17.2678 67.8683 17.1398C68.0876 17.0119 68.2552 16.8413 68.3709 16.628C68.4867 16.4148 68.5629 16.1741 68.5994 15.906C68.636 15.6379 68.6543 15.3576 68.6543 15.0652V10.6417H71.3961V19.5252ZM82.5728 19.5252H80.0503V18.3554H80.0138C79.9041 18.5138 79.7609 18.6753 79.5842 18.8398C79.4075 19.0043 79.2004 19.1536 78.9627 19.2876C78.7251 19.4216 78.4631 19.5313 78.1768 19.6166C77.8904 19.7019 77.5949 19.7446 77.2902 19.7446C76.6322 19.7446 76.0351 19.6319 75.4989 19.4064C74.9627 19.181 74.5027 18.8641 74.1188 18.4559C73.735 18.0477 73.4395 17.5633 73.2323 17.0027C73.0251 16.4422 72.9216 15.8268 72.9216 15.1566C72.9216 14.5351 73.016 13.941 73.2049 13.3744C73.3938 12.8077 73.6618 12.305 74.0092 11.8664C74.3565 11.4277 74.7799 11.0773 75.2795 10.8153C75.7792 10.5533 76.3458 10.4223 76.9795 10.4223C77.5522 10.4223 78.0854 10.5107 78.5789 10.6874C79.0724 10.8641 79.4776 11.1657 79.7944 11.5922H79.831V5.70635H82.5728V19.5252ZM80.0503 15.0834C80.0503 14.4132 79.8584 13.8709 79.4746 13.4566C79.0907 13.0423 78.5515 12.8351 77.8569 12.8351C77.1623 12.8351 76.623 13.0423 76.2392 13.4566C75.8553 13.8709 75.6634 14.4132 75.6634 15.0834C75.6634 15.7537 75.8553 16.2959 76.2392 16.7103C76.623 17.1246 77.1623 17.3318 77.8569 17.3318C78.5515 17.3318 79.0907 17.1246 79.4746 16.7103C79.8584 16.2959 80.0503 15.7537 80.0503 15.0834ZM92.2507 18.2823C91.8364 18.7819 91.3672 19.1505 90.8432 19.3881C90.3192 19.6258 89.7526 19.7446 89.1433 19.7446C88.4974 19.7446 87.9003 19.6349 87.3519 19.4155C86.8036 19.1962 86.3344 18.8885 85.9445 18.4925C85.5545 18.0964 85.2499 17.6273 85.0305 17.085C84.8112 16.5427 84.7015 15.9486 84.7015 15.3028C84.7015 14.6569 84.8112 14.0629 85.0305 13.5206C85.2499 12.9783 85.5545 12.5092 85.9445 12.1131C86.3344 11.7171 86.8036 11.4094 87.3519 11.19C87.9003 10.9707 88.4974 10.861 89.1433 10.861C89.7648 10.861 90.3405 10.989 90.8706 11.2449C91.4007 11.5008 91.8729 11.8603 92.2873 12.3233L91.4099 12.9814C91.093 12.628 90.7457 12.3507 90.368 12.1497C89.9902 11.9486 89.582 11.8481 89.1433 11.8481C88.6315 11.8481 88.1684 11.9395 87.7541 12.1223C87.3398 12.305 86.9864 12.5518 86.6939 12.8626C86.4014 13.1733 86.179 13.5389 86.0267 13.9593C85.8744 14.3797 85.7982 14.8275 85.7982 15.3028C85.7982 15.778 85.8744 16.2259 86.0267 16.6463C86.179 17.0667 86.4014 17.4323 86.6939 17.743C86.9864 18.0538 87.3398 18.3005 87.7541 18.4833C88.1684 18.6661 88.6315 18.7575 89.1433 18.7575C89.6063 18.7575 90.0298 18.6509 90.4137 18.4376C90.7975 18.2244 91.1296 17.941 91.4099 17.5877L92.2507 18.2823ZM100.448 15.9791C100.448 16.3934 100.451 16.7651 100.457 17.0941C100.463 17.4231 100.472 17.7278 100.485 18.0081C100.497 18.2884 100.512 18.5503 100.53 18.7941C100.549 19.0378 100.576 19.2815 100.612 19.5252H99.5889C99.5157 19.1109 99.4792 18.6539 99.4792 18.1543H99.4426C99.1258 18.7027 98.7328 19.1048 98.2636 19.3607C97.7945 19.6166 97.2004 19.7446 96.4814 19.7446C96.1159 19.7446 95.7564 19.6989 95.403 19.6075C95.0496 19.5161 94.7328 19.3699 94.4525 19.1688C94.1722 18.9677 93.9437 18.7088 93.767 18.3919C93.5903 18.0751 93.502 17.6912 93.502 17.2404C93.502 16.5945 93.6665 16.0827 93.9955 15.7049C94.3245 15.3272 94.7297 15.0438 95.211 14.855C95.6924 14.6661 96.2042 14.5442 96.7465 14.4894C97.2887 14.4345 97.7671 14.4071 98.1814 14.4071H99.4609V13.8953C99.4609 13.1641 99.2355 12.6402 98.7846 12.3233C98.3337 12.0065 97.7671 11.8481 97.0846 11.8481C96.1098 11.8481 95.2507 12.1649 94.5073 12.7986L93.8676 12.0491C94.2697 11.6592 94.7693 11.3637 95.3664 11.1626C95.9635 10.9615 96.5363 10.861 97.0846 10.861C98.1083 10.861 98.9247 11.1017 99.534 11.583C100.143 12.0644 100.448 12.8412 100.448 13.9136V15.9791ZM98.2545 15.2845C97.7914 15.2845 97.3436 15.315 96.911 15.3759C96.4784 15.4368 96.0884 15.5404 95.7411 15.6866C95.3938 15.8329 95.1166 16.0279 94.9095 16.2716C94.7023 16.5153 94.5987 16.8199 94.5987 17.1855C94.5987 17.4414 94.6566 17.6699 94.7723 17.871C94.8881 18.072 95.0374 18.2366 95.2202 18.3645C95.403 18.4925 95.6071 18.59 95.8325 18.657C96.058 18.724 96.2865 18.7575 96.518 18.7575C97.1029 18.7575 97.5843 18.6722 97.962 18.5016C98.3398 18.331 98.6414 18.1086 98.8668 17.8344C99.0923 17.5602 99.2477 17.2495 99.333 16.9022C99.4183 16.5549 99.4609 16.2046 99.4609 15.8512V15.2845H98.2545ZM103.29 13.4566C103.29 13.2982 103.283 13.1063 103.271 12.8808C103.259 12.6554 103.25 12.4269 103.244 12.1954C103.238 11.9638 103.229 11.7475 103.216 11.5465C103.204 11.3454 103.198 11.19 103.198 11.0804H104.295C104.307 11.3972 104.316 11.7018 104.322 11.9943C104.328 12.2868 104.344 12.4756 104.368 12.5609H104.423C104.642 12.0979 105.008 11.6988 105.52 11.3637C106.031 11.0286 106.628 10.861 107.311 10.861C107.871 10.861 108.383 11.0042 108.846 11.2906C109.309 11.5769 109.644 12.043 109.852 12.6889C110.12 12.0552 110.519 11.5922 111.049 11.2997C111.579 11.0072 112.137 10.861 112.721 10.861C113.379 10.861 113.916 10.9646 114.33 11.1718C114.744 11.3789 115.07 11.65 115.308 11.9852C115.546 12.3203 115.71 12.7072 115.801 13.1459C115.893 13.5846 115.939 14.0354 115.939 14.4985V19.5252H114.842V14.5534C114.842 14.2121 114.811 13.8801 114.75 13.5572C114.689 13.2342 114.583 12.9448 114.431 12.6889C114.278 12.433 114.065 12.2289 113.791 12.0766C113.517 11.9242 113.16 11.8481 112.721 11.8481C112.21 11.8481 111.789 11.9425 111.46 12.1314C111.131 12.3203 110.872 12.5609 110.683 12.8534C110.494 13.1459 110.36 13.4627 110.281 13.8039C110.202 14.1451 110.162 14.4681 110.162 14.7727V19.5252H109.066V14.4437C109.066 13.6638 108.922 13.0362 108.636 12.5609C108.35 12.0857 107.908 11.8481 107.311 11.8481C106.909 11.8481 106.528 11.9181 106.168 12.0583C105.809 12.1984 105.498 12.4117 105.236 12.698C104.974 12.9844 104.767 13.3439 104.615 13.7765C104.462 14.2091 104.386 14.7179 104.386 15.3028V19.5252H103.29V13.4566ZM118.542 11.0804H119.639V12.5609H119.676C119.846 12.2685 120.06 12.0156 120.316 11.8024C120.571 11.5891 120.849 11.4124 121.147 11.2723C121.446 11.1321 121.76 11.0286 122.089 10.9615C122.418 10.8945 122.741 10.861 123.057 10.861C123.703 10.861 124.297 10.9707 124.84 11.19C125.382 11.4094 125.851 11.7171 126.247 12.1131C126.643 12.5092 126.951 12.9783 127.17 13.5206C127.389 14.0629 127.499 14.6569 127.499 15.3028C127.499 15.9486 127.389 16.5427 127.17 17.085C126.951 17.6273 126.643 18.0964 126.247 18.4925C125.851 18.8885 125.382 19.1962 124.84 19.4155C124.297 19.6349 123.703 19.7446 123.057 19.7446C122.741 19.7446 122.418 19.7111 122.089 19.644C121.76 19.577 121.446 19.4734 121.147 19.3333C120.849 19.1932 120.571 19.0165 120.316 18.8032C120.06 18.5899 119.846 18.3371 119.676 18.0446H119.639V23.6928H118.542V11.0804ZM119.53 15.3028C119.53 15.778 119.621 16.2259 119.804 16.6463C119.986 17.0667 120.236 17.4323 120.553 17.743C120.87 18.0538 121.242 18.3005 121.668 18.4833C122.095 18.6661 122.558 18.7575 123.057 18.7575C123.569 18.7575 124.032 18.6661 124.447 18.4833C124.861 18.3005 125.214 18.0538 125.507 17.743C125.799 17.4323 126.022 17.0667 126.174 16.6463C126.326 16.2259 126.402 15.778 126.402 15.3028C126.402 14.8275 126.326 14.3797 126.174 13.9593C126.022 13.5389 125.799 13.1733 125.507 12.8626C125.214 12.5518 124.861 12.305 124.447 12.1223C124.032 11.9395 123.569 11.8481 123.057 11.8481C122.558 11.8481 122.095 11.9395 121.668 12.1223C121.242 12.305 120.87 12.5518 120.553 12.8626C120.236 13.1733 119.986 13.5389 119.804 13.9593C119.621 14.3797 119.53 14.8275 119.53 15.3028ZM136.428 15.9791C136.428 16.3934 136.431 16.7651 136.437 17.0941C136.443 17.4231 136.452 17.7278 136.464 18.0081C136.476 18.2884 136.492 18.5503 136.51 18.7941C136.528 19.0378 136.556 19.2815 136.592 19.5252H135.568C135.495 19.1109 135.459 18.6539 135.459 18.1543H135.422C135.105 18.7027 134.712 19.1048 134.243 19.3607C133.774 19.6166 133.18 19.7446 132.461 19.7446C132.095 19.7446 131.736 19.6989 131.383 19.6075C131.029 19.5161 130.712 19.3699 130.432 19.1688C130.152 18.9677 129.923 18.7088 129.747 18.3919C129.57 18.0751 129.482 17.6912 129.482 17.2404C129.482 16.5945 129.646 16.0827 129.975 15.7049C130.304 15.3272 130.709 15.0438 131.191 14.855C131.672 14.6661 132.184 14.5442 132.726 14.4894C133.268 14.4345 133.747 14.4071 134.161 14.4071H135.44V13.8953C135.44 13.1641 135.215 12.6402 134.764 12.3233C134.313 12.0065 133.747 11.8481 133.064 11.8481C132.089 11.8481 131.23 12.1649 130.487 12.7986L129.847 12.0491C130.249 11.6592 130.749 11.3637 131.346 11.1626C131.943 10.9615 132.516 10.861 133.064 10.861C134.088 10.861 134.904 11.1017 135.514 11.583C136.123 12.0644 136.428 12.8412 136.428 13.9136V15.9791ZM134.234 15.2845C133.771 15.2845 133.323 15.315 132.891 15.3759C132.458 15.4368 132.068 15.5404 131.721 15.6866C131.373 15.8329 131.096 16.0279 130.889 16.2716C130.682 16.5153 130.578 16.8199 130.578 17.1855C130.578 17.4414 130.636 17.6699 130.752 17.871C130.868 18.072 131.017 18.2366 131.2 18.3645C131.383 18.4925 131.587 18.59 131.812 18.657C132.038 18.724 132.266 18.7575 132.498 18.7575C133.083 18.7575 133.564 18.6722 133.942 18.5016C134.319 18.331 134.621 18.1086 134.846 17.8344C135.072 17.5602 135.227 17.2495 135.313 16.9022C135.398 16.5549 135.44 16.2046 135.44 15.8512V15.2845H134.234ZM139.452 11.0804H140.549V19.5252H139.452V11.0804ZM139.178 7.73531C139.178 7.50378 139.257 7.3088 139.415 7.15039C139.574 6.99197 139.769 6.91276 140 6.91276C140.232 6.91276 140.427 6.99197 140.585 7.15039C140.744 7.3088 140.823 7.50378 140.823 7.73531C140.823 7.96685 140.744 8.16182 140.585 8.32024C140.427 8.47865 140.232 8.55786 140 8.55786C139.769 8.55786 139.574 8.47865 139.415 8.32024C139.257 8.16182 139.178 7.96685 139.178 7.73531ZM152.054 18.9769C152.054 20.0249 151.902 20.8718 151.597 21.5176C151.293 22.1635 150.912 22.6631 150.455 23.0165C149.998 23.3699 149.508 23.6075 148.984 23.7294C148.46 23.8512 147.984 23.9122 147.558 23.9122C147.131 23.9122 146.714 23.8726 146.306 23.7934C145.897 23.7141 145.511 23.5984 145.145 23.4461C144.779 23.2937 144.447 23.1079 144.149 22.8885C143.85 22.6692 143.591 22.4194 143.372 22.1391L144.231 21.3348C144.621 21.8832 145.108 22.2853 145.693 22.5412C146.278 22.7972 146.9 22.9251 147.558 22.9251C148.118 22.9251 148.591 22.852 148.974 22.7058C149.358 22.5595 149.675 22.3676 149.925 22.13C150.175 21.8923 150.37 21.6303 150.51 21.344C150.65 21.0576 150.754 20.7712 150.821 20.4849C150.888 20.1985 150.927 19.9274 150.939 19.6715C150.952 19.4155 150.958 19.2084 150.958 19.05V17.8801H150.921C150.604 18.3919 150.175 18.7941 149.632 19.0865C149.09 19.379 148.453 19.5252 147.722 19.5252C147.101 19.5252 146.516 19.4125 145.967 19.1871C145.419 18.9616 144.941 18.6509 144.533 18.2548C144.124 17.8588 143.801 17.3988 143.564 16.8748C143.326 16.3508 143.207 15.7902 143.207 15.1931C143.207 14.596 143.326 14.0355 143.564 13.5115C143.801 12.9875 144.124 12.5305 144.533 12.1405C144.941 11.7506 145.419 11.4398 145.967 11.2083C146.516 10.9768 147.101 10.861 147.722 10.861C148.453 10.861 149.09 11.0072 149.632 11.2997C150.175 11.5922 150.604 11.9943 150.921 12.5061H150.958V11.0804H152.054V18.9769ZM150.994 15.1931C150.994 14.73 150.906 14.2944 150.729 13.8862C150.552 13.4779 150.315 13.1246 150.016 12.826C149.718 12.5274 149.364 12.2898 148.956 12.1131C148.548 11.9364 148.112 11.8481 147.649 11.8481C147.186 11.8481 146.75 11.9364 146.342 12.1131C145.934 12.2898 145.581 12.5274 145.282 12.826C144.983 13.1246 144.746 13.4779 144.569 13.8862C144.392 14.2944 144.304 14.73 144.304 15.1931C144.304 15.6562 144.392 16.0918 144.569 16.5001C144.746 16.9083 144.983 17.2617 145.282 17.5602C145.581 17.8588 145.934 18.0964 146.342 18.2731C146.75 18.4498 147.186 18.5382 147.649 18.5382C148.112 18.5382 148.548 18.4498 148.956 18.2731C149.364 18.0964 149.718 17.8588 150.016 17.5602C150.315 17.2617 150.552 16.9083 150.729 16.5001C150.906 16.0918 150.994 15.6562 150.994 15.1931ZM154.658 13.4566C154.658 13.2982 154.652 13.1063 154.64 12.8808C154.628 12.6554 154.619 12.4269 154.613 12.1954C154.607 11.9638 154.597 11.7475 154.585 11.5465C154.573 11.3454 154.567 11.19 154.567 11.0804H155.664C155.676 11.3972 155.685 11.7018 155.691 11.9943C155.697 12.2868 155.712 12.4756 155.737 12.5609H155.792C156.011 12.0979 156.377 11.6988 156.888 11.3637C157.4 11.0286 157.997 10.861 158.68 10.861C159.338 10.861 159.874 10.9646 160.288 11.1718C160.703 11.3789 161.029 11.65 161.266 11.9852C161.504 12.3203 161.668 12.7072 161.76 13.1459C161.851 13.5846 161.897 14.0354 161.897 14.4985V19.5252H160.8V14.5534C160.8 14.2121 160.77 13.8801 160.709 13.5572C160.648 13.2342 160.541 12.9448 160.389 12.6889C160.236 12.433 160.023 12.2289 159.749 12.0766C159.475 11.9242 159.118 11.8481 158.68 11.8481C158.278 11.8481 157.897 11.9181 157.537 12.0583C157.178 12.1984 156.867 12.4117 156.605 12.698C156.343 12.9844 156.136 13.3439 155.984 13.7765C155.831 14.2091 155.755 14.7179 155.755 15.3028V19.5252H154.658V13.4566Z" fill="white"/>
<path d="M24.4475 21.27V19.1429H27.7544C30.1016 19.1429 32.0083 17.2361 32.0083 14.8889C32.0083 13.0987 30.8577 11.4928 29.1461 10.8969L27.6671 10.3815L27.7209 8.81975C27.7251 8.68673 27.7379 8.55786 27.7544 8.429C27.7129 4.94786 24.8672 2.12717 21.3733 2.12717C19.0969 2.12717 16.9782 3.38576 15.8396 5.40907L15.0984 6.72806L13.609 6.45994C13.3017 6.4061 13.0732 6.38109 12.8655 6.38109C11.0749 6.38109 9.47122 7.53192 8.87309 9.24756L8.34142 10.7743L6.72515 10.6681C6.62129 10.6619 6.51743 10.6496 6.41781 10.635C4.10403 10.6723 2.23044 12.5668 2.23044 14.8889C2.23044 17.2361 4.13909 19.1429 6.48436 19.1429H9.82434V21.27H6.48436C2.96127 21.27 0.103271 18.412 0.103271 14.8889C0.103271 11.3663 2.96127 8.50785 6.48436 8.50785C6.61514 8.50785 6.73786 8.53709 6.8644 8.54557C7.73257 6.05298 10.0778 4.25392 12.8655 4.25392C13.2497 4.25392 13.6213 4.30161 13.9848 4.36625C15.443 1.77405 18.1868 0 21.3733 0C26.0719 0 29.8811 3.80966 29.8811 8.50785C29.8811 8.63671 29.8481 8.7571 29.8438 8.88597C32.3364 9.75414 34.1355 12.1013 34.1355 14.8889C34.1355 18.412 31.2771 21.27 27.7544 21.27H24.4475Z" fill="white"/>
<path d="M24.4475 21.27V19.1429H27.7544C30.1016 19.1429 32.0083 17.2361 32.0083 14.8889C32.0083 13.0987 30.8577 11.4928 29.1461 10.8969L27.6671 10.3815L27.7209 8.81975C27.7251 8.68673 27.7379 8.55786 27.7544 8.429C27.7129 4.94786 24.8672 2.12717 21.3733 2.12717C19.0969 2.12717 16.9782 3.38576 15.8396 5.40907L15.0984 6.72806L13.609 6.45994C13.3017 6.4061 13.0732 6.38109 12.8655 6.38109C11.0749 6.38109 9.47122 7.53192 8.87309 9.24756L8.34142 10.7743L6.72515 10.6681C6.62129 10.6619 6.51743 10.6496 6.41781 10.635C4.10403 10.6723 2.23044 12.5668 2.23044 14.8889C2.23044 17.2361 4.13909 19.1429 6.48436 19.1429H9.82434V21.27H6.48436C2.96127 21.27 0.103271 18.412 0.103271 14.8889C0.103271 11.3663 2.96127 8.50785 6.48436 8.50785C6.61514 8.50785 6.73786 8.53709 6.8644 8.54557C7.73257 6.05298 10.0778 4.25392 12.8655 4.25392C13.2497 4.25392 13.6213 4.30161 13.9848 4.36625C15.443 1.77405 18.1868 0 21.3733 0C26.0719 0 29.8811 3.80966 29.8811 8.50785C29.8811 8.63671 29.8481 8.7571 29.8438 8.88597C32.3364 9.75414 34.1355 12.1013 34.1355 14.8889C34.1355 18.412 31.2771 21.27 27.7544 21.27H24.4475Z" fill="white"/>
</svg>
