<svg width="170" height="64" viewBox="0 0 170 64" fill="none" xmlns="http://www.w3.org/2000/svg">
<path d="M24.7927 36.1402C23.9115 39.9477 20.0958 43.7262 14.2474 43.2124C8.68995 42.7254 4.97536 38.5052 5.00012 32.6485C5.02489 27.0663 8.98093 22.8028 14.5198 22.388C19.227 22.0351 23.8269 25.1471 24.4522 29.229C23.1418 29.229 21.8479 29.2496 20.5581 29.2063C20.3579 29.2001 20.0938 28.9339 19.9844 28.7234C18.806 26.4616 16.8971 25.5578 14.4393 25.8302C12.0104 26.1005 10.4523 27.5657 9.61034 29.7903C8.36389 33.0798 9.40192 36.9863 11.9547 38.825C14.7385 40.833 18.6141 39.894 20.1082 36.813C20.3579 36.2991 20.622 36.1051 21.1896 36.1258C22.3824 36.1712 23.5772 36.1402 24.7927 36.1402Z" fill="white"/>
<path d="M78.5016 42.6366C78.4686 42.1806 78.4376 41.7761 78.4025 41.3076C78.2478 41.3489 78.0909 41.3406 78.0146 41.417C74.4795 44.9459 68.3711 43.0576 67.5621 37.2567C67.0833 33.8186 68.3773 30.6921 70.9651 29.2352C73.3837 27.8711 75.6331 28.2116 78.3262 30.4548V22.0103H82.0593V42.6366H78.5016ZM78.4789 35.808C78.4521 33.3027 76.8651 31.5486 74.7519 31.693C73.0081 31.8127 71.5863 33.346 71.4108 35.2962C71.2148 37.4671 72.2343 39.2295 73.9615 39.7104C76.3554 40.3748 78.5078 38.5176 78.4789 35.808Z" fill="white"/>
<path d="M106.904 30.1659C108.291 29.584 109.485 28.8307 110.773 28.5975C113.303 28.1373 115.742 29.4498 116.935 31.7694C118.312 34.4459 118.303 37.1824 116.894 39.8631C115.4 42.7027 110.639 44.82 107.193 41.2168C107.135 41.675 107.085 42.0526 107.03 42.5004H103.429V22.0041H106.904V30.1659ZM113.959 35.8348C113.966 33.9981 113.155 32.5948 111.788 32.0748C110.303 31.5114 108.761 31.9015 107.783 33.0901C106.646 34.4728 106.555 36.7944 107.577 38.3071C108.497 39.6691 109.991 40.1726 111.545 39.6443C113.06 39.1284 113.953 37.721 113.959 35.8369V35.8348Z" fill="white"/>
<path d="M95.7579 30.6736C95.7951 29.9967 95.8219 29.5282 95.8529 28.9793H99.3962V42.6119H95.8714C95.8364 42.1228 95.8033 41.6254 95.7662 41.1136C94.9345 41.6646 94.1875 42.3415 93.3125 42.7068C90.6256 43.8274 87.4063 42.6428 85.9762 39.9889C84.6451 37.5187 84.5832 34.9268 85.648 32.3286C87.2061 28.5315 92.6996 26.8682 95.7559 30.6715L95.7579 30.6736ZM95.8033 35.8265C95.8116 32.9147 93.6303 31.045 91.191 31.8726C89.7836 32.3513 88.8158 33.7257 88.7374 35.3622C88.6507 37.1824 89.4865 38.8209 90.8155 39.4359C93.2753 40.573 95.7951 38.7487 95.8033 35.8265Z" fill="white"/>
<path d="M49.2244 35.7853C49.1996 40.1334 46.034 43.3527 41.8035 43.33C37.6679 43.3073 34.494 40.0013 34.5146 35.7399C34.5353 31.5032 37.6906 28.4283 42.0243 28.4242C46.1846 28.4201 49.2471 31.5506 49.2244 35.7853ZM38.3881 35.7915C38.3799 38.1193 39.8265 39.7454 41.919 39.7619C43.8836 39.7785 45.3736 38.0759 45.3757 35.8121C45.3777 33.4162 43.9868 31.8189 41.8902 31.8107C39.7997 31.8024 38.3943 33.3997 38.3861 35.7915H38.3881Z" fill="white"/>
<path d="M64.706 42.6408H61.0368C60.9935 42.131 60.9543 41.6667 60.9192 41.254C60.1288 41.7802 59.4148 42.4633 58.5645 42.7831C55.6156 43.8955 52.4313 42.228 52.1321 39.114C51.8122 35.7894 52.0599 32.4112 52.0599 28.9855H55.6878C55.6878 29.9183 55.6878 30.8304 55.6878 31.7446C55.6878 33.4286 55.6651 35.1146 55.6961 36.7985C55.7291 38.6001 56.635 39.6546 58.1064 39.6856C59.6975 39.7207 60.8201 38.6847 60.9006 36.8873C61.0017 34.6915 60.9543 32.4875 60.9708 30.2877C60.9728 29.8811 60.9708 29.4746 60.9708 28.9814H64.7081V42.6366L64.706 42.6408Z" fill="white"/>
<path d="M151.495 28.8968C152.694 28.8968 153.819 28.8534 154.936 28.9318C155.179 28.9484 155.505 29.3673 155.6 29.6624C156.475 32.3699 157.309 35.0919 158.159 37.8077C158.196 37.9294 158.283 38.0367 158.367 38.1894C159.253 35.3952 160.152 32.6733 160.966 29.9245C161.205 29.1176 161.562 28.806 162.4 28.8844C163.207 28.9607 164.026 28.9009 165 28.9009C164.156 31.2081 163.378 33.3605 162.581 35.5087C160.959 39.8858 159.317 44.2525 157.721 48.6398C157.519 49.1929 157.284 49.4034 156.704 49.3745C155.821 49.3311 154.936 49.3621 153.906 49.3621C154.673 47.2695 155.423 45.3235 156.087 43.3486C156.244 42.8843 156.252 42.2714 156.091 41.8132C154.642 37.7024 153.14 33.6122 151.656 29.5138C151.601 29.359 151.574 29.1939 151.497 28.8988L151.495 28.8968Z" fill="white"/>
<path d="M150.356 28.9174V32.0335C149.551 32.0335 148.802 32.0707 148.059 32.0232C147.349 31.9778 147.087 32.2213 147.108 32.9539C147.151 34.4645 147.104 35.9751 147.118 37.4878C147.135 39.2605 147.81 39.83 149.572 39.5886C149.807 39.5556 150.043 39.5164 150.451 39.4503C150.451 40.379 150.488 41.2498 150.424 42.1145C150.41 42.3209 150.074 42.6366 149.851 42.6696C149.005 42.7914 148.138 42.9193 147.292 42.8616C144.718 42.6862 143.327 41.1859 143.274 38.5671C143.232 36.4787 143.266 34.3882 143.266 32.2296C142.69 32.1718 142.197 32.1243 141.66 32.0707V28.9814C142.161 28.9298 142.651 28.8782 143.237 28.8163V24.594H147.129C147.129 25.7414 147.16 26.8929 147.116 28.0445C147.092 28.7234 147.335 28.9669 148.006 28.9277C148.755 28.8844 149.508 28.9174 150.356 28.9174Z" fill="white"/>
<path d="M131.777 42.6428H128.184V22H131.777V42.6428Z" fill="white"/>
<path d="M31.7101 42.6387H28.1276V22H31.7101V42.6387Z" fill="white"/>
<path d="M124.348 42.5025H120.658V28.9958H124.348V42.5025Z" fill="white"/>
<path d="M135.673 28.9401H139.243V42.4757H135.673V28.9401Z" fill="white"/>
<path d="M135.475 22.3715H139.444V25.9498C138.278 25.9498 137.151 25.9767 136.028 25.9251C135.836 25.9168 135.512 25.5805 135.5 25.3803C135.444 24.4248 135.475 23.4652 135.475 22.3735V22.3715Z" fill="white"/>
<path d="M120.629 22.3694H124.596C124.596 23.4136 124.62 24.4331 124.573 25.4484C124.565 25.6197 124.257 25.9127 124.08 25.921C122.955 25.9643 121.826 25.9437 120.631 25.9437V22.3694H120.629Z" fill="white"/>
</svg>
