<svg width="170" height="64" viewBox="0 0 170 64" fill="none" xmlns="http://www.w3.org/2000/svg">
<path d="M100.516 29.5696C100.523 29.552 100.538 29.5312 100.539 29.5097C100.543 29.4355 100.543 29.361 100.543 29.2864C100.543 27.5235 100.543 25.7605 100.543 23.9975C100.543 23.9148 100.54 23.8317 100.546 23.7492C100.583 23.2395 100.919 22.8331 101.369 22.707C102.009 22.5279 102.589 22.8449 102.815 23.3663C102.872 23.4976 102.895 23.6357 102.903 23.7767C102.909 23.8675 102.908 23.9586 102.908 24.0497C102.908 27.4928 102.909 30.936 102.907 34.3791C102.907 35.2355 102.725 36.0527 102.365 36.8314C102.041 37.5314 101.601 38.1466 101.04 38.6734C100.403 39.2706 99.6713 39.7098 98.8408 39.986C98.454 40.1147 98.0593 40.2055 97.6562 40.2502C97.3696 40.282 97.0799 40.2981 96.7894 40.2784C96.5667 40.2632 96.3439 40.26 96.1221 40.2251C95.6127 40.1451 95.1211 40.0088 94.6464 39.8059C94.1558 39.5962 93.7055 39.3222 93.2883 38.9916C92.6501 38.4858 92.1442 37.8692 91.7592 37.154C91.4709 36.6185 91.2683 36.0504 91.1634 35.4511C91.102 35.1009 91.0633 34.7468 91.0578 34.3903C91.0538 34.1247 91.0895 33.862 91.1164 33.5987C91.1537 33.235 91.2411 32.8817 91.3506 32.5344C91.4553 32.2024 91.5951 31.8837 91.7597 31.5772C91.9956 31.138 92.2816 30.7338 92.6202 30.3666C93.2898 29.6405 94.0888 29.1102 95.0206 28.785C95.5625 28.5958 96.1203 28.4846 96.6973 28.468C97.1034 28.4564 97.5076 28.4646 97.909 28.5274C98.755 28.6599 99.5389 28.9548 100.252 29.4327C100.327 29.4832 100.407 29.5276 100.485 29.5738C100.49 29.5771 100.5 29.5719 100.516 29.5694V29.5696ZM93.4361 34.3512C93.398 36.237 94.9714 37.9296 96.9934 37.9238C98.9751 37.9181 100.54 36.3091 100.54 34.363C100.54 32.3757 98.9102 30.8099 96.9798 30.8175C94.9288 30.8256 93.416 32.5155 93.4361 34.351V34.3512Z" fill="white"/>
<path d="M32.4203 24.3356C32.5263 24.4466 32.5606 24.5645 32.5806 24.6994C32.5753 24.7308 32.5703 24.7718 32.5609 24.8119C32.5288 24.9481 32.4507 25.0509 32.3307 25.1219C32.1669 25.2189 32.0032 25.3159 31.8386 25.4116C31.4522 25.6359 31.0655 25.8596 30.6785 26.0829C30.2986 26.3021 29.9179 26.52 29.5381 26.7393C28.7282 27.2071 27.9192 27.6761 27.109 28.1434C26.5928 28.4411 26.0748 28.7355 25.5588 29.0333C25.0571 29.3228 24.5572 29.6152 24.0561 29.9057C23.7697 30.0718 23.4828 30.237 23.1958 30.402C22.9887 30.521 22.7855 30.5117 22.5875 30.3802C22.5243 30.3382 22.4812 30.2781 22.439 30.2159C22.3369 30.0653 22.2373 29.9123 22.1244 29.77C21.4615 28.9349 20.5915 28.4478 19.5488 28.2633C19.2715 28.2143 18.9883 28.2166 18.7066 28.2266C17.5127 28.2687 16.3058 28.9276 15.5941 29.9353C15.2338 30.4454 14.9992 31.0051 14.8888 31.6152C14.8329 31.9239 14.8221 32.2385 14.8406 32.5546C14.8654 32.9809 14.9563 33.3908 15.1122 33.7859C15.366 34.4292 15.7556 34.977 16.2862 35.4228C16.6248 35.7072 16.9963 35.9375 17.4085 36.0984C17.859 36.2742 18.3234 36.3806 18.8106 36.3891C19.2366 36.3966 19.6529 36.3489 20.0609 36.2278C20.6489 36.0533 21.1758 35.7678 21.6352 35.3598C21.9091 35.1168 22.1501 34.8454 22.3478 34.5365C22.3924 34.4668 22.4345 34.395 22.4843 34.3292C22.6039 34.1717 22.7882 34.1047 22.9863 34.2222C23.4206 34.4797 23.8598 34.7287 24.2963 34.9821C24.8761 35.3185 25.4554 35.6559 26.0351 35.9924C26.3785 36.1918 26.7226 36.39 27.066 36.5893C27.1233 36.6225 27.1801 36.6568 27.2348 36.6939C27.416 36.8173 27.4597 36.9926 27.3576 37.1912C27.3236 37.2574 27.2844 37.3209 27.2452 37.3844C26.936 37.8855 26.5883 38.3582 26.1905 38.7927C26.0285 38.9697 25.8672 39.148 25.6944 39.314C25.456 39.5432 25.2039 39.7573 24.9447 39.9634C24.6851 40.1697 24.4168 40.3627 24.1369 40.5394C23.6952 40.8183 23.2315 41.0549 22.7531 41.2651C22.1975 41.5092 21.6222 41.6891 21.0313 41.8206C20.6437 41.907 20.2531 41.9732 19.856 42.0081C19.3931 42.0488 18.9307 42.0579 18.4671 42.0433C17.8698 42.0247 17.2806 41.944 16.6983 41.8092C16.0754 41.665 15.472 41.4619 14.8893 41.2007C14.115 40.8537 13.3966 40.4133 12.7406 39.8738C12.5491 39.7163 12.363 39.552 12.1688 39.3858C12.0979 39.381 12.0237 39.3797 11.9506 39.3702C11.6384 39.3292 11.3906 39.1497 11.3131 38.7983C11.2524 38.523 11.3351 38.2843 11.5437 38.1048C11.7765 37.9043 12.0512 37.8636 12.3329 37.9929C12.6066 38.1184 12.7374 38.3483 12.7519 38.6458C12.7555 38.7195 12.7524 38.7934 12.7524 38.8753C12.8312 38.9751 12.9333 39.0598 13.0333 39.1455C14.015 39.9867 15.1248 40.5963 16.3632 40.9671C16.8154 41.1025 17.2769 41.2002 17.7466 41.2576C18.133 41.3048 18.5204 41.3427 18.9092 41.3436C19.348 41.3446 19.7849 41.3042 20.2198 41.2431C20.5399 41.1981 20.8557 41.1356 21.1692 41.0564C21.6681 40.9302 22.1526 40.764 22.622 40.5535C23.16 40.3124 23.6672 40.0175 24.1508 39.6813C24.4774 39.4543 24.7908 39.2086 25.0755 38.9316C25.5744 38.4465 26.0439 37.934 26.4286 37.3501C26.4558 37.3087 26.4822 37.2666 26.505 37.2228C26.5158 37.2018 26.517 37.1758 26.5212 37.1582C26.5118 37.1067 26.481 37.0788 26.4451 37.0576C26.2886 36.9646 26.132 36.8718 25.9742 36.7812C25.1275 36.295 24.2803 35.8092 23.4332 35.3236C23.3328 35.2659 23.2321 35.2084 23.1305 35.1529C23.0658 35.1175 22.9993 35.0856 22.926 35.0483C22.8919 35.0789 22.8585 35.1025 22.8331 35.1327C22.7265 35.2591 22.6263 35.391 22.5165 35.5146C22.0245 36.0684 21.4329 36.4817 20.7485 36.7647C20.4489 36.8886 20.1405 36.9821 19.8226 37.0418C19.3481 37.131 18.8714 37.1547 18.3896 37.0998C17.9086 37.0449 17.4462 36.9269 17.0024 36.736C16.3938 36.4743 15.8619 36.1018 15.4042 35.6225C15.029 35.2295 14.7274 34.7859 14.5042 34.292C14.2706 33.7752 14.1296 33.2333 14.0906 32.6646C14.0627 32.2575 14.077 31.8538 14.1484 31.4531C14.2523 30.8692 14.4542 30.3216 14.7619 29.8118C15.1317 29.1994 15.6106 28.6917 16.2007 28.2909C16.7696 27.9045 17.3941 27.6503 18.0739 27.5346C18.393 27.4804 18.7138 27.4461 19.0374 27.4582C19.7497 27.485 20.428 27.6483 21.0677 27.9684C21.7069 28.2882 22.2507 28.7241 22.6972 29.2821C22.7381 29.3331 22.7859 29.3786 22.8195 29.415C22.8905 29.438 22.9331 29.4105 22.976 29.3858C23.5142 29.0766 24.0525 28.7677 24.5903 28.4581C25.1426 28.1401 25.6945 27.8217 26.2464 27.503C27.1137 27.0023 27.9805 26.5007 28.8481 26.0006C29.5292 25.6078 30.2111 25.2166 30.8926 24.8247C30.9492 24.7923 31.0161 24.7708 31.0294 24.6924C30.9909 24.6107 30.9076 24.5836 30.8381 24.5423C30.6249 24.4152 30.4087 24.293 30.1934 24.1693C29.3393 23.6789 28.485 23.1891 27.6311 22.6986C26.9279 22.2946 26.2249 21.8904 25.522 21.4858C24.733 21.0316 23.9447 20.5761 23.1554 20.1225C22.3375 19.6525 21.5186 19.1843 20.7006 18.7145C20.4853 18.591 20.2721 18.464 20.0572 18.3397C19.8194 18.202 19.5704 18.0946 19.2971 18.0464C18.8597 17.9693 18.4399 18.0204 18.037 18.2061C17.947 18.2475 17.8595 18.2954 17.7736 18.3449C16.8344 18.8864 15.8963 19.4297 14.9571 19.971C14.3549 20.318 13.7507 20.6616 13.1485 21.0086C12.5677 21.3432 11.9886 21.6806 11.4083 22.0158C10.921 22.2974 10.433 22.5775 9.94563 22.8587C9.48694 23.1233 9.02875 23.3888 8.57005 23.6537C8.16875 23.8855 7.76831 24.1189 7.36526 24.3478C6.89303 24.6161 6.55917 25.0012 6.37062 25.5107C6.31585 25.6586 6.27983 25.8122 6.2689 25.9696C6.25859 26.1182 6.25126 26.2672 6.25114 26.416C6.24902 29.7025 6.24816 32.9891 6.24691 36.2756C6.24691 36.3829 6.24691 36.4902 6.24691 36.5891C6.28157 36.6508 6.30889 36.7015 6.33808 36.7511C6.49545 37.0197 6.48949 37.2855 6.32442 37.5485C6.3069 37.5764 6.28753 37.6032 6.27672 37.6191C5.98819 37.9269 5.54316 37.9515 5.23812 37.6787C5.07652 37.5337 4.99877 37.3475 4.99952 37.1269C5.00026 36.9155 5.10137 36.7473 5.22793 36.5876C5.22942 36.4849 5.23191 36.3859 5.23191 36.287C5.23116 33.0502 5.22967 29.8136 5.23004 26.5768C5.23004 26.3701 5.23538 26.1628 5.25153 25.9569C5.30183 25.3107 5.53609 24.7367 5.94485 24.2339C6.1714 23.9552 6.43645 23.72 6.74547 23.5367C7.00171 23.3848 7.26105 23.2381 7.51903 23.0891C8.06342 22.7743 8.60744 22.4587 9.15233 22.1447C9.85496 21.7398 10.5587 21.3369 11.2612 20.9317C12.3222 20.3198 13.3824 19.7065 14.443 19.0939C15.3745 18.5558 16.3057 18.0174 17.2379 17.4804C17.5255 17.3148 17.8235 17.1727 18.1493 17.0959C18.9202 16.9141 19.6625 16.9855 20.3666 17.3559C20.6594 17.5099 20.9425 17.6822 21.2293 17.8473C21.8459 18.2026 22.4624 18.5579 23.0783 18.9144C23.6728 19.2583 24.2663 19.6041 24.8607 19.9483C25.5339 20.338 26.2075 20.7269 26.8809 21.1163C27.5831 21.5222 28.2851 21.9281 28.9871 22.3341C29.5889 22.6822 30.1908 23.0299 30.7923 23.3785C31.2721 23.6564 31.7515 23.9348 32.2306 24.2141C32.3019 24.2557 32.3697 24.3033 32.4203 24.336V24.3356Z" fill="white"/>
<path d="M155.567 39.2798C155.547 39.325 155.531 39.3457 155.53 39.3673C155.526 39.4581 155.524 39.5492 155.524 39.6402C155.524 41.395 155.523 43.1498 155.524 44.9044C155.524 45.0707 155.516 45.2339 155.466 45.395C155.359 45.7417 155.137 45.9877 154.808 46.1265C154.16 46.4001 153.413 46.0507 153.223 45.371C153.197 45.2768 153.189 45.1754 153.186 45.0771C153.181 44.8454 153.184 44.6135 153.184 44.3819C153.184 41.0876 153.185 37.7933 153.183 34.499C153.183 33.3496 153.503 32.2946 154.119 31.3295C154.487 30.7527 154.949 30.2583 155.491 29.8393C156.128 29.3467 156.836 28.9988 157.616 28.7977C157.961 28.7087 158.312 28.6565 158.668 28.6268C159.243 28.5788 159.81 28.6311 160.37 28.7512C160.949 28.8751 161.495 29.0872 162.009 29.3818C162.523 29.6761 162.984 30.0364 163.389 30.4676C163.776 30.8801 164.098 31.3393 164.356 31.8439C164.477 32.0804 164.582 32.3236 164.668 32.5737C164.757 32.8314 164.838 33.0925 164.882 33.3632C164.948 33.772 165.012 34.1816 164.998 34.5971C164.979 35.1277 164.912 35.6513 164.763 36.1638C164.599 36.7246 164.36 37.2491 164.041 37.737C163.544 38.4971 162.907 39.1127 162.126 39.5787C161.427 39.9957 160.675 40.2527 159.869 40.3658C159.447 40.4251 159.025 40.428 158.605 40.398C158.194 40.3684 157.787 40.2871 157.388 40.1687C156.779 39.988 156.218 39.7122 155.696 39.3547C155.662 39.3317 155.625 39.3133 155.567 39.2799L155.567 39.2798ZM155.524 34.5164C155.511 34.9416 155.594 35.3607 155.742 35.7695C155.897 36.1957 156.136 36.5707 156.438 36.9052C156.769 37.2721 157.162 37.5569 157.614 37.7605C158.026 37.9462 158.458 38.051 158.909 38.0741C159.158 38.0869 159.404 38.0695 159.651 38.0331C160.1 37.9669 160.515 37.8105 160.904 37.5825C161.198 37.41 161.462 37.1966 161.694 36.9457C162.053 36.5575 162.319 36.1154 162.482 35.6107C162.578 35.317 162.628 35.0179 162.647 34.7102C162.665 34.4356 162.65 34.1632 162.6 33.8953C162.461 33.1505 162.119 32.5147 161.582 31.975C160.856 31.2453 159.703 30.8301 158.679 30.9683C158.222 31.0299 157.792 31.1609 157.386 31.3783C156.245 31.9885 155.503 33.2312 155.524 34.5166V34.5164Z" fill="white"/>
<path d="M146.129 39.205C146.045 39.2044 146.009 39.2419 145.971 39.2716C145.668 39.5047 145.34 39.6967 144.992 39.8541C144.629 40.0185 144.247 40.1308 143.856 40.1999C143.382 40.2832 142.904 40.3163 142.423 40.2949C141.95 40.274 141.484 40.2102 141.027 40.0861C140.152 39.8484 139.365 39.4446 138.675 38.8511C138.135 38.3866 137.704 37.84 137.373 37.2105C137.001 36.5043 136.796 35.7534 136.739 34.9584C136.667 33.9569 136.827 32.9959 137.228 32.0765C137.436 31.5964 137.712 31.1561 138.042 30.7485C138.399 30.3078 138.811 29.9275 139.277 29.6076C140.048 29.0795 140.897 28.7538 141.823 28.6242C142.127 28.5816 142.433 28.5612 142.738 28.5623C143.144 28.5637 143.547 28.6115 143.944 28.6979C144.765 28.8765 145.512 29.2175 146.18 29.728C146.772 30.1807 147.255 30.7301 147.629 31.3747C148.02 32.0473 148.276 32.7669 148.387 33.5382C148.443 33.932 148.473 34.3264 148.472 34.7246C148.469 36.1393 148.47 37.5542 148.472 38.969C148.472 39.1696 148.454 39.3657 148.385 39.5547C148.247 39.9351 147.973 40.1645 147.585 40.2609C147.135 40.3725 146.774 40.2079 146.467 39.8896C146.333 39.7506 146.236 39.5879 146.187 39.399C146.171 39.3358 146.149 39.2737 146.129 39.2052L146.129 39.205ZM142.651 37.9812C143.22 37.9956 143.74 37.8719 144.232 37.6366C144.716 37.4048 145.126 37.0773 145.449 36.6416C145.792 36.1801 146.003 35.668 146.102 35.1041C146.143 34.8737 146.139 34.6429 146.142 34.4115C146.146 33.9404 146.038 33.4902 145.86 33.0595C145.666 32.5886 145.386 32.1704 145.012 31.8194C144.587 31.4216 144.101 31.1331 143.536 30.9878C143.074 30.8691 142.608 30.842 142.133 30.9191C141.703 30.989 141.299 31.1284 140.922 31.3428C140.281 31.7078 139.785 32.2174 139.442 32.8726C139.11 33.5059 138.974 34.1798 139.053 34.8895C139.134 35.628 139.443 36.2686 139.943 36.8164C140.372 37.2856 140.901 37.605 141.499 37.801C141.877 37.9247 142.268 38.0007 142.651 37.9812Z" fill="white"/>
<path d="M68.7177 28.4969C71.9928 28.5169 74.6017 31.0865 74.6421 34.3431C74.6837 37.702 71.9618 40.3341 68.7152 40.333C65.579 40.3319 62.8475 37.814 62.7916 34.4521C62.8055 31.1438 65.4253 28.5231 68.7177 28.4969ZM72.2752 34.4249C72.2801 32.507 70.7415 30.885 68.7542 30.8667C66.6919 30.8477 65.1825 32.5435 65.1659 34.3825C65.1489 36.2809 66.7115 37.969 68.7118 37.9725C70.674 37.9758 72.2717 36.3658 72.2752 34.4249Z" fill="white"/>
<path d="M6.80124 39.9002C6.84707 39.9706 6.92756 40.0004 6.99712 40.0416C7.22491 40.1765 7.45568 40.3066 7.68497 40.4391C8.54459 40.9362 9.40372 41.434 10.2636 41.9307C10.9514 42.3281 11.6404 42.7235 12.3281 43.1213C13.0159 43.5191 13.702 43.9195 14.3896 44.3175C15.1988 44.786 16.009 45.2529 16.8184 45.7212C17.1335 45.9035 17.4501 46.0835 17.7616 46.2718C18.035 46.437 18.3285 46.5406 18.6419 46.5941C18.8066 46.6222 18.9712 46.6229 19.1365 46.602C19.4697 46.5601 19.7776 46.4485 20.0683 46.28C20.87 45.815 21.6745 45.3548 22.4775 44.8921C23.0725 44.5492 23.6667 44.2045 24.2621 43.8619C24.8717 43.5112 25.4827 43.1632 26.092 42.8119C26.773 42.4193 27.4525 42.0241 28.1333 41.631C28.4844 41.4283 28.8373 41.2284 29.1888 41.0263C29.648 40.7624 30.1116 40.5059 30.5645 40.2313C31.1768 39.8599 31.521 39.3108 31.604 38.5974C31.6308 38.3664 31.6345 38.1353 31.6335 37.9036C31.6314 37.3737 31.6366 36.8438 31.6283 36.3142C31.5872 33.6986 31.6147 31.0827 31.6016 28.467C31.6012 28.3846 31.5978 28.302 31.5958 28.217C31.5588 28.1609 31.5232 28.1055 31.4864 28.0511C31.2445 27.6945 31.3769 27.1829 31.8165 26.9942C31.9746 26.9263 32.1413 26.9237 32.3028 26.9778C32.7012 27.1112 32.923 27.5443 32.7324 27.9623C32.6982 28.037 32.65 28.1054 32.5989 28.1927C32.5966 28.2678 32.5918 28.3584 32.5917 28.4488C32.5891 30.2203 32.5873 31.9919 32.5848 33.7634C32.5828 35.2203 32.5789 36.6773 32.5789 38.1343C32.5789 38.3835 32.56 38.6322 32.5222 38.876C32.4532 39.3217 32.2902 39.7345 32.0339 40.1119C31.7535 40.5247 31.3982 40.8487 30.967 41.0954C30.4213 41.4076 29.8769 41.7226 29.3329 42.0379C28.6384 42.4403 27.9454 42.8452 27.2507 43.2473C26.5847 43.6327 25.9172 44.0153 25.2509 44.4004C24.6275 44.7606 24.0053 45.1228 23.3818 45.4827C22.5791 45.946 21.7756 46.4079 20.9725 46.8703C20.7646 46.9901 20.5601 47.116 20.348 47.2277C19.9236 47.451 19.47 47.562 18.9893 47.5738C18.3671 47.5891 17.7965 47.427 17.2618 47.1139C16.6548 46.7584 16.0425 46.4121 15.4328 46.0615C14.9593 45.7892 14.4863 45.5164 14.013 45.2439C13.2887 44.8268 12.5646 44.4094 11.84 43.993C11.0723 43.5517 10.3037 43.1122 9.53637 42.6703C8.9269 42.3192 8.31953 41.9645 7.70993 41.6135C7.03587 41.2253 6.36019 40.84 5.686 40.4521C5.57869 40.3904 5.47547 40.3217 5.38021 40.2622C5.34704 40.207 5.31773 40.1665 5.29674 40.1219C5.18371 39.8824 5.24619 39.6376 5.4592 39.4852C5.51298 39.4468 5.57074 39.4139 5.62762 39.38C6.38851 38.9271 7.14952 38.4745 7.91052 38.0219C8.56484 37.6327 9.21928 37.2438 9.87309 36.8539C9.95793 36.8033 10.0399 36.7478 10.1102 36.7027C10.1431 36.6369 10.1249 36.5907 10.1051 36.5446C10.0532 36.4229 9.99978 36.3017 9.94948 36.1793C9.86142 35.9652 9.77187 35.7514 9.68865 35.5353C9.46769 34.9614 9.32932 34.3666 9.23691 33.7592C9.16463 33.2834 9.12948 32.8053 9.12774 32.3249C9.12587 31.7859 9.17084 31.2506 9.25517 30.718C9.36944 29.9951 9.57041 29.296 9.84565 28.6202C10.159 27.8509 10.565 27.132 11.0641 26.4652C11.5479 25.8189 12.1008 25.2399 12.7236 24.7283C13.3661 24.2006 14.0655 23.7599 14.8217 23.4136C15.5925 23.0606 16.3955 22.8079 17.2323 22.663C17.9696 22.5355 18.7119 22.4921 19.4579 22.5318C20.4732 22.5857 21.4566 22.7941 22.4078 23.1578C23.3272 23.5093 24.1745 23.9853 24.9463 24.5956C25.115 24.7288 25.2773 24.8702 25.4428 25.0075C25.4932 25.0494 25.5444 25.0905 25.5966 25.1331C25.6667 25.1331 25.7327 25.1304 25.7984 25.1336C26.2847 25.1573 26.7083 25.734 26.3516 26.2773C26.1207 26.6291 25.607 26.7294 25.2446 26.3958C25.098 26.2607 25.0176 26.0924 25.02 25.8892C25.0207 25.8231 25.02 25.7571 25.02 25.6852C24.9653 25.6051 24.892 25.5388 24.8166 25.4748C24.3484 25.0775 23.8504 24.7227 23.3124 24.4256C22.6941 24.0841 22.047 23.81 21.3655 23.6238C20.9427 23.5083 20.5154 23.4123 20.0772 23.3647C19.6405 23.3172 19.2042 23.2723 18.7651 23.2874C18.4595 23.298 18.1546 23.3302 17.8498 23.3574C17.71 23.3699 17.5706 23.3905 17.4319 23.4132C16.6515 23.5406 15.9024 23.771 15.1833 24.0995C13.8401 24.7129 12.7173 25.6077 11.807 26.7663C11.1358 27.6205 10.6388 28.5694 10.312 29.607C10.1148 30.2332 9.99531 30.8734 9.93296 31.5265C9.89508 31.9233 9.88974 32.3197 9.90328 32.7167C9.90974 32.9066 9.93209 33.0963 9.95308 33.2855C10.008 33.7797 10.095 34.2682 10.2378 34.745C10.2994 34.9508 10.3707 35.1543 10.4482 35.3547C10.6003 35.7483 10.7568 36.1403 10.9446 36.5188C10.9814 36.5927 11.0231 36.6641 11.063 36.7365C11.0789 36.7655 11.099 36.7927 11.1115 36.823C11.1728 36.9713 11.1663 37.1137 11.0671 37.2454C10.9913 37.346 10.8965 37.4241 10.788 37.488C10.4813 37.6683 10.1757 37.8504 9.87011 38.0326C9.28039 38.3845 8.69153 38.7379 8.1013 39.089C7.71018 39.3217 7.31707 39.5513 6.92595 39.7839C6.87862 39.8121 6.81751 39.8289 6.80124 39.9004V39.9002Z" fill="white"/>
<path d="M46.7394 28.5219C48.1976 28.5409 49.4615 28.982 50.561 29.879C51.1111 30.3279 51.5612 30.8619 51.9254 31.4728C52.1874 31.9126 52.1488 32.693 51.5078 33.0802C51.1575 33.2917 50.7839 33.2924 50.4108 33.1366C50.1922 33.0453 50.0155 32.9009 49.8891 32.6954C49.7636 32.4911 49.632 32.2906 49.4711 32.1106C48.8549 31.4216 48.0935 31.0114 47.171 30.9146C46.0359 30.7955 45.0626 31.1563 44.257 31.9498C43.7115 32.4871 43.3792 33.1485 43.2681 33.9104C43.1093 35.0001 43.4119 35.9545 44.1295 36.7841C44.5286 37.2455 45.0207 37.5718 45.5883 37.7826C45.883 37.892 46.1893 37.9581 46.5063 37.9829C46.9412 38.0171 47.3647 37.9724 47.7815 37.8511C48.4079 37.6688 48.9437 37.3392 49.3866 36.8596C49.5273 36.7073 49.6537 36.5438 49.7662 36.3697C49.8529 36.2359 49.9608 36.1237 50.0935 36.035C50.451 35.7958 50.8362 35.7637 51.2318 35.9084C51.7126 36.0843 52.0086 36.5995 51.9452 37.1211C51.922 37.3126 51.861 37.4914 51.7555 37.6543C51.1465 38.5935 50.34 39.307 49.3279 39.7886C48.8996 39.9924 48.4542 40.1436 47.9903 40.2356C47.4114 40.3505 46.828 40.3867 46.2377 40.3302C45.7068 40.2792 45.1943 40.1621 44.6957 39.9744C44.0378 39.7268 43.4465 39.3683 42.9167 38.9093C42.393 38.4554 41.963 37.9219 41.6267 37.3169C41.253 36.6445 41.0179 35.9248 40.9275 35.1584C40.8896 34.8368 40.8709 34.5147 40.8873 34.1923C40.9113 33.7202 40.9794 33.254 41.1118 32.7987C41.3413 32.0095 41.7155 31.2961 42.2383 30.6625C42.7012 30.1016 43.2526 29.6441 43.8852 29.2848C44.6007 28.8783 45.3703 28.6401 46.1871 28.5542C46.3843 28.5335 46.5833 28.5308 46.7395 28.5221L46.7394 28.5219Z" fill="white"/>
<path d="M132.027 36.6594C132.027 37.4457 132.027 38.2322 132.027 39.0186C132.027 39.1344 132.021 39.2491 132.002 39.3645C131.912 39.9157 131.416 40.3077 130.864 40.319C130.27 40.3312 129.753 39.8635 129.702 39.2815C129.69 39.158 129.689 39.0335 129.689 38.9095C129.688 37.4277 129.688 35.9461 129.689 34.4643C129.69 34.198 129.663 33.9356 129.607 33.6757C129.478 33.0631 129.205 32.5243 128.787 32.0562C128.311 31.5224 127.731 31.1603 127.041 30.9729C126.744 30.8922 126.441 30.8414 126.134 30.8447C125.607 30.8504 125.099 30.9577 124.618 31.1808C124.254 31.3497 123.929 31.5762 123.641 31.8534C123.266 32.214 122.982 32.6382 122.795 33.1246C122.633 33.5457 122.548 33.9804 122.549 34.4344C122.554 35.9327 122.551 37.431 122.551 38.9292C122.551 39.0368 122.552 39.145 122.542 39.2517C122.498 39.6899 122.282 40.0257 121.883 40.2055C121.14 40.5396 120.388 40.1127 120.244 39.3954C120.218 39.2644 120.213 39.1329 120.213 39.0003C120.213 37.5517 120.215 36.1031 120.212 34.6545C120.212 34.3478 120.214 34.0414 120.254 33.7376C120.285 33.5 120.326 33.2626 120.379 33.0292C120.489 32.5512 120.662 32.0937 120.893 31.6615C121.187 31.1106 121.558 30.6159 122.008 30.1805C122.507 29.6977 123.071 29.3108 123.705 29.0303C124.511 28.6733 125.356 28.5031 126.24 28.5206C127.047 28.5365 127.817 28.7087 128.55 29.0379C129.315 29.3814 129.976 29.8722 130.536 30.4983C130.851 30.8517 131.115 31.241 131.34 31.658C131.671 32.2697 131.873 32.923 131.97 33.608C132.008 33.8694 132.03 34.1338 132.028 34.3997C132.025 35.153 132.027 35.9063 132.027 36.6595L132.027 36.6594Z" fill="white"/>
<path d="M111.508 40.3453C110.9 40.34 110.304 40.2539 109.726 40.0619C109.301 39.9204 108.897 39.732 108.526 39.4765C108.061 39.1563 107.688 38.7545 107.43 38.2505C107.403 38.1989 107.378 38.1469 107.353 38.0943C107.162 37.6811 107.245 37.3008 107.509 36.954C107.691 36.7168 107.933 36.5649 108.232 36.5084C108.599 36.4391 108.921 36.5287 109.201 36.7704C109.275 36.8346 109.336 36.9158 109.401 36.9903C109.498 37.1024 109.591 37.2191 109.693 37.3277C110.008 37.6657 110.401 37.8663 110.85 37.959C111.11 38.0126 111.373 38.0396 111.639 38.0273C111.89 38.0157 112.131 37.9658 112.36 37.8618C112.749 37.6857 112.99 37.3881 113.084 36.9739C113.148 36.6885 113.078 36.4325 112.891 36.209C112.783 36.0801 112.648 35.9863 112.499 35.9097C112.232 35.7716 111.944 35.6958 111.65 35.6431C111.495 35.6154 111.338 35.603 111.183 35.5809C110.797 35.5261 110.416 35.4565 110.042 35.3459C109.699 35.2447 109.369 35.1144 109.053 34.9495C108.63 34.7289 108.259 34.4396 107.95 34.0764C107.656 33.7303 107.459 33.3307 107.355 32.8893C107.186 32.1782 107.225 31.4774 107.478 30.7901C107.696 30.1997 108.06 29.7154 108.552 29.3292C109.187 28.8302 109.917 28.5669 110.717 28.4774C111.232 28.4197 111.742 28.4477 112.247 28.5516C112.827 28.671 113.369 28.892 113.882 29.1876C114.163 29.3493 114.429 29.5302 114.666 29.7516C114.806 29.8816 114.936 30.0197 115.051 30.1716C115.223 30.3993 115.341 30.6544 115.41 30.9298C115.606 31.7161 115.01 32.3573 114.406 32.4335C114.053 32.4781 113.752 32.3846 113.508 32.1202C113.384 31.9858 113.272 31.8408 113.183 31.6822C112.968 31.2971 112.629 31.0766 112.224 30.9436C111.908 30.8399 111.582 30.7827 111.248 30.7779C110.815 30.7716 110.411 30.8693 110.056 31.1293C109.588 31.4724 109.493 32.0001 109.625 32.429C109.684 32.6181 109.796 32.7662 109.966 32.8704C110.066 32.9312 110.168 32.9822 110.28 33.0164C110.479 33.0772 110.68 33.121 110.885 33.1522C111.228 33.2044 111.572 33.2518 111.916 33.3048C112.334 33.3694 112.741 33.4745 113.135 33.6316C113.941 33.9531 114.555 34.4952 114.996 35.24C115.175 35.5422 115.298 35.8646 115.379 36.2042C115.467 36.5717 115.47 36.941 115.398 37.3121C115.315 37.7375 115.179 38.1429 114.967 38.5226C114.683 39.031 114.305 39.4493 113.809 39.7581C113.375 40.0287 112.902 40.1939 112.397 40.2723C112.103 40.318 111.807 40.3471 111.508 40.3448L111.508 40.3453Z" fill="white"/>
<path d="M77.8272 32.8103C77.8272 31.8418 77.8272 30.8735 77.8272 29.9051C77.8272 29.8224 77.8267 29.7395 77.8286 29.6568C77.8451 28.9297 78.5516 28.3545 79.328 28.5729C79.8381 28.7163 80.1643 29.1323 80.1886 29.6635C80.1928 29.7544 80.1906 29.8456 80.1906 29.9366C80.1906 31.7823 80.1911 33.628 80.19 35.4739C80.19 35.6399 80.1959 35.805 80.2261 35.9683C80.3683 36.7395 80.7784 37.3192 81.4637 37.705C81.8113 37.9007 82.1872 37.9941 82.5804 37.998C82.9477 38.0016 83.3039 37.9227 83.6372 37.76C84.1044 37.5318 84.4677 37.1922 84.72 36.7366C84.9161 36.3824 85.0114 36 85.0274 35.5968C85.031 35.5059 85.0289 35.4147 85.0289 35.3237C85.0289 33.511 85.0289 31.6985 85.0289 29.8858C85.0289 29.8113 85.0271 29.7368 85.0294 29.6624C85.0443 29.1621 85.298 28.8189 85.7448 28.6221C86.2465 28.401 86.8131 28.5566 87.1483 28.9898C87.2892 29.1718 87.3632 29.3798 87.3785 29.6086C87.3828 29.6746 87.3802 29.741 87.3802 29.8072C87.3802 31.744 87.3857 33.6808 87.3781 35.6176C87.3731 36.8931 86.9121 37.9893 86.0307 38.9099C85.6371 39.3211 85.1804 39.6475 84.6676 39.8902C84.1787 40.1215 83.665 40.2698 83.1232 40.3272C82.5567 40.3872 81.9974 40.3575 81.4482 40.2181C80.3139 39.9303 79.4036 39.3055 78.716 38.358C78.2284 37.6862 77.9562 36.9307 77.8545 36.1115C77.8322 35.9314 77.8288 35.7482 77.8283 35.5665C77.8258 34.6478 77.8272 33.7291 77.8272 32.8104V32.8103Z" fill="white"/>
<path d="M56.7827 31.4984C56.7827 29.0067 56.7827 26.5152 56.7827 24.0235C56.7827 23.8744 56.7826 23.7261 56.8181 23.5793C56.93 23.1176 57.3522 22.7521 57.8253 22.714C58.0507 22.6958 58.272 22.7091 58.4792 22.8143C58.844 22.9995 59.0693 23.2892 59.1247 23.6974C59.1458 23.8526 59.1508 24.0109 59.1508 24.1678C59.1524 26.4608 59.1519 28.7537 59.1519 31.0467C59.1519 33.6459 59.1523 36.2452 59.1509 38.8444C59.1509 39.0014 59.1421 39.1587 59.1288 39.3152C59.0868 39.8114 58.6973 40.2301 58.2122 40.3303C57.791 40.4174 57.2422 40.2657 56.9502 39.7866C56.843 39.6106 56.7987 39.4215 56.7844 39.2215C56.7791 39.1474 56.7826 39.0726 56.7826 38.9981C56.7826 36.4982 56.7826 33.9982 56.7826 31.4983L56.7827 31.4984Z" fill="white"/>
<path d="M18.9687 39.7239C17.904 39.7344 16.9531 39.5362 16.0403 39.1603C15.1662 38.8003 14.3921 38.2843 13.7144 37.624C13.2315 37.1535 12.8171 36.6292 12.4767 36.0478C12.1023 35.4084 11.8281 34.7287 11.659 34.0056C11.574 33.6419 11.5095 33.2753 11.4839 32.9042C11.452 32.442 11.4504 31.9791 11.5023 31.5164C11.5449 31.1372 11.6123 30.7637 11.7081 30.3952C11.8565 29.8241 12.0744 29.2807 12.3548 28.7612C12.7518 28.0259 13.2607 27.379 13.8747 26.8137C14.408 26.323 15.0004 25.92 15.6518 25.601C16.1071 25.3779 16.5786 25.2016 17.0697 25.0787C17.6497 24.9336 18.2378 24.8538 18.8376 24.8484C19.437 24.8431 20.0276 24.9042 20.6103 25.0398C21.6236 25.2758 22.5479 25.7051 23.378 26.3334C23.5492 26.4631 23.7133 26.6026 23.8778 26.741C23.9278 26.7831 23.9672 26.8377 24.0133 26.8849C24.1361 27.0109 24.1341 27.315 24.0194 27.4655C23.8656 27.6669 23.5695 27.7327 23.3531 27.5964C23.2836 27.5525 23.2216 27.4963 23.159 27.4422C22.8259 27.1548 22.4688 26.9023 22.085 26.6867C21.4366 26.3225 20.7478 26.0783 20.0137 25.9536C19.5213 25.8699 19.0273 25.8375 18.5302 25.8698C17.5495 25.9335 16.6276 26.1984 15.7698 26.6847C15.1374 27.0432 14.5774 27.4892 14.0972 28.0336C13.2778 28.9625 12.7635 30.0369 12.5609 31.2614C12.4849 31.7212 12.4542 32.1825 12.4814 32.6462C12.5218 33.3361 12.6601 34.007 12.9166 34.6509C13.0392 34.9586 13.1808 35.2574 13.3487 35.5435C13.7077 36.1551 14.1526 36.6957 14.6852 37.1637C15.1356 37.5593 15.633 37.8853 16.1739 38.1419C16.7224 38.402 17.2969 38.5833 17.8984 38.6769C18.267 38.7341 18.6362 38.7742 19.01 38.7669C19.8552 38.7504 20.6689 38.5847 21.4478 38.2544C22.0538 37.9975 22.6084 37.6561 23.1127 37.2331C23.157 37.1958 23.2004 37.1572 23.2461 37.1218C23.3898 37.0105 23.5516 36.9988 23.717 37.0531C23.8601 37.1001 23.9559 37.2012 23.9855 37.3525C24.0245 37.5521 23.9884 37.7278 23.8255 37.8692C23.5249 38.13 23.2094 38.3708 22.8722 38.5816C22.1865 39.0104 21.4524 39.3282 20.6646 39.515C20.0833 39.6529 19.4952 39.7425 18.969 39.7239H18.9687Z" fill="white"/>
</svg>
