<svg width="170" height="64" viewBox="0 0 170 64" fill="none" xmlns="http://www.w3.org/2000/svg">
<g clip-path="url(#clip0_1609_5427)">
<path d="M75.9999 38.1798C75.2516 39.1797 74.2833 39.9941 73.1699 40.5598C71.8832 41.2029 70.4578 41.5189 69.0199 41.4798C67.6966 41.4903 66.3833 41.2494 65.1499 40.7698C64.0252 40.3123 63.0048 39.632 62.1499 38.7698C61.2927 37.9108 60.6131 36.8914 60.1499 35.7698C59.1834 33.2665 59.1834 30.4931 60.1499 27.9898C60.6091 26.866 61.2892 25.8459 62.1499 24.9898C63.0545 24.1251 64.1218 23.4487 65.2899 22.9998C66.5242 22.5243 67.8373 22.2868 69.1599 22.2998C69.7929 22.2865 70.4257 22.3334 71.0499 22.4398C71.6759 22.5601 72.2888 22.7409 72.8799 22.9798C73.4482 23.2087 73.9857 23.5077 74.4799 23.8698C74.9528 24.2111 75.3709 24.6225 75.7199 25.0898L73.7199 26.6398C73.2208 25.9825 72.5685 25.4572 71.8199 25.1098C71.0011 24.6991 70.0959 24.4899 69.1799 24.4998C68.1897 24.4872 67.2081 24.6849 66.2999 25.0798C65.4724 25.4506 64.7328 25.9925 64.1299 26.6698C63.5142 27.3483 63.0354 28.1395 62.7199 28.9998C62.3926 29.9073 62.2267 30.8651 62.2299 31.8298C62.224 32.8134 62.3864 33.7909 62.7099 34.7198C63.004 35.579 63.4664 36.3711 64.0699 37.0498C64.6667 37.7176 65.3999 38.2496 66.2199 38.6098C67.1179 39.0024 68.09 39.1968 69.0699 39.1798C70.0517 39.1951 71.0238 38.9829 71.9099 38.5598C72.7516 38.1615 73.4727 37.5473 73.9999 36.7798L75.9999 38.1798ZM81.8399 40.9998H79.4099V21.5098H81.8399V40.9998ZM98.4499 34.8598C98.4616 35.7556 98.288 36.6442 97.9399 37.4698C97.6214 38.2409 97.1483 38.9385 96.5499 39.5198C95.9464 40.1022 95.2324 40.5578 94.4499 40.8598C92.7722 41.4997 90.9176 41.4997 89.2399 40.8598C88.4585 40.5616 87.747 40.1055 87.1499 39.5198C86.5597 38.9338 86.0907 38.2372 85.7699 37.4698C85.4296 36.6422 85.2595 35.7546 85.2699 34.8598C85.2597 33.978 85.4298 33.1034 85.7699 32.2898C86.0946 31.5393 86.5635 30.8598 87.1499 30.2898C87.7466 29.7012 88.458 29.2417 89.2399 28.9398C90.9176 28.2999 92.7722 28.2999 94.4499 28.9398C95.2283 29.2407 95.9413 29.6889 96.5499 30.2598C97.1423 30.8268 97.615 31.5069 97.9399 32.2598C98.2878 33.0749 98.4615 33.9537 98.4499 34.8398V34.8598ZM95.9199 34.8598C95.9206 34.2922 95.8294 33.7282 95.6499 33.1898C95.4787 32.6738 95.2106 32.1952 94.8599 31.7798C94.5119 31.3523 94.0706 31.0103 93.5699 30.7798C93.0219 30.5373 92.4292 30.412 91.8299 30.412C91.2306 30.412 90.6379 30.5373 90.0899 30.7798C89.5924 31.0155 89.1522 31.3567 88.7999 31.7798C88.4425 32.2035 88.1708 32.6925 87.9999 33.2198C87.6399 34.3074 87.6399 35.4821 87.9999 36.5698C88.1817 37.0956 88.4635 37.5812 88.8299 37.9998C89.1791 38.426 89.6201 38.7678 90.1199 38.9998C90.6692 39.2376 91.2614 39.3602 91.8599 39.3602C92.4584 39.3602 93.0506 39.2376 93.5999 38.9998C94.0981 38.7652 94.5385 38.4238 94.8899 37.9998C95.2377 37.5803 95.5024 37.0984 95.6699 36.5798C95.8756 36.0395 95.9873 35.4678 95.9999 34.8898L95.9199 34.8598ZM102.7 28.7798L105.46 38.1098H105.51L108.45 28.7798H111L114 38.1098L116.76 28.7798H119.31L115.31 40.9998H112.78L109.78 31.8198H109.72L106.72 40.9998H104.15L100.07 28.7898L102.7 28.7798ZM131.51 39.0698C131.049 39.8015 130.39 40.3876 129.61 40.7598C128.828 41.1408 127.97 41.3391 127.1 41.3398C126.221 41.3501 125.35 41.1799 124.54 40.8398C123.808 40.519 123.15 40.049 122.61 39.4598C122.063 38.8596 121.641 38.1557 121.37 37.3898C121.077 36.5788 120.932 35.722 120.94 34.8598C120.922 34.0059 121.058 33.1558 121.34 32.3498C121.622 31.5902 122.047 30.8911 122.59 30.2898C123.153 29.7003 123.835 29.2367 124.59 28.9298C125.38 28.594 126.232 28.4271 127.09 28.4398C128 28.4163 128.901 28.6336 129.7 29.0698C130.397 29.4506 130.998 29.9839 131.46 30.6298V21.5098H133.89V40.9998H131.54V39.0798L131.51 39.0698ZM123.46 34.8598C123.456 35.4236 123.544 35.9843 123.72 36.5198C123.892 37.0619 124.177 37.5612 124.557 37.9844C124.936 38.4076 125.402 38.745 125.923 38.974C126.443 39.203 127.006 39.3184 127.575 39.3125C128.144 39.3066 128.704 39.1795 129.22 38.9398C129.714 38.6987 130.153 38.3582 130.51 37.9398C130.872 37.5277 131.157 37.0534 131.35 36.5398C131.738 35.4533 131.738 34.2663 131.35 33.1798C131.159 32.6621 130.874 32.1841 130.51 31.7698C130.156 31.3481 129.717 31.0071 129.22 30.7698C128.679 30.5257 128.093 30.3995 127.5 30.3995C126.907 30.3995 126.321 30.5257 125.78 30.7698C125.288 31.0049 124.854 31.3465 124.51 31.7698C124.161 32.1829 123.899 32.6626 123.74 33.1798C123.569 33.7132 123.482 34.2697 123.48 34.8298L123.46 34.8598ZM147.1 33.8598C147.09 33.3968 147.009 32.9382 146.86 32.4998C146.721 32.0955 146.5 31.7244 146.21 31.4098C145.905 31.089 145.533 30.8397 145.12 30.6798C144.651 30.4857 144.147 30.3936 143.64 30.4098C143.14 30.3985 142.643 30.4904 142.18 30.6798C141.741 30.8465 141.337 31.0941 140.99 31.4098C140.656 31.7272 140.379 32.0992 140.17 32.5098C139.955 32.9299 139.825 33.389 139.79 33.8598H147.1ZM149.55 34.8598V35.2898C149.56 35.433 149.56 35.5766 149.55 35.7198H139.81C139.83 36.2215 139.949 36.7142 140.16 37.1698C140.369 37.5943 140.654 37.9772 141 38.2998C141.663 38.8859 142.491 39.2517 143.371 39.3466C144.25 39.4416 145.138 39.261 145.91 38.8298C146.476 38.5014 146.961 38.0503 147.33 37.5098L149.05 38.8798C148.439 39.6873 147.634 40.3271 146.71 40.7398C144.951 41.5002 142.965 41.5504 141.17 40.8798C140.42 40.595 139.739 40.1555 139.17 39.5898C138.59 39.0232 138.133 38.3422 137.83 37.5898C137.491 36.7519 137.328 35.8534 137.35 34.9498C137.339 34.0568 137.502 33.1703 137.83 32.3398C138.129 31.5901 138.578 30.9095 139.15 30.3398C139.718 29.759 140.399 29.2997 141.15 28.9898C142.739 28.3744 144.501 28.3744 146.09 28.9898C146.796 29.2669 147.431 29.6973 147.95 30.2498C148.471 30.8303 148.869 31.5108 149.12 32.2498C149.412 33.0991 149.557 33.9918 149.55 34.8898V34.8598ZM152.93 31.4798C152.93 31.1498 152.93 30.7298 152.93 30.2098C152.93 29.6898 152.93 29.2098 152.85 28.8498H155.14C155.185 29.2048 155.212 29.562 155.22 29.9198C155.22 30.3198 155.22 30.6531 155.22 30.9198H155.3C155.63 30.2178 156.149 29.6221 156.8 29.1998C157.464 28.7619 158.244 28.5321 159.04 28.5398C159.36 28.5363 159.679 28.5733 159.99 28.6498L159.89 30.8898C159.527 30.8022 159.154 30.7585 158.78 30.7598C158.256 30.7488 157.736 30.8583 157.26 31.0798C156.844 31.2832 156.478 31.577 156.19 31.9398C155.899 32.3156 155.682 32.7431 155.55 33.1998C155.397 33.6718 155.312 34.1636 155.3 34.6598V40.9998H152.9V31.4198L152.93 31.4798Z" fill="white"/>
<path d="M39.4401 21.4399C39.2443 18.9061 38.0994 16.5394 36.2344 14.8129C34.3694 13.0865 31.9215 12.1274 29.3801 12.1274C26.8387 12.1274 24.3908 13.0865 22.5258 14.8129C20.6608 16.5394 19.5159 18.9061 19.3201 21.4399C16.7862 21.6358 14.4195 22.7806 12.6931 24.6456C10.9666 26.5106 10.0076 28.9585 10.0076 31.4999C10.0076 34.0413 10.9666 36.4892 12.6931 38.3542C14.4195 40.2192 16.7862 41.3641 19.3201 41.5599C19.5159 44.0938 20.6608 46.4604 22.5258 48.1869C24.3908 49.9133 26.8387 50.8724 29.3801 50.8724C31.9215 50.8724 34.3694 49.9133 36.2344 48.1869C38.0994 46.4604 39.2443 44.0938 39.4401 41.5599C41.974 41.3641 44.3406 40.2192 46.0671 38.3542C47.7935 36.4892 48.7526 34.0413 48.7526 31.4999C48.7526 28.9585 47.7935 26.5106 46.0671 24.6456C44.3406 22.7806 41.974 21.6358 39.4401 21.4399ZM29.3801 14.2599C31.363 14.2654 33.2733 15.007 34.7403 16.3411C36.2074 17.6751 37.1268 19.5065 37.3201 21.4799C35.5805 21.6996 33.9281 22.3683 32.5254 23.4203C31.1227 24.4724 30.018 25.8714 29.3201 27.4799C28.6274 25.8831 27.5345 24.492 26.1472 23.441C24.7598 22.3899 23.1248 21.7145 21.4001 21.4799C21.5941 19.4996 22.5192 17.6626 23.9947 16.3276C25.4702 14.9926 27.3903 14.2554 29.3801 14.2599ZM37.2401 23.6299C36.952 25.2479 36.1725 26.7379 35.0078 27.8973C33.843 29.0567 32.3494 29.8293 30.7301 30.1099C31.0182 28.4919 31.7976 27.0019 32.9624 25.8425C34.1272 24.6831 35.6208 23.9105 37.2401 23.6299ZM37.2401 39.3599C35.6208 39.0793 34.1272 38.3067 32.9624 37.1473C31.7976 35.9879 31.0182 34.4979 30.7301 32.8799C32.3494 33.1605 33.843 33.9331 35.0078 35.0925C36.1725 36.2519 36.952 37.7419 37.2401 39.3599ZM28.0001 30.0999C26.3959 29.81 24.9185 29.037 23.7658 27.8842C22.613 26.7315 21.84 25.2541 21.5501 23.6499C23.1543 23.9398 24.6317 24.7128 25.7844 25.8656C26.9372 27.0183 27.7102 28.4957 28.0001 30.0999ZM12.1101 31.4999C12.114 29.509 12.8601 27.5911 14.2027 26.1209C15.5452 24.6508 17.3877 23.7341 19.3701 23.5499C19.5907 25.2891 20.2598 26.9411 21.3117 28.3437C22.3636 29.7462 23.7622 30.8511 25.3701 31.5499C23.7679 32.2402 22.3725 33.335 21.3207 34.7269C20.2689 36.1188 19.5967 37.7601 19.3701 39.4899C17.3808 39.3051 15.5327 38.3827 14.1892 36.9041C12.8457 35.4255 12.104 33.4977 12.1101 31.4999ZM28.0001 32.8899C27.7102 34.4941 26.9372 35.9715 25.7844 37.1242C24.6317 38.277 23.1543 39.05 21.5501 39.3399C21.84 37.7357 22.613 36.2583 23.7658 35.1056C24.9185 33.9528 26.3959 33.1798 28.0001 32.8899ZM29.4301 48.7299C27.4439 48.7267 25.5299 47.9848 24.0605 46.6484C22.591 45.3121 21.6713 43.4769 21.4801 41.4999C23.2048 41.2653 24.8398 40.5899 26.2272 39.5388C27.6145 38.4878 28.7074 37.0967 29.4001 35.4999C30.098 37.1084 31.2027 38.5074 32.6054 39.5595C34.0081 40.6115 35.6605 41.2802 37.4001 41.4999C37.2078 43.4889 36.2781 45.334 34.7938 46.672C33.3096 48.0101 31.3784 48.7442 29.3801 48.7299H29.4301ZM39.4301 39.4399C39.2016 37.7107 38.5287 36.0703 37.4771 34.6787C36.4255 33.2871 35.0312 32.1919 33.4301 31.4999C35.0291 30.8021 36.4213 29.704 37.4723 28.3115C38.5233 26.9189 39.1976 25.279 39.4301 23.5499C41.394 23.7591 43.2111 24.6874 44.5317 26.156C45.8522 27.6247 46.5828 29.5299 46.5828 31.5049C46.5828 33.4799 45.8522 35.3851 44.5317 36.8538C43.2111 38.3224 41.394 39.2507 39.4301 39.4599V39.4399Z" fill="white"/>
</g>
<defs>
<clipPath id="clip0_1609_5427">
<rect width="150" height="39" fill="white" transform="translate(10 12)"/>
</clipPath>
</defs>
</svg>
