<svg width="136" height="24" viewBox="0 0 136 24" fill="none" xmlns="http://www.w3.org/2000/svg">
<path d="M35.4254 24C31.842 23.9594 28.2281 22.2641 25.8629 18.3863C22.1577 12.326 24.5635 4.07302 30.8167 1.14946C34.461 -0.55596 40.9578 -0.809742 45.1402 3.52485C47.7795 6.2657 48.7134 9.57502 48.3581 13.2599C47.7389 19.7364 42.8967 24.0101 35.4254 24ZM29.223 12.0012C29.3245 12.7524 29.3854 13.5137 29.5478 14.2548C30.2787 17.4423 32.7759 19.5131 36.004 19.6552C39.2423 19.7974 41.8613 18.031 42.8764 14.9552C43.5464 12.9351 43.5363 10.8845 42.8155 8.87458C41.8511 6.15404 39.5671 4.48923 36.7248 4.36741C33.6794 4.23544 31.2837 5.62617 30.0554 8.2452C29.5072 9.4329 29.2839 10.6917 29.223 12.0012Z" fill="white"/>
<path d="M56.8446 23.5533C55.1595 23.5533 53.5556 23.5533 51.9111 23.5533C51.9111 15.8485 51.9111 8.16399 51.9111 0.438866C53.5353 0.438866 55.1493 0.438866 56.8243 0.438866C56.8243 3.4538 56.8243 6.43827 56.8243 9.4532C60.4787 9.4532 64.0824 9.4532 67.7572 9.4532C67.7572 6.44842 67.7572 3.45379 67.7572 0.428714C69.4322 0.428714 71.0361 0.428714 72.6603 0.428714C72.6603 8.13353 72.6603 15.8079 72.6603 23.5229C71.0564 23.5229 69.4423 23.5229 67.7775 23.5229C67.7775 20.3151 67.7775 17.1073 67.7775 13.8589C64.1129 13.8589 60.5092 13.8589 56.8446 13.8589C56.8446 17.0768 56.8446 20.2745 56.8446 23.5533Z" fill="white"/>
<path d="M95.2063 0.418563C100.678 0.418563 106.088 0.418563 111.54 0.418563C111.54 1.84989 111.54 3.26092 111.54 4.74301C107.753 4.74301 103.967 4.74301 100.14 4.74301C100.14 6.39767 100.14 7.97111 100.14 9.60547C103.865 9.60547 107.56 9.60547 111.337 9.60547C111.337 10.1232 111.337 10.5901 111.337 11.0571C111.337 11.8489 111.316 12.6509 111.347 13.4427C111.367 13.8792 111.205 13.9705 110.799 13.9705C107.449 13.9604 104.099 13.9604 100.749 13.9604C100.566 13.9604 100.383 13.9604 100.15 13.9604C100.15 15.7165 100.15 17.4321 100.15 19.2187C103.936 19.2187 107.723 19.2187 111.55 19.2187C111.55 20.6907 111.55 22.0814 111.55 23.5229C106.109 23.5229 100.678 23.5229 95.2063 23.5229C95.2063 15.8384 95.2063 8.15384 95.2063 0.418563Z" fill="white"/>
<path d="M22.3708 5.64647C20.9497 6.34691 19.5691 7.02704 18.1784 7.72748C18.1175 7.64627 18.0566 7.58537 18.0159 7.52446C15.6609 3.67712 11.4075 3.73803 8.72753 5.4942C6.89015 6.7022 5.81411 8.44822 5.52987 10.6206C5.17458 13.3005 5.7126 15.7267 7.7124 17.7062C10.169 20.1425 15.3056 20.8632 17.9956 16.5083C18.0362 16.4373 18.087 16.3764 18.1682 16.2647C19.5589 16.9347 20.9294 17.6047 22.3607 18.3051C22.2795 18.4574 22.2287 18.5894 22.1475 18.7112C20.1376 22.0002 17.2444 23.8071 13.3667 23.9695C10.9202 24.071 8.56511 23.6954 6.41304 22.4773C2.21041 20.0917 0.281663 16.4068 0.352722 11.6053C0.444084 4.59074 6.19986 -0.403691 13.5291 0.0328144C17.2648 0.256143 20.1173 1.95141 22.0866 5.13891C22.178 5.28102 22.249 5.43329 22.3708 5.64647Z" fill="white"/>
<path d="M121.884 23.533C121.884 23.3097 121.884 23.1067 121.884 22.9138C121.884 20.1425 121.894 17.361 121.874 14.5897C121.874 14.2954 121.772 13.9502 121.61 13.6964C118.869 9.44305 116.108 5.20997 113.357 0.966732C113.255 0.814463 113.164 0.662194 113.022 0.449017C113.215 0.428714 113.336 0.408412 113.458 0.408412C115.032 0.408412 116.605 0.418563 118.179 0.39826C118.514 0.39826 118.696 0.499773 118.869 0.784009C120.584 3.58576 122.31 6.36721 124.036 9.15881C124.127 9.30093 124.219 9.44305 124.351 9.65623C124.472 9.4735 124.574 9.33139 124.665 9.17912C126.361 6.42812 128.066 3.68727 129.741 0.926127C129.985 0.520076 130.248 0.388109 130.705 0.39826C132.157 0.428714 133.619 0.408412 135.07 0.408412C135.233 0.408412 135.395 0.408412 135.649 0.408412C135.517 0.641891 135.426 0.79416 135.334 0.946429C132.583 5.18966 129.832 9.4329 127.102 13.6964C126.929 13.9604 126.827 14.3157 126.827 14.6304C126.807 17.3915 126.817 20.1425 126.817 22.9036C126.817 23.1067 126.817 23.2995 126.817 23.5432C125.173 23.533 123.579 23.533 121.884 23.533Z" fill="white"/>
<path d="M77.1065 23.533C77.1065 15.8181 77.1065 8.14369 77.1065 0.438866C78.7409 0.438866 80.3549 0.438866 82.0096 0.438866C82.0096 6.6819 82.0096 12.9148 82.0096 19.2289C82.2532 19.2289 82.4563 19.2289 82.6491 19.2289C85.5423 19.2289 88.4354 19.239 91.3285 19.2187C91.7447 19.2187 91.8766 19.3304 91.8665 19.7567C91.836 21.0054 91.8563 22.254 91.8563 23.533C86.9228 23.533 82.0401 23.533 77.1065 23.533Z" fill="white"/>
</svg>
