<svg width="170" height="64" viewBox="0 0 170 64" fill="none" xmlns="http://www.w3.org/2000/svg">
<path d="M26.3523 11.1152C25.879 11.4429 25.6969 12.0983 25.9154 12.6444C26.3159 13.6093 27.6995 13.5911 28.1 12.608C28.3003 12.1165 28.3003 12.0073 27.9726 11.5703C27.6085 11.0788 26.7528 10.8421 26.3523 11.1152Z" fill="white"/>
<path d="M21.1091 13.2816C20.745 13.6275 20.745 13.7732 21.1091 15.0112C21.8374 17.4325 23.2574 19.2712 26.0974 21.4559C26.7893 21.9838 27.7724 23.0216 28.4642 23.9318C29.1196 24.8057 30.1573 26.1347 30.7945 26.9175C31.4134 27.6822 32.0506 28.556 32.1963 28.8473L32.4876 29.3753H21.5461L22.0376 28.5924C22.8023 27.3727 23.4759 26.608 24.459 25.8252C25.2054 25.2426 25.5331 25.097 26.1521 25.097C26.8439 25.097 26.9167 25.0606 26.9713 24.6054C27.0259 24.1685 26.8621 24.0229 25.2418 23.0762C24.2587 22.4936 23.0571 21.6379 22.5474 21.1646C21.182 19.872 20.654 19.6718 18.4329 19.5807C16.5214 19.5079 16.5032 19.4897 16.3211 18.9799C16.048 18.2699 15.0831 17.7238 14.1 17.7238C13.4264 17.7238 13.208 17.833 12.6072 18.4338C12.0064 19.0346 11.8972 19.253 11.8972 19.9266C11.8972 20.9461 12.3887 21.7654 13.2626 22.1659C14.2093 22.621 15.0649 22.4208 15.957 21.5287L16.667 20.8187H18.3965C20.3809 20.8187 20.8725 21.0008 21.7281 22.0931C22.0376 22.4936 22.7476 23.0762 23.2938 23.4039C23.84 23.7316 24.2769 24.0411 24.2587 24.0957C24.2587 24.1503 23.7671 24.569 23.1846 25.0424C21.8374 26.1347 20.5448 27.937 19.9804 29.5209C19.1794 31.8148 19.5071 34.6549 20.8361 36.7485C21.6371 38.0229 23.6215 40.5352 24.6592 41.5911L25.5513 42.5014L24.8595 43.084C22.9479 44.7225 21.6007 46.6887 21.0727 48.6002L20.745 49.82L21.1638 50.1477C21.7281 50.6028 22.0376 50.4208 22.3289 49.4377L22.5656 48.582L27.0623 48.5274C30.5942 48.491 31.5591 48.5274 31.5591 48.7095C31.5591 48.8369 31.6501 49.2556 31.7593 49.6198C31.905 50.1659 32.0324 50.3116 32.3601 50.3116C33.0701 50.3116 33.2522 49.911 33.0337 48.8369C32.7606 47.5989 31.8686 45.9422 30.8673 44.8135C30.4121 44.322 29.2652 43.3571 28.3003 42.6835C26.3705 41.3181 25.1508 40.0983 23.3484 37.7498C22.1104 36.1659 21.7281 35.5469 21.7281 35.2192C21.7281 35.0008 32.1235 34.9279 32.3419 35.1282C32.5968 35.4013 30.9401 37.5131 29.7021 38.478L28.8101 39.188L28.1729 38.8967C27.6085 38.6236 27.5175 38.6054 27.2626 38.8785C26.7164 39.4247 27.117 39.8616 29.156 40.9175C30.2301 41.4637 31.3588 42.1737 31.6501 42.4832C32.6332 43.5209 33.4525 43.8122 35.5279 43.9032C37.3666 43.9761 37.403 43.9943 37.6579 44.4858C38.0949 45.3233 38.7867 45.7602 39.6969 45.7602C40.7529 45.7602 41.4447 45.3779 41.827 44.595C42.446 43.3025 41.9726 41.9006 40.7346 41.2998C39.6969 40.8083 38.8959 41.0268 37.9856 42.0281L37.2392 42.8473H35.983C34.2353 42.8473 33.5799 42.6106 32.6514 41.6458C32.1963 41.1906 31.5045 40.6445 31.104 40.4442C30.7034 40.2439 30.3575 40.0437 30.3211 40.0255C30.2847 39.9891 30.7398 39.5339 31.3042 39.006C33.3796 37.058 34.472 34.7095 34.472 32.2153C34.472 29.885 33.8166 28.3376 31.8322 25.9162C31.2132 25.1698 30.2665 23.9318 29.7021 23.1854C29.156 22.439 28.5734 21.7108 28.4095 21.5833C28.1365 21.3467 28.2093 21.2556 28.9739 20.6548C30.9401 19.0892 32.4876 16.8317 32.9973 14.7563C33.234 13.7914 33.143 13.2634 32.7424 13.0996C32.2509 12.9175 31.9232 13.1906 31.7411 13.9734C31.6319 14.374 31.5045 14.8655 31.4499 15.0294C31.3588 15.3389 30.9947 15.3571 27.0077 15.3571H22.6748L22.4564 14.4468C22.2379 13.5729 21.892 12.9903 21.5461 12.9903C21.4551 12.9903 21.2548 13.1178 21.1091 13.2816ZM30.6488 16.6132C30.6488 17.123 27.5175 20.2725 27.0077 20.2725C26.4798 20.2725 23.3666 17.1412 23.3666 16.6132C23.3666 16.5222 24.9323 16.4494 27.0077 16.4494C29.0649 16.4494 30.6488 16.5222 30.6488 16.6132ZM33.0883 31.5053C33.143 31.9969 33.1248 32.7069 33.0519 33.1074L32.9245 33.8356H21.0909L20.9635 33.1074C20.8907 32.7069 20.8725 31.9969 20.9271 31.5053L21.0363 30.6496H32.9791L33.0883 31.5053ZM28.0454 44.2309C28.9921 44.9045 30.9401 46.98 30.7763 47.1438C30.667 47.253 23.5123 47.3987 23.3666 47.3077C23.0753 47.1256 24.1677 45.7056 25.4967 44.504C26.1703 43.885 26.7528 43.3935 26.8075 43.3935C26.8439 43.3935 27.39 43.7758 28.0454 44.2309Z" fill="white"/>
<path d="M17.905 15.5391C17.6319 16.0489 17.9778 16.6314 18.5422 16.6314C18.7971 16.6314 19.0701 16.4858 19.1794 16.2673C19.4524 15.7576 19.1065 15.175 18.5422 15.175C18.2873 15.175 18.0142 15.3206 17.905 15.5391Z" fill="white"/>
<path d="M34.8361 15.5391C34.563 16.0489 34.9089 16.6314 35.4733 16.6314C35.7281 16.6314 36.0012 16.4858 36.1105 16.2673C36.3835 15.7576 36.0376 15.175 35.4733 15.175C35.2184 15.175 34.9453 15.3206 34.8361 15.5391Z" fill="white"/>
<path d="M38.2223 18.3428C37.8582 18.6705 37.5669 19.0892 37.5669 19.253C37.5669 19.4897 37.3302 19.5443 36.1105 19.5443C33.6163 19.5443 32.9245 19.781 31.5227 21.1464C30.8309 21.8018 30.2847 22.439 30.2847 22.5664C30.2847 22.6939 30.4486 22.8941 30.667 23.0034C31.1222 23.2582 31.6683 22.9487 32.3965 22.0021C33.143 21.0008 33.6709 20.8187 35.6189 20.8187H37.3484L38.0584 21.5287C38.9505 22.4208 39.8062 22.621 40.7529 22.1659C41.7359 21.7108 42.1547 20.9461 42.0636 19.8356C41.9908 19.071 41.8816 18.8343 41.3172 18.3245C40.7711 17.8148 40.5344 17.7238 39.7698 17.7238C38.9869 17.7238 38.7685 17.8148 38.2223 18.3428Z" fill="white"/>
<path d="M18.4511 23.5495C18.0142 23.9864 17.996 24.4234 18.3783 24.9695C18.7242 25.4611 19.5435 25.4975 19.9622 25.0424C20.3991 24.569 20.3445 23.8044 19.8712 23.4767C19.325 23.0944 18.8881 23.1126 18.4511 23.5495Z" fill="white"/>
<path d="M34.1443 23.4767C33.325 24.0411 33.8348 25.3701 34.8907 25.3701C35.4004 25.3701 35.9284 24.7875 35.9284 24.2413C35.9284 23.8226 35.2912 23.1854 34.8725 23.1854C34.6904 23.1854 34.3627 23.3128 34.1443 23.4767Z" fill="white"/>
<path d="M54.3523 24.6236C52.0767 25.4065 50.8387 27.8096 51.1118 30.9774C51.2938 33.1802 52.1131 34.6549 53.6423 35.4923C54.4798 35.9657 54.7711 36.0203 56.1365 36.0021C57.9024 36.0021 58.8127 35.6744 58.7217 35.11C58.6124 34.3272 58.5578 34.2908 57.8842 34.5638C56.5916 35.11 54.7893 34.8005 53.8062 33.872C52.8595 32.9982 52.5864 32.1607 52.5864 30.1945C52.5864 27.9917 53.0051 26.9175 54.1703 26.1347C55.0077 25.5885 56.8101 25.3701 57.7568 25.6978C58.2665 25.8798 58.3029 25.8616 58.485 25.3337C58.5942 25.0242 58.6488 24.7329 58.5942 24.6783C58.4486 24.5326 56.9739 24.2959 56.1365 24.2959C55.6813 24.2959 54.8803 24.4416 54.3523 24.6236Z" fill="white"/>
<path d="M116.451 24.387L116.032 24.478V35.8928L117.234 36.0385C119.856 36.3116 121.622 35.82 122.878 34.4364C123.879 33.3441 124.298 32.0697 124.298 30.1035C124.298 28.2101 123.897 26.8811 122.969 25.8616C121.967 24.7511 121.057 24.4234 118.781 24.3506C117.726 24.3324 116.67 24.3506 116.451 24.387ZM121.257 26.2075C121.64 26.517 122.15 27.136 122.404 27.5729C122.787 28.2647 122.86 28.6106 122.86 30.0125C122.86 31.833 122.623 32.7433 121.895 33.5989C121.185 34.4546 120.165 34.8369 118.636 34.8369H117.307V25.5157L118.927 25.5885C120.42 25.6432 120.602 25.6796 121.257 26.2075Z" fill="white"/>
<path d="M126.774 30.0853V35.9292H128.084L127.939 26.8447L128.412 27.7004C128.667 28.1737 130.087 30.2491 131.562 32.3246C133.492 35.0554 134.347 36.1113 134.602 36.1113C134.948 36.1113 134.966 35.9474 134.966 30.2855V24.4598H133.655L133.728 28.9201C133.765 31.3779 133.765 33.3805 133.746 33.3805C133.746 33.3805 133.51 33.0164 133.237 32.543C132.144 30.6861 127.466 24.3688 127.12 24.3142C126.792 24.2595 126.774 24.4416 126.774 30.0853Z" fill="white"/>
<path d="M138.607 29.9396C137.46 33.0346 136.477 35.6562 136.441 35.7654C136.404 35.8746 136.659 35.9292 137.06 35.8928C137.752 35.8382 137.752 35.82 138.298 34.3272L138.844 32.8343H143.104L143.687 34.3818L144.287 35.9292H144.997C145.689 35.9292 145.689 35.9292 145.507 35.4195C145.398 35.1464 144.469 32.6705 143.432 29.9214C142.394 27.1724 141.502 24.7693 141.429 24.5872C141.356 24.4234 141.156 24.2777 140.992 24.2777C140.774 24.2777 140.173 25.6796 138.607 29.9396ZM141.247 27.318C141.32 27.7004 141.648 28.7381 141.993 29.6483C142.339 30.5404 142.612 31.3415 142.612 31.4143C142.612 31.5053 141.884 31.5599 140.974 31.5599C140.082 31.5599 139.335 31.5417 139.335 31.5053C139.335 31.4871 139.663 30.5222 140.064 29.3753C140.464 28.2283 140.792 27.136 140.792 26.9539C140.792 26.3714 141.12 26.6262 141.247 27.318Z" fill="white"/>
<path d="M159.471 24.569C159.307 24.7147 159.179 25.0059 159.179 25.188C159.179 25.3701 159.307 25.6613 159.471 25.807C160.017 26.3532 161 25.9708 161 25.2062C161 24.8057 160.454 24.2777 160.035 24.2777C159.889 24.2777 159.616 24.4052 159.471 24.569Z" fill="white"/>
<path d="M9.89458 25.188C9.45765 25.6249 9.43944 25.8798 9.82176 26.426C10.4589 27.3545 12.0064 26.4624 11.4967 25.4793C11.0961 24.7329 10.4589 24.6236 9.89458 25.188Z" fill="white"/>
<path d="M42.7737 25.1152C42.4278 25.4429 42.3913 26.2985 42.7008 26.608C43.0285 26.9357 43.8478 26.8629 44.1755 26.4988C44.576 26.0437 44.5578 25.6249 44.1209 25.188C43.6839 24.7511 43.156 24.7147 42.7737 25.1152Z" fill="white"/>
<path d="M15.1924 26.2075C14.9739 26.4806 14.8101 26.8265 14.8101 27.0086C14.8101 27.6275 15.5201 28.2829 16.1755 28.2829C16.9583 28.2829 17.6137 27.5365 17.4498 26.8265C17.195 25.7342 15.8478 25.3701 15.1924 26.2075Z" fill="white"/>
<path d="M37.0025 26.0619C36.7294 26.2985 36.602 26.608 36.602 27.0086C36.602 28.1373 38.0402 28.7199 38.8413 27.9188C39.9882 26.7719 38.2769 25.0424 37.0025 26.0619Z" fill="white"/>
<path d="M61.8712 27.8278C60.433 28.3376 59.7412 29.6483 59.7412 31.833C59.7412 33.3623 60.0689 34.4364 60.7607 35.1282C62.1989 36.5664 64.9843 36.3298 66.0949 34.6731C67.2236 33.0164 66.9687 29.5755 65.6397 28.4104C64.7477 27.6093 63.1638 27.3727 61.8712 27.8278ZM64.42 29.0476C65.13 29.5937 65.4213 30.4494 65.4213 31.9422C65.4213 34.0359 64.7112 35.019 63.1638 35.019C62.3445 35.019 61.4889 34.3089 61.234 33.4169C60.7607 31.6874 61.1976 29.4299 62.1261 28.9201C62.8361 28.5378 63.8374 28.5924 64.42 29.0476Z" fill="white"/>
<path d="M71.5383 27.7368C71.247 27.8278 70.8101 28.0827 70.5734 28.3193C70.2093 28.6653 70.1183 28.6835 69.9726 28.465C69.8816 28.3193 69.7906 28.0827 69.7906 27.9552C69.7906 27.846 69.5903 27.7368 69.3354 27.7368H68.8803V35.9292H70.1547V29.885L70.7737 29.266C71.5929 28.4468 72.6488 28.3922 73.2314 29.1204C73.5773 29.5755 73.6137 29.8486 73.6137 32.7615V35.9292H74.8881V33.1984C74.8881 30.2309 75.052 29.4845 75.8166 28.9383C76.2899 28.6106 77.2912 28.556 77.801 28.8291C78.3472 29.1204 78.5292 30.1763 78.5292 33.1438V35.9292H79.8036V33.0528C79.7854 28.7745 79.4759 27.8642 77.8556 27.6275C76.8361 27.4819 75.8348 27.755 75.1612 28.3922C74.7607 28.7563 74.615 28.8109 74.5058 28.6106C74.4148 28.4832 74.3419 28.3011 74.3419 28.2283C74.3419 27.9916 73.1404 27.5547 72.576 27.5729C72.3029 27.5729 71.8296 27.664 71.5383 27.7368Z" fill="white"/>
<path d="M84.537 27.846C84.1911 27.9916 83.7724 28.2465 83.5903 28.4104C83.299 28.6653 83.2626 28.647 83.1534 28.2101C83.0806 27.8642 82.9167 27.7368 82.6072 27.7368H82.1703V39.2062H83.4447V35.8018L84.2639 35.9839C84.8465 36.1113 85.3563 36.1113 86.0663 35.9474C87.8868 35.5469 88.9063 33.9812 88.9063 31.5781C88.9063 29.3024 88.2509 28.1191 86.8309 27.755C85.775 27.5001 85.3198 27.5183 84.537 27.846ZM86.4122 28.8473C87.0494 29.1386 87.4681 29.9943 87.5773 31.1594C87.7048 32.543 87.3771 33.6718 86.6306 34.4182C86.1209 34.9279 85.9024 35.019 85.1924 35.019C84.7373 35.019 84.1547 34.9279 83.8998 34.8005C83.4447 34.6002 83.4447 34.582 83.4447 32.4338C83.4447 30.1217 83.6267 29.4663 84.3914 28.9383C84.8647 28.5924 85.7932 28.556 86.4122 28.8473Z" fill="white"/>
<path d="M92.2015 27.846C90.9271 28.1919 90.9089 28.1919 91.1456 28.8109C91.3459 29.3389 91.3458 29.3389 91.892 29.0658C92.2015 28.9019 92.9479 28.7381 93.5487 28.6835C94.6046 28.6106 94.6957 28.6288 95.0598 29.1022C95.3328 29.4481 95.4603 29.8668 95.4603 30.3766V31.1412L94.0221 31.2504C91.5279 31.4507 90.5448 32.1425 90.5448 33.7264C90.5448 35.0554 91.2002 35.8382 92.4928 36.0385C93.3849 36.1659 94.3498 35.8928 95.078 35.2738L95.6059 34.8369L95.7334 35.3831C95.8244 35.7836 95.9518 35.9292 96.2613 35.9292C96.6436 35.9292 96.6619 35.911 96.6436 32.3974C96.6436 29.1204 96.6254 28.8291 96.2795 28.465C95.4785 27.5547 94.0585 27.3363 92.2015 27.846ZM95.4603 33.0164C95.4603 34.0541 94.7321 34.8369 93.6397 34.9643C92.9843 35.0372 92.7113 34.9825 92.3289 34.6548C91.8192 34.2725 91.6553 33.5443 91.9648 33.071C92.2561 32.6158 93.221 32.2881 94.3315 32.2881H95.4603V33.0164Z" fill="white"/>
<path d="M101.923 27.7732C101.632 27.8824 101.195 28.1373 100.958 28.3558C100.594 28.6653 100.521 28.6835 100.376 28.465C100.285 28.3193 100.194 28.0827 100.194 27.9552C100.194 27.846 99.9934 27.7368 99.7386 27.7368H99.2834V35.9292H100.558V33.1074C100.558 29.9578 100.703 29.4117 101.65 28.9201C102.324 28.5742 103.289 28.5742 103.78 28.9201C104.399 29.3389 104.563 30.3037 104.563 33.2348V35.9292H105.874L105.801 32.5976C105.746 29.6483 105.71 29.2114 105.382 28.647C104.818 27.6822 103.289 27.2998 101.923 27.7732Z" fill="white"/>
<path d="M152.28 27.846C151.005 28.1919 150.987 28.1919 151.224 28.8109C151.424 29.3389 151.424 29.3389 151.97 29.0658C152.28 28.9019 153.026 28.7381 153.627 28.6835C154.683 28.6106 154.774 28.6288 155.138 29.1022C155.411 29.4481 155.538 29.8668 155.538 30.3766V31.1412L154.1 31.2504C151.606 31.4507 150.623 32.1425 150.623 33.7264C150.623 35.0554 151.278 35.8382 152.571 36.0385C153.463 36.1659 154.428 35.8928 155.156 35.2738L155.684 34.8369L155.811 35.3831C155.902 35.7836 156.03 35.9292 156.339 35.9292C156.722 35.9292 156.74 35.911 156.722 32.3974C156.722 29.1204 156.703 28.8291 156.358 28.465C155.557 27.5547 154.137 27.3363 152.28 27.846ZM155.538 33.0164C155.538 34.0541 154.81 34.8369 153.718 34.9643C153.062 35.0372 152.789 34.9825 152.407 34.6548C151.897 34.2725 151.733 33.5443 152.043 33.071C152.334 32.6158 153.299 32.2881 154.41 32.2881H155.538V33.0164Z" fill="white"/>
<path d="M108.787 31.833C110.425 35.8382 110.443 35.9656 110.225 36.621C109.915 37.4949 109.333 38.1139 108.823 38.1139C108.368 38.1139 108.077 38.8239 108.441 39.0606C108.805 39.2972 109.551 39.2244 109.988 38.9331C110.698 38.4234 111.244 37.1854 112.828 32.4884C113.684 29.9578 114.394 27.8278 114.394 27.7914C114.394 27.755 114.103 27.7368 113.72 27.7732L113.065 27.8278L112.173 30.9227C111.663 32.6158 111.226 34.1451 111.172 34.2907C111.117 34.4364 110.807 33.781 110.48 32.8343C110.152 31.8876 109.606 30.3584 109.278 29.4663L108.659 27.8278L107.13 27.7186L108.787 31.833Z" fill="white"/>
<path d="M159.361 35.9292H160.818V27.7368H159.361V35.9292Z" fill="white"/>
<path d="M10.3315 29.6301C7.89198 30.7225 9.07533 34.5092 11.6969 34.0177C12.1156 33.9448 12.589 33.6353 13.0259 33.1802C13.6631 32.5066 13.7723 32.4702 14.7736 32.4702C16.0298 32.4702 16.6488 32.1243 16.3393 31.6145C16.1755 31.3597 15.866 31.2686 14.8829 31.2322C13.7177 31.1776 13.6085 31.1412 13.3172 30.6497C12.7346 29.6119 11.3874 29.1568 10.3315 29.6301Z" fill="white"/>
<path d="M41.7542 29.703C41.4082 29.8668 40.9531 30.2673 40.7529 30.595C40.4069 31.1412 40.3159 31.1776 39.1326 31.2322C38.1677 31.2686 37.84 31.3597 37.6761 31.6145C37.3666 32.1425 37.9856 32.4702 39.2782 32.4702C40.3341 32.4702 40.4252 32.5066 40.8985 33.1074C42.3003 34.8733 45.0311 33.9813 45.0311 31.7602C45.0311 30.7225 44.5578 30.0125 43.6475 29.6301C42.8465 29.3024 42.5188 29.3024 41.7542 29.703Z" fill="white"/>
<path d="M147.382 34.5092C147.255 34.6367 147.164 34.9461 147.164 35.201C147.164 35.7836 147.473 36.1113 147.983 36.1113C148.438 36.1113 148.984 35.5833 148.984 35.1646C148.984 34.5092 147.856 34.0359 147.382 34.5092Z" fill="white"/>
<path d="M15.1742 35.7472C14.6826 36.2387 14.719 36.9487 15.2652 37.4767C16.4121 38.6236 18.1781 37.149 17.1768 35.8746C16.6852 35.2556 15.7203 35.201 15.1742 35.7472Z" fill="white"/>
<path d="M36.8569 35.8564C36.4017 36.439 36.4017 36.53 36.7476 37.1854C37.1846 38.0593 38.0584 38.1867 38.7503 37.4767C39.0051 37.24 39.2054 36.8395 39.2054 36.6028C39.2054 35.4559 37.5851 34.9461 36.8569 35.8564Z" fill="white"/>
<path d="M9.76714 37.1308C9.49406 37.5677 9.49406 37.6588 9.73073 38.0957C9.91279 38.4234 10.1677 38.5872 10.55 38.6236C11.2054 38.6965 11.5877 38.3324 11.5877 37.6223C11.5877 36.6575 10.3133 36.3116 9.76714 37.1308Z" fill="white"/>
<path d="M42.7919 36.8941C42.5552 37.058 42.4642 37.3129 42.5188 37.7498C42.5552 38.2595 42.6826 38.4234 43.0832 38.5508C44.0116 38.8785 44.7581 38.0775 44.3029 37.24C43.9752 36.6757 43.3016 36.5118 42.7919 36.8941Z" fill="white"/>
<path d="M18.3783 38.6965C18.2145 38.9149 18.087 39.2426 18.087 39.4065C18.087 39.7524 18.9063 40.4806 19.2886 40.4806C19.6891 40.4806 20.2717 39.7888 20.2717 39.3337C20.2717 38.3688 18.9063 37.9318 18.3783 38.6965Z" fill="white"/>
<path d="M34.0532 38.6237C33.6345 39.0788 33.6709 39.6796 34.1079 40.1165C34.5266 40.5352 34.654 40.5534 35.2912 40.2621C35.892 39.9891 36.0558 39.3337 35.6735 38.7511C35.3094 38.2049 34.4902 38.1321 34.0532 38.6237Z" fill="white"/>
<path d="M21.4551 41.5911C20.4902 42.5924 19.8348 42.8473 18.1781 42.8473H16.8127L16.0298 42.0463C15.0831 41.0632 14.2639 40.8447 13.2626 41.3181C11.8244 41.9917 11.442 43.7758 12.4616 44.9409C13.1169 45.6692 13.8998 45.9422 14.8101 45.742C15.4655 45.5963 16.4485 44.6861 16.4485 44.2127C16.4485 43.9943 16.758 43.9396 18.0142 43.9396C20.2353 43.9396 21.0181 43.6848 22.2015 42.6106C23.312 41.6093 23.4577 40.9722 22.6384 40.8811C22.2925 40.8447 21.983 41.0268 21.4551 41.5911Z" fill="white"/>
<path d="M18.0142 47.1984C17.7593 47.4715 17.7411 47.6354 17.905 47.9267C18.1599 48.4182 18.9245 48.4364 19.1794 47.9631C19.416 47.5079 19.416 47.4715 19.0701 47.1438C18.6878 46.7615 18.3965 46.7797 18.0142 47.1984Z" fill="white"/>
<path d="M34.9453 47.1438C34.5994 47.4715 34.5994 47.5079 34.8361 47.963C34.9453 48.1633 35.2184 48.309 35.4733 48.309C35.8374 48.309 36.2925 47.872 36.2925 47.5079C36.2925 47.3259 35.7099 46.8525 35.4733 46.8525C35.3458 46.8525 35.0909 46.98 34.9453 47.1438Z" fill="white"/>
<path d="M26.1339 50.7667C25.6969 51.3311 25.8062 52.0593 26.3887 52.4416C26.9349 52.8057 27.6449 52.6236 28.0272 52.0411C28.8101 50.8577 27.0259 49.638 26.1339 50.7667Z" fill="white"/>
</svg>
