<svg width="166" height="16" viewBox="0 0 166 16" fill="none" xmlns="http://www.w3.org/2000/svg">
<path d="M8.90985 13.1425C6.03714 13.1425 3.71044 10.8433 3.71044 8.00451C3.71044 5.1657 6.03714 2.86651 8.90985 2.86651H11.1562V0H8.90985C4.43621 0 0.814209 3.5837 0.814209 8C0.814209 12.4163 4.44076 16 8.90985 16C13.379 16 17.0056 12.4163 17.0056 8H14.1048C14.1093 10.8433 11.7826 13.1425 8.90985 13.1425Z" fill="white"/>
<path d="M12.6259 0.00449648V2.86651H14.1093V6.52439H17.0109V0.00449648H12.6259Z" fill="white"/>
<path d="M30.1907 15.2626C32.8025 15.2626 35.1102 13.9421 36.285 11.9014L34.2601 10.7608C33.5313 12.1413 31.9721 13.0218 30.1907 13.0218C27.1337 13.0218 25.1088 10.8815 25.1088 8C25.1088 5.11849 27.1337 2.97817 30.1907 2.97817C31.9721 2.97817 33.5108 3.85873 34.2601 5.23915L36.285 4.07906C35.0905 2.0384 32.7828 0.738172 30.1907 0.738172C25.8785 0.738172 22.7806 3.93892 22.7806 8.00072C22.7806 12.0626 25.8777 15.2626 30.1907 15.2626ZM43.24 15.2626C46.2159 15.2626 48.585 12.9618 48.585 10.0009C48.585 7.03999 46.2159 4.73929 43.24 4.73929C40.2641 4.73929 37.895 7.01976 37.895 10.0009C37.895 12.9821 40.2839 15.2626 43.24 15.2626ZM43.24 13.162C41.4586 13.162 40.0814 11.8213 40.0814 10.0009C40.0814 8.18059 41.4579 6.83989 43.24 6.83989C45.0222 6.83989 46.3979 8.18059 46.3979 10.0009C46.3979 11.8213 45.0214 13.162 43.24 13.162ZM56.2916 4.73929C54.9152 4.73929 53.8216 5.23915 53.1535 6.28009V4.99934H50.9671V15.0025H53.1535V9.64044C53.1535 7.59983 54.2872 6.75971 55.7244 6.75971C57.1615 6.75971 57.9919 7.56005 57.9919 9.08063V15.0025H60.1784V8.86033C60.1784 6.25985 58.5591 4.73929 56.2916 4.73929ZM70.9556 0.99822V6.41948C70.1866 5.37929 68.9914 4.73929 67.4125 4.73929C64.6588 4.73929 62.3715 7.01976 62.3715 10.0009C62.3715 12.9821 64.6596 15.2626 67.4125 15.2626C68.9914 15.2626 70.1859 14.6226 70.9556 13.5621V15.0025H73.142V0.99822H70.9556ZM67.7568 13.2024C65.9344 13.2024 64.558 11.8617 64.558 10.0017C64.558 8.1416 65.9344 6.80093 67.7568 6.80093C69.5791 6.80093 70.9556 8.1416 70.9556 10.0017C70.9556 11.8617 69.5791 13.2024 67.7568 13.2024ZM82.9183 5.00009V10.3621C82.9183 12.4028 81.7844 13.2429 80.3473 13.2429C78.9101 13.2429 78.0795 12.4425 78.0795 10.9219V4.99934H75.8932V11.1415C75.8932 13.742 77.5129 15.2626 79.7807 15.2626C81.1575 15.2626 82.2506 14.7627 82.919 13.7218V15.0025H85.1053V4.99934L82.9183 5.00009ZM92.8446 15.2633C94.8286 15.2633 96.5494 14.2433 97.4004 12.6628L95.5174 11.6024C95.0308 12.5227 94.0388 13.1432 92.8242 13.1432C91.043 13.1432 89.6859 11.8025 89.6859 10.0024C89.6859 8.20233 91.043 6.86163 92.8242 6.86163C94.0388 6.86163 95.0308 7.46194 95.4759 8.40242L97.3589 7.32179C96.5494 5.76149 94.8286 4.74079 92.8446 4.74079C89.7877 4.74079 87.4996 7.02126 87.4996 10.0024C87.4996 12.9836 89.7877 15.2633 92.8446 15.2633ZM105.034 7.08046V5.00009H102.524V2.19803L100.337 2.83803V4.99859H98.4746V7.07896H100.337V11.8805C100.337 14.4809 101.673 15.4019 105.035 15.0018V13.0608C103.374 13.141 102.524 13.1604 102.524 11.8805V7.07971L105.034 7.08046ZM111.785 15.2633C114.761 15.2633 117.13 12.9626 117.13 10.0017C117.13 7.04074 114.762 4.74004 111.785 4.74004C108.808 4.74004 106.44 7.02051 106.44 10.0017C106.44 12.9828 108.829 15.2633 111.785 15.2633ZM111.785 13.1627C110.004 13.1627 108.626 11.822 108.626 10.0017C108.626 8.18132 110.003 6.84064 111.785 6.84064C113.567 6.84064 114.944 8.18132 114.944 10.0017C114.944 11.822 113.567 13.1627 111.785 13.1627ZM121.698 5.00009H119.512V15.0025H121.698V9.96118C121.698 7.72042 123.379 7.06022 124.816 7.16064V4.82023C123.54 4.82023 122.306 5.32009 121.698 6.68102V5.00009ZM133.619 15.2633C137.729 15.2633 140.969 12.0626 140.969 8.00072C140.969 3.93892 137.729 0.738172 133.619 0.738172C129.509 0.738172 126.27 3.93892 126.27 8.00072C126.27 12.0626 129.53 15.2633 133.619 15.2633ZM133.619 13.0226C130.785 13.0226 128.598 10.8822 128.598 8.00072C128.598 5.11924 130.784 2.97892 133.619 2.97892C136.455 2.97892 138.641 5.11924 138.641 8.00072C138.641 10.8822 136.455 13.0226 133.619 13.0226ZM148.68 4.74004C147.304 4.74004 146.21 5.23989 145.541 6.28084V5.00009H143.355V15.0025H145.541V9.64044C145.541 7.59983 146.675 6.75971 148.113 6.75971C149.55 6.75971 150.38 7.56005 150.38 9.08063V15.0025H152.567V8.86033C152.567 6.25985 150.948 4.74004 148.68 4.74004ZM165.105 10.9219C165.145 10.6416 165.186 10.3217 165.186 10.0219C165.186 7.14116 163.121 4.74004 160.104 4.74004C156.926 4.74004 154.759 7.04074 154.759 10.0017C154.759 12.9626 156.925 15.2633 160.266 15.2633C162.25 15.2633 163.768 14.4427 164.699 13.0825L162.897 12.0423C162.411 12.7422 161.5 13.2826 160.285 13.2826C158.666 13.2826 157.39 12.4822 157.047 10.9219H165.105ZM157.026 9.16158C157.33 7.66122 158.444 6.70051 160.084 6.70051C161.4 6.70051 162.675 7.44092 162.979 9.16158H157.026Z" fill="white"/>
</svg>
