<svg width="170" height="64" viewBox="0 0 170 64" fill="none" xmlns="http://www.w3.org/2000/svg">
<path d="M140.668 14.7204C139.929 14.5705 139.214 15.048 139.066 15.7841C139.064 15.7923 139.063 15.7998 139.061 15.8079C138.867 16.7685 138.678 17.7369 138.493 18.7027C137.632 22.8772 136.172 27.9474 132.204 28.29C131.186 28.3773 130.799 28.0533 130.574 27.7609C129.217 25.9987 130.349 20.3493 131.586 16.9005C131.839 16.1939 131.472 15.4155 130.765 15.1614C130.153 14.9414 129.485 15.1886 129.153 15.7199L128.77 16.0516C127.158 17.4447 125.045 19.2716 122.879 20.5467C122.609 20.0009 122.283 19.4991 121.902 19.0581C120.44 17.3683 118.283 16.6293 115.983 17.0297C114.298 17.3225 112.963 18.5992 112.735 20.1334C112.636 20.8011 112.709 21.3447 112.884 21.7984C112.661 21.959 112.459 22.1357 112.272 22.3227C112.143 22.3689 112.02 22.4356 111.906 22.5234C110.429 23.6625 109.246 24.3264 108.273 23.86C107.553 23.5143 107.438 22.8945 107.416 20.9436C107.414 20.7649 107.413 20.5842 107.409 20.4035C107.394 19.6623 106.788 19.0709 106.05 19.0709C106.041 19.0709 106.032 19.0709 106.023 19.0714C106.013 19.0714 106.003 19.0725 105.994 19.0732C105.378 19.0824 104.825 19.5106 104.687 20.1386C104.195 22.3697 103.664 24.636 103.151 26.827C103.099 27.0492 103.047 27.2749 102.994 27.4978C102.96 27.5748 102.931 27.656 102.911 27.7409C102.613 28.9946 101.275 31.0299 99.9893 32.1857C98.2078 33.7864 95.787 34.6082 93.7857 34.3604C95.0815 33.166 96.2152 31.8106 97.0131 30.4384C97.5312 29.549 99.143 26.4545 98.1401 23.9873C97.5554 22.5498 96.3939 21.6036 94.8684 21.3217C93.0105 20.979 90.8503 21.7279 89.4891 23.1851C87.6422 25.164 86.677 28.4343 87.195 30.9616C87.4902 32.402 88.0602 33.6335 88.867 34.6092C88.3988 34.8674 87.9317 35.0884 87.4755 35.2621C86.8084 35.5156 85.1289 35.9832 83.9423 34.8327C82.6061 33.5352 83.02 30.8474 83.1802 30.0459L83.182 30.0391C84.0154 25.8976 85.1 21.7407 86.2343 17.6484C91.1612 16.9494 94.2357 16.6779 94.2989 16.6727C95.0472 16.6084 95.6016 15.9498 95.5375 15.2015C95.4733 14.4531 94.8174 13.8998 94.0663 13.9629C94.0067 13.9684 91.3561 14.202 87.0336 14.7923C87.2158 14.1471 87.3981 13.5035 87.5799 12.8634L87.9011 11.7308C88.1057 11.0086 87.6863 10.2568 86.9635 10.0519C86.24 9.84709 85.4895 10.2666 85.2845 10.9894L84.9633 12.1209C84.6727 13.1452 84.3811 14.1777 84.0899 15.2137C78.7831 16.0083 71.8007 17.2375 64.2483 19.0582C63.5184 19.2342 63.0694 19.9686 63.2453 20.6983C63.3952 21.3217 63.9519 21.74 64.5659 21.74C64.6713 21.74 64.7782 21.7274 64.8854 21.7018C71.7972 20.0359 78.2219 18.8715 83.2931 18.0855C82.2681 21.831 81.2981 25.6315 80.529 29.4414C80.3068 30.1623 80.1302 30.8921 79.9607 31.5976C79.6234 33.004 79.3044 34.3327 78.6614 35.4798C78.2187 36.2703 77.1636 37.2497 76.2313 37.4556C75.7968 37.5516 75.5623 37.4336 75.4066 37.3214C75.0766 37.0827 74.9408 36.3791 75.0229 35.3432C75.112 34.2309 75.299 33.1185 75.5443 32.0121C76.1526 30.2787 76.6029 28.509 76.9809 26.8256C77.1411 26.1125 76.7088 25.4 76.0022 25.2132C75.2954 25.0256 74.5674 25.4313 74.3538 26.1298C74.1899 26.6652 74.0257 27.204 73.8643 27.7462C73.0209 26.3693 71.7026 25.3965 70.2552 25.1273C67.5525 24.6243 65.1879 26.4935 63.8751 28.4103C63.071 29.5851 62.4795 30.8994 62.1195 32.2744C62.0499 32.3949 61.9974 32.5257 61.966 32.668C61.816 33.3522 61.7101 34.0188 61.6076 34.6634C61.2528 36.8928 60.9729 38.6521 59.1555 39.9393C58.5634 40.3584 57.6427 40.5597 57.1281 40.1684C56.811 39.9275 56.5951 39.4171 56.5638 38.8349C56.4696 37.0686 57.3418 35.3556 58.4042 33.4585C58.748 32.8463 58.5681 32.072 57.9895 31.6737C57.8359 31.5685 57.5304 31.3914 56.8545 31.0018C55.9071 30.4556 53.4774 29.0545 52.8387 28.5232C52.6431 28.1771 52.2986 27.9196 51.8756 27.85C51.1349 27.7275 50.4352 28.2286 50.3131 28.97C49.7743 32.2304 49.1654 35.3963 47.6515 38.2841C46.4604 40.5572 44.2074 42.3328 41.6251 43.0353C39.3223 43.6592 37.0264 43.3642 35.1602 42.2008C33.0072 40.8581 31.4179 38.4146 30.9086 35.6657C30.4371 33.1194 30.8474 30.2378 32.0639 27.5496C33.0447 25.3811 35.1923 21.5304 38.5503 20.1001C40.3825 19.32 42.4434 19.3565 43.929 20.1956C45.2727 20.9555 46.1499 22.6396 46.0135 24.2004C45.9434 25.0054 45.5643 26.0698 44.1563 26.5687C43.4485 26.8192 43.0776 27.5964 43.3287 28.3042C43.5793 29.0119 44.3561 29.3822 45.0643 29.1317C47.1948 28.3771 48.5287 26.6657 48.7232 24.4365C48.9506 21.8239 47.5293 19.1069 45.2665 17.828C43.0274 16.563 40.1181 16.4766 37.4843 17.5981C33.2782 19.3893 30.7305 23.8994 29.5864 26.4278C28.143 29.6178 27.6632 33.074 28.235 36.161C28.8809 39.6471 30.9313 42.7676 33.7207 44.5074C35.3864 45.5456 37.2904 46.0758 39.2702 46.0758C40.28 46.0758 41.3103 45.9381 42.3381 45.6591C45.6375 44.7631 48.5242 42.4784 50.0602 39.5466C51.397 36.9968 52.0897 34.3518 52.6048 31.6434C53.5099 32.2106 54.5817 32.8298 55.3955 33.3C54.4556 35.102 53.7385 36.9331 53.8485 38.9807C53.9233 40.3802 54.5193 41.6024 55.4834 42.3351C56.903 43.4127 59.0592 43.3397 60.7271 42.1591C61.7347 41.4438 62.4311 40.6266 62.928 39.7608C63.3598 40.3511 63.8974 40.8187 64.5294 41.1358C65.1481 41.4484 65.8461 41.6047 66.5677 41.6047C67.2079 41.6047 67.8671 41.482 68.5065 41.2343C69.4979 40.8512 70.4401 40.1868 71.387 39.2029C71.8118 38.7607 72.2059 38.2943 72.5711 37.807C72.8224 38.5339 73.2362 39.1069 73.8119 39.5235C74.6765 40.1497 75.716 40.3534 76.8163 40.1103C78.6716 39.7018 80.3031 38.1127 81.0335 36.8092C81.1765 36.5535 81.3014 36.2953 81.4201 36.0348C81.6082 36.3057 81.8161 36.5569 82.0485 36.7839C83.0752 37.7794 84.4254 38.2931 85.8953 38.2931C86.7188 38.2931 87.58 38.1311 88.4423 37.8036C89.341 37.4611 90.2613 36.9808 91.1607 36.3996C91.4291 36.5268 91.7087 36.6403 91.9992 36.7353C94.9149 37.6959 98.6251 36.8175 101.394 34.5559C101.169 35.6705 100.974 36.8118 100.788 37.923C100.677 38.5837 100.564 39.2505 100.445 39.916C97.0423 40.3604 93.5704 40.8836 90.5009 42.3466C88.7907 43.1603 87.5012 44.4139 86.8716 45.8746C86.2559 47.304 86.2605 48.891 86.8844 50.3424C87.4903 51.7521 88.6021 52.8634 90.0153 53.4722C90.8381 53.8253 91.7456 54 92.6746 54C94.0606 54 95.4925 53.6113 96.7541 52.8565C98.4855 51.8195 99.9377 50.1272 100.953 47.9604C101.788 46.1814 102.325 44.2842 102.738 42.3606C103.052 42.3188 103.364 42.2759 103.672 42.2321C108.415 41.5596 113.114 41.1706 117.484 40.8512C118.233 40.7956 118.795 40.1452 118.741 39.3951C118.686 38.6473 118.035 38.0848 117.286 38.138C112.868 38.4621 108.114 38.8556 103.29 39.5397C103.284 39.5408 103.277 39.5408 103.271 39.5432C103.338 39.1519 103.404 38.7607 103.47 38.3728C103.7 37.0037 103.917 35.7097 104.195 34.4433C104.706 32.1087 105.261 29.7393 105.798 27.447C105.93 26.8811 106.064 26.3099 106.198 25.7358C106.452 25.9505 106.748 26.1443 107.097 26.3116C107.722 26.6108 108.34 26.734 108.936 26.734C109.491 26.734 110.025 26.6251 110.53 26.4562C110.402 28.1056 110.758 29.7092 111.331 30.6497C112.436 32.464 114.49 33.5879 116.598 33.5879C116.83 33.5879 117.062 33.5752 117.294 33.5475C119.895 33.2351 122.006 31.457 123.086 28.6676C123.77 26.8977 123.958 24.9608 123.689 23.1871C125.142 22.3965 126.533 21.4045 127.782 20.4195C127.139 23.4731 126.797 27.3129 128.418 29.4188C129.052 30.2435 130.264 31.1874 132.438 30.9993C134.055 30.8593 135.37 30.2648 136.446 29.3759C136.219 30.4687 135.983 31.5578 135.734 32.6377C135.592 33.2556 135.453 33.9779 135.305 34.7418C134.628 38.2558 133.603 43.5663 130.906 44.6867C129.863 45.1197 128.695 45.0571 127.7 44.5153C126.737 43.9921 126.073 43.0835 125.879 42.0221C125.715 41.1309 125.903 40.2511 126.393 39.6101C126.858 39.0035 127.546 38.6447 128.385 38.5753C129.134 38.5115 129.69 37.8541 129.627 37.1053C129.564 36.3576 128.904 35.8018 128.158 35.8645C126.556 35.9998 125.162 36.743 124.233 37.9584C123.277 39.2084 122.902 40.8695 123.204 42.513C123.548 44.3868 124.713 45.9877 126.4 46.9044C127.363 47.4276 128.42 47.6915 129.48 47.6915C130.315 47.6915 131.153 47.5283 131.949 47.1984C135.997 45.5179 137.14 39.587 137.975 35.2568C138.118 34.5171 138.253 33.8193 138.385 33.2474C139.199 29.7142 139.873 26.1047 140.525 22.6139C140.734 21.4911 140.947 20.3481 141.166 19.2027C141.29 18.6032 141.4 18.0286 141.502 17.4939C141.581 17.0814 141.657 16.6882 141.731 16.3219C141.879 15.5865 141.404 14.8692 140.668 14.7204ZM72.1358 33.2049C71.4333 34.7306 70.5554 36.1453 69.4274 37.3176C68.7619 38.0098 68.1404 38.4612 67.5268 38.6985C66.8914 38.9438 66.2282 38.9484 65.7536 38.7077C64.8415 38.2492 64.4752 36.8707 64.4364 35.733C64.3664 33.69 64.9641 31.6344 66.1199 29.9467C66.8382 28.897 68.0823 27.765 69.3689 27.765C69.4985 27.765 69.6282 27.7766 69.7577 27.8004C70.5963 27.9566 71.4018 28.6974 71.8098 29.6877C72.1871 30.6018 72.2939 31.7524 72.1358 33.2049ZM91.1257 33.0696C90.5111 32.4158 90.0869 31.5291 89.8588 30.4157C89.5163 28.7408 90.2269 26.3802 91.4769 25.041C92.0991 24.375 93.076 23.9575 93.9395 23.9575C94.0888 23.9575 94.2352 23.9696 94.3747 23.9958C94.9812 24.1076 95.3886 24.4397 95.6206 25.0114C95.961 25.8482 95.5667 27.5173 94.6629 29.07C93.8405 30.4833 92.5574 31.9053 91.1257 33.0696ZM98.4918 46.8065C97.9443 47.9744 96.9564 49.5672 95.3574 50.5232C93.987 51.3449 92.3515 51.5162 91.0905 50.9747C90.3304 50.6469 89.7083 50.0253 89.3831 49.2696C89.0572 48.5115 89.0519 47.6874 89.3692 46.9513C89.7379 46.0959 90.555 45.3332 91.6704 44.8008C94.1021 43.6432 96.9796 43.1316 99.8621 42.738C99.5178 44.1618 99.0861 45.5391 98.4918 46.8065ZM115.426 20.5327C115.479 20.1669 115.938 19.7976 116.449 19.7091C116.703 19.6645 116.953 19.6425 117.195 19.6425C118.245 19.6425 119.168 20.0539 119.844 20.8365C120.064 21.0899 120.254 21.3827 120.417 21.7046C118.736 22.2654 117.127 22.2561 115.807 21.2017C115.377 20.8578 115.38 20.8336 115.426 20.5327ZM120.55 27.6863C120.136 28.7564 119.12 30.5899 116.971 30.8466C115.691 31.0006 114.325 30.338 113.654 29.2351C113.374 28.7755 113.134 27.6812 113.242 26.5595C113.309 25.861 113.57 24.5919 114.57 23.9385C114.638 23.8934 114.701 23.8442 114.758 23.7898C116.739 25.0445 118.919 25.022 121.068 24.3332C121.128 25.4464 120.961 26.6232 120.55 27.6863Z" fill="white"/>
<path d="M107.401 15.1366C107.416 15.1366 107.453 15.136 107.468 15.1355C108.515 15.1014 109.341 14.2656 109.308 13.2721C109.275 12.2979 108.444 11.5346 107.417 11.5346C107.401 11.5346 107.364 11.5352 107.349 11.5357C106.302 11.5711 105.477 12.4063 105.51 13.3993C105.543 14.3739 106.373 15.1366 107.401 15.1366ZM82.8017 43.1812C76.3518 44.0586 59.4957 46.5945 42.3121 51.1735C41.5864 51.3668 41.1552 52.111 41.3485 52.8378C41.5105 53.4456 42.0604 53.8473 42.6616 53.8473C42.7775 53.8473 42.8955 53.8324 43.0123 53.8011C54.8311 50.6518 69.8423 47.6884 83.1682 45.8759C83.9125 45.7753 84.4339 45.09 84.3326 44.3447C84.2314 43.6015 83.5431 43.0807 82.8017 43.1812Z" fill="white"/>
</svg>
