<svg width="170" height="64" viewBox="0 0 170 64" fill="none" xmlns="http://www.w3.org/2000/svg">
<path d="M44.97 33.91C44.922 34.435 44.851 34.964 44.76 35.487C44.6664 36.0112 44.5432 36.5297 44.391 37.04C44.2498 37.514 44.0699 37.9755 43.853 38.42C43.586 38.9978 43.2113 39.5195 42.749 39.957C42.285 40.385 41.759 40.741 41.188 41.013C40.757 41.219 40.306 41.379 39.842 41.493C39.38 41.605 38.912 41.686 38.438 41.733C37.968 41.779 37.487 41.803 36.995 41.803H27.567V23H35.581C36.354 23.002 37.141 23.04 37.945 23.114C38.727 23.184 39.497 23.35 40.239 23.606C40.961 23.858 41.639 24.219 42.251 24.677C42.863 25.137 43.369 25.746 43.767 26.497C44.202 27.344 44.523 28.312 44.73 29.401C44.93 30.404 45.034 31.423 45.042 32.446C45.042 32.896 45.018 33.384 44.972 33.91H44.97ZM40.355 30.11C40.192 29.293 39.925 28.581 39.545 27.971C39.093 27.251 38.515 26.789 37.818 26.591C37.0889 26.3875 36.335 26.2865 35.578 26.291H31.58V38.514H35.577C36.0853 38.5096 36.5924 38.4627 37.093 38.374C37.5917 38.2975 38.0753 38.1429 38.526 37.916C38.9515 37.6776 39.3046 37.3286 39.548 36.906C39.814 36.448 40.023 35.96 40.168 35.451C40.32 34.9292 40.4287 34.3957 40.493 33.856C40.557 33.379 40.591 32.899 40.594 32.418C40.5893 31.6427 40.5099 30.8697 40.355 30.11ZM52.039 41.784C51.5226 41.7839 51.0063 41.7786 50.49 41.768C49.9779 41.762 49.4686 41.6918 48.974 41.559C48.104 41.334 47.44 40.849 46.985 40.108C46.5382 39.3937 46.3024 38.5676 46.305 37.725C46.308 37.056 46.448 36.395 46.716 35.781C46.9819 35.154 47.4086 34.6082 47.953 34.199C48.219 34.003 48.517 33.856 48.835 33.764C49.185 33.66 49.542 33.584 49.905 33.538C50.275 33.492 50.638 33.464 50.997 33.454C51.36 33.444 51.69 33.44 51.995 33.441H56.66L56.657 33.216C56.657 32.728 56.592 32.336 56.461 32.046C56.3405 31.7669 56.1383 31.5309 55.881 31.369C55.5995 31.2006 55.285 31.0949 54.959 31.059C54.5646 31.0097 54.1675 30.9853 53.77 30.986H47.363V28.054H53.769C54.033 28.054 54.294 28.057 54.549 28.067C54.805 28.077 55.063 28.082 55.328 28.081C56.498 28.121 57.496 28.363 58.324 28.815C59.152 29.267 59.751 30.084 60.129 31.27C60.275 31.717 60.365 32.18 60.396 32.65C60.424 33.102 60.441 33.571 60.437 34.062L60.44 41.783L52.039 41.784ZM56.659 36.38H51.624C51.226 36.38 50.889 36.482 50.614 36.687C50.338 36.893 50.201 37.21 50.202 37.641C50.202 37.941 50.262 38.169 50.387 38.329C50.512 38.489 50.679 38.609 50.87 38.678C51.085 38.756 51.31 38.803 51.539 38.818C51.785 38.836 52.023 38.845 52.249 38.845H56.657L56.659 36.38ZM68.815 41.803C67.874 41.803 67.024 41.64 66.275 41.308C65.527 40.977 64.967 40.345 64.61 39.403C64.4622 38.9598 64.3679 38.5006 64.329 38.035C64.2911 37.57 64.2725 37.1036 64.273 36.637V30.99L61.863 30.988V28.054H64.271V23H68.049V28.054H71.564V30.989L68.05 30.992V35.987C68.05 36.288 68.055 36.664 68.063 37.116C68.072 37.567 68.173 37.925 68.363 38.189C68.528 38.412 68.753 38.584 69.013 38.684C69.286 38.789 69.572 38.855 69.863 38.881C70.165 38.908 70.468 38.913 70.77 38.895C71.074 38.877 71.337 38.867 71.564 38.866V41.801L68.815 41.803ZM78.359 41.784C77.849 41.784 77.333 41.781 76.812 41.769C76.2985 41.7614 75.788 41.6902 75.292 41.557C74.422 41.333 73.76 40.85 73.306 40.107C72.8596 39.3924 72.6236 38.5665 72.625 37.724C72.628 37.055 72.769 36.394 73.037 35.781C73.302 35.154 73.7289 34.6087 74.274 34.201C74.54 34.005 74.839 33.858 75.156 33.767C75.5048 33.6615 75.8617 33.5849 76.223 33.538C76.592 33.494 76.957 33.465 77.316 33.455C77.676 33.445 78.009 33.443 78.312 33.441L82.979 33.443V33.216C82.979 32.728 82.913 32.337 82.779 32.046C82.6585 31.7669 82.4563 31.5309 82.199 31.369C81.9182 31.2005 81.6044 31.0944 81.279 31.058C80.8839 31.0094 80.4861 30.986 80.088 30.988H73.68V28.058H80.085C80.35 28.058 80.61 28.061 80.865 28.07C81.119 28.08 81.379 28.085 81.645 28.084C82.815 28.123 83.813 28.367 84.64 28.817C85.467 29.267 86.069 30.086 86.446 31.272C86.591 31.72 86.681 32.183 86.713 32.652C86.746 33.105 86.758 33.574 86.758 34.065V41.786L78.359 41.784ZM82.979 36.379H77.943C77.545 36.379 77.209 36.48 76.933 36.686C76.657 36.892 76.521 37.211 76.521 37.641C76.521 37.941 76.581 38.17 76.707 38.328C76.831 38.488 76.999 38.608 77.19 38.676C77.404 38.756 77.629 38.803 77.857 38.818C78.105 38.835 78.343 38.846 78.57 38.846H82.976L82.979 36.379Z" fill="white"/>
<path d="M102.416 41.801C102.266 41.3735 102.171 40.9286 102.134 40.477C102.096 40.026 102.049 39.577 101.992 39.125C101.895 38.261 101.743 37.541 101.524 36.969C101.304 36.397 100.999 35.939 100.603 35.605C100.207 35.27 99.704 35.028 99.099 34.885C98.494 34.742 97.756 34.673 96.885 34.673H93.655V41.8H89.64V23H98.877C99.573 23 100.289 23.023 101.017 23.07C101.722 23.1127 102.42 23.2307 103.1 23.422C104.216 23.742 105.086 24.344 105.707 25.228C106.329 26.112 106.641 27.117 106.644 28.243C106.642 29.54 106.367 30.673 105.819 31.64C105.271 32.608 104.346 33.299 103.043 33.712C103.456 33.863 103.811 34.008 104.105 34.149C104.385 34.283 104.648 34.454 104.883 34.657C105.117 34.861 105.319 35.099 105.483 35.362C105.679 35.692 105.849 36.035 105.99 36.39C106.253 36.997 106.402 37.646 106.429 38.306C106.459 38.964 106.51 39.623 106.588 40.279C106.65 40.7963 106.764 41.3062 106.927 41.801H102.416ZM101.971 27.491C101.839 27.1947 101.628 26.9402 101.361 26.755C101.084 26.5709 100.77 26.4479 100.442 26.394C100.06 26.3226 99.6718 26.2874 99.283 26.289H93.653V31.383H99.281C100.204 31.383 100.921 31.195 101.43 30.82C101.942 30.443 102.194 29.743 102.193 28.723C102.193 28.222 102.118 27.811 101.97 27.493L101.971 27.491ZM122.058 38.061C121.712 38.8839 121.19 39.6212 120.529 40.221C119.854 40.8174 119.063 41.2685 118.206 41.546C117.311 41.846 116.326 41.999 115.251 41.999C112.95 41.999 111.167 41.373 109.902 40.122C108.636 38.871 108.004 37.097 108.005 34.802C108.005 33.73 108.184 32.761 108.543 31.895C108.877 31.0643 109.389 30.317 110.043 29.706C110.685 29.114 111.455 28.658 112.351 28.337C113.246 28.02 114.221 27.858 115.28 27.859C117.582 27.859 119.379 28.489 120.671 29.75C121.962 31.01 122.609 32.799 122.611 35.115C122.611 36.224 122.425 37.208 122.057 38.062L122.058 38.061ZM118.541 33.301C118.443 32.8322 118.252 32.3878 117.98 31.994C117.708 31.6168 117.344 31.3155 116.923 31.119C116.486 30.905 115.945 30.799 115.305 30.797C114.631 30.797 114.072 30.908 113.633 31.131C113.213 31.337 112.854 31.648 112.593 32.035C112.327 32.4403 112.145 32.895 112.058 33.372C111.95 33.9173 111.898 34.4722 111.903 35.028C111.898 35.5668 111.959 36.1042 112.085 36.628C112.194 37.09 112.395 37.525 112.676 37.908C112.956 38.275 113.324 38.568 113.746 38.757C114.185 38.96 114.728 39.061 115.363 39.062C115.998 39.063 116.536 38.952 116.968 38.728C117.383 38.5198 117.74 38.2136 118.01 37.836C118.282 37.438 118.469 36.9879 118.559 36.514C118.663 35.987 118.715 35.4511 118.715 34.914C118.717 34.371 118.659 33.8294 118.543 33.299L118.541 33.301ZM138.076 38.189C137.604 39.241 136.831 40.106 135.757 40.784C134.982 41.275 134.205 41.567 133.412 41.663C132.577 41.758 131.737 41.804 130.896 41.801H124.729V23H128.509V28.053H131.874C134.047 28.054 135.741 28.623 136.956 29.761C138.171 30.898 138.78 32.559 138.784 34.745C138.784 35.987 138.548 37.135 138.076 38.189ZM134.131 32.009C133.55 31.332 132.62 30.993 131.341 30.992H128.509V38.865H131.341C132.564 38.865 133.48 38.485 134.089 37.723C134.699 36.961 135.004 36.006 135.005 34.858C135.005 33.638 134.712 32.684 134.132 32.008L134.131 32.009ZM154.045 38.06C153.7 38.8836 153.177 39.6208 152.514 40.219C151.839 40.8137 151.05 41.2648 150.195 41.545C149.298 41.847 148.312 41.998 147.236 41.998C144.934 41.998 143.151 41.372 141.888 40.12C140.624 38.869 139.992 37.095 139.993 34.8C139.991 33.728 140.169 32.759 140.528 31.894C140.863 31.0638 141.376 30.3172 142.031 29.707C142.671 29.115 143.439 28.659 144.334 28.338C145.233 28.018 146.207 27.859 147.265 27.858C149.568 27.858 151.365 28.488 152.658 29.749C153.951 31.01 154.597 32.797 154.595 35.111C154.595 36.221 154.411 37.204 154.044 38.061L154.045 38.06ZM150.53 33.3C150.431 32.8304 150.239 32.3853 149.966 31.991C149.694 31.6146 149.332 31.3131 148.912 31.115C148.471 30.902 147.931 30.795 147.292 30.795C146.619 30.795 146.058 30.908 145.619 31.129C145.198 31.335 144.839 31.647 144.578 32.034C144.313 32.44 144.131 32.894 144.043 33.37C143.937 33.9152 143.886 34.4696 143.89 35.025C143.886 35.5635 143.946 36.1006 144.069 36.625C144.178 37.086 144.379 37.521 144.66 37.905C144.939 38.272 145.308 38.565 145.73 38.753C146.169 38.958 146.707 39.059 147.347 39.06C147.988 39.061 148.519 38.951 148.95 38.725C149.366 38.519 149.724 38.215 149.992 37.838C150.265 37.44 150.452 36.99 150.542 36.517C150.645 35.9892 150.696 35.4527 150.695 34.915C150.7 34.3724 150.644 33.831 150.528 33.301L150.53 33.3ZM162.25 41.801C161.308 41.801 160.463 41.637 159.708 41.307C158.954 40.977 158.402 40.345 158.046 39.403C157.896 38.9606 157.801 38.5015 157.763 38.036C157.725 37.5706 157.706 37.1039 157.706 36.637V30.991H155.298V28.054H157.706V23H161.485V28.054H165V30.99H161.487V35.987C161.487 36.287 161.49 36.664 161.5 37.117C161.51 37.569 161.609 37.924 161.798 38.189C161.963 38.412 162.19 38.584 162.45 38.683C162.723 38.787 163.009 38.853 163.301 38.879C163.602 38.909 163.905 38.914 164.207 38.894C164.51 38.875 164.772 38.865 164.999 38.865V41.8H162.25V41.801Z" fill="white"/>
<path d="M16.073 28.049C15.64 28.049 15.288 28.569 15.288 29.213C15.288 29.856 15.64 30.378 16.073 30.378C16.507 30.378 16.863 29.855 16.863 29.213C16.863 28.57 16.512 28.049 16.076 28.049H16.073ZM10.666 28.049C10.231 28.049 9.879 28.569 9.879 29.213C9.879 29.856 10.231 30.378 10.666 30.378C11.1 30.378 11.452 29.855 11.452 29.213C11.452 28.57 11.1 28.049 10.666 28.049ZM21.154 26.597L21.091 26.587V25.177C21.089 24.632 20.8707 24.1101 20.484 23.726C20.0964 23.3407 19.5725 23.1237 19.026 23.122H7.712C7.16526 23.1231 6.64101 23.3398 6.253 23.725C5.8662 24.1094 5.64787 24.6317 5.646 25.177V26.587L5.582 26.597C5.42127 26.6266 5.27565 26.7107 5.16964 26.8351C5.06364 26.9595 5.00373 27.1166 5 27.28V29.576C5.00241 29.7398 5.06185 29.8976 5.16808 30.0222C5.27431 30.1469 5.42069 30.2306 5.582 30.259L5.646 30.269V32.577C5.648 33.121 5.866 33.643 6.253 34.028C6.64 34.413 7.164 34.63 7.712 34.631H10.942V35.175H10.664L9.649 35.582V35.736H9.268V36.132C8.887 36.152 8.528 36.318 8.265 36.593C8.003 36.868 7.855 37.233 7.855 37.613V38.063H7.7C7.512 38.251 7.405 38.355 7.218 38.543V39.866L7.7 40.346H8.71L8.916 40.14V39.463H9.313V38.37C9.31313 38.3296 9.30525 38.2895 9.28981 38.2521C9.27436 38.2148 9.25166 38.1808 9.22302 38.1523C9.19438 38.1237 9.16037 38.1011 9.12295 38.0858C9.08553 38.0705 9.04544 38.0627 9.005 38.063H8.816V37.613C8.81573 37.4867 8.86114 37.3647 8.94385 37.2693C9.02656 37.1739 9.14098 37.1116 9.266 37.094V37.624H9.704V39.214L10.236 39.814V40.635C9.828 40.635 9.381 40.674 8.796 41.175V41.998H13.124V40.395H13.651V42H17.981V41.175C17.397 40.674 16.951 40.635 16.541 40.635V39.813L17.094 39.213V37.623H17.511V37.091C17.6374 37.1078 17.7535 37.1697 17.838 37.2652C17.9225 37.3607 17.9697 37.4835 17.971 37.611V38.062H17.781C17.7203 38.0624 17.6609 38.0806 17.6105 38.1143C17.56 38.1481 17.5205 38.196 17.497 38.252C17.4814 38.289 17.4732 38.3288 17.473 38.369V39.464H17.871V40.142L18.077 40.348H19.087C19.275 40.159 19.38 40.055 19.569 39.868V38.543L19.087 38.063H18.933V37.613C18.933 37.231 18.785 36.864 18.52 36.588C18.2544 36.3116 17.8929 36.1476 17.51 36.13V35.736H17.13V35.586L16.113 35.178H15.836V34.633H19.025C19.5716 34.6314 20.0955 34.4144 20.483 34.029C20.87 33.644 21.088 33.123 21.09 32.579V30.27L21.153 30.26C21.3141 30.2306 21.4601 30.1464 21.5663 30.0218C21.6725 29.8972 21.7325 29.7397 21.736 29.576V27.28C21.7328 27.1164 21.6731 26.959 21.567 26.8345C21.4609 26.71 21.315 26.6261 21.154 26.597ZM20.553 32.105C20.551 32.5408 20.3763 32.958 20.067 33.265C19.757 33.574 19.338 33.747 18.9 33.749H7.837C7.40013 33.7472 6.98157 33.5733 6.672 33.265C6.36311 32.9578 6.18869 32.5406 6.187 32.105V25.529C6.189 25.094 6.364 24.677 6.673 24.369C6.983 24.062 7.403 23.889 7.84 23.888H18.9C19.338 23.888 19.757 24.062 20.067 24.37C20.377 24.677 20.551 25.094 20.553 25.53V32.105Z" fill="white"/>
</svg>
