<svg version="1.2" xmlns="http://www.w3.org/2000/svg" viewBox="0 0 1012 182" width="500" height="90">
	<defs>
		<clipPath clipPathUnits="userSpaceOnUse" id="cp1">
			<path d="m0 0h1012v182h-1012z"/>
		</clipPath>
	</defs>
	<style>
		.s0 { fill: #ffffff } 
	</style>
	<g id="Clip-Path" clip-path="url(#cp1)">
		<g>
			<path class="s0" d="m72.24 181.26c0-43.84 35.55-79.39 79.4-79.39h79.39c0 43.51-34.99 78.84-78.37 79.39h-1.02zm79.39-181.26c43.85 0 79.39 35.55 79.39 79.39h-79.39c-43.85 0-79.39-35.54-79.39-79.39z"/>
			<path class="s0" d="m50.53 140.73c-9.36 0-16.94-7.59-16.94-16.94 0-9.36 7.58-16.95 16.94-16.95 9.36 0 16.94 7.59 16.94 16.95 0 9.35-7.58 16.94-16.94 16.94z"/>
			<path class="s0" d="m50.53 73.56c-9.36 0-16.94-7.59-16.94-16.95 0-9.36 7.58-16.94 16.94-16.94 9.36 0 16.94 7.58 16.94 16.94 0 9.36-7.58 16.95-16.94 16.95z"/>
			<path class="s0" d="m16.94 107.14c-9.35 0-16.94-7.58-16.94-16.94 0-9.36 7.59-16.95 16.94-16.95 9.36 0 16.95 7.59 16.95 16.95 0 9.36-7.59 16.94-16.95 16.94z"/>
			<path class="s0" d="m84.12 107.14c-9.36 0-16.95-7.58-16.95-16.94 0-9.36 7.59-16.95 16.95-16.95 9.36 0 16.94 7.59 16.94 16.95 0 9.36-7.58 16.94-16.94 16.94z"/>
			<path class="s0" d="m450.45 59.19q19.42 0 29.12 9.13 9.71 8.93 9.71 26.4v65.43h-17.28v-19.41q-3.49 10.29-12.42 15.91-8.93 5.44-21.75 5.44-15.14 0-24.07-7.38-8.94-7.57-8.94-20.38 0.01-13.2 9.32-20.78 9.52-7.76 27.19-10.48l28.15-4.53v-4.6q0-9.51-4.86-14.17-4.66-4.85-14.94-4.85-9.91 0-15.93 3.88-5.82 3.88-6.79 11.07h-19.22q1.36-13.98 12.62-22.33 11.26-8.35 30.09-8.35zm85.12 1.94h28.15v16.12h-28.15v53.19q0 7.77 4.07 11.46 4.08 3.69 13.21 3.69 3.49 0 6.21-0.58 2.72-0.59 4.66-1.36v16.31q-2.14 0.97-6.02 1.55-3.88 0.58-8.74 0.58-17.28 0-25.43-7.96-7.96-8.15-7.96-23.88v-53h-19.81v-16.12h19.81v-22.72l20-7.57zm80.44-1.94q19.41 0 29.12 9.13 9.71 8.93 9.71 26.4v65.43h-17.28v-19.41q-3.5 10.29-12.43 15.92-8.93 5.43-21.74 5.43-15.15 0-24.08-7.37-8.93-7.58-8.93-20.39 0-13.2 9.32-20.77 9.51-7.77 27.18-10.49l28.15-4.52v-4.6q0-9.52-4.85-14.18-4.66-4.85-14.95-4.85-9.9 0-15.92 3.88-5.83 3.88-6.8 11.07h-19.22q1.36-13.98 12.62-22.33 11.26-8.35 30.1-8.35zm348.65 0q14.37 0 24.85 6.22 10.68 6.01 16.31 16.89 5.83 10.87 5.83 25.82 0 2.33-0.2 4.46 0 1.95-0.39 4.08h-76.01q1.24 12.51 7.67 20.19 8.16 9.52 22.52 9.52 8.74 0 15.15-3.5 6.4-3.69 9.51-10.68h19.03q-4.86 13.98-16.51 21.94-11.45 7.96-27.57 7.96-14.95 0-26.4-6.6-11.26-6.6-17.67-18.25-6.41-11.65-6.41-26.79 0-15.34 6.22-26.79 6.4-11.65 17.86-18.06 11.45-6.41 26.21-6.41zm-643.54-38.83q22.52 0 39.22 8.54 16.7 8.55 25.82 24.27 9.32 15.54 9.32 36.7 0 21.16-9.32 37.08-9.32 15.73-26.01 24.46-16.51 8.74-38.84 8.74h-49.31v-139.79zm388.51 117.63l27.89-76.86h20.77l-40.19 99.02h-17.86l-40.38-99.02h21.55zm78.07 22.16h-20.2v-99.02h20.2zm78.63-100.96q15.92 0 25.04 8.93 9.13 8.93 9.13 23.69v68.34h-20v-63.68q0-10.29-5.24-15.34-5.05-5.05-15.14-5.05-8.74 0-15.54 3.89-6.6 3.88-10.48 10.68-3.69 6.79-3.69 16.11v53.39h-20.19v-99.02h19.22v18.77q4.8-8.84 13.4-14.3 10.09-6.41 23.49-6.41zm-421.9 57.47q-9.9 1.56-14.95 5.24-4.85 3.69-4.85 10.68 0 6.8 4.46 10.29 4.66 3.3 13.4 3.3 11.65 0 19.22-5.63 7.77-5.63 7.77-14.17v-13.66zm165.55 0q-9.9 1.55-14.95 5.24-4.85 3.69-4.85 10.68 0 6.79 4.46 10.29 4.66 3.3 13.4 3.3 11.65 0 19.22-5.63 7.77-5.63 7.77-14.18v-13.66zm-317.41 26.41h28.54q16.7 0 28.54-6.8 12.04-6.8 18.45-18.83 6.4-12.04 6.4-27.96 0-15.73-6.4-27.38-6.22-11.65-18.25-18.05-11.85-6.6-28.74-6.6h-28.54zm672.08-68.15q-13.78 0-21.94 9.51-5.69 6.66-7.31 17.09h56.15q-1.14-11.56-6.9-18.25-7.19-8.35-20-8.35zm-186.96-55.92c6.17 0 11.16 5 11.16 11.17v0.38c0 6.17-4.99 11.17-11.16 11.17-6.16 0-11.16-5-11.16-11.17v-0.38c0-6.17 5-11.17 11.16-11.17z"/>
		</g>
	</g>
</svg>