<svg version="1.2" xmlns="http://www.w3.org/2000/svg" viewBox="0 0 220 120" width="220" height="120">
	<defs>
		<clipPath clipPathUnits="userSpaceOnUse" id="cp1">
			<path d="m-1 43h245v34h-245z"/>
		</clipPath>
		<clipPath clipPathUnits="userSpaceOnUse" id="cp2">
			<path d="m-1 43h245v34h-245z"/>
		</clipPath>
		<clipPath clipPathUnits="userSpaceOnUse" id="cp3">
			<path d="m17 43v16h-18v-16z"/>
		</clipPath>
		<clipPath clipPathUnits="userSpaceOnUse" id="cp4">
			<path d="m19 43v16h18v-16z"/>
		</clipPath>
		<clipPath clipPathUnits="userSpaceOnUse" id="cp5">
			<path d="m17 77v-16h-18v16z"/>
		</clipPath>
		<clipPath clipPathUnits="userSpaceOnUse" id="cp6">
			<path d="m19 77v-16h18v16z"/>
		</clipPath>
	</defs>
	<style>
		.s0 { fill: #ffffff } 
		.s1 { opacity: .8;fill: #ffffff } 
	</style>
	<g id="Clip-Path" clip-path="url(#cp1)">
		<g>
			<g id="Clip-Path" clip-path="url(#cp2)">
				<g>
					<g id="Clip-Path" clip-path="url(#cp3)">
						<g>
							<path class="s0" d="m1.17 43.29c-1.1-0.01-2.09 0.53-2.09 0.8 0 0.35 2.52-0.69 4.71 1.47 0.37 0.36 0.96-0.03 0.96-0.62 0-0.98-1.37-1.64-3.58-1.65z"/>
							<path class="s0" d="m10.72 49.15c-0.7-1.22-1.51-2.11-3.01-2.08-0.93 0.01-1.71-0.1-1.98-0.58-0.57-1 0.19-2.02 1.15-2.13 2.08-0.24 3.07 0.67 3.53 1.75-0.34-0.96-1.29-2.6-3.66-2.03-1.27 0.3-1.64-0.02-1.67-0.2-0.1-0.66 1.18-0.84 1.8-0.84 4.81 0 3.84 6.11 3.84 6.11z"/>
							<path class="s0" d="m13.57 43.04c1.13 0.12 1.96 0.98 2.47 1.66 1.67 2.23 0.65 9.95 0.65 9.95-1.17-2.05-3.04-5.2-3.98-3.93-2.97-2.86-1.41-4.93 0.14-5.05 1.45-0.11 2.37 0.69 2.95 1.84-0.82-2.28-1.9-2.05-3.07-2.36-0.57-0.16-1.43-0.31-1.43-1.13 0-0.92 0.98-1.12 2.27-0.98z"/>
							<path class="s0" d="m14.83 58.71c1.1 0.01 2.09-0.53 2.09-0.8 0-0.35-2.52 0.69-4.71-1.47-0.37-0.36-0.96 0.03-0.96 0.62 0 0.98 1.37 1.64 3.58 1.65z"/>
							<path class="s0" d="m5.28 52.85c0.7 1.22 1.51 2.11 3.01 2.08 0.93-0.01 1.71 0.1 1.98 0.58 0.57 1-0.19 2.02-1.14 2.13-2.09 0.24-3.08-0.67-3.54-1.75 0.34 0.96 1.29 2.6 3.66 2.03 1.27-0.3 1.64 0.02 1.67 0.2 0.1 0.66-1.17 0.84-1.79 0.84-4.82 0-3.85-6.11-3.85-6.11z"/>
							<path class="s0" d="m2.43 58.96c-1.13-0.12-1.96-0.98-2.47-1.66-1.67-2.23-0.65-9.95-0.65-9.95 1.17 2.05 3.04 5.2 3.98 3.93 2.97 2.86 1.41 4.93-0.14 5.05-1.45 0.11-2.37-0.69-2.95-1.84 0.82 2.28 1.9 2.05 3.07 2.36 0.57 0.16 1.43 0.31 1.43 1.13 0 0.92-0.98 1.12-2.27 0.98z"/>
						</g>
					</g>
					<g id="Clip-Path" clip-path="url(#cp4)">
						<g>
							<path class="s0" d="m34.83 43.29c1.1-0.01 2.09 0.53 2.09 0.8 0 0.35-2.52-0.69-4.71 1.47-0.37 0.36-0.96-0.03-0.96-0.62 0-0.98 1.37-1.64 3.58-1.65z"/>
							<path class="s0" d="m25.28 49.15c0.7-1.22 1.51-2.11 3.01-2.08 0.93 0.01 1.71-0.1 1.98-0.58 0.57-1-0.19-2.02-1.15-2.13-2.08-0.24-3.07 0.67-3.53 1.75 0.34-0.96 1.29-2.6 3.66-2.03 1.27 0.3 1.64-0.02 1.67-0.2 0.1-0.66-1.17-0.84-1.8-0.84-4.81 0-3.84 6.11-3.84 6.11z"/>
							<path class="s0" d="m22.43 43.04c-1.13 0.12-1.96 0.98-2.47 1.66-1.67 2.23-0.65 9.95-0.65 9.95 1.17-2.05 3.04-5.2 3.98-3.93 2.97-2.86 1.41-4.93-0.14-5.05-1.45-0.11-2.37 0.69-2.95 1.84 0.82-2.28 1.9-2.05 3.07-2.36 0.57-0.16 1.43-0.31 1.43-1.13 0-0.92-0.98-1.12-2.27-0.98z"/>
							<path class="s0" d="m21.17 58.71c-1.1 0.01-2.09-0.53-2.09-0.8 0-0.35 2.52 0.69 4.71-1.47 0.37-0.36 0.96 0.03 0.96 0.62 0 0.98-1.37 1.64-3.58 1.65z"/>
							<path class="s0" d="m30.72 52.85c-0.7 1.22-1.51 2.11-3.01 2.08-0.93-0.01-1.71 0.1-1.98 0.58-0.57 1 0.19 2.02 1.15 2.13 2.08 0.24 3.07-0.67 3.53-1.75-0.34 0.96-1.29 2.6-3.66 2.03-1.27-0.3-1.64 0.02-1.67 0.2-0.1 0.66 1.18 0.84 1.8 0.84 4.81 0 3.84-6.11 3.84-6.11z"/>
							<path class="s0" d="m33.57 58.96c1.13-0.12 1.96-0.98 2.47-1.66 1.67-2.23 0.65-9.95 0.65-9.95-1.17 2.05-3.04 5.2-3.98 3.93-2.97 2.86-1.41 4.93 0.14 5.05 1.45 0.11 2.37-0.69 2.95-1.84-0.82 2.28-1.9 2.05-3.07 2.36-0.57 0.16-1.43 0.31-1.43 1.13 0 0.92 0.98 1.12 2.27 0.98z"/>
						</g>
					</g>
					<g id="Clip-Path" clip-path="url(#cp5)">
						<g>
							<path class="s0" d="m1.17 76.71c-1.1 0.01-2.09-0.53-2.09-0.8 0-0.35 2.52 0.69 4.71-1.47 0.37-0.36 0.96 0.03 0.96 0.62 0 0.98-1.37 1.64-3.58 1.65z"/>
							<path class="s0" d="m10.72 70.85c-0.7 1.22-1.51 2.11-3.01 2.08-0.93-0.01-1.71 0.1-1.98 0.58-0.57 1 0.19 2.02 1.15 2.13 2.08 0.24 3.07-0.67 3.53-1.75-0.34 0.96-1.29 2.59-3.66 2.03-1.27-0.3-1.64 0.02-1.67 0.2-0.1 0.66 1.18 0.84 1.8 0.84 4.81 0 3.84-6.11 3.84-6.11z"/>
							<path class="s0" d="m13.57 76.96c1.13-0.12 1.96-0.98 2.47-1.66 1.67-2.23 0.65-9.95 0.65-9.95-1.17 2.05-3.04 5.2-3.98 3.93-2.97 2.86-1.41 4.93 0.14 5.05 1.45 0.11 2.37-0.69 2.95-1.84-0.82 2.28-1.9 2.05-3.07 2.36-0.57 0.16-1.43 0.31-1.43 1.13 0 0.92 0.98 1.12 2.27 0.98z"/>
							<path class="s0" d="m14.83 61.29c1.1-0.01 2.09 0.53 2.09 0.8 0 0.35-2.52-0.69-4.71 1.47-0.37 0.36-0.96-0.03-0.96-0.62 0-0.98 1.37-1.64 3.58-1.65z"/>
							<path class="s0" d="m5.28 67.15c0.7-1.22 1.51-2.11 3.01-2.08 0.93 0.01 1.71-0.1 1.98-0.58 0.57-1-0.19-2.02-1.14-2.13-2.09-0.24-3.08 0.67-3.54 1.75 0.34-0.96 1.29-2.6 3.66-2.03 1.27 0.3 1.64-0.02 1.67-0.2 0.1-0.66-1.17-0.84-1.79-0.84-4.82 0-3.85 6.11-3.85 6.11z"/>
							<path class="s0" d="m2.43 61.04c-1.13 0.12-1.96 0.98-2.47 1.66-1.67 2.23-0.65 9.95-0.65 9.95 1.17-2.05 3.04-5.2 3.98-3.93 2.97-2.86 1.41-4.93-0.14-5.05-1.45-0.11-2.37 0.69-2.95 1.84 0.82-2.28 1.9-2.05 3.07-2.36 0.57-0.16 1.43-0.31 1.43-1.13 0-0.92-0.98-1.12-2.27-0.98z"/>
						</g>
					</g>
					<g id="Clip-Path" clip-path="url(#cp6)">
						<g>
							<path class="s0" d="m34.83 76.71c1.1 0.01 2.09-0.53 2.09-0.8 0-0.35-2.52 0.69-4.71-1.47-0.37-0.36-0.96 0.03-0.96 0.62 0 0.98 1.37 1.64 3.58 1.65z"/>
							<path class="s0" d="m25.28 70.85c0.7 1.22 1.51 2.11 3.01 2.08 0.93-0.01 1.71 0.1 1.98 0.58 0.57 1-0.19 2.02-1.15 2.13-2.08 0.24-3.07-0.67-3.53-1.75 0.34 0.96 1.29 2.59 3.66 2.03 1.27-0.3 1.64 0.02 1.67 0.2 0.1 0.66-1.17 0.84-1.8 0.84-4.81 0-3.84-6.11-3.84-6.11z"/>
							<path class="s0" d="m22.43 76.96c-1.13-0.12-1.96-0.98-2.47-1.66-1.67-2.23-0.65-9.95-0.65-9.95 1.17 2.05 3.04 5.2 3.98 3.93 2.97 2.86 1.41 4.93-0.14 5.05-1.45 0.11-2.37-0.69-2.95-1.84 0.82 2.28 1.9 2.05 3.07 2.36 0.57 0.16 1.43 0.31 1.43 1.13 0 0.92-0.98 1.12-2.27 0.98z"/>
							<path class="s0" d="m21.17 61.29c-1.1-0.01-2.09 0.53-2.09 0.8 0 0.35 2.52-0.69 4.71 1.47 0.37 0.36 0.96-0.03 0.96-0.62 0-0.98-1.37-1.64-3.58-1.65z"/>
							<path class="s0" d="m30.72 67.15c-0.7-1.22-1.51-2.11-3.01-2.08-0.93 0.01-1.71-0.1-1.98-0.58-0.57-1 0.19-2.02 1.15-2.13 2.08-0.24 3.07 0.67 3.53 1.75-0.34-0.96-1.29-2.6-3.66-2.03-1.27 0.3-1.64-0.02-1.67-0.2-0.1-0.66 1.18-0.84 1.8-0.84 4.81 0 3.84 6.11 3.84 6.11z"/>
							<path class="s0" d="m33.57 61.04c1.13 0.12 1.96 0.98 2.47 1.66 1.67 2.23 0.65 9.95 0.65 9.95-1.17-2.05-3.04-5.2-3.98-3.93-2.97-2.86-1.41-4.93 0.14-5.05 1.45-0.11 2.37 0.69 2.95 1.84-0.82-2.28-1.9-2.05-3.07-2.36-0.57-0.16-1.43-0.31-1.43-1.13 0-0.92 0.98-1.12 2.27-0.98z"/>
						</g>
					</g>
					<path class="s1" d="m53.84 64.5q0.1 0 0.2-0.2 0.09-0.19 0.09-0.64v-6.72q0-0.45-0.09-0.63-0.1-0.2-0.2-0.21h4.4q1.24 0 2.07 0.24 0.84 0.24 1.34 0.66 0.52 0.42 0.79 0.96 0.26 0.53 0.35 1.14 0.09 0.6 0.09 1.21 0 0.56-0.09 1.17-0.09 0.58-0.37 1.13-0.26 0.53-0.78 0.97-0.51 0.42-1.35 0.67-0.82 0.25-2.05 0.25zm2.42-1.13h1.72q1.2 0 1.93-0.31 0.73-0.31 1.07-0.95 0.33-0.66 0.33-1.7v-0.25q0-1.09-0.31-1.72-0.3-0.65-1.03-0.91-0.73-0.28-1.99-0.28h-1.72q-0.41 0-0.49 0.05-0.07 0.05-0.07 0.34v5.31q0 0.3 0.07 0.36 0.08 0.06 0.49 0.06zm11.09 1.13q0.1 0 0.2-0.2 0.09-0.19 0.09-0.64v-6.72q0-0.45-0.09-0.63-0.1-0.2-0.2-0.21h2.16q-0.1 0-0.2 0.2-0.1 0.19-0.1 0.65v6.71q0 0.45 0.1 0.64 0.1 0.2 0.2 0.2zm6.84 0q0.1 0 0.19-0.2 0.1-0.19 0.1-0.64v-6.72q0-0.45-0.1-0.63-0.09-0.2-0.19-0.21h2.59q-0.03 0 0.03 0.2 0.05 0.19 0.26 0.67 0.09 0.18 0.3 0.64 0.22 0.46 0.53 1.11 0.31 0.63 0.66 1.36 0.35 0.72 0.71 1.48 0.36 0.74 0.69 1.4h0.01q0.34-0.67 0.7-1.41 0.36-0.76 0.73-1.5 0.36-0.74 0.67-1.37 0.31-0.65 0.52-1.1 0.22-0.46 0.31-0.64 0.19-0.45 0.25-0.64 0.07-0.2 0.04-0.2h2.58q-0.1 0-0.2 0.2-0.1 0.19-0.1 0.65v6.71q0 0.45 0.1 0.64 0.1 0.2 0.2 0.2h-2.15q0.1 0 0.19-0.2 0.09-0.19 0.09-0.64v-5.8h-0.02q-0.3 0.59-0.63 1.26-0.33 0.68-0.66 1.36-0.34 0.67-0.63 1.3-0.3 0.62-0.53 1.11-0.23 0.49-0.35 0.77-0.2 0.43-0.21 0.63 0 0.2 0.07 0.21h-1.96q0.07 0 0.07-0.18 0-0.2-0.21-0.66-0.1-0.24-0.33-0.7-0.22-0.46-0.51-1.08-0.28-0.63-0.62-1.31-0.34-0.7-0.67-1.4-0.32-0.7-0.62-1.31h-0.04v5.8q0 0.45 0.1 0.64 0.1 0.2 0.19 0.2zm16.26 0q0.1 0 0.2-0.2 0.1-0.19 0.1-0.64v-6.72q0-0.45-0.1-0.63-0.1-0.2-0.2-0.21h7.89v0.28l0.28 1.34q-0.35-0.15-1.24-0.32-0.88-0.18-2.12-0.18h-2.37q-0.42 0-0.5 0.07-0.07 0.06-0.07 0.35v1.6q0 0.3 0.07 0.36 0.08 0.06 0.49 0.06h2.31q0.81 0 1.3-0.09 0.5-0.1 0.66-0.19-0.06 0.18-0.13 0.43-0.07 0.25-0.11 0.5-0.04 0.26-0.04 0.47h-3.99q-0.41 0-0.49 0.05-0.07 0.04-0.07 0.37v1.73q0 0.32 0.07 0.38 0.07 0.06 0.49 0.06h4.07q0.81 0 1.3-0.19 0.51-0.19 0.66-0.37l-0.28 1.26v0.43zm12.57 0q0.1 0 0.2-0.2 0.1-0.19 0.1-0.64v-6.72q0-0.45-0.1-0.63-0.1-0.2-0.2-0.21h2.17q-0.01 0.04 0.1 0.25 0.13 0.21 0.45 0.62 0.1 0.12 0.4 0.5 0.32 0.38 0.8 0.94 0.48 0.55 1.02 1.2 0.56 0.65 1.12 1.32 0.58 0.66 1.1 1.26h0.02v-5.25q0-0.45-0.09-0.63-0.1-0.2-0.2-0.21h2.16q-0.1 0-0.2 0.2-0.1 0.19-0.1 0.65v6.71q0 0.45 0.1 0.64 0.1 0.2 0.2 0.2h-1.84q0.02-0.04-0.11-0.25-0.13-0.23-0.45-0.62-0.21-0.26-0.61-0.74-0.4-0.49-0.9-1.11-0.5-0.63-1.08-1.31-0.56-0.69-1.12-1.37-0.54-0.69-1.03-1.28h-0.05v5.84q0 0.45 0.1 0.64 0.1 0.2 0.2 0.2zm18.11 0.14q-1.52 0-2.7-0.14-1.18-0.14-1.69-0.28v-0.28l-0.28-1.5q0.19 0.23 0.74 0.48 0.56 0.25 1.48 0.43 0.93 0.17 2.2 0.17 1.15 0 1.74-0.15 0.6-0.17 0.81-0.45 0.22-0.3 0.22-0.67 0-0.45-0.36-0.72-0.37-0.26-1.09-0.42-0.72-0.17-1.78-0.29-1.39-0.18-2.23-0.48-0.84-0.31-1.22-0.81-0.37-0.5-0.37-1.27 0-0.66 0.39-1.18 0.4-0.52 1.22-0.81 0.81-0.31 2.07-0.31 1.45 0 2.53 0.14 1.08 0.14 1.53 0.28v0.28l0.42 1.26q-0.3-0.18-0.91-0.38-0.6-0.19-1.46-0.32-0.85-0.14-1.9-0.14-0.87 0-1.39 0.13-0.5 0.12-0.73 0.37-0.21 0.24-0.21 0.59 0 0.46 0.34 0.74 0.35 0.28 1.01 0.44 0.67 0.15 1.62 0.26 1.51 0.17 2.41 0.48 0.9 0.31 1.29 0.83 0.39 0.51 0.39 1.34 0 0.55-0.27 0.99-0.25 0.44-0.77 0.76-0.51 0.31-1.28 0.48-0.76 0.15-1.77 0.15zm8.49-0.14q0.1 0 0.2-0.2 0.09-0.19 0.09-0.64v-6.72q0-0.45-0.09-0.63-0.1-0.2-0.2-0.21h2.16q-0.1 0-0.2 0.2-0.1 0.19-0.1 0.65v6.71q0 0.45 0.1 0.64 0.1 0.2 0.2 0.2zm11.18 0.14q-2.41 0-3.49-1.15-1.06-1.16-1.06-3.23 0-1.33 0.46-2.28 0.48-0.97 1.47-1.49 1.01-0.53 2.62-0.53h0.43q1.58 0 2.56 0.52 1 0.52 1.46 1.48 0.46 0.97 0.46 2.3 0 2.07-1.06 3.23-1.07 1.15-3.42 1.15zm0.14-1.13h0.16q1.05 0 1.72-0.31 0.67-0.31 0.99-1.01 0.34-0.71 0.34-1.93 0-1.19-0.34-1.88-0.33-0.7-1-0.99-0.68-0.31-1.71-0.31h-0.16q-1.05 0-1.75 0.31-0.68 0.31-1.03 1.01-0.34 0.7-0.34 1.86 0 1.2 0.34 1.92 0.35 0.71 1.05 1.02 0.7 0.31 1.73 0.31zm9.24 0.99q0.1 0 0.2-0.2 0.1-0.19 0.1-0.64v-6.72q0-0.45-0.1-0.63-0.1-0.2-0.2-0.21h2.17q-0.01 0.04 0.1 0.25 0.13 0.21 0.45 0.62 0.1 0.12 0.4 0.5 0.33 0.38 0.8 0.94 0.48 0.55 1.02 1.2 0.56 0.65 1.12 1.32 0.58 0.66 1.1 1.26h0.02v-5.25q0-0.45-0.09-0.63-0.1-0.2-0.2-0.21h2.16q-0.1 0-0.2 0.2-0.1 0.19-0.1 0.65v6.71q0 0.45 0.1 0.64 0.1 0.2 0.2 0.2h-1.84q0.02-0.04-0.11-0.25-0.13-0.23-0.45-0.62-0.21-0.26-0.61-0.74-0.4-0.49-0.9-1.11-0.5-0.63-1.08-1.31-0.56-0.69-1.12-1.37-0.54-0.69-1.03-1.28h-0.05v5.84q0 0.45 0.1 0.64 0.1 0.2 0.2 0.2zm20.08 0q0.1 0 0.2-0.2 0.09-0.19 0.09-0.64v-6.72q0-0.45-0.09-0.63-0.1-0.2-0.2-0.21h2.16q-0.1 0-0.2 0.2-0.1 0.19-0.1 0.65v5.98q0 0.31 0.07 0.38 0.09 0.06 0.51 0.06h3.54q0.81 0 1.3-0.19 0.5-0.19 0.66-0.37l-0.28 1.4v0.29zm11.18 0q0.06 0 0.2-0.2 0.14-0.19 0.36-0.65 0.1-0.21 0.34-0.72 0.24-0.5 0.56-1.19 0.32-0.68 0.67-1.43 0.35-0.75 0.66-1.44 0.32-0.68 0.56-1.2 0.24-0.52 0.34-0.73 0.19-0.45 0.21-0.64 0.01-0.2-0.06-0.2h2.45q-0.06 0-0.04 0.2 0.01 0.19 0.19 0.64 0.1 0.21 0.33 0.73 0.22 0.5 0.53 1.19 0.32 0.68 0.66 1.43 0.33 0.72 0.65 1.41 0.33 0.69 0.56 1.2 0.24 0.52 0.35 0.75 0.23 0.46 0.41 0.65 0.2 0.2 0.29 0.2h-2.59q0.14-0.03 0.23-0.22 0.1-0.2-0.03-0.63-0.03-0.12-0.1-0.33-0.07-0.21-0.12-0.3-0.09-0.2-0.17-0.28-0.09-0.09-0.23-0.12-0.12-0.02-0.36-0.02h-3.58q-0.27 0-0.42 0.02-0.16 0.02-0.24 0.1-0.07 0.09-0.14 0.28-0.06 0.17-0.11 0.34-0.06 0.17-0.09 0.31-0.12 0.46-0.07 0.65 0.06 0.2 0.16 0.2zm3.62-3.02h2.82q0.4 0 0.44-0.07 0.05-0.07-0.04-0.31-0.18-0.45-0.42-0.97-0.24-0.53-0.49-1.05-0.24-0.53-0.47-1.01-0.23-0.49-0.4-0.85h-0.02q-0.3 0.62-0.61 1.29-0.3 0.66-0.58 1.24-0.27 0.58-0.44 0.94-0.17 0.37-0.17 0.37-0.09 0.22-0.07 0.32 0.05 0.1 0.45 0.1zm10.49 3.02q0.1 0 0.2-0.2 0.1-0.19 0.1-0.64v-6.72q0-0.45-0.1-0.63-0.1-0.2-0.2-0.21h4.97q1.14 0 1.81 0.25 0.69 0.25 0.98 0.73 0.31 0.46 0.31 1.09 0 0.46-0.18 0.81-0.17 0.34-0.44 0.56-0.26 0.21-0.53 0.31v0.03q0.91 0.21 1.37 0.77 0.46 0.55 0.46 1.41 0 0.69-0.32 1.25-0.32 0.55-1.03 0.87-0.7 0.32-1.87 0.32zm2.43-1.13h2.85q1.02 0 1.46-0.37 0.45-0.38 0.45-0.99 0-0.72-0.51-1.04-0.49-0.33-1.82-0.33h-2.42q-0.42 0-0.5 0.05-0.07 0.06-0.07 0.38v1.88q0 0.3 0.07 0.36 0.08 0.06 0.49 0.06zm0.01-3.71h2.55q0.78 0 1.15-0.3 0.37-0.31 0.37-0.99 0-0.58-0.37-0.86-0.37-0.29-1.28-0.29h-2.42q-0.42 0-0.5 0.06-0.07 0.04-0.07 0.36v1.6q0 0.3 0.07 0.36 0.08 0.06 0.5 0.06zm14.97 4.98q-1.53 0-2.7-0.14-1.18-0.14-1.7-0.28v-0.28l-0.28-1.5q0.2 0.23 0.74 0.48 0.56 0.25 1.49 0.43 0.92 0.17 2.2 0.17 1.14 0 1.73-0.15 0.6-0.17 0.81-0.45 0.23-0.3 0.23-0.67 0-0.45-0.37-0.72-0.36-0.26-1.09-0.42-0.71-0.17-1.78-0.29-1.38-0.18-2.22-0.48-0.84-0.31-1.22-0.81-0.38-0.5-0.38-1.27 0-0.66 0.39-1.18 0.41-0.52 1.22-0.81 0.81-0.31 2.07-0.31 1.46 0 2.54 0.14 1.08 0.14 1.52 0.28v0.28l0.42 1.26q-0.29-0.18-0.91-0.38-0.6-0.19-1.45-0.32-0.86-0.14-1.91-0.14-0.86 0-1.38 0.13-0.51 0.12-0.73 0.37-0.21 0.24-0.21 0.59 0 0.46 0.34 0.74 0.35 0.28 1 0.44 0.68 0.15 1.63 0.26 1.51 0.17 2.41 0.48 0.89 0.31 1.28 0.83 0.4 0.51 0.4 1.34 0 0.55-0.27 0.99-0.25 0.44-0.77 0.76-0.52 0.31-1.29 0.48-0.75 0.15-1.76 0.15z"/>
				</g>
			</g>
		</g>
	</g>
</svg>