<svg version="1.2" xmlns="http://www.w3.org/2000/svg" viewBox="0 0 3055 441" width="500" height="72">
	<defs>
		<clipPath clipPathUnits="userSpaceOnUse" id="cp1">
			<path d="m0 0h3055v441h-3055z"/>
		</clipPath>
	</defs>
	<style>
		.s0 { fill: #ffffff } 
	</style>
	<g id="Clip-Path" clip-path="url(#cp1)">
		<g>
			<path class="s0" d="m3022.82 318.5l31.5 22.5q-18.5 25-47 39.5-28.5 14-60.5 14-53.5 0-91.5-35.5-38.5-36-38.5-87.5 0-50.5 33.5-86.5 35-36.5 83-36.5 48.99 0 83 36.5 34 35.5 34 86.5 0 9.5-1.5 19.5h-191q6.99 28 31.5 46.5 24.99 18.5 57.5 18.5 22.99 0 43-10 20.49-10 33-27.5zm-41-113q-21-18.5-48.5-18.5-27.51 0-49 18.5-21 18.5-27 47h152.5q-6.51-28.5-28-47z"/>
			<path class="s0" d="m2694.3 394.5q-24.51 0-46-9-22.5-9-40.5-27l27.5-27q24.5 24.5 59 24.5 24.99 0 39.5-13 13.5-12 13.5-27 0-17.5-11.5-24-10.01-5.5-40.5-10.5-35.51-6-50-14.5-13-7-22-20-8.01-15-8-32.5 0-31 23.5-49 20.49-17 55.5-17 41.49 0 73.5 23.5l-22.5 31q-22.5-16-51-16-20.51 0-31.5 8.5-9 6.5-9 19 0 13 10 19 6.5 3.5 38 10 39.5 7.5 53 15.5 31 17.5 31 57 0 33.5-27 56-26.51 22.5-64.5 22.5z"/>
			<path class="s0" d="m2436.17 394.5q-46.99 0-80.5-36-33-36-33-87 0-51 36-87 36-36 87-36 50.5 0 86.5 36 36.51 36.5 36.5 87v115.5h-38.5v-47q-15.49 25-40.5 40-24.49 14.5-53.5 14.5zm69-182.5q-24.49-25-59.5-25-34.99 0-60 25-24.5 24.5-24.5 59.5 0 35 24.5 60 25.01 24.5 60 24.5 35.01 0 59.5-24.5 25-25 25-60 0-35-25-59.5z"/>
			<path class="s0" d="m2075.39 7v196q15.51-25 40-39.5 25.01-15 54-15 47.01 0 80 36 33.51 36 33.5 87 0.01 50.5-36.5 87-36 36-86.5 36-51 0-87-36-36-36-36-87v-264.5zm24.5 324.5q25.01 24.5 60 24.5 35.01 0 59.5-24.5 25-25 25-60 0-35-25-59.5-24.49-25-59.5-25-34.99 0-60 25-24.5 24.5-24.5 59.5 0 35 24.5 60z"/>
			<path class="s0" d="m1885.39 148.5q36.5 0 62 27 25.5 27 25.5 65.5v146h-38.5v-146q-0.01-22.5-16-38-15.51-16-38-16-22.01 0-38 16-16 15.5-16 38v146h-38.5v-146q-0.01-22.5-16-38-15.51-16-38-16-22.51 0-38.5 16-15.51 15.5-15.5 38v146h-38.5v-146q0-38.5 25.5-65.5 25.49-27 62-27 25.5 0 46.5 14 20.99 14 32 37 10.5-23 31.5-37 21.49-14 46.5-14z"/>
			<path class="s0" d="m1463.03 394.5q-47 0-80.5-36-33-36-33-87 0-51 36-87 36-36 87-36 50.5 0 86.5 36 36.5 36.5 36.5 87v115.5h-38.5v-47q-15.49 25-40.5 40-24.5 14.5-53.5 14.5zm69-182.5q-24.5-25-59.5-25-34.99 0-60 25-24.5 24.5-24.5 59.5 0 35 24.5 60 25.01 24.5 60 24.5 35 0 59.5-24.5 25-25 25-60 0-35-25-59.5z"/>
			<path class="s0" d="m1280.63 318.5l31.5 22.5q-18.51 25-47 39.5-28.5 14-60.5 14-53.51 0-91.5-35.5-38.5-36-38.5-87.5-0.01-50.5 33.5-86.5 35-36.5 83-36.5 48.99 0 83 36.5 33.99 35.5 34 86.5 0 9.5-1.5 19.5h-191q6.99 28 31.5 46.5 24.99 18.5 57.5 18.5 22.99 0 43-10 20.49-10 33-27.5zm-41-113q-21-18.5-48.5-18.5-27.51 0-49 18.5-21 18.5-27 47h152.5q-6.51-28.5-28-47z"/>
			<path class="s0" d="m1049.57 148.5q1.5 0 5 0.5 3.51 0 5 0v39q-6.99-1-10-1-27 0-46 19.5-19 19-19 46v134.5h-38.5v-134.5q0-43 30-73.5 30.51-30.5 73.5-30.5z"/>
			<path class="s0" d="m848 98q43 49 43 119 0 70-43 119-21.5 24.5-48 37-28 14-60 14h-140v-340h140q32 0 60 14 26.5 12.5 48 37zm-108 246.5q45 0 76.5-37 32-37.5 32-90.5 0-53-32-90-31.5-37.5-76.5-37.5h-97.5v255z"/>
			<path class="s0" d="m106.85 33.29c40.58-24.72 87.72-35.94 135-32.76l2.25 0.16c13.7 1.05 27.58 3.61 40.8 6.89l2.64 0.66c5.22 1.34 9.54 2.65 12.85 3.95 8.08 3.16 14.75 5.46 21.76 8.78q22.82 10.77 41.83 25.19 6.31 4.8 13.21 11.07h0.07l2.03 1.93c4.89 4.65 10.34 9.66 15.1 15.16l2.61 3.04q3.09 3.6 5.2 6.2l0.81 1v0.01q16.68 20.87 27.14 44.25 5.66 12.67 10.1 26.3l0.58 1.82 0.01 0.01v0.01c0.49 1.57 1.72 6.66 3.59 14.7q1.79 7.72 2.74 14.94 3.33 25.24 1.47 48.93-1.62 20.34-7.72 41.43-7.84 27.05-23.86 53.52c-2.21 3.65-6.32 9.53-12.15 17.47q-12.71 17.29-29.18 32.24-7.77 7.06-18.46 15.17c-14.6 11.1-31.46 20.22-47.83 27.37-2.31 1.01-7.34 2.91-14.83 5.64-18.56 6.77-38.38 10.64-59.36 12.09v0.01q-39.73 2.74-78.22-8.69-30.49-9.07-58.54-27h-0.01q-3.92-2.52-7.77-5.35-3-2.21-7.31-5.55h-0.01q-2.39-1.86-4.77-3.94-22.55-18.62-39.56-42.63v-0.01q-9.63-13.59-17.33-29.81-6.42-13.51-10.41-24.97c-0.76-2.18-2.15-7.16-4.11-14.57-10.05-37.83-9.52-77.33 1.13-115.01 6.56-23.2 16.76-45.52 30.7-65.26q5.21-7.37 8.38-11.56 7.71-10.2 16.61-19.07c1.92-1.92 4.47-4.66 6.76-6.72v-0.01q16.91-15.19 34.9-26.32zm82.66 398.52q9.44 1.37 18.96 1.88 1.18 0.07 2.37 0.12 3.58 0.15 7.16 0.18l-2.39-0.03q-14.31-0.29-28.46-2.51zm58.48 0.41q-6.52 0.81-13.23 1.27 7.66-0.53 15.09-1.51zm-101.76-11.39q0.9 0.33 1.81 0.66 1.82 0.65 3.65 1.26 3.65 1.23 7.34 2.33-7.38-2.19-14.61-4.93zm142.62 2.17c-10.06 3.44-20.52 6.04-31.38 7.85q8.08-1.35 15.86-3.28 0.88-0.22 1.76-0.45 7.87-2.03 15.44-4.7zm3.37-1.19l4.56-1.68q0.19-0.07 0.38-0.14-2.23 0.83-4.94 1.82zm-189.96-22.92q0.85 0.54 1.71 1.08 0.85 0.54 1.71 1.06 1.71 1.06 3.43 2.08 0.86 0.51 1.73 1.01 14.67 8.54 29.97 14.63-19.8-7.88-38.55-19.86zm197.93 19.97q0.53-0.2 1.02-0.39-0.49 0.19-1.02 0.39zm15.48-6.67q-4.42 2.12-8.83 4.05 4.41-1.93 8.83-4.05zm7.09-3.53q-2.79 1.44-5.59 2.81l1.5-0.74q2.05-1.02 4.09-2.07zm-65.6-2.05q-1.9 0.38-3.8 0.71 2.79-0.49 5.57-1.07zm11.87-363.26q-29.73-7.1-58.75-4.67l-1.87 0.16c-35.81 3.37-67.94 15.72-96.53 37.1-18.68 13.96-34.18 31.29-46.26 50.97-2.7 4.4-4.07 7.11-4.54 8.46-0.45 1.3-0.93 3.39-1.32 6.48-1.45 11.46-1.31 24.16-0.39 34.92 0.4 4.78 1.43 10.79 3.13 18.09l0.46 1.89c2.35 9.42 5.86 18.97 10.62 27.56 2.46 4.46 4.07 7.33 4.88 8.75l0.55 0.94v0.01c3.5 5.65 8.27 12.18 14.39 19.6l1.24 1.5h0.01c1.83 2.2 3.65 3.73 6.49 6.47l1.28 1.26q2.17 2.16 5.1 4.54l0.85 0.69q10.04 7.97 21.7 14.58l0.68 0.36c0.71 0.37 1.53 0.76 2.56 1.24 1.12 0.53 2.46 1.15 3.83 1.89l0.6 0.32v0.01c0.9 0.5 2.52 1.24 5.06 2.23 3.94 1.54 6.26 2.57 9.26 3.44l4.85 1.38c3.58 1.01 6.03 1.67 7.4 2.01l0.69 0.17h0.01q20.75 4.66 41.8 3c4.14-0.33 8.64-1.23 13.99-2l1.56-0.38 2.88-0.73c2.59-0.67 4.32-1.15 5.27-1.47q5.69-1.91 7.13-2.41l1.54-0.54c15.8-5.69 29.14-14.65 40.13-26.91 10.06-11.22 17.17-25.24 19.32-39.75l0.13-0.94c2.64-19.73-3.34-40.53-15.49-56.6q-5.32-6.52-10.17-10.95c-12.51-11.45-27.13-18.55-44.01-21.35-4.58-0.77-11.54-1.18-21.1-1.14q-17.56 0.08-29.44 0.12-0.09 65.24-0.02 132.79v0.01c0 7.41-3.61 14.91-11.94 17.98-3.64 1.33-7.48 1.65-11.3 0.56-3.74-1.07-6.89-3.32-9.51-6.17-6.44-7.02-6.02-14.4-6.02-21.11v-0.01q0.03-119.96 0-143.06c-0.01-1.39 0.02-3.53 0.42-5.71 0.37-2.06 1.22-5.15 3.64-7.61 1.8-1.83 4.2-3.88 7.14-4.73 2.34-0.69 4.96-0.87 7.58-0.82h0.01c2.56 0.06 14.73 0.05 36.73-0.03 17-0.05 28.18 0.14 33.01 0.64 20.41 2.15 39.17 8.84 56.19 20.05l1.03 0.69q15.88 10.72 27.85 26.35c3.82 4.92 7.14 10.22 9.88 14.94 6.47 11.18 10.31 23.56 12.59 35.74v0.01c7.83 41.92-9.39 82.49-41.83 108.86q-14.16 11.51-30.28 19.18c-7.41 3.52-16.72 6.99-24.8 9.15q-19.86 5.31-40.54 5.21c-43.4 0.67-86.36-14.81-119.16-43.52-16.16-14.15-29.52-31.49-39.35-50.58q0.95 8.89 2.68 17.69 5.9 29.99 22.26 56.27l1.07 1.7q6.87 10.77 17.45 23.28 11.16 12.38 24.18 22.75l0.95 0.74c2.49 1.88 6.84 4.89 13.2 9.12q15.05 9.99 33.29 16.92 20.96 7.95 44.42 10.95l1.51 0.19 1.71 0.19c35.78 3.93 73.16-4.1 105.69-20.96l1.99-1.05q30.74-16.38 53.96-42.82 2.27-2.58 5.23-6.38l1.02-1.29c2.28-2.84 3.94-4.66 5.8-7.43 3.84-5.71 5.89-8.78 6.27-9.38q9.47-14.93 16.26-32.16 6.68-16.98 9.56-34.57c5.74-35.09 1.06-70.75-13.98-102.96v-0.01c-8.26-17.69-19.56-33.78-32.94-47.63q-3.3-3.06-6.4-6.37c-0.73-0.76-3.81-3.5-9.84-8.59-4.76-4.02-12.38-9.29-23.09-15.87-15.48-9.5-33.16-16.67-53.09-21.44zm75.88 352.25q-6.17 4.16-12.67 7.89 1.37-0.78 2.72-1.59 0.73-0.43 1.45-0.87 2.89-1.74 5.71-3.57 1.41-0.92 2.79-1.86zm-77.19 8.62q-1.05 0.27-2.1 0.52 1.93-0.46 3.84-0.97zm-183.41-18.61q1.7 1.44 3.38 2.74 3.21 2.48 5.64 4.31l-1.71-1.29q-1.79-1.36-3.93-3.02-2.25-1.74-4.51-3.72zm-3.84-3.25q1.35 1.15 2.71 2.27l-1.36-1.13q-0.68-0.57-1.35-1.14zm-35.68-39.09q1.54 2.19 3.14 4.33 0.53 0.71 1.07 1.42 1.61 2.12 3.27 4.2 0.55 0.69 1.11 1.38 10.6 13.06 23.09 24.26-17.76-15.92-31.68-35.59zm331.14 27.16q-1.21 1.17-2.44 2.32 1.23-1.15 2.44-2.32zm9.26-9.49q-0.89 0.97-1.79 1.93l0.9-0.96q0.89-0.97 1.78-1.94zm-12.86-22.25q-0.9 1.1-1.74 2.08 0.84-0.98 1.74-2.08zm33.41-3.84q-1.13 1.61-2.45 3.44l1.75-2.44q0.36-0.51 0.7-1zm-230.8-6.55q5.8 0.72 11.65 1.03 0.97 0.06 1.94 0.1 3.9 0.16 7.81 0.15c-7.82 0.03-15.61-0.49-23.33-1.52zm-17.23-3.03q3.79 0.87 7.62 1.56 0.96 0.18 1.91 0.34 1.92 0.33 3.85 0.61l-1.93-0.3q-6.72-1.06-13.34-2.65zm254.31 0q-0.48 0.79-0.96 1.59l0.94-1.56q0.01-0.02 0.02-0.03zm-263.71-2.43q1.86 0.54 3.74 1.03l-1.87-0.5q-1.88-0.52-3.74-1.08zm-25.42-9.58c7.04 3.31 14.29 6.14 21.7 8.46l-1.85-0.59q-10.16-3.31-19.85-7.87zm130.78 5.69q-1.84 0.75-3.73 1.46 2.65-0.99 5.2-2.06zm5.71-2.47q-1.15 0.54-2.36 1.06 1.21-0.52 2.36-1.05zm4.16-2.01q-1.4 0.7-2.81 1.38l0.92-0.45q0.95-0.46 1.89-0.93zm-237.76-4.89q1.1 2.4 2.28 4.89l-0.78-1.65q-0.77-1.64-1.5-3.24zm71.9-10.97q7.98 5.61 16.54 10.25 1.71 0.93 3.44 1.81c-7.49-3.84-14.71-8.25-21.57-13.19zm-80.75-11.7q0.64 2.24 1.01 3.29 0.24 0.69 0.49 1.39 0.25 0.7 0.5 1.4 2.33 6.36 5.44 13.41l-0.68-1.56q-3.36-7.75-5.75-14.64-0.49-1.4-1.48-4.91zm133.21 11.92q2.67 0.77 4.85 1.38zm-63.31-8.55q3.76 3.14 7.69 6.04l-1.57-1.17q-3.89-2.95-7.62-6.13zm-44.57-59.04c5.47 12.14 12.38 23.65 20.56 34.16q0.47 0.61 0.95 1.21 0.96 1.21 1.93 2.39 0.49 0.6 0.99 1.18 2.96 3.54 6.12 6.89 1.58 1.68 3.2 3.31 3.26 3.27 6.69 6.34l-1.14-1.03c-16.64-15.16-30.05-33.91-39.3-54.45zm222.01 55.17q-0.23 0.16-0.47 0.31 0.94-0.61 1.85-1.24zm-249.56-7.6q0.68 2.55 1.24 4.57l-0.59-2.15q-0.31-1.15-0.65-2.42zm149.49-0.99q-0.46 0.16-0.91 0.29 0.22-0.06 0.45-0.14zm3.05-1.67q0.08-0.06 0.16-0.13-0.08 0.07-0.16 0.13zm-155.71-10.35q1.09 5.18 2.46 10.33l-0.45-1.72q-1.1-4.29-2.01-8.61zm139.43 8.26c-1.09-1.18-1.89-2.35-2.48-3.54l0.23 0.44q0.24 0.45 0.53 0.89 0.28 0.44 0.61 0.88 0.5 0.66 1.11 1.33zm-4.14-11.46q0.04 1.13 0.14 2.17 0.02 0.26 0.05 0.52-0.14-1.28-0.19-2.69zm-139.64-31.65q0.18 4.38 0.53 8.75 0.36 4.37 0.9 8.73 0.98 7.85 2.56 15.63l-0.34-1.73c-2.02-10.39-3.23-20.87-3.65-31.38zm139.61-98.75q0.01 35.5-0.01 125.47l0.01-95.75q0-17.88 0-29.72zm294.31 108.81q0.27-2.42 0.48-4.83l0.1-1.23q0.06-0.71 0.11-1.43-0.05 0.72-0.11 1.43-0.24 3.02-0.58 6.06zm-136.06-12.37q-0.16 0.78-0.32 1.55 0.16-0.77 0.32-1.55zm-298-2.95q0.03 1.76 0.08 3.51l-0.05-1.76q-0.02-0.87-0.03-1.75zm298.42 0.56q-0.12 0.75-0.26 1.5l0.13-0.75q0.13-0.75 0.24-1.5zm-271.17-16.56q1.29 4.41 2.83 8.75 0.25 0.72 0.52 1.44-1.84-5.04-3.35-10.19zm-26.88 0.23q-0.21 3.51-0.3 7.01l0.05-1.75q0.1-2.63 0.25-5.26zm298.43-5.21q0.06 0.52 0.12 1.04 0.05 0.51 0.1 1.03 0.19 2.08 0.28 4.16l-0.05-1.04q-0.14-2.6-0.45-5.19zm-273.6 1.59q-0.04 0.3-0.06 0.66l0.04-0.53q0.01-0.07 0.02-0.13zm383.89-13.62q0.8 5.92 1.21 11.87-0.41-5.95-1.21-11.87zm-383.34 12.38q0.09 0 0.17 0.06-0.04-0.03-0.08-0.04zm0 0q-0.09-0.01-0.18 0.04-0.08 0.05-0.12 0.14l0.05-0.08q0.03-0.04 0.07-0.06 0.09-0.05 0.18-0.04zm271.43-9.59q0.12 0.5 0.23 1.01 0.34 1.53 0.62 3.07 0.19 1.03 0.35 2.06l-0.17-1.03q-0.44-2.57-1.03-5.11zm24.55-1.14q0.1 0.53 0.2 1.07l-0.2-1.06q0 0 0-0.01zm-26.51-5.91q0.81 2.49 1.46 5.02l-0.26-1.01q-0.69-2.52-1.53-5zm111.19-10.84q1.48 6.66 2.45 13.41l-0.25-1.68q-0.91-5.9-2.2-11.73zm-115.9-0.78q0.24 0.47 0.46 0.95 0.23 0.47 0.44 0.94 1.76 3.8 3.15 7.75l-0.36-0.99q-1.79-4.91-4.15-9.58zm-37.34-38.76q9.4 5.23 17.64 12.76 0.66 0.62 1.34 1.26 0.33 0.32 0.67 0.65 4.38 4.28 8.94 9.89 4.1 5.41 7.32 11.41l-0.5-0.92q-3.04-5.5-6.82-10.49-5.61-6.91-10.95-11.8-8.56-7.82-18.36-13.16zm145.29 13.33q2.8 7.23 4.96 14.62l-0.48-1.64q-1.99-6.56-4.48-12.98zm28.86 8.28q0.11 0.39 0.25 0.92-0.14-0.53-0.25-0.92zm-32.88-17.83q1.79 3.94 3.39 7.94l-0.65-1.59q-1.31-3.2-2.74-6.35zm27.65 2.74q-0.15-0.38-0.29-0.75 0.14 0.37 0.29 0.75zm-376.56-1.36q-0.02 0.18-0.04 0.36 0.02-0.2 0.04-0.39zm316.42-49.88q1.92 2.07 3.78 4.19 0.62 0.71 1.24 1.43 1.22 1.43 2.42 2.89 1.2 1.45 2.37 2.94 3.52 4.45 6.77 9.12 0.54 0.78 1.07 1.56c4.98 7.32 9.44 15.03 13.3 23.06l-0.84-1.71c-8.17-16.56-18.89-31.66-31.4-44.85zm-110.96 43.54q0.37 0.19 0.73 0.38l-0.73-0.38q-0.37-0.19-0.73-0.38zm-8.28-3.78q3.47 1.38 6.8 3.03l-0.74-0.36q-3.35-1.63-6.83-2.97zm-194.83-1.17q-0.26 0.6-0.44 1.11l0.15-0.41q0.13-0.34 0.29-0.7zm161.48-5.34q8.53 0.25 13.86 1.13 7.68 1.28 14.8 3.67 0.4 0.13 0.79 0.26 1.18 0.41 2.35 0.85l-0.78-0.29q-8.2-3-17.16-4.49-5.82-0.96-15.44-1.17zm-160.51 3.28q-0.22 0.44-0.42 0.84l0.27-0.54q0.07-0.15 0.15-0.3zm2.81-5.05q-0.46 0.78-0.88 1.5 0.42-0.72 0.88-1.5zm88.28-14.01c-0.18 1.32-0.2 2.66-0.2 3.78l0.01-1.04c0.02-0.86 0.07-1.81 0.19-2.74zm214.71-24.79q1.54 1.58 3.12 3.09 0.39 0.38 0.79 0.75-2.39-2.25-4.67-4.63zm-6.35-5.97q1.53 1.32 2.61 2.29 0.53 0.48 0.96 0.87 0.64 0.59 1.03 0.98l-0.29-0.29q-1.57-1.51-5.95-5.27zm-253.01-5.58q-1.36 1.1-2.7 2.22 1.34-1.12 2.7-2.22zm225.46-14.44q9.79 6.08 16.28 10.83 0.65 0.47 1.27 0.94 1.84 1.38 3.4 2.64l-1.07-0.85q-7.7-6.09-21.87-14.79zm-220.09 10.27q-1.82 1.36-3.6 2.76l1.79-1.39q0.9-0.69 1.81-1.37zm264.84-7.87l-1.67-1.51q-0.07-0.06-0.14-0.12 0.9 0.8 1.81 1.63zm-292.92-0.56q-0.11 0.09-0.21 0.18 0.17-0.15 0.35-0.3zm243.12-4.9q-0.77-0.45-1.55-0.89 1.55 0.88 3.08 1.8zm-12.75-6.75q2.47 1.18 4.88 2.42l-1.61-0.82q-2.43-1.22-4.92-2.37zm-202.99-8.79q0.63-0.4 1.26-0.8l0.04-0.02q-0.65 0.41-1.3 0.82zm6.46-3.95q-1.48 0.87-2.95 1.76l1.88-1.13q0.53-0.32 1.07-0.63zm123.64-6.07q1.96 0.12 3.93 0.29 0.98 0.08 1.96 0.18 1.97 0.18 3.94 0.41 0.99 0.12 1.97 0.24 2.96 0.37 5.93 0.84l-1.98-0.3q-7.9-1.16-15.75-1.66zm-32.8 0.78q-2.2 0.25-4.38 0.54 2.19-0.29 4.41-0.54zm17.11-1.13q-6.84 0.14-13.65 0.78l1.95-0.18q5.84-0.48 11.7-0.6zm97.76-3.79l-1.09-0.51q-0.03-0.01-0.05-0.02 0.57 0.26 1.14 0.53zm-18.26-7.41q2.4 0.92 4.6 1.76-2.2-0.84-4.6-1.76zm-136.83-4.15q-0.24 0.07-0.47 0.14 1.27-0.37 2.55-0.72zm31.73-6.69q-0.13 0.01-0.27 0.03 1.21-0.16 2.42-0.32zm180.06 325.19l0.02-0.02q0.35-0.44 0.7-0.87-0.36 0.44-0.72 0.89z"/>
		</g>
	</g>
</svg>