<svg width="142" height="28" viewBox="0 0 142 28" fill="none" xmlns="http://www.w3.org/2000/svg">
<path d="M38.7919 14L24.7919 0L19.4073 5.38456L14.0227 0L0.0227051 14L14.0227 28L19.4073 22.6154L24.7919 28L38.7919 14ZM14.0227 22.6154L5.40726 14L14.0227 5.38463L16.715 8.07699L10.7919 14L16.715 19.9231L14.0227 22.6154ZM24.7919 5.38463L33.4073 14L24.7919 22.6154L16.1765 14L24.7919 5.38463Z" fill="white"/>
<path d="M61.694 6.70974V9.27858H54.5943V12.5149H60.5411V15.0636H54.5943V18.664H61.694V21.2329H51.6613V6.70974H61.694Z" fill="white"/>
<path d="M67.7624 6.70974H72.7585C77.3299 6.70974 80.1213 9.5416 80.1213 13.9713C80.1213 18.401 77.33 21.2329 72.7585 21.2329H67.7624V6.70974ZM72.7585 18.6843C75.5701 18.6843 77.1883 16.8234 77.1883 13.9713C77.1883 11.099 75.5701 9.25832 72.7383 9.25832H70.6751V18.6842H72.7585V18.6843Z" fill="white"/>
<path d="M85.9877 6.70974H88.9611V18.664H95.6361V21.2329H85.9877V6.70974Z" fill="white"/>
<path d="M104.213 21.2329H101.239V6.70974H104.213V21.2329Z" fill="white"/>
<path d="M123.004 21.2329H120.415L113.618 11.2204V21.2329H110.766V6.70974H113.78L120.152 16.2368V6.70974H123.004V21.2329Z" fill="white"/>
<path d="M132.551 13.3038L138.154 6.70967H141.633L136.192 12.9195L141.977 21.2329H138.498L134.23 15.1647L132.551 17.066V21.2329H129.578V6.70974H132.551V13.3038Z" fill="white"/>
</svg>
