<svg width="170" height="64" viewBox="0 0 170 64" fill="none" xmlns="http://www.w3.org/2000/svg">
<path d="M65 21.9987H78.5987V26.6277H70.1434V30.1716H77.7425V34.6014H70.1434V42.0013H65V21.9987Z" fill="white"/>
<path d="M85.6865 21.9987H90.8864L97.9444 41.9984H92.5453L91.3739 38.4188H85.0889L83.9473 41.9984H78.6612L85.6865 21.9987ZM90.0866 34.3279L88.2284 28.5037L86.3703 34.3279H90.0866Z" fill="white"/>
<path d="M96.1635 21.9987H101.762L105.448 34.3844L109.105 21.9987H114.59L107.848 41.9984H102.906L96.1635 21.9987Z" fill="white"/>
<path d="M115.369 32.2289V31.8008C115.369 25.8309 119.285 21.63 124.654 21.63C130.053 21.63 133.909 25.7715 133.909 31.7711V32.1992C133.909 38.1691 129.994 42.37 124.625 42.37C119.228 42.37 115.369 38.2285 115.369 32.2289ZM128.656 32.1695V31.8543C128.656 28.3967 127 26.2828 124.627 26.2828C122.255 26.2828 120.629 28.3699 120.629 31.8246V32.1397C120.629 35.5974 122.285 37.7112 124.657 37.7112C127.056 37.7142 128.656 35.6271 128.656 32.1695Z" fill="white"/>
<path d="M136.668 21.9987H144.526C147.211 21.9987 149.241 22.7122 150.526 24.0263C151.641 25.1412 152.268 26.6842 152.268 28.7118V28.8545C152.268 31.8246 150.811 33.6827 148.697 34.7412L152.812 41.9984H147.012L143.61 35.7996H141.782V41.9984H136.668V21.9987ZM144.327 31.7146C146.069 31.7146 147.098 30.7156 147.098 29.1161V29.0597C147.098 27.3442 146.013 26.488 144.297 26.488H141.782V31.7176H144.327V31.7146Z" fill="white"/>
<path d="M54.0768 20.6556C53.7152 20.1775 53.1207 19.9325 52.5291 20.0162C52.2094 20.061 45.146 21.0858 40.5655 24.8595C39.7737 24.498 38.6413 24.1365 37.2729 24.1365C35.9044 24.1365 34.772 24.498 33.9802 24.8595C29.3998 21.0858 22.3394 20.061 22.0197 20.0162C21.4251 19.9355 20.8335 20.1775 20.4719 20.6556C20.3315 20.8438 17 25.3137 17 32.0006C17 38.6875 20.3285 43.1574 20.4719 43.3457C20.7887 43.761 21.2787 44 21.7896 44C21.8643 44 21.942 43.994 22.0197 43.9851C22.3394 43.9402 29.4028 42.9154 33.9832 39.1417C34.775 39.5032 35.9074 39.8648 37.2759 39.8648C38.6443 39.8648 39.7767 39.5032 40.5685 39.1417C45.149 42.9154 52.2123 43.9402 52.532 43.9851C52.6097 43.997 52.6844 44 52.7621 44C53.276 44 53.766 43.761 54.0798 43.3457C54.2202 43.1574 57.5517 38.6875 57.5517 32.0006C57.5517 25.3137 54.2202 20.8438 54.0768 20.6556ZM20.3106 32.0006C20.3106 27.9789 21.7776 24.8835 22.5874 23.4791C24.6161 23.8915 29.1906 25.0568 32.1038 27.6084V30.3453H26.7256C25.8113 30.3453 25.0703 31.0863 25.0703 32.0006C25.0703 32.9149 25.8113 33.6559 26.7256 33.6559H32.1038V36.3928C29.1966 38.9355 24.6102 40.1068 22.5814 40.5221C21.7687 39.1267 20.3106 36.0522 20.3106 32.0006ZM51.9643 40.5191C49.9326 40.1038 45.3521 38.9325 42.4479 36.3928V33.6559H47.8261C48.7404 33.6559 49.4814 32.9149 49.4814 32.0006C49.4814 31.0863 48.7404 30.3453 47.8261 30.3453H42.4479V27.6084C45.3551 25.0657 49.9415 23.8945 51.9703 23.4821C52.783 24.8775 54.2411 27.949 54.2411 32.0036C54.2381 36.0193 52.7741 39.1148 51.9643 40.5191Z" fill="white"/>
</svg>
