<svg version="1.2" xmlns="http://www.w3.org/2000/svg" viewBox="0 0 500 87" width="500" height="87">
	<defs>
		<clipPath clipPathUnits="userSpaceOnUse" id="cp1">
			<path d="m500 0v87h-500v-87z"/>
		</clipPath>
	</defs>
	<style>
		.s0 { opacity: .98;fill: #ffffff } 
	</style>
	<g id="Clip-Path" clip-path="url(#cp1)">
		<g>
			<path class="s0" d="m495.06 25.36h4.49l0.16 0.16v38.69h-4.97l-0.16-0.16v-38.21z"/>
			<path class="s0" d="m469.14 25.68h5.44l0.48 0.48 13.44 38.05h-4.96l-0.48-0.48-3.04-8.19h-16.33l-0.48 0.48-3.04 8.19h-4.8l-0.16-0.81zm2.4 6.75l-6.4 18.29 0.32 0.65h13.12l-6.4-17.98q0.32-1.29-0.64-0.96z"/>
			<path class="s0" d="m59.72 0h3.21l2.24 1.28h1.6l4.48-0.96h4.16l1.6 0.64 3.2 0.32 2.4 1.77 0.64 1.93-1.28 2.24 0.48 0.48h2.56l3.2 0.97 1.76 1.44 0.8 1.77 4.17-0.96h4.8q5.73 1.31 9.92 4.17 5.49 3.48 9.76 8.18 4.11 4.4 6.73 10.28l1.28 4.17 0.32 2.89q-0.5 2.07-2.08 3.05h-1.92l-3.21-2.57-0.16 1.13 0.64 1.6v5.78l-0.96 5.46-1.28 3.53q-1.09 3.39-3.68 5.3-1.16 0.91-3.52 0.64l-4.64-2.25-0.96 6.9q-0.96 3.86-3.36 6.26-1.05 0.87-3.2 0.64l-0.48 0.49-0.32 1.28-2.4 3.37-4.81 2.57-4.16 0.32-1.6-0.32-0.32 0.32h-4.48l-4.8-1.93-2.88 1.93-5.44 2.25-2.56 0.64h-4.48q-4.43-1.02-6.89-4.01l-0.48-0.81q-0.45-0.83-1.92-0.64l-2.24 1.29-3.84 1.28h-4.8l-0.32-0.32h-4.48l-1.92-0.64-3.68-2.73-1.93-4.17-0.8-0.81-1.6 0.32q-2.29-0.58-3.36-2.4l-1.92-5.14-0.32-5.14-0.48-0.48q-1.99 0.26-2.88 1.61l-2.88 0.32-2.72-1.77-1.92-2.89-2.24-7.06q0.4-1.53-0.32-1.93v-7.06l0.32-0.32v-2.09l-3.04 2.25h-2.24q-2-1.2-1.76-4.65 2.96-11.48 10.72-18.14 5.19-5.07 12.16-8.35l4.8-1.6h5.45q0.56 0.88 2.56 0.32l4.8 1.6 5.28 0.64 1.28-4.01 4.64-5.62q3.23-2.7 8-3.85zm1.13 4.17l-5.77 3.21-4.16 4.5-1.6 3.21v2.57l-0.32 0.32q-2.88 0-4.16-1.29h-1.6l-5.76 3.54q-2.56 1.92-3.84 5.13l-3.52 15.73-2.25 6.42-2.88 5.78-1.28 3.85-0.32 3.54-0.32 0.32q-0.32 1.6 0.32 2.24v2.25h0.64l3.52-5.46q5.45-7.06 15.69-8.99h3.2l0.32 0.33 1.92-0.65-1.6-1.28-3.84-0.96-4.16 0.64-5.76 3.53-1.6-1.61 0.32-0.64q2.88-3.85 8.32-4.81h3.2l2.56 0.64 3.52 1.92 1.92 2.25v1.29l-2.24 1.28-5.12 0.64-4.16 1.29-6.08 3.53-5.45 5.78-1.6 2.89-0.96 3.85h1.28l7.05-3.21q-1.6 2.25-2.24 6.1-0.32 2.89 0.64 4.81l1.92 1.61 2.24 0.64q0.32-0.64 2.24-0.32l2.56-1.28h0.96l0.32 1.6h1.92l6.72-3.53 1.28 0.32 6.4 5.46 2.25 1.28q2.56 0.32 4.16-0.32l8.96-5.14 1.92-0.64q3.84 0.64 6.72 2.57l0.96-2.25h1.28l2.88 2.25 1.28 0.32q2.57 0.32 3.85-0.96l1.28-1.93-0.32-5.78-1.92-4.81q3.2 0.64 5.76 2.25l0.64-0.33v-1.6l-0.96-2.89-2.24-3.53q-3.52-4.5-9.29-6.74l-3.84-1.29-6.4-1.28-0.96-0.96q-0.32-1.61 0.64-1.93 2.88-2.89 7.36-3.85h3.52l2.56 0.64q3.53 1.28 5.45 4.17 0.32 1.93-0.96 2.25l-3.85-2.57-4.16-1.6-3.52 0.32-4.48 1.6 0.96 0.64h4.8l5.12 1.29 6.09 3.53q4.8 3.53 6.72 10.27-0.32 0.64 0.96 0.32l0.64-0.96q-0.32-1.6 0.32-1.93v-4.81l-1.28-5.78-4.48-10.27-1.92-7.07-0.32-3.85-0.64-2.24v-2.25l-1.92-4.5q-4.17-6.1-12.49-7.7l-0.64-0.64 2.24-0.97 4.8-0.32 0.32-0.32-2.56-1.6-4.16-0.32-0.32-0.33h-4.8l-6.08 1.29-4.16 1.6q-2.24 2.25-5.13 2.89l1.29-1.92q3.52-3.86 8.32-6.42l7.68-2.89 0.64-0.97-4.48 0.32-1.6 0.65-2.88 0.32q-5.12 1.6-8.33 4.81-3.2 2.57-5.12 6.42l-0.96 0.65v-1.29l3.52-7.38 4.49-4.18zm36.81 10.28l-0.32 0.32h-3.2l-2.88 0.96h-1.93l-0.64 0.96 5.45 2.89q2.56 1.93 3.84 5.78l2.24 14.45 3.84 10.91 1.92 3.54 2.56 3.21 2.88 2.56 0.96 0.33 1.6-0.65 2.56-5.13 1.28-5.46v-8.99l-0.64-2.25v-1.6l-0.64-2.57-2.24-4.82v-0.64l0.96 0.32 5.44 6.42q0.65 1.29 2.57 1.29-1.6-5.46-5.13-9.31-5.44-6.42-12.48-10.6l-3.84-1.6h-3.52zm-70.74 0.32l-5.45 2.25-7.04 5.13q-5.76 5.14-9.28 12.52-0.32 0.97 0.64 0.65l5.44-5.78q-0.32-0.97 0.64-0.64v-0.65h0.96v1.61l-0.96 1.6-1.28 4.5-0.32 4.17-0.32 0.32v7.06q0.96 0.33 0.32 2.25 0.96 5.14 3.2 9.31l1.6 0.64 2.24-0.96q3.84-3.21 5.76-8.35v-0.96l0.96-1.6v-0.97l1.6-3.21 1.61-4.81 2.56-13.17 1.92-3.53q2.56-3.53 7.36-5.13 0.64 0.32 0.32-0.65l-1.28-0.64-4.48-0.96z"/>
			<path class="s0" d="m268.27 23.11h9.12l0.48 0.49 0.16 13.64 0.65-0.96q1.9-1.94 4.8-2.89 2.53-0.84 6.4-0.32l4.48 1.92 1.76 1.77 2.24 4.17 0.64 3.21v20.07h-9.28v-18.14l-1.6-3.69-3.04-1.61h-2.56q-2.65 0.4-3.68 2.41l-0.97 2.25v18.78h-9.44l-0.16-0.16z"/>
			<path class="s0" d="m410.72 23.11h9.12l0.48 0.49 0.16 21.99 8.8-12.2h11.37l0.16 0.48-12.17 14.45v0.96l12.49 14.77-11.37 0.16-9.28-12.84-0.16 12.84h-9.44l-0.16-0.16z"/>
			<path class="s0" d="m148.23 25.36l25.29 0.16-0.32 0.32v6.42l0.16 0.49h-15.36l-0.48 0.48v7.86h11.84v7.39h-11.84v15.73h-9.29z"/>
			<path class="s0" d="m305.72 25.36h17.45q0.4 0.72 1.92 0.32 7.75 1.54 11.68 6.9 2.14 2.84 3.2 6.75l0.64 5.45-0.32 0.33v3.21l-0.96 3.85q-1.62 4.46-4.96 7.22-3.66 3.39-9.6 4.5-2-0.57-2.56 0.32h-16.49zm9.29 8.02v22.47l0.64 0.33 7.04-0.33 4.48-1.92q2.24-1.61 3.2-4.5l0.64-3.53-0.64-5.45-2.24-4.18-3.52-2.25-2.24-0.64z"/>
			<path class="s0" d="m214.01 25.68h9.45v7.71h6.08v7.7h-6.08v13.33l1.12 1.44 0.64 0.32h4.32v8.03h-6.24l-4.8-1.29-3.05-2.73-1.28-3.53v-14.77l-0.32-0.8h-3.52v-7.7h3.36l0.16-0.48 0.32-0.33v-6.42z"/>
			<path class="s0" d="m191.93 32.75l6.08 0.96q3.63 1.33 5.92 4.01 2.27 2.54 3.2 6.42l0.32 6.9h-21.28q-0.32 0-0.16 1.45 0.49 2.23 2.08 3.37 1.36 1.2 3.84 1.28l2.56-0.64 2.08-2.08 0.16-0.49h9.92l-0.16 0.49q-1.16 4.45-4.32 6.9l-5.76 2.89-7.04 0.32q-6.48-1.21-9.77-5.62l-2.24-4.17-0.64-2.57v-3.21l-0.32-0.32 0.32-0.32v-2.89l0.96-3.54q1.49-3.64 4.32-5.93 2.19-1.82 5.45-2.57l4.16-0.32zm-1.44 7.7l-1.92 0.96q-2.56 1.29-2.56 4.5h11.52l0.32-0.32q0-2.25-0.96-2.89l-3.2-2.25z"/>
			<path class="s0" d="m248.27 32.75l3.52 0.32 4.8 1.6 4.32 4.01 1.6 2.89 0.64 2.73h-9.76l-0.48-0.48-0.32-1.12-2.4-1.61-1.92-0.32-2.57 0.64-1.76 1.77q-1.96 2.68-1.28 8.02 0.58 3.12 2.72 4.66 1.4 1.01 4.17 0.64 2.06-0.49 3.04-2.08l0.8-1.45h9.6l0.16 0.8q-1.44 4.98-4.96 7.87l-5.44 2.57-1.6 0.32h-5.45q-5.9-1.14-9.12-4.98-2.26-2.54-3.2-6.42l-0.32-6.74 0.96-4.17 3.2-5.3 4.64-2.89 3.2-0.96h2.89z"/>
			<path class="s0" d="m359.34 32.75l6.08 0.96q3.64 1.33 5.92 4.01 2.27 2.54 3.21 6.42l0.32 6.9h-21.29q-0.32 0-0.16 1.45 0.49 2.23 2.08 3.37 1.36 1.2 3.84 1.28l2.56-0.64 2.08-2.08 0.16-0.49h9.93l-0.16 0.49q-1.17 4.45-4.33 6.9l-5.76 2.89-7.04 0.32q-6.48-1.21-9.76-5.62l-2.24-4.17-0.64-2.57v-3.21l-0.32-0.32 0.32-0.32v-2.89l0.96-3.54q1.48-3.64 4.32-5.93 2.18-1.82 5.44-2.57l4.16-0.32zm-1.44 7.7l-1.92 0.96q-2.56 1.29-2.56 4.5h11.52l0.32-0.32q0-2.25-0.96-2.89l-3.2-2.25z"/>
			<path class="s0" d="m391.03 32.75l5.44 0.64q3.06 0.78 4.96 2.73 2.9 2.51 3.21 7.22h-8.49l-0.16-0.8-1.76-2.09q-1.28-0.96-3.84-0.64l-2.4 1.76v1.29l1.44 1.44 9.92 2.89q2.69 1.16 4.32 3.37l0.97 1.93 0.32 3.85q-0.72 4.09-3.69 5.94l-4.48 1.93-7.04 0.32-3.84-0.97-2.56-1.28-3.04-2.73q-1.87-1.94-1.92-5.3h9.12l0.16 0.81 1.44 1.76 2.24 0.97h1.28l2.24-0.65 1.12-1.12v-1.6l-1.44-1.45-10.24-2.89-3.36-2.41q-2.24-2.08-1.6-7.06 0.75-3.25 3.04-4.98l2.56-1.6 3.2-0.96h2.56z"/>
			<path class="s0" d="m61.97 52.65l4.8 0.32 3.52 1.28 1.76 1.45 0.96 2.57q-1.04 4.57-4.32 6.9l-4 1.28q1.07 3.12 3.68 5.14 1.94 2.71 7.36 1.93l4.32-2.57q-0.6 2.78-3.04 4.17l-3.84 1.61h-3.52q-4.37-1.08-6.4-4.5l-3.52 2.89-2.25 0.96q-2.61-0.53-3.84 0.33l-4.16-1.93-1.44-1.44-0.64-1.77q1.92 0.31 3.04 1.93l5.12 0.32q3.02-1.15 4.65-3.7l1.6-3.37-4.81-1.92-2.56-4.02-0.32-3.85 1.76-2.08z"/>
		</g>
	</g>
</svg>