<svg width="170" height="64" viewBox="0 0 170 64" fill="none" xmlns="http://www.w3.org/2000/svg">
<path d="M50 38V19H28V45H43V48H53V38H50ZM25 16H53V48H25V16ZM45 40H53L45 48V40ZM34 25H44V28H34V25ZM34 30H42V33H34V30ZM34 35H37V38H34V35Z" fill="white"/>
<path d="M67.822 22.3099V24.6099H66.556C65.858 24.6099 65.471 24.9979 65.471 25.7209V27.2969H67.822V29.9069H65.471V40.8899H62.37V29.9069H61V27.2969H62.37V25.6429C62.37 23.8349 63.093 21.9999 65.574 21.9999C66.298 21.9999 67.306 22.1549 67.822 22.3099ZM69.217 27.2969H72.317V40.8899H69.217V27.2969ZM69.217 22.2069H72.317V25.0229H69.217V22.2069ZM75.108 22.2069H78.209V40.8899H75.108V22.2069ZM83.662 32.6199H87.279C87.279 30.6569 86.763 29.5199 85.626 29.5199C84.308 29.5199 83.765 30.6569 83.662 32.6199ZM90.535 34.0939V34.8689H83.636C83.662 37.2989 84.204 38.6669 85.729 38.6669C86.789 38.6669 87.46 37.7119 87.46 36.0839H90.535C90.535 39.5719 88.495 41.1999 85.729 41.1999C82.24 41.1999 80.406 38.9779 80.406 34.0939C80.406 29.2099 82.266 26.9869 85.626 26.9869C88.908 26.9869 90.535 29.2099 90.535 34.0939ZM101.905 30.6829C101.905 30.9669 101.879 31.2509 101.879 31.2769H98.726C98.726 30.0629 98.132 29.5199 97.202 29.5199C96.246 29.5199 95.6 30.0359 95.6 30.8639C95.6 33.4989 102.241 31.4319 102.241 36.8069C102.241 40.1149 100.071 41.1999 97.176 41.1999C94.049 41.1999 92.24 39.4679 92.24 36.8839C92.24 36.7549 92.266 36.5739 92.266 36.5739H95.419V36.7549C95.445 38.2019 96.401 38.6669 97.279 38.6669C98.1059 38.6669 99.088 38.3059 99.088 37.1939C99.088 34.3259 92.448 36.3679 92.448 31.1219C92.448 28.3569 94.592 26.9869 97.305 26.9869C99.89 26.9869 101.905 28.3569 101.905 30.6829ZM109.838 27.2969V29.9069H107.874V37.4789C107.874 38.2019 108.261 38.5889 108.959 38.5889H109.838V40.8889C109.398 41.0449 108.572 41.1989 107.977 41.1989C105.496 41.1989 104.773 39.3649 104.773 37.5569V29.9069H103.403V27.2969H104.773L105.238 23.4729H107.874V27.2969H109.838ZM113.765 37.0909C113.765 38.0209 114.23 38.6159 115.29 38.6159C116.763 38.6159 117.33 37.2459 117.33 35.6439V34.8689C115.523 34.8689 113.765 35.3339 113.765 37.0909ZM120.458 30.9929V37.6859C120.458 38.3319 120.82 38.5899 121.182 38.5899H121.802V40.7869C121.465 40.9669 120.897 41.1999 119.967 41.1999C118.727 41.1999 117.874 40.4769 117.564 39.4169H117.434C116.659 40.5019 115.806 41.1999 113.998 41.1999C112.731 41.1999 110.587 40.5279 110.587 37.3759C110.587 33.7059 113.377 32.6209 117.331 32.6209V31.1989C117.331 30.2689 117.099 29.5199 115.911 29.5199C114.643 29.5199 114.282 30.2949 114.282 30.9409V31.3279H111.258C111.232 31.1739 111.232 30.9929 111.232 30.7599C111.232 28.4859 113.042 26.9869 115.832 26.9869C118.985 26.9869 120.458 28.4599 120.458 30.9929ZM132.861 32.4139H129.683C129.683 30.5019 129.166 29.5969 128.107 29.5969C126.788 29.5969 126.298 30.9929 126.298 33.6029V34.5849C126.298 37.1949 126.814 38.5899 128.21 38.5899C129.321 38.5899 129.786 37.6339 129.786 35.7739H132.861C132.861 39.5719 131.052 41.1999 128.21 41.1999C124.67 41.1999 123.067 38.9779 123.067 34.0939C123.067 29.2099 124.747 26.9879 128.107 26.9879C131 26.9879 132.861 28.6149 132.861 32.4139ZM142.086 27.2969H145.394L141.362 32.8279L145.6 40.8899H142.163L139.424 35.2569L138.287 36.6519V40.8899H135.186V22.2069H138.287V32.6989L142.086 27.2969Z" fill="white"/>
</svg>
