<svg width="94" height="32" viewBox="0 0 94 32" fill="none" xmlns="http://www.w3.org/2000/svg">
<path d="M14.4776 0.612388H19.9188V5.81879H14.4776V0.612388ZM14.5779 7.12957H19.8528V25.3361H14.5779V7.12957Z" fill="white"/>
<path d="M23.0881 7.12957H26.727L27.622 9.04926C28.2195 8.2939 28.9808 7.68414 29.8484 7.26601C30.716 6.84788 31.6672 6.63232 32.6303 6.63558C36.6678 6.63558 38.7709 9.12018 38.7709 13.3949V25.3361H33.5376V14.1994C33.5376 12.3017 32.9042 11.5094 31.4345 11.5094C29.2336 11.5094 28.297 13.8546 28.297 16.1558V25.3361H23.0881V7.12957Z" fill="white"/>
<path d="M52.4973 25.3361L51.996 23.749C50.6826 25.0528 48.9068 25.7842 47.0562 25.7836C43.2168 25.7836 40.7151 23.5436 40.7151 19.9903C40.7151 14.0943 46.4228 14.7154 51.4971 14.4391V13.95C51.4971 12.4313 50.7293 10.9152 49.1275 10.9152C47.5917 10.9152 46.6551 11.7417 46.4546 13.2261L41.5147 12.9816C42.0503 8.57973 45.0215 6.67226 49.2253 6.67226C54.0331 6.67226 56.5617 9.01502 56.5617 14.0845V25.3336L52.4973 25.3361ZM51.4629 17.6475C47.7238 17.853 45.8872 18.1366 45.8872 19.8485C45.8872 20.8144 46.6893 21.3647 47.6578 21.3647C49.7951 21.3647 51.4629 20.2275 51.4629 18.0217V17.6475Z" fill="white"/>
<path d="M59.6063 25.3361V0.578152H64.847V25.3361H59.6063Z" fill="white"/>
<path d="M68.2168 25.3361V0.578152H73.4575V25.3361H68.2168Z" fill="white"/>
<path d="M76.9643 26.6126C78.3998 27.268 78.8351 27.3707 79.4097 27.3707C80.1434 27.3707 80.6765 26.8816 81.0458 25.8888L81.6131 24.4044C81.2781 23.612 80.9773 22.8539 80.6349 22.0249C80.0994 20.6799 75.36 8.78515 74.6582 7.12957H80.6349L84.3765 17.853C85.5772 14.5785 86.7804 10.6804 87.8466 7.12957H93.5226L86.2791 26.4488C85.1101 29.5521 83.6404 32 80.2363 32C78.8008 32 77.3653 31.7261 76.3969 31.2077L76.9643 26.6126Z" fill="white"/>
<path d="M3.18199 11.414H0.477295V6.89725H3.18199V6.31033C3.18199 2.24352 5.65191 0.00102071 9.39104 0.00102071C10.6693 -0.015604 11.9422 0.170946 13.1619 0.553697L12.7291 4.89196C11.8889 4.68045 11.0253 4.57609 10.1589 4.58139C9.12203 4.58139 8.3566 5.07048 8.3566 6.27121V6.89725H12.5628V11.414H8.3566V25.1087H3.18199V11.414Z" fill="white"/>
</svg>
