<svg width="170" height="64" viewBox="0 0 170 64" fill="none" xmlns="http://www.w3.org/2000/svg">
<path d="M20.7389 33.2517C21.708 32.2196 23.3069 32.2196 24.276 33.2517C25.2612 34.2669 25.2612 35.942 24.276 36.9572C23.3069 37.9894 21.708 37.9894 20.7389 36.9572C19.7537 35.942 19.7537 34.2669 20.7389 33.2517Z" fill="white"/>
<path d="M134.89 19.2239H138.567V30.6627H138.83L144.442 24.406H148.74L142.675 31.1403L149.099 40H144.681L139.904 33.3373L138.567 34.7463V40H134.89V19.2239Z" fill="white"/>
<path d="M36.1072 17.9345L34.1388 16L41.7313 16.0492L41.6817 23.4757L39.7298 21.5412L24.3794 36.7548C23.3869 37.7384 21.7493 37.7384 20.7568 36.7548C19.7477 35.7548 19.7477 34.1482 20.7568 33.1481L36.1072 17.9345Z" fill="white"/>
<path d="M37.1545 27.0081C37.4983 26.659 38.0551 26.659 38.399 27.0081L40.757 29.4019C41.1009 29.7509 41.1009 30.3161 40.757 30.6652L29.6055 41.9857C28.6066 42.9998 27.0018 42.9998 26.0029 41.9857C25.004 40.9883 25.004 39.3426 26.0029 38.3452L37.1545 27.0081Z" fill="white"/>
<path d="M25.9799 38.4697C26.9644 37.4852 28.5459 37.4852 29.5303 38.4697C30.5148 39.4541 30.5148 41.0356 29.5303 42.0201C28.5459 42.9883 26.9644 42.9883 25.9799 42.0201C25.0117 41.0356 25.0117 39.4541 25.9799 38.4697Z" fill="white"/>
<path d="M37.4319 37.1743C37.6491 36.9618 38 36.9618 38.2172 37.1743L41.0908 39.9855C41.308 40.1979 41.308 40.5575 41.0908 40.77L34.7086 47.0135C33.6895 48.0104 32.0522 48.0104 31.033 47.0135C30.0139 46.0328 30.0139 44.4147 31.033 43.4341L37.4319 37.1743Z" fill="white"/>
<path d="M31.007 43.5204C31.9914 42.4882 33.5729 42.4882 34.5574 43.5204C35.5257 44.5356 35.5257 46.2107 34.5574 47.2259C33.5729 48.258 31.9914 48.258 31.007 47.2259C30.0225 46.2107 30.0225 44.5356 31.007 43.5204Z" fill="white"/>
<path d="M56.4657 27.2238H53.2179V39.9522H49.5403V27.2238H47.2478V24.382H49.5403V22.9014C49.5403 19.7731 51.7135 18.2208 54.4358 18.2208C55.7015 18.2208 56.7523 18.4835 57.2299 18.6507L56.4896 21.4925C56.1791 21.397 55.6776 21.2537 55.1045 21.2537C53.7433 21.2537 53.2179 21.9462 53.2179 23.1641V24.382H56.4657V27.2238Z" fill="white"/>
<path d="M59.5462 24.406H63.2477V40H59.5462V24.406ZM59.2597 20.203C59.2597 19.0806 60.2149 18.1971 61.4089 18.1971C62.5791 18.1971 63.5343 19.0806 63.5343 20.203C63.5343 21.3015 62.5791 22.1851 61.4089 22.1851C60.2149 22.1851 59.2597 21.3015 59.2597 20.203Z" fill="white"/>
<path d="M69.9821 40.0239H66.2806V24.4299H69.8149V27.0806H69.9821C70.6985 25.3612 72.2985 24.2388 74.6388 24.2388C77.8627 24.2388 80.012 26.3642 79.9881 30.0896V40.0239H76.3105V30.6627C76.3105 28.5851 75.1881 27.3433 73.2776 27.3433C71.3433 27.3433 69.9821 28.6328 69.9821 30.8776V40.0239Z" fill="white"/>
<path d="M82.9493 24.4299H86.4597V27.0806H86.6508C87.2955 25.3134 88.8478 24.2388 90.9493 24.2388C93.0508 24.2388 94.5791 25.3134 95.1761 27.0806H95.3433C96.0358 25.3612 97.7552 24.2388 100.024 24.2388C102.89 24.2388 104.896 26.0776 104.896 29.5642V40.0239H101.218V30.1373C101.218 28.203 100.024 27.3194 98.5433 27.3194C96.7761 27.3194 95.7254 28.5373 95.7254 30.3045V40.0239H92.1194V29.9701C92.1194 28.3701 91.0448 27.3194 89.4926 27.3194C87.8926 27.3194 86.6269 28.6328 86.6269 30.5433V40.0239H82.9493V24.4299Z" fill="white"/>
<path fill-rule="evenodd" clip-rule="evenodd" d="M106.997 35.6537C106.997 32.1433 109.91 31.2358 112.943 30.9015C115.69 30.6149 116.788 30.5672 116.788 29.5164V29.4448C116.788 27.9164 115.857 27.0328 114.161 27.0328C112.346 27.0328 111.319 27.9642 110.961 29.0149L107.522 28.5373C108.334 25.6955 110.842 24.2388 114.137 24.2388C117.122 24.2388 120.49 25.4806 120.49 29.5881V40.0239H116.931V37.8746H116.812C116.143 39.1881 114.687 40.3343 112.227 40.3343C109.266 40.3343 106.997 38.7104 106.997 35.6537ZM116.812 34.4358V32.597C116.334 32.9791 114.4 33.2179 113.445 33.3612C111.797 33.5761 110.555 34.1731 110.555 35.5821C110.555 36.9433 111.654 37.6358 113.182 37.6358C115.403 37.6358 116.812 36.1552 116.812 34.4358Z" fill="white"/>
<path d="M123.451 24.4537H127.033V27.0567H127.176C127.749 25.2418 129.254 24.2388 131.045 24.2388C131.451 24.2388 132.024 24.2866 132.358 24.3343V27.7254C132.048 27.606 131.284 27.5104 130.663 27.5104C128.633 27.5104 127.128 28.8955 127.128 30.8776V40.0239H123.451V24.4537Z" fill="white"/>
<path d="M36.1072 17.9345L34.1388 16L41.7313 16.0492L41.6817 23.4757L39.7298 21.5412L24.3794 36.7548C23.3869 37.7384 21.7493 37.7384 20.7568 36.7548C19.7477 35.7548 19.7477 34.1482 20.7568 33.1481L36.1072 17.9345Z" fill="white"/>
<path d="M20.7389 33.2517C21.708 32.2196 23.3069 32.2196 24.276 33.2517C25.2612 34.2669 25.2612 35.942 24.276 36.9572C23.3069 37.9894 21.708 37.9894 20.7389 36.9572C19.7537 35.942 19.7537 34.2669 20.7389 33.2517Z" fill="white"/>
<path d="M37.1545 27.0081C37.4983 26.659 38.0551 26.659 38.399 27.0081L40.757 29.4019C41.1009 29.7509 41.1009 30.3161 40.757 30.6652L29.6055 41.9857C28.6066 42.9998 27.0018 42.9998 26.0029 41.9857C25.004 40.9883 25.004 39.3426 26.0029 38.3452L37.1545 27.0081Z" fill="white"/>
<path d="M25.9799 38.4697C26.9644 37.4852 28.5459 37.4852 29.5303 38.4697C30.5148 39.4541 30.5148 41.0356 29.5303 42.0201C28.5459 42.9883 26.9644 42.9883 25.9799 42.0201C25.0117 41.0356 25.0117 39.4541 25.9799 38.4697Z" fill="white"/>
<path d="M37.4319 37.1743C37.6491 36.9618 38 36.9618 38.2172 37.1743L41.0908 39.9855C41.308 40.1979 41.308 40.5575 41.0908 40.77L34.7086 47.0135C33.6895 48.0104 32.0522 48.0104 31.033 47.0135C30.0139 46.0328 30.0139 44.4147 31.033 43.4341L37.4319 37.1743Z" fill="white"/>
<path d="M31.007 43.5204C31.9914 42.4882 33.5729 42.4882 34.5574 43.5204C35.5257 44.5356 35.5257 46.2107 34.5574 47.2259C33.5729 48.258 31.9914 48.258 31.007 47.2259C30.0225 46.2107 30.0225 44.5356 31.007 43.5204Z" fill="white"/>
<path d="M56.4657 27.2238H53.2179V39.9522H49.5403V27.2238H47.2478V24.382H49.5403V22.9014C49.5403 19.7731 51.7135 18.2208 54.4358 18.2208C55.7015 18.2208 56.7523 18.4835 57.2299 18.6507L56.4896 21.4925C56.1791 21.397 55.6776 21.2537 55.1045 21.2537C53.7433 21.2537 53.2179 21.9462 53.2179 23.1641V24.382H56.4657V27.2238Z" fill="white"/>
<path d="M59.5462 24.406H63.2477V40H59.5462V24.406ZM59.2597 20.203C59.2597 19.0806 60.2149 18.1971 61.4089 18.1971C62.5791 18.1971 63.5343 19.0806 63.5343 20.203C63.5343 21.3015 62.5791 22.1851 61.4089 22.1851C60.2149 22.1851 59.2597 21.3015 59.2597 20.203Z" fill="white"/>
<path d="M69.9821 40.0239H66.2806V24.4299H69.8149V27.0806H69.9821C70.6985 25.3612 72.2985 24.2388 74.6388 24.2388C77.8627 24.2388 80.012 26.3642 79.9881 30.0896V40.0239H76.3105V30.6627C76.3105 28.5851 75.1881 27.3433 73.2776 27.3433C71.3433 27.3433 69.9821 28.6328 69.9821 30.8776V40.0239Z" fill="white"/>
<path d="M82.9493 24.4299H86.4597V27.0806H86.6508C87.2955 25.3134 88.8478 24.2388 90.9493 24.2388C93.0508 24.2388 94.5791 25.3134 95.1761 27.0806H95.3433C96.0358 25.3612 97.7552 24.2388 100.024 24.2388C102.89 24.2388 104.896 26.0776 104.896 29.5642V40.0239H101.218V30.1373C101.218 28.203 100.024 27.3194 98.5433 27.3194C96.7761 27.3194 95.7254 28.5373 95.7254 30.3045V40.0239H92.1194V29.9701C92.1194 28.3701 91.0448 27.3194 89.4926 27.3194C87.8926 27.3194 86.6269 28.6328 86.6269 30.5433V40.0239H82.9493V24.4299Z" fill="white"/>
<path fill-rule="evenodd" clip-rule="evenodd" d="M106.997 35.6537C106.997 32.1433 109.91 31.2358 112.943 30.9015C115.69 30.6149 116.788 30.5672 116.788 29.5164V29.4448C116.788 27.9164 115.857 27.0328 114.161 27.0328C112.346 27.0328 111.319 27.9642 110.961 29.0149L107.522 28.5373C108.334 25.6955 110.842 24.2388 114.137 24.2388C117.122 24.2388 120.49 25.4806 120.49 29.5881V40.0239H116.931V37.8746H116.812C116.143 39.1881 114.687 40.3343 112.227 40.3343C109.266 40.3343 106.997 38.7104 106.997 35.6537ZM116.812 34.4358V32.597C116.334 32.9791 114.4 33.2179 113.445 33.3612C111.797 33.5761 110.555 34.1731 110.555 35.5821C110.555 36.9433 111.654 37.6358 113.182 37.6358C115.403 37.6358 116.812 36.1552 116.812 34.4358Z" fill="white"/>
<path d="M123.451 24.4537H127.033V27.0567H127.176C127.749 25.2418 129.254 24.2388 131.045 24.2388C131.451 24.2388 132.024 24.2866 132.358 24.3343V27.7254C132.048 27.606 131.284 27.5104 130.663 27.5104C128.633 27.5104 127.128 28.8955 127.128 30.8776V40.0239H123.451V24.4537Z" fill="white"/>
<path d="M134.89 19.2239H138.567V30.6627H138.83L144.442 24.406H148.74L142.675 31.1403L149.099 40H144.681L139.904 33.3373L138.567 34.7463V40H134.89V19.2239Z" fill="white"/>
</svg>
