<svg width="154" height="22" viewBox="0 0 154 22" fill="none" xmlns="http://www.w3.org/2000/svg">
<path d="M19.5402 8.41395H10.7748C9.54243 8.41395 8.54761 9.40877 8.54761 10.6412C8.54761 11.8736 9.54243 12.8684 10.7748 12.8684H16.9715L19.5402 8.41395Z" fill="white"/>
<path d="M10.7798 0C4.91476 0 0.143555 4.7712 0.143555 10.6412V11.1213C0.143555 15.7687 3.14288 19.7183 7.30036 21.1636L9.43354 17.4664L7.75075 16.5062C5.86999 15.447 4.598 13.4326 4.598 11.1213V10.6412C4.598 7.23105 7.36965 4.45444 10.7798 4.45444H21.8218L24.3955 0H10.7798Z" fill="white"/>
<path d="M35.2842 18.0801H37.9915V11.6558H44.584V9.33948H37.9915V5.01867H46.1134V2.72216H35.2842V18.0801Z" fill="white"/>
<path d="M50.1917 2.72216H47.7863V18.0801H50.1917V2.72216Z" fill="white"/>
<path d="M55.0866 2.85085H52.4882V5.30079H55.0866V2.85085Z" fill="white"/>
<path d="M55.0025 7.10236H52.5971V18.0801H55.0025V7.10236Z" fill="white"/>
<path d="M65.0151 8.3694H64.9706C64.6389 7.92396 64.2083 7.54781 63.6689 7.24094C63.1343 6.93408 62.4761 6.78065 61.704 6.78065C60.7586 6.78065 59.9271 6.99348 59.2144 7.42407C58.4968 7.85467 57.9325 8.47334 57.5168 9.28009C57.101 10.0918 56.8932 11.047 56.8932 12.1458C56.8932 13.2792 57.101 14.2493 57.5168 15.056C57.9325 15.8628 58.4968 16.4765 59.2144 16.8922C59.9321 17.308 60.7586 17.5159 61.704 17.5159C62.4909 17.5159 63.1492 17.3674 63.6788 17.0754C64.2083 16.7834 64.6389 16.3973 64.9656 15.9271H65.0101V17.2139C65.0101 18.2286 64.7825 18.966 64.3321 19.4263C63.8817 19.8817 63.169 20.1143 62.1939 20.1143C61.4218 20.1143 60.8279 19.9708 60.4221 19.6837C60.0162 19.3966 59.7589 19.0056 59.6599 18.5008H57.1901C57.2743 19.1591 57.5118 19.753 57.8979 20.2826C58.2839 20.8121 58.8432 21.2328 59.5757 21.5397C60.3082 21.8466 61.1793 22 62.1939 22C63.8569 22 65.1388 21.604 66.0495 20.8072C66.9602 20.0103 67.4155 18.778 67.4155 17.1001V7.12711H65.0101L65.0151 8.3694ZM64.6686 14.0513C64.4558 14.5611 64.1341 14.9471 63.7134 15.2094C63.2927 15.4767 62.778 15.6054 62.1791 15.6054C61.2783 15.6054 60.5854 15.2936 60.1053 14.67C59.6252 14.0463 59.3876 13.2049 59.3876 12.1458C59.3876 11.4727 59.4916 10.8787 59.6995 10.364C59.9073 9.84927 60.2191 9.44837 60.6349 9.1613C61.0506 8.87424 61.5654 8.73071 62.1791 8.73071C62.7829 8.73071 63.2927 8.85444 63.7134 9.10686C64.1341 9.35928 64.4558 9.74038 64.6686 10.2551C64.8815 10.7699 64.9903 11.4034 64.9903 12.1458C64.9903 12.9129 64.8864 13.5465 64.6686 14.0513Z" fill="white"/>
<path d="M75.8839 6.78065C74.998 6.78065 74.2556 6.94398 73.6616 7.27559C73.0677 7.6072 72.6074 8.0279 72.2758 8.54263H72.2313V2.72216H69.8259V18.0801H72.2313V11.443C72.2313 10.9134 72.3402 10.4481 72.5629 10.0472C72.7856 9.64634 73.1024 9.34443 73.5181 9.13656C73.9339 8.92868 74.4189 8.82475 74.9782 8.82475C75.7107 8.82475 76.2403 9.02767 76.5768 9.43847C76.9134 9.84432 77.0817 10.4432 77.0817 11.2301V18.085H79.4871V10.5174C79.4871 9.31474 79.1555 8.3892 78.4873 7.74578C77.8241 7.10236 76.9579 6.78065 75.8839 6.78065Z" fill="white"/>
<path d="M85.3669 16.1894C85.2036 16.1201 85.0749 15.9816 84.9908 15.7836C84.9066 15.5856 84.8621 15.2886 84.8621 14.9026V9.03757H86.926V7.10236H84.8621V3.68729H82.4567V7.10236H80.8877V9.03757H82.4567V14.9026C82.4567 15.7341 82.5705 16.3924 82.7982 16.8774C83.0259 17.3624 83.3575 17.7138 83.798 17.9168C84.2335 18.1246 84.7978 18.2286 85.4857 18.2286C85.9609 18.2286 86.4508 18.1791 86.9705 18.0801V16.234C86.6241 16.2785 86.3271 16.2983 86.0697 16.2983C85.7629 16.2983 85.5303 16.2637 85.3669 16.1894Z" fill="white"/>
<path d="M91.7863 9.2306C92.2218 8.88414 92.7762 8.71587 93.4542 8.71587C94.0432 8.71587 94.5183 8.8297 94.8796 9.05737C95.2459 9.28504 95.5132 9.58201 95.6864 9.94826C95.8596 10.3145 95.9636 10.7055 96.0081 11.1213H98.458C98.3739 10.2898 98.1116 9.54736 97.676 8.88909C97.2405 8.23083 96.6614 7.71609 95.9339 7.34489C95.2113 6.97368 94.3748 6.78561 93.4295 6.78561C92.3555 6.78561 91.4052 7.03308 90.5836 7.52801C89.762 8.02295 89.1235 8.71092 88.6731 9.59191C88.2227 10.4729 87.9951 11.4727 87.9951 12.5863C87.9951 13.7345 88.2227 14.7442 88.6731 15.6252C89.1235 16.5062 89.762 17.1892 90.5836 17.6742C91.4052 18.1593 92.3654 18.4068 93.4493 18.4068C94.4095 18.4068 95.2558 18.2187 95.9933 17.8376C96.7307 17.4565 97.3147 16.9368 97.7453 16.2686C98.1759 15.6005 98.4135 14.8481 98.4531 14.0018H96.0032C95.9586 14.4472 95.8547 14.8531 95.6913 15.2243C95.528 15.5955 95.2558 15.8974 94.8846 16.1251C94.5134 16.3528 94.0333 16.4666 93.4443 16.4666C92.7712 16.4666 92.2169 16.2934 91.7764 15.942C91.3359 15.5906 91.0191 15.1253 90.8113 14.5462C90.6034 13.9672 90.4994 13.3089 90.4994 12.5813C90.4994 11.8637 90.6034 11.2153 90.8113 10.6263C91.029 10.0423 91.3507 9.57211 91.7863 9.2306Z" fill="white"/>
<path d="M108.198 7.51316C107.362 7.02812 106.377 6.78065 105.244 6.78065C104.095 6.78065 103.101 7.02317 102.259 7.49831C101.413 7.9784 100.764 8.66142 100.314 9.54736C99.8637 10.4333 99.636 11.4529 99.636 12.5962C99.636 13.7296 99.8637 14.7343 100.314 15.6153C100.764 16.4963 101.408 17.1843 102.234 17.6792C103.066 18.1741 104.051 18.4216 105.199 18.4216C106.342 18.4216 107.342 18.1741 108.184 17.6792C109.03 17.1843 109.673 16.4963 110.119 15.6153C110.564 14.7343 110.787 13.7197 110.787 12.5764C110.787 11.4331 110.564 10.4234 110.119 9.54736C109.678 8.68121 109.04 7.9982 108.198 7.51316ZM107.976 14.6205C107.748 15.2094 107.402 15.6648 106.946 15.9865C106.486 16.3082 105.922 16.4715 105.249 16.4715C104.234 16.4715 103.457 16.1152 102.927 15.4074C102.398 14.6997 102.13 13.7642 102.13 12.6061C102.13 11.8488 102.244 11.1708 102.472 10.5768C102.7 9.9829 103.046 9.52261 103.511 9.191C103.977 8.86434 104.546 8.69606 105.219 8.69606C106.224 8.69606 106.986 9.05242 107.515 9.77008C108.045 10.4877 108.312 11.4232 108.312 12.5863C108.317 13.3534 108.203 14.0364 107.976 14.6205Z" fill="white"/>
<path d="M118.716 6.78065C117.83 6.78065 117.088 6.94398 116.494 7.27559C115.9 7.6072 115.439 8.0279 115.108 8.54263H115.063V7.10236H112.658V18.0801H115.063V11.443C115.063 10.9134 115.172 10.4481 115.395 10.0472C115.618 9.64634 115.934 9.34443 116.35 9.13656C116.766 8.92868 117.251 8.82475 117.81 8.82475C118.543 8.82475 119.072 9.02767 119.409 9.43847C119.745 9.84927 119.919 10.4432 119.919 11.2301V18.085H122.324V10.5174C122.324 9.31474 121.992 8.3892 121.324 7.74578C120.656 7.10236 119.79 6.78065 118.716 6.78065Z" fill="white"/>
<path d="M128.199 16.1894C128.036 16.1201 127.907 15.9816 127.823 15.7836C127.739 15.5856 127.694 15.2886 127.694 14.9026V9.03757H129.758V7.10236H127.694V3.68729H125.289V7.10236H123.72V9.03757H125.289V14.9026C125.289 15.7341 125.402 16.3924 125.63 16.8774C125.858 17.3624 126.194 17.7138 126.63 17.9168C127.065 18.1246 127.63 18.2286 128.318 18.2286C128.788 18.2286 129.283 18.1791 129.798 18.0801V16.234C129.456 16.2785 129.154 16.2983 128.897 16.2983C128.595 16.2983 128.362 16.2637 128.199 16.1894Z" fill="white"/>
<path d="M135.232 7.47853C134.757 7.87448 134.381 8.42881 134.094 9.14152H134.049V7.10237H131.644V18.0801H134.049V12.5368C134.049 11.8488 134.183 11.25 134.455 10.7451C134.727 10.2353 135.108 9.84433 135.603 9.56221C136.098 9.2801 136.643 9.14152 137.246 9.14152C137.444 9.14152 137.677 9.15637 137.934 9.18606V6.97369C137.662 6.9143 137.34 6.88955 136.969 6.88955C136.286 6.88955 135.707 7.08752 135.232 7.47853Z" fill="white"/>
<path d="M146.992 7.51316C146.155 7.02812 145.17 6.78065 144.037 6.78065C142.889 6.78065 141.894 7.02317 141.052 7.49831C140.206 7.9784 139.558 8.66142 139.107 9.54736C138.657 10.4333 138.429 11.4529 138.429 12.5962C138.429 13.7296 138.657 14.7343 139.107 15.6153C139.558 16.4963 140.201 17.1843 141.028 17.6792C141.859 18.1741 142.844 18.4216 143.992 18.4216C145.136 18.4216 146.135 18.1741 146.977 17.6792C147.823 17.1843 148.467 16.4963 148.912 15.6153C149.357 14.7343 149.58 13.7197 149.58 12.5764C149.58 11.4331 149.357 10.4234 148.912 9.54736C148.472 8.68121 147.833 7.9982 146.992 7.51316ZM146.769 14.6205C146.541 15.2094 146.195 15.6648 145.739 15.9865C145.279 16.3082 144.715 16.4715 144.042 16.4715C143.027 16.4715 142.25 16.1152 141.721 15.4074C141.191 14.6997 140.924 13.7642 140.924 12.6061C140.924 11.8488 141.038 11.1708 141.265 10.5768C141.493 9.9829 141.839 9.52261 142.305 9.191C142.77 8.86434 143.339 8.69606 144.012 8.69606C145.017 8.69606 145.779 9.05242 146.309 9.77008C146.838 10.4877 147.106 11.4232 147.106 12.5863C147.11 13.3534 146.997 14.0364 146.769 14.6205Z" fill="white"/>
<path d="M153.856 2.72216H151.451V18.0801H153.856V2.72216Z" fill="white"/>
<path d="M19.5402 8.41395H10.7748C9.54243 8.41395 8.54761 9.40877 8.54761 10.6412C8.54761 11.8736 9.54243 12.8684 10.7748 12.8684H16.9715L19.5402 8.41395Z" fill="white"/>
<path d="M10.7798 0C4.91476 0 0.143555 4.7712 0.143555 10.6412V11.1213C0.143555 15.7687 3.14288 19.7183 7.30036 21.1636L9.43354 17.4664L7.75075 16.5062C5.86999 15.447 4.598 13.4326 4.598 11.1213V10.6412C4.598 7.23105 7.36965 4.45444 10.7798 4.45444H21.8218L24.3955 0H10.7798Z" fill="white"/>
</svg>
