<svg width="170" height="64" viewBox="0 0 170 64" fill="none" xmlns="http://www.w3.org/2000/svg">
<path d="M48.4469 20.9487V43.083C48.4469 43.3676 48.2572 43.5573 47.9726 43.5573H43.7038C43.4192 43.5573 43.2295 43.3676 43.2295 43.083V20.9487C43.2295 20.6641 43.4192 20.4744 43.7038 20.4744H47.9726C48.2572 20.4744 48.4469 20.6641 48.4469 20.9487Z" fill="white"/>
<path d="M50.6602 35.8735C50.6602 31.3202 54.2965 27.7471 58.7866 27.7471C63.2451 27.7471 66.9131 31.3202 66.9131 35.8735C66.9131 40.3953 63.2451 44 58.7866 44C54.2965 44 50.6602 40.3953 50.6602 35.8735ZM61.8854 35.8735C61.8854 33.9447 60.4941 32.585 58.7866 32.585C57.0791 32.585 55.6878 33.9447 55.6878 35.8735C55.6878 37.7708 57.0791 39.1304 58.7866 39.1304C60.4941 39.1304 61.8854 37.7708 61.8854 35.8735Z" fill="white"/>
<path d="M85.031 28.5376V43.083C85.031 43.3676 84.8413 43.5573 84.5567 43.5573H80.699C80.4145 43.5573 80.2564 43.3676 80.2247 43.083L80.1299 42.1028C79.0864 43.2095 77.6951 44 75.8927 44C71.624 44 68.4619 40.3637 68.4619 35.8419C68.4619 31.3202 71.624 27.6838 75.8927 27.6838C77.6319 27.6838 79.0548 28.506 80.1299 29.7076L80.2247 28.5376C80.2564 28.253 80.4145 28.0633 80.699 28.0633H84.5567C84.8413 28.0633 85.031 28.253 85.031 28.5376ZM79.6556 35.8103C79.6556 34.0079 78.3591 32.4585 76.5568 32.4585C74.786 32.4585 73.4896 33.8815 73.4896 35.8103C73.4896 37.7392 74.786 39.2253 76.5568 39.2253C78.3591 39.2253 79.6556 37.6443 79.6556 35.8103Z" fill="white"/>
<path d="M87.2129 23.6997C87.2129 23.4151 87.4026 23.2253 87.6872 23.2253H91.956C92.2406 23.2253 92.4303 23.4151 92.4303 23.6997V28.0633H94.8018C95.0864 28.0633 95.2761 28.253 95.2761 28.5376V31.7945C95.2761 32.0791 95.0864 32.2688 94.8018 32.2688H92.4303V37.9289C92.4303 38.8459 92.9046 39.2886 93.6635 39.2886C93.8532 39.2886 94.3591 39.2886 94.7386 39.2253C95.0864 39.1621 95.3077 39.3518 95.3077 39.668V43.0198C95.3077 43.8103 93.6002 44 92.2406 44C89.8058 44 87.2129 42.7668 87.2129 38.9723V23.6997Z" fill="white"/>
<path d="M123.577 34.4821V43.0829C123.577 43.3675 123.387 43.5572 123.103 43.5572H118.834C118.55 43.5572 118.36 43.3675 118.36 43.0829V35.5888C118.36 33.1224 116.937 32.5849 115.862 32.5849C114.154 32.5849 113.206 33.9762 113.206 34.8616V43.0829C113.206 43.3675 113.016 43.5572 112.731 43.5572H108.463C108.178 43.5572 107.988 43.3675 107.988 43.0829V35.5888C107.988 33.1224 106.597 32.5849 105.522 32.5849C103.593 32.5849 102.866 34.4821 102.866 35.241V43.0829C102.866 43.3675 102.676 43.5572 102.392 43.5572H98.1227C97.8382 43.5572 97.6484 43.3675 97.6484 43.0829V28.5375C97.6484 28.2529 97.8382 28.0632 98.1227 28.0632H102.265C102.55 28.0632 102.708 28.2529 102.739 28.5375L102.866 30.4347C103.814 28.8537 105.364 27.7153 107.546 27.7153C109.475 27.7153 111.182 28.7272 112.226 30.4979C113.332 28.8537 115.166 27.7153 117.538 27.7153C121.016 27.7153 123.577 30.3398 123.577 34.4821Z" fill="white"/>
<path d="M139.924 37.7075H130.976C131.418 39.1621 132.715 39.8577 134.581 39.8577C135.434 39.8577 136.256 39.7312 137.363 39.0672C137.679 38.8775 137.869 38.9091 138.059 39.1304L139.893 40.9328C140.114 41.1542 140.083 41.3755 139.83 41.6285C138.343 43.083 136.32 44 134.106 44C129.142 44 125.79 40.4269 125.79 35.8735C125.79 31.3202 129.205 27.7471 133.695 27.7471C138.217 27.7471 141.126 31.3202 141.126 35.6522C141.126 37.0119 140.936 37.7075 139.924 37.7075ZM130.881 34.4506H136.478C136.162 32.8064 135.055 32.1107 133.758 32.1107C132.43 32.1107 131.229 32.8064 130.881 34.4506Z" fill="white"/>
<path d="M41.0158 21.1067V24.8696C41.0158 25.249 40.7628 25.3755 40.4466 25.1858C39.8142 24.8063 39.1186 24.6798 38.581 24.6798C37.1265 24.6798 37.0632 25.4703 37.0632 26.4506V28.0632H39.4348C39.7193 28.0632 39.9091 28.2529 39.9091 28.5375V31.7944C39.9091 32.079 39.7193 32.2688 39.4348 32.2688H37.0632V43.083C37.0632 43.3675 36.8735 43.5573 36.5889 43.5573H32.3201C32.0356 43.5573 31.8458 43.3675 31.8458 43.083V32.2688H29.4743C29.1897 32.2688 29 32.079 29 31.7944V28.5375C29 28.2529 29.1897 28.0632 29.4743 28.0632H31.8458V25.7233C31.8458 21.7708 34.3439 20 37.8221 20C39.0237 20 39.9723 20.1265 40.6996 20.5375C40.9209 20.664 41.0158 20.8538 41.0158 21.1067Z" fill="white"/>
</svg>
