<svg width="170" height="64" viewBox="0 0 170 64" fill="none" xmlns="http://www.w3.org/2000/svg">
<path d="M38.4672 30.9313V28.449H40.0626V27.8099C40.0626 25.0815 41.7071 23.5822 44.2596 23.5822C46.2724 23.5822 47.6222 24.5654 48.064 26.3596L45.855 27.0479C45.6094 26.4825 45.2414 26.1385 44.6278 26.1385C43.8668 26.1385 43.5723 26.7284 43.5723 27.5395V28.449H46.3949V30.9313H43.5723V39.3622H40.0626V30.9313H38.4672Z" fill="white"/>
<path d="M52.63 39.6574C49.1448 39.6574 46.7638 37.2976 46.7638 33.9059C46.7638 30.5384 49.1448 28.1543 52.63 28.1543C56.1152 28.1543 58.5205 30.5384 58.5205 33.9059C58.5205 37.2976 56.1152 39.6574 52.63 39.6574ZM52.63 36.9781C54.1763 36.9781 54.937 35.7245 54.937 33.9059C54.937 32.0871 54.1763 30.8335 52.63 30.8335C51.0591 30.8335 50.3472 32.0871 50.3472 33.9059C50.3472 35.7245 51.0591 36.9781 52.63 36.9781Z" fill="white"/>
<path d="M67.4317 28.4492H70.9908V39.3624H67.4317V37.6665C66.8429 38.8956 65.6156 39.6574 63.971 39.6574C61.0256 39.6574 60.0931 37.6421 60.0931 35.3068V28.4492H63.6275V34.4464C63.6275 35.9949 64.1428 36.8553 65.4438 36.8553C66.7691 36.8553 67.4317 35.7494 67.4317 34.0041V28.4492Z" fill="white"/>
<path d="M76.8091 39.3624H73.2747V28.4493H76.8091V30.1451C77.3982 28.9408 78.7236 28.1543 80.3678 28.1543C83.3132 28.1543 84.2952 30.1944 84.2952 32.5295V39.3624H80.7607V33.3897C80.7607 31.8166 80.2453 30.9564 78.9443 30.9564C77.5208 30.9564 76.8091 32.0871 76.8091 33.8074V39.3624Z" fill="white"/>
<path d="M94.3838 37.4206C93.8682 38.6987 92.592 39.6574 90.7266 39.6574C87.5114 39.6574 85.8668 37.1256 85.8668 33.9058C85.8668 30.7105 87.5114 28.1542 90.7266 28.1542C92.592 28.1542 93.8682 29.1128 94.3838 30.4154V23.8775H97.9426V39.3624H94.3838V37.4206ZM94.3838 33.7827C94.3838 32.0377 93.3775 30.9316 91.9294 30.9316C90.2358 30.9316 89.4503 32.136 89.4503 33.9058C89.4503 35.6999 90.2358 36.9043 91.9294 36.9043C93.3775 36.9043 94.3838 35.7985 94.3838 34.0286V33.7827Z" fill="white"/>
<path d="M110.88 35.774C110.315 38.2562 108.376 39.6574 105.529 39.6574C102.068 39.6574 99.6137 37.5435 99.6137 34.0778C99.6137 30.6369 102.117 28.1543 105.455 28.1543C109.063 28.1543 110.953 30.6369 110.953 33.611V34.6923H103.099C103.197 36.1426 104.277 36.9781 105.652 36.9781C106.879 36.9781 107.64 36.5113 108.032 35.5036L110.88 35.774ZM107.542 32.7996C107.468 31.7181 106.781 30.7351 105.431 30.7351C104.007 30.7351 103.344 31.6445 103.148 32.7996H107.542Z" fill="white"/>
<path d="M120.552 31.9148C119.982 31.5964 119.337 31.4432 118.686 31.4723C117.214 31.4723 116.232 32.3079 116.232 34.2008V39.3623H112.697V28.4491H116.232V30.4399C116.435 29.7915 116.835 29.2227 117.376 28.8129C117.917 28.4031 118.573 28.1728 119.251 28.1541C119.792 28.132 120.327 28.2873 120.772 28.5966L120.552 31.9148Z" fill="white"/>
<path d="M125.609 43.3444H122.074V28.4493H125.609V30.4155C126.149 29.1129 127.4 28.1543 129.291 28.1543C132.482 28.1543 134.15 30.7105 134.15 33.9059C134.15 37.1258 132.482 39.6574 129.291 39.6574C127.4 39.6574 126.149 38.6989 125.609 37.4207V43.3444ZM125.609 34.0287C125.609 35.7986 126.615 36.9044 128.088 36.9044C129.757 36.9044 130.567 35.6999 130.567 33.9059C130.567 32.1361 129.757 30.9316 128.088 30.9316C126.615 30.9316 125.609 32.0377 125.609 33.7828V34.0287Z" fill="white"/>
<path d="M145.736 36.3885C145.736 36.9535 145.982 37.1994 146.423 37.1994C146.737 37.2053 147.048 37.1379 147.331 37.0026V38.8956C146.663 39.386 145.852 39.6371 145.024 39.6083C143.723 39.6083 142.766 38.9202 142.448 37.6912C141.834 38.9448 140.484 39.6083 138.79 39.6083C136.606 39.6083 135.231 38.502 135.231 36.6339C135.231 34.545 136.802 33.66 139.207 33.193L142.251 32.6522V32.4556C142.251 31.4234 141.735 30.8089 140.655 30.8089C139.625 30.8089 139.109 31.448 138.912 32.3572L135.624 32.1115C135.992 29.7764 137.734 28.1543 140.852 28.1543C143.699 28.1543 145.736 29.4324 145.736 32.4065V36.3885ZM142.251 34.5204L140.459 34.8891C139.355 35.11 138.667 35.3804 138.667 36.2408C138.667 36.8799 139.158 37.273 139.919 37.273C141.22 37.273 142.251 36.2899 142.251 34.7414V34.5204Z" fill="white"/>
<path d="M148.855 30.9316H147.333V28.7687L148.118 28.6457C149.198 28.4492 149.517 27.8838 149.788 26.8761L150.156 25.4257H152.34V28.4492H155.236V30.9315H152.34V35.4789C152.34 36.413 152.782 36.8061 153.617 36.8061C154.23 36.7854 154.833 36.6344 155.384 36.3634V38.6987C154.573 39.3132 153.641 39.6574 152.218 39.6574C150.451 39.6574 148.855 38.8955 148.855 36.4375V30.9316Z" fill="white"/>
<path d="M160.514 39.3624H156.98V23.8775H160.514V30.145C161.104 28.9408 162.428 28.1542 164.073 28.1542C167.018 28.1542 168 30.1943 168 32.5294V39.3624H164.466V33.3895C164.466 31.8166 163.951 30.9564 162.65 30.9564C161.226 30.9564 160.514 32.0869 160.514 33.8073V39.3624Z" fill="white"/>
<path fill-rule="evenodd" clip-rule="evenodd" d="M29.2464 31.9898C29.2418 27.171 28.4027 22.8931 26.6112 21.0944C24.8152 19.2957 21.3923 18 15.7359 18C10.0795 18 6.66399 19.2957 4.86783 21.0944C3.07185 22.8931 2 27.171 2 31.9852V31.9898C2.0045 36.8086 3.07541 41.0865 4.8669 42.8852C6.66306 44.6838 10.0858 45.9579 15.7422 45.9579C21.3987 45.9579 24.8141 44.6838 26.6103 42.8852C28.4063 41.0865 29.2464 36.8086 29.2464 31.9943V31.9898ZM14.9096 34.3108C14.9096 36.0196 16.2929 37.4049 17.9993 37.4049C19.7057 37.4049 21.0889 36.0196 21.0889 34.3108C21.0889 32.6019 19.7057 31.2167 17.9993 31.2167C16.2929 31.2167 14.9096 32.6019 14.9096 34.3108ZM8.88709 38.7595V25.2147H22.4124V29.7297H13.3956V38.7595H8.88709Z" fill="white"/>
</svg>
