<svg width="170" height="64" viewBox="0 0 170 64" fill="none" xmlns="http://www.w3.org/2000/svg">
<path d="M24.509 16C17.0359 16 11 22.0359 11 29.509V48H29.491C36.9641 48 43 41.9641 43 34.491V16H24.509ZM35.4311 21.6527C35.4311 24.1437 33.4192 26.0599 31.0239 26.0599H26.2335V29.8922H32.6527V34.2994H26.3293V43.497H21.0599V20.503H26.2335V24.6228C26.4251 22.3234 28.3413 20.503 30.6407 20.503H35.4311V21.6527Z" fill="white"/>
<path d="M61.0119 27.7844V39.7604H64.1736V33.2454C64.1736 32.8622 64.1736 31.7125 64.6526 31.2335C65.1317 30.6586 65.8023 30.3712 66.5688 30.467H66.6646V27.4969H66.5688C65.6107 27.4011 64.7484 27.7844 64.3652 28.1676L64.1736 28.3592C64.0778 28.455 63.982 28.5508 63.8862 28.6466V27.8802L61.0119 27.7844Z" fill="white"/>
<path d="M92.6287 39.8568V33.2461C92.6287 31.4257 93.491 30.3718 94.9281 30.3718C95.503 30.3718 95.982 30.5634 96.3652 30.9467C96.8443 31.4257 97.1317 32.1922 97.1317 33.1503V39.761H100.198V32.288C100.198 29.7012 98.3772 27.5934 95.982 27.4018C94.6407 27.306 93.491 27.5934 92.6287 28.4557V23.761H89.5628V39.761H92.6287V39.8568Z" fill="white"/>
<path d="M109.874 31.0425H109.778L109.874 30.9467C111.12 30.1802 111.503 28.5515 111.311 27.4018C110.832 25.1024 109.012 23.761 106.138 23.761H101.922V39.761H106.425C109.778 39.761 111.79 38.3239 112.365 35.6413C112.557 34.1083 111.599 31.7131 109.874 31.0425ZM104.988 26.9227H106.329C106.904 26.9227 108.054 27.0185 108.15 28.264C108.15 28.6473 108.054 29.0305 107.766 29.3179C107.287 29.797 106.521 29.8928 105.85 29.8928H104.892L104.988 26.9227ZM108.724 36.0245C108.245 36.5036 107.383 36.791 106.042 36.791H104.988V32.9586H106.712C107.766 32.9586 109.012 33.4377 109.108 34.6832C109.203 35.1622 109.012 35.6413 108.724 36.0245Z" fill="white"/>
<path d="M123.575 29.3174C122.425 28.1677 120.796 27.497 119.072 27.497C115.527 27.5928 112.749 30.4671 112.844 34.012C112.94 37.3653 115.623 40.1437 118.976 40.2395H119.072C120.701 40.2395 122.329 39.5689 123.479 38.4192C125.97 36.024 126.066 32 123.671 29.509C123.767 29.4132 123.671 29.3174 123.575 29.3174ZM119.264 37.2695C118.401 37.2695 117.539 36.982 116.964 36.3114C116.293 35.6407 115.91 34.7784 115.91 33.8204C115.91 32 117.347 30.5629 119.168 30.4671H119.264C121.084 30.4671 122.521 31.9042 122.617 33.7246C122.521 35.5449 121.18 37.1737 119.264 37.2695Z" fill="white"/>
<path d="M137.084 29.3174C135.934 28.1677 134.305 27.497 132.581 27.497C129.036 27.5928 126.257 30.4671 126.353 34.012C126.449 37.3653 129.132 40.1437 132.485 40.2395H132.581C134.21 40.2395 135.838 39.5689 136.988 38.4192C139.479 36.024 139.575 32 137.18 29.509C137.18 29.4132 137.084 29.3174 137.084 29.3174ZM135.072 36.1198C134.497 36.7904 133.635 37.1737 132.772 37.1737C131.91 37.1737 131.048 36.8862 130.473 36.2156C129.802 35.5449 129.419 34.6826 129.419 33.7246C129.419 31.9042 130.856 30.4671 132.677 30.3713H132.772C134.593 30.3713 136.03 31.8084 136.03 33.6287C135.934 34.6826 135.647 35.5449 135.072 36.1198Z" fill="white"/>
<path d="M142.832 34.3958L143.024 34.1083H143.311L146.76 39.8568H150.114L145.419 32.0006L150.114 27.785H145.898L142.832 30.5634V23.761H139.862V39.8568H142.832V34.3958Z" fill="white"/>
<path d="M158.928 36.2158C158.928 33.6289 156.82 32.9583 155.191 32.4792C154.138 32.1918 153.275 31.9044 153.275 31.2337C153.275 30.7547 153.659 30.4673 154.329 30.4673C154.712 30.4673 155.096 30.5631 155.383 30.8505L155.479 30.9463L157.491 28.9343L157.395 28.8385C156.629 28.072 155.479 27.6888 154.425 27.6888C151.934 27.6888 150.401 29.1259 150.401 31.3295C150.401 33.9164 152.413 34.4912 154.042 34.9702C155.191 35.2577 156.054 35.5451 156.054 36.3116C156.054 36.9822 155.383 37.4613 154.425 37.4613C153.467 37.4613 152.892 36.9822 152.892 36.2158V36.0241H149.826V36.2158C149.826 38.5152 151.742 40.2397 154.425 40.2397C157.012 40.2397 158.928 38.5152 158.928 36.2158Z" fill="white"/>
<path d="M54.1138 27.0182V30.4673H59.3833V33.5331H54.2096V39.8565H51.0479V23.8565H59.6707V27.0182H54.1138Z" fill="white"/>
<path d="M79.3114 33.9167C79.3114 29.9886 77.1078 27.5934 73.5629 27.5934C69.9222 27.5934 67.3354 30.1802 67.3354 33.7251C67.3354 37.4616 70.018 40.2401 73.4671 40.2401C75.2874 40.2401 77.1078 39.4736 78.3533 38.1323L78.4491 38.0365L76.2455 36.1203L76.1497 36.2161C75.4791 37.0784 74.4252 37.5574 73.3713 37.5574C71.7425 37.5574 70.497 36.5036 70.2096 34.779V34.4916H79.2156L79.3114 33.9167ZM70.497 31.8089L70.5928 31.6173C71.1677 30.6592 72.1258 30.1802 73.3713 30.1802C74.7126 30.1802 75.7665 30.7551 76.0539 31.8089H70.497Z" fill="white"/>
<path d="M85.0598 32.4796C84.0059 32.1922 83.1436 31.9048 83.1436 31.1383C83.1436 30.6592 83.5269 30.3718 84.1975 30.3718C84.5808 30.3718 84.964 30.4676 85.2514 30.7551L85.3472 30.8509L87.3592 28.8389L87.2634 28.7431C86.4969 27.9766 85.3472 27.5934 84.2933 27.5934C81.8023 27.5934 80.2694 29.0305 80.2694 31.2341C80.2694 33.8209 82.2814 34.3958 83.9101 34.8748C85.0598 35.1622 85.9221 35.4497 85.9221 36.2161C85.9221 36.8868 85.2514 37.3658 84.2933 37.3658C83.3353 37.3658 82.7604 36.8868 82.7604 36.1203V35.9287H79.6945V36.1203C79.6945 38.4197 81.6107 40.1443 84.2933 40.1443C86.976 40.1443 88.8921 38.4197 88.8921 36.1203C88.7963 33.6293 86.6886 33.0545 85.0598 32.4796Z" fill="white"/>
</svg>
