<svg width="664" height="87" viewBox="0 0 664 87" fill="none" xmlns="http://www.w3.org/2000/svg">
<g clip-path="url(#clip0_1038_61)">
<path d="M68.5941 12.0508L55.1437 12.0508L67.0446 0.0927332L80.5898 0.0927334L68.5941 12.0508Z" fill="white"/>
<path fill-rule="evenodd" clip-rule="evenodd" d="M43.3274 0.0938896L43.217 0.09375C19.6294 0.09375 0.507812 19.2153 0.507812 42.803C0.507812 66.3906 19.6294 85.5122 43.217 85.5122C55.0025 85.5122 65.673 80.7386 73.4006 73.0194L73.4011 73.02L89.3347 57.0864V85.5117H101.293V35.9689H101.293V35.9688H51.7501V47.9273H81.5818L64.9618 64.5474L64.961 64.5466C59.3962 70.1115 51.7084 73.5534 43.2168 73.5534C26.2337 73.5534 12.4661 59.7859 12.4661 42.8028C12.4661 25.8197 26.2337 12.0521 43.2168 12.0521L43.2459 12.0522L51.7162 12.0521L63.6655 0.0941021L43.2459 0.0941049V0.0938896L43.3274 0.0938896Z" fill="white"/>
<path fill-rule="evenodd" clip-rule="evenodd" d="M359.864 56.9806V85.5116H371.194V54.5086C371.194 50.6632 370.37 47.2986 368.722 44.4146C367.074 41.4619 364.808 39.1616 361.924 37.5136C359.04 35.8656 355.744 35.0416 352.036 35.0416C348.396 35.0416 345.1 35.8999 342.148 37.6166C340.273 38.6879 338.659 40.0349 337.307 41.6576V11.3516H325.977V85.5116H337.307V56.9806C337.307 54.7832 337.787 52.8262 338.749 51.1096C339.71 49.3929 341.049 48.0539 342.766 47.0926C344.482 46.1312 346.439 45.6506 348.637 45.6506C351.933 45.6506 354.611 46.7149 356.671 48.8436C358.799 50.9722 359.864 53.6846 359.864 56.9806ZM294.054 85.5116V46.3716H282.335L286.528 36.0716H294.054V15.4716H305.384V36.0716H317.229V46.3716H305.384V85.5116H294.054ZM113.27 85.5116V36.0716H124.6V41.207C124.667 41.1081 124.736 41.0099 124.806 40.9126C127.621 36.9986 131.844 35.0416 137.475 35.0416C139.947 35.0416 142.178 35.4879 144.17 36.3806C145.507 36.9801 146.783 37.8275 147.996 38.9227L142.194 48.1998C141.333 47.3057 140.378 46.6619 139.329 46.2686C138.23 45.8566 136.96 45.6506 135.518 45.6506C132.359 45.6506 129.75 46.6462 127.69 48.6376C125.63 50.6289 124.6 53.7532 124.6 58.0106V85.5116H113.27ZM174.534 86.5416C169.728 86.5416 165.367 85.4086 161.453 83.1426C157.539 80.8079 154.415 77.6836 152.08 73.7696C149.814 69.8556 148.681 65.4952 148.681 60.6886C148.681 55.8819 149.814 51.5559 152.08 47.7106C154.415 43.8652 157.539 40.8096 161.453 38.5436C165.367 36.2089 169.728 35.0416 174.534 35.0416C179.41 35.0416 183.804 36.1746 187.718 38.4406C191.632 40.7066 194.722 43.7966 196.988 47.7106C199.323 51.5559 200.49 55.8819 200.49 60.6886C200.49 65.4952 199.323 69.8556 196.988 73.7696C194.722 77.6836 191.632 80.8079 187.718 83.1426C183.804 85.4086 179.41 86.5416 174.534 86.5416ZM174.534 75.6236C177.35 75.6236 179.822 75.0056 181.95 73.7696C184.148 72.4649 185.83 70.6796 186.997 68.4136C188.233 66.1476 188.851 63.5726 188.851 60.6886C188.851 57.8046 188.233 55.2639 186.997 53.0666C185.761 50.8692 184.079 49.1526 181.95 47.9166C179.822 46.6119 177.35 45.9596 174.534 45.9596C171.788 45.9596 169.316 46.6119 167.118 47.9166C164.99 49.1526 163.307 50.8692 162.071 53.0666C160.904 55.2639 160.32 57.8046 160.32 60.6886C160.32 63.5726 160.904 66.1476 162.071 68.4136C163.307 70.6796 164.99 72.4649 167.118 73.7696C169.316 75.0056 171.788 75.6236 174.534 75.6236ZM201.364 36.0716L221.243 85.5116H227.835L239.371 56.0504L250.907 85.5116H257.499L277.378 36.0716H265.635L254.001 67.307L242.667 36.0716H236.075L224.74 67.307L213.105 36.0716H201.364ZM385.282 85.5116V13.4116H393.522L420.817 58.3405L448.112 13.4116H456.352V85.5116H444.507V39.3399L424.937 71.5036H416.697L397.127 39.3399V85.5116H385.282ZM476.931 83.1426C480.57 85.4086 484.622 86.5416 489.085 86.5416C492.862 86.5416 496.226 85.7519 499.179 84.1726C501.153 83.0709 502.835 81.7084 504.226 80.085V85.5116H515.556V36.0716H504.226V41.5742C502.793 39.937 501.076 38.5835 499.076 37.5136C496.192 35.8656 492.862 35.0416 489.085 35.0416C484.622 35.0416 480.57 36.2089 476.931 38.5436C473.36 40.8096 470.511 43.8996 468.382 47.8136C466.322 51.6589 465.292 56.0192 465.292 60.8946C465.292 65.7012 466.322 70.0616 468.382 73.9756C470.511 77.8209 473.36 80.8766 476.931 83.1426ZM501.033 71.6066C498.492 74.4219 495.128 75.8296 490.939 75.8296C488.192 75.8296 485.755 75.2116 483.626 73.9756C481.566 72.6709 479.918 70.8856 478.682 68.6196C477.515 66.3536 476.931 63.7442 476.931 60.7916C476.931 57.8389 477.515 55.2296 478.682 52.9636C479.918 50.6976 481.566 48.9466 483.626 47.7106C485.755 46.4059 488.192 45.7536 490.939 45.7536C493.754 45.7536 496.192 46.4059 498.252 47.7106C500.381 48.9466 502.029 50.6976 503.196 52.9636C504.363 55.2296 504.947 57.8389 504.947 60.7916C504.947 65.1862 503.642 68.7912 501.033 71.6066ZM536.679 85.5116V46.3716H524.834V36.0716H536.679V15.4716H548.009V36.0716H559.854V46.3716H548.009V85.5116H536.679ZM576.533 83.1426C580.516 85.4086 584.945 86.5416 589.82 86.5416C593.665 86.5416 597.236 85.8206 600.532 84.3786C603.897 82.8679 606.746 80.7392 609.081 77.9926L601.665 70.4736C600.223 72.1902 598.472 73.4949 596.412 74.3876C594.421 75.2116 592.223 75.6236 589.82 75.6236C587.005 75.6236 584.498 75.0056 582.301 73.7696C580.172 72.4649 578.49 70.7139 577.254 68.5166C576.087 66.2506 575.503 63.6756 575.503 60.7916C575.503 57.8389 576.087 55.2639 577.254 53.0666C578.49 50.8692 580.172 49.1526 582.301 47.9166C584.498 46.6119 587.005 45.9596 589.82 45.9596C592.223 45.9596 594.421 46.4059 596.412 47.2986C598.472 48.1226 600.223 49.3929 601.665 51.1096L609.081 43.5906C606.746 40.8439 603.897 38.7496 600.532 37.3076C597.236 35.7969 593.665 35.0416 589.82 35.0416C584.945 35.0416 580.516 36.1746 576.533 38.4406C572.619 40.7066 569.529 43.7966 567.263 47.7106C564.997 51.5559 563.864 55.9162 563.864 60.7916C563.864 65.5982 564.997 69.9586 567.263 73.8726C569.529 77.7866 572.619 80.8766 576.533 83.1426ZM652.166 85.5116V56.9806C652.166 53.6846 651.102 50.9722 648.973 48.8436C646.913 46.7149 644.235 45.6506 640.939 45.6506C638.742 45.6506 636.785 46.1312 635.068 47.0926C633.352 48.0539 632.013 49.3929 631.051 51.1096C630.09 52.8262 629.609 54.7832 629.609 56.9806V85.5116H618.279V11.3516H629.609V41.6577C630.962 40.0349 632.576 38.6879 634.45 37.6166C637.403 35.8999 640.699 35.0416 644.338 35.0416C648.046 35.0416 651.342 35.8656 654.226 37.5136C657.11 39.1616 659.376 41.4619 661.024 44.4146C662.672 47.2986 663.496 50.6632 663.496 54.5086V85.5116H652.166Z" fill="white"/>
</g>
<defs>
<clipPath id="clip0_1038_61">
<rect width="664" height="87" fill="white"/>
</clipPath>
</defs>
</svg>
