<svg width="170" height="64" viewBox="0 0 170 64" fill="none" xmlns="http://www.w3.org/2000/svg">
<path fill-rule="evenodd" clip-rule="evenodd" d="M20.9593 29.5632V29.5639C20.9578 31.8711 20.9563 34.1793 20.9607 36.4846C20.9674 37.8302 20.4145 38.8761 19.3353 39.6622C17.9696 40.6548 15.6446 40.5349 14.4122 39.1693C13.7194 38.4032 13.373 37.5438 13.3796 36.4979C13.3996 30.6089 13.4063 24.7198 13.373 18.8374C13.3663 18.0114 14.1457 17.3452 14.8319 17.3585C15.7046 17.3785 16.3641 17.9847 16.3641 18.8508C16.3685 20.5966 16.3671 22.3425 16.3656 24.0864C16.3648 24.9577 16.3641 25.8284 16.3641 26.6984V36.3114C16.3641 36.6511 16.4241 36.9508 16.7238 37.1575C17.1902 37.4772 17.7964 37.2574 17.923 36.7044C17.9763 36.4779 17.9896 36.2448 17.9896 36.0115C17.9962 29.1831 17.9962 22.3482 17.9896 15.5198C17.9896 15.1002 18.1028 14.7471 18.4159 14.4473C18.8156 14.0676 19.5418 13.8877 20.0081 14.0742C20.601 14.3141 20.9674 14.847 20.9674 15.4999C20.9607 19.0306 20.9607 22.568 20.9607 26.1055C20.9607 27.255 20.96 28.4053 20.9593 29.5558V29.5566V29.5573V29.558V29.5588V29.5595V29.5603V29.561V29.5617V29.5625V29.5632ZM22.5795 27.158V17.4784C22.5795 16.719 23.0193 16.1527 23.7054 15.9928C24.4449 15.8196 25.1377 16.1194 25.4574 16.7989C25.5574 17.0121 25.5907 17.2719 25.5907 17.5051C25.5973 23.8785 25.5973 30.2519 25.5973 36.6319V36.6378C25.5973 40.3218 23.1325 43.3862 20.108 44.4188C16.8637 45.5246 13.8992 44.9716 11.3478 42.6334C10.162 41.5475 9.3359 40.2086 8.99615 38.623C8.81801 37.7955 8.70431 36.9531 8.59091 36.113C8.57284 35.9792 8.55479 35.8454 8.53648 35.7118C8.43415 34.9652 8.34045 34.2164 8.24679 33.4679C8.17581 32.9007 8.10485 32.3337 8.03019 31.768C7.96357 31.2684 7.98355 30.7954 8.33663 30.389C8.76298 29.8893 9.41584 29.6828 10.0154 29.8827C10.4551 30.0292 10.968 30.489 11.0413 31.2284C11.122 32.0225 11.2216 32.8111 11.3212 33.5995L11.3212 33.5996L11.3212 33.5996L11.3212 33.5996L11.3212 33.5997L11.3213 33.5997L11.3213 33.5997L11.3213 33.5998L11.3213 33.5998L11.3213 33.5999L11.3213 33.5999L11.3213 33.5999C11.3779 34.0483 11.4345 34.4965 11.4877 34.9456L11.4946 35.0012L11.4946 35.0013C11.5722 35.6219 11.6491 36.2367 11.7008 36.8576C11.9007 39.0894 13.4396 40.9546 15.5847 41.6674C18.4759 42.6267 21.8801 40.7414 22.4596 37.5238C22.5329 37.104 22.5729 36.6711 22.5729 36.2381C22.5829 35.0989 22.5816 33.9597 22.5804 32.8206C22.5799 32.4408 22.5795 32.0611 22.5795 31.6814V27.158ZM30.1423 31.9652V31.9652V31.9652V31.9651V31.9651V31.9651V31.9651V31.9651V31.9651V31.965V31.965C30.1449 31.262 30.1474 30.559 30.1474 29.856C30.1474 27.2513 30.1474 24.6465 30.1541 22.0351C30.1541 21.3356 29.5611 20.7294 28.8617 20.696C27.8558 20.6494 27.1962 21.2823 27.1962 22.2949C27.1937 24.0762 27.194 25.8565 27.1943 27.6366V27.6367V27.6367V27.6368V27.6369V27.637V27.637V27.6371V27.6372V27.6373V27.6374C27.1949 30.6037 27.1954 33.5695 27.1829 36.5378C27.1762 37.244 27.103 37.9567 26.9498 38.643C25.8439 43.4661 21.8335 46.4506 17.1236 46.5572C16.544 46.5705 16.1443 46.8236 15.8645 47.2834C15.5647 47.7696 15.5714 48.2893 15.8445 48.7755C16.111 49.2419 16.504 49.5683 17.0836 49.5283C17.2748 49.5165 17.4666 49.5066 17.6587 49.4967L17.6589 49.4967L17.6591 49.4967L17.6594 49.4967L17.6596 49.4967L17.6599 49.4967L17.6602 49.4967L17.6605 49.4966L17.6607 49.4966L17.661 49.4966L17.6613 49.4966H17.6613C18.3317 49.4621 19.0047 49.4275 19.6617 49.3085C22.7794 48.7356 25.3242 47.1501 27.3094 44.7118C29.1947 42.3936 30.194 39.7355 30.1541 36.711C30.131 35.1291 30.1367 33.5471 30.1423 31.9652ZM98.4242 30.3822V25.7657V22.3415C98.4242 21.9418 98.6774 21.682 99.0838 21.6753C99.65 21.6687 100.216 21.6687 100.782 21.6753C101.182 21.682 101.402 21.8818 101.422 22.2816C101.449 22.8411 101.469 23.4074 101.469 23.967C101.463 24.739 101.452 25.51 101.44 26.2807C101.425 27.3587 101.409 28.4364 101.409 29.5163C101.404 32.5008 101.406 35.4853 101.407 38.4698C101.408 39.962 101.409 41.4542 101.409 42.9465C101.409 43.5261 101.249 43.6393 100.656 43.686C99.5035 43.7859 98.7839 43.0797 98.4909 42.2003C98.365 42.2912 98.2416 42.3858 98.1185 42.4804C97.8441 42.691 97.5706 42.9009 97.2718 43.0664C95.9794 43.7859 94.5737 44.1589 93.1015 43.9924C92.3021 43.8991 91.5026 43.6593 90.7432 43.3729C89.7639 43.0064 88.9045 42.4136 88.1851 41.6408C86.9259 40.2884 86.1799 38.7029 86.04 36.8443C85.8867 34.7192 86.5529 32.8805 87.9319 31.2749C89.0511 29.9759 90.4501 29.1099 92.1289 28.8035C92.8141 28.677 93.5283 28.6923 94.2389 28.7075L94.239 28.7075C94.4265 28.7115 94.6138 28.7155 94.8002 28.7169C95.6995 28.7235 96.499 29.0966 97.2585 29.5297C97.5295 29.6923 97.7823 29.8886 98.0436 30.0917C98.1676 30.188 98.2935 30.2858 98.4242 30.3822ZM93.741 31.5748C91.0364 31.4616 89.0778 33.7266 89.0177 36.178C88.9511 38.976 91.1296 41.0878 93.6211 41.1144C96.3325 41.1411 98.3909 39.036 98.4109 36.3312C98.4309 33.6733 96.3857 31.4949 93.741 31.5748ZM61.025 43.7592C62.5971 43.6126 64.0095 43.0996 65.1686 41.9871C65.6748 43.113 66.2544 43.546 67.4269 43.4994C67.9466 43.4728 68.1731 43.2661 68.1731 42.7399V38.6163V29.7028C68.1731 29.1765 67.9466 28.9433 67.4336 28.9433C66.8807 28.9367 66.3211 28.9367 65.7681 28.9433C65.3951 28.95 65.1486 29.1964 65.1353 29.5696C65.131 29.7032 65.1322 29.8367 65.1337 29.9866V29.9866V29.9867V29.9868V29.9869V29.987V29.9871V29.9873V29.9874C65.1345 30.0689 65.1353 30.1552 65.1353 30.249C65.076 30.193 65.0298 30.1517 64.9909 30.117C64.9512 30.0815 64.9191 30.0528 64.8888 30.0225C64.3159 29.4697 63.643 29.0499 62.8903 28.8168C61.418 28.3637 59.9191 28.3171 58.4202 28.7035C56.5482 29.1898 55.096 30.2823 54.0301 31.8612C52.9442 33.4667 52.5111 35.2587 52.8109 37.1906C53.1773 39.5423 54.3898 41.3677 56.3883 42.6267C57.7939 43.5061 59.3395 43.9191 61.025 43.7592ZM65.1286 36.1447C65.122 38.8561 62.9769 40.9079 60.4187 40.9079C57.7939 40.8813 55.7221 38.7762 55.7421 36.1047C55.7621 33.4068 57.7406 31.2949 60.4986 31.3215C63.1101 31.3482 65.1286 33.36 65.1286 36.1447ZM126.164 41.9605C125.298 42.8599 124.219 43.3529 123.026 43.606C122.48 43.7193 121.907 43.8258 121.354 43.7992C119.362 43.7059 117.597 43.0464 116.125 41.6408C114.759 40.3351 113.993 38.7496 113.766 36.9175C113.606 35.6318 113.833 34.3728 114.326 33.1603C114.692 32.2676 115.212 31.4682 115.878 30.7954C117.084 29.5696 118.53 28.7502 120.268 28.537C122.127 28.3104 123.906 28.5037 125.471 29.6562C125.631 29.7724 125.777 29.9063 125.942 30.0577C126.004 30.1146 126.068 30.1739 126.137 30.2357C126.137 30.1492 126.137 30.0692 126.136 29.9935C126.134 29.8536 126.133 29.7283 126.137 29.6029C126.151 29.1965 126.397 28.95 126.81 28.9434C127.363 28.9367 127.923 28.9367 128.476 28.9434C128.922 28.9434 129.115 29.1365 129.115 29.5963V37.3107V42.8332C129.115 43.3063 128.929 43.4728 128.456 43.4928C127.237 43.5328 126.717 43.1729 126.164 41.9605ZM121.421 40.908C124.066 40.8747 126.091 38.8495 126.111 36.2047C126.137 33.3402 124.126 31.355 121.487 31.3217C118.729 31.2816 116.758 33.4734 116.731 36.0781C116.704 38.7496 118.816 40.9013 121.421 40.908ZM43.7109 28.4305C42.4783 28.577 41.3991 29.1232 40.5399 30.1158V29.7694C40.5399 29.03 40.5406 28.2905 40.5414 27.5511V27.5496C40.5428 26.0712 40.5443 24.5927 40.5399 23.1143C40.5332 22.1417 39.907 21.249 38.8011 21.3556C38.6543 21.3689 38.5045 21.3644 38.3557 21.36C38.2817 21.3578 38.2079 21.3556 38.1349 21.3556C37.6287 21.3556 37.5687 21.4089 37.5687 21.9285V43.1797C37.5687 43.6726 37.7086 43.8125 38.2015 43.8192C38.5567 43.8236 38.9119 43.8221 39.267 43.8207H39.2674C39.4451 43.8199 39.6227 43.8192 39.8004 43.8192C40.3865 43.8192 40.5465 43.6527 40.5465 43.0664C40.5465 42.2693 40.544 41.4715 40.5415 40.6736V40.6735V40.6735V40.6735V40.6735V40.6735V40.6734C40.5358 38.8772 40.5301 37.0797 40.5532 35.2855C40.5732 33.64 41.2792 32.3809 42.8182 31.6614C44.4903 30.8819 46.5022 31.4816 47.5281 32.9471C48.081 33.7332 48.2142 34.6326 48.2208 35.5586C48.2308 37.4526 48.2296 39.3505 48.2283 41.2465V41.2471V41.2478V41.2484V41.2491V41.2497V41.2503C48.2279 41.8804 48.2275 42.5102 48.2275 43.1396C48.2275 43.6193 48.414 43.8125 48.8804 43.8125C49.0645 43.8125 49.2493 43.8133 49.4344 43.814C49.8052 43.8155 50.177 43.817 50.5459 43.8125C51.0255 43.8059 51.2653 43.5727 51.2653 43.0997C51.2608 42.4421 51.257 41.7845 51.2533 41.1269C51.24 38.8266 51.2268 36.5264 51.1853 34.2261C51.172 33.6466 51.0321 33.0337 50.8257 32.4875C50.0862 30.5489 48.7272 29.2431 46.702 28.6436C45.7161 28.3505 44.7035 28.3106 43.7109 28.4305ZM161.998 36.3047V36.7244C161.998 37.2241 161.831 37.3972 161.331 37.4039C161.138 37.4039 160.947 37.3939 160.755 37.3839C160.564 37.3739 160.372 37.3639 160.179 37.3639C159.22 37.3615 158.261 37.3626 157.301 37.3637H157.3H157.3H157.3H157.3H157.299C155.619 37.3656 153.937 37.3676 152.258 37.3506C151.692 37.344 151.619 37.637 151.852 38.0635C152.604 39.4158 153.677 40.4017 155.242 40.6082C156.689 40.7947 158.088 40.6082 159.247 39.549C159.286 39.5128 159.326 39.4729 159.366 39.4324C159.54 39.2562 159.727 39.0673 160.019 39.116C160.146 39.136 160.299 39.2026 160.379 39.3025C160.657 39.6358 160.919 39.9805 161.184 40.3281L161.184 40.3283L161.184 40.3285L161.192 40.3386C161.225 40.3819 161.258 40.4253 161.291 40.4688C161.34 40.533 161.389 40.5972 161.438 40.6615C161.691 40.9947 161.658 41.341 161.311 41.5808C160.019 42.5002 158.634 43.173 157.042 43.4328C155.369 43.7059 153.81 43.4195 152.325 42.68C150.886 41.9673 149.827 40.868 149.074 39.4424C148.421 38.1967 148.148 36.8842 148.248 35.5119C148.415 33.1071 149.427 31.1152 151.399 29.6828C152.644 28.7835 154.076 28.3838 155.616 28.4704C156.915 28.5437 158.154 28.8834 159.207 29.6762C160.139 30.3824 160.805 31.335 161.238 32.4209C161.718 33.64 162.031 34.9057 161.998 36.3047ZM155.135 34.5193H158.161C158.561 34.5193 158.68 34.3595 158.601 33.973C158.441 33.2336 158.028 32.6673 157.508 32.1211C156.589 31.1552 154.636 31.0752 153.623 31.6947C152.758 32.221 152.178 32.9737 151.752 33.8664C151.545 34.3062 151.685 34.5127 152.178 34.5127C152.917 34.5227 153.657 34.5214 154.396 34.5202H154.396C154.643 34.5197 154.889 34.5193 155.135 34.5193ZM75.5275 28.7302C74.748 29.0501 74.0686 29.4963 73.5623 30.0893C73.4939 30.0092 73.4279 29.924 73.3611 29.8378L73.3611 29.8377C73.2 29.6299 73.0347 29.4166 72.8228 29.2565C72.3032 28.8235 71.6503 28.8368 71.0175 28.8901C70.7043 28.9168 70.4512 29.2432 70.4512 29.5629V43.1331C70.4512 43.5727 70.7177 43.826 71.1641 43.826C71.5329 43.8304 71.9047 43.8289 72.2756 43.8274C72.4606 43.8267 72.6454 43.826 72.8294 43.826C73.3291 43.8193 73.5623 43.586 73.5623 43.0998C73.5623 40.495 73.5623 37.8903 73.5689 35.2855C73.5689 34.9324 73.5889 34.5726 73.6755 34.2329C74.0287 32.9006 74.828 31.9813 76.1604 31.5348C77.5727 31.0619 78.8317 31.355 79.9244 32.2943C80.8036 33.0538 81.1901 34.0597 81.1834 35.2388C81.1691 37.1132 81.1719 38.9909 81.1746 40.8671V40.8691V40.8698V40.8705V40.8712V40.8719C81.1757 41.6215 81.1768 42.3709 81.1768 43.1198C81.1768 43.5661 81.4232 43.8126 81.8696 43.8193C82.2384 43.8237 82.6103 43.8223 82.9811 43.8208C83.1662 43.82 83.351 43.8193 83.535 43.8193C84.048 43.8126 84.2878 43.586 84.2878 43.0665L84.2873 42.9974C84.2675 40.209 84.2476 37.4142 84.2212 34.6259C84.2012 33.1137 83.6815 31.788 82.7355 30.6088C81.6297 29.2299 80.1442 28.577 78.4387 28.4171C77.4594 28.3239 76.4735 28.3439 75.5275 28.7302ZM147.162 39.0694C147.129 40.5749 146.583 41.6741 145.504 42.5135C144.537 43.2663 143.451 43.6326 142.245 43.7592C140.593 43.9325 139.035 43.5927 137.542 42.9399C137.093 42.742 136.683 42.4539 136.276 42.1688C136.176 42.0988 136.077 42.0289 135.977 41.9606C135.71 41.774 135.71 41.4942 135.897 41.2278L135.898 41.2259L135.898 41.2258L135.898 41.2257L135.898 41.2256C136.244 40.7266 136.59 40.2278 136.949 39.7421C137.149 39.469 137.422 39.4491 137.709 39.6422C138.961 40.4816 140.32 40.9747 141.846 40.9079C142.545 40.8746 143.184 40.6348 143.711 40.1553C144.25 39.6622 144.124 38.6763 143.498 38.2833C142.698 37.7836 141.799 37.5704 140.893 37.3573C139.501 37.0242 138.142 36.5978 137.116 35.5119C136.317 34.6659 136.023 33.6733 136.097 32.4875C136.223 30.3557 138.142 28.91 139.874 28.6103C140.467 28.5037 141.08 28.3971 141.679 28.4171C143.231 28.4704 144.717 28.8168 146.03 29.7095C146.41 29.9693 146.456 30.2691 146.197 30.6355C146.056 30.829 145.919 31.0237 145.783 31.2181L145.783 31.2184L145.782 31.2192C145.591 31.4929 145.399 31.7659 145.196 32.0345C144.943 32.3742 144.776 32.3876 144.41 32.1611C143.424 31.5548 142.359 31.1951 141.2 31.3283C140.687 31.3883 140.16 31.5681 139.714 31.8279C139.061 32.2011 138.881 33.2203 139.727 33.7798C140.16 34.0635 140.642 34.1948 141.124 34.3263C141.287 34.3709 141.451 34.4155 141.613 34.466C141.821 34.5305 142.031 34.5932 142.24 34.6559L142.24 34.6559L142.24 34.656L142.24 34.656C143.026 34.8912 143.81 35.1259 144.557 35.452C145.79 35.9917 146.763 36.8509 147.056 38.2566C147.089 38.4538 147.112 38.6535 147.131 38.8194L147.131 38.8198L147.132 38.8201L147.132 38.8208C147.143 38.9177 147.153 39.0031 147.162 39.0694ZM111.015 28.7968C109.343 28.8168 107.911 29.3964 106.665 30.5822V29.9093C106.658 29.5296 106.472 29.3365 106.099 29.3365H104.4C103.834 29.3365 103.687 29.483 103.687 30.0359V42.7733C103.687 43.7659 103.747 43.7725 104.733 43.8325C105.779 43.8924 106.685 42.72 106.672 41.9006C106.652 40.2618 106.652 38.6163 106.672 36.9775C106.678 36.4579 106.705 35.9316 106.812 35.432C107.171 33.7332 108.177 32.5474 109.816 31.9345C110.709 31.6015 111.635 31.6547 112.561 31.8146C112.92 31.8812 113.174 31.768 113.293 31.4283C113.42 31.0478 113.536 30.6603 113.652 30.2735L113.652 30.273C113.695 30.1316 113.737 29.9902 113.78 29.8494C113.913 29.4031 113.82 29.2231 113.387 29.0632C112.621 28.7703 111.822 28.7835 111.016 28.7968L111.015 28.7968ZM131.254 36.3047V30.0493C131.254 29.1433 131.334 29.0701 132.226 29.0567C132.713 29.0501 133.146 29.1633 133.512 29.4764C133.905 29.8094 134.158 30.2225 134.158 30.7621V42.9666C134.158 43.4262 134.045 43.5394 133.599 43.5461H131.833C131.44 43.5461 131.254 43.3529 131.254 42.9533V36.3047ZM132.679 23.9471C131.74 23.9471 131.12 24.52 131.12 25.3927C131.12 26.2787 131.793 26.9782 132.639 26.9848C133.439 26.9848 134.158 26.2521 134.158 25.4193C134.158 24.5666 133.539 23.9471 132.679 23.9471Z" fill="white"/>
</svg>
