<svg width="170" height="64" viewBox="0 0 170 64" fill="none" xmlns="http://www.w3.org/2000/svg">
<path d="M88.9561 27.5229C90.337 27.5229 91.577 27.8103 92.6768 28.3852C93.7772 28.9602 94.6368 29.8033 95.2569 30.9148C95.8774 32.0072 96.1875 33.3294 96.1875 34.8816V41.953C96.1875 42.3746 96.0374 42.7291 95.7377 43.0166C95.4572 43.2848 95.0975 43.4189 94.6576 43.4189C94.2171 43.4189 93.847 43.2848 93.5468 43.0166C93.2668 42.7291 93.1266 42.3746 93.1266 41.953V34.8816C93.1266 33.3294 92.6867 32.1605 91.8068 31.3748C90.9466 30.5699 89.7966 30.1675 88.3562 30.1675C87.5163 30.1675 86.7461 30.3303 86.0459 30.6561C85.3658 30.9818 84.826 31.4226 84.4259 31.9784C84.046 32.5341 83.8561 33.157 83.8561 33.8468V41.953C83.8561 42.3746 83.7158 42.7291 83.4358 43.0166C83.1558 43.2848 82.7858 43.4189 82.3251 43.4189C81.8852 43.4189 81.5151 43.2848 81.2155 43.0166C80.9355 42.7291 80.7952 42.3746 80.7952 41.953V22.4062C80.7952 21.9654 80.9355 21.6109 81.2155 21.3426C81.5151 21.0744 81.8852 20.9402 82.3251 20.9402C82.7858 20.9402 83.1558 21.0744 83.4358 21.3426C83.7158 21.6109 83.8561 21.9654 83.8561 22.4062V29.4488C84.4958 28.8356 85.2561 28.3661 86.1359 28.0403C87.0158 27.6953 87.9562 27.5229 88.9561 27.5229Z" fill="white"/>
<path d="M101.108 29.0613C101.108 28.6174 101.249 28.2604 101.529 27.9902C101.83 27.72 102.201 27.585 102.643 27.585C103.104 27.585 103.475 27.72 103.756 27.9902C104.037 28.2604 104.177 28.6174 104.177 29.0613V41.9431C104.177 42.3676 104.037 42.7246 103.756 43.014C103.475 43.2842 103.104 43.4193 102.643 43.4193C102.201 43.4193 101.83 43.2842 101.529 43.014C101.249 42.7246 101.108 42.3676 101.108 41.9431V29.0613ZM102.643 21.1875C103.185 21.1875 103.645 21.3805 104.027 21.7665C104.428 22.1331 104.629 22.577 104.629 23.0981C104.629 23.6191 104.428 24.0727 104.027 24.4586C103.645 24.8253 103.185 25.0086 102.643 25.0086C102.101 25.0086 101.63 24.8253 101.228 24.4586C100.847 24.0727 100.656 23.6191 100.656 23.0981C100.656 22.577 100.847 22.1331 101.228 21.7665C101.63 21.3805 102.101 21.1875 102.643 21.1875Z" fill="white"/>
<path d="M116.274 40.5416C116.626 40.5416 116.921 40.6758 117.156 40.9445C117.411 41.2131 117.539 41.5584 117.539 41.9805C117.539 42.4026 117.372 42.748 117.038 43.0166C116.724 43.2851 116.313 43.4195 115.803 43.4195H115.273C114.312 43.4195 113.429 43.1796 112.625 42.7C111.841 42.2011 111.223 41.5296 110.772 40.6854C110.322 39.8413 110.096 38.8915 110.096 37.8364V30.7279H108.743C108.33 30.7279 107.997 30.6128 107.742 30.3826C107.487 30.1523 107.36 29.8646 107.36 29.5193C107.36 29.1355 107.487 28.8285 107.742 28.5983C107.997 28.368 108.33 28.2529 108.743 28.2529H110.096V24.1088C110.096 23.6867 110.233 23.3414 110.508 23.0727C110.782 22.8042 111.135 22.6698 111.567 22.6698C111.998 22.6698 112.351 22.8042 112.625 23.0727C112.9 23.3414 113.037 23.6867 113.037 24.1088V28.2529H115.538C115.95 28.2529 116.283 28.368 116.538 28.5983C116.793 28.8285 116.921 29.1355 116.921 29.5193C116.921 29.8646 116.793 30.1523 116.538 30.3826C116.283 30.6128 115.95 30.7279 115.538 30.7279H113.037V37.8364C113.037 38.6038 113.253 39.2465 113.685 39.7645C114.116 40.2826 114.646 40.5416 115.273 40.5416H116.274Z" fill="white"/>
<path d="M128.308 27.6098C130.642 27.6098 132.58 28.4643 134.123 30.1734C134.321 30.3823 134.419 30.6292 134.419 30.9141C134.419 31.3319 134.202 31.6831 133.767 31.9679C133.569 32.1008 133.342 32.1673 133.085 32.1673C132.63 32.1673 132.244 31.9964 131.928 31.6546C131.433 31.1419 130.89 30.7716 130.296 30.5437C129.722 30.2969 129.06 30.1734 128.308 30.1734C126.785 30.1734 125.55 30.6672 124.6 31.6546C123.651 32.6232 123.176 33.9144 123.176 35.5287C123.176 36.5541 123.394 37.4751 123.829 38.2917C124.284 39.0892 124.907 39.716 125.698 40.1717C126.509 40.6274 127.428 40.8553 128.457 40.8553C129.801 40.8553 130.89 40.523 131.72 39.8584C132.095 39.5925 132.462 39.4595 132.817 39.4595C133.095 39.4595 133.351 39.5451 133.589 39.716C133.965 40.0197 134.153 40.3617 134.153 40.7415C134.153 41.0263 134.034 41.2825 133.797 41.5105C132.373 42.7829 130.592 43.419 128.457 43.419C126.894 43.419 125.49 43.0772 124.244 42.3935C122.998 41.7099 122.019 40.77 121.307 39.5736C120.615 38.3582 120.269 37.0098 120.269 35.5287C120.269 34.0094 120.605 32.6516 121.277 31.4552C121.97 30.2399 122.929 29.2999 124.155 28.6352C125.381 27.9516 126.766 27.6098 128.308 27.6098Z" fill="white"/>
<path d="M146.669 27.5229C148.027 27.5229 149.248 27.8103 150.33 28.3852C151.412 28.9602 152.258 29.8033 152.869 30.9148C153.479 32.0072 153.784 33.3294 153.784 34.8816V41.953C153.784 42.3746 153.637 42.7291 153.341 43.0166C153.066 43.2848 152.711 43.4189 152.279 43.4189C151.845 43.4189 151.481 43.2848 151.186 43.0166C150.91 42.7291 150.773 42.3746 150.773 41.953V34.8816C150.773 33.3294 150.34 32.1605 149.474 31.3748C148.628 30.5699 147.496 30.1675 146.079 30.1675C145.253 30.1675 144.495 30.3303 143.806 30.6561C143.137 30.9818 142.605 31.4226 142.212 31.9784C141.839 32.5341 141.651 33.157 141.651 33.8468V41.953C141.651 42.3746 141.514 42.7291 141.238 43.0166C140.962 43.2848 140.598 43.4189 140.145 43.4189C139.713 43.4189 139.349 43.2848 139.054 43.0166C138.778 42.7291 138.64 42.3746 138.64 41.953V22.4062C138.64 21.9654 138.778 21.6109 139.054 21.3426C139.349 21.0744 139.713 20.9402 140.145 20.9402C140.598 20.9402 140.962 21.0744 141.238 21.3426C141.514 21.6109 141.651 21.9654 141.651 22.4062V29.4488C142.281 28.8356 143.029 28.3661 143.895 28.0403C144.76 27.6953 145.685 27.5229 146.669 27.5229Z" fill="white"/>
<path d="M46.2823 17.1922C47.9221 15.6026 50.5807 15.6026 52.2201 17.1922L52.5763 17.5376L44.2636 25.5966C44.2595 25.6006 44.2551 25.605 44.2508 25.6088C44.1396 25.7152 44.0205 25.8083 43.8948 25.8887C42.982 26.4729 41.7419 26.3755 40.9383 25.5966C40.8236 25.4854 40.7231 25.3655 40.6371 25.239C40.0345 24.3543 40.1348 23.1519 40.9383 22.373L46.2823 17.1922Z" fill="white"/>
<path d="M54.2387 19.1493L57.5639 22.373L49.2511 30.432C48.3329 31.3221 46.8441 31.3221 45.9259 30.432C45.811 30.3207 45.7106 30.2008 45.6245 30.0744C45.0251 29.194 45.1214 27.9993 45.9136 27.2201L45.9154 27.2185C45.9189 27.2151 45.9224 27.2117 45.9259 27.2083L54.2387 19.1493Z" fill="white"/>
<path d="M62.5513 27.2084L59.2262 23.9848L50.9134 32.0439C49.995 32.9341 49.995 34.3773 50.9134 35.2675C51.028 35.3787 51.1517 35.4761 51.282 35.5596C52.1922 36.1421 53.4283 36.0469 54.2317 35.274C54.234 35.2718 54.2365 35.2697 54.2385 35.2675L62.5513 27.2084Z" fill="white"/>
<path d="M64.2144 28.8203L64.4982 29.0955C66.1781 30.7239 66.1781 33.3639 64.4982 34.9923L59.2266 40.103C58.9833 40.3391 58.6995 40.5127 58.3969 40.6234C58.343 40.6433 58.2887 40.661 58.2337 40.6767C57.4342 40.9061 56.5341 40.7153 55.9028 40.1042L55.9015 40.103C54.9846 39.2141 54.9836 37.7734 55.898 36.8829L64.2144 28.8203Z" fill="white"/>
<path d="M39.2761 27.2085C38.4244 26.3829 37.9676 25.3194 37.9059 24.2386L35.3966 26.6712C33.5602 28.4515 30.5829 28.4515 28.7463 26.6712L27.6381 25.5968C24.8834 22.9262 20.4173 22.9262 17.6626 25.5968L16 27.2085L17.6559 28.8139L17.6626 28.8204L32.6255 43.3265C39.0531 49.5578 49.4741 49.5578 55.9018 43.3265L56.3464 42.8953C55.5744 42.6955 54.845 42.302 54.2392 41.7147C53.2462 40.752 52.7902 39.4657 52.8713 38.2058C51.5714 38.2843 50.2445 37.8422 49.2515 36.8794C48.2583 35.9166 47.8022 34.6303 47.8833 33.3703C46.5837 33.4489 45.2568 33.0067 44.2638 32.044C43.2706 31.0811 42.8145 29.7948 42.8957 28.535C41.596 28.6135 40.2692 28.1713 39.2761 27.2085Z" fill="white"/>
</svg>
