<svg width="170" height="64" viewBox="0 0 170 64" fill="none" xmlns="http://www.w3.org/2000/svg">
<path d="M142.493 30.5392C141.817 30.5441 142.014 31.0624 142.009 31.4128C141.965 33.6684 141.264 35.761 140.331 37.7797C139.077 40.4943 137.039 42.429 134.166 43.3816C133.006 43.7666 131.768 43.9245 130.563 44.1565C129.986 44.2651 129.685 44.0874 129.705 43.3964C129.754 41.6147 129.719 39.828 129.719 38.0462C129.719 36.5853 129.897 35.0997 129.685 33.6733C129.093 29.6903 129.26 25.6974 129.211 21.7045C129.206 21.1221 128.91 21.3985 128.643 21.6156C128.273 21.9118 127.824 21.9463 127.77 21.3787C127.563 19.3403 127.439 17.297 127.252 15.2586C127.187 14.5725 127.518 14.5133 128.096 14.4541C128.638 14.3998 129.418 14.9427 129.714 14C131.19 14 132.661 14 134.137 14C134.265 14.1629 134.393 14.4639 134.522 14.4639C136.279 14.4541 137.666 15.2734 138.811 16.4629C140.785 18.5161 141.915 20.9641 142.004 23.8416C142.014 24.192 141.821 24.7004 142.488 24.7053V30.5441L142.493 30.5392ZM133.648 29.8531C133.648 32.2765 133.648 34.6999 133.658 37.1233C133.658 37.3404 133.771 37.7452 133.831 37.7452C134.107 37.7452 134.467 37.7155 134.655 37.5477C136.526 35.8598 137.478 33.7325 137.572 31.24C137.621 29.9469 137.572 28.6538 137.582 27.3607C137.592 24.9274 136.461 23.0568 134.62 21.5613C134.517 21.4774 134.028 21.6107 133.974 21.744C133.801 22.1585 133.673 22.6225 133.668 23.0667C133.638 25.3272 133.653 27.5926 133.653 29.8531H133.648Z" fill="white"/>
<path d="M44.7234 29.4435C44.5211 26.6894 45.0245 23.8169 46.5546 21.2158C47.9661 18.8073 49.8565 16.7689 52.6994 16.1371C54.6983 15.6929 56.8008 15.6732 58.7948 16.4332C60.7049 17.1637 62.2399 18.2002 63.4688 19.9918C64.8804 22.045 65.5319 24.1673 65.9317 26.5463C66.0946 27.5334 66.3068 28.5057 66.3463 29.5126C66.3858 30.5343 65.7096 31.3881 65.7984 32.469C65.8774 33.4314 65.7244 34.5222 65.3246 35.4007C63.8588 38.6237 62.3583 41.8072 58.6665 43.2928C55.1672 44.7043 52.0874 44.1269 49.2691 41.6788C46.7224 39.4627 45.8142 36.4718 44.7925 33.545C44.3878 32.39 44.7284 30.9785 44.7284 29.4435H44.7234ZM59.935 31.5707C59.9794 29.1473 60.0485 27.0941 58.5135 25.2729C57.2599 23.7824 56.1543 23.3875 54.3627 24.118C52.0824 25.0557 51.5 27.0349 51.1496 29.0782C50.9176 30.4158 51.1101 31.8224 51.1052 33.1995C51.0953 35.2428 51.8356 36.9505 53.341 38.3572C54.7674 39.6898 56.3024 39.7046 57.709 38.3522C58.5629 37.5329 59.091 36.5902 59.5302 35.4501C60.083 34.0237 59.777 32.6418 59.93 31.5609L59.935 31.5707Z" fill="white"/>
<path d="M91.888 29.2658C92.0163 32.2913 90.97 35.9289 89.4745 38.7224C87.6138 42.2069 84.6228 43.8406 80.926 44.0973C77.9499 44.3046 75.5068 42.6906 73.7497 40.4005C72.5257 38.8014 71.504 36.99 71.0598 34.9615C70.4823 32.316 69.6729 29.6903 70.6699 26.951C71.0351 25.9441 70.7587 24.8632 71.1733 23.7577C71.9778 21.6156 72.886 19.6266 74.6776 18.1558C76.2471 16.8725 78.0289 15.9693 80.1215 15.9496C81.4048 15.9397 82.7374 15.8558 83.9565 16.1667C86.3256 16.7639 88.0234 18.3779 89.435 20.3126C91.3895 22.9927 92.0015 26.028 91.888 29.2658ZM85.9604 31.0081C86.3256 28.9894 85.4322 27.2225 84.4797 25.5888C82.9793 23.0173 79.6922 23.0173 78.172 25.5789C77.249 27.1336 76.637 28.8956 76.6617 30.7761C76.6814 32.0988 76.7555 33.387 77.0812 34.7147C77.4859 36.378 78.2065 37.7254 79.4256 38.8606C80.0031 39.3986 82.466 39.5417 83.0434 39.0333C83.8627 38.3078 84.7758 37.5773 84.993 36.4471C85.3434 34.6456 86.2516 32.9428 85.9604 31.0081Z" fill="white"/>
<path d="M40.7947 28.8907C40.7947 33.3475 40.7799 37.7994 40.8095 42.2563C40.8095 42.972 40.6516 43.2977 39.8816 43.2039C39.3979 43.1496 38.8896 43.125 38.4157 43.2089C37.7692 43.3224 37.1029 44.2009 36.5254 43.4853C36.1997 43.0855 36.4366 42.2563 36.3724 41.6245C36.2243 40.1488 35.9825 38.6829 35.9035 37.2072C35.8196 35.6722 35.869 34.1323 35.8937 32.5924C35.9035 32.0001 35.5482 31.931 35.1138 32.01C34.3587 32.1433 33.6134 32.3407 32.8632 32.4838C32.2265 32.6023 32.4585 33.086 32.4585 33.4314C32.4437 36.1855 32.4585 38.9396 32.4486 41.6936C32.4437 43.4754 32.3005 43.6185 30.5928 43.6777C30.2671 43.6876 29.9364 43.6481 29.6106 43.6876C28.9542 43.7666 28.278 44.7488 27.7154 43.9986C27.36 43.5198 27.5476 42.6166 27.5426 41.9059C27.5278 40.0451 27.4489 38.1746 27.5525 36.3188C27.8783 30.2085 26.7974 24.1476 27.0343 18.0472C27.0491 17.7214 27.0343 17.4006 27.0343 17.0749C27.054 15.1105 27.133 14.9921 29.0184 14.9871C29.7538 14.9871 30.3609 14.7009 31.0321 14.5133C32.1623 14.2024 32.4338 14.4788 32.4387 15.6485C32.4486 19.6167 32.4387 23.5849 32.4387 27.5531C32.4387 27.9579 32.4239 28.3626 32.4585 28.7673C32.4585 28.8068 32.7645 28.871 32.9076 28.8413C33.1248 28.7969 33.3222 28.6192 33.5394 28.6044C34.26 28.5501 35.3754 28.8068 35.6222 28.4514C36.0121 27.8937 35.864 26.9362 35.869 26.1514C35.8838 22.6669 35.869 19.1873 35.8937 15.7028C35.8937 15.456 36.101 15.0266 36.2688 14.997C37.4977 14.7798 38.7464 14.6466 39.9853 14.4788C40.6269 14.3899 40.8194 14.6515 40.8046 15.2833C40.7651 16.9811 40.7898 18.6839 40.7898 20.3867V28.8907H40.7947Z" fill="white"/>
<path d="M100.733 19.7204C100.733 21.1764 100.723 22.6373 100.742 24.0933C100.742 24.2907 100.905 24.4881 100.989 24.6905C101.068 24.4783 101.123 24.2562 101.226 24.0587C102.248 22.0401 102.885 19.8832 103.674 17.7757C103.778 17.4944 103.837 17.1933 103.931 16.912C104.375 15.5893 105.046 14.7157 106.719 14.923C107.598 15.0315 108.536 14.6071 109.454 14.4985C109.962 14.4393 110.051 14.4985 109.745 15.1056C108.437 17.7165 107.272 20.4015 106.073 23.0667C105.89 23.4763 105.836 23.9452 105.634 24.3401C105.18 25.2087 104.666 26.0478 104.178 26.8967C105.071 28.3231 105.268 30.0061 105.9 31.5312C106.818 33.7473 107.894 35.9239 108.506 38.2239C108.802 39.3295 109.794 40.1981 109.572 41.4419C110.411 42.1823 109.691 42.4784 109.143 42.6906C108.299 43.0213 107.41 43.2335 106.547 43.5198C105.53 43.8554 105.239 43.7765 104.888 42.6709C104.484 41.3778 103.951 40.0698 103.758 38.7816C103.477 36.8666 102.327 35.2477 102.189 33.3278C102.179 33.2143 102.021 33.1106 101.927 33.002C101.813 33.1156 101.675 33.2143 101.586 33.3475C101.063 34.1224 100.673 34.9072 100.703 35.9091C100.772 38.0906 100.738 40.2821 100.703 42.4636C100.703 42.7104 100.496 43.1348 100.328 43.1644C99.1828 43.3816 98.018 43.5445 96.8582 43.6531C96.6903 43.6679 96.3103 43.2878 96.3251 43.125C96.6163 40.3265 95.797 37.602 95.8019 34.8233C95.8167 28.5896 95.8019 22.356 95.8069 16.1223C95.8069 15.0414 95.8316 15.0809 96.9914 14.9575C97.9094 14.8588 98.8176 14.6367 99.7307 14.4886C100.402 14.38 100.772 14.533 100.733 15.3524C100.663 16.8084 100.713 18.2644 100.713 19.7253L100.733 19.7204Z" fill="white"/>
<path d="M113.999 40.0945C114.182 37.0986 113.279 33.9744 113.466 30.7613C113.654 27.6124 113.738 24.419 113.417 21.2899C113.239 19.5723 113.062 17.8596 113.007 16.1322C112.993 15.6139 113.195 15.3277 113.698 15.4659C114.715 15.7472 115.495 14.9427 116.443 14.9624C117.425 14.9822 118.407 14.997 119.389 14.9526C119.754 14.9378 120.11 14.6712 120.48 14.6466C121.679 14.5676 122.888 14.5429 124.088 14.4985C124.162 15.4412 124.241 16.379 124.315 17.3217C124.33 17.4845 124.325 17.6474 124.315 17.8053C124.28 18.6 124.537 19.6858 124.113 20.1053C123.698 20.5249 122.592 20.2337 121.798 20.3225C120.633 20.4508 119.473 20.6236 118.323 20.821C118.17 20.8457 117.948 21.127 117.948 21.2899C117.923 23.5603 117.918 25.8306 117.958 28.0961C117.958 28.2639 118.328 28.5008 118.565 28.5748C119.547 28.866 120.376 28.175 121.304 28.1109C121.862 28.0714 122.479 27.9628 122.37 28.9104C122.286 29.631 122.38 30.3664 122.351 31.0969C122.311 32.084 121.956 32.4048 120.87 32.4789C120.544 32.5036 120.208 32.4394 119.888 32.4887C119.009 32.6269 118.432 33.2883 118.427 34.1372C118.417 35.3514 118.402 36.5705 118.427 37.7846C118.456 39.058 118.664 39.1024 120.095 38.8853C121.131 38.7273 122.207 38.7964 123.259 38.8359C123.451 38.8409 123.624 39.1913 123.826 39.364C124.468 39.9168 124.31 40.6572 124.31 41.3531C124.31 41.9108 124.468 42.6462 124.177 42.972C123.905 43.273 123.076 43.0016 122.597 43.2138C121.141 43.8702 119.562 43.3865 118.145 43.7518C116.961 44.0578 115.821 44.1121 114.646 44.1664C114.093 44.191 113.97 43.9393 113.985 43.4458C114.014 42.3945 113.995 41.3383 113.995 40.0896L113.999 40.0945Z" fill="white"/>
<path d="M68.0293 41.7677C68.6167 42.1329 69.1991 42.3155 69.5001 42.7104C70.2504 43.7074 71.4497 43.9393 72.422 44.5267C73.4782 45.1683 73.5572 45.0449 72.6688 45.9234C71.4053 47.1771 70.127 48.4159 68.8832 49.6893C68.4341 50.1483 68.1083 50.0693 67.6937 49.6449C66.213 48.1494 64.7126 46.6737 63.2122 45.1979C62.9309 44.9166 62.8124 44.7389 63.3405 44.6402C64.9939 44.3391 66.366 43.5445 67.4864 42.3007C67.669 42.0984 67.8763 41.9157 68.0293 41.7627V41.7677Z" fill="white"/>
</svg>
