<svg width="170" height="64" viewBox="0 0 170 64" fill="none" xmlns="http://www.w3.org/2000/svg">
<path d="M16 38.7147H19.4188V31.1775H27.3812V38.7147H30.8221V20H27.3812V28.1661H19.4188V20H16V38.7147Z" fill="white"/>
<path d="M35.8086 44.268C37.0972 44.268 38.1689 43.9004 39.0236 43.1609C39.896 42.439 40.5913 41.4205 41.1094 40.0964L47.0657 25.0484H43.4964L39.9802 34.4678L36.4374 25.0484H32.8946L38.2974 38.7147L37.9962 39.4454C37.7261 40.0166 37.4205 40.4772 37.0662 40.8271C36.7297 41.1769 36.185 41.354 35.4321 41.354C35.162 41.354 34.8786 41.3275 34.5774 41.2788C34.2763 41.2433 34.0062 41.1946 33.7715 41.1282V43.8916C34.0549 44.0244 34.3737 44.1174 34.728 44.1661C35.0779 44.2325 35.4366 44.268 35.8086 44.268Z" fill="white"/>
<path d="M48.8681 43.7411H52.1585V37.4084C52.6589 37.9265 53.2744 38.3295 53.9918 38.6129C54.7137 38.8831 55.4887 39.0159 56.3301 39.0159C57.6542 39.0159 58.8322 38.7059 59.8728 38.086C60.9091 37.4483 61.7328 36.5936 62.3351 35.5219C62.9373 34.4325 63.2385 33.2191 63.2385 31.8772C63.2385 30.5354 62.9373 29.3309 62.3351 28.2592C61.7328 27.1698 60.9135 26.3151 59.8728 25.6951C58.8366 25.0574 57.663 24.7386 56.3566 24.7386C55.4178 24.7386 54.572 24.9068 53.8191 25.239C53.0663 25.5755 52.4463 26.0449 51.9592 26.6472V25.0397H48.8681V43.7411ZM55.9536 36.0046C55.2318 36.0046 54.5808 35.8274 53.9918 35.4776C53.4206 35.1277 52.9689 34.6406 52.6367 34.0206C52.3179 33.4006 52.1585 32.6877 52.1585 31.8861C52.1585 31.0801 52.3179 30.3716 52.6367 29.7516C52.9733 29.1316 53.425 28.6445 53.9918 28.2946C54.5764 27.9448 55.2318 27.7676 55.9536 27.7676C56.7065 27.7676 57.3708 27.9536 57.9376 28.3212C58.5222 28.671 58.9827 29.1582 59.3193 29.7782C59.6558 30.3981 59.8197 31.1023 59.8197 31.8905C59.8197 32.6788 59.6514 33.3874 59.3193 34.0251C58.9827 34.645 58.5222 35.1322 57.9376 35.482C57.3708 35.8274 56.7065 36.0046 55.9536 36.0046Z" fill="white"/>
<path d="M72.2327 39.0159C73.6232 39.0159 74.8366 38.7059 75.8773 38.086C76.9313 37.4483 77.6709 36.6467 78.0871 35.6724L75.4256 34.366C75.1245 34.8842 74.7038 35.3137 74.1679 35.6459C73.6498 35.9647 73.0121 36.1241 72.2593 36.1241C71.2717 36.1241 70.4436 35.823 69.7705 35.2207C69.1018 34.6185 68.7165 33.8125 68.6146 32.8072H78.4636C78.53 32.6212 78.5743 32.4131 78.5875 32.1784C78.623 31.926 78.6363 31.678 78.6363 31.4255C78.6363 30.2033 78.375 29.0873 77.8569 28.082C77.3387 27.0768 76.5859 26.2752 75.5939 25.6685C74.6063 25.0485 73.4018 24.7386 71.9758 24.7386C70.7049 24.7386 69.549 25.0485 68.5083 25.6685C67.4854 26.2885 66.675 27.1344 66.0727 28.206C65.4881 29.26 65.1914 30.4734 65.1914 31.8507C65.1914 33.1748 65.4837 34.3793 66.0727 35.4687C66.6572 36.5581 67.481 37.4217 68.5349 38.055C69.5933 38.6971 70.8244 39.0159 72.2327 39.0159ZM71.9803 27.4621C72.8527 27.4621 73.5701 27.7322 74.1414 28.268C74.7259 28.7862 75.0536 29.4637 75.1201 30.3051H68.6899C68.8759 29.4017 69.2612 28.7065 69.8458 28.2193C70.448 27.7101 71.1566 27.4621 71.9803 27.4621Z" fill="white"/>
<path d="M81.1339 38.7147H84.4243V31.1022C84.4243 30.0659 84.7077 29.26 85.279 28.6887C85.8635 28.1041 86.6208 27.8074 87.5419 27.8074H88.7243V24.8979H87.9183C87.0814 24.8979 86.3418 25.0485 85.7085 25.3496C85.0708 25.6508 84.5793 26.1955 84.225 26.9837V25.0485H81.1339V38.7147Z" fill="white"/>
<path d="M94.2953 38.7147H98.2145L101.806 25.2477L105.398 38.7147H109.317L114.343 20H110.676L107.209 34.0693L103.591 20H100.048L96.4033 34.0693L92.9358 20H89.269L94.2953 38.7147Z" fill="white"/>
<path d="M115.136 38.7147H118.426V31.1022C118.426 30.0659 118.71 29.26 119.281 28.6887C119.865 28.1041 120.623 27.8074 121.544 27.8074H122.726V24.8979H121.92C121.083 24.8979 120.344 25.0485 119.71 25.3496C119.073 25.6508 118.581 26.1955 118.227 26.9837V25.0485H115.136V38.7147Z" fill="white"/>
<path d="M124.533 23.5162H127.823V20H124.533V23.5162ZM124.533 38.7147H127.823V25.0485H124.533V38.7147Z" fill="white"/>
<path d="M137.092 38.8653C137.646 38.8653 138.19 38.8255 138.726 38.7413V35.9027C138.407 35.9514 138.115 35.978 137.845 35.978C137.039 35.978 136.454 35.792 136.087 35.4244C135.719 35.0569 135.533 34.5299 135.533 33.8435V27.989H138.673V25.0485H135.533V21.9353H132.243V22.9893C132.243 23.658 132.057 24.1717 131.689 24.5215C131.322 24.8714 130.804 25.0485 130.131 25.0485H129.878V27.989H132.238V34.0206C132.238 35.544 132.659 36.7352 133.496 37.5899C134.355 38.4402 135.551 38.8653 137.092 38.8653Z" fill="white"/>
<path d="M147.601 39.0158C148.991 39.0158 150.205 38.7058 151.245 38.0859C152.299 37.4482 153.039 36.6466 153.455 35.6723L150.789 34.3704C150.488 34.8885 150.068 35.3181 149.532 35.6502C149.014 35.969 148.376 36.1285 147.623 36.1285C146.635 36.1285 145.807 35.8273 145.134 35.2251C144.461 34.6228 144.08 33.8168 143.978 32.8115H153.827C153.894 32.6256 153.938 32.4174 153.951 32.1827C153.987 31.9303 154 31.6823 154 31.4299C154 30.2076 153.739 29.0916 153.221 28.0864C152.702 27.0811 151.95 26.2796 150.958 25.6729C149.97 25.0529 148.766 24.7429 147.34 24.7429C146.069 24.7429 144.913 25.0529 143.872 25.6729C142.849 26.2928 142.039 27.1387 141.436 28.2104C140.852 29.2643 140.555 30.4777 140.555 31.855C140.555 33.1791 140.847 34.3837 141.436 35.4731C142.021 36.5625 142.845 37.426 143.899 38.0593C144.961 38.697 146.193 39.0158 147.601 39.0158ZM147.348 27.462C148.221 27.462 148.938 27.7321 149.51 28.2679C150.094 28.7861 150.422 29.4636 150.488 30.305H144.058C144.244 29.4016 144.629 28.7064 145.214 28.2192C145.816 27.7099 146.529 27.462 147.348 27.462Z" fill="white"/>
</svg>
