<svg width="170" height="64" viewBox="0 0 170 64" fill="none" xmlns="http://www.w3.org/2000/svg">
<path fill-rule="evenodd" clip-rule="evenodd" d="M24 24.5231V40H34.456V37.13H27.8146V24.5231H24ZM39.7897 37.4333C40.2313 37.4333 40.5973 37.3367 40.8882 37.1442C41.1792 36.9522 41.3877 36.7343 41.5144 36.4923V34.6412H40.4835C39.2497 34.6412 38.6328 35.2046 38.6328 36.3313C38.6328 36.6594 38.7417 36.9257 38.9588 37.1281C39.1765 37.3311 39.4539 37.4333 39.7897 37.4333ZM42.0082 39.7858C41.8822 39.5505 41.7702 39.2051 41.6718 38.7488C41.0199 39.5827 40.1089 39.9994 38.9379 39.9994C37.8652 39.9994 36.9543 39.67 36.204 39.0107C35.4536 38.3514 35.0784 37.5224 35.0784 36.5239C35.0784 35.269 35.5348 34.3212 36.4457 33.6792C37.3572 33.0379 38.682 32.7165 40.4208 32.7165H41.5144V32.1037C41.5144 31.0364 41.0617 30.5028 40.1575 30.5028C39.3168 30.5028 38.8961 30.9256 38.8961 31.7706H35.3521C35.3521 30.6532 35.8202 29.745 36.7563 29.0473C37.6918 28.3496 38.8856 28.0004 40.3359 28.0004C41.7875 28.0004 42.9339 28.3601 43.7747 29.0807C44.6161 29.8007 45.0473 30.7881 45.0682 32.043V37.1658C45.0823 38.2282 45.2435 39.0416 45.5516 39.6044V39.7858H42.0082ZM56.3219 35.0375L57.4683 28.214H60.8647L58.183 39.7864H55.1865L53.3044 32.9196L51.4113 39.7864H48.4153L45.7336 28.214H49.13L50.255 35.1978L52.0632 28.2146H54.5345L56.3219 35.0375ZM65.386 28.214L65.5016 29.5723C66.2864 28.5242 67.3695 27.9998 68.7509 27.9998C69.9356 27.9998 70.8206 28.3601 71.4062 29.0807C71.9911 29.8007 72.2943 30.8847 72.3158 32.3315V39.7864H68.7608V32.4813C68.7608 31.8969 68.6458 31.4673 68.4145 31.1924C68.1833 30.9181 67.7625 30.7813 67.1524 30.7813C66.4586 30.7813 65.9432 31.0593 65.6067 31.6152V39.7864H62.0634V28.214H65.386Z" fill="white"/>
<path fill-rule="evenodd" clip-rule="evenodd" d="M82.3363 35.6473C82.3363 35.0982 82.1456 34.6704 81.7631 34.364C81.3812 34.0575 80.7101 33.7399 79.75 33.4118C78.7893 33.0837 78.0045 32.7667 77.3944 32.4597C75.4108 31.4691 74.4187 30.1072 74.4187 28.3744C74.4187 27.512 74.666 26.7512 75.1599 26.0912C75.6544 25.4319 76.3531 24.9181 77.2572 24.551C78.1625 24.1839 79.178 24 80.3079 24C81.4082 24 82.3947 24.2 83.2675 24.5993C84.1409 24.9986 84.8187 25.5669 85.3021 26.3048C85.786 27.0428 86.0278 27.8859 86.0278 28.8344H82.3474C82.3474 28.1998 82.1567 27.7076 81.7748 27.3585C81.3922 27.0093 80.8756 26.8347 80.2236 26.8347C79.5649 26.8347 79.0439 26.9827 78.6619 27.2786C78.2806 27.5745 78.0894 27.9503 78.0894 28.4066C78.0894 28.8059 78.2997 29.168 78.7198 29.4918C79.1405 29.8168 79.8804 30.1518 80.9383 30.4978C81.9968 30.8432 82.8659 31.216 83.5461 31.6153C85.2007 32.5847 86.0278 33.922 86.0278 35.6256C86.0278 36.9876 85.5235 38.0574 84.5136 38.8343C83.5037 39.6112 82.1192 40 80.3595 40C79.119 40 77.9953 39.774 76.989 39.3209C75.9834 38.8684 75.2269 38.248 74.7182 37.46C74.2102 36.6719 73.9562 35.7649 73.9562 34.7379H77.6582C77.6582 35.5724 77.8698 36.1872 78.2941 36.5827C78.7186 36.9789 79.4068 37.177 80.3608 37.177C80.9697 37.177 81.4519 37.0427 81.8061 36.7753C82.1598 36.5084 82.3363 36.132 82.3363 35.6473Z" fill="white"/>
<path fill-rule="evenodd" clip-rule="evenodd" d="M91.6621 25.3372V28.214H93.5334V30.717H91.6621V36.0107C91.6621 36.4459 91.739 36.7486 91.8928 36.9195C92.0467 37.091 92.3519 37.1764 92.8079 37.1764C93.158 37.1764 93.4522 37.1554 93.6909 37.1127V39.6899C93.0528 39.8966 92.387 39.9994 91.6935 39.9994C90.4738 39.9994 89.5723 39.7078 88.9908 39.1228C88.4087 38.5384 88.1176 37.6506 88.1176 36.4595V30.717H86.6672V28.214H88.1182V25.3372H91.6621ZM99.3387 37.4333C99.7805 37.4333 100.147 37.3368 100.438 37.1442C100.728 36.9523 100.937 36.7344 101.064 36.4923V34.6413H100.033C98.799 34.6413 98.1818 35.2047 98.1818 36.3314C98.1818 36.6595 98.2907 36.9257 98.508 37.1281C98.7258 37.3312 99.0027 37.4333 99.3387 37.4333ZM101.558 39.7858C101.432 39.5505 101.32 39.2051 101.221 38.7488C100.569 39.5828 99.6581 39.9994 98.487 39.9994C97.4151 39.9994 96.5037 39.67 95.753 39.0107C95.0029 38.3514 94.6281 37.5225 94.6281 36.5239C94.6281 35.269 95.0835 34.3213 95.9948 33.6793C96.9062 33.0379 98.2311 32.7166 99.9701 32.7166H101.064V32.1037C101.064 31.0364 100.611 30.5028 99.7073 30.5028C98.8661 30.5028 98.4452 30.9256 98.4452 31.7706H94.902C94.902 30.6532 95.3696 29.745 96.3056 29.0473C97.2409 28.3496 98.4347 28.0005 99.8852 28.0005C101.337 28.0005 102.483 28.3601 103.324 29.0808C104.166 29.8007 104.596 30.7882 104.617 32.043V37.1659C104.631 38.2282 104.793 39.0417 105.102 39.6044V39.7858H101.558ZM113.239 31.476L112.071 31.3905C110.957 31.3905 110.242 31.7471 109.926 32.4603V39.7858H106.383V28.214H109.705L109.821 29.7004C110.416 28.5675 111.248 28.0005 112.313 28.0005C112.692 28.0005 113.021 28.0432 113.301 28.1286L113.239 31.476ZM119.169 25.3372V28.214H121.041V30.717H119.169V36.0107C119.169 36.4459 119.246 36.7486 119.4 36.9195C119.554 37.091 119.859 37.1764 120.315 37.1764C120.665 37.1764 120.96 37.1554 121.198 37.1127V39.6899C120.56 39.8966 119.894 39.9994 119.2 39.9994C117.98 39.9994 117.08 39.7078 116.499 39.1228C115.916 38.5384 115.625 37.6506 115.625 36.4595V30.717H114.174V28.214H115.625V25.3372H119.169ZM127.25 30.7807C126.212 30.7807 125.595 31.4796 125.399 32.8769H128.975V32.5996C128.988 32.0213 128.845 31.5744 128.543 31.2562C128.242 30.9398 127.81 30.7807 127.25 30.7807ZM127.65 40C125.904 40 124.491 39.4707 123.412 38.4121C122.332 37.3535 121.792 35.9754 121.792 34.2779V33.9789C121.792 32.7952 122.007 31.7508 122.439 30.8451C122.87 29.94 123.5 29.2392 124.326 28.7434C125.154 28.2481 126.135 28.0005 127.271 28.0005C128.869 28.0005 130.131 28.505 131.056 29.5135C131.981 30.5226 132.445 31.9291 132.445 33.7325V35.1341H125.399C125.525 35.7829 125.802 36.2924 126.23 36.6632C126.657 37.034 127.211 37.2191 127.891 37.2191C129.013 37.2191 129.889 36.8204 130.52 36.0212L132.139 37.9682C131.697 38.5885 131.072 39.0826 130.262 39.4491C129.453 39.8161 128.581 40 127.65 40ZM140.596 31.476L139.428 31.3905C138.314 31.3905 137.599 31.7471 137.283 32.4603V39.7858H133.74V28.214H137.062L137.178 29.7004C137.774 28.5675 138.605 28.0005 139.67 28.0005C140.049 28.0005 140.378 28.0432 140.658 28.1286L140.596 31.476Z" fill="white"/>
<path d="M142.002 25.3415H145.842V29.1575H142.002V25.3415Z" fill="white"/>
<path fill-rule="evenodd" clip-rule="evenodd" d="M143.642 27.1573H143.848C144.087 27.1573 144.28 27.0762 144.28 26.8793C144.28 26.706 144.155 26.5902 143.882 26.5902C143.768 26.5902 143.688 26.602 143.642 26.6131V27.1573ZM143.631 28.2326H143.198V26.3358C143.435 26.2935 143.676 26.2742 143.916 26.2782C144.269 26.2782 144.429 26.3358 144.565 26.4169C144.668 26.4973 144.747 26.6478 144.747 26.8329C144.747 27.0415 144.587 27.2031 144.36 27.2724V27.2966C144.543 27.3659 144.645 27.5046 144.702 27.759C144.759 28.0481 144.793 28.1639 144.839 28.2332H144.371C144.314 28.1639 144.28 27.9905 144.224 27.7708C144.189 27.5621 144.075 27.4699 143.837 27.4699H143.631V28.2326ZM142.48 27.2378C142.48 28.0822 143.095 28.7532 143.938 28.7532C144.759 28.7532 145.362 28.0822 145.362 27.2495C145.362 26.4051 144.759 25.7229 143.927 25.7229C143.095 25.7229 142.48 26.4051 142.48 27.2378ZM145.841 27.2378C145.841 28.3137 145.009 29.1575 143.927 29.1575C142.855 29.1575 142.001 28.3137 142.001 27.2384C142.001 26.1859 142.856 25.3415 143.927 25.3415C145.009 25.3415 145.841 26.1853 145.841 27.2378Z" fill="white"/>
</svg>
