<svg width="170" height="64" viewBox="0 0 170 64" fill="none" xmlns="http://www.w3.org/2000/svg">
<path d="M39.4124 27.7442H40.5011V42.1818H39.4124V27.7442ZM44.2258 28.3781C44.1279 28.3782 44.031 28.3976 43.9407 28.4353C43.8503 28.473 43.7682 28.5281 43.6991 28.5976C43.63 28.6671 43.5752 28.7495 43.538 28.8402C43.5007 28.9309 43.4816 29.0281 43.4818 29.1262C43.4819 29.2242 43.5013 29.3213 43.5388 29.4118C43.5763 29.5023 43.6313 29.5845 43.7005 29.6538C43.7697 29.723 43.8519 29.7779 43.9423 29.8153C44.0327 29.8528 44.1296 29.872 44.2274 29.8719C44.3252 29.8717 44.422 29.8524 44.5123 29.8148C44.6027 29.7771 44.6847 29.722 44.7538 29.6527C44.8228 29.5833 44.8776 29.5009 44.9149 29.4103C44.9523 29.3197 44.9714 29.2226 44.9714 29.1246C44.9717 29.0263 44.9526 28.9288 44.9153 28.8379C44.878 28.747 44.8231 28.6643 44.7539 28.5946C44.6846 28.525 44.6023 28.4698 44.5117 28.4321C44.421 28.3943 44.3239 28.3749 44.2258 28.3749V28.3781ZM43.6913 42.185H44.7809V31.8609H43.6913V42.185ZM52.2136 40.4027L48.0485 31.8641H46.8626L51.9226 42.185H52.4958L57.5385 31.8641H56.3526L52.2136 40.4027ZM60.1603 28.3781C59.9627 28.3786 59.7733 28.4575 59.6338 28.5978C59.4943 28.7381 59.4161 28.9281 59.4163 29.1262C59.4167 29.3238 59.4952 29.5131 59.6347 29.6527C59.7741 29.7923 59.9631 29.8708 60.1603 29.871C60.258 29.8713 60.3549 29.8522 60.4453 29.8148C60.5356 29.7775 60.6178 29.7227 60.6871 29.6535C60.7564 29.5843 60.8113 29.5021 60.8488 29.4116C60.8864 29.3212 60.9057 29.2242 60.9059 29.1262C60.9065 29.0277 60.8876 28.93 60.8504 28.8389C60.8132 28.7477 60.7584 28.6648 60.6891 28.595C60.6198 28.5251 60.5374 28.4698 60.4466 28.432C60.3559 28.3942 60.2585 28.3748 60.1603 28.3749V28.3781ZM59.6297 42.1818H60.7192V31.8609H59.6297V42.1818ZM68.7402 31.6691C67.3613 31.6154 66.0122 32.0804 64.9579 32.9727V31.8633H63.8873V42.1818H64.9579V33.9863C65.96 33.0935 67.2658 32.6203 68.6058 32.6645C70.6124 32.6645 72.102 33.9086 72.102 36.2645V42.1809H73.1733V36.2645C73.1733 33.1827 71.3588 31.6691 68.7402 31.6691ZM85.7451 31.8609V41.0137C85.7451 43.5416 84.1987 45.7264 80.7595 45.7264C79.3116 45.7904 77.8652 45.5752 76.4985 45.0924L76.7282 44.2311C77.9686 44.6579 79.2755 44.8589 80.5874 44.8246C83.3762 44.8246 84.5617 43.1771 84.6367 41.4733V41.0723C83.5275 41.8778 82.1851 42.2955 80.8157 42.261C79.397 42.2599 78.0366 41.6946 77.0336 40.6891C76.0307 39.6837 75.4671 38.3204 75.4664 36.8985C75.4692 36.2087 75.6073 35.5263 75.8738 34.8902C76.1396 34.2541 76.5276 33.6767 77.017 33.191C77.5056 32.7053 78.0845 32.3209 78.7217 32.0596C79.3581 31.7984 80.0404 31.6654 80.729 31.6683H80.815C82.2032 31.6462 83.5594 32.0834 84.6748 32.9125V31.8601L85.7451 31.8609ZM84.6748 34.0243C83.6538 33.1081 82.3205 32.6211 80.9511 32.6645C79.81 32.635 78.7043 33.061 77.8763 33.8486C77.0489 34.6362 76.5672 35.721 76.5374 36.8644V36.8946C76.5478 38.0575 77.0177 39.1688 77.8457 39.9842C78.6731 40.7994 79.7898 41.2518 80.9497 41.2419C82.3149 41.2991 83.649 40.8255 84.6741 39.9201L84.6748 34.0243Z" fill="white"/>
<path fill-rule="evenodd" clip-rule="evenodd" d="M147.75 27.7433H150.042V31.803H153.156V33.6415H150.042V37.9318C150.042 39.8075 150.461 40.4011 151.8 40.4011C152.241 40.3991 152.683 40.361 153.119 40.287V41.9717C152.381 42.2221 151.604 42.3386 150.825 42.3157C149.126 42.3157 147.75 41.2387 147.75 39.0991V33.6399H146.183V31.803H147.75V27.7433ZM136.036 31.803V33.4886C136.374 32.9073 136.86 32.4268 137.444 32.0964C138.029 31.766 138.691 31.5977 139.361 31.6088C139.664 31.6127 139.963 31.6785 140.24 31.8022L140.146 34.1574C139.719 34.0297 139.274 33.9719 138.827 33.9862C136.899 33.9862 136.077 35.4602 136.038 37.091V42.1841H133.765V31.803H136.036ZM116.985 33.9727C116.549 33.7424 116.063 33.622 115.57 33.6217C115.132 33.6081 114.695 33.6811 114.285 33.8367C113.876 33.9923 113.5 34.2273 113.181 34.5284C112.862 34.8295 112.605 35.1907 112.425 35.5914C112.245 35.9921 112.145 36.4244 112.133 36.8636C112.12 37.3028 112.194 37.7401 112.35 38.1507C112.506 38.5612 112.742 38.9368 113.042 39.2562C113.343 39.5755 113.704 39.8323 114.104 40.0117C114.505 40.1911 114.936 40.2898 115.374 40.302H115.567C116.061 40.2982 116.547 40.1743 116.983 39.9409C117.419 39.7075 117.792 39.3716 118.069 38.962L119.523 40.302C119.066 40.9226 118.471 41.4276 117.784 41.7766C117.098 42.1257 116.34 42.3092 115.57 42.3125C112.456 42.3125 109.915 39.92 109.915 36.9713C109.915 34.002 112.456 31.6088 115.57 31.6088C116.345 31.6069 117.108 31.7862 117.801 32.1324C118.493 32.4787 119.096 32.9825 119.56 33.6034L118.073 34.9435C117.794 34.5362 117.42 34.203 116.985 33.9727ZM92.7575 35.9776C90.9993 35.6116 90.2345 35.2842 90.2345 34.5782C90.2345 33.8721 90.923 33.4116 92.0696 33.4116C93.1961 33.4348 94.3094 33.6619 95.3554 34.0821L96.1175 32.4362C94.848 31.9007 93.4863 31.6197 92.1092 31.6088C89.7784 31.6088 88.1925 32.872 88.1925 34.6725C88.1925 36.5878 89.836 37.3343 92.0703 37.8129C93.7715 38.1759 94.5163 38.4826 94.5163 39.2497C94.5163 39.8995 93.9631 40.5326 92.5097 40.5326C91.2457 40.5112 90.0012 40.2171 88.8609 39.6704L88.0224 41.3346C89.3981 42.0179 90.9195 42.3544 92.4541 42.3148C95.1673 42.3148 96.6006 40.9946 96.6006 39.1173C96.6006 37.2606 95.1479 36.4555 92.7575 35.9776ZM103.381 31.6088H103.108C101.733 31.6527 100.432 32.2422 99.4908 33.2475C98.5496 34.2529 98.0457 35.5918 98.0894 36.9697V37.2313C98.1193 38.6083 98.6933 39.917 99.6858 40.8696C100.678 41.8222 102.008 42.3406 103.382 42.3109C104.265 42.3456 105.146 42.1734 105.951 41.8079C106.757 41.4424 107.467 40.8937 108.025 40.2054L106.554 38.9992C106.219 39.435 105.788 39.7865 105.293 40.0257C104.799 40.265 104.256 40.3853 103.707 40.3773C102.921 40.3757 102.16 40.1024 101.55 39.6036C100.941 39.1047 100.523 38.4107 100.365 37.6386H108.39C108.39 37.6386 108.408 37.2955 108.408 37.026C108.412 33.8713 106.477 31.6088 103.381 31.6088ZM100.402 36.0315C100.503 35.3093 100.86 34.6473 101.406 34.166C101.953 33.6846 102.654 33.4159 103.381 33.4085C105.254 33.4085 106.076 34.5972 106.21 36.0315H100.402ZM128.889 39.3471C128.143 39.9948 127.182 40.3368 126.196 40.3052C124.61 40.3052 123.635 39.3859 123.635 37.5665V31.803H121.36V37.5689C121.36 40.8622 122.87 42.3172 125.812 42.3172C126.917 42.3379 127.998 41.9953 128.889 41.3417V42.1817H131.182V31.8006H128.889V39.3471ZM142.133 42.1825H144.425V31.803H142.133L142.133 42.1825ZM162.669 31.803L159.765 39.424H159.517L156.461 31.803H154.053L158.257 42.1841H158.543C157.931 43.5819 156.518 44.0598 154.933 44.0598H154.664L154.377 45.7461C154.664 45.7636 154.989 45.7636 155.332 45.7636C157.453 45.7636 159.822 44.9791 160.701 42.7396L165 31.8038L162.669 31.803ZM142.752 27.8675C142.913 27.7996 143.086 27.7642 143.26 27.7631C143.434 27.7617 143.608 27.7949 143.769 27.8606C143.93 27.9264 144.077 28.0233 144.202 28.1461C144.326 28.2689 144.425 28.415 144.493 28.5761C144.561 28.7372 144.596 28.9101 144.597 29.0849C144.599 29.4377 144.461 29.7771 144.214 30.0283C143.967 30.2796 143.631 30.4222 143.279 30.4249C142.927 30.4273 142.588 30.2892 142.337 30.0412C142.086 29.7932 141.944 29.4555 141.941 29.1023C141.94 28.9276 141.973 28.7543 142.039 28.5924C142.104 28.4305 142.201 28.2831 142.324 28.1587C142.446 28.0344 142.591 27.9354 142.752 27.8675Z" fill="white"/>
<path d="M10.9171 44.8357C10.7923 44.1636 10.7115 43.4841 10.6752 42.8014C10.6276 42.0679 10.6715 41.3314 10.8056 40.6088C10.8182 40.5657 10.8158 40.5195 10.7988 40.4779C10.7819 40.4364 10.7514 40.4017 10.7123 40.3797C10.7023 40.3665 10.6896 40.3555 10.6752 40.3472C10.6181 40.3165 10.5513 40.3091 10.4888 40.3265C10.4263 40.3439 10.373 40.3849 10.34 40.4407C10.2179 40.6069 10.1337 40.7979 10.0933 41.0002C9.92074 41.6749 9.87039 42.3752 9.94463 43.0677C9.97212 43.2722 10.019 43.4736 10.0846 43.6692C10.117 43.7904 10.1723 43.9117 10.2055 44.0329C10.3313 44.5741 10.438 45.1202 10.5171 45.6709H11.076C11.0199 45.3975 10.9685 45.1154 10.9171 44.8357ZM23.081 28.5009C22.9762 28.474 22.8672 28.4678 22.76 28.4827C21.601 28.6975 20.4466 28.9257 19.3153 29.2474C18.0475 29.593 16.8288 30.0989 15.6886 30.7531C15.588 30.8095 15.5057 30.8936 15.4514 30.9955C15.3634 31.1777 15.2244 31.3303 15.0513 31.4345C15.098 31.5978 15.1439 31.7706 15.177 31.9338C16.3973 30.9526 17.8083 30.2375 19.32 29.8338C19.4137 29.8117 19.5054 29.782 19.5943 29.7451C20.7268 29.2446 21.9892 29.1202 23.1973 29.39C23.3135 29.413 23.4344 29.4415 23.5515 29.474C23.7359 29.2697 23.8882 29.0382 24.0029 28.7878C23.7001 28.6769 23.3934 28.5849 23.081 28.5009ZM9.94938 36.1346C9.65962 36.9777 9.43391 37.8415 9.27417 38.7188C9.12519 39.502 8.93411 40.2765 8.70175 41.039C8.6814 41.1202 8.67053 41.2035 8.66934 41.2871C8.63218 41.6643 8.62269 42.0423 8.55232 42.4155C8.43136 43.0495 8.28272 43.6755 8.13408 44.3055C8.01211 44.7515 7.92956 45.2073 7.8874 45.6677H8.5547C8.64465 44.9079 8.77663 44.1537 8.95001 43.4085C9.17772 42.3632 9.4244 41.3228 9.56434 40.2632C9.58122 40.0775 9.61241 39.8934 9.65763 39.7125C9.76437 39.3068 9.89008 38.9058 10.0016 38.5048C10.2206 37.7123 10.4206 36.9199 10.6625 36.1433C10.691 36.0506 10.7234 35.9619 10.7558 35.8683C10.4941 35.9571 10.219 36.0466 9.94938 36.1346ZM23.444 20.7096C23.3183 20.6858 23.1878 20.6628 23.0621 20.6398C22.3179 20.4894 21.5632 20.3972 20.8048 20.3641C20.4506 20.3966 20.0933 20.4156 19.7477 20.4623C18.7847 20.5931 17.8257 20.7278 16.8619 20.8681C15.8143 21.0171 14.7627 21.1668 13.7057 21.2508C13.5642 21.2497 13.4237 21.275 13.2914 21.3253C13.2819 21.3301 13.2771 21.3348 13.2684 21.3396H13.2637C13.2076 21.5773 13.1657 21.815 13.1332 22.0528C13.3362 21.9786 13.5448 21.9211 13.7571 21.8808C14.0923 21.8246 14.4228 21.7501 14.758 21.6843C15.6921 21.5012 16.6354 21.3689 17.5837 21.2881C18.4447 21.2223 19.3057 21.1898 20.1668 21.1621C20.982 21.1341 21.7983 21.1574 22.6106 21.2318C23.0115 21.2643 23.4068 21.311 23.7966 21.3768C23.6947 21.1464 23.5769 20.9235 23.444 20.7096ZM19.9399 27.0737C18.7408 27.154 17.5543 27.3666 16.4018 27.7077C15.772 27.866 15.1605 28.0896 14.5769 28.3749C14.2465 28.5524 13.9208 28.7344 13.5997 28.9209C13.6905 29.0894 13.7947 29.2503 13.9112 29.4019C14.8342 28.8887 15.7944 28.4458 16.7836 28.077C17.7719 27.685 18.8213 27.4704 19.8837 27.443C20.8565 27.4165 21.826 27.566 22.7458 27.8844C22.8301 27.913 22.9178 27.9303 23.0067 27.9359C23.4372 27.9554 23.8646 28.0194 24.282 28.1269C24.3552 27.9174 24.4176 27.7042 24.4686 27.4882C22.9921 27.101 21.4619 26.961 19.9399 27.0737ZM27.1085 41.2855C26.9639 40.9773 26.8247 40.665 26.68 40.3567C26.2481 39.3922 25.7537 38.4569 25.1999 37.557C24.6828 36.7224 24.0431 35.9707 23.3024 35.3271C23.2194 35.247 23.125 35.1794 23.0225 35.1266C22.6673 34.9704 22.2778 34.9093 21.8919 34.9491C21.4105 35.0017 20.9472 35.1629 20.5368 35.4206C19.6578 35.9625 18.9745 36.7715 18.5863 37.7298C18.5285 37.873 18.4851 38.0217 18.4566 38.1736C18.2994 38.9518 18.2305 39.7453 18.251 40.539C18.289 41.7982 18.3444 43.063 18.391 44.323C18.4086 44.4805 18.4637 44.6315 18.5516 44.7633C18.6395 44.8952 18.7577 45.004 18.8962 45.0805C18.9147 45.0944 18.9352 45.1054 18.9571 45.113C19.0108 45.1334 19.0703 45.1315 19.1226 45.1079C19.175 45.0843 19.2158 45.0408 19.2362 44.9871C19.288 44.8843 19.3241 44.7742 19.3429 44.6606C19.4286 44.104 19.3525 43.5345 19.1239 43.0202C19.0957 42.9501 19.0786 42.8761 19.0733 42.8007C19.0543 42.5305 19.0314 42.2594 19.0219 41.9892C18.9895 41.2942 18.9381 40.5984 18.9334 39.9035C18.9246 39.2905 19.011 38.6798 19.1896 38.0935C19.3205 37.6395 19.543 37.2173 19.8432 36.853C20.1435 36.4886 20.5152 36.1899 20.9353 35.9753C21.2248 35.8072 21.5547 35.7218 21.8892 35.7284C22.2237 35.735 22.55 35.8332 22.8327 36.0125C23.0159 36.1212 23.1889 36.2462 23.3498 36.3858C23.6602 36.6559 23.9383 36.9612 24.1784 37.2955C24.6619 37.9717 25.1077 38.674 25.5138 39.3995C25.5379 39.4451 25.5552 39.4939 25.5652 39.5445C25.8176 40.4313 26.1607 41.2896 26.5891 42.1057C27.0919 43.0812 27.6833 44.0076 28.2557 44.9379C28.3024 45.0124 28.3396 45.0917 28.3815 45.1756C28.4571 45.3478 28.5442 45.5146 28.6424 45.6749H29.6291C28.6679 44.2848 27.8245 42.8166 27.1078 41.2855H27.1085ZM32.8201 40.7023C32.8138 40.6902 32.8061 40.6791 32.7972 40.669C32.6495 40.4654 32.5404 40.2362 32.4753 39.993C32.4527 39.9133 32.4149 39.8387 32.3639 39.7735C32.122 39.4518 31.8516 39.1435 31.6333 38.8028C31.3211 38.3178 31.0143 37.8233 30.7162 37.3288C30.2114 37.0182 29.6763 36.7601 29.1191 36.5586C29.2448 36.8105 29.3705 37.0673 29.501 37.3193C29.8773 38.1146 30.402 38.8303 31.0467 39.428C31.087 39.4679 31.1188 39.5156 31.14 39.5683C31.3732 40.1069 31.6717 40.6147 32.0286 41.0803C32.3078 41.4575 32.6011 41.8267 32.8944 42.1897C32.909 41.6926 32.8839 41.1953 32.8193 40.7023H32.8201ZM22.8154 29.9662C22.5745 29.8917 22.3219 29.8632 22.0706 29.8822C21.7401 29.9337 21.4097 29.9709 21.0791 30.0272C19.8588 30.2242 18.675 30.6046 17.568 31.1557C16.7123 31.5738 15.9333 32.1341 15.264 32.8127C15.2593 32.8776 15.2545 32.9426 15.2451 33.0084C15.2403 33.0409 15.2308 33.0734 15.226 33.1058C15.226 33.1201 15.2174 33.1391 15.2127 33.1526C15.2079 33.1661 15.2079 33.1621 15.2079 33.1668C15.2011 33.1972 15.1919 33.2269 15.1802 33.2556C15.1635 33.3036 15.1432 33.3502 15.1194 33.3951C15.0749 33.4795 15.0218 33.5592 14.9612 33.6329C14.9281 33.6771 14.8923 33.7192 14.8537 33.7588C14.8213 33.7961 14.7841 33.8333 14.7469 33.8706C14.6369 33.9775 14.5202 34.0773 14.3975 34.1693C14.3374 34.2161 14.2718 34.2628 14.2022 34.3096C14.1327 34.3564 14.063 34.4023 13.9879 34.449C13.9784 34.4939 13.98 34.5405 13.9927 34.5846C14.0153 34.6574 14.0657 34.7183 14.1329 34.7542C14.2002 34.7899 14.2788 34.7976 14.3516 34.7755C14.4568 34.7518 14.5563 34.7074 14.6442 34.6448C14.831 34.5158 14.9848 34.3444 15.0933 34.1447C15.6467 33.2541 16.4009 32.5061 17.2952 31.9607C18.421 31.2694 19.6592 30.7815 20.9534 30.5193C21.573 30.3807 22.2156 30.3823 22.8343 30.524C22.904 30.3513 22.9648 30.1833 23.0201 30.0248C22.9534 30.0001 22.885 29.9806 22.8154 29.9662ZM24.2496 23.4063C24.0401 23.35 23.8306 23.2898 23.6171 23.2383C22.4334 22.9262 21.2089 22.7988 19.9865 22.8603C18.753 22.9208 17.5262 23.0798 16.3179 23.3358C15.2256 23.5628 14.1605 23.9055 13.1404 24.358C13.1641 24.5544 13.1997 24.7492 13.2471 24.9412C13.6242 24.7542 14.0108 24.5823 14.4015 24.4278C15.3512 24.0419 16.3503 23.7917 17.3695 23.6844C18.6197 23.5704 19.8761 23.5378 21.1306 23.587C22.1827 23.6248 23.2303 23.7449 24.2638 23.9459C24.2638 23.7637 24.2591 23.5838 24.2496 23.4063ZM30.8909 44.5932C30.2053 43.6021 29.6015 42.5566 29.0859 41.467C28.5649 40.4177 28.0581 39.363 27.5221 38.3178C27.0142 37.3103 26.3992 36.3606 25.6877 35.4856C25.6594 35.4491 25.6282 35.4149 25.5944 35.3833C25.2215 35.2417 24.8579 35.0766 24.5058 34.8889C23.8867 34.5529 22.6438 33.8587 22.3458 33.1716H22.341C22.243 33.1153 22.1409 33.0686 22.0382 33.0219C21.5198 32.7895 20.952 32.6901 20.3857 32.7326C20.1675 32.7464 19.9534 32.7988 19.7532 32.8871C18.9032 33.2766 18.1139 33.7871 17.4098 34.4031C16.6767 35.029 16.0821 35.8015 15.6641 36.6711C15.5071 36.9998 15.3883 37.3454 15.3099 37.7012L15.3431 37.748C15.4342 37.7069 15.5226 37.66 15.6079 37.6077C15.7602 37.488 15.902 37.3554 16.0317 37.2116C16.2784 36.9223 16.5156 36.6283 16.7536 36.3295C17.1494 35.8035 17.5753 35.3008 18.0289 34.8239C18.2595 34.5797 18.5207 34.3666 18.8061 34.1899C19.0061 34.0735 19.1974 33.9427 19.3785 33.7985C19.7342 33.5051 20.183 33.3494 20.6435 33.3595C21.0057 33.3691 21.3627 33.4485 21.6951 33.5932C22.2101 33.8134 22.6976 34.0935 23.1474 34.4277C23.6455 34.7874 24.1437 35.1559 24.6417 35.5197C24.7002 35.5631 24.7533 35.6134 24.7999 35.6694C25.3085 36.2273 25.7462 36.8461 26.1029 37.5119C26.5077 38.2631 26.8895 39.0334 27.2619 39.8029C27.6952 40.68 28.1095 41.5668 28.621 42.406C28.738 42.5978 28.8305 42.8023 28.9373 42.9988C29.1049 43.3158 29.2582 43.6328 29.4449 43.9323C29.8436 44.544 30.287 45.125 30.7716 45.6709H30.8316C31.2183 45.6709 31.5298 45.6852 31.7804 45.69C31.4602 45.3447 31.1636 44.9783 30.8925 44.5932H30.8909ZM8.48117 36.6759C8.45708 36.8441 8.42303 37.0108 8.37918 37.1751C8.20207 37.7488 8.00679 38.313 7.8202 38.882C7.38194 40.1415 7.04872 41.4352 6.82399 42.7499C6.71904 43.4007 6.68326 44.0609 6.71726 44.7192C6.7394 45.0439 6.74098 45.3698 6.722 45.6947C6.87064 45.6852 7.03352 45.6757 7.21062 45.6757C7.21456 45.6446 7.21615 45.6134 7.21536 45.5822C7.24448 44.4158 7.38613 43.255 7.63835 42.116C7.88107 41.066 8.15068 40.0255 8.4021 38.9803C8.50517 38.6015 8.58439 38.2167 8.63929 37.828C8.68093 37.3782 8.76997 36.9341 8.90495 36.5031C8.76184 36.5586 8.6227 36.6148 8.48275 36.6759H8.48117ZM6.01438 42.8387C6.14151 42.0094 6.32994 41.1906 6.57811 40.3892C6.91808 39.2798 7.2715 38.1823 7.63045 37.0816C7.37584 37.2159 7.1314 37.3687 6.89911 37.5388V37.5435C6.88566 37.5903 6.86669 37.6323 6.85325 37.6783C6.57314 38.4615 6.3734 39.2714 6.25711 40.0953C6.1822 40.5995 6.03799 41.0911 5.82859 41.5557C5.56373 42.1897 5.28385 42.8237 5.01898 43.4576C5.01424 43.4719 5.00474 43.4862 5 43.4996C5.00474 43.8031 5.00949 44.1019 5.00474 44.3958C4.99526 45.1796 5.0933 45.5338 5.34472 45.6789H5.34946C5.38209 45.6604 5.41621 45.6448 5.45145 45.6321C5.56372 45.5901 5.62856 45.6369 5.64278 45.7581V45.7628C5.79938 45.7687 5.95619 45.7655 6.11242 45.7533C6.0887 45.5908 6.05302 45.4303 6.00569 45.2731C5.91714 44.9371 5.81989 44.6011 5.74953 44.2603C5.69449 44.0539 5.68429 43.8379 5.71961 43.6271C5.75494 43.4163 5.83497 43.2155 5.9543 43.0384C5.99095 42.978 6.01214 42.9094 6.01597 42.8387H6.01438ZM20.5795 31.2864C19.6476 31.5356 18.7478 31.8928 17.8984 32.3507C17.8518 32.3832 17.8004 32.4108 17.7537 32.4481C15.8464 33.8103 14.353 35.6755 13.4393 37.8368C13.0858 38.6178 12.8533 39.4484 12.7498 40.2997C12.6345 41.4099 12.6517 42.5299 12.8012 43.6359C12.8898 44.3174 13.0012 44.9934 13.1127 45.6701H13.8812C13.8717 45.6186 13.8622 45.5719 13.8536 45.5212C13.6952 45.0027 13.6197 44.4625 13.6298 43.9204C13.6306 43.9018 13.629 43.8831 13.6251 43.8649C13.5736 43.3371 13.5088 42.8149 13.4717 42.2871C13.3799 41.3363 13.4097 40.3776 13.5602 39.4344C13.6805 38.6489 13.9689 37.8987 14.4054 37.2353C14.6339 36.8993 14.8521 36.5586 15.0758 36.2186C15.2388 35.9714 15.3969 35.7193 15.5645 35.4761C16.0562 34.7334 16.6585 34.0706 17.3505 33.5108C17.9639 33.0621 18.6243 32.6819 19.32 32.3768C19.6414 32.2294 19.9747 32.1093 20.3162 32.0179C20.9764 31.8171 21.6729 31.7659 22.3552 31.8681C22.4157 31.6358 22.4885 31.407 22.5734 31.1826C21.9097 31.0722 21.2298 31.1076 20.5811 31.2864H20.5795ZM24.4109 26.038C23.6867 25.8413 22.9403 25.7392 22.19 25.7345C21.3094 25.7646 20.4322 25.8581 19.5651 26.0142C18.8535 26.122 18.1419 26.21 17.4304 26.3177C17.1655 26.3597 16.9046 26.4342 16.6398 26.4992C16.5721 26.5198 16.5091 26.5531 16.454 26.5975C16.4451 26.6013 16.4372 26.6071 16.4307 26.6143C16.4243 26.6216 16.4195 26.6302 16.4168 26.6395C16.4131 26.649 16.4113 26.6591 16.4117 26.6693C16.412 26.6795 16.4145 26.6896 16.4188 26.6987C16.4232 26.708 16.4294 26.7162 16.4371 26.7229C16.4447 26.7296 16.4537 26.7346 16.4634 26.7377C16.5236 26.774 16.5897 26.7992 16.6587 26.8122C17.1476 26.9002 17.65 26.878 18.1293 26.7472C18.9632 26.5244 19.8185 26.3917 20.6807 26.351C21.9914 26.2939 23.303 26.4433 24.5674 26.794C24.5895 26.4667 24.5477 26.1965 24.4125 26.038H24.4109ZM26.6247 43.8095C26.5172 43.5994 26.4009 43.3895 26.2752 43.189C25.9022 42.5486 25.5848 41.8773 25.3265 41.1825C25.0513 40.4692 24.7769 39.764 24.4741 39.069C24.1709 38.3687 23.7382 37.7323 23.1988 37.1933C22.9427 36.9375 22.6204 36.7583 22.2682 36.6759C22.0699 36.6197 21.863 36.6006 21.6579 36.6196C21.2504 36.665 20.8765 36.8674 20.6151 37.1838C20.3658 37.4725 20.1717 37.8048 20.0427 38.1641C19.7396 39.0031 19.6112 39.8955 19.6655 40.7862C19.6667 41.1033 19.7302 41.417 19.8521 41.7094C19.8886 41.7912 19.9136 41.8776 19.9264 41.9662C20.0055 42.5074 20.0751 43.0535 20.1588 43.5899C20.215 43.9727 20.2759 44.3554 20.3596 44.7334C20.4071 44.9069 20.4806 45.0721 20.5779 45.2232C20.6133 45.2859 20.6649 45.338 20.7272 45.3741C20.7894 45.4102 20.8602 45.4289 20.9321 45.4284C21.1227 45.4332 21.1551 45.4047 21.1463 45.2089C21.1276 44.6801 21.062 44.1539 20.9502 43.6367C20.7739 42.8157 20.5779 41.9947 20.415 41.1642C20.2611 40.4243 20.2392 39.6629 20.3502 38.9153C20.4107 38.4595 20.5997 38.0303 20.8949 37.6783C21.0353 37.4987 21.2319 37.3717 21.453 37.3177C21.6742 37.2636 21.907 37.2857 22.1141 37.3803C22.3442 37.4663 22.5548 37.5978 22.7331 37.767C23.49 38.4388 24.013 39.3353 24.2258 40.3259C24.241 40.3962 24.263 40.4649 24.2915 40.5311C24.6916 41.4503 25.0877 42.3735 25.502 43.288C25.8586 44.1051 26.2658 44.8991 26.7212 45.6654H27.6755C27.2908 45.0678 26.9397 44.4493 26.6238 43.8126L26.6247 43.8095ZM24.0638 22.1606C23.0864 21.9457 22.0933 21.8101 21.0942 21.7548C19.725 21.6674 18.3508 21.8044 17.0255 22.1606C16.939 22.1826 16.85 22.1935 16.7607 22.193C15.9755 22.2061 15.1938 22.3014 14.4283 22.4775C13.9635 22.5797 13.5067 22.7153 13.0613 22.8833C13.0463 23.1306 13.0479 23.3787 13.0661 23.6258C13.7588 23.3283 14.4814 23.1062 15.2213 22.9633C15.6491 22.8841 16.0823 22.8326 16.51 22.7295C17.666 22.4208 18.8495 22.227 20.0434 22.151C21.0418 22.0952 22.0417 22.2296 22.9901 22.5473C23.0497 22.5719 23.1125 22.5877 23.1767 22.594C23.5132 22.6295 23.8474 22.684 24.1777 22.7573C24.1516 22.5562 24.1133 22.3569 24.063 22.1606H24.0638ZM24.1057 24.6615C23.3266 24.4654 22.5294 24.3504 21.7267 24.3184C21.1265 24.2943 20.5278 24.3927 19.9667 24.6076C19.6666 24.7252 19.3857 24.887 19.1334 25.0878C19.3112 25.2647 19.5488 25.3679 19.7991 25.3771C20.1332 25.382 20.4661 25.3349 20.7858 25.2376C21.2485 25.1031 21.7197 25.0001 22.1963 24.9294C22.6199 24.8734 23.0505 24.9484 23.4305 25.1441C23.5031 25.1855 23.5843 25.2094 23.6677 25.2139C23.8353 25.2234 24.0029 25.2376 24.1658 25.2606C24.1934 25.0696 24.2124 24.8779 24.2258 24.6869C24.184 24.6797 24.1468 24.6702 24.1049 24.6615H24.1057ZM18.0423 18.1856C18.3361 18.1578 18.6315 18.1515 18.9262 18.1666C18.9128 17.7236 17.1252 18.2974 16.4753 18.3576H16.4705C16.1638 18.4559 15.8609 18.5589 15.5582 18.6659H15.5542C15.2609 18.9274 15.0047 19.2261 14.7019 19.4448C14.6876 19.4543 13.6266 20.0376 13.5333 20.1311C13.6214 20.102 13.7071 20.066 13.7895 20.0233C13.7689 20.0441 13.7516 20.0679 13.7381 20.0939C14.1666 19.8743 14.5999 19.6691 15.0418 19.4734C15.389 19.3034 15.7485 19.1598 16.1171 19.0439C17.1667 18.7716 18.236 18.5826 19.3153 18.4788C18.8982 18.3519 18.4728 18.2539 18.0423 18.1856ZM23.1435 44.6304C22.7591 43.8363 22.4897 42.9912 22.3433 42.1208C22.3231 41.839 22.2505 41.5635 22.1291 41.3085C22.1049 41.2637 22.089 41.2148 22.0824 41.1642C22.0311 40.8885 21.9805 40.6095 21.9338 40.329C21.8635 39.9091 21.8129 39.4843 21.733 39.069C21.7013 38.9104 21.645 38.7577 21.5662 38.6165C21.5398 38.5559 21.4913 38.5076 21.4306 38.4816C21.37 38.4555 21.3017 38.4536 21.2397 38.4763C21.091 38.523 21.0681 38.5555 21.0681 38.752C21.0607 39.3839 21.0956 40.0156 21.1724 40.6428C21.33 41.8708 21.6186 43.0783 22.0334 44.2445C22.2153 44.7255 22.4106 45.201 22.6249 45.6709H23.6258C23.4676 45.3254 23.3048 44.9807 23.1458 44.6304H23.1435ZM13.5357 35.3833L13.3966 35.5094C13.022 35.8741 12.7119 36.2999 12.4794 36.7685C12.0605 37.6185 11.7716 38.5268 11.6224 39.4629C11.5197 40.1121 11.4513 40.7662 11.4176 41.4226C11.3661 42.2476 11.391 43.0755 11.4919 43.8958C11.5673 44.4886 11.6558 45.0795 11.7576 45.6685H12.3253C12.2232 45.0901 12.1442 44.5068 12.0833 43.9252C12.0232 43.3047 11.9861 42.6794 11.9299 42.0589C11.8799 41.3759 11.9283 40.6891 12.0738 40.02C12.2477 39.233 12.4781 38.4597 12.7632 37.706L13.5033 35.6345C13.5262 35.5593 13.5452 35.48 13.5681 35.4008L13.5357 35.3833ZM22.6035 19.7159C22.4407 19.5708 21.8872 19.3283 21.2025 19.0819C21.1329 19.0819 21.0681 19.0819 20.9977 19.0866C19.7657 19.1558 18.541 19.3211 17.3347 19.5811C16.4172 19.7727 15.5178 20.0428 14.6466 20.3886C14.5912 20.4116 14.5209 20.4116 14.4932 20.4909C14.8428 20.5888 15.209 20.6126 15.5684 20.5606C16.0459 20.4953 16.5175 20.3925 16.9789 20.2531C17.4865 20.1176 17.9941 19.9774 18.5056 19.8569C19.0328 19.7651 19.5678 19.726 20.1027 19.7404C20.9855 19.7173 21.8689 19.7546 22.7466 19.8522C22.6991 19.8014 22.6525 19.7579 22.6058 19.7159H22.6035ZM25.634 44.976C25.6292 44.9416 25.6144 44.9095 25.5912 44.8836C25.5681 44.8577 25.5379 44.8394 25.5044 44.831C25.2553 44.7391 25.0439 44.5668 24.9035 44.3412C24.7799 44.1535 24.6796 43.9515 24.6046 43.7397C24.4702 43.3435 24.3722 42.9369 24.2512 42.536C24.1484 42.1762 24.0511 41.8172 23.9254 41.467C23.8612 41.3053 23.768 41.1567 23.6503 41.0288C23.5558 40.9195 23.431 40.8407 23.2918 40.8026C23.1526 40.7643 23.0053 40.7683 22.8684 40.814C22.8731 40.8655 22.8779 40.8885 22.8779 40.9162C23.0859 41.9253 23.4094 42.907 23.8416 43.842C24.1207 44.4672 24.4283 45.0734 24.7493 45.6709H25.8562C25.7669 45.4427 25.6972 45.2089 25.6364 44.976H25.634ZM14.1619 25.534C14.1063 25.508 14.0454 25.4953 13.9841 25.497C13.9227 25.4986 13.8626 25.5145 13.8084 25.5435L13.459 25.725L13.5151 25.893C13.0408 25.9207 12.8771 26.2939 12.8961 26.798C13.04 26.714 13.1847 26.6252 13.3286 26.5412C13.5657 26.3922 13.803 26.229 14.0227 26.0562C14.1112 25.9901 14.1881 25.9098 14.2504 25.8185C14.3437 25.6877 14.3113 25.5942 14.1619 25.534ZM32.6193 43.8126C32.0704 43.1466 31.5769 42.4366 31.1439 41.6897C30.6411 40.7704 30.1477 39.856 29.6536 38.9367C29.2309 38.0957 28.7407 37.2905 28.1878 36.5292C28.0897 36.3985 27.983 36.2677 27.8715 36.1377C27.8066 36.0538 27.7371 35.9698 27.6667 35.881C27.6116 35.9203 27.5658 35.9711 27.5323 36.03C27.4837 36.1068 27.4576 36.1958 27.4572 36.2868C27.456 36.5647 27.5182 36.8393 27.6391 37.0895C27.8346 37.5322 28.0454 37.9675 28.2715 38.3955C28.5791 38.9787 28.9041 39.5485 29.2258 40.1222C29.3097 40.2712 29.3745 40.4344 29.4725 40.5794C30.2734 41.7681 31.0736 42.9631 31.8935 44.1455C32.1678 44.5417 32.4517 44.9379 32.7355 45.3215C32.8145 45.1019 32.8383 44.7564 32.8478 44.22C32.8471 44.1842 32.8484 44.1485 32.8517 44.113C32.7726 44.0052 32.6936 43.9078 32.6193 43.8126ZM16.1361 43.1922L16.0942 42.1326C16.0363 42.1141 15.9771 42.1001 15.9171 42.0906C15.8855 42.0789 15.8525 42.0711 15.8191 42.0677C15.7272 42.0625 15.637 42.0938 15.5682 42.155C15.4992 42.2161 15.4573 42.3021 15.4514 42.3942C15.4238 42.5386 15.419 42.6864 15.4372 42.8323C15.5028 43.2809 15.5866 43.7239 15.6657 44.1669C15.7359 44.4887 15.7672 44.8178 15.759 45.1471C15.7305 45.5156 15.5218 45.6598 15.1628 45.5758C15.1128 45.5687 15.067 45.5443 15.033 45.5068C14.9991 45.4693 14.9793 45.4211 14.977 45.3706C14.8474 44.6413 14.7681 43.9039 14.7398 43.1636C14.6985 42.197 14.7627 41.2287 14.9312 40.2759C15.0007 39.8932 15.1122 39.5199 15.1913 39.1467C15.2186 39.0194 15.2297 38.8892 15.2245 38.7592C15.2197 38.6102 15.1264 38.5682 15.0055 38.6569C14.9212 38.7177 14.8459 38.79 14.7818 38.8717C14.4511 39.2851 14.2189 39.7686 14.1026 40.2855C14.0275 40.5604 14.0275 40.8505 14.1026 41.1254C14.1304 41.2161 14.1445 41.3103 14.1445 41.4052C14.1271 42.1462 14.1612 42.8877 14.2465 43.624C14.3303 44.316 14.4657 45.0007 14.6513 45.6725H16.2325C16.2152 44.8428 16.1733 44.0147 16.1361 43.189V43.1922ZM5.3044 39.7767C5.18978 40.1859 5.11043 40.6043 5.06721 41.0272C5.13204 40.7982 5.20636 40.5699 5.27672 40.3456C5.45304 39.7909 5.63488 39.2307 5.81198 38.6759C5.58778 39.0129 5.41633 39.3822 5.30361 39.7711L5.3044 39.7767ZM17.7007 45.1186C17.5932 44.2184 17.5379 43.3086 17.4541 42.4037C17.4122 41.9789 17.3561 41.5589 17.2999 41.1357C17.2985 41.0789 17.286 41.0229 17.2629 40.9709C17.2398 40.919 17.2067 40.8721 17.1655 40.833C17.1266 40.8647 17.0949 40.9044 17.0724 40.9494C17.0499 40.9943 17.0372 41.0435 17.035 41.0937C16.9015 41.8253 16.8561 42.5702 16.8998 43.3126C16.9189 43.6954 16.9695 44.0773 16.956 44.4648C16.9418 44.8666 16.9465 45.2723 16.9655 45.6733H17.7751C17.7419 45.4887 17.7182 45.3024 17.7 45.1154L17.7007 45.1186ZM9.84264 45.4546C9.82888 45.2434 9.78823 45.0349 9.72168 44.8341C9.66158 44.6431 9.53588 44.6107 9.33584 44.6803C9.33006 44.7048 9.32687 44.7298 9.32636 44.7548C9.3311 45.0631 9.3311 45.3666 9.3311 45.6741H9.84738C9.85041 45.5998 9.84857 45.5255 9.84185 45.4514L9.84264 45.4546ZM20.4799 28.0287C20.3603 28.0031 20.239 27.9875 20.1169 27.9819C19.6018 27.9569 19.0856 27.9976 18.5808 28.1031C18.231 28.1584 17.8954 28.2819 17.5932 28.4668C17.4614 28.558 17.3229 28.639 17.1789 28.7094C16.8208 28.8726 16.4626 29.0263 16.0989 29.1713C15.536 29.3766 14.9778 29.6056 14.4386 29.8624C14.5129 30.0256 14.5967 30.2166 14.6853 30.4266C15.332 30.1231 15.9653 29.8109 16.6073 29.5073C17.5649 29.0322 18.5906 28.7094 19.6473 28.5508C19.9456 28.4959 20.2385 28.4148 20.5225 28.3084C20.5706 28.3007 20.6149 28.2774 20.6485 28.242C20.682 28.2066 20.7031 28.1612 20.7084 28.1127C20.6339 28.0786 20.5573 28.0494 20.479 28.0255L20.4799 28.0287ZM14.5864 26.5682C14.5722 26.5777 14.554 26.5864 14.5398 26.5959C14.1708 26.9178 13.7662 27.1965 13.3341 27.4264C13.2369 27.4826 13.1341 27.5389 13.036 27.5991C13.094 27.7986 13.1624 27.9949 13.2408 28.1871C13.7041 27.9039 14.2039 27.6859 14.7264 27.5389C14.9714 27.4604 15.2108 27.3651 15.4427 27.2537C14.8276 27.1014 14.8276 27.1014 14.5857 26.565L14.5864 26.5682ZM18.6037 35.9508C18.5522 35.736 18.4179 35.6845 18.2542 35.8295C18.124 35.9443 18.0099 36.0762 17.915 36.2218C17.5942 36.7054 17.3608 37.2419 17.2256 37.8067C17.1594 38.0639 17.1344 38.33 17.1513 38.5951C17.1578 38.771 17.2179 38.9405 17.3236 39.0809C17.4169 38.9359 17.5007 38.8194 17.575 38.7029C17.7747 38.3288 17.9429 37.9386 18.0779 37.5365C18.2218 37.1537 18.3712 36.7805 18.5475 36.4167C18.6218 36.2721 18.6414 36.1055 18.6028 35.9476L18.6037 35.9508ZM18.9665 24.1044C18.884 24.0679 18.7962 24.0444 18.7065 24.0347C18.553 24.022 18.3987 24.0236 18.2455 24.0395C17.2499 24.1568 16.2817 24.4438 15.3826 24.8882C15.2245 24.9674 15.0845 25.0609 14.9359 25.1449L14.9494 25.2012L15.555 25.1124C16.3598 24.9912 17.1655 24.8794 17.9569 24.6829C18.2874 24.5989 18.6132 24.5014 18.9389 24.4079C18.9704 24.402 18.9991 24.3861 19.0209 24.3626C19.0427 24.339 19.0564 24.3091 19.0598 24.2772C19.0686 24.2414 19.0639 24.2036 19.0466 24.1711C19.0292 24.1386 19.0004 24.1137 18.9658 24.1013L18.9665 24.1044ZM18.0819 25.3486C17.7513 25.3533 17.4162 25.3533 17.0809 25.3858C16.6062 25.4227 16.1391 25.5265 15.6933 25.6941C15.4666 25.7691 15.2553 25.8845 15.0695 26.0348C14.9951 26.1049 14.9252 26.1796 14.86 26.2583C15.1347 26.3228 15.4191 26.3341 15.6981 26.2916C16.0723 26.2311 16.4392 26.131 16.7923 25.9928C17.2733 25.7923 17.7742 25.6435 18.2866 25.549C18.3573 25.5296 18.426 25.503 18.4914 25.4699C18.3748 25.3794 18.2287 25.3362 18.0819 25.3486ZM20.9629 34.1717C20.4342 34.158 19.9127 34.2972 19.4607 34.5726C19.3165 34.6671 19.1865 34.7819 19.0749 34.9134C19.0278 34.9633 19.0005 35.0287 18.9979 35.0974C18.9952 35.166 19.0176 35.2333 19.0607 35.2867C19.0936 35.3363 19.1432 35.3725 19.2005 35.3888C19.2577 35.4051 19.3189 35.4003 19.3729 35.3754C19.5301 35.3227 19.6826 35.2573 19.8292 35.1797C20.1051 35.0151 20.3928 34.8716 20.6902 34.7502C20.843 34.6836 20.9908 34.6057 21.1321 34.5172C21.2037 34.4639 21.2692 34.4027 21.3274 34.3349C21.2895 34.2746 21.2348 34.2269 21.1699 34.1976C21.1051 34.1682 21.0331 34.1587 20.9629 34.1701V34.1717ZM11.8114 35.8469C11.6714 35.8842 11.616 36.0141 11.5552 36.1171C11.2104 36.7071 10.9519 37.3436 10.7874 38.0071C10.7592 38.1363 10.7389 38.267 10.7266 38.3986C10.8336 38.4207 10.9448 38.4082 11.0442 38.3629C11.1437 38.3177 11.2262 38.2419 11.28 38.1466C11.3624 38.0078 11.4264 37.8589 11.4706 37.7037C11.5734 37.3534 11.6571 36.9944 11.7449 36.6394C11.7828 36.4761 11.82 36.3129 11.8429 36.1497C11.8613 36.0999 11.868 36.0465 11.8625 35.9938C11.857 35.941 11.8395 35.8902 11.8114 35.8453V35.8469ZM16.3029 38.5975C16.2816 38.5136 16.2552 38.431 16.2239 38.3503L16.1638 38.3408C16.1264 38.3915 16.0921 38.4444 16.061 38.4992C16.0196 38.5858 15.987 38.6764 15.9637 38.7695C15.8799 39.2037 15.7867 39.6412 15.7266 40.0763C15.7027 40.3445 15.6998 40.6142 15.7179 40.8829C15.7189 40.9234 15.7352 40.962 15.7637 40.9907C15.7783 41.0068 15.796 41.0197 15.8157 41.0289C15.8354 41.0381 15.8567 41.0433 15.8784 41.0442C15.9 41.045 15.9217 41.0416 15.942 41.034C15.9624 41.0265 15.9811 41.015 15.997 41.0002C16.0473 40.9597 16.0857 40.9063 16.1084 40.8457C16.1561 40.7266 16.192 40.6032 16.216 40.4772C16.2618 40.1317 16.2903 39.787 16.3321 39.4414C16.362 39.1602 16.3522 38.876 16.3029 38.5975ZM23.0898 39.4795C22.9964 39.2275 22.8849 38.9803 22.7735 38.7378C22.7272 38.6537 22.6655 38.5793 22.5916 38.5182C22.5705 38.4941 22.5432 38.4763 22.5126 38.4667C22.473 38.458 22.4316 38.4648 22.3969 38.4857C22.3622 38.5067 22.3368 38.5402 22.326 38.5793C22.2936 38.6827 22.2704 38.7888 22.2564 38.8962C22.2853 39.2328 22.4008 39.5561 22.5916 39.8345C22.6456 39.921 22.7096 40.0007 22.7821 40.0722C22.9079 40.184 23.0194 40.1468 23.0803 39.9882C23.1405 39.8244 23.1424 39.6447 23.0858 39.4795H23.0898ZM11.0333 39.1626C10.9974 39.0864 10.9463 39.0184 10.883 38.9629C10.8198 38.9074 10.7458 38.8656 10.6657 38.84C10.4981 38.7798 10.3811 38.8361 10.3534 39.0128C10.3399 39.1633 10.3383 39.3145 10.3486 39.4653C10.5194 39.5165 10.6999 39.5263 10.8752 39.4938C10.9173 39.4918 10.9578 39.4772 10.9914 39.4518C11.0131 39.4354 11.0313 39.4149 11.0449 39.3915C11.0586 39.368 11.0674 39.3421 11.0709 39.3151C11.0745 39.2882 11.0726 39.2608 11.0655 39.2346C11.0583 39.2084 11.0461 39.1839 11.0294 39.1626H11.0333ZM16.3496 37.0816C16.3327 37.1343 16.3246 37.1895 16.3258 37.2448C16.3305 37.3616 16.3812 37.4718 16.4667 37.5514C16.5521 37.6309 16.6654 37.6734 16.7821 37.6696C16.7657 37.5423 16.717 37.4213 16.6406 37.3183C16.5642 37.2154 16.4626 37.1338 16.3456 37.0816H16.3496Z" fill="white"/>
</svg>
