<svg width="170" height="64" viewBox="0 0 170 64" fill="none" xmlns="http://www.w3.org/2000/svg">
<path d="M71.5857 24.5798H72.7446V39.1821H71.5857V24.5798Z" fill="#F0F5F9"/>
<path d="M75.5305 34.7203C75.5305 34.0379 75.6464 33.4133 75.8782 32.8468C76.11 32.2673 76.4319 31.7715 76.8439 31.3595C77.256 30.9345 77.7518 30.6062 78.3312 30.3743C78.9107 30.1426 79.5417 30.0267 80.2241 30.0267C80.9066 30.0267 81.5312 30.1426 82.0978 30.3743C82.6771 30.6062 83.1729 30.9345 83.585 31.3595C84.0099 31.7715 84.3386 32.2673 84.5703 32.8468C84.802 33.4133 84.9174 34.0379 84.9174 34.7203C84.9174 35.4028 84.802 36.0337 84.5703 36.6132C84.3386 37.1798 84.0099 37.6755 83.585 38.1005C83.1729 38.5125 82.6771 38.8344 82.0978 39.0662C81.5312 39.2981 80.9066 39.4139 80.2241 39.4139C79.5417 39.4139 78.9107 39.2981 78.3312 39.0662C77.7518 38.8344 77.256 38.5125 76.8439 38.1005C76.4319 37.6755 76.11 37.1798 75.8782 36.6132C75.6464 36.0337 75.5305 35.4028 75.5305 34.7203ZM76.6895 34.7203C76.6895 35.2225 76.7667 35.699 76.9212 36.1497C77.0886 36.5875 77.3269 36.9737 77.6358 37.3086C77.9449 37.6305 78.3184 37.8881 78.7561 38.0812C79.194 38.2743 79.6833 38.3709 80.2241 38.3709C80.7649 38.3709 81.2543 38.2743 81.6921 38.0812C82.1299 37.8881 82.5033 37.6305 82.8124 37.3086C83.1214 36.9737 83.3532 36.5875 83.5077 36.1497C83.6751 35.699 83.7589 35.2225 83.7589 34.7203C83.7589 34.2181 83.6751 33.7481 83.5077 33.3103C83.3532 32.8596 83.1214 32.4733 82.8124 32.1514C82.5033 31.8166 82.1299 31.5526 81.6921 31.3595C81.2543 31.1663 80.7649 31.0697 80.2241 31.0697C79.6833 31.0697 79.194 31.1663 78.7561 31.3595C78.3184 31.5526 77.9449 31.8166 77.6358 32.1514C77.3269 32.4733 77.0886 32.8596 76.9212 33.3103C76.7667 33.7481 76.6895 34.2181 76.6895 34.7203Z" fill="#F0F5F9"/>
<path d="M95.0536 36.6712C95.0536 36.8386 95.0597 37.0446 95.0729 37.2893C95.086 37.521 95.0921 37.7593 95.0921 38.0039C95.1052 38.2486 95.1174 38.4804 95.1306 38.6993C95.1437 38.9053 95.1498 39.0662 95.1498 39.1821H93.9914C93.9783 38.8473 93.9652 38.5254 93.952 38.2163C93.952 37.9073 93.9398 37.7078 93.9136 37.6176H93.8559C93.6242 38.1069 93.2378 38.5319 92.6966 38.8924C92.1563 39.2401 91.5251 39.4139 90.8038 39.4139C90.1088 39.4139 89.5361 39.3045 89.085 39.0855C88.647 38.8666 88.2999 38.5834 88.042 38.2357C87.7972 37.8751 87.6302 37.4631 87.5402 36.9995C87.4492 36.5359 87.4047 36.0595 87.4047 35.5702V30.2585H88.5639V35.5122C88.5639 35.8728 88.5954 36.2269 88.6601 36.5746C88.7248 36.9094 88.8341 37.212 88.9888 37.4824C89.1558 37.7528 89.3814 37.9717 89.6646 38.1391C89.961 38.2936 90.3404 38.3709 90.8038 38.3709C91.2287 38.3709 91.6282 38.3001 92.0015 38.1585C92.388 38.0039 92.7167 37.7786 92.9869 37.4824C93.2701 37.1733 93.4887 36.7935 93.6434 36.3428C93.8104 35.8792 93.8943 35.3384 93.8943 34.7203V30.2585H95.0536V36.6712Z" fill="#F0F5F9"/>
<path d="M106.037 37.6176H105.999C105.818 37.9266 105.593 38.197 105.323 38.4289C105.053 38.6478 104.756 38.8344 104.435 38.989C104.125 39.1306 103.797 39.2336 103.449 39.298C103.101 39.3753 102.76 39.4139 102.425 39.4139C101.743 39.4139 101.112 39.2981 100.533 39.0662C99.953 38.8344 99.4573 38.5125 99.0455 38.1005C98.6329 37.6755 98.3112 37.1798 98.0795 36.6132C97.8478 36.0337 97.7315 35.4028 97.7315 34.7203C97.7315 34.0379 97.8478 33.4133 98.0795 32.8468C98.3112 32.2673 98.6329 31.7715 99.0455 31.3595C99.4573 30.9345 99.953 30.6062 100.533 30.3743C101.112 30.1426 101.743 30.0267 102.425 30.0267C102.76 30.0267 103.101 30.0653 103.449 30.1426C103.797 30.207 104.125 30.3165 104.435 30.4709C104.756 30.6126 105.053 30.7993 105.323 31.0311C105.593 31.25 105.818 31.5139 105.999 31.823H106.037V24.5798H107.196V39.1821H106.037V37.6176ZM106.153 34.7203C106.153 34.2181 106.056 33.7481 105.864 33.3103C105.671 32.8596 105.407 32.4733 105.072 32.1514C104.737 31.8166 104.344 31.5526 103.893 31.3595C103.443 31.1663 102.954 31.0697 102.425 31.0697C101.884 31.0697 101.396 31.1663 100.958 31.3595C100.52 31.5526 100.146 31.8166 99.8368 32.1514C99.5281 32.4733 99.2895 32.8596 99.1225 33.3103C98.9677 33.7481 98.8908 34.2181 98.8908 34.7203C98.8908 35.2225 98.9677 35.699 99.1225 36.1497C99.2895 36.5875 99.5281 36.9737 99.8368 37.3086C100.146 37.6305 100.52 37.8881 100.958 38.0812C101.396 38.2743 101.884 38.3709 102.425 38.3709C102.954 38.3709 103.443 38.2743 103.893 38.0812C104.344 37.8881 104.737 37.6305 105.072 37.3086C105.407 36.9737 105.671 36.5875 105.864 36.1497C106.056 35.699 106.153 35.2225 106.153 34.7203Z" fill="#F0F5F9"/>
<path d="M116.145 32.6922C115.875 32.4089 115.592 32.1835 115.296 32.0162C114.999 31.8488 114.697 31.765 114.388 31.765C113.963 31.765 113.583 31.8423 113.248 31.9969C112.913 32.1514 112.624 32.3574 112.379 32.6149C112.147 32.8725 111.967 33.1687 111.839 33.5034C111.722 33.8383 111.665 34.1859 111.665 34.5464C111.665 34.9071 111.722 35.2547 111.839 35.5895C111.967 35.9243 112.147 36.2205 112.379 36.478C112.624 36.7355 112.913 36.9416 113.248 37.096C113.583 37.2506 113.963 37.3279 114.388 37.3279C114.748 37.3279 115.083 37.257 115.393 37.1154C115.701 36.9609 115.965 36.742 116.184 36.4587L117.729 38.1198C117.498 38.3516 117.228 38.5512 116.918 38.7186C116.622 38.8859 116.319 39.0212 116.011 39.1242C115.701 39.2272 115.405 39.2981 115.122 39.3366C114.838 39.3882 114.593 39.4139 114.388 39.4139C113.692 39.4139 113.036 39.2981 112.417 39.0662C111.799 38.8344 111.265 38.5061 110.815 38.0812C110.364 37.6562 110.004 37.1476 109.733 36.5552C109.476 35.9501 109.347 35.2805 109.347 34.5464C109.347 33.8125 109.476 33.1493 109.733 32.557C110.004 31.9518 110.364 31.4367 110.815 31.0118C111.265 30.5869 111.799 30.2585 112.417 30.0267C113.036 29.7949 113.692 29.679 114.388 29.679C114.98 29.679 115.573 29.7949 116.165 30.0267C116.77 30.2456 117.298 30.5997 117.749 31.089L116.145 32.6922Z" fill="#F0F5F9"/>
<path d="M119.128 29.9108H121.446V31.3788H121.484C121.742 30.838 122.11 30.4194 122.586 30.1232C123.063 29.8271 123.61 29.679 124.228 29.679C124.37 29.679 124.504 29.6919 124.633 29.7177C124.775 29.7434 124.917 29.7756 125.058 29.8142V32.0548C124.865 32.0033 124.672 31.9646 124.479 31.9389C124.299 31.9003 124.118 31.881 123.938 31.881C123.397 31.881 122.959 31.9839 122.625 32.19C122.303 32.3831 122.051 32.6085 121.871 32.866C121.704 33.1236 121.588 33.3811 121.524 33.6387C121.472 33.8961 121.446 34.0894 121.446 34.2181V39.1821H119.128V29.9108Z" fill="#F0F5F9"/>
<path d="M125.832 34.5464C125.832 33.8125 125.962 33.1493 126.219 32.557C126.489 31.9518 126.85 31.4367 127.3 31.0118C127.751 30.5869 128.285 30.2585 128.904 30.0267C129.522 29.7949 130.178 29.679 130.874 29.679C131.569 29.679 132.226 29.7949 132.844 30.0267C133.462 30.2585 133.996 30.5869 134.447 31.0118C134.897 31.4367 135.252 31.9518 135.509 32.557C135.78 33.1493 135.915 33.8125 135.915 34.5464C135.915 35.2805 135.78 35.9501 135.509 36.5552C135.252 37.1476 134.897 37.6562 134.447 38.0812C133.996 38.5061 133.462 38.8344 132.844 39.0662C132.226 39.2981 131.569 39.4139 130.874 39.4139C130.178 39.4139 129.522 39.2981 128.904 39.0662C128.285 38.8344 127.751 38.5061 127.3 38.0812C126.85 37.6562 126.489 37.1476 126.219 36.5552C125.962 35.9501 125.832 35.2805 125.832 34.5464ZM128.151 34.5464C128.151 34.9071 128.208 35.2547 128.324 35.5895C128.453 35.9243 128.633 36.2205 128.865 36.478C129.11 36.7355 129.399 36.9416 129.734 37.096C130.069 37.2506 130.449 37.3279 130.874 37.3279C131.299 37.3279 131.678 37.2506 132.013 37.096C132.348 36.9416 132.631 36.7355 132.863 36.478C133.108 36.2205 133.288 35.9243 133.404 35.5895C133.533 35.2547 133.597 34.9071 133.597 34.5464C133.597 34.1859 133.533 33.8383 133.404 33.5034C133.288 33.1687 133.108 32.8725 132.863 32.6149C132.631 32.3574 132.348 32.1514 132.013 31.9969C131.678 31.8423 131.299 31.765 130.874 31.765C130.449 31.765 130.069 31.8423 129.734 31.9969C129.399 32.1514 129.11 32.3574 128.865 32.6149C128.633 32.8725 128.453 33.1687 128.324 33.5034C128.208 33.8383 128.151 34.1859 128.151 34.5464Z" fill="#F0F5F9"/>
<path d="M136.83 29.9108H139.341L141.35 36.4007H141.388L143.262 29.9108H145.773L147.782 36.4007H147.82L149.751 29.9108H152.089L148.94 39.1821H146.642L144.44 32.8468H144.402L142.45 39.1821H140.056L136.83 29.9108Z" fill="#F0F5F9"/>
<path d="M160.798 37.7914H160.759C160.424 38.3581 159.974 38.7701 159.408 39.0276C158.841 39.2851 158.229 39.4139 157.573 39.4139C156.851 39.4139 156.208 39.2916 155.641 39.0469C155.087 38.7894 154.611 38.4417 154.212 38.0039C153.812 37.5661 153.51 37.051 153.303 36.4587C153.098 35.8663 152.995 35.229 152.995 34.5464C152.995 33.864 153.104 33.2266 153.323 32.6342C153.542 32.0419 153.845 31.5269 154.231 31.089C154.63 30.6512 155.106 30.31 155.661 30.0653C156.214 29.8078 156.819 29.679 157.475 29.679C157.913 29.679 158.3 29.7241 158.635 29.8142C158.97 29.9043 159.266 30.0203 159.523 30.1619C159.781 30.3035 160 30.4581 160.18 30.6254C160.361 30.78 160.508 30.9345 160.625 31.089H160.682V24.5798H163V39.1821H160.798V37.7914ZM155.313 34.5464C155.313 34.9071 155.37 35.2547 155.487 35.5895C155.615 35.9243 155.795 36.2205 156.027 36.478C156.272 36.7355 156.562 36.9416 156.897 37.0961C157.232 37.2506 157.611 37.3279 158.036 37.3279C158.461 37.3279 158.841 37.2506 159.176 37.0961C159.51 36.9416 159.794 36.7355 160.026 36.478C160.27 36.2205 160.451 35.9243 160.566 35.5895C160.695 35.2547 160.759 34.9071 160.759 34.5464C160.759 34.1859 160.695 33.8383 160.566 33.5034C160.451 33.1687 160.27 32.8725 160.026 32.6149C159.794 32.3574 159.51 32.1514 159.176 31.9969C158.841 31.8423 158.461 31.765 158.036 31.765C157.611 31.765 157.232 31.8423 156.897 31.9969C156.562 32.1514 156.272 32.3574 156.027 32.6149C155.795 32.8725 155.615 33.1687 155.487 33.5034C155.37 33.8383 155.313 34.1859 155.313 34.5464Z" fill="#F0F5F9"/>
<path fill-rule="evenodd" clip-rule="evenodd" d="M44.858 15.2313C44.858 14.5513 44.3068 14 43.6267 14C42.9466 14 42.3953 14.5513 42.3953 15.2313V48.8399C42.3953 49.52 42.9466 50.0713 43.6267 50.0713C44.3068 50.0713 44.858 49.52 44.858 48.8399V15.2313ZM13.2534 17.6213C13.9334 17.6213 14.4847 18.1725 14.4847 18.8526V45.218C14.4847 45.898 13.9334 46.4493 13.2534 46.4493C12.5733 46.4493 12.0221 45.898 12.0221 45.218V18.8526C12.0221 18.1725 12.5733 17.6213 13.2534 17.6213ZM29.8886 21.2675C29.8886 20.5874 29.3373 20.0361 28.6573 20.0361C27.9772 20.0361 27.4259 20.5874 27.4259 21.2675V42.8041C27.4259 43.4841 27.9772 44.0354 28.6573 44.0354C29.3373 44.0354 29.8886 43.4841 29.8886 42.8041V21.2675ZM9.46273 24.9854C9.46273 24.3053 8.91141 23.7539 8.23132 23.7539C7.55131 23.7539 7 24.3053 7 24.9854V39.1338C7 39.8138 7.55131 40.3651 8.23132 40.3651C8.91141 40.3651 9.46273 39.8138 9.46273 39.1338V24.9854ZM35.1038 27.3035C35.1038 26.6235 34.5525 26.0722 33.8724 26.0722C33.1924 26.0722 32.6411 26.6235 32.6411 27.3035V36.7679C32.6411 37.448 33.1924 37.9994 33.8724 37.9994C34.5525 37.9994 35.1038 37.448 35.1038 36.7679V27.3035ZM48.5036 17.6213C49.1837 17.6213 49.735 18.1725 49.735 18.8526V45.218C49.735 45.898 49.1837 46.4493 48.5036 46.4493C47.8236 46.4493 47.2723 45.898 47.2723 45.218V18.8526C47.2723 18.1725 47.8236 17.6213 48.5036 17.6213ZM19.7963 21.2675C19.7963 20.5874 19.2451 20.0361 18.565 20.0361C17.8849 20.0361 17.3337 20.5874 17.3337 21.2675V42.8041C17.3337 43.4841 17.8849 44.0354 18.565 44.0354C19.2451 44.0354 19.7963 43.4841 19.7963 42.8041V21.2675ZM38.7496 23.6574C39.4296 23.6574 39.9809 24.2087 39.9809 24.8887V39.1821C39.9809 39.8622 39.4296 40.4135 38.7496 40.4135C38.0695 40.4135 37.5182 39.8622 37.5182 39.1821V24.8887C37.5182 24.2087 38.0695 23.6574 38.7496 23.6574ZM54.9019 26.0962C54.9019 25.4162 54.3506 24.8649 53.6705 24.8649C52.9905 24.8649 52.4392 25.4162 52.4392 26.0962V37.9751C52.4392 38.6551 52.9905 39.2065 53.6705 39.2065C54.3506 39.2065 54.9019 38.6551 54.9019 37.9751V26.0962ZM23.4904 27.2794C24.1704 27.2794 24.7217 27.8307 24.7217 28.5107V35.5608C24.7217 36.2409 24.1704 36.7922 23.4904 36.7922C22.8103 36.7922 22.259 36.2409 22.259 35.5608V28.5107C22.259 27.8307 22.8103 27.2794 23.4904 27.2794ZM58.0165 22.4508C58.6966 22.4508 59.2478 23.0021 59.2478 23.6822V40.3899C59.2478 41.07 58.6966 41.6212 58.0165 41.6212C57.3365 41.6212 56.7852 41.07 56.7852 40.3899V23.6822C56.7852 23.0021 57.3365 22.4508 58.0165 22.4508Z" fill="#F0F5F9"/>
</svg>
