<svg width="170" height="64" viewBox="0 0 170 64" fill="none" xmlns="http://www.w3.org/2000/svg">
<path fill-rule="evenodd" clip-rule="evenodd" d="M34.236 26.0433C34.0528 25.8602 33.8697 25.7686 33.595 25.8602H30.9396C30.5734 25.8602 30.2071 26.0433 30.024 26.318L24.3469 33.6433L21.2337 26.318C21.0505 25.9518 20.6843 25.7686 20.318 25.8602H17.7542C17.2964 25.8602 16.8385 26.1349 16.8385 26.5927L14 42.7082C14 42.8914 14 43.1661 14.0916 43.3492C14.2747 43.5323 14.4578 43.6239 14.7325 43.5323H17.3879C17.8457 43.5323 18.3036 43.1661 18.3036 42.7082L19.9518 33.1854L22.6072 39.3203C22.6987 39.595 22.9734 39.7781 23.2481 39.6866C23.5228 39.6866 23.7975 39.5034 23.9806 39.3203L28.742 33.1854L27.0939 42.7082C27.0023 42.8914 27.0939 43.1661 27.1854 43.3492C27.3686 43.5323 27.5517 43.6239 27.8264 43.5323H30.4818C30.9396 43.5323 31.3974 43.1661 31.3974 42.7082L34.236 26.5927C34.3275 26.4096 34.3275 26.2265 34.236 26.0433ZM46.4142 26.5011C46.3226 26.0433 45.9564 25.6771 45.4985 25.7686H42.019C41.7443 25.7686 41.5612 25.7686 41.3781 25.9518C41.1949 26.1349 41.1034 26.318 41.0118 26.5011L32.6794 42.5251C32.4962 42.7082 32.4962 42.9829 32.5878 43.2576C32.6794 43.4408 32.9541 43.6239 33.1372 43.5323H36.1588C36.6167 43.5323 37.0745 43.2576 37.1661 42.7998L38.5395 40.1444H44.125L44.4913 42.7082C44.4913 43.1661 44.8576 43.5323 45.3154 43.4408C45.3154 43.4408 45.3154 43.4408 45.407 43.4408H48.3371C48.6117 43.4408 48.7949 43.3492 48.978 43.1661C49.1611 42.9829 49.1611 42.7082 49.1611 42.4335L46.4142 26.5011ZM40.0962 36.3902L43.1178 30.3469L43.9419 36.3902H40.0962ZM59.508 34.1011L66.9248 26.8674C67.108 26.6843 67.1995 26.4096 67.1995 26.1349C67.108 25.8602 66.9248 25.6771 66.6501 25.7686H63.3538C62.896 25.8602 62.4381 26.0433 62.1634 26.4096L56.6695 31.7204L57.5852 26.5927C57.6767 26.4096 57.5852 26.1349 57.4936 25.9518C57.3105 25.7686 57.1273 25.6771 56.8526 25.7686H54.0141C53.5563 25.7686 53.0985 26.0433 53.0985 26.5011L50.2599 42.6167C50.1684 42.7998 50.2599 43.0745 50.3515 43.2576C50.5346 43.4408 50.7178 43.5323 50.9925 43.4408H53.831C54.2888 43.4408 54.7466 43.1661 54.7466 42.7082L55.937 36.1155L59.7827 42.7998C59.9659 43.2576 60.3321 43.5323 60.8815 43.5323H63.8116C64.0863 43.5323 64.361 43.4408 64.4526 43.1661C64.5441 42.8914 64.5441 42.6167 64.361 42.4335L59.508 34.1011ZM78.3705 32.9107C78.1874 32.7276 78.0043 32.7276 77.8211 32.7276H71.6862L72.2356 29.6144H78.7368C79.1946 29.6144 79.6524 29.3397 79.6524 28.7903L80.0187 26.6843C80.1103 26.5011 80.0187 26.2265 79.9271 26.0433C79.744 25.8602 79.5609 25.7686 79.2862 25.8602H69.214C68.7562 25.8602 68.3899 26.1349 68.2983 26.5927L65.4598 42.7082C65.3682 42.8914 65.4598 43.1661 65.5514 43.3492C65.7345 43.5323 65.9176 43.6239 66.1923 43.5323H76.3561C76.8139 43.5323 77.2717 43.1661 77.2717 42.7082L77.638 40.6022C77.7296 40.4191 77.638 40.1444 77.5464 39.9613C77.3633 39.7781 77.1802 39.6866 76.9055 39.7781H70.4043L71.0453 36.3902H77.1802C77.638 36.3902 78.0958 36.024 78.0958 35.5661L78.4621 33.5517C78.5537 33.277 78.4621 33.0939 78.3705 32.9107ZM93.1126 26.5011C91.556 25.7686 89.8162 25.4024 88.0765 25.4939C86.1536 25.4024 84.3223 25.9518 82.7657 26.959C81.3922 27.9662 80.6597 29.7059 80.7512 31.4457C80.6597 32.5445 81.1175 33.6433 81.9416 34.4673C82.8572 35.2914 83.956 35.9324 85.1464 36.2987C85.8789 36.5734 86.5199 36.848 87.1608 37.2143C87.5271 37.3974 87.8018 37.7637 87.8018 38.2215C87.8018 38.8625 87.4355 39.4119 86.7945 39.595C86.062 39.8697 85.2379 40.0528 84.4138 40.0528C83.1319 40.0528 81.9416 39.7781 80.8428 39.3203C80.385 39.1372 79.9271 39.3203 79.744 39.7781C79.744 39.7781 79.744 39.7781 79.744 39.8697L78.7368 41.7926C78.5537 42.0673 78.6452 42.5251 78.9199 42.7998L79.0115 42.8914C79.744 43.2576 80.5681 43.5323 81.3922 43.7155C82.491 43.8986 83.5898 43.9902 84.6885 43.9902C86.6114 44.0817 88.5343 43.5323 90.1825 42.4335C91.6475 41.3348 92.4716 39.6866 92.38 37.8553C92.38 37.2143 92.2885 36.6649 92.0138 36.1155C91.7391 35.5661 91.3728 35.1083 90.915 34.742C90.4572 34.3758 89.9993 34.1011 89.5415 33.8264C89.0837 33.5517 88.5343 33.277 87.8018 33.0023C87.0692 32.7276 86.4283 32.3613 85.7873 31.9951C85.4211 31.8119 85.2379 31.4457 85.2379 31.0794C85.2379 29.9806 86.1536 29.4312 88.0765 29.4312C89.1753 29.4312 90.274 29.6144 91.2813 29.9806C91.7391 30.1638 92.1969 29.9806 92.38 29.6144V29.5228L93.3873 27.6915C93.5704 27.3252 93.4788 26.959 93.2041 26.6843C93.1126 26.5011 93.1126 26.5011 93.1126 26.5011ZM118.202 25.7686H115.271C114.814 25.7686 114.356 26.0433 114.264 26.5011L111.151 33.918L109.594 37.9468L109.32 33.918L108.77 26.5011C108.77 26.0433 108.404 25.6771 107.946 25.7686H107.855H105.382C104.925 25.7686 104.467 26.0433 104.284 26.5011L100.987 33.918L99.339 37.9468L99.1559 34.0095L98.6981 26.5927C98.6981 26.1349 98.3318 25.7686 97.874 25.8602H97.7824H94.9439C94.7607 25.8602 94.5776 25.9518 94.3945 26.0433C94.2114 26.2265 94.1198 26.5927 94.2113 26.8674L95.768 42.8914C95.768 43.3492 96.1342 43.7155 96.5921 43.6239H96.6836H99.7968C100.255 43.6239 100.713 43.3492 100.896 42.8914L104.1 35.8408L105.474 32.4529L105.749 35.7493L106.481 42.7998C106.481 43.2576 106.847 43.6239 107.305 43.6239H107.397H110.51C110.968 43.6239 111.426 43.3492 111.609 42.8914L118.842 26.8674C118.934 26.6843 119.026 26.4096 118.842 26.1349C118.659 25.8602 118.476 25.7686 118.202 25.7686ZM141.825 25.7686H131.936C131.479 25.7686 131.021 26.0433 131.021 26.5011L128.182 42.6167C128.091 42.7998 128.182 43.0745 128.274 43.2576C128.457 43.4408 128.64 43.5323 128.915 43.4408H131.662C132.119 43.4408 132.577 43.0745 132.577 42.6167L133.585 36.6649H139.719C140.177 36.6649 140.635 36.3902 140.635 35.8408L141.001 33.7348C141.093 33.5517 141.001 33.277 140.91 33.0939C140.727 32.9107 140.543 32.8192 140.269 32.9107H134.225L134.866 29.4312H141.276C141.734 29.4312 142.192 29.1565 142.192 28.6987L142.558 26.5927C142.649 26.4096 142.558 26.1349 142.466 25.9518C142.283 25.8602 142.009 25.7686 141.825 25.7686ZM156.751 26.0433C156.567 25.8602 156.384 25.7686 156.11 25.8602H144.481C144.023 25.8602 143.657 26.1349 143.565 26.6843L143.107 28.8819C143.016 29.065 143.107 29.3397 143.199 29.5228C143.382 29.7059 143.565 29.7975 143.84 29.7059H147.319L145.03 42.6167C144.939 42.7998 145.03 43.0745 145.122 43.2576C145.305 43.4408 145.488 43.5323 145.763 43.4408H148.601C149.059 43.4408 149.517 43.0745 149.517 42.6167L151.806 29.7059H155.377C155.835 29.7059 156.293 29.3397 156.293 28.8819L156.659 26.5927C156.842 26.4096 156.842 26.2265 156.751 26.0433ZM120.857 29.7975H122.688L121.04 35.9324C120.948 36.2071 121.132 36.3902 121.315 36.4818H121.406H122.23C122.505 36.4818 122.688 36.3902 122.78 36.1155L128.365 26.7758C128.548 26.5011 128.457 26.0433 128.091 25.8602C127.999 25.7686 127.907 25.7686 127.724 25.7686H125.71L128.915 21.0072C129.098 20.7325 129.006 20.2747 128.732 20.0916C128.823 20 128.64 20 128.548 20H123.421C123.054 20 122.688 20.2747 122.597 20.641L120.308 28.8819C120.216 29.2481 120.399 29.6144 120.765 29.7059C120.765 29.7975 120.857 29.7975 120.857 29.7975ZM123.146 39.1372H120.216C119.85 39.1372 119.483 39.4119 119.392 39.7781L118.659 42.7082C118.568 43.0745 118.751 43.4408 119.117 43.5323C119.209 43.5323 119.209 43.5323 119.3 43.5323H122.23C122.597 43.5323 122.963 43.2576 123.054 42.8914L123.787 39.9613C123.879 39.595 123.695 39.2288 123.329 39.1372C123.238 39.1372 123.238 39.1372 123.146 39.1372Z" fill="white"/>
</svg>
