<svg version="1.2" xmlns="http://www.w3.org/2000/svg" viewBox="0 0 348 69" width="500" height="99">
	<style>
		.s0 { fill: #ffffff } 
	</style>
	<path id="Path" class="s0" d="m15.29 48.85h-10.99c-2.37 0-4.3 1.93-4.3 4.3v10.99c0 2.37 1.93 4.3 4.3 4.3h10.99c2.37 0 4.3-1.93 4.3-4.3v-10.99c0-2.37-1.93-4.3-4.3-4.3z"/>
	<path id="path1" class="s0" d="m51.48 68.43h10.98c2.38 0 4.3-1.92 4.3-4.3v-10.99c0-2.37-1.92-4.3-4.3-4.3h-10.98c-2.38 0-4.31 1.93-4.31 4.3v10.99c0 2.38 1.93 4.3 4.31 4.3z"/>
	<path id="path2" class="s0" d="m62.46 0.17h-10.99c-2.37 0-4.3 1.92-4.3 4.3v8.3c-0.12 2.96-1.34 6.85-3.46 8.85-2.06 1.93-5.71 2.9-8.32 2.9h-4.02c-2.61 0-6.27-0.97-8.32-2.9-2.12-2-3.34-5.89-3.46-8.85v-8.3c0-2.37-1.92-4.3-4.3-4.3h-10.99c-2.38 0-4.3 1.92-4.3 4.3v10.99c0 2.38 1.92 4.3 4.3 4.3h4.15c5.3 0 10.37 2.5 13.37 6.88 1.08 1.59 1.77 3.24 1.77 4.66v8.5c0 2.38 1.92 4.3 4.3 4.3h10.99c2.38 0 4.3-1.92 4.3-4.3v-8.5c0-1.42 0.69-3.07 1.78-4.66 2.99-4.38 8.06-6.88 13.37-6.88h4.14c2.38 0 4.3-1.92 4.3-4.3v-10.99c0-2.37-1.92-4.3-4.3-4.3z"/>
	<path id="Mixlayer" fill-rule="evenodd" class="s0" d="m324.08 54h6.96v-14.91q0-1.74 0.87-3.62 0.87-1.89 2.2-3.22 1.33-1.33 2.49-1.51 2.44-0.29 5.63-0.29 2.09 0 3.13 0.06v-6.96l-5.68-0.12q-2.79 0-3.83 0.29-1.04 0.29-1.97 1.45-0.93 1.16-3.08 4.76h-0.63l0.29-6.21h-6.38zm-15.78-0.37q2.55-0.9 3.89-2.99 1.33-2.09 1.91-5.92h-7.19q-0.7 2.21-1.89 3.02-1.19 0.81-3.8 0.81-2.66 0-4.14-0.64-1.48-0.63-2.18-2.17-0.69-1.54-0.93-4.38h20.59l0.06-2.26q0-6.27-1.3-9.72-1.31-3.45-4.27-4.93-2.95-1.48-8.23-1.48-5.51 0-8.5 1.4-2.99 1.39-4.23 4.72-1.25 3.34-1.25 9.49 0 6.26 1.31 9.68 1.3 3.42 4.37 4.84 3.08 1.43 8.76 1.43 4.47 0 7.02-0.9zm-14.27-17.78q0-3.89 1.57-5.39 1.56-1.51 5.22-1.51 3.77 0 5.31 1.48 1.53 1.48 1.53 5.42zm-34.1 30.62h7.31l15.08-42.74h-7.31l-7.14 22.27h-0.29l-7.25-22.27h-7.19l9.86 27.49h1.97zm-22.96-12.82q1.79-0.87 3.42-3.25h0.46v3.6h6.61v-20.13q0-4.29-1.16-6.61-1.16-2.32-3.91-3.3-2.76-0.99-7.8-0.99-5.05 0-7.74 0.9-2.7 0.9-3.77 3.01-1.08 2.12-0.9 6.07h7.07q-0.11-2.38 1.02-3.22 1.13-0.84 4.32-0.84 3.54 0 4.81 1.04 1.28 1.04 1.28 3.94v0.35h-4.58q-5.86 0-9.05 0.99-3.19 0.98-4.53 3.33-1.33 2.35-1.33 6.64 0 3.66 0.96 5.66 0.95 2 3.25 2.84 2.29 0.84 6.52 0.84 3.25 0 5.05-0.87zm-8.12-11.74q0.58-0.96 2-1.37 1.42-0.4 4.03-0.46l5.74-0.06q-0.12 3.37-0.78 5.16-0.67 1.8-2.24 2.56-1.56 0.75-4.46 0.75-2.84 0-3.86-0.81-1.01-0.81-1.01-3.02 0-1.8 0.58-2.75zm-40.78 12.09h27.49v-6.03h-9.91v-36.19h-17v6.03h10.04v30.16h-10.62zm-34.51 0h8.01l6.84-9.98h0.23l6.85 9.98h8l-11.19-15.43 10.55-14.85h-7.77l-6.44 9.92h-0.23l-6.44-9.92h-7.77l10.56 14.85zm-21.87-34.05h8.87v-8.17h-8.87zm-8.41 34.04h26.74v-5.97h-9.69v-24.3h-16.47v5.97h9.51v18.33h-10.09zm-36.25 0h6.84v-19.95l-0.69-10.27h0.23l6.09 17.05h5.86l6.09-17.05h0.23l-0.7 10.27v19.95h6.85v-39.44h-8.64l-6.44 18.91h-0.64l-6.32-18.91h-8.76z"/>
</svg>