<svg width="170" height="64" viewBox="0 0 170 64" fill="none" xmlns="http://www.w3.org/2000/svg">
<path fill-rule="evenodd" clip-rule="evenodd" d="M23.4441 29.5563C25.0695 31.1803 25.0695 33.8254 23.4441 35.4494L25.4085 37.4151C28.1217 34.7019 28.1217 30.3037 25.4085 27.5905C22.6967 24.8788 18.2984 24.8788 15.5867 27.5905L17.5511 29.5563C19.1765 27.9309 21.8187 27.9309 23.4441 29.5563Z" fill="white"/>
<path fill-rule="evenodd" clip-rule="evenodd" d="M27.3743 25.6267C31.1655 29.4179 31.1655 35.5875 27.3743 39.3786L29.3387 41.3444C34.2218 36.4613 34.2218 28.5454 29.3387 23.6623C24.4555 18.7792 16.5383 18.7792 11.6566 23.6623L13.6209 25.6267C17.4122 21.8355 23.5831 21.8355 27.3743 25.6267Z" fill="white"/>
<path fill-rule="evenodd" clip-rule="evenodd" d="M21.2314 37.1658C19.0434 38.4438 16.7942 38.6217 15.587 37.4145C14.3769 36.2072 14.5562 33.9581 15.8342 31.77L9.91751 25.8533C6.8765 30.6837 7.45025 37.1366 11.6554 41.3445C15.8634 45.5498 22.3163 46.1235 27.1467 43.0825L21.2314 37.1658Z" fill="white"/>
<path fill-rule="evenodd" clip-rule="evenodd" d="M132.558 27.623C133.855 27.623 134.868 28.0734 135.598 28.9741V27.8852H138.191V36.8488C138.191 38.4151 137.715 39.6452 136.762 40.5392C135.81 41.4332 134.521 41.8802 132.893 41.8802C132.096 41.8802 131.317 41.7777 130.558 41.5727C129.798 41.3677 129.144 41.077 128.597 40.7005L129.539 38.5529C130.553 39.2183 131.633 39.5511 132.781 39.5511C133.625 39.5511 134.302 39.3259 134.813 38.8755C135.323 38.4252 135.577 37.7866 135.577 36.9598V36.2741C134.848 37.1547 133.842 37.595 132.558 37.595C131.964 37.595 131.394 37.474 130.847 37.232C130.3 36.99 129.818 36.6573 129.403 36.2338C128.987 35.8103 128.657 35.2826 128.41 34.6508C128.163 34.0189 128.04 33.34 128.04 32.6141C128.04 31.8813 128.163 31.2008 128.41 30.5723C128.657 29.9437 128.987 29.4161 129.403 28.9892C129.818 28.5624 130.3 28.228 130.847 27.986C131.394 27.744 131.964 27.623 132.558 27.623ZM44.7688 27.6222C46.1195 27.6222 47.2508 28.1128 48.1625 29.0943C49.0743 30.0757 49.5301 31.2991 49.5301 32.7644C49.5301 34.2298 49.0776 35.4532 48.1727 36.4346C47.2676 37.416 46.1364 37.9067 44.779 37.9067C43.5701 37.9067 42.6077 37.4832 41.8918 36.6363V41.6878H39.2579V27.8843H41.8411V28.9632C42.557 28.0691 43.5329 27.6222 44.7688 27.6222ZM92.1585 27.6223C93.5701 27.6223 94.7179 28.0979 95.6025 29.0491C96.4877 30.0002 96.9297 31.2353 96.9297 32.7545C96.9297 33.0906 96.9128 33.3864 96.879 33.6418H89.9199C90.048 34.3207 90.3368 34.8282 90.7857 35.1644C91.2352 35.5004 91.7872 35.6685 92.4423 35.6685C93.3538 35.6685 94.1809 35.3559 94.9242 34.7308L96.4739 36.4247C95.3799 37.4128 93.9852 37.9069 92.2904 37.9069C90.7838 37.9069 89.5585 37.4364 88.6127 36.4953C87.6674 35.5542 87.1948 34.3207 87.1948 32.7949C87.1948 31.2622 87.6537 30.017 88.572 29.0591C89.491 28.1013 90.6863 27.6223 92.1585 27.6223ZM68.3521 27.6222C69.8784 27.6222 71.1466 28.1112 72.1562 29.0892C73.1658 30.0673 73.6703 31.2924 73.6703 32.7644C73.6703 34.2365 73.1658 35.4616 72.1562 36.4397C71.1466 37.4177 69.8784 37.9067 68.3521 37.9067C66.8326 37.9067 65.5696 37.4177 64.5633 36.4397C63.557 35.4616 63.0539 34.2365 63.0539 32.7644C63.0539 31.2924 63.557 30.0673 64.5633 29.0892C65.5696 28.1112 66.8326 27.6222 68.3521 27.6222ZM120.352 27.6222C121.594 27.6222 122.573 28.0691 123.289 28.9632V27.8843H125.873V37.6547H123.289V36.5758C122.567 37.463 121.588 37.9067 120.352 37.9067C118.994 37.9067 117.863 37.416 116.958 36.4346C116.053 35.4532 115.6 34.2298 115.6 32.7644C115.6 31.2991 116.053 30.0757 116.958 29.0943C117.863 28.1128 118.994 27.6222 120.352 27.6222ZM145.657 27.6222C147.183 27.6222 148.451 28.1112 149.461 29.0892C150.471 30.0673 150.975 31.2924 150.975 32.7644C150.975 34.2365 150.471 35.4616 149.461 36.4397C148.451 37.4177 147.183 37.9067 145.657 37.9067C144.137 37.9067 142.875 37.4177 141.868 36.4397C140.862 35.4616 140.358 34.2365 140.358 32.7644C140.358 31.2924 140.862 30.0673 141.868 29.0892C142.875 28.1112 144.137 27.6222 145.657 27.6222ZM54.3321 23.1257V28.9334C54.9602 28.0596 55.899 27.6227 57.1483 27.6227C58.2695 27.6227 59.1863 27.9756 59.8988 28.6814C60.6113 29.3872 60.9675 30.3047 60.9675 31.434V37.6552H58.3235V32.281C58.3235 31.5752 58.158 31.0341 57.8271 30.6576C57.4962 30.2812 57.0234 30.0929 56.4089 30.0929C55.8078 30.0929 55.3114 30.2829 54.9197 30.6626C54.528 31.0424 54.3321 31.5886 54.3321 32.3011V37.6552H51.6881V23.1257H54.3321ZM100.577 27.885L102.674 34.7111L104.872 27.885H107.659L109.887 34.7414L111.994 27.885H114.76L111.437 37.6553H108.418L106.24 31.051L104.082 37.6553H101.084L97.7611 27.885H100.577ZM158.593 27.6222C159.715 27.6222 160.631 27.9751 161.344 28.6809C162.057 29.3867 162.412 30.3042 162.412 31.4335V37.6547H159.769V32.2805C159.769 31.5747 159.603 31.0336 159.272 30.6571C158.942 30.2807 158.468 30.0924 157.854 30.0924C157.253 30.0924 156.757 30.2824 156.365 30.6621C155.973 31.0419 155.777 31.5881 155.777 32.3006V37.6547H153.133V27.8843H155.706V29.0338C156.341 28.0927 157.304 27.6222 158.593 27.6222ZM81.289 27.6222C82.4099 27.6222 83.327 27.9751 84.0391 28.6809C84.7517 29.3867 85.1081 30.3042 85.1081 31.4335V37.6547H82.4637V32.2805C82.4637 31.5747 82.2986 31.0336 81.9673 30.6571C81.6366 30.2807 81.164 30.0924 80.5495 30.0924C79.9481 30.0924 79.4517 30.2824 79.0603 30.6621C78.6684 31.0419 78.4727 31.5881 78.4727 32.3006V37.6547H75.8283V27.8843H78.4014V29.0338C79.0366 28.0927 79.9987 27.6222 81.289 27.6222ZM145.657 30.0723C144.907 30.0723 144.286 30.3244 143.793 30.8285C143.3 31.3327 143.053 31.978 143.053 32.7644C143.053 33.5509 143.3 34.1962 143.793 34.7004C144.286 35.2045 144.907 35.4566 145.657 35.4566C146.414 35.4566 147.038 35.2045 147.531 34.7004C148.024 34.1962 148.27 33.5509 148.27 32.7644C148.27 31.978 148.024 31.3327 147.531 30.8285C147.038 30.3244 146.414 30.0723 145.657 30.0723ZM44.2825 30.0723C43.5397 30.0723 42.9335 30.3261 42.4642 30.8336C41.9948 31.3411 41.7601 31.9847 41.7601 32.7644C41.7601 33.5442 41.9948 34.1878 42.4642 34.6953C42.9335 35.2028 43.5397 35.4566 44.2825 35.4566C45.0457 35.4566 45.6586 35.1994 46.1212 34.6852C46.5839 34.171 46.8152 33.5307 46.8152 32.7644C46.8152 31.9982 46.5839 31.3579 46.1212 30.8436C45.6586 30.3294 45.0457 30.0723 44.2825 30.0723ZM68.3521 30.0723C67.6024 30.0723 66.9811 30.3244 66.4881 30.8285C65.9951 31.3327 65.7486 31.978 65.7486 32.7644C65.7486 33.5509 65.9951 34.1962 66.4881 34.7004C66.9811 35.2045 67.6024 35.4566 68.3521 35.4566C69.1085 35.4566 69.7332 35.2045 70.2262 34.7004C70.719 34.1962 70.9659 33.5509 70.9659 32.7644C70.9659 31.978 70.719 31.3327 70.2262 30.8285C69.7332 30.3244 69.1085 30.0723 68.3521 30.0723ZM120.838 30.0723C120.082 30.0723 119.47 30.3294 119.004 30.8436C118.538 31.3579 118.305 31.9982 118.305 32.7644C118.305 33.5307 118.538 34.171 119.004 34.6852C119.47 35.1994 120.082 35.4566 120.838 35.4566C121.588 35.4566 122.197 35.2028 122.667 34.6953C123.136 34.1878 123.37 33.5442 123.37 32.7644C123.37 31.9847 123.136 31.3411 122.667 30.8336C122.197 30.3261 121.588 30.0723 120.838 30.0723ZM133.227 30.0429C132.491 30.0429 131.895 30.2899 131.439 30.784C130.984 31.278 130.755 31.8881 130.755 32.6141C130.755 33.34 130.984 33.9483 131.439 34.4391C131.895 34.9297 132.491 35.1751 133.227 35.1751C133.95 35.1751 134.541 34.9314 135 34.4441C135.459 33.9568 135.689 33.3467 135.689 32.6141C135.689 31.8746 135.461 31.2612 135.005 30.7739C134.549 30.2866 133.957 30.0429 133.227 30.0429ZM92.1379 29.891C91.5234 29.891 91.032 30.0607 90.6644 30.4001C90.2962 30.7396 90.0511 31.2219 89.9299 31.8471H94.2759C94.154 31.2152 93.9108 30.7312 93.5464 30.3951C93.1819 30.059 92.7124 29.891 92.1379 29.891Z" fill="white"/>
</svg>
