<svg width="170" height="64" viewBox="0 0 170 64" fill="none" xmlns="http://www.w3.org/2000/svg">
<path fill-rule="evenodd" clip-rule="evenodd" d="M13.774 30.1379L22.4444 32.3054L33.8887 35.1665V26.5816C33.8887 24.9011 32.7451 23.4363 31.1147 23.0287L11 18V26.585C11 28.2655 12.1436 29.7302 13.774 30.1379Z" fill="white"/>
<path fill-rule="evenodd" clip-rule="evenodd" d="M22.4444 38.0276L11 40.8887V36.5963C11 35.756 11.5719 35.0236 12.387 34.8198L22.4444 32.3054L22.4444 38.0276Z" fill="white"/>
<path fill-rule="evenodd" clip-rule="evenodd" d="M32.5017 41.2354L22.4444 43.7498L22.4444 38.0276L33.8887 35.1665L33.8888 39.4591C33.8888 40.2993 33.3169 41.0317 32.5017 41.2354Z" fill="white"/>
<path fill-rule="evenodd" clip-rule="evenodd" d="M50.3749 25.5176V32.1565H54.3634C56.6917 32.1565 57.8311 30.646 57.8311 28.763C57.8311 26.8557 56.6917 25.5176 54.3634 25.5176H50.3749ZM47.5754 23.1888H54.4867C58.4504 23.1888 60.6549 25.4681 60.6549 28.7382C60.6549 32.0078 58.4504 34.4606 54.4867 34.4606H50.3749V40.2324H47.5754V23.1888ZM63.0715 40.2321V28.1434H65.7472V40.2321H63.0715ZM66.2153 23.4621C66.2153 24.4596 65.4067 25.2682 64.4092 25.2682C63.4117 25.2682 62.6031 24.4596 62.6031 23.4621C62.6031 22.4641 63.4117 21.6559 64.4092 21.6559C65.4067 21.6559 66.2153 22.4641 66.2153 23.4621ZM68.3555 28.1437H70.9316V29.9024H71.0312C71.7242 28.54 73.0128 27.8465 74.7714 27.8465C77.1741 27.8465 79.3048 29.1345 79.3048 32.9V40.2324H76.6292V33.2468C76.6292 30.8436 75.6136 30.0262 74.0531 30.0262C72.344 30.0262 71.0312 31.4876 71.0312 33.9156V40.2324H68.3555V28.1437ZM87.4575 38.3742C89.3647 38.3742 90.7771 36.8385 90.7771 34.1881V33.99C90.7028 31.463 89.3152 30.001 87.4575 30.001C85.575 30.001 84.1626 31.6363 84.1626 34.2867C84.1626 36.9376 85.575 38.3742 87.4575 38.3742ZM84.2369 41.7181C84.2617 43.0562 85.5249 43.8736 87.2841 43.8736C89.439 43.8736 90.9005 42.7838 90.9005 39.6127V38.4243H90.8014C90.0588 39.8857 88.5721 40.5297 86.7887 40.5297C83.7415 40.5297 81.3884 38.2999 81.3884 34.2867C81.3884 30.274 83.8901 27.8466 86.9868 27.8466C88.7207 27.8466 90.0588 28.4906 90.8014 29.952H90.9005V28.1438H93.4523V39.6127C93.4523 44.1709 90.8261 45.8805 87.2841 45.8805C84.0635 45.8805 81.7599 44.4929 81.7104 41.7181H84.2369ZM102.571 38.3742C104.478 38.3742 105.866 36.7394 105.866 34.0885C105.866 31.4387 104.478 30.001 102.571 30.001C100.738 30.001 99.3253 31.463 99.2515 33.99V34.1881C99.2515 36.8385 100.688 38.3742 102.571 38.3742ZM96.5759 22.0995H99.2515V25.8898C99.2515 26.7072 99.2515 28.3662 99.1519 29.952H99.2515C99.9946 28.4906 101.481 27.8466 103.264 27.8466C106.311 27.8466 108.665 30.0758 108.665 34.0885C108.665 38.1023 106.163 40.5297 103.066 40.5297C101.332 40.5297 99.9946 39.8857 99.2515 38.4243H99.1519V40.2325H96.5759V22.0995ZM116.937 38.3742C118.968 38.3742 120.331 36.7147 120.331 34.1881C120.331 31.562 118.968 30.001 116.937 30.001C114.905 30.001 113.543 31.6611 113.543 34.1881C113.543 36.7147 114.905 38.3742 116.937 38.3742ZM116.937 27.8466C120.702 27.8466 123.105 30.2492 123.105 34.1881C123.105 38.1023 120.528 40.5297 116.937 40.5297C113.196 40.5297 110.769 38.1271 110.769 34.1881C110.769 30.274 113.369 27.8466 116.937 27.8466ZM133.161 34.1633C132.913 34.4605 132.492 34.6339 131.922 34.733L129.841 35.0798C128.43 35.3027 127.884 35.9219 127.884 36.8632C127.884 37.854 128.578 38.5227 129.941 38.5227C131.65 38.5227 133.161 37.4576 133.161 35.2779V34.1633ZM129.247 33.4444L131.6 33.0486C132.789 32.85 133.161 32.7013 133.161 32.2312C133.161 30.7693 132.442 29.8528 130.783 29.8528C129.172 29.8528 128.33 30.7198 128.231 31.983H125.68C125.828 29.4813 127.76 27.8465 130.783 27.8465C134.176 27.8465 135.836 29.4565 135.836 32.2808V40.2324H133.285V38.7209H133.161C132.442 39.8856 131.055 40.5296 129.297 40.5296C126.646 40.5296 125.209 39.1668 125.209 37.1356C125.209 35.1045 126.398 33.9156 129.247 33.4444ZM146.654 28.6587C146.196 29.2568 145.818 29.9344 145.528 30.6774C145.025 30.438 144.58 30.324 144.138 30.324C142.329 30.324 141.462 32.0826 141.462 34.188V40.2324H138.787V28.1437H141.363V29.9024H141.438C142.032 28.6143 143.097 27.8465 144.633 27.8465C145.78 27.8465 146.397 28.3677 146.654 28.6587ZM153.005 38.3742C154.912 38.3742 156.325 36.8385 156.325 34.1881C156.325 31.5373 154.912 30.001 153.005 30.001C151.123 30.001 149.71 31.6363 149.71 34.2867C149.71 36.9376 151.123 38.3742 153.005 38.3742ZM152.535 27.8466C154.268 27.8466 155.607 28.4906 156.349 29.952H156.448C156.325 28.3662 156.325 26.7072 156.325 25.8898V22.0995H159V40.2325H156.448V38.4243H156.349C155.607 39.8857 154.12 40.5297 152.336 40.5297C149.289 40.5297 146.936 38.2999 146.936 34.2867C146.936 30.274 149.438 27.8466 152.535 27.8466Z" fill="white"/>
</svg>
