<svg width="170" height="64" viewBox="0 0 170 64" fill="none" xmlns="http://www.w3.org/2000/svg">
<path fill-rule="evenodd" clip-rule="evenodd" d="M76.3214 43.7348H74.6599V52.0099H76.2491V51.3494H76.2732C76.4576 51.6428 76.6621 51.8474 76.8869 51.9635C77.1196 52.0795 77.4047 52.1368 77.7417 52.1368C78.4235 52.1368 78.925 51.8858 79.2465 51.3838C79.5671 50.8815 79.7276 50.0513 79.7276 48.8921C79.7276 47.7331 79.5671 46.8987 79.2465 46.3888C78.925 45.8712 78.4235 45.6123 77.7417 45.6123C77.4288 45.6123 77.16 45.6741 76.9351 45.7978C76.7186 45.9214 76.5217 46.1068 76.3454 46.3541H76.3214V43.7348ZM76.4776 50.4335C76.3733 50.0857 76.3214 49.5721 76.3214 48.8921C76.3214 48.2122 76.3733 47.7023 76.4776 47.3623C76.5902 47.0146 76.8308 46.8408 77.1998 46.8408C77.561 46.8408 77.7937 47.0146 77.8979 47.3623C78.0108 47.7023 78.0668 48.2122 78.0668 48.8921C78.0668 49.5721 78.0108 50.0857 77.8979 50.4335C77.7937 50.7734 77.561 50.9435 77.1998 50.9435C76.8308 50.9435 76.5902 50.7734 76.4776 50.4335Z" fill="white"/>
<path d="M122.799 44.0918V45.7752H123.416V46.8111H122.799V49.6834C122.799 49.8127 122.798 50.0256 122.797 50.2094C122.796 50.3499 122.796 50.474 122.796 50.5308C122.796 50.8554 123.112 50.8278 123.376 50.805C123.389 50.8038 123.402 50.8026 123.416 50.8018C123.414 50.9859 123.414 51.1685 123.415 51.351C123.416 51.5375 123.416 51.7245 123.414 51.913C123.388 51.9146 123.363 51.9166 123.337 51.919H123.336C122.597 51.9735 121.871 52.0279 121.516 51.5668C121.326 51.319 121.335 50.8506 121.343 50.4023C121.345 50.3103 121.347 50.219 121.347 50.1309V46.8111L121.325 46.8107C121.134 46.8069 120.944 46.8032 120.754 46.7993V45.775H121.335V44.0918H122.799Z" fill="white"/>
<path fill-rule="evenodd" clip-rule="evenodd" d="M92.8019 44.3502C92.6118 44.116 92.2855 43.9271 91.9557 43.8323C91.6579 43.7466 91.2644 43.7527 90.8793 43.7587C90.782 43.7602 90.6856 43.7617 90.5907 43.7617H88.1709L88.1589 51.8846L89.7317 51.8966V48.4828L89.7885 48.4832C91.1439 48.4936 91.8248 48.4989 92.464 48.05C93.1089 47.5969 93.3127 46.8345 93.3131 46.0453C93.3135 45.4134 93.1626 44.7941 92.8019 44.3502ZM91.6431 46.5878C91.4269 47.3211 90.8237 47.3113 89.9178 47.2966C89.8574 47.2956 89.7953 47.2946 89.7317 47.2938V44.9513C89.8469 44.9524 89.965 44.951 90.0835 44.9496C90.6744 44.9428 91.2736 44.936 91.5102 45.2338C91.6427 45.4006 91.6815 45.5763 91.6987 45.8459C91.7139 46.0895 91.6975 46.4032 91.6431 46.5878Z" fill="white"/>
<path fill-rule="evenodd" clip-rule="evenodd" d="M104.759 51.8966H103.307V45.7752H104.759C104.761 45.8792 104.761 45.9861 104.76 46.093C104.759 46.1998 104.759 46.3071 104.761 46.4109C104.765 46.4089 104.772 46.4039 104.779 46.3989C104.785 46.3941 104.791 46.3893 104.795 46.3873C104.954 46.0403 105.251 45.8004 105.631 45.6884C105.982 45.5853 106.407 45.592 106.823 45.6999C107.238 45.8573 107.478 46.1383 107.508 46.4015C107.512 46.3996 107.518 46.3971 107.524 46.3947C107.531 46.3921 107.537 46.3894 107.542 46.3873C107.861 45.8187 108.316 45.6218 108.973 45.61C110.426 45.658 110.529 46.6267 110.53 46.9716C110.538 45.4726 110.518 51.8966 110.518 51.8966L109.066 51.8846V47.9412C109.066 47.907 109.066 47.8725 109.067 47.838C109.069 47.273 109.072 46.6931 108.376 46.6934C107.639 46.7187 107.643 47.3085 107.649 48.0864C107.65 48.1582 107.651 48.2315 107.651 48.3062L107.649 48.8247C107.645 49.8487 107.642 50.8727 107.639 51.8966L106.186 51.8846V48.4357C106.186 48.3303 106.191 48.214 106.195 48.0934C106.21 47.6751 106.227 47.2052 106.078 46.9641C105.963 46.7786 105.667 46.6375 105.303 46.7052C104.754 46.8076 104.756 47.3916 104.759 48.019C104.759 48.0596 104.759 48.1005 104.759 48.1414L104.759 51.8966ZM110.53 47.0039C110.53 46.9939 110.53 46.9831 110.53 46.9716V47.0039Z" fill="white"/>
<path d="M120.403 51.8966H118.951V48.0708C118.951 48.0298 118.951 47.989 118.952 47.9483C118.954 47.3498 118.957 46.8067 118.341 46.804C117.619 46.801 117.625 47.4802 117.631 48.096V48.0967C117.632 48.1515 117.633 48.2058 117.633 48.2591C117.631 48.869 117.629 49.479 117.627 50.0893C117.624 50.6921 117.622 51.2942 117.62 51.8966L116.168 51.8846V45.7752H117.632V46.3992C117.64 46.3953 117.648 46.3915 117.656 46.3875L117.656 46.3873C117.975 45.4117 119.715 45.3724 120.197 46.2108C120.418 46.5936 120.412 47.171 120.405 47.7671C120.404 47.868 120.403 47.9696 120.403 48.0708V51.8966Z" fill="white"/>
<path d="M132.696 47.647H131.244C131.246 47.2086 131.248 46.6883 130.592 46.6883C130.185 46.6883 129.964 46.8975 129.96 47.1704C129.96 47.1757 129.96 47.1811 129.96 47.1865C129.96 47.1925 129.96 47.1985 129.96 47.2046C129.958 47.2783 129.956 47.3559 129.998 47.435C130.116 47.656 130.371 47.8132 130.597 47.9523C130.65 47.9846 130.701 48.0161 130.748 48.0471C130.854 48.1167 130.97 48.196 131.091 48.2787C131.223 48.3685 131.36 48.4624 131.496 48.5517C132.437 49.1683 132.702 49.5577 132.702 50.2754C132.702 50.7562 132.581 51.0888 132.49 51.2493C132.01 52.0955 130.476 52.1652 129.78 51.9671C128.98 51.7393 128.358 51.0628 128.485 49.8715H129.937C129.896 50.287 129.904 50.6997 130.152 50.8843C130.248 50.9555 130.384 50.9715 130.562 50.9715C130.987 50.9715 131.362 50.7354 131.196 50.1898C131.119 49.9404 130.886 49.8039 130.665 49.6742C130.597 49.6342 130.53 49.5953 130.47 49.5541C130.362 49.4806 130.251 49.4082 130.14 49.3354C129.523 48.9334 128.881 48.5153 128.619 47.7882C128.471 47.3806 128.456 46.7775 128.679 46.3874C129.106 45.6419 130.658 45.4018 131.765 45.7987C132.266 45.9791 132.728 46.6038 132.696 47.647Z" fill="white"/>
<path d="M101.432 45.7752H102.92C102.707 46.632 102.494 47.489 102.28 48.3459L102.252 48.4586C102.039 49.3144 101.826 50.1702 101.613 51.0252C101.565 51.2521 101.5 51.4999 101.433 51.7549L101.433 51.7553C101.386 51.935 101.338 52.118 101.294 52.3009C101.168 52.8281 101.042 53.3208 100.808 53.5666C100.507 53.9369 99.9899 54.0922 98.9636 53.9449C98.9676 53.5798 98.9716 53.2148 98.9756 52.8501C99.0176 52.8513 99.0628 52.8541 99.1101 52.8565C99.3987 52.8725 99.7597 52.8921 99.8222 52.6852C99.8942 52.415 99.5596 51.2281 99.4435 50.8146C99.4391 50.8002 99.4355 50.7866 99.4319 50.7738C99.4287 50.7626 99.4259 50.7526 99.4231 50.743C99.2714 50.1385 99.1193 49.5341 98.9672 48.9299L98.9419 48.8289C98.687 47.8148 98.432 46.8008 98.1774 45.7869V45.775H99.7137C99.7597 46.0075 99.8062 46.24 99.8522 46.4726C99.9066 46.7463 99.9615 47.02 100.016 47.2937C100.235 48.3836 100.448 49.5037 100.56 50.6369L100.568 50.6333C100.573 50.6305 100.579 50.6281 100.584 50.6253C100.634 49.9952 100.699 49.5493 100.802 49.0831C100.873 48.7107 100.944 48.3382 101.015 47.9657C101.154 47.2355 101.293 46.5053 101.432 45.7752Z" fill="white"/>
<path d="M123.815 45.7752H125.279V49.5657C125.279 49.6446 125.278 49.723 125.277 49.8003C125.268 50.3867 125.259 50.9099 125.787 50.9663C126.318 51.0232 126.447 50.6277 126.513 50.2834V50.2782C126.517 50.1189 126.521 49.96 126.525 49.8011C126.527 49.1872 126.529 48.5732 126.531 47.9592L126.532 47.7896C126.534 47.1181 126.536 46.4465 126.538 45.775H127.989V51.8966L126.598 51.8846V50.9783C126.59 50.9819 126.582 50.9863 126.573 50.9899C126.449 51.4147 126.185 51.7617 125.916 51.889C125.171 52.2441 124.258 52.0031 124.021 51.5552C123.808 51.1545 123.812 50.4968 123.814 49.8763C123.815 49.8075 123.815 49.739 123.815 49.6718V45.7752Z" fill="white"/>
<path fill-rule="evenodd" clip-rule="evenodd" d="M115.527 49.13C115.528 49.0275 115.528 48.9238 115.53 48.8199C115.539 47.6918 115.55 46.5263 114.91 46.0342C114.492 45.7125 113.907 45.6145 113.328 45.6132C112.38 45.6108 111.792 45.9307 111.462 46.4463C111.157 46.9218 111.163 47.4884 111.17 48.1595C111.171 48.2609 111.172 48.3648 111.172 48.471C111.172 48.5979 111.171 48.7215 111.17 48.8416C111.164 50.2374 111.159 51.1801 112.103 51.7789C112.304 51.9062 112.586 51.9807 112.853 52.0143C114.823 52.2633 115.532 51.3986 115.503 49.8131H114.051C114.062 50.4327 114.013 50.861 113.47 50.9547C113.288 50.9867 113.057 50.9471 112.938 50.8727C112.58 50.6485 112.6 49.9692 112.617 49.3654C112.62 49.2855 112.622 49.2065 112.623 49.1304L115.527 49.13ZM112.986 46.7404C113.13 46.6837 113.41 46.6821 113.57 46.7098C114.088 46.7994 114.083 47.2293 114.077 47.8152V47.8157C114.076 47.8867 114.075 47.9601 114.075 48.0354H112.623C112.623 48.0057 112.622 47.976 112.622 47.9463C112.611 47.4129 112.601 46.8925 112.986 46.7404Z" fill="white"/>
<path fill-rule="evenodd" clip-rule="evenodd" d="M97.9224 49.6045V49.5969C97.922 49.116 97.9212 48.6343 97.9212 48.1059C97.9212 47.9864 97.9232 47.8687 97.9248 47.7535C97.9344 47.132 97.9432 46.5852 97.6578 46.2272C97.2303 45.6571 96.1619 45.4705 94.8498 45.7162C94.0172 45.9628 93.6381 46.5133 93.6521 47.5879H95.0435C94.9967 47.2103 95.1304 46.8389 95.4182 46.7404C95.696 46.6777 96.1931 46.6636 96.3521 46.8037C96.513 46.9354 96.5258 47.2384 96.4834 47.4585C96.3777 47.8045 95.9165 47.9812 95.5235 48.1318C95.4438 48.1622 95.3673 48.1914 95.2973 48.2208C94.5864 48.5186 93.9127 48.8424 93.6761 49.6009C93.6057 49.8267 93.5909 50.1778 93.6157 50.4604C93.6973 51.4022 93.9603 51.8574 94.865 52.0259C95.0207 52.0551 95.3894 52.0587 95.5615 52.0199C96.0855 51.901 96.3681 51.5331 96.5134 51.3442C96.5398 51.3098 96.5618 51.281 96.5798 51.2605C96.5734 51.4859 96.575 51.7349 96.6735 51.8854C96.7676 51.8886 97.8507 51.8854 98.0437 51.883C98.0341 51.8293 98.0229 51.7777 98.0109 51.7233C97.9772 51.5704 97.9384 51.3958 97.9236 51.0956C97.9236 50.5672 97.9228 50.0857 97.9224 49.6045ZM96.4709 49.5657C96.4709 50.3203 96.3437 51.293 95.4062 50.9195C95.0611 50.7822 94.9562 50.1045 95.1284 49.6834C95.2501 49.3843 95.5615 49.2234 95.8693 49.0641C96.0859 48.9522 96.3012 48.8409 96.4469 48.6828C96.4958 48.7364 96.4826 49.1563 96.4749 49.4082C96.4729 49.4765 96.4709 49.5329 96.4709 49.5657Z" fill="white"/>
<path d="M84.7028 45.7752H83.2145C83.0748 46.5086 82.9355 47.2422 82.7962 47.9756C82.7258 48.3448 82.6557 48.714 82.5853 49.0831C82.4816 49.5493 82.4168 49.9952 82.3675 50.6253C82.3595 50.6289 82.3515 50.6329 82.3431 50.6369C82.2314 49.5037 82.0181 48.3836 81.7987 47.2937C81.7443 47.0187 81.6894 46.7438 81.6346 46.4689L81.6326 46.4581C81.5874 46.2304 81.5421 46.0027 81.4961 45.775H79.9598V45.7869C80.2148 46.8003 80.4698 47.8139 80.7247 48.8276C80.8849 49.466 81.0458 50.1045 81.2063 50.743C81.2115 50.7626 81.2183 50.7866 81.2263 50.8138L81.2267 50.8146C81.3428 51.2281 81.677 52.415 81.6054 52.6852C81.5429 52.8921 81.1815 52.8725 80.8929 52.8565C80.8456 52.8541 80.8 52.8513 80.7588 52.8501C80.7544 53.2148 80.7504 53.5798 80.7468 53.9449C81.7727 54.0922 82.2903 53.9369 82.5909 53.5666C82.8247 53.3208 82.9504 52.8281 83.0772 52.3009C83.1217 52.118 83.1693 51.9346 83.2161 51.7549C83.283 51.4999 83.3474 51.2521 83.3963 51.0252C83.6096 50.1673 83.8234 49.3086 84.0371 48.4502C84.2589 47.5585 84.4807 46.6667 84.7028 45.7752Z" fill="white"/>
<path d="M122.25 25.7527V32.6913C122.25 32.6978 122.25 32.7045 122.25 32.711C122.25 38.2568 126.125 40.3783 130.52 40.6856C131.166 40.7307 131.691 40.2022 131.691 39.555V36.0347C131.691 35.3876 131.164 34.879 130.52 34.8133C128.689 34.6266 128.305 33.867 128.228 31.8032C128.228 31.8032 128.224 29.4023 128.228 29.1221C128.229 29.1204 128.229 29.1188 128.228 29.1172C128.228 29.1156 128.228 29.1139 128.228 29.1123V28.6095C128.23 28.5869 128.231 28.5641 128.231 28.5412V25.7527H131.708C132.257 25.7527 132.702 25.3081 132.702 24.7597V20.7874C132.702 20.239 132.257 19.7944 131.708 19.7944H128.231V14.2349C128.231 13.6864 127.786 13.2418 127.237 13.2418H123.263C122.714 13.2418 122.269 13.6864 122.269 14.2349V19.6657C122.261 19.7077 122.255 19.7506 122.252 19.7944H119.964C119.416 19.7944 118.97 20.239 118.97 20.7874V24.7597C118.97 25.3081 119.416 25.7527 119.964 25.7527H122.25Z" fill="white"/>
<path d="M112.956 16.7616C114.602 16.7616 115.937 15.4278 115.937 13.7824C115.937 12.1371 114.602 10.8033 112.956 10.8033C111.31 10.8033 109.975 12.1371 109.975 13.7824C109.975 15.4278 111.31 16.7616 112.956 16.7616Z" fill="white"/>
<path d="M110.969 19.7945C110.42 19.7945 109.975 20.2391 109.975 20.7875V39.5176C109.975 40.066 110.42 40.5107 110.969 40.5107L114.943 40.5106C115.492 40.5106 115.937 40.066 115.937 39.5176V20.7875C115.937 20.2391 115.492 19.7945 114.943 19.7945H110.969Z" fill="white"/>
<path d="M102.328 19.7933H105.752C106.301 19.7933 106.746 20.2379 106.746 20.7864V24.7587C106.746 25.3071 106.301 25.7517 105.752 25.7517H102.075V39.5165C102.075 40.065 101.63 40.5096 101.081 40.5096H97.1122C96.5618 40.5096 96.1159 40.0618 96.1187 39.5114L96.22 19.7933C96.22 15.2389 100.726 11.2807 105.667 10.8041C106.214 10.7514 106.66 11.2006 106.66 11.7491V15.7213C106.66 16.2698 106.209 16.7032 105.673 16.8207C104.11 17.1632 102.845 18.3036 102.328 19.7933Z" fill="white"/>
<path fill-rule="evenodd" clip-rule="evenodd" d="M83.516 34.5522C86.0538 34.5522 88.1113 32.4959 88.1113 29.9594C88.1113 27.4227 86.0538 25.3664 83.516 25.3664C80.9781 25.3664 78.9206 27.4227 78.9206 29.9594C78.9206 32.4959 80.9781 34.5522 83.516 34.5522ZM83.516 40.5106C89.3462 40.5106 94.0728 35.7867 94.0728 29.9594C94.0728 24.132 89.3462 19.408 83.516 19.408C77.6857 19.408 72.9592 24.132 72.9592 29.9594C72.9592 35.7867 77.6857 40.5106 83.516 40.5106Z" fill="white"/>
<path d="M69.8803 19.3989C70.6297 19.3989 71.2349 19.4573 71.8525 19.5936C72.4565 19.7269 72.8367 20.3054 72.8011 20.9225L72.5984 24.4388C72.5613 25.081 71.9192 25.5224 71.2866 25.4043C70.8587 25.3245 70.3647 25.2605 69.8803 25.2605C67.4405 25.2605 65.4927 27.1519 65.4034 29.5686C65.4034 29.5686 65.3993 30.0827 65.4034 30.3597C65.4038 30.3629 65.4029 30.3661 65.4034 30.3693L65.4033 39.5125C65.4033 40.0609 64.9584 40.5056 64.4097 40.5056H60.4886C59.9398 40.5056 59.495 40.0609 59.495 39.5125V29.7982C59.495 29.7917 59.495 29.7852 59.495 29.7788C59.495 24.0461 64.1447 19.3989 69.8803 19.3989Z" fill="white"/>
<path d="M51.0882 15.4125C50.8927 15.7971 51.0509 16.2627 51.4006 16.5156C52.4587 17.2804 53.2058 18.4487 53.416 19.7946C53.4826 20.2209 53.8261 20.5728 54.2578 20.5728C55.5419 20.5728 58.0841 20.5729 59.3759 20.5729C59.8075 20.5728 60.1586 20.2222 60.1295 19.7918C59.8473 15.6131 57.33 12.2435 54.402 10.569C54.0346 10.3588 53.5756 10.5175 53.3839 10.8948L51.0882 15.4125Z" fill="white"/>
<path d="M50.6193 10.1966C51.214 10.3128 51.4901 10.974 51.2132 11.5128L49.4897 14.8663C49.3177 15.2011 48.955 15.386 48.5785 15.386C45.7125 15.386 43.389 17.7082 43.389 20.5728C43.389 23.4375 45.7125 25.7597 48.5785 25.7597C50.5294 25.7597 52.2289 24.6837 53.1153 23.0931C53.3552 22.6628 53.7842 22.3478 54.277 22.3478H57.8527C58.4573 22.3478 58.9193 22.8933 58.7537 23.4745C57.492 27.9031 53.4142 31.1461 48.5785 31.1461C46.9241 31.1461 45.3584 30.7665 43.9638 30.0897V39.5172C43.9638 40.0656 43.5189 40.5102 42.9702 40.5102H38.9959C38.4471 40.5102 38.0023 40.0656 38.0023 39.5172L38.0023 20.7952C38.0008 20.7213 38 20.6472 38 20.573C38 20.4915 38.0009 20.4102 38.0028 20.3291C38.0024 20.2914 38.0023 20.2537 38.0023 20.2159C38.0035 20.216 38.0047 20.2161 38.0059 20.2161C38.1942 14.5421 42.8556 10 48.5785 10C49.2766 10 49.9589 10.0676 50.6193 10.1966Z" fill="white"/>
</svg>
