<svg width="170" height="64" viewBox="0 0 170 64" fill="none" xmlns="http://www.w3.org/2000/svg">
<path d="M17.4958 18C11.7029 18 7 22.7023 7 28.4952C7 34.2965 11.7029 38.9909 17.4958 38.9909C23.2971 38.9909 27.9916 34.2965 27.9916 28.4952C27.9916 22.7023 23.2971 18 17.4958 18ZM17.4958 31.9992C15.565 31.9992 14.0002 30.4259 14.0002 28.4952C14.0002 26.5644 15.565 24.9996 17.4958 24.9996C19.4265 24.9996 20.9998 26.5644 20.9998 28.4952C20.9998 30.4265 19.4265 31.9992 17.4958 31.9992Z" fill="white"/>
<path d="M10.4962 38.9909C8.56543 38.9909 7.0006 40.5558 7.0006 42.495C7.0006 44.4257 8.56543 45.9905 10.4962 45.9905C12.4354 45.9905 14.0002 44.4257 14.0002 42.495C14.0002 40.5558 12.4354 38.9909 10.4962 38.9909Z" fill="white"/>
<path d="M128.94 24.0426C124.121 24.0426 120.242 27.921 120.242 32.7407C120.242 37.5682 124.121 41.4465 128.94 41.4465C133.768 41.4465 137.646 37.5682 137.646 32.7407C137.646 27.921 133.768 24.0426 128.94 24.0426ZM128.94 38.6912C125.695 38.6912 123.247 36.0111 123.247 32.7401C123.247 29.4774 125.695 26.7973 128.94 26.7973C132.211 26.7973 134.675 29.4774 134.675 32.7401C134.675 36.0111 132.211 38.6912 128.94 38.6912Z" fill="white"/>
<path d="M159.539 34.2718L157.367 33.9305C156.118 33.6976 155.719 33.1565 155.719 32.5902C155.719 31.9077 156.443 31.3419 157.808 31.3419C159.14 31.3419 160.213 31.8662 160.321 33.0398L162.943 33.0229C162.676 29.8517 159.797 29.1524 157.807 29.1524C154.91 29.1524 152.913 30.5589 152.913 32.8977C152.913 35.0036 154.594 35.9191 156.359 36.2435L158.889 36.6593C159.796 36.8261 160.287 37.275 160.287 37.8913C160.287 38.6738 159.338 39.1649 157.965 39.1649C156.375 39.1649 155.343 38.5654 155.102 37.192L152.496 37.1667C152.771 40.371 155.226 41.4784 157.89 41.4784C160.811 41.4784 163 40.1218 163 37.6416C163.001 35.3786 161.312 34.5962 159.539 34.2718Z" fill="white"/>
<path d="M43.8378 24.4784H37.6038V41.1865H40.5589V36.1857H43.4045C47.641 36.1857 50.4462 33.8361 50.4462 30.199C50.4462 26.7366 47.8083 24.4784 43.8378 24.4784ZM43.7295 33.5712H40.5589V27.0929H43.7295C45.9937 27.0929 47.5164 28.3513 47.5164 30.1822C47.517 32.1882 45.9937 33.5712 43.7295 33.5712Z" fill="white"/>
<path d="M118.643 29.2445C117.733 29.1614 115.915 29.0699 114.551 30.2935V29.4798H111.595V41.1871H114.551V34.2892C114.551 33.4569 114.921 32.6955 115.578 32.279C116.202 31.9709 116.913 31.8674 117.687 31.8674H118.642V29.1747V29.2445H118.643Z" fill="white"/>
<path d="M104.222 29.203C100.51 29.203 98.0464 31.8331 98.0464 35.304C98.0464 38.7334 100.51 41.4273 104.222 41.4273C106.869 41.4273 109.016 40.0502 109.674 38.0039H106.652C106.237 38.5721 105.42 39.0794 104.297 39.0794C102.324 39.0794 101.25 38.0039 100.909 36.5264H109.831C109.89 35.9582 109.89 35.5778 109.89 35.1619C109.874 31.6748 107.443 29.203 104.222 29.203ZM100.876 34.14C101.201 32.6624 102.25 31.4599 104.064 31.4599C105.762 31.4599 106.794 32.6624 107.027 34.14H100.876Z" fill="white"/>
<path d="M145.624 29.203C144.226 29.203 142.966 29.6026 142.057 30.2935V29.4798H139.215V46.188H142.057V40.2898C142.966 40.9891 144.226 41.3719 145.624 41.3719C148.862 41.3719 151.467 38.675 151.467 35.304C151.467 31.9077 148.862 29.203 145.624 29.203ZM145.353 38.9241C140.92 38.9241 140.92 31.6664 145.353 31.6664C147.399 31.6664 148.79 33.3558 148.79 35.3034C148.791 37.2101 147.399 38.9241 145.353 38.9241Z" fill="white"/>
<path d="M65.3536 29.203C61.8165 29.203 59.1611 31.7915 59.1611 35.304C59.1611 38.8411 61.8165 41.4796 65.3536 41.4796C68.866 41.4796 71.513 38.8411 71.513 35.304C71.5124 31.7915 68.866 29.203 65.3536 29.203ZM65.3536 38.891C63.3392 38.891 61.9826 37.2847 61.9826 35.304C61.9826 33.3317 63.3392 31.7915 65.3536 31.7915C67.3427 31.7915 68.6993 33.3311 68.6993 35.304C68.6993 37.2847 67.3427 38.891 65.3536 38.891Z" fill="white"/>
<path d="M54.8807 30.2935V29.4798H51.9256V41.1871H54.8807V34.3639C54.8807 31.7837 57.2677 31.942 58.9727 31.942V29.2451C58.404 29.1614 56.6989 29.0699 54.8807 30.2935Z" fill="white"/>
<path d="M79.6784 34.2718L77.5225 33.9305C76.2574 33.6976 75.8746 33.1565 75.8746 32.5902C75.8746 31.9077 76.5824 31.3419 77.9553 31.3419C79.2787 31.3419 80.3771 31.8662 80.4686 33.0398L83.0987 33.0229C82.8243 29.8517 79.9606 29.1524 77.9553 29.1524C75.0585 29.1524 73.0694 30.5589 73.0694 32.8977C73.0694 35.0036 74.7341 35.9191 76.5066 36.2435L79.0368 36.6593C79.9606 36.8261 80.4349 37.275 80.4349 37.8913C80.4349 38.6738 79.478 39.1649 78.113 39.1649C76.5397 39.1649 75.5075 38.5654 75.2583 37.192L72.6529 37.1667C72.9195 40.371 75.3829 41.4784 78.0299 41.4784C80.9597 41.4784 83.1487 40.1218 83.1487 37.6416C83.1487 35.3786 81.4508 34.5962 79.6784 34.2718Z" fill="white"/>
<path d="M91.234 29.203C89.8275 29.203 88.6406 29.6026 87.7312 30.2935V29.4798H84.8899V46.188H87.7312V40.2898C88.6406 40.9891 89.8275 41.3719 91.234 41.3719C94.4636 41.3719 97.0684 38.675 97.0684 35.304C97.0684 31.9077 94.463 29.203 91.234 29.203ZM90.6863 38.9241C86.3674 38.9241 86.3674 31.6664 90.6863 31.6664C92.7321 31.6664 94.1236 33.3558 94.1236 35.3034C94.1236 37.2101 92.7321 38.9241 90.6863 38.9241Z" fill="white"/>
</svg>
