<svg width="170" height="64" viewBox="0 0 170 64" fill="none" xmlns="http://www.w3.org/2000/svg">
<path d="M51.3356 36.9008C51.5508 37.9004 52.1159 38.7902 52.9291 39.41C53.7423 40.0297 54.7502 40.3386 55.771 40.281C56.4593 40.3404 57.1518 40.2371 57.7927 39.9792C58.4336 39.7214 59.0048 39.3163 59.46 38.7968H63.4579C62.8525 40.3298 61.7823 41.6348 60.3976 42.5287C59.0129 43.4226 57.383 43.8606 55.7367 43.7812C54.6889 43.8344 53.6409 43.6806 52.6525 43.3286C51.6642 42.9767 50.7548 42.4334 49.9765 41.73C49.1981 41.0265 48.566 40.1766 48.1162 39.2287C47.6664 38.2809 47.4077 37.2537 47.355 36.2059C47.355 36.0172 47.355 35.8284 47.355 35.6397C47.3322 34.5893 47.5169 33.5448 47.8984 32.5659C48.28 31.587 48.8509 30.693 49.5785 29.9352C50.3061 29.1773 51.1761 28.5704 52.1386 28.1493C53.1011 27.7281 54.1372 27.501 55.1877 27.481H55.7453C56.8404 27.4325 57.9339 27.6092 58.958 28.0003C59.9821 28.3913 60.9151 28.9884 61.6992 29.7544C62.4795 30.5182 63.0928 31.4357 63.5004 32.4487C63.908 33.4617 64.1009 34.5483 64.067 35.6397V36.9523L51.3356 36.9008ZM51.43 33.8638H60.1635C59.8446 32.9653 59.2551 32.1876 58.4763 31.6376C57.6974 31.0876 56.7674 30.7924 55.8139 30.7924C54.8605 30.7924 53.9304 31.0876 53.1516 31.6376C52.3727 32.1876 51.7833 32.9653 51.4643 33.8638H51.43Z" fill="white"/>
<path d="M82.6236 35.5968C82.7674 37.6774 82.0791 39.73 80.7101 41.3033C79.341 42.8766 77.4033 43.842 75.3228 43.9871C74.9884 44.0043 74.6534 44.0043 74.319 43.9871C72.1998 44.0921 70.1255 43.3514 68.5522 41.9277C66.9789 40.504 66.0352 38.5138 65.9287 36.3946C65.9287 36.1887 65.9287 35.9914 65.9287 35.7941C65.7847 33.7658 66.4522 31.7633 67.7842 30.227C69.1163 28.6906 71.0039 27.7461 73.0322 27.6011H73.607C74.6232 27.5531 75.635 27.7641 76.5474 28.2143C77.4598 28.6645 78.2428 29.3391 78.823 30.1748V22.8826H82.5721L82.6236 35.5968ZM78.8745 35.7255C78.8509 34.8258 78.5623 33.9532 78.0449 33.2168C77.5276 32.4805 76.8044 31.9132 75.9661 31.5859C75.1278 31.2587 74.2115 31.1861 73.3321 31.3773C72.4527 31.5685 71.6493 32.0149 71.0225 32.6606C70.3956 33.3063 69.9733 34.1226 69.8083 35.0073C69.6433 35.892 69.743 36.8057 70.095 37.6339C70.447 38.4622 71.0355 39.1682 71.7869 39.6635C72.5383 40.1587 73.4191 40.4213 74.319 40.4182C74.9316 40.4432 75.5425 40.3384 76.1117 40.1107C76.681 39.8831 77.1956 39.5376 77.622 39.097C78.0551 38.654 78.3903 38.125 78.6061 37.5442C78.8219 36.9634 78.9133 36.3438 78.8745 35.7255Z" fill="white"/>
<path d="M85.7378 43.2922V22.8826H92.9871C100.151 22.8826 103.9 26.9834 103.9 33.0917C103.9 39.2 100.151 43.3008 92.9871 43.3008L85.7378 43.2922ZM92.9871 39.5861C97.697 39.5861 99.8504 37.0123 99.8504 33.0488C99.8504 29.0853 97.7228 26.563 92.9871 26.563H89.7442V39.5861H92.9871Z" fill="white"/>
<path d="M113.997 43.7812C111.874 43.8815 109.797 43.1345 108.224 41.7044C106.65 40.2743 105.709 38.2781 105.607 36.1544C105.607 35.9743 105.607 35.8027 105.607 35.6225C105.677 33.4268 106.598 31.3444 108.176 29.816C109.754 28.2875 111.865 27.4329 114.062 27.4329C116.258 27.4329 118.369 28.2875 119.947 29.816C121.525 31.3444 122.446 33.4268 122.516 35.6225C122.536 36.6767 122.347 37.7243 121.961 38.7054C121.575 39.6866 121 40.5821 120.267 41.3406C119.535 42.0992 118.661 42.7059 117.694 43.1262C116.727 43.5464 115.686 43.7719 114.632 43.7898C114.418 43.7984 114.203 43.7898 113.997 43.7812ZM118.613 35.6225C118.608 34.7025 118.33 33.8047 117.814 33.0427C117.299 32.2807 116.569 31.6888 115.717 31.3418C114.865 30.9949 113.929 30.9085 113.027 31.0936C112.126 31.2787 111.3 31.727 110.654 32.3817C110.008 33.0365 109.57 33.8682 109.397 34.7718C109.223 35.6753 109.322 36.6099 109.68 37.4575C110.037 38.305 110.639 39.0273 111.407 39.5329C112.176 40.0386 113.077 40.3049 113.997 40.2981C114.623 40.3103 115.244 40.1923 115.821 39.9515C116.399 39.7108 116.92 39.3526 117.352 38.8997C117.783 38.4639 118.118 37.9425 118.335 37.3691C118.553 36.7958 118.647 36.1832 118.613 35.571V35.6225Z" fill="white"/>
<path d="M132.357 43.7812C130.238 43.8841 128.164 43.1442 126.589 41.7233C125.013 40.3023 124.064 38.3157 123.949 36.1973C123.949 36.0086 123.949 35.8113 123.949 35.6225C124.019 33.4268 124.94 31.3444 126.518 29.816C128.096 28.2875 130.207 27.4329 132.404 27.4329C134.601 27.4329 136.711 28.2875 138.289 29.816C139.867 31.3444 140.788 33.4268 140.858 35.6225C140.877 36.6771 140.687 37.7249 140.3 38.7061C139.913 39.6873 139.337 40.5827 138.604 41.3411C137.871 42.0996 136.996 42.7062 136.028 43.1263C135.061 43.5465 134.02 43.7719 132.966 43.7898L132.357 43.7812ZM136.955 35.6225C136.946 34.7067 136.667 33.8139 136.151 33.057C135.635 32.3001 134.907 31.7131 134.058 31.37C133.208 31.027 132.276 30.9434 131.38 31.1298C130.483 31.3161 129.662 31.7641 129.019 32.4171C128.377 33.0701 127.943 33.8988 127.772 34.7985C127.6 35.6982 127.699 36.6285 128.056 37.4719C128.414 38.3153 129.013 39.0339 129.778 39.537C130.543 40.04 131.441 40.3049 132.357 40.2981C132.981 40.3112 133.601 40.1936 134.177 39.9527C134.754 39.7119 135.273 39.3532 135.702 38.8997C136.137 38.4667 136.474 37.9455 136.69 37.3713C136.906 36.7971 136.996 36.1832 136.955 35.571V35.6225Z" fill="white"/>
<path d="M149.686 27.4295C145.646 27.4295 142.892 29.6515 142.892 34.2928V43.3008H146.641V34.2928C146.641 31.822 147.885 30.9126 149.703 30.8611L149.686 27.4295Z" fill="white"/>
<path d="M41.015 39.6547C42.7553 38.1771 44.0003 36.201 44.5818 33.9933C45.1632 31.7856 45.0532 29.4527 44.2664 27.3095C43.4797 25.1664 42.0542 23.3163 40.1825 22.0091C38.3108 20.7019 36.083 20.0007 33.8 20H22.8445C22.3515 20.002 21.8795 20.1995 21.5319 20.5491C21.1902 20.9005 20.9993 21.3715 21 21.8617V43.7812C21 43.8222 21.0163 43.8615 21.0452 43.8904C21.0742 43.9194 21.1135 43.9356 21.1544 43.9356H24.5861C24.6228 43.9441 24.6609 43.9441 24.6976 43.9356C24.706 43.9183 24.7103 43.8992 24.7103 43.8799C24.7103 43.8606 24.706 43.8415 24.6976 43.8241V23.7405H33.7914C35.3085 23.7355 36.7908 24.1946 38.0395 25.0561C39.2882 25.9176 40.2436 27.1403 40.7776 28.5603C41.3116 29.9803 41.3987 31.5296 41.0271 33.0004C40.6555 34.4713 39.843 35.7933 38.6987 36.7893L36.0306 33.5121C35.4509 32.804 34.7016 32.254 33.8525 31.9129C33.0033 31.5719 32.0817 31.451 31.1733 31.5614C30.2649 31.6719 29.3992 32.0101 28.6565 32.5446C27.9137 33.0791 27.3181 33.7927 26.925 34.619C26.5318 35.4453 26.3538 36.3576 26.4075 37.2711C26.4612 38.1846 26.7449 39.0697 27.2322 39.8442C27.7195 40.6188 28.3946 41.2576 29.1949 41.7014C29.9951 42.1452 30.8946 42.3796 31.8096 42.3828H33.8C35.1624 42.3823 36.5127 42.1262 37.7807 41.6279L39.5995 43.8584C39.6187 43.8706 39.641 43.8771 39.6638 43.8771C39.6866 43.8771 39.7089 43.8706 39.7281 43.8584H44.1035C44.1317 43.8626 44.1605 43.8573 44.1853 43.8433C44.2101 43.8293 44.2296 43.8075 44.2407 43.7812C44.2618 43.7576 44.2735 43.7271 44.2735 43.6954C44.2735 43.6638 44.2618 43.6332 44.2407 43.6096L41.015 39.6547ZM33.0965 35.8627L35.2241 38.4365C34.7632 38.525 34.2951 38.5709 33.8257 38.5737H31.7839C31.3288 38.5737 30.8924 38.393 30.5706 38.0712C30.2489 37.7494 30.0681 37.313 30.0681 36.8579C30.0603 36.5079 30.1642 36.1646 30.3648 35.8777C30.5653 35.5907 30.852 35.3751 31.1834 35.2622C31.3767 35.1968 31.5798 35.1649 31.7839 35.1678C32.0428 35.1678 32.2977 35.2311 32.5265 35.3523C32.7553 35.4734 32.951 35.6486 33.0965 35.8627Z" fill="white"/>
</svg>
