<svg width="170" height="64" viewBox="0 0 170 64" fill="none" xmlns="http://www.w3.org/2000/svg">
<path d="M38 40.7438H47.7959L47.941 39.5828C46.0544 39.365 45.2926 38.7847 45.474 37.3696L46.0182 32.8708C46.1633 31.4923 46.7439 30.8753 48.3038 30.8753C50.372 30.8753 51.2426 31.8187 51.8958 34.5759C52.9478 38.8572 53.8187 40.7438 57.7369 40.7438H59.5873L59.7687 39.5464C58.1361 39.5464 57.7733 37.3696 57.229 34.9751C56.6123 32.1815 55.6689 31.0203 53.6734 30.3675C53.4557 30.2947 53.492 29.9683 53.746 29.9319C57.3741 29.4241 59.7324 26.9571 59.7324 23.5102C59.7324 20.0998 56.7576 18.2132 52.0046 18.2132H40.7575L40.6122 19.374C42.136 19.5918 42.898 20.1723 42.7166 21.5872L40.7936 37.3696C40.6122 38.7847 39.7052 39.365 38.145 39.5828L38 40.7438ZM48.3765 29.2426C46.9614 29.2426 46.5261 28.6259 46.7075 27.2108L47.3968 21.7325C47.5782 20.4263 48.086 19.7006 49.8278 19.7006H51.4241C54.0363 19.7006 54.9071 21.4785 54.9071 23.5827C54.9071 26.8118 53.0931 29.2426 49.9003 29.2426H48.3765ZM68.909 40.9615C72.1018 40.9615 74.2787 39.1836 75.2582 37.9865L74.569 37.0795C73.5167 38.1679 72.1018 38.6032 70.7956 38.6032C68.764 38.6032 67.4216 37.551 66.696 36.0272C66.1518 34.9024 66.4419 34.0681 67.4578 33.8867L69.0904 33.5964C74.0248 32.7257 76.2378 31.1656 76.2378 28.4807C76.2378 26.0137 74.3876 23.9819 70.7595 23.9819C64.8819 23.9819 61.6891 29.3515 61.6891 33.7778C61.6891 38.2404 64.9545 40.9615 68.909 40.9615ZM67.3853 32.7983C66.3693 32.9433 65.8251 32.508 65.8251 31.5284C65.8251 28.1906 67.3489 25.2881 70.1063 25.2881C71.594 25.2881 72.5371 26.0862 72.5371 28.3356C72.5371 29.7141 72.2107 32.0726 68.1109 32.6894L67.3853 32.7983Z" fill="white"/>
<path d="M76.5158 48C80.3617 48 83.4456 45.7142 83.9898 41.2155L85.695 27.4286C85.8403 26.3038 86.2392 26.0501 87.8357 26.086L90.1576 26.1587L90.3391 24.5625H88.0171C86.3845 24.5625 86.0578 24.3447 86.1667 23.4013L86.4206 21.0069C86.7109 18.4308 86.8923 17.2335 89.1417 17.2335C92.3709 17.2335 94.4389 19.5556 93.6044 26.0137L92.117 37.551C91.8267 39.8006 92.9151 40.9615 94.7292 40.9615C95.5635 40.9615 97.0147 40.7076 98.1031 39.6917L98.2846 38.6032C97.0874 39.22 96.0352 38.5669 96.2166 37.0795L97.7403 24.8889C98.5387 18.3583 94.475 16 90.1576 16C85.5861 16 82.72 18.5397 82.1394 23.2926C81.9944 24.4897 81.0148 24.78 79.2733 25.0703L79.1282 26.0862H80.9059C81.559 26.0862 81.813 26.304 81.6679 27.3561L79.9264 41.288C79.5636 44.0816 79.2008 46.7665 77.4592 46.7665C75.4637 46.7665 77.1328 43.356 74.3753 43.356C72.9966 43.356 72.4162 44.2268 72.4162 45.2789C72.4162 47.093 74.1214 48 76.5158 48ZM107.777 40.9615C110.969 40.9615 113.146 39.1836 114.126 37.9865L113.437 37.0795C112.385 38.1679 110.969 38.6032 109.663 38.6032C107.632 38.6032 106.289 37.551 105.564 36.0272C105.019 34.9024 105.31 34.0681 106.325 33.8867L107.958 33.5964C112.892 32.7257 115.106 31.1656 115.106 28.4807C115.106 26.0137 113.255 23.9819 109.627 23.9819C103.75 23.9819 100.557 29.3515 100.557 33.7778C100.557 38.2404 103.822 40.9615 107.777 40.9615ZM106.253 32.7983C105.237 32.9433 104.693 32.508 104.693 31.5284C104.693 28.1906 106.217 25.2881 108.974 25.2881C110.462 25.2881 111.405 26.0862 111.405 28.3356C111.405 29.7141 111.078 32.0726 106.979 32.6894L106.253 32.7983ZM117.697 40.889C119.511 40.889 120.6 39.6917 122.123 37.0795L123.248 35.1927L124.228 37.4059C125.135 39.4739 125.643 40.889 127.566 40.889C128.4 40.889 129.634 40.6349 130.867 39.6192L131.012 38.5307C129.634 39.22 128.799 38.5307 128.11 36.9704L125.57 31.2017L126.368 29.8594C128.255 26.6304 129.017 25.941 129.597 25.941C130.359 25.941 130.396 27.3197 131.484 27.3197C132.355 27.3197 132.863 26.6304 132.863 25.9412C132.863 25.0342 132.173 24.1271 130.613 24.1271C128.799 24.1271 127.711 25.3242 126.187 27.9364L124.99 29.9319L123.974 27.61C123.067 25.542 122.559 24.1269 120.636 24.1269C119.801 24.1269 118.568 24.381 117.334 25.3968L117.189 26.4852C118.568 25.7959 119.402 26.4852 120.092 28.0455L122.668 33.8867L121.942 35.1565C120.055 38.3855 119.293 39.0749 118.713 39.0749C117.951 39.0749 117.915 37.8413 116.826 37.8413C115.956 37.8413 115.448 38.5307 115.448 39.22C115.448 40.127 116.137 40.889 117.697 40.889Z" fill="white"/>
</svg>
