<svg width="170" height="64" viewBox="0 0 170 64" fill="none" xmlns="http://www.w3.org/2000/svg">
<path d="M100.549 43.6756C100.549 41.2912 100.549 38.909 100.547 36.5247C100.547 36.2473 100.535 36.0546 100.899 35.9296C101.28 35.7984 101.606 35.6607 101.911 35.9889C102.447 36.567 102.978 37.1515 103.478 37.7613C103.857 38.2251 104.145 38.7608 104.537 39.2118C105.333 40.1287 106.04 41.1134 106.777 42.0726C107.461 42.962 108.217 43.7921 108.931 44.6581C109.094 44.8551 109.191 44.7831 109.308 44.6327C109.805 43.9953 110.328 43.3791 110.794 42.7206C111.372 41.9011 112.06 41.1642 112.607 40.3193C112.918 39.8386 113.333 39.4215 113.714 38.9874C114.468 38.1255 115.146 37.2086 115.804 36.2748C116.242 35.6544 116.979 35.6057 117.479 36.1033C117.691 36.315 117.665 36.531 117.668 36.7661C117.67 38.5194 117.668 40.2706 117.668 42.0239C117.668 44.8275 117.672 47.6311 117.661 50.4348C117.661 50.6952 117.767 50.9726 117.505 51.214C117.178 51.5105 116.888 51.8556 116.448 51.9806C115.961 52.1182 115.15 51.4978 115.137 50.9726C115.118 50.2018 115.133 49.431 115.133 48.6603C115.133 46.206 115.133 43.7539 115.133 41.2997C115.133 41.2362 115.105 41.1705 115.093 41.107C115.019 41.1388 114.919 41.1515 114.872 41.2065C114.252 41.9646 113.587 42.6952 113.049 43.5083C112.854 43.8005 112.602 44.0165 112.406 44.2876C112.23 44.5311 112.05 44.7704 111.885 45.0181C111.307 45.8821 110.563 46.619 110.011 47.5041C109.903 47.6777 109.72 47.809 109.568 47.953C109.206 48.2918 108.693 48.2452 108.376 47.8281C107.832 47.1081 107.321 46.3649 106.764 45.6555C105.604 44.1753 104.408 42.7248 103.332 41.1811C103.296 41.1303 103.234 41.0964 103.184 41.0541C103.152 41.1113 103.095 41.1684 103.093 41.2256C103.082 41.5051 103.088 41.7868 103.088 42.0663C103.088 44.8699 103.09 47.6735 103.084 50.4771C103.084 50.7397 103.156 51.0044 102.898 51.2458C102.572 51.5486 102.25 51.8577 101.822 51.97C101.477 52.061 101.191 51.8027 100.926 51.61C100.672 51.4237 100.535 51.1907 100.539 50.8223C100.564 48.44 100.552 46.0557 100.552 43.6714L100.549 43.6756Z" fill="white"/>
<path d="M103.508 22.0979V28.6199C103.508 28.7957 103.512 28.9714 103.508 29.1451C103.491 29.8544 103.118 30.2737 102.472 30.3139C101.672 30.3648 101.047 29.8904 100.977 29.1662C100.954 28.9227 100.973 28.675 100.973 28.4293C100.973 25.5897 100.973 22.748 100.971 19.9084C100.971 19.8131 100.928 19.7157 100.905 19.6204C100.831 19.6691 100.736 19.703 100.685 19.7707C100.073 20.569 99.4716 21.3758 98.8596 22.172C98.5293 22.5998 98.1778 23.0127 97.8453 23.4383C97.2651 24.1794 96.6934 24.9269 96.1132 25.6681C95.9247 25.9095 95.7405 26.1551 95.5224 26.369C95.2895 26.5977 94.8151 26.6146 94.6013 26.3753C94.0338 25.7422 93.479 25.0942 92.9496 24.4272C92.4075 23.7454 91.9141 23.0296 91.3784 22.3435C91.0226 21.8883 90.5165 21.5071 90.2942 21.001C90.0634 20.478 89.4557 20.2832 89.3413 19.7093C89.3307 19.6543 89.174 19.5844 89.0978 19.5971C89.0322 19.6077 88.9411 19.722 88.9369 19.7962C88.9157 20.0397 88.9284 20.2874 88.9284 20.5309C88.9284 23.3705 88.9284 26.2123 88.9284 29.0519C88.9284 29.3653 88.9496 29.6681 88.6319 29.8799C88.3842 30.045 88.255 30.3372 87.859 30.3288C87.0459 30.3076 86.4572 29.8714 86.3916 29.1366C86.3789 28.9968 86.3916 28.8571 86.3916 28.7152C86.3916 24.2959 86.3916 19.8787 86.3916 15.4594C86.3916 15.1587 86.3874 14.8814 86.5864 14.5891C86.9189 14.1085 87.3868 13.9623 87.7849 14.3456C88.471 15.0084 88.9962 15.8067 89.6081 16.5246C90.2709 17.3017 90.8299 18.1529 91.5139 18.911C92.0073 19.4573 92.3863 20.1053 92.8755 20.6559C93.371 21.2128 93.8623 21.7612 94.2159 22.4219C94.2625 22.5108 94.3641 22.5701 94.4361 22.6485C95.0057 23.271 94.993 23.2626 95.5478 22.5701C96.2064 21.7485 96.9369 20.982 97.5489 20.1286C98.1143 19.3409 98.8236 18.6696 99.3022 17.8078C99.5415 17.3758 99.9565 17.037 100.276 16.6389C100.825 15.9528 101.392 15.2858 101.911 14.5743C102.07 14.3562 102.392 14.2228 102.665 14.1254C102.974 14.0153 103.478 14.4621 103.508 14.839C103.527 15.0825 103.512 15.3303 103.512 15.5759V22.0979H103.508Z" fill="white"/>
<path d="M114.737 30.2949C113.017 30.4855 111.491 29.9095 110.097 29.0286C109.445 28.6157 108.723 28.2239 108.323 27.4574C108.077 26.9873 107.55 26.657 107.336 26.1805C106.951 25.325 106.523 24.4759 106.44 23.4955C106.404 23.0762 106.237 22.6591 106.254 22.2144C106.273 21.7231 106.688 19.4997 106.938 19.0296C107.247 18.4515 107.554 17.848 107.988 17.3673C108.693 16.5881 109.399 15.7834 110.407 15.3409C111.031 15.0677 111.561 14.5764 112.287 14.5298C112.478 14.2292 112.785 14.3689 113.045 14.3202C113.301 14.2736 113.547 14.1402 113.803 14.1233C115.069 14.0322 116.319 14.1444 117.532 14.5362C118.472 14.8411 120.266 15.8702 120.886 16.6029C121.871 17.7654 122.661 19.019 122.989 20.5733C123.192 21.5431 123.237 22.5045 123.124 23.432C122.976 24.6601 122.553 25.8502 121.704 26.8285C121.416 27.1588 121.17 27.5273 120.878 27.8513C119.919 28.9164 118.665 29.5559 117.365 30.0577C116.543 30.3754 115.624 30.405 114.737 30.297V30.2949ZM120.399 22.2779C120.647 21.1006 120.115 19.9867 119.455 18.9978C118.949 18.2419 118.239 17.5452 117.397 17.1429C116.721 16.821 115.999 16.5606 115.177 16.6114C114.39 16.6601 113.377 16.6177 112.804 16.8549C111.798 17.272 110.851 17.8353 110.214 18.7226C109.604 19.5675 109.145 20.5436 109.022 21.5855C108.852 23.019 109.236 24.3827 110.078 25.5495C110.519 26.1593 111.107 26.6972 111.724 27.1398C112.446 27.6586 113.352 27.8682 114.214 27.9762C115.946 28.1943 117.462 27.5315 118.712 26.4007C119.868 25.3526 120.554 24.0164 120.399 22.2779Z" fill="white"/>
<path d="M56.8033 22.1953C56.8033 19.9507 56.8033 17.7061 56.8033 15.4637C56.8033 14.6272 57.0976 14.3414 57.9764 14.3287C58.7853 14.3181 59.5963 14.3266 60.4073 14.3266C61.5699 14.3266 62.7324 14.3054 63.8949 14.3329C64.9346 14.3583 65.932 14.551 66.8319 15.146C67.969 15.8978 68.8224 16.8104 69.0807 18.208C69.1527 18.5997 69.2861 18.9767 69.2756 19.3875C69.2332 21.0264 68.4984 22.2694 67.139 23.1673C66.9696 23.2795 66.8383 23.4976 66.6604 23.5378C66.3576 23.6056 65.9574 23.6119 65.9235 23.9402C65.8981 24.1816 66.1522 24.4653 66.3174 24.7067C67.1241 25.8841 67.8907 27.0932 68.7758 28.2091C69.1951 28.7406 68.9791 29.2594 69.0511 29.7846C69.0596 29.8481 68.9262 29.9434 68.8457 30.009C68.2528 30.4833 67.5222 30.4728 67.0543 29.8799C66.4804 29.1535 65.9849 28.3637 65.4725 27.5908C64.8901 26.712 64.3586 25.7972 63.7446 24.9418C63.4036 24.4653 62.9865 24.099 62.2538 24.1943C61.4237 24.3023 60.5661 24.2366 59.7212 24.2112C59.3676 24.2006 59.3337 24.3489 59.3358 24.6411C59.3486 26.0429 59.3253 27.4468 59.3528 28.8486C59.3613 29.2446 59.2151 29.5622 59.0394 29.882C58.7196 30.4664 58.1373 30.3775 57.6439 30.2949C57.3835 30.2525 57.14 29.9476 56.9515 29.7104C56.8393 29.5707 56.8117 29.3356 56.8096 29.1451C56.8012 26.8306 56.8033 24.5161 56.8033 22.2017V22.1953ZM59.3401 19.3282C59.3401 20.1688 59.3549 21.0116 59.3337 21.8523C59.3253 22.1911 59.3549 22.3478 59.7784 22.333C60.9388 22.2948 62.1013 22.3033 63.2639 22.3287C63.7149 22.3393 64.1321 22.261 64.5513 22.1127C66.1564 21.541 66.7366 20.2239 66.5503 18.928C66.4487 18.2249 66.1247 17.721 65.644 17.2763C65.121 16.7914 64.4793 16.4737 63.7784 16.4462C62.4084 16.3933 61.032 16.442 59.6598 16.4229C59.3358 16.4187 59.338 16.5775 59.338 16.8062C59.3443 17.6469 59.3401 18.4896 59.3401 19.3303V19.3282Z" fill="white"/>
<path d="M70.328 43.7815V37.5813C70.328 37.3717 70.3153 37.1599 70.3301 36.9503C70.3682 36.4696 70.7832 36.0482 71.2618 35.9974C71.3656 35.9868 71.4736 35.9974 71.5773 35.9974C74.4974 35.9974 77.4175 35.9932 80.3397 35.9995C81.0618 35.9995 81.697 36.7364 81.5276 37.3484C81.3836 37.8651 80.8437 38.2865 80.2677 38.3098C79.8823 38.3246 79.4927 38.3119 79.1073 38.3119C77.2777 38.3119 75.4482 38.3119 73.6186 38.3119C73.0829 38.3119 73.0787 38.3182 73.0765 38.8836C73.0723 40.0398 73.0892 41.196 73.0681 42.3521C73.0617 42.7015 73.2036 42.7375 73.4979 42.7354C75.6451 42.7248 77.7902 42.7418 79.9373 42.7206C80.3863 42.7163 80.7251 42.8159 81.0321 43.1589C81.2333 43.3834 81.4641 43.6417 81.2989 43.8725C81.0427 44.2304 80.9749 44.8233 80.3587 44.8318C79.6557 44.8402 78.9506 44.8318 78.2476 44.8318C76.6636 44.8318 75.0797 44.8381 73.4979 44.8254C73.2036 44.8233 73.0638 44.8614 73.0702 45.2108C73.0914 46.4369 73.0765 47.6629 73.0787 48.889C73.0787 49.4543 73.085 49.4586 73.6207 49.4586C75.7679 49.4607 77.913 49.4586 80.0602 49.4586C80.2359 49.4586 80.4117 49.4543 80.5874 49.4586C81.3963 49.4819 81.9448 50.1531 81.7309 50.926C81.5933 51.4279 81.102 51.5846 80.6743 51.7646C80.5557 51.8154 80.3969 51.773 80.255 51.773C77.4408 51.773 74.6245 51.7752 71.8102 51.773C71.0162 51.773 70.6308 51.538 70.4063 50.8943C70.3301 50.6762 70.3322 50.4263 70.3322 50.1891C70.328 48.0525 70.3301 45.9159 70.3301 43.7772L70.328 43.7815Z" fill="white"/>
<path d="M138.801 22.2144V16.01C138.801 15.8702 138.801 15.7305 138.801 15.5886C138.811 14.7861 139.158 14.4028 139.95 14.3244C140.054 14.3139 140.162 14.3244 140.268 14.3244C142.942 14.3244 145.619 14.3202 148.294 14.3308C148.52 14.3308 148.747 14.4367 148.975 14.4578C149.522 14.5044 149.778 14.7479 149.869 15.3239C149.96 15.9041 149.549 16.6241 148.941 16.6347C148.133 16.6495 147.322 16.6389 146.513 16.6389C144.999 16.6389 143.485 16.6453 141.973 16.6326C141.683 16.6304 141.532 16.658 141.539 17.0137C141.562 18.2398 141.562 19.4679 141.539 20.694C141.532 21.0667 141.712 21.0624 141.983 21.0624C143.991 21.0561 145.996 21.0582 148.003 21.0582C148.215 21.0582 148.431 21.0286 148.637 21.0646C149.005 21.1281 149.401 21.2678 149.556 21.5961C149.676 21.8565 149.623 22.225 149.564 22.5278C149.53 22.7035 149.327 22.8454 149.208 23.0085C149.026 23.2562 148.761 23.1567 148.533 23.1567C146.561 23.163 144.59 23.1609 142.618 23.1609C142.373 23.1609 142.125 23.1673 141.879 23.1588C141.685 23.1503 141.547 23.1673 141.547 23.4214C141.553 24.7872 141.555 26.1551 141.547 27.5209C141.545 27.8809 141.788 27.7856 141.977 27.7877C144.194 27.792 146.413 27.7877 148.63 27.7941C148.929 27.7941 149.21 27.756 149.507 27.9825C149.905 28.2875 150.278 28.7173 150.214 29.0625C150.112 29.6279 149.585 30.1022 149.033 30.1043C145.935 30.1085 142.837 30.1085 139.739 30.1043C139.135 30.1043 138.805 29.7655 138.803 29.1557C138.798 26.8433 138.803 24.5288 138.803 22.2165L138.801 22.2144Z" fill="white"/>
<path d="M72.4413 22.1064C72.4413 19.8999 72.4413 17.6913 72.4413 15.4848C72.4413 14.6357 72.725 14.335 73.5911 14.3287C75.3868 14.316 77.1803 14.3244 78.976 14.3244C79.9966 14.3244 81.0173 14.3435 82.0379 14.3117C82.3386 14.3011 82.561 14.4113 82.7939 14.5362C83.3995 14.8623 83.588 15.2752 83.4292 15.8914C83.336 16.2514 82.7727 16.6347 82.2857 16.6347C80.1745 16.641 78.0633 16.6368 75.95 16.6368C75.7743 16.6368 75.5964 16.6177 75.4228 16.641C75.0924 16.6834 74.9717 16.8972 74.9738 17.2191C74.9802 18.3753 74.9908 19.5315 74.9675 20.6876C74.959 21.0518 75.1284 21.0624 75.4079 21.0603C77.5191 21.0518 79.6303 21.0667 81.7436 21.0476C82.1777 21.0434 82.5102 21.2128 82.8574 21.4245C83.3656 21.7337 83.3678 22.6654 82.8468 23.0275C82.6097 23.1927 82.3895 23.1567 82.1586 23.1567C80.1533 23.163 78.1459 23.1609 76.1406 23.1609C75.9289 23.1609 75.7192 23.1609 75.5075 23.1609C75.1687 23.1567 74.9887 23.3621 74.9844 23.6585C74.9675 24.9545 74.9717 26.2504 74.9865 27.5484C74.9865 27.6289 75.1327 27.775 75.2174 27.7793C75.6387 27.8025 76.0623 27.7898 76.4836 27.7898C78.3492 27.7898 80.2147 27.8068 82.0803 27.7771C82.5144 27.7708 82.8765 27.8873 83.2132 28.1096C83.5943 28.3616 83.8569 29.234 83.5986 29.5876C83.4207 29.8311 83.0628 29.9561 82.7685 30.0958C82.6541 30.1509 82.4911 30.1043 82.3513 30.1043C79.3953 30.1043 76.4392 30.1022 73.4831 30.1064C73.1612 30.1064 72.9029 30.062 72.6488 29.8079C72.4053 29.5622 72.4455 29.3124 72.4455 29.0434C72.4434 26.7311 72.4455 24.4187 72.4455 22.1064H72.4413Z" fill="white"/>
<path d="M82.7537 50.6677C82.8341 50.3966 82.8807 50.06 83.0247 49.772C85.0067 45.8207 86.9993 41.8757 88.994 37.9286C89.2439 37.4352 89.5065 36.9482 89.7754 36.4633C89.8707 36.2896 89.9787 36.1139 90.1185 35.9762C90.4022 35.6967 90.8427 35.6904 91.1158 35.9762C91.3212 36.1901 91.5054 36.44 91.6388 36.7047C93.8368 41.0562 96.0243 45.4141 98.218 49.7656C98.4234 50.1743 98.4721 50.5999 98.434 51.0425C98.3874 51.5846 97.4642 52.1394 96.9814 51.8937C96.6045 51.701 96.2635 51.5041 96.0708 51.0319C95.7405 50.223 95.2132 49.4946 94.8638 48.6899C94.6923 48.2918 94.4869 48.1923 94.1037 48.1944C91.7807 48.2029 89.4557 48.2029 87.1327 48.1944C86.7495 48.1944 86.5441 48.2918 86.3704 48.6878C86.021 49.4925 85.5594 50.2484 85.138 51.0192C85.0279 51.2204 84.9263 51.4448 84.7611 51.5952C84.1555 52.1479 83.3 52.0229 82.885 51.3199C82.7876 51.1568 82.8024 50.9282 82.7537 50.6656V50.6677ZM90.5949 46.3056C91.5076 46.3056 92.4181 46.3013 93.3308 46.3077C93.5976 46.3077 93.5997 46.1362 93.57 45.9646C93.5467 45.8418 93.4663 45.7296 93.4091 45.6131C92.5494 43.8725 91.6897 42.1319 90.8257 40.3934C90.7876 40.3172 90.7071 40.2219 90.6394 40.2155C90.5653 40.2092 90.4488 40.2812 90.4128 40.3489C90.218 40.7216 90.0422 41.1049 89.8601 41.4818C89.1423 42.9683 88.4244 44.4527 87.7087 45.9392C87.5816 46.2039 87.6748 46.3098 87.9628 46.3077C88.8395 46.2992 89.7161 46.3056 90.5928 46.3056H90.5949Z" fill="white"/>
<path d="M60.3967 44.6497C60.3967 42.6888 60.3861 40.728 60.4052 38.7671C60.4094 38.4029 60.3396 38.2886 59.9478 38.2992C58.8234 38.3309 57.6969 38.2886 56.5725 38.3225C56.2083 38.3331 55.9054 38.2039 55.6217 38.0599C55.1812 37.8375 54.8848 36.9143 55.1537 36.5162C55.321 36.2706 55.6873 36.1456 55.9817 36.0038C56.096 35.9487 56.2591 35.9953 56.3988 35.9953C59.9859 35.9953 63.573 35.9953 67.1601 35.9953C67.4757 35.9953 67.7403 36.0186 68.0008 36.2812C68.3227 36.603 68.5238 36.9291 68.4137 37.3696C68.2909 37.8651 67.7658 38.2886 67.247 38.3055C66.5439 38.3288 65.8409 38.3013 65.1379 38.314C64.4815 38.3267 63.825 38.3648 63.1665 38.3923C63.158 39.0191 63.1453 39.6459 63.1453 40.2727C63.1432 43.5994 63.1326 46.926 63.1538 50.2527C63.158 50.8964 62.8891 51.3622 62.4274 51.737C62.2602 51.8726 62.0082 51.9721 61.7964 51.97C61.5084 51.9657 61.1823 51.9086 60.9431 51.7603C60.5937 51.5422 60.4264 51.1547 60.401 50.7397C60.3798 50.3564 60.3967 49.9689 60.3967 49.5835V44.6454V44.6497Z" fill="white"/>
<path d="M131.404 23.0995C131.404 25.0603 131.408 27.0212 131.398 28.9799C131.398 29.2404 131.523 29.5389 131.235 29.7507C130.989 29.9307 130.784 30.2187 130.515 30.297C129.913 30.4685 129.149 30.1234 128.922 29.6152C128.831 29.4098 128.869 29.1429 128.869 28.9037C128.867 26.0683 128.869 23.2329 128.869 20.3975C128.869 19.3832 128.876 18.3668 128.867 17.3525C128.863 16.7681 128.734 16.6453 128.132 16.6431C126.972 16.6368 125.812 16.6431 124.651 16.6389C124.382 16.6389 124.111 16.7045 123.889 16.4314C123.652 16.1434 123.406 15.8597 123.383 15.4848C123.347 14.9173 123.98 14.3604 124.647 14.3266C124.787 14.3202 124.929 14.3266 125.068 14.3266C128.374 14.3266 131.679 14.3223 134.983 14.3329C135.279 14.3329 135.569 14.3393 135.885 14.4324C136.397 14.5828 136.677 14.7501 136.768 15.326C136.861 15.9041 136.448 16.6304 135.842 16.6368C134.648 16.6495 133.452 16.6389 132.255 16.641C131.689 16.641 131.405 16.9389 131.404 17.5346C131.404 19.3896 131.404 21.2445 131.404 23.0995Z" fill="white"/>
<path d="M138.165 48.5184C138.165 47.7476 138.17 46.9768 138.163 46.206C138.161 45.9604 138.148 45.7296 138.373 45.5517C138.46 45.484 138.494 45.2743 138.559 45.2701C138.832 45.2532 139.108 45.2807 139.379 45.3209C139.41 45.3251 139.415 45.5051 139.434 45.6025C139.465 45.7656 139.463 45.9456 139.542 46.0832C139.601 46.1891 139.764 46.4559 139.893 46.1531C140.046 45.7931 140.431 45.7 140.632 45.4226C140.897 45.0583 141.422 45.4797 141.644 45.0562C142.034 45.3251 142.585 45.107 142.938 45.4861C143.059 45.6153 143.194 45.7275 143.309 45.8609C143.499 46.0769 143.677 46.3013 143.861 46.5237C144.048 46.3077 144.253 46.1044 144.414 45.8715C144.846 45.2468 145.585 45.2405 146.197 45.0943C146.576 45.0033 147.093 45.268 147.48 45.4903C147.914 45.7402 148.277 46.0981 148.535 46.5703C148.802 47.0573 148.971 47.5232 148.952 48.0864C148.918 49.0668 148.948 50.0494 148.941 51.0298C148.937 51.6079 148.804 51.7688 148.353 51.7836C147.891 51.7985 147.478 51.4533 147.47 50.9938C147.453 50.0833 147.468 49.1706 147.463 48.2601C147.463 47.8916 147.427 47.5486 147.277 47.1801C147.027 46.5681 146.466 46.5046 146.002 46.3394C145.608 46.1976 145.253 46.5258 144.95 46.8117C144.509 47.2267 144.255 47.6926 144.283 48.3299C144.325 49.2384 144.3 50.151 144.291 51.0637C144.287 51.6206 144.137 51.7815 143.669 51.7836C143.218 51.7836 142.824 51.4215 142.818 50.9599C142.805 49.9435 142.805 48.9271 142.818 47.9107C142.824 47.4787 142.629 47.1589 142.39 46.8201C142.115 46.4347 141.663 46.5152 141.312 46.3394C141.011 46.1891 140.685 46.4961 140.431 46.6973C139.902 47.1187 139.597 47.6439 139.633 48.3659C139.677 49.2744 139.652 50.187 139.641 51.0997C139.635 51.6693 138.94 52.0843 138.483 51.7413C138.307 51.61 138.14 51.286 138.153 50.943C138.187 50.1383 138.163 49.3315 138.163 48.5247L138.165 48.5184Z" fill="white"/>
<path d="M133.244 51.7709C131.732 52.0314 130.153 50.7693 129.757 49.1515C129.522 48.1923 129.765 47.2119 130.517 46.458C130.942 46.0303 131.334 45.5666 131.976 45.4077C132.344 45.3167 133.225 45.1812 133.63 45.251C133.987 45.3146 134.328 45.2595 134.714 45.4353C135.849 45.9541 136.535 46.7354 136.689 47.9721C137.147 48.5544 136.732 49.124 136.577 49.6407C136.391 50.2569 136.012 50.7842 135.389 51.1738C134.697 51.6058 134.015 51.8429 133.246 51.773L133.244 51.7709ZM131.192 48.4464C131.014 49.5306 132.071 50.5279 133.293 50.7249C133.816 50.4581 134.434 50.4115 134.864 49.9266C135.271 49.467 135.425 48.9546 135.419 48.3659C135.406 47.3876 134.301 46.2738 133.308 46.3162C132.391 46.3564 130.93 47.2606 131.19 48.4464H131.192Z" fill="white"/>
<path d="M125.78 51.7773C124.336 52.0208 122.892 50.7905 122.4 49.3993C122.083 48.4993 122.284 47.5422 122.856 46.7121C123.156 46.2759 123.529 45.9159 123.995 45.683C124.433 45.4649 124.85 45.2045 125.399 45.2362C125.926 45.2659 126.629 45.2934 126.972 45.3548C127.762 45.4967 128.139 46.151 128.647 46.638C128.753 46.7397 128.766 46.9641 128.766 47.1335C128.766 47.2521 128.702 47.3961 128.622 47.4872C128.484 47.6417 127.963 47.5973 127.772 47.4194C127.381 47.0509 127.019 46.6783 126.47 46.4834C126.21 46.3903 125.96 46.2611 125.704 46.3162C125.155 46.4369 124.628 46.6253 124.213 47.0425C123.874 47.3813 123.764 47.7794 123.796 48.2389C123.802 48.3426 123.813 48.4528 123.796 48.5544C123.582 49.7487 124.736 50.4644 125.788 50.7079C126.356 50.3966 127.112 50.4919 127.537 49.8588C127.705 49.6089 127.927 49.3845 128.319 49.4522C128.66 49.5115 128.859 49.8334 128.685 50.1743C128.171 51.1844 127.347 51.7265 126.205 51.7773C126.066 51.7836 125.924 51.7773 125.784 51.7773H125.78Z" fill="white"/>
<path d="M35.2997 14.7458C35.774 14.7458 36.1616 14.7204 36.5469 14.7522C36.9683 14.7861 37.341 14.6654 37.7137 14.5044C37.8513 14.4451 38.0186 14.3541 38.1436 14.3858C38.3193 14.4303 38.4972 14.5489 38.6242 14.6844C38.836 14.911 38.8339 15.4319 38.6242 15.6543C38.4972 15.7877 38.3172 15.9084 38.1414 15.9507C38.0144 15.9804 37.8429 15.8957 37.7116 15.8237C37.3389 15.6161 37.0001 15.2646 36.6084 15.1947C35.9943 15.0868 35.3357 15.0889 34.7174 15.182C33.3198 15.3917 31.9392 15.6648 30.6094 16.2006C28.9619 16.8655 27.5474 17.8501 26.3425 19.1122C25.0995 20.4124 24.3034 22.0111 23.666 23.6734C23.4669 24.19 23.5813 24.8232 23.3949 25.3483C23.1197 26.1276 23.1938 26.9068 23.2171 27.684C23.2509 28.7766 23.5305 29.8417 23.8968 30.8666C23.9878 31.1186 24.0577 31.5464 24.5109 31.5887C24.6231 31.5993 24.7311 31.739 24.8285 31.8301C25.1842 32.1626 25.2097 32.3785 24.9365 32.6941C24.6083 33.0731 24.1784 33.1896 23.8587 32.9566C23.6914 32.8338 23.4923 32.6835 23.4373 32.5056C23.3886 32.3468 23.5368 32.1371 23.5665 31.9466C23.5855 31.8322 23.5643 31.703 23.5283 31.5887C23.1726 30.4177 22.7576 29.2658 22.7639 28.0122C22.7639 27.5569 22.4802 27.1144 22.5691 26.6294C22.7808 25.4944 22.8507 24.3256 23.2488 23.2329C23.6384 22.1614 24.1509 21.1408 24.8052 20.1985C25.7772 18.7988 27.0032 17.6087 28.3965 16.6813C29.7751 15.7622 31.342 15.1672 33.0424 14.9131C33.8323 14.7945 34.6073 14.803 35.2997 14.7437V14.7458Z" fill="white"/>
<path d="M40.9535 32.3298C40.9535 31.4892 40.9599 30.6485 40.9514 29.8079C40.9472 29.3716 41.0298 28.946 40.6211 28.5606C40.4601 28.4082 40.5237 27.8957 40.6401 27.6077C40.8074 27.1948 41.2542 27.379 41.5803 27.3833C41.8387 27.3854 42.0144 27.5781 42.0102 27.8618C42.0038 28.1964 42.1182 28.5627 41.7413 28.8041C41.485 28.9672 41.5951 29.2467 41.593 29.4754C41.5867 31.684 41.5888 33.8905 41.5888 36.0991C41.5888 36.2748 41.5909 36.4484 41.5888 36.6242C41.5867 36.8021 41.557 36.8381 41.3643 36.7343C40.3331 36.1732 39.287 35.6395 38.2473 35.0911C36.8328 34.3436 35.3971 33.6321 34.0165 32.8296C33.017 32.2473 31.8947 31.8407 31.1091 30.9323C30.2473 29.9349 29.5104 28.8783 29.5464 27.4786C29.5527 27.271 29.4299 27.2456 29.2901 27.1376C29.0975 26.9873 28.9429 26.6506 28.9577 26.405C28.981 26.0259 29.3706 25.757 29.6777 25.7295C29.9487 25.7062 30.3193 25.9434 30.512 26.1763C30.6369 26.3266 30.6263 26.7713 30.4929 26.9174C29.9826 27.4764 30.2028 27.9952 30.3659 28.6072C30.7153 29.9137 31.5644 30.7883 32.6697 31.4172C34.6856 32.5628 36.7418 33.6364 38.7831 34.7375C39.3569 35.0488 39.9308 35.3622 40.511 35.6607C40.926 35.8746 40.9493 35.8577 40.9514 35.3812C40.9578 34.3648 40.9514 33.3484 40.9514 32.332L40.9535 32.3298Z" fill="white"/>
<path d="M50.2516 48.3045C50.2516 47.8133 50.2199 47.322 50.2601 46.8328C50.3088 46.2357 50.2072 45.7127 49.8408 45.2108C49.5422 44.8021 49.6947 44.4337 50.1648 44.1817C50.2792 44.1203 50.4231 43.9742 50.5015 44.0038C50.7429 44.097 50.997 44.2198 51.1749 44.3998C51.4163 44.6412 51.4205 45.0372 51.196 45.2256C50.8255 45.5348 50.889 45.8948 50.889 46.2675C50.8848 47.9488 50.889 49.6301 50.8869 51.3135C50.8869 51.8641 50.8784 51.862 50.3215 51.5655C48.4792 50.583 46.6306 49.6068 44.7905 48.6179C42.9779 47.6439 41.1716 46.6571 39.3654 45.6724C38.8762 45.4056 38.4104 45.0965 37.9064 44.8656C37.6883 44.7661 37.4638 44.6094 37.1314 44.8085C36.7312 45.0478 36.4135 44.6772 36.1785 44.3765C35.9816 44.1224 36.2018 43.9022 36.2738 43.6502C36.3606 43.3495 36.4982 43.394 36.6994 43.3516C37.197 43.2479 37.5951 43.4977 37.7285 43.8704C37.8683 44.2579 38.1393 44.3553 38.4188 44.5163C40.2907 45.5835 42.2135 46.5576 44.1108 47.5782C46.0081 48.5989 47.8863 49.6534 49.8196 50.6063C50.1796 50.7842 50.2474 50.7545 50.2516 50.4051C50.258 49.7042 50.2516 49.0033 50.2516 48.3024V48.3045Z" fill="white"/>
<path d="M27.3526 35.3664C27.6639 35.3283 27.8079 35.3854 27.8926 35.8301C27.9752 36.2642 28.3097 36.6602 28.8306 36.9037C29.9805 37.4437 31.0646 38.1255 32.1869 38.729C34.1393 39.7772 36.1023 40.8106 38.061 41.8503C39.9329 42.8434 41.809 43.8302 43.6724 44.8381C44.2167 45.1325 44.7249 45.4882 45.3093 45.7232C45.502 45.7995 45.6058 45.9625 45.8302 45.7719C46.1478 45.5051 46.3723 45.7402 46.6264 45.9456C46.9271 46.1891 46.9102 46.5046 46.8466 46.7926C46.8149 46.9366 46.5629 47.1187 46.3998 47.1314C45.9784 47.1611 45.4914 47.2923 45.3517 46.6168C45.3093 46.4114 44.9768 46.2357 44.7439 46.1023C43.8673 45.5962 42.9694 45.1261 42.0906 44.6221C40.8434 43.9064 39.4967 43.3749 38.3087 42.5448C37.864 42.2357 37.2775 42.1361 36.8095 41.8545C35.4903 41.0647 34.0631 40.4633 32.7904 39.5845C32.3945 39.3114 31.918 39.1504 31.4776 38.945C30.3489 38.4178 29.2711 37.8015 28.2208 37.1282C27.9307 36.9418 27.5834 36.8021 27.1832 36.8254C26.7597 36.8487 26.4018 36.4696 26.368 36.0842C26.3256 35.6057 26.5162 35.3897 26.9926 35.3685C27.0985 35.3643 27.2044 35.3685 27.3484 35.3685L27.3526 35.3664Z" fill="white"/>
<path d="M27.8629 26.8793C27.8333 27.8745 27.9392 28.6369 28.225 29.4309C28.4495 30.0535 28.6739 30.5321 29.2838 30.7226C29.7264 30.8603 29.7941 31.1334 29.7497 31.5019C29.7137 31.7983 29.5315 31.9233 29.233 32.0292C29.0043 32.1096 28.9111 32.2536 28.6274 32.0651C28.0874 31.7094 28.0641 31.7539 28.2166 31.1038C28.242 30.9937 28.2208 30.8539 28.1742 30.748C27.5665 29.4013 27.1281 28.0228 27.2086 26.513C27.251 25.7041 27.4966 24.9545 27.7634 24.2133C28.098 23.2816 28.5723 22.3562 29.2753 21.6977C30.4061 20.641 31.5919 19.5675 33.2605 19.3769C33.809 18.9724 34.512 19.3049 35.1091 18.9851C35.3527 18.8538 35.774 19.0042 36.1023 19.0762C36.6782 19.2032 37.2436 19.2604 37.8069 19.0423C38.1901 18.8941 38.5184 18.8962 38.8233 19.2392C39.0266 19.4679 39.1769 19.6882 38.9885 19.9592C38.8402 20.1731 38.8296 20.5436 38.3596 20.4505C37.9636 20.3721 37.9636 20.4229 37.4088 19.9677C37.1886 19.7877 36.8921 19.6352 36.6168 19.6077C36.0578 19.5526 35.4903 19.5632 34.9291 19.5992C34.3934 19.6331 33.8132 19.6225 33.3368 19.8258C32.4686 20.1942 31.6194 20.605 30.8042 21.1217C29.4003 22.0111 28.8645 23.4468 28.0768 24.7385C28.0345 25.5177 27.6702 26.2673 27.8693 26.8857L27.8629 26.8793Z" fill="white"/>
<path d="M50.4994 41.8905C49.8112 41.863 49.5126 41.3294 49.7921 40.7661C50.2516 39.8386 50.2919 39.8344 50.2389 39.0636C50.2008 38.4961 50.4486 37.9053 50.0589 37.3505C49.9425 37.1853 50.0399 36.872 50.0399 36.6263C50.0399 33.3314 50.0399 30.0387 50.0399 26.7438C50.0399 26.2885 50.0674 25.8311 50.0314 25.378C49.9975 24.9481 49.9192 24.5204 49.8218 24.099C49.7328 23.7157 49.591 23.3875 49.2034 23.144C48.6127 22.7713 48.7016 22.172 49.3369 21.8607C49.9467 21.5601 50.5184 21.9222 50.4549 22.5913C50.4274 22.8814 50.2114 23.1906 50.2728 23.4468C50.421 24.0609 50.3914 24.7025 50.5947 25.306C50.6794 25.5558 50.6709 25.8438 50.6709 26.1149C50.6751 30.6358 50.6751 35.1567 50.6709 39.6777C50.6709 40.0631 50.6328 40.44 51.0415 40.6856C51.304 40.8444 51.4396 41.143 51.2532 41.3865C51.0605 41.6385 50.8615 42.0049 50.4973 41.8905H50.4994Z" fill="white"/>
<path d="M39.4861 39.9508C39.3866 40.1901 39.3484 40.4019 39.2256 40.5395C39.1007 40.6772 38.9038 40.7725 38.7195 40.8296C38.4802 40.9037 37.8323 40.4951 37.8005 40.1986C37.7603 39.8386 37.5994 39.7158 37.2838 39.5591C35.7677 38.7989 34.2769 37.9837 32.782 37.1811C31.4564 36.4696 30.0546 35.8619 28.8582 34.9344C28.045 34.3034 27.3018 33.5728 26.7428 32.6877C26.2388 31.8873 25.6755 31.1207 25.4638 30.1636C25.3494 29.6533 25.0953 29.1747 25.0995 28.6326C25.0995 28.5098 24.7374 27.5781 24.6527 27.451C24.3457 26.9894 24.405 26.5701 24.8158 26.3203C25.0974 26.1488 25.468 26.2038 25.7539 26.4389C26.0546 26.6845 26.0567 27.1122 25.8979 27.2732C25.3896 27.7835 25.5612 28.2472 25.7073 28.8401C25.919 29.7041 26.188 30.5257 26.5712 31.3282C26.8931 32.0037 27.3187 32.5966 27.829 33.1154C28.4791 33.7761 29.2012 34.3669 29.9 34.981C29.9953 35.0636 30.1329 35.0953 30.2473 35.1567C31.6321 35.8915 33.0318 36.5988 34.3934 37.3738C35.5326 38.0218 36.7502 38.5279 37.8175 39.3008C38.0123 39.4405 38.1118 39.2626 38.2579 39.2288C38.5014 39.1716 38.836 39.1483 39.0202 39.2732C39.2426 39.4257 39.3506 39.7476 39.4797 39.953L39.4861 39.9508Z" fill="white"/>
<path d="M34.4019 42.3161C34.4019 42.6888 34.0906 43.0869 33.6607 43.1335C33.377 43.1653 33.0975 43.0001 32.926 42.7523C32.7396 42.4834 32.6359 42.1425 32.405 41.9265C32.1763 41.7126 31.8397 41.6131 31.5474 41.467C30.7025 41.0456 29.8344 40.6645 29.0191 40.1922C28.2229 39.7306 27.4225 39.2732 26.6581 38.746C25.4701 37.9265 24.4283 37.0011 23.541 35.8513C22.8867 35.0043 22.2345 34.1552 21.8004 33.1959C21.4172 32.3468 20.9746 31.5019 20.8433 30.5363C20.7861 30.1191 20.6294 29.6469 20.2186 29.3208C19.9031 29.071 19.9518 28.6347 20.2186 28.3319C20.405 28.1223 20.5977 27.9021 20.9217 27.9995C21.2245 28.0905 21.5421 28.5606 21.4955 28.8804C21.468 29.0667 21.3325 29.2382 21.2986 29.4267C21.1885 30.0111 21.3939 30.5575 21.5611 31.1017C21.936 32.3214 22.5098 33.4543 23.2022 34.5215C23.5114 34.9979 23.8883 35.432 24.2462 35.8767C24.3775 36.0398 24.549 36.171 24.6909 36.3256C26.0948 37.8566 27.7888 38.9662 29.6734 39.8259C30.5924 40.2452 31.3929 40.8932 32.3479 41.2616C32.7968 41.4352 32.8603 41.4882 33.4617 41.4649C33.9911 41.4437 34.3976 41.8164 34.3955 42.314L34.4019 42.3161Z" fill="white"/>
<path d="M35.6872 17.4817C35.3696 17.4817 35.052 17.5029 34.7364 17.4774C34.1901 17.4309 33.7264 17.4986 33.3452 17.9772C33.1843 18.1805 32.8921 18.3033 32.5215 18.1381C32.1615 17.9772 32.0535 17.7824 32.0747 17.4393C32.0895 17.2001 32.422 16.6749 32.6422 16.658C32.8243 16.6453 33.0149 16.7596 33.2012 16.8189C33.521 16.9163 33.7751 17.0582 34.1901 16.8951C34.6475 16.7151 35.232 16.821 35.7571 16.8634C36.2568 16.9036 36.765 16.7194 37.269 17.0412C37.5485 17.2191 38.0292 16.91 38.3278 17.2742C40.4559 17.8141 41.5803 18.4367 42.9758 19.8131C43.8927 20.7173 44.7227 21.6681 45.2267 22.8814C45.5655 23.7009 45.8217 24.5415 45.9933 25.397C46.0631 25.7401 46.1965 25.9539 46.4062 26.1805C46.6455 26.441 46.7768 26.9407 46.5946 27.0953C46.3511 27.3028 46.0293 27.5548 45.7476 27.5484C45.4194 27.5421 45.1717 27.1948 45.0065 26.8793C44.9684 26.8052 44.962 26.6612 45.0107 26.6019C45.5359 25.9455 45.3622 25.27 45.2034 24.5246C44.9536 23.3684 44.4729 22.316 43.7296 21.4584C42.8868 20.4843 41.9403 19.5992 40.8222 18.8666C39.7042 18.1339 38.4845 17.8459 37.2627 17.505C36.7735 17.3695 36.2124 17.4817 35.6851 17.4817H35.6872Z" fill="white"/>
<path d="M32.8116 13.6934C32.7057 13.6934 32.5871 13.7252 32.4982 13.6871C32.2526 13.5812 32.0324 13.3948 31.7401 13.4838C31.2404 13.6341 30.7343 13.7654 30.2452 13.9496C29.0128 14.4091 27.8269 14.9851 26.8042 15.8109C25.8894 16.55 24.8306 17.1386 24.225 18.2313C23.9497 18.7268 23.4119 19.0783 23.1408 19.5738C22.5627 20.6241 22.0207 21.7019 21.5908 22.8179C21.4341 23.2202 21.216 23.7517 21.6289 24.2557C21.883 24.5648 21.7369 24.7681 21.3663 25.1133C21.0847 25.3737 20.7692 25.3229 20.5108 25.1959C19.9433 24.9142 19.8481 24.4357 20.3266 24.0609C20.9428 23.5781 21.0466 22.8581 21.2541 22.2292C21.6501 21.0328 22.2642 19.9698 22.9333 18.9301C23.3314 18.3118 23.757 17.6892 24.2801 17.1789C25.5294 15.9613 26.8973 14.8602 28.4961 14.1402C29.468 13.7019 30.4209 13.1471 31.5305 13.0666C31.6258 12.8062 32.1298 13.0179 32.0853 12.5923C32.5935 12.0714 33.2605 12.0947 33.5655 12.6452C33.809 13.0857 33.5189 13.6553 33.0297 13.6976C32.9598 13.704 32.89 13.6976 32.818 13.6976L32.8116 13.6934Z" fill="white"/>
<path d="M48.1595 27.5802C48.5512 27.5844 49.0446 28.0736 48.9726 28.4293C48.943 28.5776 48.8032 28.7258 48.6762 28.8253C48.403 29.0413 48.3437 29.306 48.3458 29.6406C48.3564 33.2467 48.3522 36.8508 48.3522 40.4569C48.7545 42.1637 48.4941 43.8979 48.5576 45.6195C48.5661 45.8778 48.655 46.0515 48.8117 46.2569C49.1632 46.7164 48.9959 47.2796 48.4814 47.5464C48.2146 47.6841 47.7318 47.3114 47.4544 47.0319C47.1516 46.7291 47.6704 46.638 47.5073 46.4369C48.0155 46.1235 47.9308 45.6216 47.9308 45.1409C47.9308 40.1351 47.9266 35.1313 47.9372 30.1255C47.9372 29.6596 47.9414 29.2298 47.5009 28.9375C47.1706 28.7173 47.2151 28.3277 47.3442 28.1011C47.4925 27.8364 47.7296 27.4976 48.1616 27.5802H48.1595Z" fill="white"/>
<path d="M47.9245 19.7962C47.321 19.7962 46.9822 19.5378 47.1198 18.9851C47.2066 18.6294 47.1473 18.479 46.9271 18.2694C46.3977 17.7591 45.8916 17.2212 45.3559 16.7151C44.3839 15.794 43.2786 15.0465 42.061 14.4981C40.7778 13.92 39.4734 13.3758 38.0356 13.2678C37.7793 13.2487 37.5337 13.109 37.2775 13.073C37.0446 13.0391 36.7989 13.0222 36.6232 13.2678C36.3415 13.6595 35.9201 13.4563 35.5581 13.4647C35.4606 13.4647 35.2912 13.2932 35.2743 13.181C35.2298 12.9099 35.2129 12.6177 35.2658 12.3509C35.2912 12.2196 35.4924 12.0396 35.6258 12.029C36.0281 11.993 36.4707 11.9168 36.7502 12.3509C36.9196 12.6156 37.1695 12.6474 37.4702 12.6537C38.8805 12.6855 40.1679 13.1873 41.4723 13.6701C43.4967 14.4197 45.1611 15.6585 46.6709 17.1598C47.1389 17.6257 47.484 18.2334 48.2696 18.3922C48.7863 18.496 48.7672 18.964 48.5851 19.5442C48.4348 20.0206 48.1299 19.703 47.9245 19.8004V19.7962Z" fill="white"/>
<path d="M35.4035 21.2594C37.2606 21.2276 38.6814 21.7972 39.827 23C40.1531 23.3409 40.6147 23.5759 40.7502 24.0863C40.7651 24.1456 40.9091 24.1731 40.9938 24.2133C41.1695 24.298 41.4575 24.3446 41.4999 24.4738C41.5909 24.7554 41.5973 25.0815 41.557 25.378C41.5422 25.4966 41.3241 25.6236 41.1738 25.6787C40.8222 25.8057 40.5321 25.5347 40.2166 25.4479C40.134 25.4246 40.0896 25.0752 40.115 24.8888C40.1891 24.3171 39.9519 23.9275 39.5496 23.5357C38.8678 22.8687 38.1859 22.2864 37.2097 22.0407C36.1001 21.7612 35.7635 21.776 34.7026 21.8671C33.7031 21.9539 32.9281 22.3626 32.1869 22.9449C31.7677 22.8941 31.8566 23.2011 31.8672 23.4235C31.8862 23.8385 31.8354 24.1773 31.3187 24.2366C31.1684 24.2536 31.0286 24.3404 30.8825 24.3976C30.8084 24.1329 30.4357 24.2917 30.3341 23.8999C30.1689 23.2689 30.0546 23.1588 30.6009 22.9682C31.5072 22.6527 32.2589 22.0619 33.1271 21.6892C33.9148 21.3504 34.7343 21.2085 35.3971 21.2615L35.4035 21.2594Z" fill="white"/>
<path d="M47.2532 25.3695C47.3379 25.1937 47.4671 25.0265 47.4967 24.8444C47.5772 24.334 47.4861 23.8301 47.2892 23.3578C46.6497 21.8226 45.9361 20.3361 44.674 19.1799C43.9435 18.5108 43.2913 17.7676 42.4167 17.253C41.989 17.001 41.61 16.8104 41.1018 16.8422C40.5703 16.874 40.3754 16.7278 40.3204 16.3954C40.259 16.0396 40.5512 15.506 40.8752 15.379C41.0785 15.2985 41.7751 15.5801 41.7836 15.8004C41.7984 16.173 42.0081 16.2683 42.2897 16.4483C43.5327 17.2488 44.6783 18.1889 45.6312 19.3176C46.6984 20.5796 47.4332 22.0429 47.9245 23.6204C48.0812 24.1244 48.168 24.6411 48.6148 25.0243C48.9239 25.2912 48.8308 25.9709 48.4665 26.0535C48.2273 26.1064 48.0642 26.5447 47.7551 26.2462C47.5137 26.0111 47.1748 25.8184 47.2532 25.3674V25.3695Z" fill="white"/>
<path d="M31.8672 26.9513C31.755 26.1657 32.0027 25.5326 32.4686 24.8782C32.8455 24.3489 33.3601 24.1244 33.8365 23.7877C34.1584 23.559 34.6306 23.5929 34.819 23.0995C34.9186 22.839 35.719 22.8962 35.935 23.1122C36.151 23.3282 36.1594 24.0185 35.9561 24.2493C35.7063 24.5352 35.3823 24.4653 35.1028 24.3764C34.2748 24.1159 33.9297 24.1498 33.3558 24.7427C32.7438 25.3759 32.2399 26.0937 32.3013 27.0254C32.3458 27.7242 32.5893 28.3552 33.0763 28.91C33.6269 29.5389 34.3384 29.8926 35.0668 30.2187C35.3294 30.3372 35.6682 30.3012 35.9731 30.3139C36.5533 30.3372 36.7142 30.4537 36.729 30.9026C36.746 31.3621 36.3902 31.7623 35.9413 31.792C35.6004 31.8132 35.3527 31.7327 35.2404 31.3537C35.1049 30.8963 34.7174 30.7269 34.3087 30.4939C33.3982 29.9751 32.4665 29.4606 32.0387 28.3425C31.8502 27.8491 31.9752 27.4023 31.8672 26.9534V26.9513Z" fill="white"/>
<path d="M31.8672 34.1297C31.8693 33.7549 32.0874 33.5453 32.5533 33.4712C32.9895 33.4034 33.2521 33.5093 33.3283 33.9201C33.3939 34.2759 33.5739 34.369 33.8598 34.5427C35.7317 35.684 37.7137 36.6221 39.6343 37.6766C39.6894 37.7063 39.791 37.6809 39.8249 37.719C40.295 38.2695 40.9112 38.3436 41.5888 38.3182C42.1203 38.2971 42.2791 38.5596 42.2219 39.2288C42.1859 39.6544 41.8852 39.9 41.4342 39.7645C41.1356 39.6756 40.7714 39.6523 40.71 39.1271C40.6507 38.638 40.0324 38.5533 39.647 38.314C39.2616 38.0726 38.8318 37.9032 38.4379 37.6724C37.0827 36.8783 35.63 36.2663 34.3087 35.4045C33.8598 35.1123 33.3389 34.8645 32.71 34.9217C31.9477 34.9895 31.863 34.8518 31.8672 34.1255V34.1297Z" fill="white"/>
<path d="M43.9117 27.792C43.9117 28.0016 43.9138 28.2112 43.9117 28.4209C43.9054 28.7343 43.9117 29.0117 44.1976 29.2552C44.4538 29.4733 44.3945 29.8184 44.2315 30.0937C44.0303 30.4346 43.5941 30.5956 43.2553 30.5299C42.8678 30.4579 42.8741 30.0853 42.728 29.8439C42.6687 29.7443 42.7661 29.4458 42.8826 29.3611C43.2892 29.071 43.2892 28.6771 43.2786 28.2536C43.2659 27.6586 43.2659 27.0635 43.2786 26.4685C43.2913 25.7909 43.0774 25.1599 42.8445 24.5458C42.5142 23.6776 42.0991 22.8475 41.3792 22.208C41.1653 22.0174 40.9789 21.9031 40.6655 21.8756C40.0091 21.8184 39.7995 21.3483 40.0917 20.7533C40.1446 20.6432 40.1997 20.4378 40.2526 20.4378C40.5554 20.4378 40.8921 20.4187 41.1483 20.5458C41.358 20.6495 41.6608 20.838 41.5824 21.1874C41.5083 21.5135 41.701 21.6935 41.9001 21.901C42.944 22.9852 43.5475 24.3848 43.7042 25.9857C43.7339 26.2758 43.8694 26.5553 43.9011 26.8454C43.9371 27.1567 43.9096 27.4743 43.9096 27.7898L43.9117 27.792Z" fill="white"/>
<path d="M45.6036 41.8228C45.6036 41.4374 45.6227 41.052 45.5952 40.6708C45.5803 40.4845 45.5295 40.2409 45.4025 40.133C45.1378 39.9106 45.1717 39.6438 45.1886 39.377C45.1971 39.2288 45.2415 39.0107 45.3411 38.9577C45.5655 38.8391 45.8577 38.7036 46.0822 38.7523C46.5883 38.8603 46.872 39.5972 46.5311 39.9805C46.2622 40.2833 46.2325 40.5692 46.2347 40.9164C46.241 42.0006 46.2389 43.0827 46.2347 44.1669C46.2347 44.3786 46.1605 44.4337 46.0441 44.3172C45.6333 43.9064 45.0827 43.7624 44.5893 43.5041C43.9541 43.1716 43.3188 42.837 42.709 42.4601C42.5078 42.3352 42.3956 42.242 42.1902 42.4347C41.8408 42.7608 41.5274 42.3818 41.286 42.259C41.1378 42.1827 41.0954 41.6576 41.1949 41.4098C41.2902 41.1769 41.6438 40.8953 41.8683 40.908C42.1351 40.9228 42.584 41.2065 42.6073 41.4098C42.6751 42.0176 43.1833 42.0599 43.5285 42.2992C43.8757 42.5385 44.2632 42.7206 44.6359 42.9196C44.9218 43.07 45.214 43.2076 45.5041 43.3516C45.538 43.0149 45.5761 42.6803 45.6015 42.3437C45.6142 42.17 45.6036 41.9943 45.6036 41.8206V41.8228Z" fill="white"/>
<path d="M38.8635 25.2615C39.4861 25.2827 39.9413 26.0895 39.5835 26.4833C39.2468 26.8518 39.268 27.2181 39.2659 27.6226C39.2616 28.567 39.2828 29.5135 39.2553 30.4579C39.2426 30.8687 39.3209 31.1821 39.6576 31.4574C39.9519 31.6988 39.9075 32.0122 39.6089 32.3891C39.4226 32.6242 38.9334 32.7195 38.6772 32.5691C38.1647 32.2705 38.0313 31.7518 38.421 31.2817C38.601 31.0657 38.6327 30.873 38.6327 30.6273C38.6285 29.5072 38.6264 28.387 38.6327 27.2668C38.6327 26.9915 38.6772 26.7099 38.2727 26.6972C38.3617 26.3986 37.8026 26.2843 38.08 25.8968C38.3151 25.5686 38.5501 25.3102 38.8635 25.2615Z" fill="white"/>
<path d="M25.5823 24.8444C25.2626 24.9354 24.9873 24.7618 24.9153 24.5098C24.8391 24.243 24.7692 23.8682 25.1228 23.6712C25.7285 23.3324 25.936 22.7247 26.2367 22.1593C26.5162 21.6384 26.8804 21.1493 27.2721 20.7046C27.6596 20.2662 27.8629 19.6585 28.5045 19.4256C28.693 19.3578 28.801 19.0105 28.9005 18.7713C29.0784 18.3456 29.4934 18.0195 29.7941 18.1106C30.1583 18.2228 30.5098 18.82 30.3722 19.1863C30.3129 19.3472 30.0885 19.5802 29.9656 19.5653C28.8899 19.4341 28.3309 20.1985 27.7676 20.8549C27.1938 21.5198 26.7428 22.2948 26.3785 23.1037C26.2917 23.3007 26.0757 23.5336 26.3637 23.7729C26.4145 23.8152 26.3701 23.974 26.3722 24.0778C26.3828 24.7427 26.2642 24.8592 25.5823 24.8465V24.8444Z" fill="white"/>
<path d="M43.5877 32.9397C43.8461 33.0731 44.1341 33.126 44.2294 33.2891C44.4199 33.6131 44.4877 34.0472 44.1891 34.3267C43.9117 34.5871 43.9138 34.8582 43.9138 35.1673C43.9138 36.2176 43.9138 37.2679 43.9138 38.3182C43.9138 38.513 43.8948 38.6401 44.1807 38.7629C44.5322 38.9154 44.3564 39.3855 44.295 39.6904C44.2526 39.9 43.9964 40.0461 43.7021 39.9996C43.4374 39.9572 43.1155 40.0885 42.9546 39.7709C42.7916 39.4511 42.7301 39.106 43.0626 38.8518C43.2998 38.6697 43.2807 38.4453 43.2807 38.2018C43.2765 37.3272 43.2892 36.4506 43.2743 35.576C43.2659 35.1102 43.4014 34.6295 42.9292 34.2314C42.7725 34.1001 42.8043 33.6152 42.908 33.3547C42.9821 33.1705 43.3231 33.09 43.5856 32.9397H43.5877Z" fill="white"/>
<path d="M45.6036 33.5792C45.6036 33.2637 45.5761 32.946 45.61 32.6348C45.6523 32.2536 45.5147 31.9932 45.2415 31.7285C44.8138 31.3134 44.8752 31.017 45.3728 30.6485C45.6883 30.4156 46.0526 30.4876 46.3575 30.5808C46.5036 30.6252 46.5862 30.9556 46.6476 31.1715C46.6793 31.2838 46.6476 31.4934 46.5692 31.5442C46.1627 31.8047 46.2389 32.1964 46.2347 32.5691C46.2304 33.1641 46.2304 33.7592 46.2347 34.3542C46.2389 34.7248 46.1711 35.0848 46.5438 35.3939C46.7683 35.5803 46.7365 35.9508 46.5311 36.2282C46.2834 36.5607 45.8154 36.7894 45.5486 36.6136C45.3178 36.459 45.1505 36.1795 45.0192 35.9212C44.9747 35.8322 45.0785 35.5866 45.1844 35.5167C45.6841 35.1822 45.5952 34.6867 45.5994 34.2102C45.6015 34.0006 45.5994 33.7909 45.5994 33.5792H45.6036Z" fill="white"/>
<path d="M35.4733 26.1085C35.0816 26.0132 34.9313 26.3436 34.7132 26.5469C34.6835 26.5765 34.7089 26.7057 34.7492 26.7586C34.8317 26.8687 34.9503 26.9534 35.0414 27.0593C35.4543 27.5421 35.2192 28.2769 34.6073 28.4209C34.3002 28.4929 33.7857 28.063 33.7793 27.6903C33.7751 27.5019 33.8513 27.307 33.917 27.1228C33.9699 26.9725 34.1245 26.8327 34.1245 26.6887C34.1245 25.7422 34.9588 25.7718 35.5178 25.5537C35.9731 25.3759 36.9217 26.1572 36.926 26.6739C36.9302 27.0805 37.0022 27.3896 37.3304 27.6713C37.6565 27.9529 37.6502 28.1879 37.4384 28.4505C37.1547 28.8041 36.6613 28.9587 36.3606 28.7914C35.8587 28.5098 35.81 28.1519 36.1383 27.6268C36.2801 27.4002 36.5829 27.2266 36.3309 26.8115C36.0832 26.405 35.9011 26.1191 35.4755 26.1085H35.4733Z" fill="white"/>
<path d="M120.713 51.7773C120.101 51.7646 119.967 51.61 119.991 50.9451C120.007 50.4178 120.156 50.3035 120.802 50.3056C121.176 50.3056 121.498 50.6825 121.471 51.0848C121.439 51.5528 121.185 51.7879 120.713 51.7773Z" fill="white"/>
</svg>
