<svg version="1.2" xmlns="http://www.w3.org/2000/svg" viewBox="0 0 400 99" width="400" height="99">
	<defs>
		<clipPath clipPathUnits="userSpaceOnUse" id="cp1">
			<path d="m340.24 18.75v61.43h-280.93v-61.43z"/>
		</clipPath>
	</defs>
	<style>
		.s0 { fill: #ffffff } 
	</style>
	<g id="Clip-Path: Clip-Path: Clip-Path" clip-path="url(#cp1)">
		<g id="Clip-Path: Clip-Path">
			<g id="Clip-Path">
				<g>
					<path class="s0" d="m59.39 26.27q-0.08 0-0.08 0 0 0 0 0.08v5.97q0 0.07 0 0.07 0 0 0.08 0h5.96q0.07 0 0.07 0 0 0 0-0.07v-5.97q0-0.08 0-0.08 0 0-0.07 0zm14.89 0q-0.08 0-0.08 0 0 0 0 0.08v5.97q0 0.07 0 0.07 0 0 0.08 0h5.95q0.08 0 0.08 0 0 0 0-0.07v-5.97q0-0.08 0-0.08 0 0-0.08 0zm7.45 0q-0.07 0-0.07 0 0 0 0 0.08v5.97q0 0.07 0 0.07 0 0 0.07 0h5.96q0.08 0 0.08 0 0 0 0-0.07v-5.97q0-0.08 0-0.08 0 0-0.08 0zm-22.34 7.45q-0.08 0-0.08 0 0 0 0 0.09v5.96q0 0.07 0 0.07 0 0 0.08 0h5.96q0.06 0 0.06 0 0 0 0-0.07v-5.96q0-0.09 0-0.09 0 0-0.06 0zm7.44 0q-0.07 0-0.07 0 0 0 0 0.09v5.96q0 0.07 0 0.07 0 0 0.07 0h5.96q0.08 0 0.08 0 0 0 0-0.07v-5.96q0-0.09 0-0.09 0 0-0.08 0zm22.34 0q-0.07 0-0.07 0 0 0 0 0.09v5.96q0 0.07 0 0.07 0 0 0.07 0h5.96q0.07 0 0.07 0 0 0 0-0.07v-5.96q0-0.09 0-0.09 0 0-0.07 0zm-29.79 7.46q-0.07-0.01-0.07 0 0-0.01 0 0.08v5.96q0 0.07 0 0.07 0 0 0.07 0h5.97q0.06 0 0.06 0 0 0 0-0.07v-5.96q0-0.09 0-0.08 0-0.01-0.06 0zm0 7.46q-0.09 0-0.09 0 0 0 0 0.07v5.96q0 0.07 0 0.07 0 0 0.09 0h5.95q0.08 0 0.08 0 0 0 0-0.07v-5.96q0-0.07 0-0.07 0 0-0.08 0zm0 7.45q-0.08 0-0.08 0 0.01 0 0 0.07v5.96q0.01 0.07 0 0.07 0 0 0.08 0h5.95q0.08 0 0.08 0 0 0 0-0.07v-5.96q0-0.07 0-0.07 0 0-0.08 0zm44.68-29.81q-0.07-0.01-0.07 0 0-0.01 0 0.07v5.97q0 0.07 0 0.07 0 0 0.07 0h5.97q0.07 0 0.07 0 0 0 0-0.07v-5.97q0-0.08 0-0.07 0-0.01-0.07 0zm29.78 0q-0.07-0.01-0.07 0 0-0.01 0 0.07v5.97q0 0.07 0 0.07 0 0 0.07 0h5.96q0.08 0 0.08 0 0 0 0-0.07v-5.97q0-0.08 0-0.07 0-0.01-0.08 0zm-29.79 7.45q-0.08 0-0.08 0 0 0 0 0.08v5.96q0 0.07 0 0.07 0 0 0.08 0h5.96q0.07 0 0.07 0 0 0 0-0.07v-5.96q0-0.08 0-0.08 0 0-0.07 0zm29.79 0q-0.09 0-0.08 0-0.01 0 0 0.08v5.96q-0.01 0.07 0 0.07-0.01 0 0.08 0h5.95q0.07 0 0.07 0 0 0 0-0.07v-5.96q0-0.08 0-0.08 0 0-0.07 0zm-29.78 7.45q-0.08 0-0.08 0 0 0 0 0.08v5.96q0 0.07 0 0.07 0 0 0.08 0h5.95q0.07 0 0.07 0 0 0 0-0.07v-5.96q0-0.08 0-0.08 0 0-0.07 0zm29.79 0q-0.07 0-0.07 0 0 0 0 0.08v5.96q0 0.07 0 0.07 0 0 0.07 0h5.96q0.07 0 0.07 0 0 0 0-0.07v-5.96q0-0.08 0-0.08 0 0-0.07 0zm-29.79 7.46q-0.07 0-0.07 0 0 0 0 0.07v5.96q0 0.07 0 0.07 0 0 0.07 0h5.95q0.09 0 0.09 0 0 0 0-0.07v-5.96q0-0.07 0-0.07 0 0-0.09 0zm22.34 0q-0.07 0-0.07 0 0 0 0 0.07v5.96q0 0.07 0 0.07 0 0 0.07 0h5.96q0.08 0 0.08 0 0 0 0-0.07v-5.96q0-0.07 0-0.07 0 0-0.08 0zm7.45 0q-0.07 0-0.07 0 0 0 0 0.07v5.96q0 0.07 0 0.07 0 0 0.07 0h5.96q0.08 0 0.08 0 0 0 0-0.07v-5.96q0-0.07 0-0.07 0 0-0.08 0zm-22.34 7.45q-0.07 0-0.07 0 0 0 0 0.07v5.96q0 0.07 0 0.07 0 0 0.07 0h5.96q0.07 0 0.07 0 0 0 0-0.07v-5.96q0-0.07 0-0.07 0 0-0.07 0zm7.44 0q-0.08 0-0.08 0 0 0 0 0.07v5.96q0 0.07 0 0.07 0 0 0.08 0h5.96q0.08 0 0.08 0 0 0 0-0.07v-5.96q0-0.07 0-0.07 0 0-0.08 0zm14.89 0q-0.07 0-0.07 0 0 0 0 0.07v5.96q0 0.07 0 0.07 0 0 0.07 0h5.96q0.08 0 0.08 0 0 0 0-0.07v-5.96q0-0.07 0-0.07 0 0-0.08 0zm14.9-29.81q-0.09 0-0.09 0 0 0 0 0.07v5.97q0 0.07 0 0.07 0 0 0.09 0h5.95q0.08 0 0.08 0 0 0 0-0.07v-5.97q0-0.07 0-0.07 0 0-0.08 0zm14.89 0q-0.07 0-0.07 0 0 0 0 0.07v5.97q0 0.07 0 0.07 0 0 0.07 0h5.96q0.08 0 0.08 0 0 0 0-0.07v-5.97q0-0.07 0-0.07 0 0-0.08 0zm7.46 0q-0.09 0-0.09 0 0 0 0 0.07v5.97q0 0.07 0 0.07 0 0 0.09 0h5.95q0.07 0 0.07 0 0 0 0-0.07v-5.97q0-0.07 0-0.07 0 0-0.07 0zm-22.34 7.45q-0.08 0-0.08 0 0 0 0 0.08v5.96q0 0.07 0 0.07 0 0 0.08 0h5.95q0.09 0 0.09 0 0 0 0-0.07v-5.96q0-0.08 0-0.08 0 0-0.09 0zm7.45 0q-0.08 0-0.08 0 0 0 0 0.08v5.96q0 0.07 0 0.07 0 0 0.08 0h5.96q0.07 0 0.07 0 0 0 0-0.07v-5.96q0-0.08 0-0.08 0 0-0.07 0zm22.34 0q-0.08 0-0.08 0 0 0 0 0.08v5.96q0 0.07 0 0.07 0 0 0.08 0h5.96q0.08 0 0.08 0 0 0 0-0.07v-5.96q0-0.08 0-0.08 0 0-0.08 0zm-29.78 7.45q-0.09 0-0.09 0 0 0 0 0.08v5.96q0 0.07 0 0.07 0 0 0.09 0h5.95q0.07 0 0.07 0 0 0 0-0.07v-5.96q0-0.08 0-0.08 0 0-0.07 0zm29.78 0q-0.07 0-0.07 0 0 0 0 0.08v5.96q0 0.07 0 0.07 0 0 0.07 0h5.97q0.06 0 0.06 0 0 0 0-0.07v-5.96q0-0.08 0-0.08 0 0-0.06 0zm-29.8 7.46q-0.07 0-0.07 0 0 0 0 0.07v5.96q0 0.07 0 0.07 0 0 0.07 0h5.96q0.08 0 0.08 0 0 0 0-0.07v-5.96q0-0.07 0-0.07 0 0-0.08 0zm29.79 0q-0.08 0-0.08 0 0 0 0 0.07v5.96q0 0.07 0 0.07 0 0 0.08 0h5.95q0.09 0 0.09 0 0 0 0-0.07v-5.96q0-0.07 0-0.07 0 0-0.09 0zm-29.78 7.44q-0.08 0-0.08 0 0 0 0 0.08v5.96q0 0.07 0 0.07 0 0 0.08 0h5.96q0.08 0 0.08 0 0 0 0-0.07v-5.96q0-0.08 0-0.08 0 0-0.08 0zm29.79 0q-0.08 0-0.08 0 0 0 0 0.08v5.96q0 0.07 0 0.07 0 0 0.08 0h5.96q0.07 0 0.07 0 0 0 0-0.07v-5.96q0-0.08 0-0.08 0 0-0.07 0z"/>
					<path class="s0" d="m205.75 53.1q0 2.77 1.72 4.17 1.75 1.38 4.58 1.38 1.63 0 3.43-0.29 1.78-0.31 4.16-1.01v1.04q-3.46 2.05-5.62 3.2-2.12 1.13-3.65 1.57-1.53 0.49-3.19 0.49-2.13 0-4.03-0.98-1.86-0.96-3.05-3.08-1.19-2.13-1.19-5.59v-24.53l-4.73-2.89v-0.53q0.38-0.25 1.11-0.71 0.75-0.48 1.75-1.15 1.05-0.68 2.35-1.52 1.3-0.86 2.83-1.83 1.53-1.01 3.2-2.09h0.33v7.3zm-2.31-24.36v-4.02h15.16l-0.59 4.02zm41.7 26.89l-3.84 8.21-17.27-36.48-4.77-1.42v-1.22h17.73v1.22l-5.4 1.34zm-16.53 24.56q-2.39 0-3.95-1.23-1.56-1.2-1.56-3.47 0-1.08 0.36-1.78 0.38-0.68 0.94-1.01 0.59-0.34 1.11-0.34 0.52 0 1.31 0.45 0.78 0.45 1.9 0.9 1.12 0.44 2.56 0.44 1.68 0 2.95-0.53 1.27-0.47 2.34-1.89 1.12-1.41 2.24-4.1l3.04-7.26 1.58-3.87 9.45-29.45-5.54-1.11v-1.22h13.47v1.22l-4.81 1.08-15.44 41.62q-1.64 4.39-3.47 6.89-1.79 2.54-3.87 3.58-2.08 1.08-4.61 1.08zm66.49-35.28q0-8.02-2.94-11.93-2.94-3.91-8.82-3.91-2.08 0-3.98 0.48-1.91 0.45-3.65 1.49-1.76 1.04-3.42 2.83l-0.57-0.75q2.45-2.64 4.54-4.38 2.12-1.8 3.95-2.84 1.83-1.04 3.47-1.49 1.63-0.45 3.16-0.45 4.87 0 8.34 2.27 3.5 2.25 5.36 6.27 1.86 4.02 1.86 9.43 0 6.8-2.61 11.69-2.56 4.85-7.14 7.41-4.59 2.57-10.59 2.57-2.15 0.01-4.42-0.32-2.23-0.31-4.36-0.98-2.12-0.67-3.95-1.72h5v16.73l6.07 1.12v1.01h-18.25v-1.01l5.33-1.12v-46.34q-0.49-0.3-1.19-0.74-0.72-0.45-1.76-1.09-1-0.66-2.38-1.53v-0.67l12.03-3.39h0.15v6.08 23.8q0 2.42 1.23 4.32 1.23 1.91 3.35 2.98 2.11 1.08 4.73 1.08 3.65 0 6.22-1.93 2.56-1.98 3.9-5.75 1.35-3.79 1.34-9.22zm30.76-20.95q3.91 0.01 6.81 1.65 2.91 1.6 4.61 4.76 1.72 3.13 2.06 7.75h-24.65v-2.15h20.55l-2.91 1.49q-0.36-4.04-1.34-6.6-0.93-2.57-2.48-3.81-1.53-1.27-3.77-1.27-3.01 0-5.18 1.76-2.15 1.75-3.31 5.11-1.15 3.32-1.16 8.04 0 6.23 1.61 10.14 1.64 3.87 4.73 5.66 3.08 1.79 7.52 1.79 2.04 0 4.02-0.56 1.98-0.56 3.69-1.67 1.75-1.13 2.98-2.81l0.6 0.42q-2.32 3.68-4.66 5.88-2.31 2.17-4.88 3.13-2.53 0.94-5.55 0.94-4.84 0-8.75-2.16-3.87-2.2-6.15-6.45-2.23-4.29-2.23-10.54 0-5.56 2.09-10.21 2.12-4.66 6.11-7.45 4.02-2.83 9.64-2.84z"/>
				</g>
			</g>
		</g>
	</g>
</svg>