<svg width="170" height="64" viewBox="0 0 170 64" fill="none" xmlns="http://www.w3.org/2000/svg">
<path d="M51.7694 17.1672C53.1546 17.4661 54.8805 17.7971 56.5775 18.2278C57.066 18.3499 57.5321 18.7035 57.9113 19.057C58.4063 19.5134 58.1331 20.0469 57.8278 20.5033C57.5449 20.9243 57.1657 20.9276 56.6996 20.754C55.504 20.304 54.3117 19.8027 53.0743 19.507C51.3226 19.0859 49.5839 19.2981 47.8773 19.9248C44.2069 21.2682 44.2744 25.6585 46.0388 27.6351C46.9259 28.6283 48.0476 29.1875 49.2593 29.66C50.9016 30.2995 52.5279 30.9809 54.1445 31.6783C57.9949 33.34 58.8659 36.4833 58.8498 40.1761C58.8498 40.8093 58.6987 41.4489 58.5605 42.0724C58.0013 44.6339 56.4586 46.3984 53.9806 47.1955C50.5674 48.2947 47.2152 48.06 44.0815 46.2216C43.3616 45.8006 42.7252 45.1771 42.1885 44.5343C41.9346 44.2322 41.8574 43.6151 41.9667 43.2134C42.2271 42.2588 42.9245 42.0885 43.593 42.8341C44.8432 44.2258 46.2381 45.3828 48.1408 45.6078C49.3493 45.7524 50.6124 45.8167 51.8015 45.6206C54.151 45.2285 55.8383 43.9044 56.3622 41.4778C56.9021 38.9677 56.4875 36.6568 54.3856 34.9502C53.6078 34.3202 52.6822 33.8414 51.7694 33.4171C50.2685 32.7197 48.729 32.1058 47.1895 31.4887C42.4488 29.586 41.9217 25.2986 43.2009 21.5221C43.9948 19.1695 46.1192 18.2117 48.3658 17.6396C49.3428 17.3922 50.3713 17.3536 51.7598 17.1672H51.7694Z" fill="white"/>
<path d="M116.027 32.3854C116.027 28.0594 116.023 23.7302 116.027 19.4041C116.027 17.5689 116.242 17.3182 118.01 17.3086C122.345 17.2861 126.681 17.2957 131.014 17.3054C131.383 17.3054 131.83 17.27 132.103 17.4532C132.405 17.6557 132.727 18.1057 132.707 18.4271C132.691 18.7453 132.318 19.1856 131.997 19.3109C131.576 19.478 131.052 19.417 130.57 19.417C127.305 19.4234 124.042 19.417 120.777 19.4234C120.295 19.4234 119.813 19.4363 119.334 19.4652C118.701 19.5038 118.347 19.8219 118.379 20.4905C118.386 20.5965 118.373 20.7026 118.373 20.8118C118.373 23.9101 118.36 27.0084 118.379 30.1067C118.386 31.3698 118.501 31.4791 119.748 31.5434C120.549 31.5851 121.352 31.5594 122.156 31.5594C122.905 31.5594 123.653 31.5498 124.402 31.5626C125.598 31.5884 125.993 31.8133 125.996 32.4433C125.996 33.115 125.585 33.385 124.463 33.4043C123.554 33.4203 122.644 33.4075 121.735 33.4107C120.986 33.4107 120.234 33.3882 119.488 33.4268C118.505 33.4782 118.392 33.5875 118.35 34.5709C118.312 35.4773 118.338 36.3868 118.338 37.2964C118.338 40.0219 118.338 42.7473 118.338 45.4696C118.338 45.8424 118.354 46.2216 118.305 46.5913C118.225 47.218 117.833 47.4976 117.203 47.5201C116.563 47.5426 116.162 47.2791 116.075 46.6491C116.017 46.2281 116.027 45.7974 116.027 45.3699C116.027 41.0439 116.027 36.7147 116.027 32.3886V32.3854Z" fill="white"/>
<path d="M105.903 38.5466C104.405 38.5466 102.907 38.5274 101.409 38.5531C100.236 38.5756 100.166 38.672 100.117 39.8612C100.011 42.4388 101.374 44.5472 103.823 45.4631C106.089 46.3084 108.323 46.2024 110.479 45.0614C110.762 44.9103 111.029 44.6339 111.315 44.6147C111.691 44.5889 112.244 44.6436 112.421 44.8814C112.61 45.1417 112.511 45.6688 112.414 46.0481C112.356 46.2634 112.061 46.4338 111.852 46.5913C108.426 49.1432 101.692 48.0793 99.2239 44.5986C98.4687 43.5315 97.9737 42.3649 97.9641 41.0343C97.9512 39.0577 97.9994 37.0811 97.9287 35.1077C97.813 31.9258 100.715 28.9432 103.505 28.2779C107.542 27.3137 110.91 29.0139 112.552 32.0319C113.359 33.5167 113.353 35.1077 113.214 36.7115C113.15 37.4764 112.694 38.0099 111.955 38.2027C111.289 38.3763 110.598 38.5081 109.914 38.5338C108.58 38.5852 107.24 38.5499 105.903 38.5499V38.5466ZM104.832 37.0104C104.832 37.0329 104.832 37.0553 104.832 37.0811C106.327 37.0136 107.828 37.0071 109.316 36.8593C110.887 36.7018 111.357 36.014 111.103 34.5195C110.589 31.508 108.037 29.5764 104.974 29.8849C102.174 30.1646 100.069 32.604 100.114 35.5159C100.133 36.7822 100.294 36.9654 101.622 37.0071C102.692 37.0393 103.762 37.0136 104.832 37.0136V37.0104Z" fill="white"/>
<path d="M90.1733 40.4108C90.1733 42.3874 90.1798 44.364 90.1733 46.3406C90.1733 46.9802 90.0126 47.5169 89.2252 47.5619C88.6017 47.5972 88.1742 47.369 88.1003 46.7102C88.0585 46.3406 88.0875 45.9613 88.0457 45.5917C87.9814 45.0389 87.6825 44.9907 87.2904 45.3057C86.834 45.6753 86.413 46.0931 85.9437 46.4434C83.8611 47.9958 81.5566 48.2947 79.1076 47.5394C77.7963 47.1344 76.9221 46.2538 76.4593 44.9553C75.9579 43.5508 75.9675 42.111 76.3146 40.7C76.6071 39.5044 77.3913 38.5595 78.5612 38.1449C79.805 37.7014 81.1035 37.3253 82.4083 37.155C83.8321 36.9654 85.2913 37.0714 86.7344 36.9975C87.7853 36.9429 88.0489 36.6215 87.975 35.5833C87.9461 35.1591 87.84 34.7413 87.7596 34.3235C87.0943 30.9166 84.5264 29.2614 81.1356 30.0906C80.361 30.2803 79.6122 30.5792 78.8665 30.8652C78.4069 31.042 77.973 31.2959 77.6291 30.6949C77.3045 30.1292 77.3945 29.541 78.0341 29.1971C78.6833 28.85 79.4065 28.6154 80.12 28.4065C81.743 27.934 83.424 27.9469 85.0438 28.2812C88.0071 28.895 89.9677 31.328 90.1059 34.4874C90.1926 36.4608 90.1219 38.4374 90.1219 40.414C90.1444 40.414 90.1637 40.414 90.1862 40.414L90.1733 40.4108ZM85.2367 38.3634C83.6747 38.6495 82.0837 38.8295 80.5603 39.2537C79.114 39.6555 78.2687 41.0021 78.2848 42.3938C78.3041 44.0297 79.2136 45.235 80.7146 45.791C83.5493 46.8452 87.2518 44.4668 87.8368 42.1624C88.1003 41.1243 88.2032 39.8258 87.7982 38.9034C87.4415 38.0935 86.143 38.6623 85.2367 38.3602V38.3634Z" fill="white"/>
<path d="M142.391 33.3175C142.391 29.2614 142.397 25.2022 142.391 21.1461C142.388 19.4877 142.349 19.4491 140.675 19.4266C139.016 19.4041 137.358 19.4266 135.703 19.4105C135.108 19.4041 134.469 19.4041 134.375 18.591C134.295 17.8935 134.816 17.4018 135.696 17.3118C135.96 17.2861 136.23 17.299 136.497 17.299C141.202 17.299 145.91 17.2957 150.616 17.3022C151.094 17.3022 151.58 17.3279 152.049 17.4114C152.525 17.495 152.769 17.8164 152.769 18.3242C152.769 18.877 152.567 19.2756 151.985 19.3463C151.509 19.4073 151.027 19.4138 150.545 19.4202C148.996 19.4363 147.443 19.3977 145.894 19.462C144.927 19.5005 144.814 19.6741 144.76 20.6287C144.734 21.0529 144.75 21.4836 144.75 21.911C144.75 29.705 144.75 37.5021 144.75 45.296C144.75 45.7235 144.747 46.1509 144.734 46.5784C144.718 47.2469 144.307 47.5137 143.696 47.549C143.024 47.5844 142.529 47.324 142.426 46.617C142.365 46.1992 142.394 45.7653 142.394 45.3378C142.394 41.3332 142.394 37.3285 142.394 33.3239L142.391 33.3175Z" fill="white"/>
<path d="M61.0225 37.8364C61.0225 36.7693 60.9775 35.6958 61.0321 34.632C61.1864 31.5369 62.9444 29.3032 65.8756 28.3519C68.1093 27.6287 70.3077 27.7637 72.461 28.5961C73.0878 28.8372 73.6824 29.2711 74.1645 29.7467C74.5726 30.1485 74.5309 30.7366 74.1034 31.193C73.7338 31.5884 73.3513 31.4019 72.9367 31.2155C72.0657 30.8234 71.2044 30.3638 70.2852 30.1324C66.5505 29.2004 63.6162 31.2573 63.269 35.0787C63.1276 36.615 63.1662 38.177 63.2048 39.723C63.3269 44.7207 67.264 47.173 71.8761 45.1482C72.3132 44.9553 72.731 44.7111 73.1456 44.4668C73.5924 44.2033 74.0263 44.0394 74.4441 44.4957C74.8265 44.9103 74.8651 45.7299 74.3284 46.0642C73.3963 46.6459 72.3871 47.1923 71.3362 47.488C69.7259 47.9379 68.0515 47.7933 66.4059 47.5105C63.5358 47.0155 61.3374 44.6693 61.0707 41.6835C60.9582 40.4108 61.0514 39.1219 61.0514 37.8396C61.0417 37.8396 61.0289 37.8396 61.0193 37.8396L61.0225 37.8364Z" fill="white"/>
<path d="M93.0466 31.8455C93.0466 27.362 93.0466 22.8817 93.0466 18.3981C93.0466 17.9193 93.0499 17.4372 93.0852 16.9583C93.127 16.4151 93.4195 16.0423 93.9755 16.0037C94.5797 15.9619 95.0168 16.2737 95.1711 16.8522C95.2643 17.2058 95.2322 17.5946 95.2322 17.9643C95.2322 27.1948 95.2322 36.4254 95.2322 45.6592C95.2322 46.032 95.2418 46.4145 95.1615 46.7712C95.0393 47.308 94.6344 47.5426 94.0944 47.5555C93.5191 47.5683 93.1752 47.2855 93.1077 46.7295C93.0499 46.2538 93.0466 45.7717 93.0466 45.2928C93.0434 40.8093 93.0466 36.329 93.0466 31.8455Z" fill="white"/>
<path d="M29.8178 35.4741L20.7448 26.401L26.456 20.5772C27.3463 19.6677 28.5387 19.1631 29.8146 19.1566C29.8243 19.1566 29.8307 19.1566 29.8403 19.1566C31.1034 19.1566 32.2926 19.6484 33.1861 20.5451L35.6223 22.9813C37.4671 24.8261 37.4671 27.8312 35.6223 29.676L29.8211 35.4773L29.8178 35.4741ZM26.231 26.3753L29.8178 29.9621L32.8647 26.9152C33.1893 26.5906 33.1893 26.0603 32.8647 25.7325L30.4285 23.2963C30.2132 23.0809 29.9625 23.052 29.8339 23.052C29.7054 23.052 29.4547 23.0874 29.2425 23.3027L26.2342 26.3721L26.231 26.3753Z" fill="white"/>
<path d="M18 32.7229C17.9968 30.4442 18.871 28.294 20.4651 26.6677L23.4574 23.6016L26.2182 26.3624L24.8844 27.7573L23.2517 29.4221C22.3807 30.3092 21.9018 31.4823 21.8986 32.7261H18V32.7229Z" fill="white"/>
<path d="M29.8403 46.2827H29.8146C28.5419 46.2763 27.3495 45.7717 26.4592 44.8621L20.748 39.0352L29.8211 29.9621L35.6223 35.7633C37.4671 37.6082 37.4671 40.6132 35.6223 42.4581L33.1861 44.8943C32.2926 45.7878 31.1034 46.2795 29.8403 46.2795V46.2827ZM26.2342 39.0641L29.2425 42.1335C29.4547 42.3488 29.7054 42.3841 29.8339 42.3841H29.8371C29.9689 42.3841 30.2164 42.352 30.4285 42.1399L32.8647 39.7037C33.1893 39.3791 33.1893 38.8488 32.8647 38.5209L29.8178 35.4741L26.231 39.0609L26.2342 39.0641Z" fill="white"/>
<path d="M23.4831 41.8346L22.0753 40.4268L20.4587 38.7684C18.871 37.1453 17.9968 34.9952 18 32.7165H21.8986C21.8986 33.9603 22.3807 35.1334 23.2517 36.0204L26.2246 39.0512L23.4863 41.8346H23.4831Z" fill="white"/>
</svg>
