<svg width="170" height="64" viewBox="0 0 170 64" fill="none" xmlns="http://www.w3.org/2000/svg">
<path d="M28.1787 20.322C30.3657 20.322 32.143 22.0993 32.143 24.2863V44.1079L24.2144 41.465H14.9643C14.2375 41.465 13.557 41.2735 12.9756 40.9298L25.8794 30.8935L12.9756 20.8572C13.557 20.5136 14.2375 20.322 14.9643 20.322H28.1787ZM21.5715 30.8935L11.2577 38.9081C11.0925 38.472 11 37.9963 11 37.5007V24.2863C11 23.7908 11.0925 23.315 11.2577 22.879L21.5715 30.8935Z" fill="white"/>
<path d="M46.7383 30.498C49.0482 31.1541 50.3597 32.6242 50.3597 34.7769C50.3597 37.3233 48.2077 38.9771 45.2675 38.9771C43.1941 38.9771 41.2253 38.1894 40.0703 36.5357L42.4852 34.4881C43.0891 35.4072 44.2176 35.9318 45.4519 35.9318C46.3696 35.9318 47.0792 35.6173 47.0792 34.987C47.0792 34.4095 46.5539 34.1729 45.1367 33.7792L44.2176 33.5169C41.8291 32.8872 40.6213 31.3114 40.6742 29.2645C40.7 26.8753 42.7218 25.2744 45.4776 25.2744C47.3943 25.2744 48.8903 25.9833 49.9666 27.1383L47.9454 29.3167C47.2107 28.6606 46.2917 28.2404 45.3204 28.2404C44.5063 28.2404 43.9289 28.5027 43.9289 29.0544C43.9289 29.5268 44.2176 29.7891 45.504 30.1564L46.7383 30.498ZM57.948 25.2741C61.3871 25.2741 64.4059 27.4796 64.4059 31.732C64.4059 32.0472 64.4059 32.4139 64.3537 32.9656H54.5355C54.7456 34.7244 56.2943 35.6957 58.0273 35.6957C59.6546 35.6957 60.836 34.9345 61.4136 34.0419L64.0908 36.0365C62.8836 37.7955 60.7574 38.9768 58.0009 38.9768C54.0894 38.9768 51.0442 36.2731 51.0442 32.1258C51.0442 28.2401 53.9579 25.2741 57.948 25.2741ZM54.667 30.5242H60.8096C60.4944 28.9755 59.1823 28.2401 57.8437 28.2401C56.5044 28.2401 55.0085 28.9233 54.667 30.5242ZM73.2542 25.2743C76.4309 25.2743 78.3206 27.5848 78.3206 30.9968V38.6881H74.7242V31.6006C74.7242 29.7103 73.9109 28.5554 72.4143 28.5554C70.7606 28.5554 69.4999 29.7632 69.4999 32.2832V38.6881H65.9043V25.563H69.4999V27.0595C70.1832 26.009 71.5482 25.2743 73.2542 25.2743ZM89.5848 27.033V19H93.1811V38.6881H89.5848V37.218C89.0074 38.0584 87.6159 38.9768 85.8049 38.9768C82.3129 38.9768 79.6357 35.853 79.6357 32.1259C79.6357 28.3981 82.3129 25.2742 85.8049 25.2742C87.6159 25.2742 89.0074 26.1933 89.5848 27.033ZM86.566 35.6958C88.5343 35.6958 89.8736 34.1728 89.8736 32.1259C89.8736 30.0783 88.5343 28.5553 86.566 28.5553C84.5977 28.5553 83.2585 30.0783 83.2585 32.1259C83.2585 34.1728 84.5977 35.6958 86.566 35.6958ZM101.164 30.498C103.474 31.1541 104.786 32.6242 104.786 34.7769C104.786 37.3233 102.634 38.9771 99.693 38.9771C97.6196 38.9771 95.6507 38.1894 94.4958 36.5357L96.9107 34.4881C97.5146 35.4072 98.6438 35.9318 99.8773 35.9318C100.796 35.9318 101.505 35.6173 101.505 34.987C101.505 34.4095 100.98 34.1729 99.5622 33.7792L98.6438 33.5169C96.2546 32.8872 95.0475 31.3114 95.0996 29.2645C95.1261 26.8753 97.1473 25.2744 99.9038 25.2744C101.82 25.2744 103.316 25.9833 104.393 27.1383L102.371 29.3167C101.636 28.6606 100.717 28.2404 99.7459 28.2404C98.9325 28.2404 98.3551 28.5027 98.3551 29.0544C98.3551 29.5268 98.6438 29.7891 99.9295 30.1564L101.164 30.498ZM113.713 25.2742C117.204 25.2742 119.882 28.3981 119.882 32.1259C119.882 35.853 117.204 38.9768 113.713 38.9768C111.902 38.9768 110.51 38.0584 109.906 37.218V44.1747H106.31V25.5629H109.906V27.033C110.51 26.1933 111.902 25.2742 113.713 25.2742ZM112.925 35.6958C114.894 35.6958 116.233 34.1728 116.233 32.1259C116.233 30.0783 114.894 28.5553 112.925 28.5553C110.957 28.5553 109.618 30.0783 109.618 32.1259C109.618 34.1728 110.957 35.6958 112.925 35.6958ZM130.462 27.033V25.5629H134.059V38.6881H130.462V37.218C129.885 38.0584 128.494 38.9768 126.682 38.9768C123.191 38.9768 120.513 35.853 120.513 32.1259C120.513 28.3981 123.191 25.2742 126.682 25.2742C128.494 25.2742 129.885 26.1933 130.462 27.033ZM127.443 35.6958C129.413 35.6958 130.752 34.1728 130.752 32.1259C130.752 30.0783 129.413 28.5553 127.443 28.5553C125.475 28.5553 124.136 30.0783 124.136 32.1259C124.136 34.1728 125.475 35.6958 127.443 35.6958ZM139.993 27.6629C140.44 26.3765 141.778 25.4052 143.25 25.4052C143.616 25.4052 144.01 25.4316 144.457 25.5631V29.2116C143.905 29.0279 143.405 28.9229 142.829 28.9229C141.122 28.9229 139.993 30.2622 139.993 32.4141V38.6884H136.398V25.5631H139.993V27.6629ZM152.947 31.8662L159 38.6881H154.564L149.208 32.6505V38.6881H145.612V19.0001H149.208V28.7695C149.503 28.8712 149.817 28.9333 150.153 28.9333C151.649 28.9333 152.464 27.7784 152.464 25.8887V24.747H156.06V26.492C156.06 29.1296 154.926 31.1038 152.947 31.8662Z" fill="white"/>
</svg>
