<svg width="170" height="64" viewBox="0 0 170 64" fill="none" xmlns="http://www.w3.org/2000/svg">
<path d="M121.061 30.4396C121.061 28.593 121.955 27.6986 123.427 27.6986C124.696 27.6986 125.648 28.5353 125.648 30.4396V38.8066H130.179V29.0835C130.179 26.2849 128.476 23.9479 124.956 23.9479C123.109 23.9479 121.666 24.6403 120.685 26.256H120.628L120.051 24.3807H116.53V38.8066H121.061V30.4396Z" fill="white"/>
<path d="M108.605 23.9189C104.478 23.9189 101.16 26.8618 101.16 31.3916V31.8821C101.16 36.4984 104.68 39.2682 108.778 39.2682C112.067 39.2682 115.039 37.6236 115.732 34.3056H111.49C111.057 35.402 110.076 35.806 108.893 35.806C107.018 35.806 105.95 34.4788 105.777 32.6899H115.703C115.732 32.4014 115.761 31.6801 115.761 31.1031C115.761 26.2559 112.298 23.9189 108.605 23.9189ZM111.259 29.8047H105.863C106.094 28.3044 106.96 27.1504 108.72 27.1504C110.249 27.1504 111.259 28.2467 111.259 29.8047Z" fill="white"/>
<path d="M91.7452 33.0939V24.3806H87.215V32.8054C87.215 37.1043 89.6964 39.2394 93.8514 39.2394C98.0067 39.2394 100.517 37.1332 100.517 32.8054V24.3806H96.1309V33.0939C96.1309 34.9693 95.0634 35.6329 93.9379 35.6329C92.8417 35.6329 91.7452 34.9693 91.7452 33.0939Z" fill="white"/>
<path d="M81.6477 37.5372H81.7054V44H86.2357V24.3807H83.0039L82.4267 26.0541H82.3689C81.4169 24.698 79.8297 23.9479 77.8964 23.9479C73.9722 23.9479 71.0292 27.3235 71.0292 31.3917V31.9399C71.0292 36.3831 74.1742 39.2394 77.5502 39.2394C79.3392 39.2394 80.8397 38.5758 81.6477 37.5372ZM75.7902 31.5359C75.7902 29.4009 76.7425 27.6698 78.7909 27.6698C80.8397 27.6698 81.7919 29.4297 81.7919 31.6225C81.7919 33.7575 80.8397 35.4887 78.7909 35.4887C76.7425 35.4887 75.7902 33.7287 75.7902 31.5359Z" fill="white"/>
<path d="M63.338 23.9189C59.2118 23.9189 55.8935 26.8618 55.8935 31.3916V31.8821C55.8935 36.4984 59.4138 39.2682 63.511 39.2682C66.8005 39.2682 69.7725 37.6236 70.465 34.3056H66.2235C65.7905 35.402 64.8095 35.806 63.6265 35.806C61.751 35.806 60.6833 34.4788 60.5103 32.6899H70.4362C70.465 32.4014 70.494 31.6801 70.494 31.1031C70.494 26.2559 67.0312 23.9189 63.338 23.9189ZM65.9925 29.8047H60.5968C60.8275 28.3044 61.6933 27.1504 63.4533 27.1504C64.9828 27.1504 65.9925 28.2467 65.9925 29.8047Z" fill="white"/>
<path d="M43.4749 28.4782V28.709C43.4749 29.7188 43.9076 30.7575 44.5424 31.3922C45.9851 32.8348 48.1781 33.0079 49.6498 33.3541C50.8616 33.6427 51.2078 34.2197 51.2078 34.8833C51.2078 35.7489 50.5153 36.1816 49.4766 36.1816C48.2358 36.1816 47.4569 35.4892 47.3991 34.1043H43.3016V34.4217C43.4749 37.9416 46.1584 39.2399 49.4766 39.2399C52.4198 39.2399 55.6516 37.8839 55.6516 34.4794V34.1908C55.6516 33.181 55.3053 32.2001 54.6993 31.5365C53.1988 30.0362 51.1213 29.8342 49.2746 29.488C48.4956 29.3437 47.9761 28.9398 47.9761 28.1896C47.9761 27.526 48.4956 27.0067 49.4766 27.0067C50.5731 27.0067 51.1791 27.5837 51.1791 28.5359H55.2763V28.2185C55.2763 25.189 52.4776 23.9195 49.3901 23.9195C46.6489 23.9195 43.4749 25.1025 43.4749 28.4782Z" fill="white"/>
<path d="M138.456 27.5254C139.957 27.5254 140.996 28.4198 141.284 30.0356H145.411V29.6605C145.093 25.9674 141.919 23.9189 138.254 23.9189C134.099 23.9189 130.723 26.9484 130.723 31.3339V31.8821C130.723 36.4407 134.186 39.2682 138.283 39.2682C141.775 39.2682 145.007 37.2197 145.411 33.5266V33.1516H141.284C140.909 34.825 140.043 35.6617 138.456 35.6617C136.321 35.6617 135.311 33.9306 135.311 31.5936C135.311 29.2854 136.292 27.5254 138.456 27.5254Z" fill="white"/>
<path d="M153.36 23.9189C149.234 23.9189 145.916 26.8618 145.916 31.3916V31.8821C145.916 36.4984 149.436 39.2682 153.534 39.2682C156.823 39.2682 159.795 37.6236 160.488 34.3056H156.246C155.813 35.402 154.832 35.806 153.649 35.806C151.773 35.806 150.706 34.4788 150.533 32.6899H160.459C160.488 32.4014 160.516 31.6801 160.516 31.1031C160.516 26.2559 157.054 23.9189 153.36 23.9189ZM156.015 29.8047H150.619C150.85 28.3044 151.716 27.1504 153.476 27.1504C155.005 27.1504 156.015 28.2467 156.015 29.8047Z" fill="white"/>
<path fill-rule="evenodd" clip-rule="evenodd" d="M32.7499 31.375C32.7499 37.6572 27.6572 42.7499 21.375 42.7499C15.0928 42.7499 10 37.6572 10 31.375C10 25.0928 15.0928 20 21.375 20C27.6572 20 32.7499 25.0928 32.7499 31.375ZM23.0146 31.375C23.0146 32.2805 22.2805 33.0146 21.375 33.0146C20.4694 33.0146 19.7353 32.2805 19.7353 31.375C19.7353 30.4694 20.4694 29.7353 21.375 29.7353C22.2805 29.7353 23.0146 30.4694 23.0146 31.375ZM21.375 40.2904C22.5635 40.2904 23.527 39.3269 23.527 38.1384C23.527 36.9499 22.5635 35.9864 21.375 35.9864C20.1864 35.9864 19.2229 36.9499 19.2229 38.1384C19.2229 39.3269 20.1864 40.2904 21.375 40.2904ZM23.527 24.6114C23.527 25.8 22.5635 26.7635 21.375 26.7635C20.1864 26.7635 19.2229 25.8 19.2229 24.6114C19.2229 23.423 20.1864 22.4595 21.375 22.4595C22.5635 22.4595 23.527 23.423 23.527 24.6114ZM29.0959 35.8327C29.6902 34.8034 29.3376 33.4872 28.3083 32.893C27.279 32.2987 25.9628 32.6513 25.3685 33.6806C24.7743 34.71 25.127 36.0261 26.1562 36.6204C27.1855 37.2146 28.5017 36.862 29.0959 35.8327ZM16.5936 26.1296C17.6229 26.7238 17.9756 28.04 17.3813 29.0693C16.787 30.0986 15.4709 30.4513 14.4416 29.857C13.4123 29.2627 13.0596 27.9466 13.6539 26.9172C14.2482 25.8879 15.5643 25.5353 16.5936 26.1296ZM29.0961 26.9172C28.5018 25.8879 27.1856 25.5353 26.1563 26.1295C25.127 26.7237 24.7744 28.0399 25.3686 29.0692C25.9629 30.0986 27.279 30.4513 28.3083 29.8569C29.3376 29.2627 29.6903 27.9465 29.0961 26.9172ZM14.4416 32.893C15.4709 32.2988 16.787 32.6514 17.3813 33.6807C17.9756 34.71 17.6229 36.0262 16.5936 36.6204C15.5643 37.2148 14.2482 36.8621 13.6539 35.8327C13.0596 34.8034 13.4123 33.4872 14.4416 32.893Z" fill="white"/>
</svg>
