<svg width="170" height="64" viewBox="0 0 170 64" fill="none" xmlns="http://www.w3.org/2000/svg">
<path d="M46.7971 29.0121C46.5567 29.0121 46.3467 28.8508 46.283 28.6191C46.0864 27.9044 45.6911 27.6375 45.0852 27.6375C44.417 27.6375 43.8441 28.1148 43.8441 28.7448C43.8441 29.5848 44.6078 29.9666 46.1543 30.635C49.2663 31.9714 50.0491 33.0979 50.0491 34.9497C50.0491 37.6799 48.1781 39.2836 45.1234 39.2836C42.0495 39.2836 40.0257 37.6799 40.0257 34.6443C40.0257 34.4756 40.1625 34.3388 40.3312 34.3388H43.3265C43.4851 34.3388 43.6151 34.4604 43.6309 34.6182C43.7307 35.624 44.2807 36.2672 45.1042 36.2672C45.8487 36.2672 46.4598 35.6753 46.4598 34.9117C46.4598 33.7853 44.8942 33.2888 43.615 32.7733C41.3048 31.8378 40.2548 30.6159 40.2548 28.7831C40.2548 26.3774 42.5841 24.621 45.1805 24.621C46.116 24.621 46.9371 24.831 47.6816 25.2129C49.0264 25.9107 49.7488 26.8817 49.9033 28.4236C49.9349 28.7383 49.6889 29.0122 49.3726 29.0122L46.7971 29.0121Z" fill="white"/>
<path d="M58.811 39.0164C58.5165 39.0164 58.2778 38.7776 58.2778 38.4831V33.1932C58.2778 31.8186 57.7432 31.0358 56.5785 31.0358C55.3757 31.0358 54.803 31.7422 54.803 33.0595V38.483C54.803 38.7775 54.5642 39.0162 54.2697 39.0162H52.1668C51.8723 39.0162 51.6336 38.7775 51.6336 38.483V25.4213C51.6336 25.1268 51.8723 24.8881 52.1668 24.8881H54.2697C54.5642 24.8881 54.803 25.1268 54.803 25.4213V29.4321C55.2612 28.573 56.2922 28.0575 57.5523 28.0575C59.977 28.0575 61.4471 29.5848 61.4471 32.3532V38.4831C61.4471 38.7776 61.2083 39.0164 60.9138 39.0164H58.811Z" fill="white"/>
<path d="M72.1945 39.0164C71.9 39.0164 71.6612 38.7776 71.6612 38.4831V37.8708H71.6231C71.1649 38.8062 69.9048 39.3791 68.511 39.3791C65.3799 39.3791 63.2034 36.9162 63.2034 33.7087C63.2034 30.5776 65.4754 28.0574 68.511 28.0574C69.8092 28.0574 71.0121 28.5729 71.6231 29.5466H71.6612V28.9534C71.6612 28.6589 71.9 28.4201 72.1945 28.4201H74.2973C74.5918 28.4201 74.8305 28.6589 74.8305 28.9534V38.4831C74.8305 38.7776 74.5918 39.0164 74.2973 39.0164H72.1945ZM71.6612 33.7087C71.6612 32.2194 70.4584 31.0167 68.9692 31.0167C67.5183 31.0167 66.3727 32.2194 66.3727 33.7469C66.3727 35.2169 67.5373 36.4198 69.0074 36.4198C70.4965 36.4198 71.6612 35.2361 71.6612 33.7087Z" fill="white"/>
<path d="M77.1215 38.4831V28.9534C77.1215 28.6589 77.3603 28.4201 77.6548 28.4201H79.5667C79.8612 28.4201 80.0999 28.6589 80.0999 28.9534V29.5466H80.1381C80.5967 28.6135 81.2781 28.2045 82.1929 28.0916C82.511 28.0523 82.7918 28.3006 82.7918 28.621V30.7371C82.7918 31.0134 82.5804 31.2444 82.3051 31.2681C80.7951 31.3982 80.2907 32.0812 80.2907 33.1741V38.4831C80.2907 38.7776 80.052 39.0164 79.7575 39.0164H77.6547C77.3603 39.0164 77.1215 38.7776 77.1215 38.4831Z" fill="white"/>
<path d="M86.4766 34.6825C86.6484 35.8852 87.6603 36.6872 88.9586 36.6872C89.7362 36.6872 90.2636 36.4213 90.739 35.8753C90.8394 35.7598 90.9858 35.6943 91.1388 35.6943H93.2618C93.6731 35.6943 93.9324 36.142 93.7228 36.4958C92.6461 38.3147 90.9201 39.36 88.9587 39.36C85.904 39.36 83.3456 36.8971 83.3456 33.7469C83.3456 30.6921 85.7894 28.0574 88.9014 28.0574C92.0707 28.0574 94.4954 30.5585 94.4954 33.8423C94.4954 33.9655 94.4922 34.0793 94.4848 34.1901C94.4662 34.4681 94.2318 34.6824 93.9532 34.6824H86.4766V34.6825ZM91.326 32.5441C91.0779 31.4559 90.1233 30.7303 88.9013 30.7303C87.7557 30.7303 86.763 31.4176 86.5148 32.5441H91.326Z" fill="white"/>
<path d="M106.384 39.0164C106.136 39.0164 105.92 38.8452 105.864 38.6035L103.841 29.8712H103.802L101.779 38.6035C101.723 38.8452 101.507 39.0164 101.259 39.0164H98.8314C98.5882 39.0164 98.3759 38.8518 98.3151 38.6164L94.9437 25.5547C94.8566 25.2171 95.1114 24.8882 95.46 24.8882H98.0028C98.2558 24.8882 98.474 25.0661 98.5251 25.314L100.328 34.0715H100.366L102.353 25.3035C102.408 25.0606 102.624 24.8882 102.873 24.8882H104.787C105.037 24.8882 105.254 25.062 105.308 25.3061L107.258 34.1098H107.296L109.136 25.3124C109.187 25.0653 109.405 24.8883 109.658 24.8883H112.178C112.528 24.8883 112.783 25.2198 112.694 25.558L109.234 38.6198C109.172 38.8536 108.961 39.0165 108.719 39.0165L106.384 39.0164Z" fill="white"/>
<path d="M114.15 38.4831V30.0198C114.15 29.7253 114.389 29.4865 114.683 29.4865H116.786C117.081 29.4865 117.32 29.7253 117.32 30.0198V38.4831C117.32 38.7776 117.081 39.0164 116.786 39.0164H114.683C114.389 39.0164 114.15 38.7776 114.15 38.4831Z" fill="white"/>
<path d="M119.706 38.4831V25.4213C119.706 25.1268 119.945 24.8881 120.239 24.8881H122.342C122.636 24.8881 122.875 25.1268 122.875 25.4213V38.4831C122.875 38.7776 122.636 39.0164 122.342 39.0164H120.239C119.944 39.0164 119.706 38.7776 119.706 38.4831Z" fill="white"/>
<path d="M125.166 38.4831V25.4213C125.166 25.1268 125.405 24.8881 125.699 24.8881H127.802C128.097 24.8881 128.336 25.1268 128.336 25.4213V38.4831C128.336 38.7776 128.097 39.0164 127.802 39.0164H125.699C125.405 39.0164 125.166 38.7776 125.166 38.4831Z" fill="white"/>
<path d="M135.838 39.3409C132.612 39.3409 130.13 36.9544 130.13 33.7087C130.13 30.4248 132.669 28.0765 135.838 28.0765C139.027 28.0765 141.547 30.463 141.547 33.6705C141.547 36.9925 139.027 39.3409 135.838 39.3409ZM138.378 33.7087C138.378 32.2958 137.309 31.0358 135.819 31.0358C134.426 31.0358 133.299 32.2576 133.299 33.7087C133.299 35.1598 134.407 36.3816 135.838 36.3816C137.328 36.3816 138.378 35.1216 138.378 33.7087Z" fill="white"/>
<path d="M152.136 39.0164C151.893 39.0164 151.681 38.8521 151.62 38.6168L149.948 32.1623H149.909L148.237 38.6168C148.176 38.8521 147.964 39.0164 147.721 39.0164H145.588C145.354 39.0164 145.147 38.8634 145.078 38.6393L142.159 29.1096C142.054 28.7668 142.31 28.4202 142.669 28.4202H144.812C145.058 28.4202 145.272 28.5891 145.33 28.8287L146.816 35.007H146.854L148.487 28.8175C148.549 28.5834 148.761 28.4202 149.003 28.4202H150.855C151.097 28.4202 151.308 28.5826 151.37 28.8161L153.021 35.007H153.059L154.546 28.8287C154.603 28.5891 154.818 28.4202 155.064 28.4202H157.187C157.545 28.4202 157.802 28.7676 157.696 29.1105L154.76 38.6402C154.691 38.8638 154.484 39.0164 154.25 39.0164H152.136Z" fill="white"/>
<path d="M115.735 28.0766C116.621 28.0766 117.339 27.3586 117.339 26.4729C117.339 25.5872 116.621 24.8692 115.735 24.8692C114.849 24.8692 114.131 25.5872 114.131 26.4729C114.131 27.3586 114.849 28.0766 115.735 28.0766Z" fill="white"/>
<path d="M20.1204 28.5987V20C15.61 20.1514 12 23.8549 12 28.402C12 28.5644 12.0046 28.7257 12.0137 28.8858C12.3096 34.1004 20.1204 33.8216 20.1204 28.5987Z" fill="white"/>
<path d="M23.5345 35.4012V43.9999C28.0449 43.8486 31.6549 40.145 31.6549 35.5979C31.6549 35.4355 31.6504 35.2742 31.6413 35.1141C31.3454 29.8995 23.5345 30.1783 23.5345 35.4012Z" fill="white"/>
<path d="M31.3634 28.9872C31.3634 24.0238 27.3397 20 22.3762 20C22.3762 24.9636 26.3999 28.9872 31.3634 28.9872Z" fill="white"/>
<path d="M12.2917 35.0128C12.2916 39.9762 16.3153 44 21.2788 44V43.9999C21.2788 39.0364 17.2552 35.0128 12.2917 35.0128Z" fill="white"/>
</svg>
