<svg width="170" height="64" viewBox="0 0 170 64" fill="none" xmlns="http://www.w3.org/2000/svg">
<path d="M39.8558 18.2028C35.7022 18.2028 31.3245 20.0927 31.3245 24.8585C31.3245 28.5212 34.0385 29.8358 36.7525 30.6105C39.4073 31.4206 42.2039 31.8666 42.2039 33.9443C42.2039 36.069 40.0091 36.973 38.1094 36.973C35.5724 36.973 33.6373 36.1864 33.4721 33.6744V33.6627C33.4367 33.2988 33.1417 33.0169 32.7641 33.0169H29.708C29.3186 33.0169 29 33.3339 29 33.7213C29 33.733 29 33.7448 29 33.7448C29.2714 38.4285 32.2213 40.6236 37.9325 40.6236C42.0269 40.6236 46.6998 38.675 46.6998 33.5452C46.6998 29.7068 44.3161 28.4155 40.9415 27.5469C39.4664 27.218 35.8202 26.6194 35.8202 24.5182C35.8202 22.5109 37.779 21.8535 39.5844 21.8535C41.5903 21.8535 43.2068 22.5461 43.4192 24.4712C43.4192 24.4829 43.4192 24.4829 43.4192 24.4947C43.4783 24.8352 43.7733 25.0816 44.1273 25.0816H47.1835C47.5728 25.0816 47.8914 24.7646 47.8914 24.3773C47.8914 24.3773 47.8914 24.3539 47.8914 24.3422C47.5493 19.9519 44.0329 18.2028 39.8558 18.2028Z" fill="white"/>
<path d="M66.0985 24.2012C62.7945 24.2012 59.703 25.2812 58.8534 28.6268C58.8534 28.6386 58.8534 28.6619 58.8534 28.6737C58.8062 29.0375 59.0422 29.3194 59.4199 29.3194H62.0629C62.3933 29.3194 62.7237 29.0846 62.8653 28.7793C62.8653 28.7676 62.877 28.7676 62.877 28.7558C63.3492 27.5819 64.5409 27.042 65.886 27.042C66.9717 27.042 68.6 27.3708 68.6 28.9321C68.6 30.9392 66.6768 30.7044 62.6647 31.1739C58.9242 31.6202 56.6941 33.4514 56.6941 36.4447C56.6941 38.6046 58.3815 40.5179 61.7561 40.5179C63.538 40.5179 65.3433 39.8842 66.5115 38.5693V39.3911C66.5115 39.7785 66.8301 40.0955 67.2195 40.0955H69.9334C70.3227 40.0955 70.6531 39.7785 70.6413 39.3911C70.6413 39.2854 70.6296 39.2502 70.6296 39.2034C70.6296 38.6046 70.6886 37.6773 70.842 37.1019L72.2225 30.8689C72.435 29.9064 72.5529 28.9554 72.5529 28.2628C72.6709 24.7999 68.8714 24.2012 66.0985 24.2012ZM63.3255 37.6889C62.0865 37.6889 60.9773 37.1138 60.9773 35.9516C60.9773 34.0382 62.5467 33.5805 64.1397 33.4396C65.3787 33.3457 66.6648 33.3221 67.7504 32.6884L67.3255 34.1907C66.8536 35.8577 65.9805 37.6889 63.3255 37.6889Z" fill="white"/>
<path d="M85.4968 24.2012C83.2312 24.2012 81.426 25.0699 80.0452 26.7839H79.9744L80.293 25.34C80.3755 24.9526 80.1279 24.6356 79.7385 24.6356H77.0717C76.6823 24.6356 76.293 24.9526 76.2104 25.3282C76.1278 25.6921 73.2487 39.4264 73.2487 39.4264C73.166 39.8138 73.4138 40.1306 73.8032 40.1306H76.6706C77.06 40.1306 77.4494 39.8138 77.532 39.4264L79.1248 31.8901C79.6088 29.7301 80.9067 27.5703 83.4908 27.5703C84.4819 27.5703 85.5439 28.2277 85.5439 29.1549C85.5439 29.5776 85.367 30.5637 85.2725 31.0449L83.5262 39.4264C83.4435 39.8138 83.6913 40.1306 84.0808 40.1306H86.9364C87.3257 40.1306 87.7152 39.8138 87.7977 39.4264L89.5795 31.0449C89.674 30.5049 90.0278 29.0375 90.0278 28.3802C90.0396 25.6335 88.4702 24.2012 85.4968 24.2012Z" fill="white"/>
<path d="M54.1806 40.2951C54.5228 40.2597 54.8649 39.9545 54.9477 39.5907L55.3606 37.7124C55.4431 37.3251 55.1835 36.9965 54.8058 37.0081C54.4165 37.0198 54.4285 37.0198 54.1806 37.0198C53.5434 37.0198 52.7293 36.9965 52.7293 35.8812C52.7293 35.7638 52.7646 35.4939 52.8471 35.1651L56.2337 19.4119C56.3163 19.0245 56.0686 18.7076 55.6792 18.7076H52.8236C52.4342 18.7076 52.0448 19.0245 51.9623 19.4119L48.4576 35.7638C48.3398 36.3272 48.2453 36.8438 48.2453 37.2312C48.1509 39.7549 50.3221 40.3772 52.3161 40.3772C53.0124 40.389 53.8384 40.3419 54.1806 40.2951Z" fill="white"/>
<path d="M107.893 24.6121H105.227C104.837 24.6121 104.448 24.9291 104.365 25.3165L104.023 26.9716H103.964C103.091 24.9291 101.368 24.1895 99.2088 24.1895C94.2411 24.1895 91.3501 29.0142 91.3501 33.5452C91.3501 37.3486 93.6393 39.8724 97.3445 39.8724C99.0909 39.8724 100.507 39.1563 101.628 37.6889L101.687 37.7477C100.814 40.7763 100.094 43.1474 97.3445 43.1474C96.1527 43.1474 94.831 42.6662 94.5833 41.4805V41.469C94.5126 41.1637 94.2292 40.9289 93.8989 40.9289H91.0434C90.6541 40.9289 90.3355 41.2459 90.3355 41.6332C90.3355 41.6918 90.3472 41.7507 90.3472 41.7976C90.7956 44.8615 94.0642 46 96.9433 46C102.064 46 104.507 43.9928 105.533 39.309L108.483 25.3283C108.531 24.9291 108.283 24.6121 107.893 24.6121ZM98.5127 36.6678C96.4949 36.6678 95.6218 35.083 95.6218 33.2518C95.6218 30.7633 97.1321 27.4059 99.9875 27.4059C102.064 27.4059 103.056 28.8147 103.056 30.7633C103.056 33.4045 101.557 36.6678 98.5127 36.6678Z" fill="white"/>
<path d="M126.02 24.202C122.716 24.202 119.625 25.282 118.775 28.6276C118.775 28.6391 118.775 28.6627 118.775 28.6745C118.728 29.0383 118.963 29.32 119.341 29.32H121.984C122.314 29.32 122.645 29.0854 122.787 28.7801C122.787 28.7684 122.798 28.7684 122.798 28.7566C123.271 27.5827 124.462 27.0428 125.807 27.0428C126.893 27.0428 128.522 27.3713 128.522 28.9326C128.522 30.9401 126.598 30.7053 122.586 31.1747C118.846 31.621 116.615 33.4522 116.615 36.4454C116.615 38.6054 118.302 40.5187 121.677 40.5187C123.459 40.5187 125.265 39.885 126.433 38.5701V39.3919C126.433 39.7793 126.751 40.0961 127.141 40.0961H129.854C130.244 40.0961 130.574 39.7793 130.563 39.3919C130.563 39.2862 130.551 39.2509 130.551 39.2041C130.551 38.6054 130.61 37.678 130.763 37.1027L132.144 30.8695C132.356 29.9069 132.474 28.9561 132.474 28.2636C132.592 24.8007 128.793 24.202 126.02 24.202ZM123.247 37.6897C122.008 37.6897 120.899 37.1145 120.899 35.9524C120.899 34.0391 122.467 33.5813 124.061 33.4403C125.3 33.3465 126.586 33.3229 127.672 32.6892L127.247 34.1916C126.775 35.8585 125.902 37.6897 123.247 37.6897Z" fill="white"/>
<path d="M135.44 40.1058C134.953 40.1058 134.463 40.1058 133.956 40.1058C133.449 40.1067 133.073 39.897 133.145 39.3968C133.257 38.6103 133.537 37.6478 133.703 36.8659C134.51 33.1094 135.323 29.3531 136.143 25.5968C136.195 25.3619 136.266 25.1084 136.321 24.8618C136.359 24.6929 136.39 24.5914 136.491 24.49C136.607 24.3872 136.824 24.2884 136.981 24.2872C137.894 24.2872 138.621 24.2872 139.533 24.2872C139.869 24.2872 140.009 24.3604 140.114 24.415C140.219 24.4696 140.312 24.5466 140.384 24.6403C140.456 24.734 140.506 24.8423 140.53 24.9573C140.555 25.0723 140.553 25.1912 140.526 25.3055C140.309 26.348 140.075 27.3856 139.852 28.4258C139.099 31.8895 138.342 35.1203 137.607 38.5856C137.571 38.7523 137.548 38.8245 137.505 38.9912C137.343 39.6227 137.16 40.087 136.491 40.1058C136.47 40.1069 136.512 40.1069 136.491 40.1058C136.153 40.1058 135.778 40.1058 135.44 40.1058Z" fill="white"/>
<path d="M139.269 21.7033C138.823 21.7033 138.373 21.7009 137.931 21.7033C137.707 21.7009 137.681 21.6866 137.567 21.6344C137.453 21.5822 137.353 21.503 137.275 21.4036C137.198 21.304 137.145 21.2211 137.122 21.0967C137.098 20.9724 137.085 20.8592 137.122 20.738C137.271 20.0237 137.453 19.2772 137.613 18.5724C137.62 18.4908 137.643 18.4113 137.679 18.3385C137.716 18.2658 137.768 18.2011 137.83 18.1485C137.892 18.0957 137.964 18.056 138.041 18.0315C138.119 18.007 138.2 17.9983 138.28 18.0058C139.201 18.0058 140.122 17.9868 141.043 18.0177C141.303 18.0262 141.461 18.1347 141.631 18.3042C141.732 18.4056 141.895 18.5938 141.834 18.9127C141.699 19.6269 141.492 20.5522 141.326 21.245C141.215 21.7212 141.029 21.6914 140.545 21.7009C140.121 21.7009 139.694 21.7033 139.269 21.7033Z" fill="white"/>
<path d="M111.687 35.4494C112.204 35.4494 112.723 35.4326 113.239 35.4494C113.903 35.442 114.182 35.5527 114.058 36.2003C113.853 37.2224 113.632 38.5264 113.395 39.5469C113.27 40.0874 113.123 40.1067 112.585 40.1067C112.585 40.1067 110.125 40.1415 109.036 40.1067C108.63 40.1067 108.427 40.0053 108.529 39.4639C108.621 38.684 108.774 38.0231 108.916 37.3445C109.003 36.904 109.097 36.4114 109.208 35.9757C109.319 35.5399 109.543 35.442 109.906 35.4494C110.503 35.4351 111.088 35.4494 111.687 35.4494Z" fill="white"/>
</svg>
