<svg version="1.2" xmlns="http://www.w3.org/2000/svg" viewBox="0 0 300 72" width="300" height="72">
	<defs>
		<clipPath clipPathUnits="userSpaceOnUse" id="cp1">
			<path d="m240 10.8v50.4h-180v-50.4z"/>
		</clipPath>
	</defs>
	<style>
		.s0 { fill: #ffffff } 
	</style>
	<g id="Clip-Path" clip-path="url(#cp1)">
		<g>
			<path class="s0" d="m75.87 53.15q-3.86 0-6.93-1.26-3.06-1.26-4.92-3.73-1.81-2.47-1.91-5.94h9.14q0.2 1.96 1.36 3.02 1.15 1.01 3.01 1.01 1.91 0 3.02-0.86 1.1-0.91 1.1-2.47 0-1.31-0.9-2.17-0.86-0.85-2.16-1.41-1.26-0.55-3.62-1.26-3.42-1.06-5.58-2.11-2.16-1.06-3.71-3.13-1.56-2.06-1.56-5.39 0-4.94 3.57-7.71 3.56-2.82 9.29-2.82 5.83 0 9.39 2.82 3.57 2.77 3.82 7.76h-9.29q-0.1-1.71-1.26-2.67-1.15-1.01-2.96-1.01-1.56 0-2.51 0.86-0.96 0.8-0.96 2.37 0 1.71 1.61 2.67 1.61 0.95 5.02 2.06 3.42 1.16 5.53 2.22 2.16 1.06 3.72 3.08 1.55 2.01 1.55 5.19 0 3.02-1.55 5.49-1.51 2.47-4.42 3.93-2.92 1.46-6.89 1.46zm33.77-7.66v7.31h-4.37q-4.67 0-7.28-2.27-2.61-2.32-2.61-7.51v-11.19h-3.42v-7.15h3.42v-6.86h8.59v6.86h5.62v7.15h-5.62v11.29q0 1.26 0.6 1.82 0.6 0.55 2.01 0.55zm3.07-6.8q0-4.34 1.61-7.61 1.66-3.28 4.47-5.04 2.82-1.77 6.28-1.77 2.96 0 5.18 1.21 2.26 1.21 3.46 3.18v-3.98h8.59v28.12h-8.59v-3.98q-1.25 1.96-3.52 3.17-2.21 1.21-5.17 1.21-3.41 0-6.23-1.76-2.81-1.82-4.47-5.09-1.61-3.33-1.61-7.66zm21 0.05q0-3.23-1.81-5.09-1.76-1.87-4.32-1.87-2.56 0-4.37 1.87-1.76 1.81-1.76 5.04 0 3.22 1.76 5.14 1.81 1.86 4.37 1.86 2.56 0 4.32-1.86 1.81-1.87 1.81-5.09zm28.87-6.91h-4.62v20.97h-8.59v-20.97h-3.12v-7.15h3.12v-0.81q0-5.19 2.96-7.86 2.97-2.72 8.69-2.72 0.96 0 1.41 0.05v7.3q-2.46-0.15-3.47 0.71-1 0.86-1 3.07v0.26h4.62zm18.1 0h-4.62v20.96h-8.59v-20.96h-3.11v-7.16h3.11v-0.81q0-5.19 2.96-7.86 2.97-2.72 8.69-2.72 0.96 0 1.41 0.05v7.31q-2.46-0.15-3.46 0.7-1.01 0.86-1.01 3.08v0.25h4.62zm24.53 14.72h-13.16l-3.21 6.25h-8.99l18.98-35.38h9.95l6.53 35.38h-9.09zm-1.01-6.56l-2.06-13.1-6.73 13.1zm29.81-22.57l-6.23 35.38h-8.59l6.23-35.38z"/>
		</g>
	</g>
</svg>