<svg width="170" height="64" viewBox="0 0 170 64" fill="none" xmlns="http://www.w3.org/2000/svg">
<path d="M36.4315 44.0629C36.3617 44.1659 36.3841 44.2738 36.3963 44.3754C36.4693 44.9802 36.5475 45.584 36.6242 46.1881C36.714 46.8965 36.8014 47.6056 36.8948 48.3133C36.9882 49.0214 37.0902 49.7281 37.1846 50.4362C37.2536 50.9538 37.3165 51.4725 37.3438 52C37.3204 51.9355 37.2892 51.8727 37.2747 51.806C36.9922 50.5013 36.7123 49.1963 36.4298 47.8917C36.1739 46.7104 35.9164 45.5294 35.6583 44.3484C35.5886 44.0291 35.5823 44.0261 35.2682 44.0218C35.1735 44.0205 35.0788 44.0218 34.9841 44.0218C28.2819 44.0218 21.5801 44.0218 14.878 44.0218C14.6675 44.0218 14.4571 44.0185 14.2469 44.0192C13.6921 44.0215 13.2248 43.7962 12.812 43.4489C12.4124 43.1128 12.1687 42.6758 12.0454 42.1716C12.0208 42.0706 12.0115 41.9641 12.0079 41.8598C12.0007 41.6602 12.001 41.4602 12.001 41.2603C12.001 32.4353 12.001 23.6103 12.001 14.7852C12.001 14.5958 11.9971 14.4064 12.0069 14.2173C12.0425 13.5378 12.3375 12.9896 12.8548 12.5551C13.3277 12.1575 13.8769 11.9997 14.4896 12C20.7708 12.0033 27.052 12.002 33.3331 12.002C36.0582 12.002 38.7832 12.0036 41.5083 12.0007C41.871 12.0003 42.2219 12.048 42.5531 12.199C43.2559 12.5186 43.7177 13.0478 43.9157 13.7973C43.9475 13.918 43.9614 14.0456 43.9666 14.1706C43.9758 14.3807 43.9729 14.5912 43.9729 14.8017C43.9729 23.6162 43.9729 32.4307 43.9729 41.2455C43.9729 41.4349 43.9702 41.624 43.9706 41.8134C43.9716 42.3574 43.7492 42.8112 43.4016 43.2128C43.0606 43.6068 42.638 43.8722 42.1256 43.9751C41.9417 44.012 41.7497 44.0185 41.5616 44.0189C39.9728 44.0225 38.3843 44.0209 36.7955 44.0228C36.6722 44.0228 36.5433 43.9972 36.4315 44.0633V44.0629ZM35.3455 43.099C35.3455 42.9997 35.3534 42.9471 35.3442 42.8977C35.3054 42.6912 35.2613 42.4857 35.2196 42.2795C34.845 40.4249 34.4622 38.5724 34.0997 36.7156C33.8784 35.5813 33.6811 34.4421 33.4874 33.3028C33.3608 32.5573 33.2581 31.8078 33.1476 31.0593C33.0697 30.5294 32.9918 29.9993 32.923 29.4682C32.8678 29.0413 32.8234 28.6128 32.7803 28.1842C32.7487 27.8708 32.7264 27.5564 32.7014 27.2423C32.6642 26.7714 32.6086 26.3008 32.5974 25.8288C32.5794 25.0721 32.5909 24.3144 32.5899 23.557C32.5899 23.3899 32.5899 23.2232 32.5899 23.0318C32.5047 22.9992 32.4093 22.9584 32.3113 22.9262C31.89 22.7884 31.4868 22.6082 31.0988 22.396C30.8123 22.2392 30.5364 22.0636 30.319 21.8136C29.9484 21.3877 29.7783 20.9003 29.8615 20.331C29.8852 20.1692 29.9273 20.0038 29.8915 19.8262C29.8365 19.8101 29.7882 19.7927 29.7382 19.7815C29.4511 19.7164 29.1607 19.6634 28.8772 19.5865C28.349 19.4428 27.8281 19.2754 27.3433 19.0139C27.027 18.8432 26.7316 18.6452 26.485 18.3788C26.2696 18.1463 26.1456 17.874 26.1114 17.5619C26.1041 17.4971 26.1311 17.4284 26.1485 17.3238C26.2689 17.3935 26.358 17.4422 26.4445 17.4955C27.2795 18.0118 28.1478 18.0589 29.0361 17.6589C29.361 17.5126 29.6701 17.3294 29.9803 17.1518C30.418 16.9012 30.8449 16.6309 31.2856 16.3859C31.6743 16.1698 32.1002 16.1142 32.5396 16.1672C32.6751 16.1836 32.8099 16.2076 32.9444 16.2323C33.3065 16.2987 33.6719 16.3566 33.9975 16.5447C34.1392 16.6266 34.2717 16.6046 34.4191 16.5516C34.9038 16.3773 35.3899 16.206 35.8809 16.0504C37.105 15.662 38.355 15.3729 39.6064 15.0888C40.4368 14.9003 41.2722 14.73 42.0799 14.4521C42.1131 14.4406 42.1503 14.4402 42.1854 14.4347C42.1401 14.5139 42.0835 14.5593 42.0197 14.5882C41.7224 14.7221 41.4271 14.8612 41.1242 14.9806C40.0968 15.3851 39.0605 15.7679 38.0387 16.1856C36.9853 16.6164 35.9756 17.1341 35.0357 17.7829C34.5299 18.1319 34.0767 18.5367 33.6676 18.9915C33.4206 19.2661 33.2141 19.5717 33.0602 19.9094C33.0309 19.9736 33.0154 20.0443 32.9888 20.1271C33.0572 20.1577 33.1098 20.1926 33.167 20.2051C33.3002 20.2344 33.4364 20.2505 33.5702 20.2768C34.5934 20.4767 35.605 20.7181 36.5755 21.1082C37.5503 21.4999 38.4639 21.9833 39.1776 22.7825C39.6353 23.2952 39.9507 23.878 40.1086 24.5475C40.2056 24.9596 40.252 25.375 40.2352 25.7979C40.2319 25.8834 40.2181 25.9752 40.2747 26.1005C40.3148 26.0107 40.3349 25.9643 40.3556 25.9186C40.5121 25.5743 40.6575 25.2244 40.8285 24.8876C41.0107 24.5285 41.2643 24.2187 41.5655 23.9496C41.7803 23.7579 42.2154 23.6033 42.4956 23.5303C42.6574 23.4882 42.8248 23.46 42.9912 23.4445C43.1208 23.4327 43.1869 23.4974 43.198 23.629C43.2079 23.7438 43.2079 23.8605 43.1994 23.9756C43.1888 24.1193 43.1481 24.1585 43.0116 24.1861C42.9807 24.1924 42.9488 24.192 42.9175 24.197C42.4696 24.268 41.9187 24.5005 41.6323 24.8419C41.5797 24.9044 41.5333 24.984 41.5168 25.0626C41.407 25.5874 41.3031 26.111 41.4326 26.6527C41.5833 27.2828 42.0134 27.9139 43.0234 27.9872C43.0954 27.8633 43.0635 27.7241 43.0635 27.5916C43.0652 23.2682 43.0649 18.9452 43.0649 14.6218C43.0649 14.5271 43.0688 14.432 43.0622 14.338C42.9981 13.4375 42.2506 12.9077 41.6224 12.9511C41.5385 12.957 41.454 12.9511 41.3698 12.9511C32.4475 12.9511 23.5251 12.9511 14.6031 12.9511C14.4978 12.9511 14.3926 12.9488 14.2874 12.9537C13.6924 12.9817 13.1021 13.3938 12.9702 14.0706C12.9304 14.2755 12.9107 14.4876 12.9107 14.6961C12.9077 23.5846 12.9084 32.4731 12.9084 41.3616C12.9084 41.4458 12.9061 41.53 12.9104 41.6141C12.9498 42.3946 13.4264 42.9533 14.1778 43.0888C14.3212 43.1148 14.4709 43.1125 14.6179 43.1125C17.5113 43.1138 20.4047 43.1135 23.2982 43.1135C27.17 43.1135 31.0422 43.1135 34.914 43.1128C35.0485 43.1128 35.1831 43.1043 35.3449 43.0987L35.3455 43.099ZM39.8123 28.5611C39.7222 28.8637 39.6432 29.1692 39.5396 29.4662C39.3673 29.9618 39.2032 30.4627 38.9921 30.9422C38.7 31.6055 38.3616 32.2481 38.0538 32.9046C37.8844 33.2657 37.7226 33.632 37.5835 34.0056C37.0349 35.4787 36.6906 37.004 36.4417 38.5527C36.3584 39.0706 36.2693 39.588 36.2098 40.1089C36.1509 40.6259 35.9993 41.1409 36.1325 41.6684C36.1401 41.6983 36.1338 41.7312 36.1365 41.7628C36.1621 42.066 36.1845 42.3699 36.216 42.6725C36.2302 42.806 36.2641 42.9375 36.2969 43.1135H36.6416C37.0938 43.1135 37.546 43.1135 37.9982 43.1135C39.1654 43.1135 40.3326 43.1135 41.4997 43.1132C41.9516 43.1132 42.341 42.9694 42.6577 42.6333C42.9497 42.3235 43.0652 41.9549 43.0652 41.5405C43.0652 37.1882 43.0652 32.8358 43.0645 28.4838C43.0645 28.4016 43.0533 28.3197 43.0481 28.2454C42.859 28.1987 42.6824 28.1681 42.5153 28.1109C42.1845 27.9978 41.8714 27.8462 41.6467 27.5646C41.4616 27.3325 41.3307 27.0713 41.2564 26.7806C41.1554 26.3866 41.163 25.9906 41.2077 25.5917C41.2126 25.549 41.2084 25.5052 41.2084 25.4618C41.0367 25.6651 40.9074 25.8765 40.8052 26.1067M32.4642 17.8737C32.6691 17.8737 32.8316 17.7227 32.8369 17.5284C32.8425 17.3199 32.6734 17.1406 32.4688 17.1383C32.263 17.136 32.0969 17.31 32.0999 17.5244C32.1025 17.7273 32.2551 17.8737 32.4642 17.8734V17.8737Z" fill="white"/>
<path d="M53.8588 24.978C54.8057 24.9695 55.7272 25.1129 56.626 25.3964C57.4962 25.671 58.3 26.0692 58.9965 26.675C59.3915 27.0187 59.7158 27.4114 59.9621 27.8682C60.1913 28.2938 60.3002 28.7515 60.2489 29.237C60.2117 29.5879 60.0585 29.8796 59.7661 30.0871C59.5589 30.2341 59.3412 30.3558 59.0781 30.3782C58.4749 30.4295 58.0352 30.0996 57.8043 29.5875C57.7182 29.3961 57.6356 29.2011 57.5281 29.0215C57.065 28.25 56.3626 27.7981 55.5154 27.5498C55.0484 27.413 54.5672 27.3644 54.0831 27.3496C53.6204 27.3354 53.157 27.3367 52.6992 27.417C52.1053 27.5209 51.5274 27.682 51.0075 27.9968C50.5957 28.2457 50.2619 28.5739 50.0594 29.0232C49.7038 29.8122 50.0005 30.7291 50.432 31.1333C50.798 31.4759 51.2078 31.7407 51.6656 31.94C52.4506 32.282 53.2767 32.4869 54.1006 32.7049C55.005 32.9444 55.9071 33.1953 56.8023 33.4669C57.3248 33.6255 57.8376 33.8211 58.322 34.08C58.8528 34.3635 59.356 34.6871 59.7829 35.1169C60.4709 35.8095 60.9086 36.6248 61.0253 37.6068C61.1349 38.529 61.0839 39.4337 60.7708 40.3121C60.5679 40.8817 60.2594 41.3925 59.8582 41.8486C59.1662 42.6353 58.3019 43.1546 57.3242 43.4993C56.6266 43.7453 55.9054 43.8752 55.1711 43.9597C54.5613 44.0301 53.9519 44.0261 53.3438 44.0011C51.7994 43.938 50.3613 43.5068 49.0583 42.6662C48.093 42.0437 47.3297 41.2323 46.8426 40.1806C46.6384 39.7396 46.493 39.2788 46.4312 38.795C46.3878 38.4563 46.4217 38.1228 46.5374 37.8002C46.7848 37.1109 47.728 36.7376 48.4031 37.1566C48.683 37.3302 48.8218 37.5844 48.8876 37.8979C48.9478 38.1853 49.0132 38.4731 49.1027 38.7526C49.2457 39.1999 49.5032 39.581 49.818 39.9293C50.6145 40.8117 51.6294 41.2715 52.7772 41.4839C53.2337 41.5684 53.6924 41.6194 54.1568 41.5997C55.0158 41.5635 55.8492 41.4024 56.6306 41.0347C57.1209 40.8038 57.5488 40.4871 57.8737 40.0402C58.2799 39.4817 58.4016 38.8608 58.3151 38.1883C58.2227 37.4703 57.8119 36.9547 57.2495 36.5429C56.7529 36.1792 56.1968 35.9259 55.6173 35.7296C55.1997 35.5882 54.7715 35.4767 54.3462 35.3576C53.4451 35.1054 52.5391 34.8696 51.6426 34.6019C51.1598 34.4578 50.6849 34.2802 50.2198 34.0859C49.5453 33.8037 48.929 33.4176 48.4143 32.8937C47.802 32.2698 47.4044 31.5341 47.2853 30.6531C47.1715 29.8118 47.2429 28.9969 47.5514 28.205C47.7332 27.738 48.017 27.3341 48.3472 26.9631C48.9198 26.3205 49.6377 25.8864 50.4303 25.5779C51.1585 25.2947 51.9145 25.1135 52.6973 25.0583C53.0847 25.031 53.4721 25.0037 53.8598 24.9764L53.8588 24.978Z" fill="white"/>
<path d="M117.16 42.3541C117.018 42.4044 116.929 42.4919 116.832 42.5689C116.42 42.8977 115.989 43.1954 115.493 43.3904C115.007 43.5815 114.501 43.6647 113.985 43.692C113.712 43.7064 113.438 43.6982 113.164 43.6995C112.023 43.7041 111.026 43.2996 110.137 42.609C109.303 41.9614 108.729 41.1182 108.311 40.1566C108.002 39.4456 107.813 38.7029 107.737 37.937C107.696 37.5328 107.665 37.123 107.702 36.7119C107.734 36.3673 107.725 36.0207 107.77 35.6747C107.866 34.9505 108.044 34.2526 108.323 33.5778C108.534 33.0683 108.81 32.5994 109.151 32.1676C109.922 31.1885 110.911 30.5521 112.14 30.313C112.479 30.2469 112.827 30.195 113.171 30.193C114.042 30.1881 114.886 30.3259 115.671 30.7412C116.094 30.9652 116.474 31.2388 116.803 31.5861C116.903 31.692 117.005 31.7966 117.123 31.9206C117.206 31.7903 117.177 31.6736 117.177 31.5657C117.18 29.9986 117.179 28.4312 117.179 26.8641C117.179 26.7484 117.186 26.6323 117.179 26.5172C117.136 25.8311 117.851 25.1083 118.754 25.3701C119.292 25.5259 119.636 25.9745 119.654 26.533C119.656 26.5961 119.655 26.6592 119.655 26.7224C119.655 31.9077 119.655 37.0934 119.654 42.2788C119.654 42.4048 119.661 42.5337 119.638 42.6563C119.455 43.6252 118.42 43.9824 117.69 43.493C117.396 43.2957 117.24 43 117.188 42.6511C117.174 42.5603 117.17 42.4682 117.16 42.3551V42.3541ZM117.332 36.976C117.307 36.7149 117.282 36.4541 117.257 36.193C117.174 35.3412 116.918 34.548 116.452 33.8277C115.996 33.1243 115.386 32.6201 114.573 32.3715C114.171 32.2488 113.763 32.2564 113.353 32.2702C112.914 32.285 112.505 32.4165 112.127 32.6372C111.482 33.0134 111.014 33.5531 110.661 34.2059C110.215 35.0307 110.051 35.923 110.005 36.8448C109.983 37.299 110.048 37.7482 110.133 38.1916C110.328 39.2061 110.741 40.1056 111.512 40.8278C112.497 41.7513 113.937 41.8766 115.008 41.3757C115.764 41.0222 116.301 40.446 116.677 39.7169C117.12 38.8598 117.302 37.9377 117.332 36.9764L117.332 36.976Z" fill="white"/>
<path d="M97.0098 37.7203C97.0098 37.8913 96.9927 38.0186 97.0127 38.1399C97.1055 38.7023 97.2594 39.2472 97.4952 39.7682C97.8224 40.4901 98.3154 41.0607 99.0179 41.4389C99.402 41.6457 99.8111 41.7621 100.249 41.8013C100.638 41.8361 101.026 41.822 101.412 41.7898C102.178 41.7263 102.863 41.4717 103.416 40.9074C103.697 40.62 103.935 40.3013 104.173 39.9803C104.235 39.8961 104.303 39.8159 104.372 39.7363C104.645 39.4176 105.145 39.3081 105.588 39.5077C105.923 39.6587 106.144 39.9076 106.239 40.2714C106.296 40.4894 106.251 40.6917 106.176 40.8877C106.04 41.2432 105.858 41.5757 105.605 41.8624C105.212 42.3064 104.775 42.7001 104.255 42.9892C103.589 43.3588 102.894 43.6542 102.133 43.7663C101.414 43.8722 100.696 43.9196 99.967 43.839C99.3343 43.7689 98.7222 43.6407 98.1365 43.3924C97.2413 43.0125 96.4741 42.4626 95.8426 41.7151C95.0826 40.8153 94.6435 39.7718 94.3995 38.6349C94.2778 38.0682 94.2107 37.4917 94.2203 36.9142C94.2397 35.7355 94.4574 34.5917 94.977 33.5252C95.5795 32.2886 96.4806 31.3309 97.7136 30.6968C98.5525 30.2654 99.4402 30.0545 100.383 30.044C101.06 30.0365 101.728 30.0845 102.386 30.2436C103.503 30.514 104.502 31.0099 105.306 31.8449C106.108 32.679 106.596 33.6768 106.782 34.8216C106.862 35.3116 106.875 35.8039 106.843 36.2976C106.808 36.8261 106.566 37.2362 106.121 37.5259C105.949 37.6377 105.763 37.7015 105.557 37.7025C105.452 37.7032 105.346 37.7038 105.241 37.7038C102.643 37.7038 100.044 37.7038 97.4459 37.7045C97.3117 37.7045 97.1772 37.7137 97.0098 37.7199V37.7203ZM104.449 35.6346C104.527 35.4497 104.449 35.2856 104.431 35.1238C104.39 34.768 104.302 34.422 104.152 34.0935C103.678 33.0578 102.844 32.4751 101.766 32.2113C101.148 32.06 100.522 32.0442 99.8884 32.137C99.2537 32.23 98.6979 32.4885 98.2223 32.9042C97.4511 33.5781 97.1361 34.4802 97.0039 35.4632C96.9963 35.5191 97.0256 35.5803 97.0361 35.6316C97.312 35.6803 104.145 35.6832 104.449 35.6349V35.6346Z" fill="white"/>
<path d="M123.925 37.718C123.861 37.9883 123.935 38.204 123.977 38.4162C124.091 39.0072 124.278 39.5781 124.585 40.0997C125.113 40.9972 125.872 41.597 126.913 41.7677C127.281 41.8279 127.661 41.8809 128.042 41.8098C128.258 41.7697 128.481 41.7713 128.698 41.7352C129.466 41.6082 130.103 41.2498 130.587 40.6361C130.776 40.397 130.953 40.149 131.137 39.9063C131.188 39.8395 131.237 39.7692 131.299 39.7136C131.639 39.4071 132.055 39.3081 132.526 39.5218C132.962 39.7195 133.205 40.1191 133.165 40.5825C133.157 40.6752 133.132 40.7689 133.099 40.8564C132.865 41.4806 132.482 41.993 131.967 42.4192C131.189 43.0625 130.311 43.4986 129.331 43.7117C128.526 43.8863 127.71 43.9373 126.887 43.8393C126.51 43.7946 126.136 43.7456 125.771 43.642C124.909 43.3976 124.133 42.9892 123.449 42.4107C122.4 41.5244 121.77 40.3815 121.415 39.0723C121.233 38.3991 121.159 37.7134 121.153 37.0152C121.146 36.1989 121.247 35.402 121.476 34.6196C121.824 33.4324 122.423 32.3968 123.352 31.5716C124.253 30.7705 125.297 30.2509 126.506 30.1055C128 29.926 129.441 30.0989 130.797 30.7952C131.843 31.3316 132.628 32.1307 133.163 33.1683C133.503 33.8277 133.705 34.5338 133.743 35.281C133.756 35.5221 133.788 35.7625 133.79 36.0032C133.791 36.2887 133.743 36.5705 133.626 36.833C133.377 37.3937 132.962 37.7071 132.327 37.7051C130.844 37.7002 129.361 37.7038 127.878 37.7038C126.689 37.7038 125.501 37.7035 124.313 37.7045C124.189 37.7045 124.065 37.713 123.925 37.718H123.925ZM123.921 35.6119C124.044 35.6987 124.174 35.6668 124.296 35.6671C125.495 35.6697 126.694 35.6688 127.892 35.6688C128.923 35.6688 129.954 35.6694 130.984 35.6678C131.107 35.6678 131.236 35.6908 131.354 35.6244C131.409 35.4859 131.387 35.3504 131.369 35.2162C131.357 35.1225 131.341 35.0291 131.323 34.9364C131.082 33.6926 130.384 32.822 129.194 32.3678C128.378 32.0567 127.533 31.9988 126.68 32.159C125.876 32.3096 125.207 32.701 124.707 33.3604C124.411 33.7511 124.218 34.1921 124.077 34.6575C123.983 34.9689 123.922 35.2866 123.92 35.6119H123.921Z" fill="white"/>
<path d="M84.8631 35.3524C85.0559 35.1965 85.1881 35.0959 85.313 34.987C85.7251 34.6279 86.1329 34.2641 86.545 33.9047C86.941 33.559 87.3402 33.2177 87.7372 32.8733C88.1262 32.5356 88.5136 32.1965 88.902 31.8581C89.425 31.4023 89.9433 30.9409 90.4721 30.4919C90.994 30.049 91.5919 30.1479 92.0165 30.5308C92.4723 30.9415 92.3746 31.6963 92.0635 31.986C91.8096 32.2222 91.5495 32.4517 91.2877 32.6793C90.899 33.017 90.506 33.3499 90.1153 33.6856C89.6927 34.0487 89.2701 34.4115 88.8494 34.7768C88.7383 34.8732 88.6324 34.9758 88.5284 35.0797C88.4702 35.138 88.463 35.211 88.5064 35.2823C88.5501 35.354 88.5978 35.4237 88.6462 35.4925C89.2523 36.3518 89.8584 37.2112 90.4655 38.0699C91.1456 39.0315 91.827 39.9921 92.5068 40.9538C92.7012 41.2284 92.8989 41.5013 93.0837 41.7822C93.282 42.0835 93.3606 42.4123 93.2774 42.7734C93.159 43.2868 92.7012 43.6772 92.1747 43.6966C92.0287 43.7018 91.879 43.6966 91.7356 43.6703C91.4028 43.6101 91.1778 43.3914 90.9924 43.1257C90.7701 42.8063 90.55 42.4853 90.3294 42.1647C89.3457 40.7351 88.3627 39.3051 87.379 37.8755C87.1942 37.6068 87.009 37.3384 86.8219 37.0717C86.7568 36.979 86.7052 36.8701 86.5565 36.8307C86.396 36.9622 86.2253 37.099 86.0583 37.2401C85.7774 37.4776 85.4985 37.7176 85.2196 37.9577C85.1558 38.0126 85.0983 38.0748 85.0332 38.1278C84.9092 38.2281 84.8549 38.353 84.8612 38.5135C84.8687 38.7026 84.8625 38.8921 84.8625 39.0815C84.8625 40.1336 84.8641 41.1853 84.8605 42.2374C84.8598 42.3939 84.8454 42.5528 84.8174 42.7067C84.7086 43.3075 84.2304 43.6775 83.6183 43.7064C83.0829 43.7318 82.437 43.274 82.3893 42.6264C82.3749 42.4275 82.3473 42.2288 82.3473 42.0298C82.3449 36.9701 82.3446 31.9104 82.3482 26.8506C82.3482 26.6421 82.3653 26.4284 82.4134 26.2264C82.5456 25.6723 83.0382 25.3141 83.6282 25.3194C84.212 25.3243 84.6908 25.6979 84.8138 26.2603C84.8493 26.4228 84.8602 26.5935 84.8602 26.7602C84.8628 29.4741 84.8622 32.188 84.8622 34.9018C84.8622 35.0265 84.8622 35.1514 84.8622 35.3524H84.8631Z" fill="white"/>
<path d="M150.465 35.3478C150.688 35.1613 150.851 35.0301 151.008 34.8923C151.578 34.394 152.144 33.8915 152.715 33.3946C153.269 32.9115 153.83 32.4353 154.385 31.9528C154.806 31.5874 155.221 31.2158 155.64 30.8484C155.797 30.7097 155.95 30.563 156.12 30.4397C156.501 30.1627 156.911 30.1128 157.336 30.3374C157.75 30.5564 157.94 30.906 157.914 31.373C157.9 31.6147 157.8 31.8203 157.64 31.9962C157.556 32.0893 157.46 32.1718 157.364 32.2544C156.975 32.5915 156.584 32.9263 156.193 33.2624C155.787 33.6123 155.381 33.9619 154.976 34.3125C154.659 34.5871 154.343 34.863 154.018 35.1465C154.112 35.3474 154.246 35.5086 154.365 35.6783C154.975 36.5478 155.589 37.4144 156.202 38.282C156.923 39.3041 157.646 40.3256 158.368 41.3481C158.483 41.5112 158.606 41.671 158.702 41.8453C159.15 42.6626 158.761 43.6443 157.684 43.7009C157.221 43.7252 156.87 43.5331 156.608 43.1622C156.451 42.9389 156.295 42.7139 156.14 42.4886C154.977 40.7999 153.814 39.1104 152.651 37.4217C152.55 37.2743 152.447 37.1276 152.341 36.9843C152.299 36.9274 152.244 36.88 152.18 36.8129C152.046 36.9162 151.919 37.0056 151.801 37.1063C151.418 37.4345 151.044 37.7732 150.654 38.0939C150.499 38.2218 150.451 38.3645 150.452 38.5579C150.458 39.7044 150.457 40.8508 150.453 41.9973C150.452 42.2278 150.43 42.4587 150.405 42.6882C150.34 43.3003 149.729 43.6943 149.254 43.7084C148.593 43.7285 148.003 43.2483 147.941 42.4913C147.933 42.3972 147.938 42.3022 147.938 42.2074C147.938 37.0747 147.937 31.9416 147.94 26.8089C147.94 26.6211 147.951 26.429 147.992 26.2465C148.102 25.7529 148.532 25.3829 149.035 25.325C149.574 25.2632 150.067 25.5144 150.301 25.9722C150.424 26.2133 150.426 26.4797 150.453 26.7405C150.462 26.8342 150.455 26.9296 150.455 27.0243C150.455 29.654 150.455 32.2833 150.455 34.913C150.455 35.0363 150.46 35.16 150.464 35.3481L150.465 35.3478Z" fill="white"/>
<path d="M141.096 30.0509C141.742 30.0253 142.377 30.1032 142.996 30.289C144.066 30.61 145.009 31.1418 145.741 32.0008C146.086 32.405 146.342 32.8628 146.451 33.3916C146.619 34.2059 145.987 34.6825 145.424 34.7361C145.371 34.741 145.318 34.7371 145.266 34.74C144.733 34.7726 144.362 34.4897 144.216 34.0149C144.141 33.7702 144.018 33.5511 143.869 33.3466C143.439 32.7599 142.842 32.4208 142.158 32.23C141.211 31.9656 140.28 32.0377 139.388 32.4488C138.731 32.751 138.212 33.2209 137.844 33.8461C137.439 34.5364 137.21 35.2817 137.134 36.0815C137.097 36.4807 137.072 36.8787 137.088 37.2773C137.125 38.1455 137.271 38.9914 137.679 39.7725C138.263 40.8913 139.172 41.5855 140.424 41.7717C141.349 41.9091 142.252 41.8029 143.067 41.2912C143.608 40.9518 144.013 40.4979 144.227 39.8833C144.425 39.3124 144.902 39.0535 145.494 39.1805C145.788 39.2433 146.057 39.3564 146.256 39.5926C146.474 39.8514 146.538 40.1546 146.468 40.4808C146.336 41.1004 146.062 41.6516 145.629 42.116C144.779 43.025 143.727 43.5558 142.507 43.764C141.904 43.8669 141.295 43.9127 140.685 43.8761C139.383 43.7982 138.193 43.398 137.15 42.5978C136.144 41.8256 135.466 40.8186 135.04 39.633C134.843 39.0867 134.729 38.5234 134.659 37.9459C134.594 37.4095 134.591 36.8738 134.622 36.3403C134.68 35.355 134.92 34.4085 135.357 33.5199C135.593 33.0378 135.889 32.5918 136.239 32.1797C137.175 31.0744 138.376 30.4334 139.778 30.1433C140.212 30.0536 140.653 30.0309 141.097 30.0506L141.096 30.0509Z" fill="white"/>
<path d="M63.9004 30.4893C63.9997 30.3456 63.976 30.2265 63.9763 30.1137C63.9786 29.409 63.973 28.7045 63.9799 27.9997C63.9823 27.78 63.9938 27.5561 64.0385 27.3417C64.1862 26.6352 64.8699 26.2695 65.5289 26.4241C66.0887 26.555 66.4472 26.9878 66.4912 27.5712C66.4975 27.6551 66.4949 27.7393 66.4949 27.8235C66.4949 28.5809 66.4945 29.3379 66.4955 30.0953C66.4955 30.2091 66.5041 30.3229 66.5093 30.4571C66.6083 30.4725 66.6876 30.4949 66.7675 30.4962C67.0724 30.5008 67.3775 30.4975 67.6827 30.4992C68.0136 30.5012 68.2968 30.6126 68.5309 30.8531C69.0926 31.4296 68.8479 32.405 68.0751 32.6336C67.9162 32.6806 67.7442 32.6941 67.5775 32.7017C67.3361 32.7128 67.0937 32.7023 66.8517 32.7056C66.7497 32.7069 66.6478 32.7201 66.5343 32.7286C66.5189 32.8223 66.5014 32.8921 66.4968 32.9628C66.4909 33.0572 66.4949 33.1519 66.4949 33.2466C66.4949 36.244 66.4952 39.2413 66.4932 42.2387C66.4932 42.3952 66.4866 42.5551 66.4567 42.7083C66.2867 43.5788 65.3076 43.9636 64.5851 43.5282C64.2776 43.3427 64.097 43.0648 64.0359 42.7192C63.9957 42.4929 63.9803 42.2597 63.9799 42.0295C63.9763 39.1058 63.9776 36.1821 63.9776 33.2581C63.9776 33.1634 63.9799 33.0687 63.9763 32.9743C63.9675 32.7385 63.9405 32.7125 63.6928 32.7059C63.556 32.7023 63.4186 32.7128 63.2827 32.7023C63.1367 32.6908 62.9881 32.677 62.8476 32.6382C62.3819 32.5096 62.0741 32.0916 62.0735 31.6058C62.0728 31.1142 62.3991 30.6738 62.8697 30.5544C63.0206 30.5163 63.1805 30.509 63.337 30.5002C63.5248 30.4896 63.7136 30.4923 63.9007 30.4893H63.9004Z" fill="white"/>
<path d="M72.7106 31.7177C72.8398 31.667 72.9046 31.5674 72.9816 31.4868C73.4006 31.0481 73.887 30.7057 74.4309 30.4387C74.7295 30.292 75.0479 30.2071 75.3718 30.1969C75.8875 30.1805 76.3282 30.3647 76.5808 30.8455C76.8281 31.3164 76.7962 31.7834 76.4666 32.2077C76.267 32.4649 76.0003 32.628 75.6648 32.6566C75.4448 32.6753 75.2245 32.6892 75.0058 32.7174C74.6776 32.7599 74.3711 32.8737 74.0981 33.0588C73.7182 33.316 73.4144 33.6488 73.1894 34.0497C72.8803 34.6002 72.7264 35.1971 72.6843 35.824C72.6731 35.9917 72.6764 36.1604 72.6764 36.3288C72.676 38.2221 72.678 40.1155 72.6737 42.0085C72.6731 42.2492 72.6603 42.4939 72.6165 42.73C72.4948 43.3868 71.9177 43.6966 71.4918 43.7038C70.9649 43.713 70.5814 43.4983 70.317 43.0523C70.2124 42.8757 70.1792 42.6794 70.1615 42.4791C70.1559 42.4163 70.1592 42.3528 70.1592 42.29C70.1592 38.7454 70.1585 35.2008 70.1608 31.6562C70.1608 31.5101 70.168 31.3605 70.199 31.2184C70.3147 30.6837 70.6479 30.3624 71.1783 30.2239C71.7706 30.0697 72.53 30.5229 72.6228 31.2109C72.6448 31.375 72.658 31.5401 72.7109 31.7177H72.7106Z" fill="white"/>
<path d="M77.9742 36.9471C77.9742 35.1393 77.9752 33.3314 77.9726 31.5233C77.9722 31.2882 77.9939 31.0635 78.1146 30.8547C78.3685 30.415 78.7513 30.172 79.2535 30.1999C79.7889 30.2298 80.1859 30.4962 80.3694 31.0287C80.4355 31.2211 80.4513 31.4167 80.451 31.6183C80.4493 33.8573 80.45 36.096 80.45 38.3349C80.45 39.6804 80.4477 41.0258 80.4513 42.3712C80.4523 42.7465 80.3349 43.0628 80.0829 43.3463C79.6811 43.7982 78.9395 43.7702 78.5724 43.5381C78.1778 43.2884 77.9719 42.9408 77.9729 42.4653C77.9768 40.6259 77.9745 38.7865 77.9745 36.9471H77.9742Z" fill="white"/>
<path d="M80.5861 26.7112C80.6466 27.3466 80.0491 28.1096 79.1891 28.1106C78.4669 28.1116 77.7664 27.4245 77.7904 26.6892C77.8164 25.8949 78.4705 25.3217 79.2269 25.3118C79.8465 25.3036 80.6545 25.9032 80.5861 26.7112Z" fill="white"/>
</svg>
