<svg width="170" height="64" viewBox="0 0 170 64" fill="none" xmlns="http://www.w3.org/2000/svg">
<path d="M30.1084 15.5602L33.6059 19.0578L38.3829 17.7778L39.6628 22.5553L44.4402 23.8352L43.1603 28.6121L46.6573 32.1086L43.1598 35.6061L44.4397 40.3836L39.6623 41.6635L38.3823 46.4409L33.6049 45.161L30.1079 48.6575L26.6114 45.1605L21.8334 46.4409L20.5535 41.6635L15.7761 40.3836L17.056 35.6056L13.5595 32.1086L17.0565 28.6116L15.7766 23.8342L20.5541 22.5542L21.834 17.7768L26.6109 19.0567L30.1084 15.5602ZM30.1084 14C29.6944 14 29.2976 14.1643 29.0053 14.4571L26.1449 17.3176L22.2381 16.2707C21.8384 16.1644 21.4129 16.2205 21.0544 16.4267C20.8769 16.5291 20.7213 16.6656 20.5966 16.8282C20.4718 16.9907 20.3803 17.1763 20.3273 17.3743L19.2804 21.2811L15.373 22.328C15.1751 22.381 14.9896 22.4725 14.827 22.5972C14.6644 22.7219 14.528 22.8774 14.4255 23.0548C14.323 23.2323 14.2565 23.4281 14.2297 23.6313C14.2029 23.8344 14.2164 24.0409 14.2694 24.2388L15.3163 28.1461L12.4564 31.0066C12.1641 31.2991 11.9999 31.6958 11.9999 32.1094C11.9999 32.523 12.1641 32.9196 12.4564 33.2122L15.3169 36.0721L14.2699 39.98C14.2169 40.1779 14.2033 40.3843 14.2301 40.5874C14.2568 40.7906 14.3234 40.9864 14.4258 41.1638C14.5283 41.3412 14.6648 41.4967 14.8274 41.6214C14.99 41.746 15.1756 41.8374 15.3736 41.8902L19.2809 42.9372L20.3278 46.8445C20.3807 47.0425 20.4721 47.2281 20.5968 47.3907C20.7215 47.5533 20.877 47.6897 21.0545 47.7922C21.232 47.8946 21.4279 47.961 21.6311 47.9876C21.8343 48.0141 22.0407 48.0004 22.2386 47.9471L26.1465 46.8996L29.0058 49.7595C29.3106 50.0643 29.71 50.2167 30.1095 50.2167C30.5089 50.2167 30.9078 50.0643 31.2125 49.7595L34.0725 46.9002L37.9798 47.9471C38.1777 48.0008 38.3843 48.0149 38.5876 47.9884C38.791 47.962 38.9871 47.8956 39.1647 47.7931C39.3423 47.6906 39.4979 47.5539 39.6224 47.391C39.747 47.2281 39.8381 47.0422 39.8906 46.844L40.9375 42.9366L44.8448 41.8897C45.0429 41.837 45.2285 41.7457 45.3912 41.6211C45.5539 41.4965 45.6904 41.341 45.7929 41.1635C45.8954 40.9861 45.9619 40.7902 45.9886 40.587C46.0153 40.3838 46.0017 40.1774 45.9484 39.9795L44.9015 36.0721L47.762 33.2117C47.9069 33.0668 48.0218 32.8948 48.1002 32.7055C48.1787 32.5162 48.219 32.3133 48.219 32.1083C48.219 31.9034 48.1787 31.7005 48.1002 31.5112C48.0218 31.3219 47.9069 31.1499 47.762 31.005L44.9015 28.1446L45.9484 24.2377C46.0015 24.0398 46.015 23.8334 45.9882 23.6302C45.9614 23.4271 45.8949 23.2312 45.7924 23.0538C45.6899 22.8763 45.5535 22.7208 45.3909 22.5961C45.2283 22.4714 45.0428 22.38 44.8448 22.327L40.9375 21.2801L39.8906 17.3732C39.8376 17.1753 39.7461 16.9897 39.6214 16.8272C39.4967 16.6646 39.3412 16.5282 39.1638 16.4257C38.9863 16.3232 38.7904 16.2567 38.5873 16.2299C38.3842 16.2031 38.1777 16.2166 37.9798 16.2696L34.073 17.3165L31.2125 14.4561C30.9192 14.1642 30.5222 14.0003 30.1084 14Z" fill="white"/>
<path d="M30.3685 40.9505C28.8127 40.95 27.3012 40.4325 26.0717 39.4793C24.8421 38.5261 23.9643 37.1912 23.5762 35.6847C23.5245 35.4842 23.5545 35.2715 23.6597 35.0932C23.7648 34.9149 23.9365 34.7857 24.1369 34.734C24.3373 34.6822 24.55 34.7122 24.7283 34.8174C24.9066 34.9225 25.0359 35.0942 25.0876 35.2946C25.7096 37.7062 27.8814 39.3902 30.3685 39.3902C32.8555 39.3902 35.0273 37.7062 35.6493 35.2946C35.6749 35.1954 35.7199 35.1021 35.7815 35.0203C35.8431 34.9384 35.9203 34.8694 36.0086 34.8174C36.0969 34.7653 36.1945 34.7312 36.296 34.7169C36.3975 34.7025 36.5008 34.7084 36.6 34.734C36.6993 34.7596 36.7925 34.8045 36.8744 34.8661C36.9563 34.9278 37.0252 35.0049 37.0773 35.0932C37.1293 35.1815 37.1635 35.2792 37.1778 35.3806C37.1921 35.4821 37.1863 35.5854 37.1607 35.6847C36.7726 37.1912 35.8948 38.5261 34.6652 39.4793C33.4357 40.4325 31.9242 40.95 30.3685 40.9505Z" fill="white"/>
<path d="M62.6684 30.6066C61.5763 30.2363 60.2303 29.8067 60.2303 28.7338C60.2303 27.6999 61.128 27.1341 62.2592 27.1341C63.3123 27.1341 64.405 27.6801 65.1076 28.3042L66.5316 26.5682C65.2054 25.5733 63.8204 25.0465 62.1229 25.0465C59.8798 25.0465 57.8114 26.2562 57.8114 28.8503C57.8114 31.2104 59.7425 32.1081 61.5763 32.7712C63.0003 33.2788 64.3852 33.7661 64.3852 35.0731C64.3852 36.497 63.176 37.0821 61.9663 37.0821C60.5616 37.0821 59.6645 36.5553 58.4745 35.4043L56.8358 36.9843C58.3185 38.4473 59.8793 39.1692 61.9466 39.1692C64.2094 39.1692 66.9404 37.9402 66.9404 34.9358C66.9404 32.1866 64.6775 31.2895 62.6684 30.6066ZM77.94 32.9277C77.94 35.6977 76.7891 37.0436 74.9355 37.0436C73.1023 37.0436 71.9513 35.6977 71.9513 32.9277V25.281H69.5324V32.5179C69.5324 36.8096 71.1515 39.1702 74.8971 39.1702C78.7399 39.1702 80.3589 36.8096 80.3589 32.5179V25.281H77.9406L77.94 32.9277ZM92.5282 34.5275L85.7397 25.281H83.613V38.9362H86.0319V29.7095L92.7815 38.9362H94.9466V25.281H92.5282V34.5275ZM107.623 29.2997C107.623 26.3935 104.931 25.281 102.766 25.281H98.5518V38.9362H100.971V33.3568H101.829L105.73 38.9362H108.734L104.501 33.1228C106.101 32.6745 107.623 31.5038 107.623 29.2997ZM100.971 31.2895V27.3488H102.707C104.112 27.3488 105.068 28.1487 105.068 29.3579C105.068 30.7231 103.897 31.289 102.317 31.289L100.971 31.2895ZM117.218 25.047C113.199 25.047 110.137 28.2075 110.137 32.1086C110.137 36.0102 113.2 39.1702 117.218 39.1702C121.256 39.1702 124.318 36.0102 124.318 32.1086C124.319 28.2075 121.256 25.047 117.218 25.047ZM117.218 37.0436C114.604 37.0436 112.692 34.8785 112.692 32.1086C112.692 29.3387 114.604 27.1731 117.218 27.1731C119.851 27.1731 121.763 29.3387 121.763 32.1086C121.763 34.8785 119.852 37.0436 117.218 37.0436ZM133.308 25.047C129.289 25.047 126.227 28.2075 126.227 32.1086C126.227 36.0102 129.289 39.1702 133.308 39.1702C137.346 39.1702 140.408 36.0102 140.408 32.1086C140.408 28.2075 137.345 25.047 133.308 25.047ZM133.308 37.0436C130.694 37.0436 128.782 34.8785 128.782 32.1086C128.782 29.3387 130.694 27.1731 133.308 27.1731C135.941 27.1731 137.853 29.3387 137.853 32.1086C137.853 34.8785 135.941 37.0436 133.308 37.0436ZM154.392 25.281L150.432 35.2884L146.569 25.281H142.921V38.9362H145.34V28.285L149.553 38.9357H151.27L155.581 28.324V38.9357H158V25.281H154.392Z" fill="white"/>
</svg>
