<svg width="170" height="64" viewBox="0 0 170 64" fill="none" xmlns="http://www.w3.org/2000/svg">
<path fill-rule="evenodd" clip-rule="evenodd" d="M104.478 22.344C103.73 22.344 103.131 22.9652 103.131 23.6815C103.131 24.3978 103.724 25.0413 104.478 25.0413C105.204 25.0413 105.803 24.3978 105.803 23.6815C105.803 22.9652 105.21 22.344 104.478 22.344ZM105.631 26.5524H103.286V36.5806H105.631V26.5524ZM36.6609 34.6387L38.0469 32.9152C39.261 34.0231 40.6636 34.7171 42.3932 34.7171C44.0287 34.7171 44.8769 33.9001 44.8769 32.9543C44.8769 31.8463 43.9344 31.4825 41.8167 30.9733C39.0836 30.3353 37.1821 29.5406 37.1821 27.0336C37.1821 24.7056 39.1446 22.9988 41.9331 22.9988C44.0287 22.9988 45.6087 23.7151 46.9336 24.8623L45.6253 26.6475C44.4722 25.6401 43.1416 25.0749 41.8389 25.0749C40.5139 25.0749 39.6103 25.8919 39.6103 26.821C39.6103 27.9066 40.5916 28.2928 42.687 28.7796C45.4368 29.4008 47.2829 30.2905 47.2829 32.7193C47.2829 35.1032 45.4756 36.7932 42.3211 36.7932C40.0427 36.7932 38.1189 36.0154 36.6609 34.6387ZM57.866 26.5524V36.5806H55.5209V35.2431C54.9056 36.1721 53.7524 36.8156 52.4441 36.8156C50.271 36.8156 48.752 35.204 48.752 32.9376V26.5579H51.0194V32.473C51.0194 33.8329 51.8842 34.801 53.1149 34.801C54.3457 34.801 55.3657 33.9672 55.5209 32.8983V26.5524H57.866ZM65.533 36.81C68.1662 36.81 70.0899 34.6386 70.0899 31.5552C70.0899 28.4941 68.1662 26.3228 65.533 26.3172C64.0528 26.3172 62.8608 26.9999 62.0736 28.1415V26.5522H59.7286V39.9102H62.0736V34.9856C62.8608 36.1328 64.0528 36.81 65.533 36.81ZM64.8954 28.3374C66.5696 28.3374 67.7615 29.6749 67.7615 31.5552C67.7615 33.4355 66.5696 34.7953 64.8954 34.7953C63.2433 34.7953 62.0903 33.4355 62.0903 31.5552C62.0903 29.6749 63.2433 28.3374 64.8954 28.3374ZM78.8769 33.7097L80.3571 35.2599C79.4922 36.1888 77.7626 36.81 76.3156 36.81C73.4716 36.81 71.1211 34.6163 71.1211 31.5328C71.1211 28.5277 73.3498 26.3172 76.1771 26.3172C79.2538 26.3172 81.0445 28.6619 81.0445 32.3666H73.5438C73.8321 33.7433 74.8687 34.7115 76.2935 34.7115C77.2249 34.717 78.317 34.2917 78.8769 33.7097ZM73.5714 30.5702H78.8048C78.5332 29.3111 77.6905 28.4157 76.2879 28.4157C74.9741 28.4157 73.9152 29.2496 73.5714 30.5702ZM88.2182 28.3376V26.323C86.5883 26.323 85.2966 27.1568 84.6591 28.4942V26.5525H82.3141V36.5807H84.6591V31.5162C84.6591 29.6191 86.0839 28.3376 88.2182 28.3376ZM89.8812 23.2562H94.538C98.9065 23.2562 101.983 26.0095 101.983 29.91C101.983 33.8105 98.9065 36.5806 94.538 36.5806H89.8812V23.2562ZM94.7819 34.3869C97.5704 34.3869 99.533 32.5234 99.533 29.9044C99.533 27.2854 97.5704 25.4443 94.7819 25.4443H92.2817V34.3869H94.7819ZM107.211 35.299L108.27 33.6481C109.229 34.3477 110.349 34.8122 111.596 34.8122C112.539 34.8122 113.193 34.4037 113.193 33.7824C113.193 33.0046 112.328 32.7527 111.192 32.4449C109.035 31.8798 107.671 31.2642 107.655 29.479C107.655 27.5987 109.196 26.3172 111.402 26.3172C112.767 26.3172 114.135 26.804 115.211 27.5203L114.23 29.244C113.288 28.6452 112.268 28.3318 111.402 28.3318C110.576 28.3318 109.939 28.6619 109.939 29.2216C109.939 29.8596 110.46 30.0554 111.979 30.5031C113.653 30.9676 115.46 31.5496 115.46 33.6425C115.46 35.562 113.886 36.8044 111.557 36.8044C110.039 36.8155 108.403 36.2671 107.211 35.299ZM122.728 36.81C125.361 36.81 127.286 34.6386 127.286 31.5552C127.286 28.4941 125.361 26.3228 122.728 26.3172C121.248 26.3172 120.056 26.9999 119.269 28.1415V26.5522H116.923V39.9102H119.269V34.9856C120.056 36.1328 121.248 36.81 122.728 36.81ZM122.091 28.3374C123.764 28.3374 124.957 29.6749 124.957 31.5552C124.957 33.4355 123.764 34.7953 122.091 34.7953C120.438 34.7953 119.286 33.4355 119.286 31.5552C119.286 29.6749 120.438 28.3374 122.091 28.3374ZM137.186 30.5479V36.5805H134.897V35.3773C134.165 36.3063 132.918 36.81 131.764 36.81C129.647 36.81 128.05 35.5508 128.05 33.6089C128.05 31.6279 129.879 30.2737 132.109 30.2737C133.012 30.2737 133.993 30.4695 134.897 30.8165V30.5479C134.897 29.3839 134.264 28.2591 132.452 28.2591C131.51 28.2591 130.605 28.5892 129.758 29.0145L128.949 27.3636C130.351 26.6641 131.659 26.3172 132.912 26.3172C135.551 26.3228 137.186 28.0072 137.186 30.5479ZM134.897 33.4355V32.3106C134.165 32.0588 133.339 31.9245 132.452 31.9245C131.277 31.9245 130.334 32.5848 130.334 33.5362C130.334 34.4876 131.16 35.0864 132.275 35.0864C133.417 35.0864 134.631 34.5043 134.897 33.4355ZM142.486 36.8101C143.24 36.8101 144.044 36.5023 144.604 36.0153L143.933 34.4261C143.722 34.6387 143.357 34.7955 142.952 34.7955C142.392 34.7955 141.971 34.3085 141.971 33.6315V28.511H144.221V26.5522H141.971V23.799H139.681V26.5522H138.239V28.511H139.681V33.9224C139.681 35.6068 140.834 36.8101 142.486 36.8101ZM145.136 31.5552C145.136 28.7068 147.581 26.3172 150.48 26.3172C151.983 26.3172 153.307 26.9552 154.251 27.9457L152.676 29.3446C152.138 28.7459 151.312 28.3374 150.463 28.3374C148.829 28.3374 147.464 29.8092 147.464 31.5552C147.464 33.318 148.829 34.7953 150.463 34.7953C151.329 34.7953 152.177 34.3868 152.732 33.7488L154.305 35.1256C153.346 36.1552 152.016 36.8155 150.441 36.8155C147.576 36.8155 145.136 34.4092 145.136 31.5552ZM165 36.5805V30.2009C165 27.9289 163.48 26.3227 161.313 26.3171C159.982 26.3171 158.813 26.9607 158.214 27.9289V23.021H155.868V36.5805H158.214V30.5086C158.214 29.3055 159.312 28.3373 160.637 28.3373C161.867 28.3373 162.732 29.3055 162.732 30.6654V36.5805H165Z" fill="white"/>
<path fill-rule="evenodd" clip-rule="evenodd" d="M5.97141 23.9439C7.95052 19.2391 12.8179 16 17.8627 16C22.974 16 27.7637 19.1999 29.7538 23.9439C31.988 29.2584 30.0754 34.573 26.91 39.0149C24.504 42.3994 21.6712 45.2973 18.5168 47.9713C18.4724 48.016 18.4004 48.0048 18.3616 47.9601C18.0844 47.6494 17.8199 47.3237 17.5551 46.9975C17.3909 46.7953 17.2264 46.5929 17.0588 46.3937C17.0144 46.349 17.0255 46.2762 17.0699 46.2371C19.8362 43.8931 22.3697 41.3476 24.5871 38.4666C26.6661 35.759 28.5066 32.5367 28.5066 29.0123C28.5066 23.2222 23.6059 18.2769 17.8516 18.2769C12.0584 18.2769 7.19658 23.1775 7.19658 29.0123C7.19658 30.7913 7.94497 33.7842 11.5262 37.9295C12.9676 39.6078 14.4311 40.9337 15.2627 41.6553C16.133 40.861 17.7019 39.3673 19.2597 37.5715C22.2144 34.1535 23.7778 31.194 23.7778 29.0123C23.7778 25.7116 21.1168 23.0264 17.8404 23.0264C14.5697 23.0264 11.9032 25.7116 11.9032 29.0123C11.9032 31.9648 14.481 34.3146 16.5116 36.1656C16.5971 36.2434 16.6816 36.3205 16.765 36.3967C16.8094 36.4359 16.8094 36.5086 16.7706 36.5533C16.3159 37.0625 15.8614 37.566 15.4068 38.0694C15.368 38.1142 15.2959 38.1142 15.2516 38.075C12.6627 35.7086 9.65243 32.8164 9.65243 29.0123C9.65243 24.6152 13.4998 20.7495 17.8516 20.7495C22.2809 20.7495 26.0507 24.5481 26.0507 29.0123C26.0507 31.7926 24.3377 35.1884 20.9616 39.0875C19.2485 41.0624 17.3748 42.8693 15.3791 44.5532C15.3403 44.5868 15.2793 44.5868 15.2405 44.5532C13.3168 42.9756 11.4708 41.2973 9.84092 39.4121C8.44945 37.7953 7.32962 36.1953 6.52578 34.6625C4.7518 31.2724 4.46907 27.5074 5.97141 23.9439ZM17.8628 25.4824C19.7919 25.4824 21.3663 27.0599 21.3663 29.0123C21.3663 30.9647 19.7975 32.5423 17.8628 32.5423C15.928 32.5423 14.3591 30.9647 14.3591 29.0123C14.3591 27.0599 15.9335 25.4824 17.8628 25.4824ZM16.3271 29.0123C16.3271 29.8626 17.0146 30.5563 17.8628 30.5563C18.711 30.5563 19.3983 29.8626 19.3983 29.0123C19.3983 28.162 18.711 27.4683 17.8628 27.4683C17.0146 27.4683 16.3271 28.162 16.3271 29.0123Z" fill="#F6F7F8"/>
</svg>
