<svg width="162" height="64" viewBox="0 0 162 64" fill="none" xmlns="http://www.w3.org/2000/svg">
<path d="M64 32C64 16.9151 64 9.37258 59.3137 4.68629C54.6274 0 47.0849 0 32 0C16.9151 0 9.37258 0 4.68629 4.68629C0 9.37258 0 16.9151 0 32C0 47.0849 0 54.6274 4.68629 59.3137C9.37258 64 16.9151 64 32 64C47.0849 64 54.6274 64 59.3137 59.3137C64 54.6274 64 47.0849 64 32Z" fill="white"/>
<path d="M19.1999 22.3042C19.1999 21.0317 20.2316 20 21.5041 20H25.4297C26.7021 20 27.7338 21.0317 27.7338 22.3042V37.0661H21.5041C20.2316 37.0661 19.1999 36.0344 19.1999 34.7619V22.3042Z" fill="#212121"/>
<path d="M36.2664 22.3042C36.2664 21.0317 37.2979 20 38.5705 20H42.496C43.7686 20 44.8001 21.0317 44.8001 22.3042V34.7619C44.8001 36.0344 43.7686 37.0661 42.496 37.0661H36.2664V22.3042Z" fill="#212121"/>
<path d="M27.7338 37.0661H36.2664L36.2668 43.2956C36.2668 44.5682 35.2353 45.5997 33.9626 45.5997H30.037C28.7646 45.5997 27.7329 44.5682 27.7329 43.2956L27.7338 37.0661Z" fill="#212121"/>
<path d="M79.7864 29.7326V37.2831C79.7864 37.9063 79.9194 38.3506 80.1842 38.6153C80.4489 38.865 80.909 38.9895 81.5636 38.9895H83.1298V40.7896H81.2124C80.0282 40.7896 79.1403 40.517 78.5479 39.9712C77.9555 39.426 77.6593 38.5301 77.6593 37.2831V29.7326H76V27.9796H77.6593V24.7536H79.7864V27.9796H83.1298V29.7326H79.7864Z" fill="white"/>
<path d="M82.9134 34.3375C82.9134 33.0288 83.1787 31.8833 83.7083 30.9017C84.2384 29.9043 84.9631 29.1324 85.8825 28.5871C86.8177 28.0419 87.8537 27.7687 88.9913 27.7687C90.1133 27.7687 91.0876 28.0105 91.9134 28.4934C92.7397 28.977 93.3551 29.5845 93.7601 30.3171V27.9796H95.9108V40.7896H93.7601V38.405C93.3393 39.1533 92.7083 39.7765 91.8668 40.2752C91.0405 40.7582 90.0746 41 88.9684 41C87.8302 41 86.8019 40.7195 85.8825 40.1586C84.9631 39.5976 84.2384 38.8106 83.7083 37.7975C83.1787 36.7844 82.9134 35.6311 82.9134 34.3375ZM93.7601 34.3611C93.7601 33.3951 93.5654 32.5531 93.1761 31.8362C92.7863 31.1193 92.2561 30.574 91.5864 30.1999C90.9317 29.8106 90.2069 29.6159 89.412 29.6159C88.6172 29.6159 87.893 29.8027 87.2384 30.1769C86.5838 30.5505 86.0615 31.0963 85.6722 31.8132C85.2823 32.5301 85.0877 33.3715 85.0877 34.3375C85.0877 35.3198 85.2823 36.1769 85.6722 36.9089C86.0615 37.6258 86.5838 38.1789 87.2384 38.5688C87.893 38.943 88.6172 39.1298 89.412 39.1298C90.2069 39.1298 90.9317 38.943 91.5864 38.5688C92.2561 38.1789 92.7863 37.6258 93.1761 36.9089C93.5654 36.1769 93.7601 35.327 93.7601 34.3611Z" fill="white"/>
<path d="M99.5291 23.4908V40.7896H97.402V23.4908H99.5291Z" fill="white"/>
<path d="M102.15 25.899C101.744 25.899 101.401 25.7588 101.121 25.4783C100.84 25.1979 100.7 24.8545 100.7 24.4495C100.7 24.0445 100.84 23.7018 101.121 23.4207C101.401 23.1402 101.744 23 102.15 23C102.539 23 102.866 23.1402 103.131 23.4207C103.412 23.7018 103.552 24.0445 103.552 24.4495C103.552 24.8545 103.412 25.1979 103.131 25.4783C102.866 25.7588 102.539 25.899 102.15 25.899ZM103.178 27.9796V40.7896H101.051V27.9796H103.178Z" fill="white"/>
<path d="M109.235 41C108.253 41 107.372 40.8362 106.593 40.5092C105.814 40.1664 105.199 39.6986 104.746 39.1062C104.294 38.4987 104.045 37.8054 103.999 37.0262H106.196C106.258 37.6651 106.554 38.1868 107.084 38.5924C107.63 38.9974 108.339 39.1999 109.211 39.1999C110.022 39.1999 110.661 39.021 111.128 38.6625C111.596 38.304 111.83 37.8519 111.83 37.3067C111.83 36.7457 111.58 36.3323 111.081 36.0675C110.583 35.787 109.811 35.5144 108.767 35.2496C107.816 35 107.037 34.7509 106.429 34.5013C105.837 34.2365 105.323 33.8545 104.887 33.3558C104.466 32.8414 104.256 32.1717 104.256 31.3454C104.256 30.6913 104.45 30.0911 104.84 29.5458C105.229 29 105.783 28.5714 106.499 28.2601C107.216 27.9325 108.035 27.7687 108.954 27.7687C110.372 27.7687 111.518 28.1271 112.391 28.844C113.263 29.561 113.731 30.5432 113.793 31.7896H111.666C111.619 31.1193 111.346 30.5819 110.847 30.1769C110.364 29.7713 109.71 29.5688 108.884 29.5688C108.121 29.5688 107.512 29.7326 107.061 30.0596C106.609 30.3873 106.383 30.8158 106.383 31.3454C106.383 31.7661 106.515 32.1173 106.78 32.3977C107.061 32.6625 107.404 32.8807 107.809 33.0518C108.229 33.2077 108.806 33.3873 109.539 33.5898C110.458 33.8388 111.206 34.0885 111.782 34.3375C112.359 34.5714 112.85 34.9299 113.256 35.4128C113.676 35.8964 113.894 36.5275 113.91 37.3067C113.91 38.0079 113.715 38.6389 113.326 39.1999C112.936 39.7608 112.383 40.2051 111.666 40.5321C110.965 40.8441 110.154 41 109.235 41Z" fill="white"/>
<path d="M135.994 34.3375C135.994 33.0288 136.259 31.8833 136.789 30.9017C137.319 29.9043 138.044 29.1324 138.963 28.5871C139.898 28.0419 140.934 27.7687 142.072 27.7687C143.194 27.7687 144.168 28.0105 144.994 28.4934C145.82 28.977 146.436 29.5845 146.841 30.3171V27.9796H148.991V40.7896H146.841V38.405C146.42 39.1533 145.789 39.7765 144.947 40.2752C144.122 40.7582 143.155 41 142.049 41C140.911 41 139.883 40.7195 138.963 40.1586C138.044 39.5976 137.319 38.8106 136.789 37.7975C136.259 36.7844 135.994 35.6311 135.994 34.3375ZM146.841 34.3611C146.841 33.3951 146.646 32.5531 146.257 31.8362C145.867 31.1193 145.337 30.574 144.667 30.1999C144.012 29.8106 143.288 29.6159 142.493 29.6159C141.698 29.6159 140.974 29.8027 140.319 30.1769C139.664 30.5505 139.142 31.0963 138.753 31.8132C138.363 32.5301 138.168 33.3715 138.168 34.3375C138.168 35.3198 138.363 36.1769 138.753 36.9089C139.142 37.6258 139.664 38.1789 140.319 38.5688C140.974 38.943 141.698 39.1298 142.493 39.1298C143.288 39.1298 144.012 38.943 144.667 38.5688C145.337 38.1789 145.867 37.6258 146.257 36.9089C146.646 36.1769 146.841 35.327 146.841 34.3611Z" fill="white"/>
<path d="M130.192 27.9041C131.19 27.9041 132.078 28.1144 132.857 28.5352C133.637 28.9401 134.252 29.5555 134.704 30.3818C135.156 31.2075 135.382 32.2128 135.382 33.3975V40.948H133.278V33.701C133.278 32.4231 132.958 31.4493 132.319 30.779C131.696 30.0935 130.847 29.7508 129.772 29.7508C128.665 29.7508 127.785 30.1092 127.13 30.8261C126.475 31.5273 126.148 32.5483 126.148 33.8884V40.948H124.044V33.701C124.044 32.4231 123.725 31.4493 123.086 30.779C122.463 30.0935 121.614 29.7508 120.538 29.7508C119.431 29.7508 118.551 30.1092 117.897 30.8261C117.242 31.5273 116.914 32.5483 116.914 33.8884V40.948H114.787V28.1374H116.914V29.9841C117.336 29.3143 117.897 28.7999 118.598 28.4415C119.315 28.083 120.102 27.9041 120.959 27.9041C122.034 27.9041 122.985 28.1453 123.811 28.6282C124.637 29.1118 125.253 29.8209 125.658 30.756C126.016 29.8517 126.608 29.1505 127.434 28.6518C128.26 28.1531 129.179 27.9041 130.192 27.9041Z" fill="white"/>
<path d="M156.599 27.7463C158.157 27.7463 159.419 28.2214 160.386 29.1723C161.352 30.1074 161.835 31.4632 161.835 33.2398V40.7903H159.731V33.5438C159.731 32.266 159.411 31.2915 158.772 30.6218C158.133 29.9357 157.261 29.593 156.154 29.593C155.032 29.593 154.136 29.9436 153.466 30.6448C152.812 31.346 152.484 32.3669 152.484 33.707V40.7903H150.357V27.9802H152.484V29.8033C152.905 29.1487 153.474 28.6422 154.191 28.2837C154.923 27.9252 155.726 27.7463 156.599 27.7463Z" fill="white"/>
</svg>
