<svg width="170" height="64" viewBox="0 0 170 64" fill="none" xmlns="http://www.w3.org/2000/svg">
<path fill-rule="evenodd" clip-rule="evenodd" d="M27.5265 16.3064C27.6443 16.3245 27.7548 16.3744 27.8462 16.4508C27.9377 16.5272 28.0065 16.6271 28.0452 16.7398L28.0679 16.8224L28.8465 20.8198C29.8881 21.2193 30.87 21.7594 31.7652 22.4251L32.0919 22.6784L36.0239 21.3358C36.2772 21.2264 36.5479 21.3051 36.7385 21.5224C38.0905 23.0384 39.1892 24.8678 39.8265 26.7891C39.8744 26.8962 39.8885 27.0154 39.8668 27.1307C39.8451 27.2461 39.7887 27.352 39.7052 27.4344L39.6359 27.4918L36.5159 30.1451C36.6279 30.7384 36.6599 31.3798 36.6599 32.0038C36.6599 32.5064 36.6385 33.0158 36.5732 33.5024L36.5159 33.8638L39.6359 36.5198C39.7441 36.5967 39.8223 36.7088 39.857 36.8369C39.8918 36.9651 39.881 37.1013 39.8265 37.2224C39.1905 39.1451 38.0932 40.9718 36.7399 42.4864C36.5692 42.6811 36.3372 42.7651 36.1092 42.7038L36.0239 42.6744L32.0932 41.3304C31.2305 42.0251 30.2665 42.5971 29.2372 43.0318L28.8479 43.1891L28.0679 47.1891C28.0409 47.32 27.9747 47.4396 27.8779 47.5318C27.7812 47.624 27.6586 47.6845 27.5265 47.7051C26.5079 47.8918 25.4892 48.0011 24.4399 48.0011C23.3892 48.0011 22.3705 47.8918 21.3519 47.7051C21.234 47.687 21.1233 47.637 21.0317 47.5607C20.94 47.4843 20.871 47.3844 20.8319 47.2718L20.8105 47.1891L20.0319 43.1891C18.9724 42.7909 17.9755 42.2426 17.0719 41.5611L16.7852 41.3304L12.8545 42.6744C12.6012 42.7838 12.3305 42.7051 12.1385 42.4864C10.7852 40.9718 9.68786 39.1451 9.05186 37.2224C9.00413 37.1153 8.99017 36.9961 9.01185 36.8808C9.03352 36.7655 9.0898 36.6596 9.17319 36.5771L9.24253 36.5198L12.3612 33.8638C12.2566 33.2494 12.2084 32.6269 12.2172 32.0038C12.2172 31.5051 12.2372 30.9944 12.3025 30.5064L12.3612 30.1464L9.24119 27.4918C9.13296 27.4148 9.05478 27.3027 9.02001 27.1746C8.98524 27.0464 8.99602 26.9102 9.05053 26.7891C9.68653 24.8678 10.7839 23.0384 12.1372 21.5224C12.2109 21.4302 12.3094 21.3609 12.4211 21.3227C12.5328 21.2844 12.6531 21.2788 12.7679 21.3064L12.8545 21.3344L16.7852 22.6771C17.6596 21.965 18.6346 21.3863 19.6785 20.9598L20.0319 20.8184L20.8105 16.8211C20.8371 16.69 20.9033 16.5703 21.0001 16.478C21.0969 16.3857 21.2197 16.3254 21.3519 16.3051C23.3895 15.8983 25.4875 15.8983 27.5252 16.3051L27.5265 16.3064ZM114.732 27.0251C115.519 27.0251 116.245 27.1958 116.913 27.5384C117.597 27.8936 118.189 28.4019 118.644 29.0238C119.129 29.6718 119.509 30.4638 119.785 31.4011C120.061 32.3398 120.199 33.4024 120.199 34.5931C120.199 35.7064 120.043 36.7344 119.727 37.6771C119.439 38.5694 118.99 39.4017 118.404 40.1331C117.851 40.8162 117.156 41.3712 116.368 41.7598C115.551 42.1567 114.652 42.3575 113.744 42.3464C112.957 42.3464 112.299 42.2371 111.767 42.0184C111.238 41.8024 110.747 41.5035 110.312 41.1331V46.8158H105.805V27.3091H108.596L108.733 27.3158C108.935 27.3265 109.13 27.3885 109.301 27.4958C109.497 27.6281 109.638 27.8257 109.701 28.0531L110.035 29.1384L110.257 28.9078C110.484 28.6824 110.724 28.4744 110.973 28.2811C112.048 27.4485 113.374 27.0057 114.733 27.0251H114.732ZM75.0719 27.5384C74.1927 27.2257 73.265 27.0713 72.3319 27.0824C71.1772 27.0824 70.1425 27.2771 69.2265 27.6678C68.3474 28.0327 67.551 28.5715 66.8852 29.2518C66.2395 29.9202 65.7352 30.712 65.4025 31.5798C65.0562 32.477 64.8812 33.4313 64.8865 34.3931C64.8865 35.7064 65.0865 36.8584 65.4905 37.8478C65.8919 38.8384 66.4399 39.6664 67.1332 40.3331C67.8265 40.9998 68.6359 41.5011 69.5612 41.8398C70.4865 42.1771 71.4785 42.3464 72.5345 42.3464C73.0492 42.3464 73.5879 42.3104 74.1559 42.2398C74.7225 42.1678 75.2892 42.0398 75.8572 41.8531C76.4239 41.6678 76.9772 41.4118 77.5145 41.0824C77.9759 40.8024 78.4105 40.4478 78.8185 40.0238L79.0199 39.8051L77.7119 38.2198C77.5265 37.9624 77.2559 37.8331 76.8972 37.8331C76.6252 37.8331 76.3665 37.8958 76.1199 38.0198C75.8719 38.1438 75.5999 38.2811 75.3052 38.4331C74.9798 38.5979 74.6419 38.7365 74.2945 38.8478C73.9159 38.9718 73.4652 39.0344 72.9425 39.0344C71.9625 39.0344 71.1625 38.7544 70.5425 38.1984C69.9639 37.6784 69.5919 36.8624 69.4265 35.7491L69.3945 35.5064H78.0892C78.2932 35.5064 78.4599 35.4824 78.5905 35.4358C78.7214 35.3885 78.832 35.2976 78.9039 35.1784C78.9914 35.0247 79.0459 34.8544 79.0639 34.6784C79.0932 34.4691 79.1079 34.1984 79.1079 33.8651C79.1079 32.7984 78.9398 31.8438 78.6052 31.0011C78.2967 30.1989 77.8208 29.4717 77.2092 28.8678C76.5993 28.2779 75.8706 27.8247 75.0719 27.5384ZM96.4399 27.0824C97.3734 27.0711 98.3016 27.2255 99.1812 27.5384C99.9799 27.8243 100.708 28.277 101.319 28.8664C101.915 29.4478 102.38 30.1598 102.715 31.0011C103.048 31.8438 103.216 32.7984 103.216 33.8651C103.216 34.1984 103.203 34.4691 103.172 34.6784C103.154 34.8544 103.099 35.0247 103.012 35.1784C102.94 35.2974 102.83 35.3883 102.7 35.4358C102.538 35.4878 102.368 35.5117 102.199 35.5064H93.5025L93.5345 35.7491C93.6999 36.8624 94.0718 37.6784 94.6518 38.1984C95.2719 38.7558 96.0719 39.0331 97.0519 39.0331C97.5745 39.0331 98.0252 38.9718 98.4025 38.8478C98.7498 38.737 99.0878 38.5988 99.4132 38.4344C99.7092 38.2811 99.9812 38.1438 100.228 38.0211C100.475 37.8958 100.735 37.8344 101.005 37.8344C101.365 37.8344 101.636 37.9624 101.82 38.2198L103.129 39.8051L102.927 40.0238C102.54 40.4314 102.102 40.7872 101.624 41.0824C101.085 41.4118 100.533 41.6691 99.9665 41.8544C99.413 42.0369 98.8433 42.166 98.2652 42.2398C97.6972 42.3104 97.1585 42.3464 96.6439 42.3464C95.6306 42.354 94.6241 42.1824 93.6705 41.8398C92.7638 41.514 91.936 41.0006 91.2412 40.3331C90.5479 39.6664 90.0012 38.8398 89.5985 37.8491C89.1959 36.8584 88.9945 35.7064 88.9945 34.3931C88.9945 33.4024 89.1679 32.4651 89.5119 31.5798C89.8445 30.712 90.3488 29.9202 90.9945 29.2518C91.6599 28.5716 92.4558 28.0328 93.3345 27.6678C94.2505 27.2771 95.2852 27.0811 96.4385 27.0811L96.4399 27.0824ZM132.457 27.6104C131.517 27.2584 130.476 27.0824 129.332 27.0824C128.177 27.0824 127.128 27.2584 126.183 27.6104C125.273 27.9408 124.441 28.456 123.74 29.1238C123.046 29.7975 122.505 30.6135 122.156 31.5158C121.783 32.4531 121.596 33.5078 121.596 34.6784C121.596 35.8584 121.783 36.9224 122.156 37.8704C122.529 38.8171 123.057 39.6211 123.74 40.2838C124.44 40.9555 125.272 41.4753 126.183 41.8104C127.129 42.1678 128.177 42.3464 129.332 42.3464C130.476 42.3464 131.519 42.1678 132.457 41.8104C133.362 41.4762 134.187 40.9562 134.879 40.2838C135.552 39.6211 136.076 38.8171 136.449 37.8704C136.823 36.9238 137.009 35.8584 137.009 34.6784C137.009 33.5078 136.823 32.4531 136.449 31.5158C136.101 30.6161 135.566 29.8008 134.879 29.1238C134.186 28.4554 133.361 27.9398 132.457 27.6104ZM156.872 23.0118V27.3384H160.536V30.3651H156.872V37.7198L156.877 37.8638C156.897 38.1424 156.981 38.3784 157.127 38.5704C157.296 38.7931 157.54 38.9051 157.86 38.9051C158.105 38.9104 158.348 38.854 158.565 38.7411C158.648 38.6984 158.725 38.6611 158.799 38.6264C158.879 38.5917 158.966 38.5749 159.053 38.5771C159.169 38.5718 159.284 38.6045 159.38 38.6704C159.463 38.7318 159.547 38.8291 159.635 38.9624L161.001 41.0611L160.78 41.2171C160.244 41.5735 159.657 41.8459 159.039 42.0251C158.311 42.2384 157.56 42.3464 156.784 42.3464C156.067 42.3464 155.435 42.2438 154.887 42.0398C154.368 41.8534 153.896 41.5557 153.505 41.1678C153.126 40.7811 152.835 40.316 152.655 39.8051C152.454 39.2315 152.356 38.6273 152.364 38.0198V30.3664H151.084L150.971 30.3598C150.791 30.3414 150.622 30.2662 150.488 30.1451C150.324 29.9984 150.241 29.7811 150.241 29.4944V27.7678L152.64 27.3104L153.528 23.6971L153.561 23.5878C153.7 23.2038 154.019 23.0118 154.516 23.0118H156.872ZM63.8399 25.1398V21.3131H47.0012V25.1398H52.9625V42.1184H57.8772V25.1398H63.8399ZM86.3479 20.7424V42.1184H81.8412V20.7424H86.3479ZM149.484 27.5104C149.067 27.1864 148.515 27.0251 147.827 27.0251C147.012 27.0251 146.26 27.2678 145.572 27.7531C144.921 28.2248 144.354 28.8037 143.897 29.4651L143.711 29.7371L143.464 28.3531C143.432 28.1875 143.386 28.0251 143.325 27.8678C143.277 27.7421 143.197 27.6313 143.093 27.5464C142.981 27.4607 142.852 27.3998 142.715 27.3678C142.583 27.3366 142.449 27.3188 142.315 27.3144L142.155 27.3104H139.481V42.1184H143.988V33.0358C144.667 31.7984 145.597 31.1798 146.78 31.1798C147.12 31.1798 147.401 31.2011 147.624 31.2438C147.847 31.2864 148.04 31.3091 148.205 31.3091C148.399 31.3091 148.555 31.2691 148.671 31.1878C148.772 31.1109 148.844 31.0018 148.876 30.8784L148.904 30.7664L149.484 27.5104ZM24.4385 22.6384C19.2545 22.6384 15.0572 26.8304 15.0572 32.0011C15.0572 37.1718 19.2572 41.3638 24.4385 41.3638C29.6199 41.3638 33.8199 37.1718 33.8199 32.0011C33.8199 26.8304 29.6199 22.6384 24.4372 22.6384H24.4385ZM112.268 30.5024C112.535 30.4398 112.832 30.4091 113.161 30.4091C113.521 30.4091 113.845 30.4798 114.136 30.6224C114.427 30.7664 114.677 31.0011 114.885 31.3291C115.093 31.6584 115.256 32.0891 115.372 32.6224C115.488 33.1558 115.547 33.8118 115.547 34.5931C115.547 35.4118 115.473 36.1064 115.329 36.6771C115.183 37.2491 114.983 37.7131 114.725 38.0704C114.468 38.4264 114.165 38.6864 113.816 38.8478C113.456 39.0119 113.064 39.0948 112.668 39.0904C112.232 39.0904 111.815 39.0171 111.417 38.8691C111.057 38.73 110.73 38.5165 110.459 38.2424L110.312 38.0918V31.8078C110.492 31.5932 110.687 31.3906 110.893 31.2011C111.083 31.0279 111.297 30.8817 111.527 30.7664C111.753 30.6518 112.001 30.5638 112.268 30.5024ZM129.332 30.3664C128.265 30.3664 127.485 30.7238 126.991 31.4371C126.496 32.1504 126.249 33.2411 126.249 34.7078C126.249 36.1731 126.496 37.2651 126.991 37.9838C127.484 38.7038 128.265 39.0624 129.332 39.0624C130.368 39.0624 131.132 38.7024 131.621 37.9838C132.111 37.2651 132.355 36.1731 132.355 34.7078C132.355 33.2411 132.111 32.1504 131.621 31.4371C131.132 30.7224 130.368 30.3664 129.332 30.3664ZM30.3759 30.6998V27.9131H18.5012V30.6998H23.0252V37.3931H25.8519V30.6998H30.3759ZM72.4185 30.1371C71.5559 30.1371 70.8825 30.3771 70.3972 30.8584C69.9132 31.3384 69.5932 32.0318 69.4372 32.9358H75.0639C75.0647 32.5889 75.0185 32.2435 74.9265 31.9091C74.8387 31.5837 74.6853 31.2797 74.4759 31.0158C74.2543 30.7441 73.9733 30.5269 73.6545 30.3811C73.3145 30.2184 72.9025 30.1371 72.4185 30.1371ZM94.5065 30.8584C94.9905 30.3784 95.6638 30.1384 96.5265 30.1384C97.0118 30.1384 97.4239 30.2184 97.7625 30.3798C98.1025 30.5424 98.3759 30.7531 98.5852 31.0158C98.7932 31.2771 98.9438 31.5758 99.0359 31.9091C99.1279 32.2424 99.1732 32.5838 99.1732 32.9358H93.5465C93.7012 32.0318 94.0212 31.3398 94.5065 30.8584Z" fill="white"/>
</svg>
