<svg width="170" height="64" viewBox="0 0 170 64" fill="none" xmlns="http://www.w3.org/2000/svg">
<path d="M41.5854 22.962V22.4303H41.0538V22.962H41.5854ZM41.5854 31.7722V32.3038H42.117V31.7722H41.5854ZM41.9651 22.962H42.4968V22.4303H41.9651V22.962ZM41.9651 32.1519V32.6835H42.4968V32.1519H41.9651ZM33.155 32.1519V31.6203H32.6234V32.1519H33.155ZM33.155 40.962V41.4936H33.6867V40.962H33.155ZM23.9651 40.962H23.4335V41.4936H23.9651V40.962ZM23.9651 40.5823V40.0506H23.4335V40.5823H23.9651ZM32.7753 40.5823V41.1138H33.3069V40.5823H32.7753ZM32.7753 31.7722V31.2405H32.2436V31.7722H32.7753ZM41.0538 22.962V31.7722H42.193V22.962H41.0538ZM41.9651 22.4303H41.5854V23.5696H41.9651V22.4303ZM42.5727 31.7722V22.962H41.4335V31.7722H42.5727ZM41.4335 31.7722V32.1519H42.5727V31.7722H41.4335ZM41.9651 31.6203H41.5854V32.7595H41.9651V31.6203ZM41.5854 31.6203H33.155V32.7595H41.5854V31.6203ZM32.6234 32.1519V40.5823H33.7626V32.1519H32.6234ZM32.6234 40.5823V40.962H33.7626V40.5823H32.6234ZM33.155 40.4304H32.7753V41.5696H33.155V40.4304ZM32.7753 40.4304H23.9651V41.5696H32.7753V40.4304ZM24.4968 40.962V40.5823H23.4335V40.962H24.4968ZM23.9651 41.1899H32.7753V40.0506H23.9651V41.1899ZM33.3069 40.5823V32.1519H32.1677V40.5823H33.3069ZM33.3069 32.1519V31.7722H32.1677V32.1519H33.3069ZM32.7753 32.3038H33.155V31.1646H32.7753V32.3038ZM33.155 32.3038H41.5854V31.1646H33.155V32.3038Z" fill="white"/>
<path fill-rule="evenodd" clip-rule="evenodd" d="M26.6993 24.8608C27.079 24.3291 27.2309 23.7215 27.2309 23.1139C27.2309 22.2785 26.9271 21.519 26.3195 20.9114C25.7879 20.3038 24.9524 20 24.117 20C23.5094 20 22.9018 20.1519 22.3702 20.5316C21.9145 20.8354 21.4588 21.3671 21.2309 21.8987C21.0031 22.5063 20.9271 23.1139 21.079 23.7215C21.155 24.3291 21.4588 24.9367 21.9145 25.3165C22.3702 25.7722 22.9018 26.076 23.5094 26.1519C24.117 26.2278 24.7246 26.2278 25.3322 26C25.9398 25.7722 26.3955 25.3924 26.6993 24.8608ZM35.5853 24.8608C35.9651 24.3291 36.117 23.7215 36.117 23.1139C36.117 22.2785 35.8132 21.519 35.2056 20.9114C34.598 20.3038 33.7625 20 33.003 20C32.3954 20 31.7879 20.1519 31.2562 20.5316C30.7246 20.9114 30.3448 21.3671 30.117 21.8987C29.8891 22.5063 29.8132 23.1139 29.9651 23.7215C30.117 24.3291 30.4208 24.8608 30.8005 25.3165C31.2562 25.7722 31.7879 26.076 32.3954 26.1519C33.003 26.3038 33.6106 26.2278 34.2182 26C34.7499 25.7722 35.2056 25.3924 35.5853 24.8608ZM27.2309 31.9241C27.2309 32.5316 27.079 33.1392 26.6993 33.6709C26.3195 34.2025 25.8638 34.5823 25.3322 34.8101C24.7246 35.038 24.117 35.1139 23.5094 34.962C22.9018 34.8101 22.3702 34.5063 21.9145 34.1266C21.4588 33.6709 21.155 33.1392 21.079 32.5316C20.9271 31.9241 21.0031 31.3165 21.2309 30.7089C21.4588 30.1013 21.8385 29.6456 22.3702 29.3418C22.9018 28.962 23.5094 28.8101 24.117 28.8101C24.9524 28.8101 25.7119 29.1139 26.3195 29.7215C26.9271 30.3291 27.2309 31.1646 27.2309 31.9241ZM44.3954 42.557C44.7752 42.0253 44.9271 41.4177 44.9271 40.8101C44.9271 39.9747 44.6233 39.2152 44.0157 38.6076C43.4081 38 42.6486 37.6962 41.8132 37.6962C41.2056 37.6962 40.598 37.8481 40.0663 38.2278C39.5347 38.6076 39.1549 39.0633 38.9271 39.5949C38.6992 40.2025 38.6233 40.8101 38.7752 41.4177C38.9271 42.0253 39.2309 42.557 39.6106 43.0127C40.0663 43.4684 40.598 43.7722 41.2056 43.8481C41.8132 44 42.4208 43.9241 43.0284 43.6962C43.56 43.4684 44.0917 43.0127 44.3954 42.557Z" fill="white"/>
<path d="M44.927 23.1139C44.927 23.7215 44.775 24.3291 44.3953 24.8608C44.0156 25.3924 43.5599 25.7722 43.0283 26C42.4207 26.2278 41.8131 26.3038 41.2055 26.1519C40.5979 26.076 39.9903 25.7722 39.6106 25.3165C39.1549 24.8608 38.8511 24.3291 38.7751 23.7215C38.6232 23.1139 38.6992 22.5063 38.927 21.8987C39.1549 21.2911 39.5346 20.8354 40.0663 20.5316C40.5979 20.1519 41.2055 20 41.8131 20C42.6485 20 43.408 20.3038 44.0156 20.9114C44.6231 21.519 44.927 22.2785 44.927 23.1139Z" fill="white"/>
<path d="M36.1171 31.9241C36.1171 32.5317 35.9652 33.1393 35.5855 33.671C35.2057 34.2026 34.75 34.5824 34.2184 34.8102C33.6108 35.0381 33.0032 35.114 32.3956 34.9621C31.788 34.8102 31.2564 34.5064 30.8007 34.1267C30.345 33.671 30.0412 33.1393 29.9652 32.5317C29.8133 31.9241 29.8893 31.3165 30.1171 30.7089C30.345 30.1013 30.7247 29.6456 31.2564 29.3418C31.788 28.9621 32.3956 28.8102 33.0032 28.8102C33.8386 28.8102 34.5981 29.114 35.2057 29.7216C35.7374 30.3292 36.1171 31.1646 36.1171 31.9241Z" fill="white"/>
<path d="M44.927 31.9241C44.927 32.5317 44.775 33.1393 44.3953 33.671C44.0156 34.2026 43.5599 34.5824 43.0283 34.8102C42.4207 35.0381 41.8131 35.114 41.2055 34.9621C40.5979 34.8102 40.0663 34.5064 39.6106 34.1267C39.1549 33.671 38.8511 33.1393 38.7751 32.5317C38.6232 31.9241 38.6992 31.3165 38.927 30.7089C39.1549 30.1013 39.5346 29.6456 40.0663 29.3418C40.5979 28.9621 41.2055 28.8102 41.8131 28.8102C42.6485 28.8102 43.408 29.114 44.0156 29.7216C44.6231 30.3292 44.927 31.1646 44.927 31.9241Z" fill="white"/>
<path d="M27.2309 40.8101C27.2309 41.4177 27.079 42.0254 26.6993 42.557C26.3195 43.0887 25.8638 43.4684 25.3322 43.6963C24.7246 43.9241 24.117 44 23.5094 43.8481C22.9018 43.6962 22.3702 43.3924 21.9145 43.0127C21.4588 42.557 21.155 42.0254 21.079 41.4178C20.9271 40.8102 21.0031 40.2025 21.2309 39.5949C21.4588 38.9873 21.8385 38.5316 22.3702 38.2278C22.9018 37.8481 23.5094 37.6962 24.117 37.6962C24.9524 37.6962 25.7119 38 26.3195 38.6076C26.9271 39.1392 27.2309 39.9747 27.2309 40.8101Z" fill="white"/>
<path d="M36.1171 40.8101C36.1171 41.4177 35.9652 42.0254 35.5855 42.557C35.2057 43.0887 34.75 43.4684 34.2184 43.6963C33.6108 43.9241 33.0032 44 32.3956 43.8481C31.788 43.6962 31.2564 43.3924 30.8007 43.0127C30.345 42.557 30.0412 42.0254 29.9652 41.4178C29.8133 40.8102 29.8893 40.2025 30.1171 39.5949C30.345 38.9873 30.7247 38.5316 31.2564 38.2278C31.788 37.8481 32.3956 37.6962 33.0032 37.6962C33.8386 37.6962 34.5981 38 35.2057 38.6076C35.7374 39.1392 36.1171 39.9747 36.1171 40.8101Z" fill="white"/>
<path d="M58.6737 37.5443C58.6737 39.2152 58.6737 39.9747 60.0408 39.9747C60.9522 39.9747 62.5471 39.8987 62.5471 39.8987L62.775 43.3924C61.6357 43.6203 60.5724 43.8481 59.4332 43.9241C55.4079 43.9241 54.2686 42.4051 54.2686 37.6962V30.481H52.3699V26.6835H54.3446V22.5823L58.6737 20V26.6835H62.699V30.4051H58.6737V37.5443Z" fill="white"/>
<path d="M78.6487 39.7468L78.7246 43.0126C78.7246 43.0126 74.9272 43.9241 71.8892 43.9241C66.8765 43.9241 64.8259 41.4177 64.8259 35.4937C64.8259 29.6456 67.3322 26.6076 72.117 26.6076C76.9019 26.6076 79.3322 29.1899 79.3322 34.0506C79.4082 35.1139 79.2563 36.1013 79.0284 37.0886H69.231C69.231 39.0633 70.2183 39.9746 72.5727 39.9746C75.231 40.0506 78.6487 39.7468 78.6487 39.7468ZM74.9272 33.8228C74.9272 31.1646 74.1677 30.3291 72.117 30.3291C70.0664 30.3291 69.3069 31.3165 69.231 33.8228H74.9272Z" fill="white"/>
<path d="M82.3699 26.6836H86.775V27.9747C86.775 27.9747 89.0535 26.6836 90.8762 26.6836C95.5091 26.6836 96.6484 29.5696 96.6484 34.6582V43.9241H92.2433V34.8101C92.2433 32.3038 91.9395 30.7089 89.737 30.7089C88.6737 30.7089 87.6864 30.9367 86.775 31.3165V44H82.3699V26.6836Z" fill="white"/>
<path d="M104.092 43.9241H101.585V28.8861H99.5346V26.6835H101.585V26C101.585 21.2152 102.8 20 106.066 20C107.206 20 109.408 20.2278 109.408 20.2278V22.2785C109.408 22.2785 107.585 22.2025 106.598 22.2025C104.775 22.2025 104.168 22.962 104.168 26.0759V26.7595H108.952V28.8861H104.168L104.092 43.9241Z" fill="white"/>
<path d="M124.902 35.1899C124.902 41.1899 123.459 43.9241 117.838 43.9241C112.218 43.9241 110.775 41.1899 110.775 35.1899C110.775 29.4937 112.598 26.8355 117.838 26.8355C123.079 26.7595 124.902 29.4937 124.902 35.1899ZM122.395 35.1899C122.395 30.633 121.408 28.9621 117.914 28.9621C114.421 28.9621 113.433 30.633 113.433 35.1899C113.433 39.8988 114.041 41.7975 117.914 41.7975C121.788 41.7975 122.395 39.8229 122.395 35.1899Z" fill="white"/>
<path d="M131.585 20H129.079V43.9241H131.585V20Z" fill="white"/>
<path d="M149.206 43.9241H146.775V42.481C146.775 42.481 144.269 43.9241 141.762 43.9241C138.497 43.9241 135.838 42.6329 135.838 35.4937C135.838 29.7215 137.737 26.7595 142.75 26.7595C144.117 26.8354 145.484 26.9114 146.775 27.2152V20H149.206V43.9241ZM146.775 40.5063V29.3418C145.484 29.1139 144.193 28.962 142.826 28.962C139.332 28.962 138.345 31.2405 138.345 35.4937C138.345 40.8101 140.092 41.7215 141.99 41.7215C144.421 41.7215 146.775 40.5063 146.775 40.5063Z" fill="white"/>
</svg>
