<svg width="170" height="64" viewBox="0 0 170 64" fill="none" xmlns="http://www.w3.org/2000/svg">
<path fill-rule="evenodd" clip-rule="evenodd" d="M70.8478 30.2114V27.8881H72.965V24.2757H75.8801V27.8881H79.2103V30.2114H75.8801V37.2321C75.8801 37.9206 76.0237 38.4196 76.3059 38.7292C76.5921 39.0387 77.0091 39.194 77.5579 39.194C77.8518 39.194 78.1321 39.1764 78.3978 39.1432C78.6644 39.1071 78.9271 39.0475 79.1849 38.9616L79.6244 41.155C78.7991 41.4304 77.9026 41.5681 76.9387 41.5681C75.4602 41.5681 74.427 41.1853 73.841 40.4196C73.256 39.654 72.965 38.5055 72.965 36.9733V30.2114H70.8478Z" fill="white"/>
<path fill-rule="evenodd" clip-rule="evenodd" d="M90.1119 33.2837C90.1119 32.1821 89.8541 31.313 89.3394 30.6762C88.8218 30.0405 87.9947 29.7211 86.8609 29.7211C85.7778 29.7211 84.9507 30.0434 84.3823 30.6889C83.8139 31.3345 83.4887 32.1997 83.4018 33.2837H90.1119ZM92.7985 37.3346C92.5544 38.7292 91.9635 39.8093 91.0172 40.5749C90.0699 41.3396 88.7086 41.7234 86.939 41.7234C84.8051 41.7234 83.183 41.1091 82.0717 39.8776C80.9633 38.6481 80.4076 36.9147 80.4076 34.6773C80.4076 33.5249 80.5687 32.5005 80.8842 31.6059C81.2035 30.7114 81.6517 29.9584 82.2289 29.3471C82.8031 28.7367 83.4916 28.2719 84.2924 27.9525C85.0932 27.6351 85.9731 27.475 86.939 27.475C87.9703 27.475 88.8668 27.6351 89.6217 27.9525C90.3775 28.2719 91.0084 28.7192 91.5075 29.2963C92.0055 29.8725 92.3747 30.56 92.6159 31.3598C92.8571 32.1606 92.9782 33.0513 92.9782 34.0318V35.3228H83.351C83.3852 36.5436 83.6938 37.5338 84.2778 38.2897C84.8637 39.0475 85.7515 39.4255 86.939 39.4255C87.8658 39.4255 88.563 39.2448 89.0289 38.8835C89.4928 38.5221 89.8043 38.0065 89.9586 37.3346H92.7985Z" fill="white"/>
<path fill-rule="evenodd" clip-rule="evenodd" d="M97.3621 37.2057C97.4158 37.6539 97.533 38.0192 97.7234 38.3044C97.9129 38.5866 98.1492 38.8151 98.4354 38.987C98.7176 39.1589 99.0487 39.2761 99.4256 39.3356C99.8045 39.3962 100.21 39.4255 100.641 39.4255C101.621 39.4255 102.327 39.28 102.756 38.987C103.187 38.694 103.403 38.2643 103.403 37.6969C103.403 37.2487 103.268 36.8717 103.002 36.5621C102.736 36.2506 102.19 36.0279 101.364 35.8893C100.297 35.7008 99.3592 35.5201 98.5496 35.3482C97.74 35.1763 97.0623 34.939 96.5105 34.6382C95.9587 34.3365 95.5476 33.9507 95.2722 33.4771C94.9948 33.0034 94.8591 32.3628 94.8591 31.5542C94.8591 30.9341 94.9948 30.3706 95.2722 29.8627C95.5476 29.3559 95.9304 28.9252 96.4207 28.5727C96.9109 28.2201 97.4969 27.9496 98.1736 27.7592C98.8543 27.5707 99.5994 27.475 100.409 27.475C101.44 27.475 102.3 27.5785 102.988 27.7855C103.678 27.9916 104.237 28.2758 104.666 28.6371C105.098 28.9985 105.425 29.4116 105.645 29.8764C105.87 30.3403 106.044 30.8315 106.165 31.3472L103.531 31.7085C103.324 31.0376 103.011 30.5385 102.589 30.2114C102.168 29.8852 101.465 29.7211 100.484 29.7211C99.9188 29.7211 99.4539 29.7729 99.0926 29.8764C98.7313 29.979 98.4422 30.1088 98.2273 30.2631C98.0115 30.4184 97.866 30.5913 97.7879 30.7798C97.7117 30.9692 97.6726 31.1577 97.6726 31.3472C97.6726 31.6392 97.7068 31.8804 97.7762 32.0698C97.8436 32.2603 97.9695 32.4136 98.1492 32.5347C98.3309 32.6548 98.574 32.7583 98.8856 32.8443C99.1932 32.9312 99.5828 33.0161 100.048 33.1031L101.725 33.3853C102.619 33.5415 103.364 33.7388 103.958 33.9791C104.551 34.2222 105.024 34.5191 105.377 34.8697C105.729 35.2232 105.974 35.6324 106.111 36.0973C106.249 36.5621 106.318 37.0768 106.318 37.6452C106.318 38.8669 105.854 39.8522 104.924 40.6003C103.997 41.3493 102.586 41.7234 100.691 41.7234C99.9188 41.7234 99.1737 41.6492 98.4598 41.5037C97.7459 41.3572 97.1043 41.112 96.5359 40.7683C95.9665 40.4235 95.5085 39.9646 95.155 39.3874C94.8025 38.8112 94.6003 38.0836 94.5505 37.2057H97.3621Z" fill="white"/>
<path fill-rule="evenodd" clip-rule="evenodd" d="M107.373 30.2114V27.8881H109.488V24.2757H112.406V27.8881H115.736V30.2114H112.406V37.2321C112.406 37.9206 112.549 38.4196 112.832 38.7292C113.114 39.0387 113.532 39.194 114.084 39.194C114.375 39.194 114.655 39.1764 114.921 39.1432C115.19 39.1071 115.45 39.0475 115.711 38.9616L116.148 41.155C115.322 41.4304 114.429 41.5681 113.465 41.5681C111.984 41.5681 110.952 41.1853 110.367 40.4196C109.782 39.654 109.488 38.5055 109.488 36.9733V30.2114H107.373Z" fill="white"/>
<path fill-rule="evenodd" clip-rule="evenodd" d="M118.15 41.3103H121.091V22.8821H118.15V41.3103Z" fill="white"/>
<path fill-rule="evenodd" clip-rule="evenodd" d="M124.322 41.3103H127.266V27.8881H124.322V41.3103ZM124.272 25.7972H127.316V22.8821H124.272V25.7972Z" fill="white"/>
<path fill-rule="evenodd" clip-rule="evenodd" d="M136.558 39.3483C137.797 39.3483 138.704 38.9225 139.281 38.0709C139.857 37.2203 140.146 36.0533 140.146 34.5738C140.146 33.1118 139.857 31.9595 139.281 31.1147C138.704 30.2719 137.797 29.85 136.558 29.85C135.32 29.85 134.411 30.2758 133.837 31.1284C133.259 31.98 132.97 33.1284 132.97 34.5738C132.97 36.0367 133.251 37.1979 133.808 38.0592C134.369 38.9186 135.284 39.3483 136.558 39.3483ZM136.534 41.7234C134.432 41.7234 132.805 41.1042 131.655 39.8649C130.501 38.6257 129.923 36.8717 129.923 34.6002C129.923 33.5328 130.075 32.5611 130.378 31.6831C130.677 30.8051 131.112 30.0571 131.68 29.4369C132.249 28.8178 132.946 28.3363 133.771 27.9926C134.595 27.6478 135.533 27.475 136.584 27.475C137.65 27.475 138.597 27.6527 139.424 28.0043C140.25 28.3578 140.941 28.8432 141.502 29.4633C142.059 30.0825 142.481 30.8276 142.765 31.6958C143.05 32.5659 143.19 33.5162 143.19 34.5484C143.19 35.7193 143.028 36.7467 142.7 37.6315C142.375 38.5182 141.913 39.2673 141.319 39.8776C140.726 40.488 140.026 40.9489 139.217 41.2585C138.407 41.5681 137.514 41.7234 136.534 41.7234Z" fill="white"/>
<path fill-rule="evenodd" clip-rule="evenodd" d="M44.4448 21.5491C46.9868 21.5491 49.3775 21.9358 51.5397 22.6477L52.3727 18.0939L47.4165 20.4856L44.4448 16.7648L41.4789 20.4856L36.5256 18.0939L37.3548 22.6448C39.5169 21.9358 41.9057 21.5491 44.4448 21.5491ZM40.7015 40.9245L44.4477 44.0564L48.1968 40.9245L50.9987 25.6068C47.063 24.2024 41.8344 24.2015 37.8987 25.6058L40.7015 40.9245ZM46.7652 45.993L49.7701 48.5058C52.318 47.1854 59.9286 42.7586 59.9286 36.9752C59.9286 32.7407 57.5613 29.1274 53.781 26.9008L50.9225 42.5144L46.7652 45.993ZM35.1164 26.8988C31.3361 29.1264 28.9688 32.7407 28.9688 36.9752C28.9688 42.2625 35.6653 46.7587 39.1195 48.5136L42.1332 45.993L37.9749 42.5144L35.1164 26.8988ZM49.3189 52L44.4477 47.9286L39.5785 52L38.7288 51.6201C38.2093 51.3877 26 45.8075 26 36.9752C26 31.27 29.335 26.475 34.55 23.8108L32.549 12.8799L40.6351 16.7814L44.4448 12L48.2593 16.7814L56.3484 12.8799L54.3474 23.8128C59.5614 26.4779 62.8974 31.271 62.8974 36.9752C62.8974 45.8075 50.6881 51.3877 50.1686 51.6201L49.3189 52Z" fill="white"/>
</svg>
