<svg width="170" height="64" viewBox="0 0 170 64" fill="none" xmlns="http://www.w3.org/2000/svg">
<path d="M37.3485 15.3414L30.0938 16.6008L30.0117 28.0441C29.9569 40.5552 30.039 41.7597 31.5174 44.4426C32.5303 46.3042 34.8025 48.3301 36.7463 49.0692C39.8124 50.2738 45.5889 50.0274 48.3539 48.6038C49.0383 48.2479 49.2299 48.2479 49.9143 48.6312C53.309 50.3833 60.1805 50.3012 64.4512 48.4669L65.7927 47.892L66.6961 48.4396C68.8588 49.7536 69.7896 49.8358 80.0558 49.6715L89.6376 49.5073V47.1255L90.6779 47.8099C91.2528 48.1932 92.4573 48.7681 93.3608 49.124C94.8391 49.6715 95.414 49.7263 99.7668 49.6715C103.463 49.6441 105.352 49.4799 107.98 48.9871L111.402 48.3574L111.484 40.9658C111.593 31.6852 111.32 29.057 110.033 26.4015C107.514 21.2548 101.847 19.0646 94.6474 20.4335C92.7037 20.8167 92.2657 20.8167 89.7744 20.4061C87.4474 19.9954 86.6261 19.9954 84.2991 20.2692C82.7934 20.4335 80.3569 20.5703 78.906 20.5703H76.2231V14L75.4839 14.1643C75.0459 14.2464 71.706 14.8213 68.0102 15.4783L61.3029 16.6281L61.2208 18.7635C61.1387 20.8167 61.1113 20.8989 60.5364 20.7346C58.182 20.1597 56.8406 19.9954 55.3349 20.1323C54.4041 20.2145 51.6938 20.3787 49.3394 20.4608L45.014 20.6251V17.3126C45.014 15.4783 44.9318 14 44.8223 14.0274C44.6854 14.0548 41.3455 14.6297 37.3485 15.3414ZM45.5615 26.5932V29.057H38.9911V33.6289C38.9911 40.5552 39.3744 41.2669 42.7417 41.0479C43.782 40.9658 44.8223 40.8289 45.0687 40.7194C45.4246 40.5552 45.5889 40.7194 45.8352 41.6228C45.9995 42.2525 46.0816 42.8548 45.9995 42.9917C45.5341 43.7308 40.6063 44.1141 39.0733 43.5392C37.8413 43.0738 36.8284 41.8966 36.3904 40.4457C36.0619 39.378 35.9797 37.27 35.9797 30.3985V21.7202L37.4307 21.4738L38.8542 21.2548L39.0185 26.5932H45.5615ZM76.7706 26.5932V29.057H70.2003V33.492C70.2003 38.2282 70.4467 39.7065 71.3227 40.5825C71.8155 41.0753 72.1714 41.1301 73.8414 41.0479C74.9364 40.9932 76.0315 40.8563 76.2779 40.7194C76.6611 40.5552 76.798 40.7194 77.0444 41.6502C77.2087 42.3072 77.2634 42.9095 77.1265 43.019C76.6064 43.4844 74.909 43.8403 73.1022 43.8403C69.817 43.813 68.0923 42.6358 67.49 39.9802C67.3258 39.2958 67.1889 34.9977 67.1889 30.2342V21.7202L68.6398 21.4738L70.0634 21.2548L70.2277 26.5932H76.7706ZM58.4832 26.4837C61.2482 27.4145 62.8086 30.07 62.9181 33.9574L62.9455 35.7643L57.087 35.8464L51.2558 35.9012L51.4474 36.9415C51.9949 39.9255 53.7197 41.1848 57.1965 41.1574C58.401 41.1574 59.7972 40.9932 60.3174 40.8563C60.8375 40.692 61.3029 40.6099 61.3577 40.6647C61.4124 40.7194 61.4946 41.2943 61.522 41.9514C61.5767 43.1012 61.5767 43.1285 60.3448 43.4844C58.5653 44.0046 54.8695 43.9772 53.1721 43.4023C51.2558 42.7726 49.3668 40.8837 48.6824 38.8852C47.998 36.9141 47.998 33.273 48.655 31.3019C50.0512 27.305 54.5136 25.1148 58.4832 26.4837ZM88.7615 26.292C89.3912 26.4289 89.9935 26.5932 90.0756 26.6753C90.1577 26.7574 90.1303 27.3597 90.0482 28.0441L89.8566 29.2487L88.7341 29.0023C87.5569 28.7285 84.4634 28.838 83.9159 29.1666C83.6969 29.3034 83.6147 31.5757 83.6147 36.4761V43.5666H80.6033V27.1681L81.7805 26.8396C84.5455 26.1004 86.7904 25.9088 88.7615 26.292ZM101.163 26.3194C102.778 26.7848 103.955 27.743 104.695 29.1939C105.352 30.508 105.379 30.8091 105.461 36.8867L105.571 43.2107L104.804 43.4023C103.052 43.813 96.8649 43.9225 95.7699 43.5666C93.1965 42.7453 91.9372 40.7742 92.1562 38.0091C92.3204 36.0654 93.1417 34.943 95.0855 34.0122C96.4269 33.3825 96.9744 33.3004 99.4383 33.3004H102.231V32.2875C102.231 29.851 100.971 28.7833 98.1243 28.7833C97.1387 28.7833 95.8794 28.8928 95.3045 29.0297C94.1273 29.3034 94.0999 29.2761 93.963 27.8251L93.8809 26.7301L95.3866 26.4015C97.303 26.0183 99.9037 25.9635 101.163 26.3194Z" fill="white"/>
<path d="M53.5006 29.3856C52.5698 30.0152 51.7759 31.3293 51.4474 32.6707L51.2558 33.4373H59.7972V32.7529C59.7972 31.6578 59.1402 30.3164 58.182 29.5224C57.0048 28.5369 54.8421 28.4821 53.5006 29.3856Z" fill="white"/>
<path d="M96.7554 36.2297C95.7699 36.7498 95.4687 37.051 95.2771 37.8723C94.7296 40.1171 96.2627 41.3764 99.6026 41.3764C102.285 41.3764 102.231 41.4312 102.231 38.5019V35.9559L101.382 35.7917C99.6847 35.4631 97.9874 35.6274 96.7554 36.2297Z" fill="white"/>
<path d="M115.892 22.0213C113.482 23.6365 114.605 27.2228 117.534 27.2228C119.56 27.2228 120.901 25.5803 120.409 23.6365C120.135 22.4867 118.739 21.3917 117.562 21.3917C117.151 21.3917 116.412 21.6654 115.892 22.0213Z" fill="white"/>
<path d="M122.736 25.635C122.325 25.854 121.805 26.4563 121.559 27.0038C120.628 28.9475 122.051 30.9734 124.324 30.9734C126.048 30.9734 127.143 29.8783 127.143 28.1536C127.143 27.0859 127.006 26.8122 126.185 26.073C125.09 25.1422 123.94 24.978 122.736 25.635Z" fill="white"/>
<path d="M115.481 29.9878C112.771 32.6981 116.686 36.5581 119.533 34.0121C120.299 33.3277 120.436 33.0266 120.436 31.9315C120.436 30.8365 120.299 30.5353 119.533 29.8509C118.246 28.6737 116.74 28.7285 115.481 29.9878Z" fill="white"/>
<path d="M129.197 29.3855C128.184 29.933 127.691 30.8091 127.691 32.0137C127.691 35.3262 132.4 35.9285 133.44 32.7802C134.206 30.4258 131.387 28.1536 129.197 29.3855Z" fill="white"/>
<path d="M122.599 33.4098C121.394 34.149 120.956 35.5178 121.476 36.8045C122.024 38.0638 122.9 38.6387 124.296 38.6387C125.966 38.6387 127.143 37.4889 127.143 35.8463C127.116 33.3825 124.734 32.0958 122.599 33.4098Z" fill="white"/>
<path d="M135.301 33.6836C134.535 34.368 134.398 34.6691 134.398 35.7642C134.398 36.8593 134.535 37.1604 135.301 37.8448C136.588 39.022 138.094 38.9672 139.353 37.7079C140.065 36.9961 140.284 36.5581 140.284 35.7642C140.284 34.9703 140.065 34.5323 139.353 33.8205C138.094 32.5612 136.588 32.5064 135.301 33.6836Z" fill="white"/>
<path d="M115.481 37.6533C114.769 38.365 114.55 38.8031 114.55 39.597C114.55 41.0753 116.001 42.4715 117.534 42.4715C119.067 42.4715 120.272 41.4038 120.491 39.816C120.628 38.7483 120.546 38.5567 119.67 37.6806C118.876 36.8867 118.52 36.7225 117.562 36.7225C116.631 36.7225 116.247 36.8867 115.481 37.6533Z" fill="white"/>
<path d="M129.197 37.051C127.143 38.1734 127.171 41.1027 129.251 42.1704C131.633 43.3749 134.343 40.9658 133.358 38.5567C133.139 38.0365 132.673 37.4069 132.317 37.1605C131.578 36.6677 130.018 36.5856 129.197 37.051Z" fill="white"/>
<path d="M122.517 40.9931C120.874 42.1429 120.929 44.7711 122.571 45.7566C124.132 46.7148 126.158 46.2494 126.815 44.7984C127.8 42.6631 126.568 40.5551 124.351 40.5551C123.694 40.5551 122.873 40.7467 122.517 40.9931Z" fill="white"/>
<path d="M116.877 44.3605C114.605 45.0722 113.838 47.4266 115.344 49.0966C116.056 49.8905 116.302 50 117.534 50C119.259 50 120.272 49.1513 120.491 47.4814C120.628 46.4958 120.546 46.2494 119.724 45.4008C118.766 44.4152 117.808 44.0593 116.877 44.3605Z" fill="white"/>
</svg>
