<svg width="1274" height="488" viewBox="0 0 1274 488" fill="none" xmlns="http://www.w3.org/2000/svg">
<path d="M726.72 367.85L665.12 179.13H691.44L720.84 272.09C728.96 297.57 735.96 320.53 741 342.65H741.56C746.88 320.81 754.72 297.01 763.12 272.37L795.04 179.13H821.08L753.6 367.85H726.72Z" fill="white"/>
<path d="M906.48 367.85L904.52 350.77H903.68C896.12 361.41 881.56 370.93 862.24 370.93C834.8 370.93 820.8 351.61 820.8 332.01C820.8 299.25 849.92 281.33 902.28 281.61V278.81C902.28 267.61 899.2 247.45 871.48 247.45C858.88 247.45 845.72 251.37 836.2 257.53L830.6 241.29C841.8 234.01 858.04 229.25 875.12 229.25C916.56 229.25 926.64 257.53 926.64 284.69V335.37C926.64 347.13 927.2 358.61 928.88 367.85H906.48ZM902.84 298.69C875.96 298.13 845.44 302.89 845.44 329.21C845.44 345.17 856.08 352.73 868.68 352.73C886.32 352.73 897.52 341.53 901.44 330.05C902.28 327.53 902.84 324.73 902.84 322.21V298.69Z" fill="white"/>
<path d="M966.4 169.05H991.04V367.85H966.4V169.05Z" fill="white"/>
<path d="M1059.92 194.25C1060.2 202.65 1054.04 209.37 1044.24 209.37C1035.56 209.37 1029.4 202.65 1029.4 194.25C1029.4 185.85 1035.84 178.85 1044.8 178.85C1053.76 178.85 1059.92 185.57 1059.92 194.25ZM1032.48 367.85V232.33H1057.12V367.85H1032.48Z" fill="white"/>
<path d="M1094.64 342.65C1101.92 347.41 1114.8 352.45 1127.12 352.45C1145.04 352.45 1153.44 343.49 1153.44 332.29C1153.44 320.53 1146.44 314.09 1128.24 307.37C1103.88 298.69 1092.4 285.25 1092.4 269.01C1092.4 247.17 1110.04 229.25 1139.16 229.25C1152.88 229.25 1164.92 233.17 1172.48 237.65L1166.32 255.57C1161 252.21 1151.2 247.73 1138.6 247.73C1124.04 247.73 1115.92 256.13 1115.92 266.21C1115.92 277.41 1124.04 282.45 1141.68 289.17C1165.2 298.13 1177.24 309.89 1177.24 330.05C1177.24 353.85 1158.76 370.65 1126.56 370.65C1111.72 370.65 1098 367.01 1088.48 361.41L1094.64 342.65Z" fill="white"/>
<path d="M1238.56 193.41V232.33H1273.84V251.09H1238.56V324.17C1238.56 340.97 1243.32 350.49 1257.04 350.49C1263.48 350.49 1268.24 349.65 1271.32 348.81L1272.44 367.29C1267.68 369.25 1260.12 370.65 1250.6 370.65C1239.12 370.65 1229.88 367.01 1224 360.29C1217 353.01 1214.48 340.97 1214.48 325.01V251.09H1193.48V232.33H1214.48V199.85L1238.56 193.41Z" fill="white"/>
<path d="M74.35 48H161.48L261.66 269.78L288 211.48L192.47 0H0L191.53 424H192L218.1 366.22L74.35 48Z" fill="white"/>
<path d="M547.09 64L525.41 112H541.65L393.48 440H306.35L313.58 424H260.91L232 488H424.47L616 64H547.09Z" fill="white"/>
<path d="M282.59 376H309.65L296.12 346.06L282.59 376Z" fill="white"/>
<path d="M322.46 287.76L348.79 346.06L454.52 112H472.74L494.42 64H423.53L322.46 287.76Z" fill="white"/>
<path d="M322.46 287.76L296.12 346.06L309.65 376H335.26L348.79 346.06L322.46 287.76Z" fill="white"/>
<path d="M335.26 376H309.65H282.59L260.91 424H313.58L335.26 376Z" fill="white"/>
<path d="M261.66 269.78L218.1 366.22L222.52 376H266.35L288 328.08L261.66 269.78Z" fill="white"/>
<path d="M414.52 48H501.65L494.42 64H547.09L576 0H383.53L288 211.48L314.34 269.78L414.52 48Z" fill="white"/>
<path d="M266.35 376H222.52L218.1 366.22L192 424H260.91L282.59 376H266.35Z" fill="white"/>
<path d="M288 328.08L314.34 269.78L288 211.48L261.66 269.78L288 328.08Z" fill="white"/>
<path d="M357.9 366.22L384 424H384.47L525.41 112H472.74L357.9 366.22Z" fill="white"/>
<path d="M357.9 366.22L353.48 376H335.26L313.58 424H384L357.9 366.22Z" fill="white"/>
<path d="M472.74 112H525.41L547.09 64H494.42L472.74 112Z" fill="white"/>
</svg>
