<svg version="1.2" xmlns="http://www.w3.org/2000/svg" viewBox="0 0 110 42" width="110" height="42">
	<title>valist-svg</title>
	<style>
		.s0 { fill: #ffffff } 
	</style>
	<path id="Layer" class="s0" d="m62.7 31.7l-5.3-16.3h2.3l2.5 8c0.7 2.2 1.3 4.2 1.8 6.1 0.5-1.9 1.2-3.9 1.9-6.1l2.7-8h2.3l-5.8 16.3z"/>
	<path id="Layer" fill-rule="evenodd" class="s0" d="m78.3 31.7l-0.2-1.5h-0.1c-0.6 0.9-1.9 1.7-3.6 1.7-2.3 0-3.5-1.6-3.5-3.3 0-2.8 2.5-4.4 7-4.4v-0.2c0-1-0.3-2.7-2.7-2.7-1 0-2.2 0.3-3 0.9l-0.5-1.4c1-0.7 2.4-1.1 3.9-1.1 3.5 0 4.4 2.5 4.4 4.8v4.4c0 1 0.1 2 0.2 2.8zm-0.3-6c-2.3 0-5 0.4-5 2.6 0 1.4 0.9 2.1 2 2.1 1.6 0 2.5-1 2.9-2q0.1-0.3 0.1-0.7z"/>
	<path id="Layer" class="s0" d="m83.4 14.5h2.2v17.2h-2.2z"/>
	<path id="Layer" class="s0" d="m91.5 16.7c0 0.7-0.5 1.3-1.3 1.3-0.8 0-1.3-0.6-1.3-1.3 0-0.7 0.5-1.3 1.3-1.3 0.8 0 1.3 0.6 1.3 1.3zm-2.4 3.3h2.2v11.7h-2.2z"/>
	<path id="Layer" class="s0" d="m94.5 29.5c0.6 0.4 1.8 0.8 2.8 0.8 1.6 0 2.3-0.7 2.3-1.7 0-1-0.6-1.6-2.2-2.1-2.1-0.8-3.1-1.9-3.1-3.3 0-1.9 1.5-3.5 4.1-3.5 1.1 0 2.2 0.4 2.8 0.8l-0.5 1.5c-0.5-0.3-1.3-0.7-2.4-0.7-1.2 0-1.9 0.7-1.9 1.6 0 1 0.7 1.4 2.2 2 2 0.8 3 1.8 3 3.5 0 2.1-1.6 3.5-4.3 3.5-1.3 0-2.5-0.3-3.3-0.8z"/>
	<path id="Layer" class="s0" d="m106.9 16.6v3.4h3.1v1.6h-3.1v6.3c0 1.4 0.5 2.3 1.6 2.3 0.6 0 1-0.1 1.3-0.2l0.1 1.6c-0.4 0.2-1.1 0.3-1.9 0.3-1 0-1.8-0.3-2.3-0.9-0.6-0.6-0.8-1.7-0.8-3v-6.4h-1.9v-1.6h1.9v-2.8z"/>
	<path id="Layer" class="s0" d="m6.4 4.1h7.5l8.7 19.1 2.3-5-8.3-18.2h-16.6l16.5 36.5h0.1l2.2-5z"/>
	<path id="Layer" class="s0" d="m47.2 5.5l-1.8 4.1h1.4l-12.8 28.3h-7.5l0.6-1.4h-4.6l-2.5 5.5h16.6l16.6-36.5z"/>
	<path id="Layer" class="s0" d="m24.4 32.4h2.3l-1.1-2.6z"/>
	<path id="Layer" class="s0" d="m27.8 24.8l2.3 5 9.1-20.2h1.6l1.9-4.1h-6.1z"/>
	<path id="Layer" class="s0" d="m27.8 24.8l-2.2 5 1.1 2.6h2.2l1.2-2.6z"/>
	<path id="Layer" class="s0" d="m28.9 32.4h-2.2-2.3l-1.9 4.1h4.6z"/>
	<path id="Layer" class="s0" d="m22.6 23.2l-3.8 8.3 0.4 0.9h3.8l1.9-4.2z"/>
	<path id="Layer" class="s0" d="m35.8 4.1h7.5l-0.6 1.4h4.5l2.5-5.5h-16.6l-8.2 18.2 2.2 5z"/>
	<path id="Layer" class="s0" d="m23 32.4h-3.8l-0.4-0.9-2.2 5h5.9l1.9-4.1z"/>
	<path id="Layer" class="s0" d="m24.9 28.2l2.2-5-2.2-5-2.3 5z"/>
	<path id="Layer" class="s0" d="m30.9 31.5l2.3 5 12.2-26.9h-4.6z"/>
	<path id="Layer" class="s0" d="m30.9 31.5l-0.4 0.9h-1.6l-1.8 4.1h6.1z"/>
	<path id="Layer" class="s0" d="m40.8 9.6h4.6l1.8-4.1h-4.5z"/>
</svg>