<svg width="170" height="64" viewBox="0 0 170 64" fill="none" xmlns="http://www.w3.org/2000/svg">
<path fill-rule="evenodd" clip-rule="evenodd" d="M40.83 33.9664C40.1832 37.5862 37.0455 40.2105 33.3687 40.2105H25.3025L24.6316 44H40.0002C42.4855 44 44.5515 42.2055 44.9739 39.8418L47.3684 26.3158H42.1843L40.83 33.9664Z" fill="white"/>
<path fill-rule="evenodd" clip-rule="evenodd" d="M38.3424 33.526L40.7368 20H25.3673C25.2847 20 25.2024 20.0023 25.1207 20.0062C25.0937 20.0075 25.067 20.0099 25.04 20.0117C24.9855 20.0152 24.9313 20.0189 24.8773 20.0241C24.8457 20.0271 24.8143 20.031 24.7828 20.0347C24.734 20.0403 24.6854 20.0462 24.637 20.0532C24.6039 20.0579 24.571 20.0634 24.538 20.0688C24.4918 20.0765 24.4459 20.0846 24.4 20.0935C24.3667 20.0999 24.3334 20.1067 24.3002 20.1138C24.2552 20.1235 24.2106 20.1339 24.1662 20.1448C24.1333 20.1528 24.1003 20.1608 24.0676 20.1695C24.023 20.1813 23.979 20.1941 23.935 20.2071C23.9032 20.2165 23.8714 20.2255 23.84 20.2354C23.7939 20.25 23.7485 20.2659 23.7031 20.2818C23.6745 20.2917 23.6457 20.301 23.6173 20.3114C23.5508 20.3361 23.4849 20.3621 23.4197 20.3894C23.3869 20.4031 23.3547 20.4179 23.3222 20.4323C23.2803 20.4509 23.2382 20.4693 23.1969 20.489C23.1621 20.5056 23.1281 20.5233 23.0938 20.5406C23.0598 20.5577 23.0257 20.5747 22.9922 20.5926C22.9561 20.6118 22.9206 20.632 22.885 20.6521C22.8544 20.6694 22.8239 20.6867 22.7938 20.7046C22.7571 20.7264 22.7208 20.7487 22.6848 20.7713C22.657 20.7888 22.6295 20.8064 22.6021 20.8244C22.565 20.8487 22.5282 20.8734 22.4918 20.8987C22.467 20.9158 22.4426 20.9334 22.4182 20.9509C22.3802 20.9783 22.3424 21.0058 22.3053 21.0341C22.285 21.0495 22.2652 21.0656 22.2452 21.0813C22.2051 21.1129 22.1649 21.1446 22.1257 21.1774C22.1156 21.1859 22.1058 21.1949 22.0957 21.2035C21.8923 21.3765 21.7028 21.5654 21.529 21.7683C21.5222 21.7763 21.5151 21.7843 21.5083 21.7923C21.4689 21.8388 21.4307 21.8863 21.3932 21.9341C21.385 21.9444 21.3769 21.9546 21.3689 21.9649C21.3317 22.0131 21.2953 22.0619 21.2598 22.1115C21.2529 22.1212 21.246 22.1309 21.2391 22.1407C21.2027 22.1921 21.1673 22.2441 21.1329 22.2969C21.1287 22.3034 21.1246 22.3098 21.1204 22.3162C20.8508 22.7337 20.6414 23.1933 20.5037 23.6832L20.5016 23.6908C20.4824 23.7592 20.4649 23.828 20.4486 23.8974C20.4478 23.9009 20.447 23.9045 20.4461 23.9081C20.4298 23.9782 20.4149 24.049 20.4017 24.1203L20.4013 24.1224C20.391 24.1774 20.3803 24.2324 20.3719 24.288L18 37.6842H33.3687C35.8539 37.6842 37.9199 35.8897 38.3424 33.526Z" fill="white"/>
<path fill-rule="evenodd" clip-rule="evenodd" d="M60.8725 36.9141L65.3531 22.0271H70.4118L63.821 42.2619H57.924L51.3333 22.0271H56.392L60.8725 36.9141ZM71.4233 42.2619V27.8085H75.7592V42.2619H71.4233ZM73.5912 21.3333C75.0077 21.3333 76.1929 22.5185 76.1929 23.935C76.1929 25.3515 75.0077 26.5366 73.5912 26.5366C72.1748 26.5366 70.9896 25.3515 70.9896 23.935C70.9896 22.5185 72.1748 21.3333 73.5912 21.3333ZM89.4318 22.0271H93.7679V42.2619H89.4318V40.9033C88.4779 42.0018 87.0615 42.6667 85.1248 42.6667C81.338 42.6667 78.216 39.3424 78.216 35.0352C78.216 30.7282 81.338 27.4038 85.1248 27.4038C87.0615 27.4038 88.4779 28.0687 89.4318 29.1672V22.0271ZM85.992 38.5618C87.9865 38.5618 89.4318 37.2032 89.4318 35.0352C89.4318 32.8673 87.9865 31.5086 85.992 31.5086C83.9973 31.5086 82.5521 32.8673 82.5521 35.0352C82.5521 37.2032 83.9973 38.5618 85.992 38.5618ZM106.978 35.0352V30.9882H117.124V32.7226C117.124 38.9088 112.817 42.6667 107.151 42.6667C100.792 42.6667 96.2244 37.9837 96.2244 32.1734C96.2244 26.3053 100.878 21.6224 106.833 21.6224C110.707 21.6224 113.973 23.5303 115.679 26.2476L111.747 28.5022C110.909 27.1725 109.088 26.1319 106.804 26.1319C103.393 26.1319 100.849 28.6468 100.849 32.2023C100.849 35.6422 103.278 38.1571 107.209 38.1571C109.897 38.1571 111.661 36.9719 112.383 35.0352H106.978ZM123.916 30.3812C124.495 28.4444 126.431 27.5194 128.252 27.5194V32.4336C126.46 32.1445 123.916 32.8672 123.916 35.729V42.262H119.58V27.8085H123.916V30.3812ZM132.444 21.3333C133.86 21.3333 135.045 22.5185 135.045 23.935C135.045 25.3515 133.86 26.5366 132.444 26.5366C131.027 26.5366 129.842 25.3515 129.842 23.935C129.842 22.5185 131.027 21.3333 132.444 21.3333ZM130.276 42.2619V27.8085H134.612V42.2619H130.276ZM148.284 22.0271H152.62V42.2619H148.284V40.9033C147.33 42.0018 145.914 42.6667 143.977 42.6667C140.19 42.6667 137.068 39.3424 137.068 35.0352C137.068 30.7282 140.19 27.4038 143.977 27.4038C145.914 27.4038 147.33 28.0687 148.284 29.1672V22.0271ZM144.844 38.5618C146.839 38.5618 148.284 37.2032 148.284 35.0352C148.284 32.8673 146.839 31.5086 144.844 31.5086C142.85 31.5086 141.405 32.8673 141.405 35.0352C141.405 37.2032 142.85 38.5618 144.844 38.5618Z" fill="white"/>
</svg>
