<svg version="1.2" xmlns="http://www.w3.org/2000/svg" viewBox="0 0 300 66" width="300" height="66">
	<defs>
		<clipPath clipPathUnits="userSpaceOnUse" id="cp1">
			<path d="m244.41 7.04v51.92h-189.26v-51.92z"/>
		</clipPath>
		<clipPath clipPathUnits="userSpaceOnUse" id="cp2">
			<path d="m244.41 7.04v51.92h-189.26v-51.92z"/>
		</clipPath>
	</defs>
	<style>
		.s0 { fill: #ffffff } 
	</style>
	<g id="Clip-Path" clip-path="url(#cp1)">
		<g>
			<g id="Clip-Path" clip-path="url(#cp2)">
				<g>
					<path class="s0" d="m115.91 12.01l-9.96-4.97-9.96 4.97-0.87 0.43-1.36 0.68-7.73 3.86-7.73-3.86-1.36-0.68-0.87-0.43-9.96-4.97-9.97 4.97-0.99 0.49v11.17l9.96 4.97 9.96 4.96v19.87l9.96 4.97 1 0.5 1-0.5 9.96-4.97v-19.87l9.96-4.96 9.96-4.97v-11.17zm-17.69 1.11l7.73-3.86 7.73 3.86-6.73 3.37-1 0.49-6.72-3.35-1.01-0.5zm-12.19 6.08l3.87 1.93 3.86 1.92-7.73 3.86-7.73-3.86 3.87-1.92 3.87-1.93zm-8.97 5.46l7.97 3.98v7.71l-7.97-3.97zm9.96 3.97l7.97-3.97v7.71l-7.97 3.97zm8.97-14.4l7.73 3.86-6.74 3.36-0.99 0.5-3.87-1.93-3.87-1.93 7.73-3.86zm-16.05 5.78l-3.87 1.93-1-0.5-6.73-3.36 7.73-3.86 7.73 3.86-3.87 1.93zm-13.83-10.75l7.74 3.85-1.01 0.51-6.73 3.35-0.99-0.5-6.74-3.36zm-8.97 13.18v-7.72l6.75 3.37 1.23 0.61v7.72l-7.97-3.98zm9.96 4.97v-7.71l7.97 3.97v7.71zm17.93 11.17v7.71l-7.97-3.97v-7.72zm0 17.65l-7.97-3.97v-7.72l7.97 3.98zm9.96-3.98l-7.97 3.98v-7.72l7.97-3.97zm0-9.93l-7.97 3.97v-7.71l7.97-3.98zm2-18.64l7.96-3.97v7.71l-7.96 3.97zm17.93-1.22l-7.97 3.97v-7.71l7.97-3.98z"/>
					<path class="s0" d="m127.11 51.8l15.57-20.12 7.09 4.17-11.91 15.95zm29.22 0l-12.76-16.64-16.2-20.32h11.17l12.39 16.21 16.63 20.75zm-4.4-17.16l-7.04-4.02 11.33-15.78h10.75z"/>
					<path class="s0" d="m186.35 51.8v-17.69l0.64 3.22-16.94-22.49h10.64l12.65 17.26-4.6-0.1 11.8-17.16h10.11l-15.83 22.23 0.59-3.38v18.11z"/>
					<path class="s0" d="m211.55 51.8v-5.97l22.34-26.4 3.66 3.7h-24.62v-8.29h30.92v5.91l-22.29 26.45-3.65-3.32h26.52v7.92z"/>
				</g>
			</g>
		</g>
	</g>
</svg>