<svg width="170" height="64" viewBox="0 0 170 64" fill="none" xmlns="http://www.w3.org/2000/svg">
<path d="M23.7147 30.3709L23.7399 27.6519H12.5392V31.1343H18.615L12.0252 39.0763L12 41.7938H24.0278V38.3114H17.124L23.7147 30.3709ZM37.9751 32.3424C37.9075 31.9709 37.7938 31.6092 37.6367 31.2657C37.1255 30.1277 36.2998 29.1587 35.2564 28.4723C34.2165 27.7959 32.938 27.4625 31.4097 27.4625C30.3836 27.4465 29.3648 27.638 28.4148 28.0254C27.5706 28.3754 26.8105 28.9004 26.1848 29.5654C25.5626 30.2357 25.0814 31.0238 24.7697 31.8829C24.4406 32.79 24.2753 33.7482 24.2814 34.7129C24.2708 35.694 24.4495 36.668 24.8076 37.5818C25.1376 38.4359 25.6359 39.2152 26.2731 39.8738C26.9193 40.5351 27.6958 41.0557 28.5536 41.4027C29.4894 41.7771 30.4899 41.964 31.4981 41.9529C32.6806 41.9675 33.8533 41.7376 34.9424 41.2776C35.9017 40.8679 36.8136 40.3554 37.662 39.749L35.7692 37.6816C35.1119 38.0094 34.4177 38.2576 33.7014 38.421C32.9782 38.5853 32.2388 38.67 31.4969 38.6737C30.5313 38.6737 29.7045 38.421 29.0156 37.9163C28.3265 37.4112 27.9881 36.6767 27.9881 35.7112H37.8616C37.9641 35.3819 38.0355 35.0437 38.0749 34.7011C38.1129 34.3142 38.1256 33.9251 38.1128 33.5365C38.0977 33.1356 38.0517 32.7363 37.9751 32.3424ZM28.1432 33.4518C28.1584 33.1068 28.2484 32.7692 28.4071 32.4623C28.5683 32.1328 28.7939 31.8388 29.0707 31.5976C29.3639 31.3251 29.7065 31.1109 30.0802 30.9664C30.503 30.8014 30.9541 30.7208 31.408 30.7291C32.0293 30.7122 32.6425 30.873 33.1752 31.1924C33.635 31.4656 34.0149 31.8543 34.277 32.3198C34.3909 32.4927 34.4763 32.6832 34.5294 32.8835C34.5867 33.0661 34.616 33.2555 34.6163 33.4467L28.1432 33.4518ZM51.4455 29.3559C50.9297 28.7405 50.2718 28.2594 49.5283 27.9538C48.7635 27.6153 47.8624 27.4488 46.8477 27.4488C45.8566 27.4312 44.8746 27.641 43.9776 28.062C43.5937 28.2455 43.2356 28.4785 42.9124 28.755V27.6494H39.3167V41.7861H42.9099V34.8797C42.9099 33.5279 43.2116 32.5256 43.8124 31.8995C44.4129 31.2734 45.2282 30.9466 46.2684 30.9466C47.2326 30.9466 47.9975 31.2104 48.5616 31.7607C49.1257 32.311 49.4133 33.2389 49.4133 34.5541V41.7941H53.0065V34.3291C53.0138 33.3832 52.8785 32.4416 52.6053 31.5358C52.3676 30.7395 51.9734 29.9985 51.4455 29.3559ZM95.3218 34.2167C94.818 33.8589 94.2531 33.5954 93.6547 33.4392C92.9921 33.2708 92.3166 33.1577 91.6352 33.101L90.671 32.9886C89.7877 32.9127 89.1665 32.7754 88.8284 32.5871C88.6674 32.506 88.5332 32.3802 88.4421 32.2249C88.351 32.0696 88.3068 31.8913 88.3148 31.7115C88.3113 31.5002 88.367 31.2921 88.4756 31.1106C88.5841 30.9291 88.7413 30.7815 88.9294 30.6842C89.3294 30.4579 89.8557 30.3328 90.4958 30.3051H90.7203C91.0494 30.3082 91.3773 30.3463 91.6983 30.4187C92.0594 30.4968 92.4121 30.6104 92.7511 30.7569C93.0975 30.904 93.4288 31.0842 93.7405 31.2949C94.0368 31.4835 94.3063 31.711 94.5418 31.9713L96.5866 30.0704C95.9152 29.2348 95.0483 28.5765 94.0623 28.1533C93.0003 27.6877 91.8525 27.449 90.6925 27.4525V27.4399H90.4665C89.7168 27.4343 88.9702 27.5354 88.2491 27.7404C87.5914 27.9242 86.9717 28.2234 86.4191 28.624C85.9107 28.9976 85.491 29.4785 85.19 30.0324C84.8805 30.6186 84.725 31.2734 84.738 31.9358C84.738 33.1765 85.2026 34.1411 86.1263 34.805C87.05 35.4689 88.369 35.8815 90.0602 36.0331L90.8503 36.1201C91.6395 36.196 92.2406 36.3336 92.6539 36.5327C93.0677 36.7336 93.2848 37.097 93.2848 37.6487C93.2983 37.8665 93.2474 38.0835 93.1384 38.2727C93.0294 38.4619 92.8671 38.615 92.6717 38.7129C92.2004 38.9413 91.6809 39.053 91.1571 39.0385H91.0195C90.5738 39.0328 90.1293 38.9905 89.6905 38.912C89.2486 38.838 88.816 38.7161 88.4005 38.5486C88.0107 38.3956 87.6338 38.2115 87.2735 37.9984C86.9561 37.8232 86.6717 37.5943 86.4329 37.3219L84.391 39.2377C84.7163 39.67 85.1101 40.0465 85.557 40.3522C86.043 40.6972 86.5683 40.9833 87.122 41.2044C87.7261 41.4457 88.3515 41.6304 88.9899 41.756C89.6664 41.8917 90.3547 41.9583 91.0447 41.9555H91.1824C91.9849 41.9615 92.7835 41.8436 93.5498 41.6058C94.2004 41.4118 94.8085 41.0971 95.3422 40.6781C95.8186 40.2959 96.2036 39.8125 96.4693 39.2631C96.7341 38.7165 96.8713 38.1171 96.8705 37.5099C96.8705 36.7322 96.7317 36.0809 96.4567 35.5421C96.1887 35.017 95.7998 34.5628 95.3218 34.2167ZM101.75 27.6519H98.1541V41.7938H101.75V27.6519ZM115.675 29.3559C115.159 28.7401 114.501 28.2588 113.757 27.9535C113 27.6153 112.091 27.4488 111.077 27.4488C110.086 27.4341 109.105 27.6438 108.208 28.062C107.824 28.2449 107.465 28.4779 107.143 28.755V27.6494H103.547V41.809H107.143V34.8794C107.143 33.5274 107.443 32.5253 108.045 31.8992C108.647 31.2731 109.46 30.9463 110.5 30.9463C111.465 30.9463 112.229 31.2102 112.793 31.7604C113.357 32.3107 113.645 33.2384 113.645 34.5538V41.7938H117.247V34.3291C117.255 33.3832 117.12 32.4415 116.846 31.5358C116.605 30.7386 116.206 29.9975 115.675 29.3559ZM132.101 32.3424C132.033 31.9708 131.92 31.609 131.762 31.2657C131.251 30.1278 130.425 29.1589 129.382 28.4723C128.342 27.7959 127.063 27.4625 125.535 27.4625C124.509 27.4453 123.491 27.6371 122.541 28.0254C121.697 28.3749 120.937 28.8999 120.311 29.5654C119.688 30.2355 119.207 31.0236 118.895 31.8829C118.566 32.79 118.401 33.7482 118.407 34.7129C118.396 35.694 118.575 36.6679 118.933 37.5818C119.264 38.4375 119.763 39.2183 120.402 39.8778C121.046 40.5377 121.819 41.0581 122.674 41.4064C123.61 41.7808 124.61 41.9678 125.618 41.9566C126.801 41.9709 127.974 41.7412 129.064 41.2813C130.023 40.8717 130.935 40.3591 131.782 39.7527L129.889 37.6853C129.232 38.0136 128.538 38.262 127.822 38.425C127.098 38.5893 126.359 38.674 125.617 38.6774C124.652 38.6774 123.825 38.425 123.136 37.92C122.447 37.4152 122.109 36.6807 122.109 35.7149H131.982C132.084 35.3856 132.155 35.0477 132.195 34.7051C132.232 34.318 132.244 33.9288 132.232 33.5402C132.22 33.1382 132.176 32.7377 132.101 32.3424ZM122.265 33.457C122.28 33.1119 122.37 32.7742 122.529 32.4672C122.691 32.1381 122.916 31.8442 123.193 31.6027C123.486 31.3302 123.829 31.116 124.202 30.9715C124.625 30.8066 125.076 30.7259 125.53 30.734C126.151 30.7189 126.764 30.8796 127.297 31.1976C127.757 31.471 128.137 31.8596 128.4 32.3247C128.514 32.4978 128.599 32.6881 128.652 32.8887C128.711 33.0707 128.741 33.2607 128.741 33.4518L122.265 33.457ZM143.703 34.2167C143.199 33.8588 142.635 33.5954 142.037 33.4392C141.374 33.271 140.699 33.1579 140.018 33.101L139.053 32.9886C138.17 32.9127 137.549 32.7754 137.21 32.5871C137.049 32.506 136.915 32.3802 136.824 32.2248C136.733 32.0694 136.689 31.8911 136.697 31.7112C136.694 31.4999 136.75 31.292 136.858 31.1106C136.967 30.9291 137.124 30.7814 137.311 30.6839C137.712 30.4579 138.238 30.3328 138.878 30.3051H139.102C139.432 30.3082 139.759 30.3463 140.081 30.4187C140.442 30.4968 140.794 30.6104 141.133 30.7569C141.48 30.904 141.811 31.0841 142.123 31.2949C142.419 31.4832 142.689 31.7107 142.924 31.9713L144.967 30.0702C144.296 29.2345 143.429 28.5762 142.443 28.153C141.381 27.6873 140.233 27.4487 139.072 27.4525V27.4273H138.86C138.11 27.4217 137.364 27.5228 136.643 27.7278C135.985 27.9096 135.366 28.2066 134.813 28.6048C134.3 28.9796 133.876 29.4627 133.572 30.0198C133.263 30.6068 133.108 31.262 133.121 31.9247C133.121 33.164 133.585 34.1283 134.51 34.7921C135.435 35.456 136.752 35.8689 138.444 36.0205L139.232 36.1075C140.022 36.1834 140.624 36.3213 141.037 36.5216C141.451 36.721 141.668 37.0844 141.668 37.6361C141.681 37.854 141.63 38.0709 141.521 38.26C141.412 38.4491 141.249 38.6021 141.054 38.7C140.582 38.9285 140.063 39.0402 139.539 39.0256H139.402C138.956 39.0207 138.511 38.9786 138.073 38.8997C137.631 38.8258 137.198 38.7039 136.783 38.5361C136.393 38.3828 136.015 38.1988 135.654 37.9858C135.337 37.8105 135.053 37.5815 134.815 37.3091L132.773 39.2251C133.098 39.6577 133.491 40.0342 133.938 40.3396C134.424 40.6849 134.95 40.971 135.504 41.1918C136.108 41.4335 136.733 41.6181 137.371 41.7432C138.047 41.8788 138.736 41.9458 139.426 41.9426H139.564C140.362 41.9527 141.157 41.8391 141.92 41.6058C142.57 41.412 143.178 41.0972 143.712 40.6778C144.188 40.2962 144.574 39.8128 144.839 39.2631C145.104 38.7163 145.242 38.1162 145.24 37.5085C145.24 36.7322 145.103 36.0809 144.826 35.5421C144.561 35.0183 144.176 34.5642 143.703 34.2167ZM157.847 35.5321C157.582 35.0067 157.196 34.5516 156.72 34.2041C156.217 33.8463 155.652 33.5828 155.054 33.4266C154.391 33.2584 153.716 33.1452 153.035 33.0884L152.071 32.976C151.187 32.9016 150.568 32.7628 150.229 32.5759C150.067 32.494 149.932 32.3669 149.841 32.2101C149.75 32.0532 149.706 31.8734 149.716 31.6923C149.712 31.4812 149.768 31.2732 149.876 31.0918C149.984 30.9104 150.141 30.7626 150.329 30.6651C150.73 30.4401 151.256 30.314 151.895 30.2862H152.121C152.45 30.2893 152.777 30.3274 153.098 30.3998C153.459 30.4779 153.811 30.5912 154.15 30.738C154.497 30.8851 154.828 31.0653 155.14 31.276C155.437 31.4647 155.707 31.6922 155.943 31.9524L157.985 30.059C157.313 29.2237 156.446 28.5654 155.46 28.1418C154.398 27.6762 153.251 27.4375 152.091 27.4411V27.4196H151.878C151.128 27.414 150.381 27.5152 149.66 27.72C149.003 27.902 148.384 28.1991 147.831 28.5974C147.318 28.9721 146.895 29.4553 146.591 30.0124C146.282 30.5992 146.127 31.2543 146.14 31.9169C146.14 33.1565 146.603 34.1208 147.528 34.7847C148.453 35.4485 149.77 35.8626 151.462 36.0128L152.251 36.0998C153.04 36.1756 153.641 36.3136 154.055 36.5139C154.468 36.7133 154.686 37.077 154.686 37.6284C154.699 37.8463 154.647 38.0633 154.538 38.2524C154.429 38.4416 154.266 38.5946 154.071 38.6926C153.6 38.9213 153.08 39.033 152.556 39.0182H152.419C151.974 39.0132 151.53 38.971 151.091 38.892C150.652 38.8177 150.222 38.6954 149.809 38.5272C149.419 38.3737 149.043 38.1897 148.682 37.9769C148.365 37.8017 148.081 37.5728 147.843 37.3005L145.801 39.2165C146.125 39.6491 146.519 40.0255 146.966 40.3308C147.451 40.6766 147.977 40.9627 148.532 41.1829C149.135 41.4248 149.76 41.6095 150.398 41.7346C151.075 41.8705 151.763 41.9377 152.453 41.9352H152.585C153.383 41.9448 154.178 41.8307 154.94 41.5969C155.591 41.4034 156.199 41.0886 156.733 40.6693C157.21 40.2879 157.595 39.8043 157.86 39.2543C158.125 38.7079 158.263 38.1083 158.261 37.5011C158.265 36.721 158.124 36.0701 157.847 35.5321ZM79.8348 34.5664C79.8348 35.9195 79.5342 36.9216 78.9323 37.548C78.3303 38.1738 77.5176 38.4994 76.5029 38.4994C75.5373 38.4994 74.7736 38.237 74.1968 37.6853C73.6201 37.1337 73.3325 36.2071 73.3325 34.892V27.6531H69.7367V35.1192C69.7289 36.0651 69.8642 37.0069 70.138 37.9125C70.3766 38.712 70.7774 39.454 71.3155 40.0924C71.8455 40.703 72.5099 41.1829 73.2568 41.4945C74.0216 41.833 74.9239 41.9996 75.9385 41.9996C76.9205 42.011 77.8924 41.8013 78.782 41.3861C79.1626 41.2055 79.5168 40.9741 79.8348 40.6982V41.799H83.4305V27.662H79.8348V34.5664ZM99.9523 26.3726C101.08 26.3694 101.992 25.4526 101.988 24.3246C101.985 23.1967 101.068 22.285 99.9408 22.2881C98.8129 22.291 97.9012 23.2081 97.9044 24.3361C97.9075 25.4641 98.8244 26.3757 99.9523 26.3726ZM65.3624 36.5079C65.3624 36.5153 65.3549 36.5242 65.3509 36.5305C65.174 36.9164 64.9391 37.2731 64.6543 37.5883C64.6354 37.6069 64.6179 37.6284 64.599 37.6476C64.58 37.6665 64.5749 37.6739 64.5634 37.6865L64.5508 37.6991L64.5155 37.7357C64.5691 37.9074 64.642 38.0725 64.7326 38.2279C64.8898 38.4762 65.0819 38.7 65.303 38.8932C65.7442 39.2348 66.2595 39.4688 66.8075 39.5762C67.5657 38.7425 68.1166 37.7426 68.4159 36.6573C68.7152 35.5719 68.7543 34.4315 68.5302 33.3282C67.6051 28.4572 61.9359 25.992 57.7557 28.5974V22H54.3039V41.7938H57.7571V40.9102C58.9002 41.5698 60.195 41.9229 61.5154 41.9352C65.4811 41.9352 67.7528 39.6872 67.7528 39.6872C67.1161 39.8248 66.4654 39.8875 65.8144 39.8741C64.6212 39.9001 63.4494 39.5557 62.461 38.8883C59.5076 39.5888 56.7637 36.9949 57.3028 34.0021C57.3395 33.7923 57.3923 33.5854 57.4606 33.3837C57.4818 33.3179 57.507 33.2575 57.5311 33.1891C57.8665 32.3422 58.4644 31.6244 59.2375 31.1403C59.5452 30.9481 59.8765 30.7963 60.2232 30.6888C60.5975 30.5724 60.9861 30.5083 61.3781 30.4982C63.5525 30.4112 65.5327 32.153 65.7183 34.3291V34.8694C65.704 35.4303 65.5783 35.9828 65.3486 36.495L65.3624 36.5079Z" fill="white"/>
<path d="M62.7601 34.9804C62.781 35.0695 62.8195 35.1536 62.8733 35.2277C62.9272 35.3017 62.9954 35.3643 63.0739 35.4117C63.1524 35.4591 63.2395 35.4904 63.3303 35.5037C63.4211 35.517 63.5136 35.5121 63.6024 35.4892C63.7212 35.4585 63.8297 35.3965 63.9165 35.3098C64.0032 35.2231 64.0651 35.1148 64.0957 34.9961C64.1262 34.8775 64.1246 34.7529 64.091 34.6351C64.0574 34.5173 63.993 34.4105 63.9044 34.3257C63.8178 34.2431 63.711 34.1846 63.5948 34.156C63.4785 34.1274 63.3567 34.1297 63.2416 34.1626C63.129 34.1948 63.0265 34.2551 62.9438 34.3378C62.8611 34.4205 62.8009 34.5229 62.769 34.6353C62.7368 34.7477 62.7338 34.8665 62.7601 34.9804ZM58.8928 34.6345C58.8598 34.7511 58.8582 34.8743 58.8881 34.9918C58.9179 35.1093 58.9782 35.2169 59.0628 35.3038C59.1476 35.3902 59.2537 35.4528 59.3705 35.4852C59.4873 35.5176 59.6106 35.5187 59.7279 35.4883C59.8454 35.4578 59.9527 35.3968 60.0388 35.3114C60.125 35.2261 60.1869 35.1194 60.2183 35.0024C60.2498 34.8862 60.2503 34.7638 60.2196 34.6474C60.1888 34.5309 60.1281 34.4246 60.0433 34.3389C59.9585 34.2532 59.8527 34.1912 59.7365 34.1591C59.6202 34.1269 59.4975 34.1258 59.3806 34.1557C59.2645 34.1861 59.1584 34.2463 59.0728 34.3303C58.9872 34.4143 58.9251 34.5191 58.8928 34.6345ZM60.8214 34.9804C60.8496 35.0995 60.909 35.209 60.9935 35.2977C61.0781 35.3863 61.1848 35.4509 61.3026 35.4849C61.3909 35.5101 61.4833 35.5175 61.5745 35.5064C61.6657 35.4954 61.7537 35.4662 61.8333 35.4207C61.913 35.3751 61.9827 35.314 62.0383 35.2411C62.0938 35.1682 62.1342 35.0849 62.157 34.9961C62.1876 34.8775 62.186 34.7529 62.1524 34.6351C62.1189 34.5173 62.0545 34.4105 61.966 34.3257C61.8773 34.2412 61.7676 34.1818 61.6482 34.1537C61.476 34.1138 61.295 34.1416 61.1427 34.2312C60.9904 34.3209 60.8785 34.4656 60.8303 34.6353C60.7981 34.7477 60.7951 34.8665 60.8214 34.9804Z" fill="white"/>
</svg>
