<svg width="170" height="64" viewBox="0 0 170 64" fill="none" xmlns="http://www.w3.org/2000/svg">
<path d="M61.2258 37.7419H49.1484C48.8929 37.7419 48.7652 37.4284 48.9394 37.2426L60.8774 25.3045C61.0981 25.0839 61.2142 24.7935 61.2142 24.48V19.1613C61.2142 18.5226 60.6916 18 60.0529 18H39.1613C38.5226 18 38 18.5226 38 19.1613V23.8065C38 24.4452 38.5226 24.9677 39.1613 24.9677H50.0774C50.3329 24.9677 50.4606 25.2813 50.2865 25.4671L38.3368 37.4052C38.1161 37.6258 38 37.9161 38 38.2297V43.56C38 44.1987 38.5226 44.7213 39.1613 44.7213H61.2258C61.8645 44.7213 62.3871 44.1987 62.3871 43.56V38.9148C62.3871 38.2761 61.8645 37.7535 61.2258 37.7535V37.7419Z" fill="white"/>
<path d="M72.8387 18H65.871C65.2323 18 64.7097 18.5226 64.7097 19.1613V37.7419C64.7097 41.5858 67.8336 44.7097 71.6774 44.7097H72.8387C73.4774 44.7097 74 44.1871 74 43.5484V19.1613C74 18.5226 73.4774 18 72.8387 18Z" fill="white"/>
<path d="M96.0645 18H84.4516C80.6077 18 77.4839 21.1239 77.4839 24.9677V37.7419C77.4839 41.5858 80.6077 44.7097 84.4516 44.7097H85.6129C86.2516 44.7097 86.7742 44.1871 86.7742 43.5484V26.129C86.7742 25.4903 87.2968 24.9677 87.9355 24.9677H90.2581C92.1858 24.9677 93.7419 26.5239 93.7419 28.4516V37.7419C93.7419 41.5858 96.8658 44.7097 100.71 44.7097H101.871C102.51 44.7097 103.032 44.1871 103.032 43.5484V24.9677C103.032 21.1239 99.9084 18 96.0645 18Z" fill="white"/>
<path d="M125.097 18H113.484C109.64 18 106.516 21.1239 106.516 24.9677V37.7419C106.516 41.5858 109.64 44.7097 113.484 44.7097H123.274C123.494 44.7097 123.634 44.9535 123.529 45.151C122.948 46.2658 121.799 47.0323 120.452 47.0323H112.323C109.117 47.0323 106.516 49.6335 106.516 52.8387C106.516 53.4774 107.039 54 107.677 54H125.097C128.941 54 132.065 50.8761 132.065 47.0323V24.9677C132.065 21.1239 128.941 18 125.097 18ZM122.774 36.5806C122.774 37.2194 122.252 37.7419 121.613 37.7419H119.29C117.363 37.7419 115.806 36.1858 115.806 34.2581V26.129C115.806 25.4903 116.329 24.9677 116.968 24.9677H119.29C121.218 24.9677 122.774 26.5239 122.774 28.4516V36.5806Z" fill="white"/>
</svg>
